<svg width="804" height="52" viewBox="0 0 804 52" fill="none" xmlns="http://www.w3.org/2000/svg">
<rect width="4" height="4" fill="white"/>
<rect y="16" width="4" height="4" fill="white"/>
<rect y="32" width="4" height="4" fill="white"/>
<rect y="48" width="4" height="4" fill="white"/>
<rect x="16" y="32" width="4" height="4" fill="white"/>
<rect x="16" y="48" width="4" height="4" fill="white"/>
<rect x="32" y="16" width="4" height="4" fill="white"/>
<rect x="32" y="32" width="4" height="4" fill="white"/>
<rect x="48" width="4" height="4" fill="white"/>
<rect x="48" y="16" width="4" height="4" fill="white"/>
<rect x="48" y="32" width="4" height="4" fill="white"/>
<rect x="48" y="48" width="4" height="4" fill="white"/>
<rect x="64" width="4" height="4" fill="white"/>
<rect x="64" y="48" width="4" height="4" fill="white"/>
<rect x="80" width="4" height="4" fill="white"/>
<rect x="80" y="32" width="4" height="4" fill="white"/>
<rect x="96" y="16" width="4" height="4" fill="white"/>
<rect x="96" y="48" width="4" height="4" fill="white"/>
<rect x="112" y="16" width="4" height="4" fill="white"/>
<rect x="112" y="32" width="4" height="4" fill="white"/>
<rect x="112" y="48" width="4" height="4" fill="white"/>
<rect x="128" y="32" width="4" height="4" fill="white"/>
<rect x="144" width="4" height="4" fill="white"/>
<rect x="144" y="16" width="4" height="4" fill="white"/>
<rect x="144" y="48" width="4" height="4" fill="white"/>
<rect x="160" y="16" width="4" height="4" fill="white"/>
<rect x="160" y="32" width="4" height="4" fill="white"/>
<rect x="160" y="48" width="4" height="4" fill="white"/>
<rect x="176" y="48" width="4" height="4" fill="white"/>
<rect x="192" width="4" height="4" fill="white"/>
<rect x="192" y="32" width="4" height="4" fill="white"/>
<rect x="208" y="16" width="4" height="4" fill="white"/>
<rect x="208" y="32" width="4" height="4" fill="white"/>
<rect x="224" y="16" width="4" height="4" fill="white"/>
<rect x="224" y="48" width="4" height="4" fill="white"/>
<rect x="240" width="4" height="4" fill="white"/>
<rect x="240" y="48" width="4" height="4" fill="white"/>
<rect x="256" y="32" width="4" height="4" fill="white"/>
<rect x="272" y="16" width="4" height="4" fill="white"/>
<rect x="272" y="48" width="4" height="4" fill="white"/>
<rect x="288" width="4" height="4" fill="white"/>
<rect x="304" y="16" width="4" height="4" fill="white"/>
<rect x="304" y="32" width="4" height="4" fill="white"/>
<rect x="320" y="32" width="4" height="4" fill="white"/>
<rect x="336" width="4" height="4" fill="white"/>
<rect x="336" y="16" width="4" height="4" fill="white"/>
<rect x="336" y="48" width="4" height="4" fill="white"/>
<rect x="352" y="32" width="4" height="4" fill="white"/>
<rect x="384" y="16" width="4" height="4" fill="white"/>
<rect x="384" y="48" width="4" height="4" fill="white"/>
<rect x="400" y="32" width="4" height="4" fill="white"/>
<rect x="416" width="4" height="4" fill="white"/>
<rect x="416" y="48" width="4" height="4" fill="white"/>
<rect x="432" y="16" width="4" height="4" fill="white"/>
<rect x="448" y="32" width="4" height="4" fill="white"/>
<rect x="464" y="16" width="4" height="4" fill="white"/>
<rect x="480" y="32" width="4" height="4" fill="white"/>
<rect x="496" y="48" width="4" height="4" fill="white"/>
<rect x="512" y="16" width="4" height="4" fill="white"/>
<rect x="528" y="32" width="4" height="4" fill="white"/>
<rect x="544" y="16" width="4" height="4" fill="white"/>
<rect x="544" y="48" width="4" height="4" fill="white"/>
<rect x="560" width="4" height="4" fill="white"/>
<rect x="576" y="32" width="4" height="4" fill="white"/>
<rect x="592" y="16" width="4" height="4" fill="white"/>
<rect x="608" y="48" width="4" height="4" fill="white"/>
<rect x="624" width="4" height="4" fill="white"/>
<rect x="640" y="48" width="4" height="4" fill="white"/>
<rect x="656" y="16" width="4" height="4" fill="white"/>
<rect x="672" y="32" width="4" height="4" fill="white"/>
<rect x="704" y="32" width="4" height="4" fill="white"/>
<rect x="720" y="48" width="4" height="4" fill="white"/>
<rect x="736" y="32" width="4" height="4" fill="white"/>
<rect x="752" y="48" width="4" height="4" fill="white"/>
<rect x="800" y="48" width="4" height="4" fill="white"/>
</svg>
