<svg width="804" height="52" viewBox="0 0 804 52" fill="none" xmlns="http://www.w3.org/2000/svg">
<rect y="32" width="4" height="4" fill="white"/>
<rect x="16" width="4" height="4" fill="white"/>
<rect x="16" y="16" width="4" height="4" fill="white"/>
<rect x="32" width="4" height="4" fill="white"/>
<rect x="32" y="48" width="4" height="4" fill="white"/>
<rect x="48" width="4" height="4" fill="white"/>
<rect x="48" y="32" width="4" height="4" fill="white"/>
<rect x="64" y="16" width="4" height="4" fill="white"/>
<rect x="64" y="32" width="4" height="4" fill="white"/>
<rect x="80" y="16" width="4" height="4" fill="white"/>
<rect x="80" y="48" width="4" height="4" fill="white"/>
<rect x="96" y="32" width="4" height="4" fill="white"/>
<rect x="112" width="4" height="4" fill="white"/>
<rect x="128" width="4" height="4" fill="white"/>
<rect x="128" y="16" width="4" height="4" fill="white"/>
<rect x="128" y="48" width="4" height="4" fill="white"/>
<rect x="144" y="32" width="4" height="4" fill="white"/>
<rect x="160" width="4" height="4" fill="white"/>
<rect x="176" y="16" width="4" height="4" fill="white"/>
<rect x="176" y="32" width="4" height="4" fill="white"/>
<rect x="192" y="16" width="4" height="4" fill="white"/>
<rect x="192" y="48" width="4" height="4" fill="white"/>
<rect x="208" width="4" height="4" fill="white"/>
<rect x="208" y="48" width="4" height="4" fill="white"/>
<rect x="224" width="4" height="4" fill="white"/>
<rect x="224" y="32" width="4" height="4" fill="white"/>
<rect x="240" y="16" width="4" height="4" fill="white"/>
<rect x="256" width="4" height="4" fill="white"/>
<rect x="256" y="48" width="4" height="4" fill="white"/>
<rect x="272" width="4" height="4" fill="white"/>
<rect x="272" y="32" width="4" height="4" fill="white"/>
<rect x="288" y="16" width="4" height="4" fill="white"/>
<rect x="288" y="32" width="4" height="4" fill="white"/>
<rect x="304" y="48" width="4" height="4" fill="white"/>
<rect x="320" width="4" height="4" fill="white"/>
<rect x="320" y="16" width="4" height="4" fill="white"/>
<rect x="320" y="48" width="4" height="4" fill="white"/>
<rect x="336" y="32" width="4" height="4" fill="white"/>
<rect x="352" width="4" height="4" fill="white"/>
<rect x="352" y="48" width="4" height="4" fill="white"/>
<rect x="368" width="4" height="4" fill="white"/>
<rect x="368" y="48" width="4" height="4" fill="white"/>
<rect x="384" y="32" width="4" height="4" fill="white"/>
<rect x="400" width="4" height="4" fill="white"/>
<rect x="400" y="16" width="4" height="4" fill="white"/>
<rect x="400" y="48" width="4" height="4" fill="white"/>
<rect x="416" y="16" width="4" height="4" fill="white"/>
<rect x="432" y="32" width="4" height="4" fill="white"/>
<rect x="432" y="48" width="4" height="4" fill="white"/>
<rect x="448" y="16" width="4" height="4" fill="white"/>
<rect x="448" y="48" width="4" height="4" fill="white"/>
<rect x="464" width="4" height="4" fill="white"/>
<rect x="464" y="32" width="4" height="4" fill="white"/>
<rect x="480" width="4" height="4" fill="white"/>
<rect x="480" y="48" width="4" height="4" fill="white"/>
<rect x="496" y="16" width="4" height="4" fill="white"/>
<rect x="512" y="32" width="4" height="4" fill="white"/>
<rect x="512" y="48" width="4" height="4" fill="white"/>
<rect x="528" width="4" height="4" fill="white"/>
<rect x="528" y="48" width="4" height="4" fill="white"/>
<rect x="544" width="4" height="4" fill="white"/>
<rect x="544" y="32" width="4" height="4" fill="white"/>
<rect x="560" y="16" width="4" height="4" fill="white"/>
<rect x="560" y="48" width="4" height="4" fill="white"/>
<rect x="576" width="4" height="4" fill="white"/>
<rect x="576" y="16" width="4" height="4" fill="white"/>
<rect x="576" y="48" width="4" height="4" fill="white"/>
<rect x="592" y="32" width="4" height="4" fill="white"/>
<rect x="608" width="4" height="4" fill="white"/>
<rect x="608" y="32" width="4" height="4" fill="white"/>
<rect x="624" y="16" width="4" height="4" fill="white"/>
<rect x="624" y="48" width="4" height="4" fill="white"/>
<rect x="640" width="4" height="4" fill="white"/>
<rect x="640" y="16" width="4" height="4" fill="white"/>
<rect x="640" y="32" width="4" height="4" fill="white"/>
<rect x="656" y="48" width="4" height="4" fill="white"/>
<rect x="672" width="4" height="4" fill="white"/>
<rect x="672" y="16" width="4" height="4" fill="white"/>
<rect x="688" width="4" height="4" fill="white"/>
<rect x="688" y="32" width="4" height="4" fill="white"/>
<rect x="688" y="48" width="4" height="4" fill="white"/>
<rect x="704" y="16" width="4" height="4" fill="white"/>
<rect x="704" y="48" width="4" height="4" fill="white"/>
<rect x="720" width="4" height="4" fill="white"/>
<rect x="720" y="32" width="4" height="4" fill="white"/>
<rect x="736" y="16" width="4" height="4" fill="white"/>
<rect x="736" y="48" width="4" height="4" fill="white"/>
<rect x="752" y="32" width="4" height="4" fill="white"/>
<rect x="768" width="4" height="4" fill="white"/>
<rect x="768" y="16" width="4" height="4" fill="white"/>
<rect x="768" y="32" width="4" height="4" fill="white"/>
<rect x="768" y="48" width="4" height="4" fill="white"/>
<rect x="784" y="16" width="4" height="4" fill="white"/>
<rect x="784" y="48" width="4" height="4" fill="white"/>
<rect x="800" y="16" width="4" height="4" fill="white"/>
<rect x="800" y="32" width="4" height="4" fill="white"/>
</svg>
