<svg width="81" height="81" viewBox="0 0 81 81" fill="none" xmlns="http://www.w3.org/2000/svg">
<path d="M40.3799 80.3799C62.4713 80.3799 80.3799 62.4713 80.3799 40.3799C80.3799 18.2885 62.4713 0.379883 40.3799 0.379883C18.2885 0.379883 0.379883 18.2885 0.379883 40.3799C0.379883 62.4713 18.2885 80.3799 40.3799 80.3799Z" fill="white"/>
<path d="M40.38 79.4309C61.9478 79.4309 79.4319 61.9468 79.4319 40.379C79.4319 18.8113 61.9478 1.32715 40.38 1.32715C18.8122 1.32715 1.32812 18.8113 1.32812 40.379C1.32812 61.9468 18.8122 79.4309 40.38 79.4309Z" fill="#231815"/>
<path d="M11.3374 37.1233L4.13086 35.672L4.36373 34.516L5.9481 34.3164L11.6701 35.4683L11.3374 37.1233ZM12.2481 32.6031L6.13938 35.356L4.35957 34.516L10.4683 31.7548L12.244 32.6031H12.2481ZM12.2481 32.6031L10.6471 32.7237L4.95423 31.576L5.2869 29.9209L12.4935 31.3722L12.244 32.6031H12.2481Z" fill="#FF6445"/>
<path d="M12.8346 30.5076L6.0979 27.5551L6.77573 26.0082L13.5124 28.9606L12.8346 30.5076ZM8.069 26.9563L6.63434 26.3284L8.069 23.0557L9.50366 23.6836L8.069 26.9563ZM10.6348 28.0832L9.23752 27.4719L10.5557 24.4654L11.953 25.0767L10.6348 28.0832ZM13.371 29.2808L11.9363 28.6529L13.3876 25.3386L14.8223 25.9666L13.371 29.2808Z" fill="#FF6445"/>
<path d="M15.9742 24.0612L8.88818 21.1753L9.92363 19.8571L15.3047 22.1567L14.8597 22.7181L11.3458 18.044L12.1775 16.9836L17.5544 19.2915L17.1053 19.8612L13.608 15.1664L14.6393 13.8564L19.1013 20.0775L18.2571 21.1503L12.8969 18.8383L13.3169 18.306L16.8225 22.9717L15.97 24.0529L15.9742 24.0612Z" fill="#FF6445"/>
<path d="M18.6438 12.6685L17.7539 11.3419L22.5527 8.11914L23.4426 9.44568L18.6438 12.6643V12.6685ZM23.5425 16.3113L19.4755 10.2483L20.8769 9.30845L24.9438 15.3715L23.5425 16.3113Z" fill="#FF6445"/>
<path d="M26.6282 14.1769L26.3662 6.37981L27.884 5.78516L32.9656 11.6901L31.3147 12.3389L27.2603 7.29051L27.8217 7.07011L28.2541 13.5406L26.6324 14.1769H26.6282ZM27.6304 12.4012L27.0939 11.0289L30.533 9.68161L31.0694 11.0539L27.6304 12.4012Z" fill="#FF6445"/>
<path d="M33.5601 11.7319L32.0381 4.53779L33.689 4.18848L35.211 11.3826L33.5601 11.7319Z" fill="#FF6445"/>
<path d="M36.2882 11.121L35.8516 3.78135L37.5357 3.68155L37.9724 11.0212L36.2882 11.121ZM37.4692 8.42217L37.386 7.03325L38.7043 6.95424C38.8664 6.94592 39.0161 6.90018 39.145 6.81701C39.274 6.738 39.3779 6.62156 39.4486 6.4677C39.5193 6.31384 39.5526 6.13503 39.5401 5.9271C39.5276 5.71502 39.4777 5.53621 39.3862 5.39482C39.2947 5.25344 39.1825 5.14948 39.0411 5.08294C38.8997 5.01641 38.75 4.9873 38.5878 4.99561L37.2696 5.07462L37.1864 3.69818L38.7874 3.60254C39.2199 3.57759 39.6149 3.64828 39.9684 3.81462C40.3219 3.98096 40.6088 4.23462 40.8292 4.57561C41.0496 4.9166 41.1785 5.33245 41.2076 5.83146C41.2367 6.32215 41.1619 6.75047 40.9831 7.11226C40.8043 7.47404 40.5464 7.76513 40.2179 7.97305C39.8852 8.18513 39.5068 8.30157 39.0744 8.32652L37.4734 8.42217H37.4692Z" fill="#FF6445"/>
<path d="M42.0474 10.8735L43.0371 3.58789L44.7088 3.8166L43.7191 11.1022L42.0474 10.8735ZM43.3739 11.0564L43.586 9.50535L47.1747 9.99188L46.9626 11.543L43.3739 11.0564ZM43.7773 8.09564L43.981 6.58612L47.2329 7.02692L47.0292 8.53643L43.7773 8.09564ZM44.1515 5.32196L44.3636 3.77086L47.9066 4.24908L47.6945 5.80018L44.1557 5.32196H44.1515Z" fill="#FF6445"/>
<path d="M47.7864 11.8452L49.8365 4.78418L51.4583 5.25408L49.4082 12.3151L47.7864 11.8452Z" fill="#FF6445"/>
<path d="M54.9967 14.9535C54.5518 14.7081 54.1859 14.3921 53.9031 14.0137C53.6162 13.6352 53.4165 13.2152 53.3001 12.7578C53.1837 12.3004 53.1587 11.8263 53.2253 11.3356C53.2918 10.8449 53.4623 10.3584 53.7243 9.88018C53.9862 9.41028 54.3065 9.01523 54.6807 8.69919C55.0591 8.38314 55.4708 8.15443 55.9158 8.0172C56.3649 7.87997 56.8223 7.83007 57.2922 7.8675C57.7621 7.90908 58.2195 8.05047 58.6645 8.29582C59.1261 8.55364 59.4962 8.86137 59.7748 9.22731C60.0534 9.59325 60.2572 9.99246 60.3819 10.4249L58.7851 10.9739C58.7352 10.7243 58.6354 10.4956 58.4857 10.2877C58.336 10.0798 58.1281 9.89682 57.8578 9.74711C57.6249 9.6182 57.3879 9.54335 57.1383 9.5184C56.8888 9.49345 56.6476 9.52671 56.4189 9.60988C56.1902 9.69721 55.9698 9.83028 55.7619 10.0174C55.554 10.2045 55.3752 10.4333 55.2213 10.7119C55.0591 11.003 54.9552 11.2857 54.9094 11.556C54.8595 11.8305 54.8637 12.0883 54.9094 12.3295C54.9593 12.5707 55.0591 12.7911 55.2047 12.9907C55.3502 13.1903 55.5457 13.3566 55.7827 13.4897C56.0571 13.6436 56.3233 13.7309 56.5811 13.7475C56.8389 13.7683 57.0926 13.7351 57.3421 13.6519L57.7288 15.2903C57.288 15.4109 56.8431 15.4483 56.394 15.4109C55.9449 15.3693 55.4791 15.2155 54.9967 14.9493V14.9535Z" fill="#FF6445"/>
<path d="M59.9747 18.6295C59.5921 18.2801 59.3093 17.8892 59.1181 17.4568C58.9268 17.0243 58.8311 16.5669 58.8228 16.0928C58.8145 15.6187 58.9018 15.1488 59.0848 14.6789C59.2636 14.2132 59.5381 13.7766 59.8998 13.3815C60.2616 12.9823 60.665 12.6746 61.1099 12.4542C61.5507 12.2338 62.0082 12.1049 62.4822 12.0633C62.9563 12.0217 63.4137 12.0758 63.8587 12.2338C64.3036 12.3876 64.7195 12.6371 65.0979 12.9865C65.4805 13.3358 65.7674 13.7225 65.9587 14.155C66.15 14.5875 66.2498 15.0366 66.2539 15.5106C66.2539 15.9847 66.1666 16.4546 65.9878 16.9162C65.809 17.3778 65.5345 17.8102 65.1727 18.2094C64.811 18.6087 64.4034 18.9164 63.9585 19.1409C63.5135 19.3613 63.0561 19.4944 62.582 19.536C62.108 19.5776 61.6505 19.5235 61.2056 19.3738C60.7606 19.2241 60.349 18.9788 59.9705 18.6336L59.9747 18.6295ZM61.0808 17.3902C61.3553 17.6397 61.6547 17.7936 61.9832 17.8477C62.3117 17.9017 62.6403 17.8601 62.9688 17.7188C63.2973 17.5774 63.6092 17.3487 63.9003 17.0243C64.1165 16.7914 64.2787 16.5461 64.3951 16.2966C64.5116 16.0471 64.5698 15.7934 64.5781 15.5439C64.5864 15.2944 64.5407 15.0532 64.4409 14.8286C64.3411 14.6041 64.1914 14.3962 63.9834 14.209C63.709 13.9595 63.4096 13.8057 63.0894 13.7516C62.765 13.6934 62.4407 13.735 62.108 13.868C61.7795 14.0011 61.4676 14.2257 61.1806 14.5417C60.9561 14.7871 60.7856 15.0366 60.6692 15.2902C60.5527 15.5439 60.4903 15.7976 60.482 16.0471C60.4737 16.2966 60.5236 16.5378 60.6234 16.7665C60.7274 16.9952 60.8771 17.2031 61.0808 17.3902Z" fill="#FF6445"/>
<path d="M62.9688 21.3461L69.0733 17.25L70.0131 18.6514L63.9086 22.7516L62.9688 21.3502V21.3461ZM63.5967 22.2859L64.9232 21.396L65.8214 22.735C66.0294 23.0427 66.2747 23.2714 66.5658 23.417C66.8569 23.5625 67.1729 23.6124 67.5181 23.5625C67.8632 23.5126 68.2209 23.3629 68.5951 23.1134C68.9611 22.868 69.2314 22.5936 69.3977 22.2983C69.564 21.9989 69.6389 21.6912 69.6181 21.3669C69.5973 21.0425 69.485 20.7306 69.2771 20.4187L68.3414 19.0257L69.668 18.1357L70.6078 19.5371C70.8947 19.9655 71.086 20.4104 71.1858 20.872C71.2815 21.3336 71.2856 21.7869 71.1941 22.236C71.1027 22.6851 70.9197 23.1051 70.6452 23.5001C70.3708 23.8952 70.0048 24.2486 69.5516 24.5522C69.0983 24.8558 68.6325 25.0637 68.1585 25.1677C67.6844 25.2758 67.2228 25.2841 66.7737 25.2009C66.3246 25.1178 65.9088 24.9431 65.5179 24.6811C65.1311 24.4191 64.7943 24.0782 64.5115 23.654L63.5967 22.29V22.2859Z" fill="#FF6445"/>
<path d="M66.6697 27.1629L73.5145 24.4766L74.1299 26.0485L67.2851 28.7348L66.6697 27.1629ZM67.1604 28.4104L68.62 27.8366L69.9424 31.2049L68.4828 31.7788L67.1604 28.4104ZM69.9424 27.3168L71.3604 26.7595L72.558 29.8118L71.14 30.3691L69.9424 27.3168ZM72.5455 26.2938L74.001 25.7199L75.3067 29.0467L73.8471 29.6205L72.5414 26.2938H72.5455Z" fill="#FF6445"/>
<path d="M68.6572 32.5155L75.8887 31.1807L76.1965 32.8399L68.9649 34.1747L68.6572 32.5155ZM71.6014 33.3306L73.14 33.0478L73.7388 36.3039L72.2002 36.5866L71.6014 33.3306ZM74.5913 32.7817L76.1299 32.4989L76.7537 35.8922L75.2151 36.1749L74.5913 32.7817Z" fill="#FF6445"/>
<path d="M69.5555 39.2531L71.1232 39.2656L71.0941 42.8876L69.5264 42.8751L69.5555 39.2531ZM69.568 37.9141L76.9201 37.9764L76.9076 39.6648L69.5555 39.6024L69.568 37.9141ZM72.5412 39.278L74.0674 39.2905L74.0424 42.5715L72.5163 42.559L72.5412 39.278ZM75.344 39.2988L76.9117 39.3113L76.8826 42.8834L75.3149 42.8709L75.344 39.2988Z" fill="#FF6445"/>
<path d="M68.911 45.492C69.0191 44.9431 69.2062 44.4857 69.4682 44.1239C69.7343 43.7579 70.0961 43.4502 70.5536 43.1924L71.5058 44.4732C71.2064 44.6437 70.9569 44.8474 70.7656 45.0762C70.5743 45.309 70.4454 45.5876 70.3789 45.912C70.3248 46.1906 70.3373 46.4152 70.4122 46.5857C70.487 46.7562 70.6159 46.8601 70.7989 46.8976C70.9736 46.9308 71.1274 46.9017 71.2605 46.8102C71.3894 46.7187 71.5142 46.5898 71.6306 46.4276C71.747 46.2655 71.8676 46.0783 71.9924 45.8746C72.1171 45.6667 72.2544 45.467 72.4041 45.2716C72.5538 45.0762 72.7326 44.9057 72.9322 44.756C73.1318 44.6063 73.3647 44.4981 73.6266 44.4358C73.8886 44.3734 74.2047 44.3775 74.5706 44.4482C75.0239 44.5356 75.3981 44.7144 75.6934 44.9805C75.9886 45.2467 76.1841 45.5752 76.288 45.9661C76.392 46.357 76.3962 46.7894 76.3047 47.2677C76.2132 47.7417 76.0385 48.1659 75.7807 48.536C75.5271 48.9061 75.2152 49.1847 74.8534 49.3801L73.9011 48.0993C74.1631 47.9455 74.3668 47.7791 74.5165 47.6003C74.6621 47.4215 74.7619 47.2094 74.8118 46.9599C74.8575 46.7312 74.8492 46.5441 74.7827 46.3985C74.7203 46.253 74.608 46.1615 74.4459 46.1324C74.2837 46.0991 74.1423 46.1324 74.0217 46.2239C73.9011 46.3154 73.7847 46.4443 73.6682 46.6106C73.5518 46.777 73.4312 46.9599 73.3064 47.1637C73.1817 47.3675 73.0445 47.5671 72.8948 47.7583C72.7451 47.9538 72.5662 48.1243 72.3625 48.274C72.1587 48.4237 71.9134 48.5277 71.6348 48.59C71.3561 48.6524 71.0318 48.6441 70.6658 48.5734C69.9547 48.4362 69.4433 48.0952 69.1314 47.5546C68.8195 47.014 68.7488 46.332 68.9068 45.5045L68.911 45.492Z" fill="#FF6445"/>
<path d="M67.7883 50.0625L74.5666 52.7738L73.9387 54.3415L67.1604 51.6302L67.7883 50.0625ZM73.8888 50.312L75.3733 50.9067L73.2276 56.271L71.743 55.6764L73.8888 50.312Z" fill="#FF6445"/>
<mask id="mask0_40000506_32359" style="mask-type:luminance" maskUnits="userSpaceOnUse" x="2" y="2" width="76" height="76">
<path d="M40.38 77.7028C61.0337 77.7028 77.7768 60.9597 77.7768 40.306C77.7768 19.6523 61.0337 2.90918 40.38 2.90918C19.7263 2.90918 2.98315 19.6523 2.98315 40.306C2.98315 60.9597 19.7263 77.7028 40.38 77.7028Z" fill="white"/>
</mask>
<g mask="url(#mask0_40000506_32359)">
<path d="M9.90287 49.6447C9.68663 45.2784 10.4476 43.9019 10.6056 41.1823C10.7637 38.4627 9.00049 36.188 9.00049 36.188C9.79475 36.4209 11.0381 36.8825 11.0381 36.8825C10.1524 34.3042 11.0464 32.1377 11.0464 32.1377C10.9757 33.9965 12.951 35.7597 21.272 40.1967C29.5931 44.6338 30.1586 47.578 30.1586 47.578C30.1586 47.578 45.1706 61.9329 37.544 83.4445C37.544 83.4445 11.3375 78.6955 9.89871 49.6447H9.90287Z" fill="#D25839"/>
<path d="M38.1634 83.5156C40.2135 76.5295 41.0618 73.9346 39.1198 62.9314C37.997 57.2967 32.957 48.8509 28.7944 44.8754C22.3738 38.7459 11.9486 35.4192 11.3331 31.7764C10.0357 32.6787 10.3143 34.837 10.4973 36.2467C9.41194 36.1427 8.80897 35.4067 8.77986 36.4671C8.76738 36.4837 8.75491 36.4962 8.74243 36.5128C8.75907 36.517 8.77154 36.5253 8.78817 36.5295C10.6553 39.1451 10.2644 42.6548 9.6365 45.6281C9.23729 48.1149 9.32877 50.3064 9.45768 52.8139C11.4787 69.1482 19.5336 76.9328 33.6265 82.4843C36.3877 83.5739 37.7018 84.9711 38.1634 83.5156ZM37.3067 83.1622C22.0328 77.4443 14.0569 71.2732 10.4016 54.1737C10.2353 53.4044 10.148 51.8866 10.148 51.1006C10.148 49.2501 9.95254 47.3705 10.2811 45.5366C10.6553 42.7338 11.4912 39.6524 10.044 36.9827C10.5555 37.2655 11.3082 37.2905 11.2999 36.5419C11.1294 35.5148 10.7925 34.4835 10.9714 33.4273C14.086 36.4297 17.5625 38.2344 21.2011 40.534C29.7425 44.8546 37.0988 56.4983 38.6208 65.7633C39.6271 71.2524 39.02 77.5608 37.3067 83.1663V83.1622Z" fill="black"/>
<g style="mix-blend-mode:multiply" opacity="0.5">
<path d="M18.9889 64.7624C12.8386 55.697 13.1089 52.1332 12.4685 42.3525C12.2398 43.887 10.6845 41.5708 10.3726 43.8995C10.0191 46.5151 9.45776 48.8106 9.64073 51.4512C9.94845 55.9423 11.4912 60.6164 13.7534 64.4546C15.3794 67.2158 17.6998 71.578 20.1034 73.6531C23.3553 76.46 32.2335 82.8266 37.5023 83.3755C37.6561 83.3921 25.1392 73.8236 18.9931 64.7582L18.9889 64.7624Z" fill="#DD593A"/>
</g>
<path d="M24.8857 45.0489C23.4427 45.0489 21.7336 44.9158 19.5296 42.3501C20.64 46.5501 17.0928 48.6751 18.0576 50.2802C16.3859 50.0016 14.8847 47.1489 12.9344 46.7289C12.2565 46.5834 12.4437 49.066 11.5787 50.0432C11.5662 48.9412 10.3353 48.3466 9.8197 46.8911C9.9195 44.5166 10.4851 43.2275 10.6056 41.1774C10.7637 38.4578 9.00049 36.1831 9.00049 36.1831C9.79475 36.416 11.0381 36.8776 11.0381 36.8776C10.1524 34.2994 11.0464 32.1328 11.0464 32.1328C10.9757 33.9916 13.5124 35.6259 21.8334 40.0629C23.0019 40.6867 23.1101 40.9861 24.0374 41.5725C24.5156 42.5913 23.7879 43.9012 24.8816 45.0448L24.8857 45.0489Z" fill="white"/>
<path d="M12.9011 43.5592C12.294 41.7586 12.61 38.856 10.1357 36.5605C9.76563 36.4316 9.34147 36.2902 9.00464 36.1904C9.00464 36.1904 10.7678 38.4609 10.6098 41.1847C10.4892 43.2348 9.92365 44.5239 9.82385 46.8984C10.3395 48.3539 11.5704 48.9485 11.5829 50.0505C11.8573 49.7428 12.1817 47.755 13.0092 47.0315C14.211 47.0315 16.5979 49.7677 17.4587 50.0172C17.1968 49.7386 13.9698 46.7196 12.9053 43.5592H12.9011Z" fill="#E5E5E6"/>
<path d="M25.3349 44.9064C24.8692 44.3658 24.7486 43.8584 24.7777 43.1681C24.7943 42.7648 24.8484 42.3365 24.682 41.9539C24.366 41.2303 23.343 40.5192 22.6777 40.12C20.5111 38.8101 18.2032 37.7289 16.0242 36.4356C14.8099 35.7121 13.5374 34.9677 12.5103 33.9821C11.9697 33.4623 11.5372 32.6639 11.5539 31.8821C11.5622 31.4954 10.8303 31.7782 10.6307 32.1815C10.0111 33.4291 10.061 34.9303 10.377 36.2859C10.0236 36.1653 9.66593 36.0447 9.3083 35.9366C9.14613 35.8867 8.28117 35.9699 8.54731 36.3192C9.87801 38.0574 10.2107 40.1242 10.0568 42.2574C9.95286 43.6505 9.81979 45.0394 9.7491 46.4325C9.70752 47.2185 10.0028 47.7591 10.4103 48.4244C10.743 48.965 11.2253 49.622 11.2628 50.2749C11.2836 50.6533 11.8741 50.2915 12.0154 50.1169C12.5061 49.5014 12.6475 48.7197 12.8014 47.967C12.8596 47.6884 12.8887 47.3474 13.0176 47.0854C13.0717 47.1062 13.1257 47.1311 13.1798 47.1519C13.3129 47.3058 13.7038 47.4513 13.8867 47.5844C15.1967 48.5367 16.1864 50.1876 17.8497 50.5452C18.0535 50.5909 18.6274 50.724 18.4527 50.3997C17.9371 49.4515 19.0432 47.8755 19.4341 47.0521C19.9705 45.9252 20.245 44.7733 20.1951 43.584C21.4884 44.686 22.9521 45.318 24.7985 45.3222C24.9232 45.3222 25.0355 45.2848 25.127 45.2307C25.3224 45.16 25.4555 45.0353 25.3391 44.898L25.3349 44.9064ZM19.9789 42.2117C19.8042 42.0121 18.9517 42.0287 19.0474 42.4196C19.4923 44.2452 19.0931 45.8711 18.2573 47.5095C17.9287 48.1499 17.4422 48.8943 17.4214 49.6345C16.7935 49.227 16.2529 48.6032 15.7497 48.125C15.0511 47.4596 14.2194 46.6695 13.2339 46.4783C12.6059 46.3577 12.2151 46.6404 12.0196 47.2309C11.8574 47.7216 11.795 48.2497 11.6745 48.7529C11.6287 48.6656 11.5788 48.5783 11.5289 48.4909C11.0881 47.7632 10.6598 47.1727 10.7055 46.2911C10.7804 44.8149 10.9301 43.3469 11.0341 41.8707C11.1588 40.1158 10.8552 38.3651 9.98613 36.8473C10.2356 36.9346 10.4851 37.022 10.7305 37.1135C10.8968 37.1758 11.6246 37.1342 11.5206 36.8016C11.2212 35.8576 11.0673 34.818 11.1463 33.8075C12.0279 35.0051 13.7246 35.9033 14.7434 36.5271C16.7727 37.7622 18.8727 38.8808 20.9686 40.0036C21.8335 40.4693 23.5135 41.2844 23.8046 42.3448C23.921 42.7731 23.7963 43.2513 23.8129 43.6838C23.8254 44.0622 23.9294 44.3866 24.0957 44.686C22.4365 44.4448 21.1598 43.5382 19.983 42.1992L19.9789 42.2117Z" fill="black"/>
<path d="M54.3606 62.8186C56.785 64.0038 59.4381 66.6985 61.3052 70.0335C63.1682 73.3728 67.3932 80.7997 68.3538 81.9391C69.3144 83.0785 70.8322 86.3637 72.0714 88.1643C73.3106 89.9649 73.9718 91.6657 73.4562 93.0796C72.9405 94.4934 72.4041 94.6348 72.4041 94.6348L73.3023 96.215C73.3023 96.215 72.2793 97.3046 69.2769 98.4232C66.2745 99.5418 63.4925 99.4753 63.2971 99.259C63.1017 99.0428 62.7814 97.4543 62.7814 97.4543C62.7814 97.4543 61.4341 97.5748 61.168 97.0426C60.9018 96.5103 59.6834 96.3148 58.2072 88.0146C56.7309 79.7144 54.6268 72.8737 53.6911 71.0357C53.1172 69.9088 50.8634 65.5466 51.1004 63.4507C51.2501 62.1325 53.4291 62.3612 54.3648 62.8186H54.3606Z" fill="#E5E5E6"/>
<path d="M29.4849 62.9365C27.0606 64.1217 24.4075 66.8164 22.5403 70.1514C20.6774 73.4907 16.4524 80.9176 15.4918 82.057C14.5312 83.1964 12.7181 87.2592 11.4789 89.0598C10.2397 90.8604 9.87789 91.2888 10.3977 92.7068C10.9133 94.1207 11.4415 94.7569 11.4415 94.7569L10.5432 96.3371C10.5432 96.3371 11.5662 97.4266 14.5686 98.5452C17.571 99.6639 20.353 99.5973 20.5484 99.3811C20.7439 99.1648 21.0641 97.5763 21.0641 97.5763C21.0641 97.5763 22.4114 97.6969 22.6776 97.1646C22.9437 96.6324 24.1621 96.4369 25.6384 88.1367C27.1146 79.8364 29.2188 72.9958 30.1544 71.1578C30.7283 70.0308 32.9822 65.6686 32.7451 63.5728C32.5954 62.2546 30.4164 62.4833 29.4808 62.9407L29.4849 62.9365Z" fill="#E5E5E6"/>
<path d="M21.2886 96.2315C21.2886 96.2315 19.6835 101.259 22.7898 102.827C22.7898 102.827 23.0393 104.727 23.1932 105.239C23.3471 105.75 31.0901 106.532 33.5768 106.74C36.0636 106.948 42.4509 107.684 49.9486 106.74C57.4462 105.796 59.7708 104.656 59.7708 104.656L59.8207 102.436C59.8207 102.436 62.0371 102.078 62.3199 100.506C62.6027 98.9345 63.688 97.8242 62.3199 93.7239C60.9518 89.6196 53.3502 65.3593 51.9654 62.8184C50.5807 60.2776 32.2087 59.1881 31.3063 61.862C30.4039 64.5359 21.6962 93.7822 21.2845 96.2356L21.2886 96.2315Z" fill="#E5E5E6"/>
<path d="M68.1792 80.4393C63.9459 73.4365 59.5297 58.803 48.2811 62.9614C47.7197 63.2982 48.2561 63.3024 48.8799 63.1028C59.9455 59.5723 63.1142 76.048 68.1002 82.0403C69.1315 83.4999 74.1258 90.8063 73.0903 92.8148C72.3959 94.3701 72.4 94.2536 72.9448 95.7839C73.2858 97.4889 63.7837 99.7053 63.4012 98.4703C62.0871 97.8174 62.6734 100.213 64.7027 99.7885C67.9338 99.6388 71.3355 98.6158 73.8305 96.4992C74.1382 95.8505 73.5519 95.2101 73.1652 94.5988C75.6852 91.1265 70.0255 83.4999 68.175 80.4393H68.1792Z" fill="black"/>
<path d="M33.7347 62.8999C24.399 60.5629 20.7105 73.7618 16.1653 80.3072C11.6285 89.0607 7.90253 91.2979 10.7802 95.0363C10.5639 95.4355 10.2978 95.8306 10.0899 96.2298C9.96511 96.4668 10.0441 96.7538 10.2562 96.9118C13.059 98.9536 17.8869 100.85 21.064 99.2987C21.3052 98.9494 20.9517 98.9869 20.5941 99.1241C17.8204 99.2571 13.8283 98.4088 11.2833 96.5625C11.0421 96.3878 10.9839 96.0468 11.1586 95.8056C11.379 95.5021 11.6202 95.2526 11.8655 94.9948C9.30808 91.7844 11.0297 90.3082 16.7974 80.8727C20.1907 75.3253 23.4883 66.6508 28.9816 63.6069C29.7094 63.3116 32.3209 62.9374 33.2648 63.1786C33.5726 63.2784 33.9094 63.2035 33.7389 62.8916L33.7347 62.8999Z" fill="black"/>
<path d="M39.2115 64.3127C41.2616 62.3084 38.4131 73.3532 37.7269 76.4096C37.6355 76.8088 36.9909 77.2871 36.8079 76.917C36.7747 76.8504 36.758 76.7756 36.7705 76.6966C36.837 76.2599 38.6626 67.3027 39.0244 64.6828C39.041 64.5664 39.1242 64.4001 39.2073 64.3169L39.2115 64.3127Z" fill="#E5E5E6"/>
<path d="M39.4901 64.2862C39.5275 64.2488 39.5774 64.2155 39.6107 64.1781C39.6606 64.124 39.698 64.1573 39.6232 64.1573C39.6024 64.1573 39.4402 64.203 39.4693 64.1906C39.2614 64.2571 39.4236 64.1615 39.4277 64.1947C39.4277 64.1947 39.4693 64.2155 39.4818 64.2405C39.5608 64.4027 39.6024 64.5482 39.619 64.7312C39.6856 65.4215 39.5733 66.1409 39.4735 66.8229C39.1741 68.9146 38.6959 70.9813 38.2218 73.0356C38.018 73.9088 37.8101 74.7821 37.6063 75.6554C37.5232 76.0088 37.4941 76.4995 37.2487 76.7782C37.2238 76.8073 37.1531 76.8904 37.124 76.8987C37.2196 76.8738 37.1032 76.8405 37.0824 76.7241C37.0658 76.6451 37.0824 76.6409 37.0824 76.5869C37.0865 76.512 37.1115 76.4372 37.124 76.3623C37.4566 74.6158 37.8143 72.8692 38.1511 71.1227C38.4006 69.8419 38.646 68.5652 38.8788 67.2844C38.9745 66.748 39.0701 66.2157 39.1616 65.6793C39.2281 65.2759 39.2198 64.6106 39.486 64.2904C39.6066 64.1448 39.0244 64.2197 38.9287 64.3361C38.6376 64.6896 38.646 65.2343 38.5753 65.671C38.4879 66.1866 38.4006 66.6981 38.305 67.2096C38.0763 68.4696 37.8351 69.7296 37.5939 70.9854C37.2321 72.8609 36.8329 74.7322 36.4919 76.6118C36.4212 76.9986 36.6 77.2189 37.0075 77.1566C37.598 77.0651 37.9598 76.6659 38.0887 76.1086C38.2925 75.2104 38.5129 74.3122 38.7208 73.414C39.2406 71.1892 39.7646 68.952 40.0889 66.6856C40.1555 66.2116 40.2178 65.7292 40.2428 65.251C40.2594 64.9349 40.2802 64.5815 40.1929 64.2737C40.0141 63.6583 39.2573 64.0242 38.9371 64.3278C38.8372 64.4234 39.0285 64.4318 39.0826 64.4276C39.2115 64.4276 39.3986 64.3735 39.4943 64.2821L39.4901 64.2862Z" fill="black"/>
<path d="M36.9077 72.7773C36.4211 73.6257 37.5273 74.9314 38.2841 75.3348C39.5192 75.1352 37.4857 72.8605 36.9077 72.7773Z" fill="#E5E5E6"/>
<path d="M36.6124 72.7444C36.2922 73.3266 36.5874 74.0086 36.9409 74.4993C37.1364 74.7696 37.3692 75.015 37.6271 75.227C37.7352 75.3185 37.8516 75.4017 37.9722 75.4724C38.0679 75.5264 38.1552 75.5639 38.2716 75.5514C38.3506 75.5431 38.4296 75.5223 38.5045 75.4932C39.569 75.1023 38.5669 73.8298 38.1261 73.3516C37.8391 73.0397 37.4566 72.628 37.0158 72.5573C36.8744 72.5324 36.6789 72.6114 36.6124 72.7444C36.5459 72.8858 36.6748 72.9773 36.7995 72.9981C36.8245 73.0023 36.7288 72.969 36.7787 72.9981C36.7912 73.0064 36.8078 73.0106 36.8245 73.0147C36.8661 73.0397 36.8577 73.0272 36.8245 73.0147C36.8453 73.0272 36.8661 73.0355 36.8827 73.048C36.97 73.0979 37.0532 73.1603 37.1322 73.2227C37.3318 73.3807 37.4774 73.5304 37.6603 73.7383C37.8433 73.9462 38.0055 74.1583 38.1469 74.3912C38.2176 74.5076 38.2383 74.5492 38.2841 74.6698C38.3215 74.7654 38.3506 74.8652 38.3589 74.965C38.3548 74.9151 38.3589 74.965 38.3589 74.9858C38.3589 75.0108 38.3506 75.0357 38.3506 75.0565C38.3506 75.0649 38.3465 75.0732 38.3423 75.0856C38.3465 75.0607 38.3631 75.0524 38.3423 75.0732C38.3174 75.0981 38.3049 75.1231 38.3423 75.0815C38.3257 75.0981 38.2716 75.1563 38.3423 75.094C38.309 75.1231 38.3007 75.1148 38.3506 75.094C38.3423 75.094 38.334 75.1064 38.3215 75.1064C38.2799 75.1231 38.2799 75.1064 38.3381 75.1023C38.3174 75.1023 38.2051 75.1314 38.309 75.1148L38.517 75.1605C38.072 74.9193 37.7019 74.5367 37.4275 74.1209C37.1779 73.7425 36.97 73.2351 37.1987 72.8151C37.2736 72.6821 37.1322 72.5739 37.0116 72.5615C36.8619 72.5448 36.6831 72.6114 36.6082 72.7486L36.6124 72.7444Z" fill="black"/>
<path d="M36.9659 73.9215C37.3568 73.751 38.6708 72.8611 38.8788 73.3643C38.6168 74.1835 37.5813 74.6617 36.7912 74.8572C36.0884 74.7116 36.5583 74.1253 36.9659 73.9215Z" fill="#E5E5E6"/>
<path d="M37.0825 74.0335C37.3195 73.9296 37.5399 73.7923 37.7686 73.6717C37.831 73.6385 37.8934 73.6052 37.9558 73.5761C37.9682 73.5678 37.9849 73.5636 37.9973 73.5553C37.9308 73.5886 37.9973 73.5553 38.014 73.547C38.0472 73.5304 38.0847 73.5137 38.1179 73.4971C38.1803 73.468 38.2427 73.443 38.3051 73.4222C38.3217 73.4139 38.3383 73.4098 38.355 73.4056C38.3965 73.389 38.276 73.4264 38.3425 73.4056C38.3758 73.3973 38.4049 73.389 38.4381 73.3807C38.5255 73.3557 38.3758 73.3807 38.4631 73.3765C38.5504 73.3723 38.409 73.3765 38.4756 73.3765C38.488 73.3765 38.5005 73.3765 38.513 73.3765C38.4672 73.3807 38.4631 73.3765 38.488 73.3765C38.5504 73.3765 38.4506 73.3723 38.513 73.3848C38.5463 73.4098 38.5255 73.3848 38.513 73.3848C38.5171 73.389 38.5255 73.3931 38.5338 73.4014C38.5379 73.4098 38.5504 73.4181 38.5546 73.4222C38.567 73.4347 38.5629 73.4472 38.5546 73.4222C38.5587 73.468 38.5088 73.5553 38.4839 73.6094C38.3259 73.9088 38.0514 74.1375 37.7894 74.2955C37.7395 74.3246 37.6896 74.3537 37.6397 74.3828C37.6231 74.3912 37.6064 74.3995 37.5898 74.4119C37.5898 74.4119 37.5066 74.4535 37.5565 74.4286C37.4609 74.4743 37.3653 74.5159 37.2655 74.5533C37.2197 74.57 37.1781 74.5866 37.1324 74.6032C37.1074 74.6116 37.0783 74.6199 37.0534 74.6323C37.1074 74.6157 37.0534 74.6323 37.0284 74.6407C36.9369 74.6698 36.8413 74.6947 36.7498 74.7197L36.9785 74.703C36.7831 74.6573 36.6874 74.5492 36.7706 74.3662C36.7956 74.3121 36.8829 74.2082 36.9203 74.1749C36.9577 74.1375 36.9993 74.1042 37.0451 74.0751C36.9952 74.1125 37.07 74.0585 37.0825 74.0543C37.1074 74.0377 37.1324 74.0252 37.1573 74.0127C37.2405 73.9712 37.3403 73.8464 37.2156 73.7882C37.0825 73.7258 36.8995 73.7882 36.7789 73.8506C36.5668 73.9587 36.3589 74.125 36.23 74.3246C36.1219 74.491 36.0637 74.7072 36.2258 74.8611C36.3256 74.9525 36.4754 75.0066 36.6043 75.0274C36.7748 75.0565 36.9744 74.9775 37.1365 74.9234C37.4318 74.8278 37.7187 74.7114 37.9973 74.5658C38.251 74.4327 38.4964 74.2664 38.7043 74.0668C38.8997 73.8755 39.0993 73.6385 39.1742 73.3682C39.2407 73.1436 38.9247 73.0646 38.7625 73.0563C38.5213 73.048 38.276 73.1228 38.0514 73.2102C37.7977 73.3058 37.5565 73.4347 37.3154 73.5636C37.2156 73.6177 37.1199 73.6717 37.0243 73.7258C36.9827 73.7508 36.9369 73.7715 36.8954 73.7965C36.8829 73.8048 36.8205 73.8339 36.8704 73.809C36.9203 73.784 36.8621 73.809 36.8496 73.8173C36.7789 73.8506 36.5918 73.9504 36.6833 74.0502C36.7664 74.1458 36.9952 74.0876 37.0908 74.0502L37.0825 74.0335Z" fill="black"/>
<path d="M43.0455 65.2288C43.0039 64.9751 43.1868 64.7381 43.4405 64.7173C43.848 64.6757 44.0476 65.5116 44.1142 66.2975C44.1765 67.0128 44.9667 73.45 45.1371 76.0449C45.1663 76.4649 44.6548 76.731 44.3554 76.4358C44.2971 76.3776 44.2514 76.3069 44.2389 76.2154C44.1766 75.7746 43.4447 67.7447 43.0455 65.2288Z" fill="#E5E5E6"/>
<path d="M43.3533 65.1482C43.3284 64.6658 43.5779 65.2189 43.6278 65.3769C43.7192 65.6638 43.765 65.9674 43.7941 66.2668C43.8149 66.4539 43.8315 66.6411 43.8523 66.8282C43.923 67.4728 43.9979 68.1215 44.0727 68.766C44.2848 70.6165 44.4969 72.4629 44.6757 74.3176C44.7131 74.7126 44.7505 75.1118 44.7838 75.5069C44.7963 75.6732 44.8129 75.8437 44.8212 76.0142C44.8212 76.0974 44.842 76.3053 44.7422 76.3427C44.6299 76.3885 44.5676 76.193 44.5468 76.1223C44.4553 75.798 44.4719 75.4071 44.4387 75.0744C44.2848 73.5025 44.1309 71.9348 43.9688 70.3629C43.7899 68.6246 43.6278 66.874 43.3533 65.144C43.3117 64.8904 42.6963 65.0442 42.7379 65.3104C43.2868 68.7536 43.5238 72.255 43.8731 75.7189C43.8897 75.8936 43.8981 76.0683 43.9272 76.2387C43.9895 76.6296 44.3596 76.8085 44.7339 76.7461C45.2537 76.6587 45.4699 76.2762 45.4367 75.7855C45.4076 75.3696 45.3701 74.9579 45.3327 74.5421C45.1373 72.4463 44.8961 70.3504 44.6549 68.2587C44.5759 67.5892 44.4927 66.9197 44.4303 66.246C44.3846 65.7553 44.3513 64.8696 43.8565 64.5868C43.3616 64.304 42.7129 64.7656 42.742 65.3062C42.7545 65.5516 43.3741 65.4143 43.3575 65.1399L43.3533 65.1482Z" fill="black"/>
<path d="M43.2411 72.4268C42.9125 73.2377 44.5593 74.4062 45.2912 74.4811C45.7777 74.4312 45.5157 73.666 45.2163 73.4914C44.763 73.0547 44.1975 72.7969 43.6611 72.5058C43.5405 72.4102 43.3824 72.3686 43.2411 72.431V72.4268Z" fill="#E5E5E6"/>
<path d="M42.9456 72.3942C42.7835 72.8183 42.9997 73.2383 43.2783 73.5585C43.5944 73.9286 44.006 74.2322 44.4385 74.4526C44.6464 74.5566 44.8585 74.6439 45.0914 74.6896C45.3617 74.7437 45.7027 74.6273 45.8233 74.3611C45.9148 74.1615 45.8732 73.9203 45.7817 73.7249C45.736 73.6251 45.6819 73.5294 45.607 73.4463C45.5031 73.334 45.4199 73.2799 45.3076 73.1843C45.0124 72.9348 44.6797 72.7476 44.3429 72.5647C44.1765 72.4732 44.006 72.39 43.8439 72.2902C43.611 72.1488 43.3532 72.1571 43.1037 72.2486C42.9872 72.2902 42.8708 72.4441 42.9581 72.5605C43.0538 72.6894 43.2534 72.6478 43.3781 72.6021C43.3698 72.6021 43.3241 72.6146 43.3241 72.6187C43.3241 72.6229 43.295 72.5979 43.3282 72.6187C43.3407 72.627 43.3615 72.627 43.374 72.6354C43.4239 72.6603 43.4779 72.7019 43.532 72.731C43.6651 72.8017 43.7981 72.8724 43.9312 72.9431C44.1932 73.0845 44.4468 73.23 44.6839 73.4088C44.792 73.492 44.8918 73.5876 44.9999 73.6708C45.0124 73.6791 45.0249 73.6916 45.0415 73.6999C45.0623 73.7166 45.029 73.6916 45.029 73.6874C45.0332 73.6958 45.0415 73.6999 45.0498 73.7082C45.0789 73.7415 45.108 73.7789 45.133 73.8164C45.1455 73.833 45.1538 73.8496 45.1662 73.8704C45.1704 73.8787 45.1746 73.8871 45.1829 73.8995C45.1829 73.8995 45.1704 73.8704 45.1829 73.8954C45.1995 73.9369 45.2161 73.9785 45.2328 74.0201C45.2453 74.0575 45.2536 74.0991 45.2619 74.1366C45.2619 74.1532 45.2661 74.1948 45.2619 74.1532C45.2619 74.1781 45.2619 74.2031 45.2619 74.228C45.2619 74.2447 45.2577 74.2613 45.2536 74.2779C45.2577 74.2405 45.2619 74.2572 45.2536 74.2821C45.2411 74.3154 45.2328 74.3112 45.2536 74.2821C45.2453 74.2904 45.2286 74.3071 45.2577 74.2821C45.3035 74.2447 45.2203 74.2987 45.2785 74.2696C45.3201 74.2447 45.291 74.2613 45.2785 74.2696C45.2785 74.2696 45.3492 74.2488 45.316 74.2572C45.2328 74.2779 45.3991 74.2613 45.3866 74.2572C45.3742 74.253 45.3534 74.253 45.3409 74.2488C45.3035 74.2405 45.291 74.2322 45.3409 74.2488C45.2619 74.2197 45.1829 74.2031 45.108 74.174C45.0706 74.1574 45.029 74.1407 44.9916 74.1241C44.9708 74.1158 44.95 74.1074 44.9334 74.095C44.9334 74.095 44.896 74.0783 44.9209 74.0908C44.9459 74.1033 44.9043 74.0825 44.9001 74.0783C44.5383 73.8912 44.1849 73.6375 43.927 73.3631C43.8522 73.2799 43.7815 73.1967 43.715 73.1053C43.6858 73.0637 43.6609 73.0221 43.6359 72.9764C43.6276 72.9639 43.6027 72.914 43.611 72.9306C43.6193 72.9472 43.5944 72.8932 43.5902 72.8849C43.5736 72.8433 43.5569 72.8017 43.5486 72.756C43.5445 72.7352 43.5403 72.7144 43.5361 72.6936C43.5361 72.6811 43.5237 72.6187 43.5278 72.6437C43.532 72.6686 43.5278 72.6146 43.5278 72.6021C43.5278 72.5813 43.5278 72.5605 43.532 72.5397C43.5361 72.5189 43.5403 72.4981 43.5445 72.4815C43.5445 72.4773 43.5528 72.4482 43.5445 72.4773C43.5361 72.5106 43.5528 72.4565 43.5528 72.4565C43.6775 72.128 43.0621 72.1363 42.9623 72.39L42.9456 72.3942Z" fill="black"/>
<path d="M43.6236 73.5071C43.8357 73.2825 45.42 71.6358 45.2953 72.6296C45.0915 73.3948 44.4054 74.0768 43.7275 74.4552C42.9582 74.476 43.3075 73.8647 43.6277 73.5112L43.6236 73.5071Z" fill="#E5E5E6"/>
<path d="M43.9105 73.5066C43.9313 73.4858 43.9521 73.465 43.9688 73.4442C44.0062 73.4026 43.9313 73.4816 43.9771 73.4359C43.9937 73.4192 44.0103 73.4026 44.027 73.3818C44.1143 73.2945 44.2016 73.2072 44.2889 73.124C44.4927 72.9285 44.7048 72.7373 44.9335 72.5709C44.9335 72.5709 44.9709 72.5418 44.9709 72.546C44.9709 72.546 44.9169 72.5834 44.9626 72.5501C44.9876 72.5335 45.0125 72.5169 45.0416 72.5002C45.0624 72.4878 45.0874 72.4753 45.1123 72.4628C45.1581 72.4379 45.0707 72.4794 45.0874 72.4753C45.0998 72.4711 45.1123 72.4628 45.1248 72.4586C45.1996 72.4254 45.0499 72.4753 45.1165 72.4586C45.1664 72.4462 45.0499 72.4711 45.0707 72.467C45.1206 72.4586 44.9959 72.467 45.0292 72.467C45.0624 72.467 44.9585 72.4586 44.9917 72.467C45.0208 72.4711 44.9335 72.4462 44.9626 72.4586C44.9709 72.4586 44.9751 72.4628 44.9793 72.467C44.946 72.4503 44.9585 72.442 44.9626 72.4586C44.9626 72.4586 44.9751 72.4711 44.9751 72.4753C44.9751 72.4753 44.9668 72.442 44.9709 72.467C44.9709 72.4836 44.9834 72.5044 44.9876 72.5252C44.9876 72.546 44.9917 72.5709 44.9917 72.5917C44.9917 72.6208 44.9917 72.5709 44.9917 72.6042C44.9917 72.6208 44.9917 72.6375 44.9876 72.6582C44.9501 72.8828 44.8212 73.1074 44.7006 73.2945C44.5551 73.519 44.3804 73.7228 44.1808 73.9016C43.9646 74.0971 43.7816 74.2301 43.5363 74.3674L43.8482 74.2842C43.8274 74.2842 43.8024 74.2842 43.7816 74.2842C43.7691 74.2842 43.7151 74.2759 43.765 74.2842C43.7525 74.2842 43.7359 74.2842 43.7234 74.28C43.7192 74.28 43.6652 74.2676 43.6943 74.2759C43.7234 74.2842 43.6735 74.2676 43.6735 74.2676C43.6652 74.2634 43.6527 74.2592 43.6444 74.2551C43.6569 74.2676 43.6111 74.2426 43.6444 74.2551C43.6361 74.2509 43.6319 74.2426 43.6236 74.2385C43.6153 74.2301 43.607 74.2218 43.6028 74.2135C43.607 74.226 43.5862 74.1927 43.6028 74.2135C43.5945 74.1969 43.5903 74.1802 43.5862 74.1594C43.5862 74.147 43.582 74.1054 43.582 74.1137C43.582 74.1345 43.582 74.0971 43.582 74.0929C43.582 74.0804 43.582 74.068 43.5903 74.0555C43.6028 74.0097 43.6194 73.964 43.6361 73.9183C43.6402 73.9058 43.6486 73.8933 43.6527 73.8808C43.6444 73.8975 43.6527 73.885 43.6527 73.8767C43.6693 73.8517 43.6818 73.8226 43.6985 73.7977C43.7608 73.6979 43.8357 73.6064 43.9147 73.519C44.0103 73.4109 43.8315 73.3527 43.7525 73.3527C43.6028 73.3527 43.4448 73.4026 43.345 73.5149C43.1121 73.7727 42.6796 74.4048 43.2285 74.5794C43.4614 74.6543 43.7276 74.646 43.9438 74.5295C44.1143 74.4339 44.2765 74.3258 44.4262 74.2052C44.7173 73.9806 44.9876 73.7145 45.1996 73.4151C45.3078 73.2654 45.3993 73.1032 45.4783 72.9369C45.5406 72.8038 45.603 72.6583 45.6113 72.5127C45.6196 72.3381 45.5656 72.2008 45.3785 72.1634C45.1456 72.1177 44.8919 72.2216 44.6965 72.3339C44.5135 72.4379 44.3472 72.5709 44.185 72.704C43.8856 72.9577 43.607 73.2321 43.3408 73.5149C43.241 73.623 43.4282 73.6812 43.503 73.6812C43.6527 73.6812 43.8066 73.6272 43.9105 73.519V73.5066Z" fill="black"/>
<g style="mix-blend-mode:multiply">
<path d="M51.6036 70.407C51.7034 70.6233 51.5869 70.8894 51.3416 71.0017C51.0962 71.114 50.8176 71.0308 50.7178 70.8145C50.618 70.5983 50.7345 70.3322 50.9798 70.2199C51.2252 70.1076 51.5038 70.1908 51.6036 70.407Z" fill="#416279"/>
<path d="M52.8677 73.176C52.5434 73.176 51.8946 73.1178 51.3873 73.5003C51.0172 73.779 50.3144 74.673 50.094 74.752C49.9235 74.8144 49.8612 74.7396 49.9235 74.5566C49.9901 74.3445 50.302 73.7332 50.8093 72.731C50.9923 72.3568 51.1461 71.9867 51.1461 71.7372C51.1461 71.2756 50.9049 71.1758 50.7053 71.1758C50.3893 71.1758 50.0816 71.3005 49.6366 71.7995C49.2707 72.2154 48.8507 72.7477 48.597 72.914C48.3558 73.072 48.1479 73.1718 47.6489 73.1802C47.6073 73.2217 47.5865 73.2467 47.5491 73.3091C47.9275 73.3091 48.5097 73.2758 48.8922 72.993C49.2623 72.7144 49.9942 71.8162 50.198 71.7704C50.4018 71.7247 50.3893 71.9243 50.2812 72.1405C50.173 72.3568 49.6865 73.3964 49.5035 73.7665C49.3206 74.1407 49.1168 74.6023 49.1168 74.8518C49.1168 75.3134 49.3289 75.3924 49.5867 75.3924C49.9027 75.3924 50.2396 75.2344 50.6554 74.7105C51.0006 74.2821 51.4247 73.7499 51.6784 73.5835C51.9321 73.4172 52.0651 73.3091 52.8677 73.3091C52.8677 73.2633 52.8677 73.2259 52.8677 73.1843V73.176Z" fill="#416279"/>
</g>
<path d="M49.3997 23.7433C49.3997 23.7433 50.8801 24.891 51.745 23.7433C52.61 22.5956 57.0262 17.0025 57.5793 15.4971C58.1282 13.9918 58.648 12.9937 59.6169 13.1933C60.5859 13.3929 61.8542 14.8941 62.8564 18.2334C63.8585 21.5726 64.3326 26.4712 63.8128 28.8623C63.293 31.2534 62.2451 33.4948 61.7585 34.2225C61.272 34.9503 60.8894 35.3079 61.5756 36.7176C61.5756 36.7176 59.5213 37.4287 55.7163 32.4219C51.9114 27.4152 49.408 23.7433 49.408 23.7433H49.3997Z" fill="#DD593A"/>
<path d="M54.5434 27.3136C54.5434 27.3136 54.3854 26.5775 55.5664 25.1678C56.7474 23.7581 58.9722 20.0529 59.2632 18.6016C59.5543 17.1503 60.2322 16.9008 60.7686 18.0527C61.305 19.2046 62.012 23.309 62.0827 24.964C62.1534 26.6149 61.9995 30.2369 61.3175 31.5053C60.4318 33.152 59.5086 33.8382 59.6209 33.9629C60.3735 34.8195 54.4894 27.8167 54.5476 27.3219L54.5434 27.3136Z" fill="#F8C6A1"/>
<path d="M31.1233 24.3008C31.1233 24.3008 26.2288 20.238 23.8917 18.2503C21.5547 16.2625 19.4131 14.5409 18.8434 14.9734C18.7394 15.0524 18.6438 15.1398 18.5481 15.2479C17.6458 16.2792 17.6416 17.6182 17.5626 19.6059C17.4711 21.9554 17.4212 21.2859 17.4129 22.4794C17.3963 24.725 17.3796 26.6794 17.9369 29.1038C18.5107 31.5989 18.8018 32.8505 19.7208 33.6199C20.3695 34.1646 21.2594 34.6428 21.509 35.5826C21.5838 35.8696 21.5297 36.2147 21.2886 36.7262C21.2886 36.7262 31.8718 27.2616 31.1191 24.305L31.1233 24.3008Z" fill="#DD593A"/>
<path d="M27.1022 27.7662C27.1022 27.7662 28.1044 26.3149 26.6531 24.9634C25.2018 23.6119 21.193 20.6054 20.7439 19.9567C20.2948 19.308 19.5047 19.5076 19.3717 20.306C19.2386 21.1044 19.0847 25.9656 19.2386 27.367C19.3924 28.7684 20.2907 31.8124 21.1431 32.5692C21.9956 33.326 23.0477 33.4258 23.0477 33.4258L27.1022 27.7704V27.7662Z" fill="#F8C6A1"/>
<path d="M57.7456 16.6915C57.808 16.6416 57.8662 16.5876 57.9244 16.5293C58.1074 16.3381 58.228 16.0886 58.4318 15.9139C58.5149 15.8432 58.6064 15.785 58.6813 15.706C59.0638 15.3068 59.3799 14.4044 60.1326 14.7662C60.328 14.8618 60.4445 15.0614 60.5942 15.2194C60.7813 15.4149 61.0266 15.548 61.2179 15.7392C61.3551 15.8806 61.4591 16.047 61.5631 16.2133C61.771 16.4212 61.9207 16.7872 62.0787 17.0408C62.2534 17.3194 62.4114 17.6313 62.5445 17.9307C62.6609 18.1969 62.6942 18.488 62.7524 18.7749C62.8522 19.2781 63.0352 19.7688 63.2847 20.2179C63.2847 19.9351 63.2181 19.5608 63.1516 19.2822C63.0268 18.7749 62.848 18.28 62.7441 17.7686C62.586 16.9951 62.4405 16.259 62.0662 15.5563C61.7086 14.8784 61.2512 14.263 60.8437 13.6184C60.7147 13.4147 60.6357 13.2774 60.4528 13.1153C60.0245 12.7327 59.4547 12.741 58.9266 12.9489C58.6522 13.0571 58.4151 13.265 58.3029 13.5394C58.2613 13.6434 58.2363 13.7557 58.1989 13.8638C58.1448 14.0093 58.0658 14.1424 57.9868 14.2755C57.4421 15.2319 57.1551 16.3838 56.3941 17.2072C55.7288 17.9266 55.2381 18.8705 54.6767 19.6814C53.7286 21.0496 52.7597 22.4094 51.7575 23.7401C51.7242 23.7817 51.6951 23.8232 51.6785 23.8731C51.8531 23.8108 52.0195 23.6028 52.1567 23.4781C52.5309 23.1246 52.8927 22.7628 53.2545 22.3969C53.6454 21.9977 54.0197 21.5943 54.3523 21.1411C54.6559 20.7294 54.8389 20.0848 55.2547 19.7771C55.392 19.6773 55.5375 19.59 55.6664 19.4818C56.523 18.7915 56.6894 17.6646 57.492 16.9119C57.5751 16.8329 57.6666 16.7622 57.7539 16.6874L57.7456 16.6915Z" fill="#040000"/>
<path d="M59.3757 13.7384C62.7108 14.7822 64.1871 26.1763 63.4552 28.9458C62.8979 32.6967 60.3197 34.1937 60.7189 36.0942C58.1656 35.7906 52.4228 25.303 50.5848 24.6543C51.6119 25.0161 52.4811 23.4775 52.9884 22.8537C53.5082 22.2091 53.9864 21.5272 54.4646 20.8493C54.5894 20.6705 54.7183 20.4875 54.8098 20.2921C54.8846 20.1299 54.9387 19.9594 55.0219 19.8014C55.1591 19.5394 55.3629 19.3772 55.604 19.2192C55.8328 19.0695 55.9201 18.9198 56.0823 18.6869C56.444 18.1713 56.8058 17.6515 57.1593 17.1317C57.4545 16.6992 57.9286 16.1877 58.1116 15.6929C58.4651 14.7239 58.8934 13.7342 59.3757 13.7342M59.3757 13.1729C58.5565 13.1729 58.0825 14.1251 57.5793 15.5016C57.0304 17.0069 52.6141 22.5959 51.745 23.7478C51.2834 24.6959 49.5618 24.0014 49.3997 23.7478C49.3997 23.7478 51.903 27.4197 55.708 32.4264C58.9266 36.4892 60.4195 36.8094 61.5672 36.7221C60.8811 35.3124 61.2595 34.9506 61.7502 34.227C62.2409 33.5034 63.2847 31.2579 63.8045 28.8668C64.553 25.7064 63.3013 14.0295 59.3716 13.1729H59.3757Z" fill="#040000"/>
<path d="M19.1262 15.4718C22.4322 16.9979 29.0233 22.878 30.5952 24.5954C31.3978 25.4687 24.1579 36.526 22.0122 35.2867C16.5854 32.1554 16.8225 20.3538 19.1262 15.4718ZM18.3819 15.4718C16.7933 18.1831 17.284 27.1944 17.7332 29.3693C19.3549 35.6028 22.4488 34.2596 21.2969 36.7214C21.2969 36.7214 31.8802 27.2568 31.1275 24.3002C30.3291 23.9301 21.2387 15.2556 19.1761 14.9062C19.1761 14.9062 18.6605 15.0019 18.3819 15.476V15.4718Z" fill="#040000"/>
<path d="M30.566 24.5758C30.566 24.5758 35.4564 21.9518 40.5255 22.0475C46.0604 22.1514 50.8509 23.74 52.6057 25.2744C52.7263 25.3784 53.583 26.1352 54.6642 27.1748C54.6642 27.1748 55.7495 28.2186 56.6394 29.1501C63.0476 35.8535 64.1496 43.7836 64.1496 43.7836C64.4698 46.0791 66.4492 55.3316 61.0099 58.3631C55.1923 61.6067 49.7032 62.5922 49.7032 62.5922C49.6408 63.2576 39.7645 65.3701 28.3828 61.5027C21.3301 59.1075 15.8992 56.5417 17.5584 46.5864C19.2177 36.627 26.0791 26.8047 30.5577 24.5716L30.566 24.5758Z" fill="#E5E5E6"/>
<path d="M44.9334 61.5527C43.0705 61.744 41.2033 61.4072 39.3611 61.0703C37.3069 60.6961 35.2526 60.3177 33.1983 59.9434C32.5039 59.8145 31.8053 59.6897 31.1357 59.4735C28.6906 58.6875 25.2225 56.1135 24.5654 55.4814C23.9084 54.8493 23.0933 53.7182 22.6775 53.4438C22.4696 53.3065 21.8915 53.0238 21.7793 52.8034C21.721 52.6911 22.7814 51.8594 22.2201 51.6182C21.8416 51.5226 21.5797 51.3562 21.2012 51.2606C21.143 51.2481 21.0806 51.2273 21.0557 51.1733C21.0349 51.1275 21.0515 51.0734 21.0723 51.0277C21.2761 50.5536 21.825 50.2043 21.7959 49.6887C21.7751 49.3602 21.0432 49.119 21.0474 48.7905C21.0474 48.5493 21.7834 48.3871 21.8999 48.175C22.2575 47.5263 22.3448 46.5823 22.4321 45.8505C22.5652 44.7485 24.503 41.1431 25.106 38.8892C25.7048 36.6354 26.2579 35.6332 26.8941 34.0072C27.5304 32.3771 31.5142 29.2749 33.5144 27.8319C34.529 27.1001 35.9263 26.7133 37.1572 26.5636C37.7768 26.4888 38.3797 26.5054 38.9952 26.3474C39.7104 26.1644 40.4007 25.8816 41.1243 25.7195C43.819 25.1165 46.5968 26.2684 48.9546 27.703C49.5493 28.0648 50.1356 28.4516 50.6263 28.9381C51.0547 29.3623 51.404 29.8571 51.7533 30.3478C52.585 31.5246 53.4208 32.7015 54.2525 33.8783C55.446 35.5625 56.6519 37.2716 57.3505 39.2094C57.9618 40.9061 58.1656 42.7191 58.5274 44.4906C58.8892 46.2621 59.9703 48.8362 60.6814 49.2105C61.3967 49.5847 59.9579 49.9631 59.9329 50.379C59.908 50.7948 60.881 51.6723 60.2115 51.5849C59.7458 51.5974 59.1511 51.7097 59.0596 52.1671C59.0264 52.3293 59.0888 52.4208 59.1927 52.5497C59.7167 53.2109 59.6543 53.2982 58.4775 53.8471C57.8994 54.1174 56.7476 55.8224 56.2984 56.2798C55.7163 56.8703 55.1258 57.465 54.423 57.9016C53.7743 58.3091 53.0466 58.5669 52.323 58.8248C49.7655 59.7396 47.6406 61.2783 44.9376 61.5569L44.9334 61.5527Z" fill="#DD593A"/>
<path d="M60.677 49.2053C60.3277 49.0223 59.8869 48.3029 59.4877 47.413C53.9445 52.9478 50.2643 48.2239 45.1286 46.2444C42.0265 45.0468 38.9492 45.3338 36.8783 46.2736C34.2377 47.4753 31.9381 49.2385 29.8547 50.0619C26.4864 51.3884 22.1907 47.6126 21.9786 47.9952C21.8622 48.2072 21.0471 48.5441 21.043 48.7811C21.0388 49.1096 21.7707 49.3508 21.7915 49.6793C21.8206 50.195 21.2717 50.5443 21.0679 51.0183C21.0471 51.0641 21.0305 51.1181 21.0513 51.1639C21.0763 51.2179 21.1386 51.2387 21.1968 51.2512C21.5753 51.3469 21.8372 51.5132 22.2157 51.6088C22.7729 51.85 21.7167 52.6817 21.7749 52.794C21.8913 53.0144 22.4693 53.2972 22.6731 53.4344C23.0889 53.713 23.904 54.8399 24.561 55.472C25.2181 56.1041 28.6862 58.6782 31.1314 59.4641C31.805 59.6804 32.4995 59.8093 33.1939 59.934C35.2482 60.3083 37.7682 62.3625 39.8225 62.7368C41.6647 63.0736 44.1514 62.9198 46.1599 61.7263C48.497 60.3415 49.757 59.7261 52.3186 58.8112C53.0422 58.5534 53.7699 58.2914 54.4186 57.8881C55.1214 57.4473 55.7119 56.8526 56.2941 56.2663C56.7432 55.813 57.895 54.108 58.4731 53.8336C59.6499 53.2847 59.7081 53.1932 59.1883 52.5362C59.0844 52.4073 59.022 52.3158 59.0553 52.1536C59.1509 51.6962 59.7414 51.5839 60.2071 51.5714C60.8766 51.6587 59.9077 50.7813 59.9285 50.3655C59.9493 49.9496 61.3881 49.5754 60.677 49.1969V49.2053Z" fill="#FBDECA"/>
<g style="mix-blend-mode:multiply">
<path d="M58.5898 53.3107C57.9993 53.5602 56.8308 55.1238 56.3733 55.5396C55.7828 56.0802 55.1799 56.625 54.4688 57.0283C53.8076 57.4026 53.0674 57.6396 52.3355 57.8767C49.7365 58.7167 47.6988 59.6606 44.9543 59.9185C43.0622 60.0931 41.0329 60.2511 39.1616 59.9392C37.074 59.5941 34.9823 59.2489 32.8948 58.9038C32.1879 58.7874 31.4809 58.6709 30.7948 58.4713C28.3122 57.7519 24.7817 55.3899 24.1163 54.8077C23.451 54.2256 22.6193 53.1943 22.1951 52.9364C22.1078 52.8865 21.9581 52.8117 21.8043 52.7285C21.7835 52.7618 21.7751 52.7826 21.7835 52.7992C21.8999 53.0196 22.4779 53.3024 22.6817 53.4396C23.0975 53.7182 23.9126 54.8452 24.5696 55.4772C25.2266 56.1093 28.6948 58.6834 31.1399 59.4693C31.8136 59.6856 32.5081 59.8145 33.2025 59.9392C35.2568 60.3135 38.5877 62.584 40.642 62.9624C42.4842 63.2993 44.3929 62.6048 46.1685 61.7357C48.6095 60.5422 49.7656 59.7355 52.3272 58.8206C53.0507 58.5628 53.7785 58.3008 54.4272 57.8975C55.13 57.4567 55.7205 56.862 56.3026 56.2757C56.7518 55.8224 57.9036 54.1174 58.4817 53.843C59.4007 53.4105 59.6377 53.2608 59.4464 52.9032C59.2801 53.0155 59.0056 53.136 58.5981 53.3107H58.5898Z" fill="#F8C6A1"/>
</g>
<g style="mix-blend-mode:multiply" opacity="0.57">
<path d="M57.7458 40.2327C56.045 33.521 49.6826 28.614 46.913 26.9964C44.1394 25.3788 38.8207 25.7613 35.1655 26.9964C31.5102 28.2315 26.8028 33.4711 25.6343 36.0244C24.47 38.5776 23.2806 43.1353 22.5945 46.0878C22.2452 47.5848 21.7379 48.3042 21.322 48.6494C23.1434 48.5038 23.8379 46.749 23.9502 46.0878C25.2143 38.4986 30.0672 30.9511 33.4813 29.2503C33.4813 29.2503 36.754 26.7926 40.6213 26.8633C44.4845 26.9382 48.2105 28.7554 50.8136 31.3503C53.4127 33.9451 57.2176 39.3969 57.8871 45.4474C58.0244 46.6991 59.4299 48.6951 60.8438 49.2232C60.8563 49.2149 60.8646 49.2108 60.8771 49.2066C59.4757 48.0048 59.2885 46.2832 57.7499 40.2285L57.7458 40.2327Z" fill="#CC3820"/>
</g>
<g style="mix-blend-mode:multiply">
<path d="M22.5944 46.0875C23.2847 43.135 24.4699 38.5774 25.6342 36.0241C26.7986 33.4708 31.5101 28.2312 35.1654 26.9961C38.8206 25.7611 44.1393 25.3785 46.913 26.9961C49.6866 28.6138 56.0449 33.5207 57.7457 40.2324C59.2801 46.2829 59.4714 48.0045 60.8728 49.2105C61.0184 49.1273 61.1681 49.0525 61.3219 48.9901C60.5318 48.1002 59.8831 46.782 59.8 45.6093C59.251 37.596 55.4627 32.2857 52.4894 29.3207C49.5161 26.3557 45.025 24.7422 40.6088 24.6591C36.1925 24.5759 31.8095 27.3205 31.8095 27.3205C27.9048 29.2666 22.4489 37.4587 21.6214 46.5241C21.5881 46.9026 21.0184 48.0836 20.6025 48.5784C20.7938 48.6283 20.852 48.6699 21.0433 48.6699C21.1431 48.6699 21.2305 48.6616 21.3219 48.6574C21.7378 48.3123 22.2451 47.597 22.5944 46.0958V46.0875Z" fill="#A8BAC3"/>
</g>
<path d="M34.8992 34.8972C34.5499 34.8681 34.1757 34.9513 33.922 35.18C33.6683 35.4087 33.5561 35.8079 33.7224 36.1073C33.7931 36.2362 33.9054 36.3402 34.026 36.4317C34.4377 36.756 34.9242 36.9722 35.4149 37.1594C35.6644 37.255 35.943 37.3424 36.1925 37.2467C36.3963 37.1677 36.5335 36.9806 36.6125 36.781C37.0491 35.6374 35.9097 34.972 34.9034 34.893L34.8992 34.8972Z" fill="#CC3820"/>
<path d="M32.296 33.7888C32.296 33.7888 33.0861 34.2878 33.2482 34.6663C33.4104 35.0405 33.4853 35.4439 34.2379 35.893C34.9906 36.3421 35.9013 36.4669 36.1342 36.629C36.3338 36.7704 36.2922 36.7455 36.3172 36.5916C36.338 36.4544 36.1217 36.1425 35.8597 35.7308C35.7433 35.5478 35.6061 35.4273 35.5063 35.2235C35.3275 34.8575 35.0987 34.5249 34.87 34.2296C34.5082 33.768 34.03 33.6308 34.03 33.6308C34.03 33.6308 34.5706 34.2712 34.7037 34.5249C34.8368 34.7785 34.9366 35.2942 35.2859 35.6768C35.5479 35.9637 35.5936 36.0053 35.5936 36.0053C35.5936 36.0053 35.0779 35.997 34.6912 35.6476C34.3045 35.2983 34.1132 35.1985 33.9261 34.7078C33.7389 34.2171 33.689 34.0674 33.1235 33.7805C32.5579 33.4936 32.3958 33.7057 32.0215 33.4936C31.6472 33.2815 32.1171 33.6724 32.296 33.793V33.7888Z" fill="#FBDECA"/>
<path d="M46.3099 34.8972C46.6592 34.8681 47.0335 34.9513 47.2871 35.18C47.5408 35.4087 47.6531 35.8079 47.4867 36.1073C47.416 36.2362 47.3037 36.3402 47.1832 36.4317C46.7715 36.756 46.2849 36.9722 45.7942 37.1594C45.5447 37.255 45.2661 37.3424 45.0166 37.2467C44.8128 37.1677 44.6756 36.9806 44.5966 36.781C44.16 35.6374 45.2994 34.972 46.3057 34.893L46.3099 34.8972Z" fill="#CC3820"/>
<path d="M45.1331 36.7393C45.0583 36.7601 44.9834 36.7185 44.9626 36.6437C44.8919 36.3651 45.0458 35.6415 45.3951 35.2589C45.8109 34.7974 46.0189 34.7724 46.3141 34.236C46.6093 33.7037 46.547 33.4999 46.547 33.4999C46.547 33.4999 46.6551 34.0156 46.5511 34.369C46.4472 34.7225 46.4389 34.9512 46.1353 35.1841C45.8317 35.417 45.7153 35.5417 45.6404 35.8702C45.5656 36.1987 45.628 36.2403 46.2434 35.7205C46.6218 35.4045 46.8796 35.6498 47.229 35.4544C47.8278 35.1217 47.8278 34.9429 48.0024 34.4688C48.1812 33.9865 49.0878 33.4459 49.121 33.1631C49.121 33.1631 48.8466 33.9282 48.5181 34.4522C48.1896 34.9762 48.3975 35.1882 47.6614 35.6166C47.387 35.7746 47.1292 35.9284 46.9129 36.0574C46.5054 36.2985 46.0729 36.4857 45.6155 36.6187L45.1248 36.7435L45.1331 36.7393Z" fill="#FBDECA"/>
<path d="M24.636 44.8965C24.4156 44.9963 25.975 47.691 29.0564 48.0278C28.5366 48.2523 24.2701 48.6723 24.636 44.8965Z" fill="#CC3820"/>
<path d="M24.2701 46.6787C23.979 46.87 25.1185 48.7579 27.5678 48.5958C27.0604 48.8369 23.8959 49.4607 24.2701 46.6787Z" fill="#CC3820"/>
<path d="M56.968 44.8965C57.1884 44.9963 55.629 47.691 52.5476 48.0278C53.0674 48.2523 57.334 48.6723 56.968 44.8965Z" fill="#CC3820"/>
<path d="M57.3296 46.6787C57.6207 46.87 56.4813 48.7579 54.032 48.5958C54.5393 48.8369 57.7039 49.4607 57.3296 46.6787Z" fill="#CC3820"/>
<path d="M38.4503 52.9811C40.5503 52.1536 42.1845 51.771 43.0038 52.4988C43.823 53.2265 42.8582 54.6528 41.5649 54.657C38.1467 54.6695 38.4503 52.9811 38.4503 52.9811Z" fill="#F8C6A1"/>
<path d="M30.6616 39.8976C30.4953 39.906 34.0508 40.4965 35.8347 43.6111C35.5728 43.2161 35.1611 39.7272 30.6616 39.8976Z" fill="#CC3820"/>
<path d="M51.2666 39.8976C51.4329 39.906 47.8775 40.4965 46.0935 43.6111C46.3555 43.2161 46.7672 39.7272 51.2666 39.8976Z" fill="#CC3820"/>
<g style="mix-blend-mode:multiply">
<path d="M64.4406 43.6217C64.2618 42.5446 63.8044 41.2181 63.1723 39.7793C63.347 40.324 63.4759 40.8314 63.5549 41.2929C64.2701 45.6011 65.2681 53.053 59.883 56.858C54.4978 60.6588 41.9352 63.6071 41.9352 63.6071C41.9352 63.6071 36.0718 61.7566 29.0523 60.3053C22.0329 58.854 17.3921 53.7225 18.9889 44.1456C19.2842 42.3824 19.7457 40.6193 20.3362 38.9102C19.3216 41.3678 17.9992 43.971 17.5667 46.5866C15.9075 56.5461 20.6149 59.5984 27.4721 61.478C29.1105 61.9271 30.6076 62.3554 32.2585 62.7422C32.3957 62.7754 32.5288 62.8128 32.6618 62.8503C31.2106 62.8919 29.7676 63.1164 28.3496 63.6653C27.8422 63.8483 27.5802 63.9938 27.9212 64.26C29.1521 65.2372 34.6787 66.8049 37.2902 67.3747C39.4651 67.8487 40.6128 67.6865 41.8146 67.6283C43.2076 67.5618 44.8918 67.3414 50.3186 65.6489C51.8738 65.1624 53.9323 64.4929 56.3441 63.6404C55.7703 63.3119 54.8513 62.8128 53.6204 62.6756C52.6307 62.5633 51.5827 62.6257 50.5431 62.7505C50.5639 62.6881 50.5764 62.6257 50.5764 62.5633C50.5764 62.5633 55.0384 62.239 60.6356 58.2885C66.2329 54.3338 65.1808 48.1003 64.4365 43.6217H64.4406Z" fill="#A8BAC3"/>
</g>
<path d="M34.0386 59.1641C34.0386 59.1641 38.3592 60.4698 41.661 60.4282C45.8943 60.3742 47.6076 59.4635 48.4101 59.3138C48.4101 59.3138 45.0792 60.8649 41.9396 60.8399C38.7958 60.815 36.0887 60.2078 34.0427 59.1641H34.0386Z" fill="#040000"/>
<path d="M28.7613 40.617C27.3973 40.7792 26.3702 41.5568 25.7007 42.2513H25.6965L25.6466 42.3053C25.4678 42.4966 25.2474 42.6463 25.002 42.7378C24.8814 42.7835 24.7525 42.821 24.6319 42.8376C24.2743 42.8875 24.266 42.9956 24.6319 43.4655C24.7983 43.6818 25.1767 44.3596 25.7963 44.7588C25.8919 44.8212 26.0874 44.9002 26.1415 44.8794C26.1415 44.8794 25.6175 44.4137 25.7838 43.7982C25.867 43.4863 26.0042 42.9665 26.9274 42.2346C27.5595 41.7356 28.2331 41.4029 29.1272 41.2948C31.3644 41.0287 33.7639 42.0392 35.1154 44.7255L35.5104 45.6154C35.6809 45.6154 35.5562 45.0457 35.4564 44.7339C34.4791 41.7315 31.5433 40.2926 28.7654 40.6212L28.7613 40.617Z" fill="#231815"/>
<path d="M27.9544 41.3545C27.9544 41.3545 25.8461 47.193 30.4661 47.509C35.3315 47.8458 35.2899 44.0409 35.1111 44.4318C35.1111 44.4318 34.0299 41.4668 31.2438 41.1508C28.4576 40.8347 27.9544 41.3545 27.9544 41.3545Z" fill="#231815"/>
<path d="M28.0835 43.6025C27.6136 43.8105 28.0835 46.7006 29.9632 47.0083C31.6598 47.2828 33.1693 46.6174 34.0093 45.9022C34.4917 45.4905 34.7994 44.1182 34.4168 43.64C34.4168 43.64 34.421 45.0372 32.4624 45.819C31.4644 46.2182 30.799 46.2224 30.0006 45.9936C28.7489 45.636 28.2956 44.4093 28.0794 43.6067L28.0835 43.6025Z" fill="#A4D6F3"/>
<path d="M29.6471 42.3971C29.7511 43.3203 28.1501 43.4617 28.2208 42.5343C28.2915 41.5654 29.5723 41.4698 29.6471 42.3971Z" fill="white"/>
<path d="M53.9489 41.3545C53.9489 41.3545 56.0572 47.193 51.4372 47.509C46.5718 47.8458 46.6134 44.0409 46.7922 44.4318C46.7922 44.4318 47.8734 41.4668 50.6596 41.1508C53.4457 40.8347 53.9489 41.3545 53.9489 41.3545Z" fill="#231815"/>
<path d="M53.3793 42.22C53.8908 42.22 54.71 45.4428 53.109 46.4741C51.6618 47.4055 49.9195 47.0105 48.8632 46.6903C48.2561 46.5073 47.4285 45.3679 47.5866 44.7774C47.5866 44.7774 48.0689 46.183 50.1773 46.2911C51.063 46.3368 52.0652 46.183 52.8262 45.6049C53.8617 44.819 53.504 43.035 53.3834 42.2158L53.3793 42.22Z" fill="#A4D6F3"/>
<path d="M48.8506 42.3909C47.9524 42.158 47.5823 43.7174 48.5096 43.784C49.4785 43.8546 49.7571 42.5988 48.8506 42.3909Z" fill="white"/>
<path d="M53.1381 40.6169C54.4937 40.8331 55.5292 41.5567 56.1987 42.2512H56.2029L56.2528 42.3052C56.4316 42.4965 56.652 42.6462 56.8973 42.7377C57.0179 42.7834 57.1468 42.8209 57.2674 42.8375C57.625 42.8874 57.6334 42.9955 57.2674 43.4654C57.1011 43.6817 56.7227 44.3595 56.1031 44.7587C56.0074 44.8211 55.812 44.9001 55.7579 44.8793C55.7579 44.8793 56.2819 44.4136 56.1155 43.7981C56.0324 43.4862 55.8951 42.9664 54.972 42.2345C54.3399 41.7355 53.6662 41.4028 52.7721 41.2947C50.5349 41.0286 48.1355 42.0391 46.784 44.7254L46.3889 45.6153C46.3183 45.6153 46.3099 45.2993 46.3889 44.9874C47.2539 41.6108 50.3145 40.1719 53.1339 40.6211L53.1381 40.6169Z" fill="#231815"/>
<path d="M43.3741 46.4592C43.3741 47.1578 41.7814 48.0727 41.0952 48.0727C40.4091 48.0727 38.8164 47.1537 38.8164 46.4592C38.8164 45.7648 39.8352 45.1992 41.0952 45.1992C42.3552 45.1992 43.3741 45.7648 43.3741 46.4592Z" fill="#040000"/>
<path d="M28.3497 52.3197C27.2768 51.6917 25.6384 51.8207 25.156 51.9828C24.8108 52.0993 25.1892 52.249 25.5302 52.1908C25.9877 52.1367 26.8776 52.3737 27.5554 52.5276C27.9338 52.6108 28.2249 52.669 28.3912 52.4444C28.4079 52.4236 28.3788 52.3363 28.3497 52.3197Z" fill="black"/>
<path d="M28.3081 53.3674C27.6553 53.592 25.759 53.592 25.6384 54.3031C25.7632 54.4445 26.0418 54.3696 26.1832 54.3156C26.2497 54.2906 26.2289 54.3156 26.179 54.3156C26.599 54.1617 27.6386 53.9371 27.7967 53.908C28.225 53.8332 29.2272 53.4381 28.3081 53.3633V53.3674Z" fill="black"/>
<path d="M53.7703 52.9226C53.9492 52.8394 54.4107 52.698 55.2216 52.5941C56.0284 52.4901 56.3195 52.4901 56.7852 52.5067C56.8933 52.5067 56.9515 52.2614 56.8684 52.145C56.3694 51.4255 52.4313 52.8477 53.7703 52.9226Z" fill="black"/>
<path d="M53.741 54.1807C54.739 54.2223 56.444 55.1454 56.3733 54.4135C55.8784 54.2763 53.9947 53.6026 53.5539 53.9894C53.4957 54.0393 53.6371 54.1765 53.7369 54.1807H53.741Z" fill="black"/>
<path d="M36.2008 51.6347C35.4315 51.7594 34.8368 51.3852 34.6955 50.9444C34.5541 50.5036 34.737 50.3082 34.737 50.3082C35.1695 51.4975 36.5127 51.1482 37.9474 50.6741C38.6543 50.4412 39.4486 50.3082 40.0432 50.0503C40.5006 49.8507 40.7668 49.281 41.0911 49.4557C42.1806 50.042 39.8478 50.6117 37.9474 51.0733C37.2155 51.2521 36.6208 51.564 36.1967 51.6305L36.2008 51.6347Z" fill="#040000"/>
<path d="M41.3822 49.72H40.8167C40.9622 49.325 40.3966 47.5036 41.3822 47.9361V49.72Z" fill="#040000"/>
<path d="M46.0023 51.6888C47.3289 51.9133 47.8653 51.4684 47.8695 50.8404C47.8695 50.3955 47.7946 50.3788 47.7946 50.3788C47.3622 51.5682 45.9649 51.3602 44.5261 50.8862C44.3307 50.8196 43.7235 50.6034 43.5322 50.5369C43.0374 50.3664 42.6382 50.2333 42.2098 50.0503C41.7524 49.8507 41.4863 49.281 41.1619 49.4557C40.5839 49.7676 40.9332 49.9672 41.6568 50.2749C42.1225 50.4703 42.7338 50.7781 43.3908 50.9569C43.632 51.0192 43.9481 51.1274 44.1893 51.1856C44.9212 51.3644 45.5823 51.6264 46.0065 51.6929L46.0023 51.6888Z" fill="#040000"/>
<path d="M36.8994 53.1264L36.6665 53.01C35.8307 52.5942 35.7891 51.5545 35.7849 51.5088V51.3882L37.0948 51.1221L37.0116 51.3591C36.7829 52.0037 36.8661 52.8561 36.8703 52.8645L36.8952 53.1223L36.8994 53.1264ZM36.0843 51.6211C36.1134 51.8415 36.2215 52.3114 36.575 52.6108C36.5667 52.3363 36.575 51.908 36.679 51.5005L36.0843 51.6211Z" fill="#040000"/>
<path d="M45.6694 52.9719C45.6694 52.9719 45.7567 52.1111 45.528 51.4665L45.4448 51.2295L46.7589 51.4956V51.6162C46.7547 51.662 46.709 52.6974 45.8731 53.1174L45.6403 53.2339L45.6652 52.976L45.6694 52.9719ZM45.8648 51.5996C45.9646 52.0071 45.9771 52.4354 45.9688 52.7099C46.3223 52.4105 46.4262 51.9364 46.4595 51.7202L45.8648 51.5996Z" fill="#040000"/>
<path d="M36.0842 51.6186C36.1133 51.839 36.2215 52.3089 36.5749 52.6083C36.5666 52.3339 36.5749 51.9056 36.6789 51.498L36.0842 51.6186Z" fill="white"/>
<path d="M45.8652 51.6006C45.965 52.0081 45.9775 52.4364 45.9692 52.7109C46.3227 52.4115 46.4266 51.9374 46.4599 51.7212L45.8652 51.6006Z" fill="white"/>
<path d="M61.1764 48.9327C59.0556 48.0968 59.2053 42.4871 58.1158 39.3475C55.4253 33.2346 50.6098 26.71 43.5862 25.6288C40.4882 25.2088 37.465 25.712 34.7079 26.8888C30.1461 28.8391 26.8734 32.7564 24.8774 37.2974C23.3097 40.8612 22.5237 44.1131 22.2825 45.7182C22.1661 46.5 21.7752 47.7933 20.8936 48.2133C19.3758 48.8495 20.6233 48.8495 21.0807 49.8184C20.9144 50.4173 19.4049 51.1076 20.5568 51.4569C20.8271 51.5151 21.3843 51.8186 21.6504 51.881C20.8728 52.7709 20.6857 52.879 21.5091 53.3282C21.692 53.428 21.8625 53.5527 22.0081 53.6983C25.0021 56.6591 28.3746 59.1209 32.5497 60.464C36.0927 61.6034 37.4234 62.4185 41.9436 63.6078C42.0185 63.5953 44.1725 62.8593 45.8733 62.2314C47.5741 61.6034 49.9444 59.8403 51.8241 59.2331C53.9989 58.522 56.1738 57.6488 57.517 55.7317C58.016 55.1579 58.777 54.2097 59.459 53.8396C60.1035 53.6234 60.9601 53.8729 60.2615 53.166C59.1096 52.1264 60.3863 52.0224 61.1889 51.8145C61.5174 51.7272 60.4653 50.7208 60.4362 50.3632C61.3219 49.4691 62.1328 49.4192 61.1889 48.9368L61.1764 48.9327ZM59.4132 53.1036C57.8288 54.0101 56.7851 56.185 54.6476 57.0707C51.6161 58.8381 49.3997 59.6947 45.6945 61.8322C45.6945 61.8322 42.7462 63.2585 41.3781 62.9009C40.0099 62.5433 35.6976 60.385 31.4311 59.3537C30.7741 59.1957 30.1337 58.9795 29.5265 58.6884C26.6988 57.3327 24.6362 54.7836 22.3158 52.8291C23.5009 51.5192 23.0851 51.7272 21.5631 50.9412C22.2742 50.122 22.6485 49.8184 21.3843 48.8786C22.3241 48.5917 22.952 47.4523 23.0394 46.5832C23.2307 44.6703 23.7962 42.8115 24.4699 41.0483C25.5344 38.4534 26.5408 35.8211 27.9796 33.3885C30.275 30.8934 32.9739 28.1863 36.259 27.1259C40.4341 25.8367 45.549 25.7744 49.0961 28.6187C53.0259 31.8831 56.3568 36.1247 57.5585 41.1523C58.174 43.718 58.4277 47.8058 60.5485 49.3485C59.6045 50.0388 59.513 50.3341 60.1617 51.2905C59.1304 51.4693 58.6273 51.9184 59.409 53.1078L59.4132 53.1036Z" fill="#040000"/>
<path d="M35.107 63.0265C32.1545 62.5482 26.6862 61.1302 23.6963 59.5001C20.0452 57.5124 17.5667 54.2938 17.9452 49.5864C19.1262 39.0406 23.9791 27.2099 34.6122 23.2386C37.4981 22.2364 40.6835 22.3071 43.69 22.7271C44.7546 22.7146 45.9938 23.5421 46.9419 22.8601C47.1499 22.6647 47.0958 22.4568 46.813 22.3944C40.592 20.9098 34.005 21.5585 28.886 25.5465C21.8541 30.5408 12.0859 51.2124 20.0909 58.1237C22.2741 60.3443 27.2102 61.6459 30.1169 62.3528C35.4688 63.6586 35.107 63.0223 35.107 63.0223V63.0265Z" fill="black"/>
<path d="M65.393 50.9168C64.8856 41.0489 62.2201 34.1417 53.9032 26.224C53.2545 25.6044 48.7551 22.2278 48.701 23.7747C57.2341 27.7294 62.69 37.0942 64.3076 45.9766C64.9189 49.1412 64.632 52.6925 62.848 55.6242C59.513 60.502 52.1941 60.9719 46.4388 63.4213C46.2808 63.4878 45.6695 63.7248 45.9939 63.9369C46.2891 64.0908 47.6115 63.9203 47.6406 63.5086C47.6406 63.4961 47.6323 63.4878 47.624 63.4795C54.2608 61.4294 65.4263 60.0321 65.3847 50.9168H65.393Z" fill="black"/>
</g>
</svg>
