<svg width="30" height="30" viewBox="0 0 30 30" fill="none" xmlns="http://www.w3.org/2000/svg">
<g clip-path="url(#clip0_1126_3027)">
<path d="M29.6022 19.6159C29.5109 19.3694 29.3478 19.1829 29.1522 19.0963C29.113 19.0763 29.0674 19.0697 29.0217 19.0697H28.4869C28.8522 17.7642 29.0478 16.3921 29.0478 14.9933C29.0478 11.0768 27.5543 7.3934 24.8413 4.62253C22.1283 1.85832 18.5217 0.333008 14.6869 0.333008C10.8522 0.333008 7.24565 1.85832 4.5326 4.62919C1.81956 7.40006 0.32608 11.0835 0.32608 15C0.32608 18.9165 1.81956 22.5999 4.5326 25.3708C7.24565 28.1416 10.8522 29.6669 14.6869 29.6669C17.4326 29.6669 20.0609 28.881 22.3304 27.4156H25.2326C25.4087 27.4156 25.5522 27.2691 25.5522 27.0892V26.9494C25.5522 26.9494 25.5522 26.9494 25.5522 26.9427H25.6043C25.6043 26.9427 25.6565 26.9427 25.6826 26.9427C26.3609 26.9427 27.0326 26.1501 27.3065 25.5573L27.4109 25.3308C27.6848 24.7446 27.9717 24.1385 29.5369 20.6216C29.6935 20.3019 29.713 19.9356 29.5956 19.6092L29.6022 19.6159Z" fill="black"/>
<path d="M14.687 30C10.7674 30 7.07609 28.4414 4.30435 25.6039C1.52609 22.7731 0 19.0031 0 15C0 10.9969 1.52609 7.22691 4.30435 4.39609C7.07609 1.55861 10.7609 0 14.687 0C18.613 0 22.2978 1.55861 25.0696 4.39609C27.8413 7.22691 29.3739 10.9969 29.3739 15C29.3739 16.2655 29.2174 17.5178 28.9109 18.7433H29.0217C29.113 18.7433 29.1978 18.7633 29.2761 18.7966C29.5565 18.9165 29.7848 19.1763 29.9087 19.5093C30.0587 19.9156 30.0261 20.3819 29.837 20.7815C28.2717 24.2984 27.9913 24.8979 27.7174 25.484L27.613 25.7105C27.3391 26.3033 26.6609 27.1559 25.8652 27.2691C25.787 27.5488 25.5391 27.7487 25.2391 27.7487H22.4283C20.113 29.2207 17.4391 30 14.6935 30H14.687ZM14.687 0.666075C10.937 0.666075 7.41522 2.15808 4.76087 4.86234C2.11304 7.57327 0.652174 11.1701 0.652174 15C0.652174 18.8299 2.11304 22.4267 4.76087 25.1377C7.4087 27.8419 10.937 29.3339 14.687 29.3339C17.3413 29.3339 19.9239 28.5746 22.1544 27.1359L22.2326 27.0826H25.2326V26.6097H25.637C26.1457 26.6097 26.7457 25.9969 27.013 25.4174L27.1174 25.1909C27.3913 24.6115 27.6717 24.012 29.237 20.4885C29.3543 20.242 29.3739 19.9689 29.2891 19.7358C29.2304 19.5759 29.1326 19.456 29.0217 19.4094H28.05L28.1674 18.9831C28.5326 17.6909 28.7152 16.3521 28.7152 15C28.7152 11.1701 27.2543 7.57327 24.6065 4.86234C21.9587 2.15808 18.4304 0.666075 14.6804 0.666075H14.687Z" fill="white"/>
<path d="M14.7456 29.5803C22.5833 29.5803 28.9369 23.0913 28.9369 15.0866C28.9369 7.08186 22.5833 0.592773 14.7456 0.592773C6.908 0.592773 0.554337 7.08186 0.554337 15.0866C0.554337 23.0913 6.908 29.5803 14.7456 29.5803Z" fill="#080103"/>
<path d="M11.0804 19.0763C11.3087 19.376 11.5565 19.709 11.9478 20.0687C12.2609 20.3551 12.5283 20.5216 12.8739 20.7414C13.1935 20.9479 13.5261 21.1278 13.8848 21.3009C14.563 21.6207 14.9087 21.7805 15.2739 21.7339C15.4174 21.7139 15.8087 21.6673 16.0761 21.3676C16.2783 21.1411 16.2913 20.908 16.6369 20.535C16.6891 20.475 16.7413 20.4151 16.8326 20.3485C17.3739 19.9422 17.8435 20.0154 17.8435 20.0154L17.4522 19.4226C18.313 17.6575 18.5152 16.5185 18.9652 16.4919C19.1609 16.4786 19.1935 16.705 19.4087 16.6851C19.8326 16.6517 20.0739 15.7259 20.2109 15.2263C20.3935 14.527 20.6609 13.5212 20.1717 12.8418C19.9891 12.582 19.8065 12.5287 19.7478 12.5154C19.2848 12.4022 18.8543 12.9017 18.8217 12.9484C18.013 12.1158 17.1978 11.7161 16.6956 11.5163C16.2 11.3232 14.1391 10.6038 12.3783 11.6562C11.9478 11.916 11.2043 12.3622 11.0739 13.2015C10.9304 14.114 11.5956 14.8467 11.7065 14.9666C11.6152 14.9466 10.9239 14.8001 10.3565 15.2663C9.93912 15.6127 9.78912 16.1255 9.79564 16.5119C9.80217 16.9981 10.063 17.4444 10.5261 18.2303C10.5848 18.3369 10.7869 18.67 11.0869 19.0763H11.0804Z" fill="white"/>
<path d="M18.4826 13.3349C18.6522 13.3682 18.8217 13.4015 18.9848 13.4348C18.9261 13.7678 18.8608 14.2541 18.8608 14.8602C18.8608 15.2798 18.8608 15.493 18.9456 15.6928C19.2326 16.3722 20.0674 16.5853 20.4652 16.6852C20.8695 16.7918 21.2935 16.8984 21.7435 16.6986C22.1152 16.5387 22.2978 16.2523 22.5782 15.8393C22.9435 15.2865 23.0478 14.8202 23.1391 14.334C23.1652 14.1808 23.1913 13.9943 23.1391 13.7811C23.1391 13.7811 23.0935 13.5946 22.9695 13.4215C22.6761 13.0018 21.7891 12.5955 20.8369 12.5089C20.6543 12.4956 19.9761 12.429 19.5652 12.5689C19.5326 12.5822 19.4348 12.6155 19.2978 12.6222C19.0761 12.6355 18.8869 12.5689 18.763 12.5089C18.6652 12.782 18.5674 13.0618 18.4695 13.3349H18.4826Z" fill="#20FF20"/>
<path d="M21.2087 16.9651C20.9348 16.9651 20.6739 16.8985 20.4326 16.8385C20.0087 16.732 19.1217 16.5055 18.8087 15.7528C18.7109 15.5197 18.7109 15.2733 18.7109 14.8603C18.7109 14.4273 18.7435 13.9944 18.8087 13.5681L18.2739 13.4682L18.6848 12.2959L18.8413 12.3692C18.9978 12.4424 19.1478 12.4757 19.2978 12.4691C19.4087 12.4624 19.4869 12.4358 19.5195 12.4225C19.813 12.3225 20.2565 12.3026 20.85 12.3492C21.8152 12.4358 22.7608 12.8487 23.1 13.3283C23.2369 13.5281 23.2956 13.7346 23.2956 13.7413C23.3543 13.9811 23.3282 14.1876 23.2956 14.3607C23.1978 14.8803 23.0804 15.3598 22.7087 15.926C22.4217 16.3523 22.2195 16.6587 21.8087 16.8452C21.6 16.9384 21.4043 16.9717 21.2087 16.9717V16.9651ZM18.6913 13.2084L19.1674 13.3017L19.1413 13.4549C19.063 13.9078 19.0174 14.3807 19.0239 14.847C19.0239 15.2599 19.0239 15.4531 19.0956 15.613C19.35 16.2191 20.1326 16.4189 20.5109 16.5188C20.9087 16.6187 21.2869 16.7186 21.6913 16.5388C22.0174 16.3923 22.1869 16.1458 22.4543 15.7395C22.8 15.2266 22.8978 14.8003 22.9956 14.2941C23.0217 14.1476 23.0413 13.9877 22.9956 13.8145C22.9956 13.8145 22.95 13.6547 22.8522 13.5082C22.6109 13.1618 21.7826 12.7488 20.8304 12.6622C20.1456 12.6023 19.7935 12.6622 19.6239 12.7155C19.5848 12.7288 19.4739 12.7688 19.3239 12.7755C19.1739 12.7821 19.0239 12.7622 18.8739 12.7155L18.6978 13.2084H18.6913Z" fill="#20FF20"/>
<path d="M19.9369 18.0705C20.5761 18.1704 20.8956 18.217 21.163 18.3036C21.9456 18.5501 22.2065 18.8631 22.3369 18.7499C22.4935 18.61 22.2782 17.8973 21.8022 17.3977C21.1565 16.7183 20.7065 17.1313 19.663 16.4319C19.1674 16.0989 18.6848 15.606 18.0848 15.4728C17.9869 15.4528 17.7587 15.3995 17.4848 15.4528C17.2761 15.4928 17.1717 15.5594 16.9043 15.666C16.8 15.7126 16.4739 15.8458 16.1804 15.8991C15.5217 16.0323 14.9674 15.8058 14.8435 15.7525C14.7261 15.6993 14.4587 15.586 14.1913 15.3329C13.9174 15.0731 13.9304 14.9333 13.6239 14.6868C13.5522 14.6269 13.3761 14.5469 13.05 14.3405C12.8152 14.1939 12.7109 14.1207 12.6065 14.1673C12.4109 14.2472 12.3913 14.6469 12.3848 14.7468C12.3587 15.2596 12.5543 15.7126 12.9326 16.3187C13.5782 17.3511 14.3609 18.1904 14.3609 18.1904C14.3609 18.1904 15.1304 18.9963 16.1869 19.5225C16.5913 19.7223 16.9109 19.8223 17.0152 19.8489C17.6674 20.0421 18.1891 20.0421 18.6782 20.0354C18.7435 20.0354 19.9891 20.0221 20.0022 19.8422C20.0022 19.7756 19.8522 19.749 19.4739 19.5425C19.1087 19.3427 18.8739 19.2095 18.7369 19.003C18.6782 18.9164 18.4761 18.5767 18.7109 17.884L18.0522 17.7441C18.0261 18.1238 18.1043 18.4035 18.163 18.57C18.2543 18.8098 18.3848 18.9963 18.5869 19.2761C18.6913 19.4226 18.7826 19.5358 18.8478 19.6158C18.6913 19.5958 18.4761 19.5625 18.2283 19.5092C18.0978 19.4826 17.7456 19.4026 17.3869 19.2761C17.2109 19.2095 16.8652 19.0696 16.2522 18.6766C15.8543 18.4168 15.1826 17.9772 14.4391 17.2179C14.0869 16.8516 13.7283 16.4786 13.3891 15.8858C13.1022 15.3795 12.8804 14.8067 12.9522 14.7601C13.0304 14.7135 13.3565 15.3263 14.1 16.019C14.6804 16.5518 15.2804 16.8249 15.5282 16.9448C15.9456 17.1446 16.3043 17.2645 16.6435 17.3778C17.0543 17.511 17.3674 17.5909 17.6478 17.6642C17.9087 17.7308 18.3522 17.8374 18.9391 17.9373C19.3696 18.0105 19.3565 17.9906 19.9174 18.0771L19.9369 18.0705Z" fill="#FFBD1A"/>
<path d="M18.0652 17.758C18.0391 18.1377 18.1174 18.4174 18.1761 18.5839C18.2674 18.8237 18.3978 19.0102 18.6 19.29C18.7043 19.4365 18.7957 19.5497 18.8609 19.6297C18.7043 19.6097 18.4891 19.5764 18.2413 19.5231C18.1109 19.4965 17.7587 19.4165 17.4 19.29C17.2239 19.2234 16.8783 19.0835 16.2652 18.6905C15.8674 18.4307 15.1957 17.9911 14.4522 17.2318C14.1 16.8655 13.7413 16.4925 13.4022 15.8996C13.1152 15.3934 12.8935 14.8206 12.9652 14.774C13.0435 14.7274 13.3696 15.3401 14.113 16.0329C14.6935 16.5657 15.2935 16.8388 15.5413 16.9587C15.9587 17.1585 16.3174 17.2784 16.6565 17.3917C16.9826 17.4982 17.263 17.5848 17.6609 17.6781C17.8435 17.718 18.0587 17.778 18.0587 17.778L18.0652 17.758Z" fill="black"/>
<path d="M19.3043 12.6157C19.037 12.6357 18.8739 12.5691 18.7696 12.5025C18.6783 12.4426 18.6391 12.3893 18.45 12.2361C18.3457 12.1495 18.2543 12.0829 18.1957 12.0429C18.1891 12.0429 18.0587 11.943 17.837 11.7965C16.6174 11.0105 15.5348 11.0038 15.5348 11.0038C15.2478 11.0038 14.6804 10.9905 14.2239 11.1704C13.9696 11.2703 13.937 11.2503 13.8196 11.2703C13.5652 11.3169 13.3565 11.3102 13.213 11.2969C11.4065 10.7707 10.4087 10.3977 9.88696 10.1246C9.75 10.0514 9.37826 9.84487 8.93478 9.91148C8.64783 9.95811 8.43261 10.098 8.30217 10.1846C7.97609 10.3977 7.8 10.6575 7.63696 10.9039C7.45435 11.177 6.95217 11.9497 7.19348 12.2494C7.23913 12.3027 7.35652 12.4026 7.69565 12.3626C7.72826 12.0829 7.83261 11.5767 8.21087 11.1304C8.35435 10.9639 8.53043 10.7641 8.83696 10.6708C9.19565 10.5576 9.52826 10.6775 9.6913 10.7441C10.2652 10.9572 11.6348 11.4901 13.4543 12.2494C13.4348 12.4625 13.4152 12.7689 13.4348 13.1286C13.4609 13.6748 13.487 14.1144 13.6957 14.5407C14.113 15.38 15.0457 15.6464 15.2022 15.6863C15.3261 15.7197 16.4087 16.0061 17.3152 15.3533C17.7326 15.0536 17.9543 14.6739 18.0783 14.4608C18.3326 14.0212 18.4435 13.6015 18.4891 13.3351C18.6587 13.3684 18.8283 13.4017 18.9913 13.435C19.0957 13.1619 19.2065 12.8955 19.3109 12.6224L19.3043 12.6157Z" fill="#20FF20"/>
<path d="M15.913 15.9396C15.5348 15.9396 15.2478 15.873 15.15 15.8463C14.8826 15.7731 13.9696 15.4667 13.5456 14.6141C13.3239 14.1612 13.2978 13.6882 13.2717 13.1421C13.2587 12.8823 13.2652 12.6159 13.2848 12.3561C11.7261 11.71 10.3826 11.1771 9.6326 10.8974C9.48913 10.8441 9.19565 10.7309 8.87608 10.8308C8.60869 10.9107 8.45217 11.0972 8.32826 11.2438C8.00217 11.6301 7.88478 12.0763 7.85217 12.3894L7.83913 12.516L7.71521 12.5293C7.40869 12.5626 7.19347 12.5093 7.07608 12.3561C6.85434 12.0763 6.9913 11.5901 7.50652 10.8175C7.66304 10.5843 7.85869 10.2979 8.21739 10.0581C8.35434 9.96489 8.58913 9.81169 8.90217 9.76507C9.38478 9.6918 9.7826 9.90495 9.93913 9.99153H9.95217C10.5065 10.2979 11.5826 10.6709 13.2326 11.1572C13.4152 11.1705 13.6043 11.1572 13.7804 11.1305C13.813 11.1305 13.8456 11.1239 13.8717 11.1172C13.937 11.1105 13.9891 11.1039 14.1587 11.0373C14.6413 10.8508 15.2217 10.8574 15.5283 10.8574C15.5739 10.8574 16.6696 10.8774 17.9152 11.6767C18.137 11.8166 18.2609 11.9098 18.287 11.9298C18.3717 11.9898 18.463 12.0564 18.5478 12.1296C18.6391 12.2029 18.6978 12.2562 18.7435 12.2962C18.7891 12.3361 18.8217 12.3628 18.8609 12.3894C18.9717 12.4627 19.1217 12.4893 19.2978 12.476L19.5456 12.456L19.0891 13.6283L18.6065 13.5351C18.5283 13.8947 18.3913 14.2411 18.2087 14.5608C18.0848 14.7806 17.8435 15.1869 17.4 15.5C16.8978 15.8597 16.35 15.9529 15.913 15.9529V15.9396ZM9.13695 10.4644C9.40434 10.4644 9.62608 10.551 9.73695 10.591C10.5065 10.8841 11.9022 11.4303 13.5065 12.103L13.6174 12.1496L13.6043 12.2695C13.5783 12.5559 13.5717 12.8423 13.5848 13.1287C13.6109 13.6616 13.6304 14.0812 13.8261 14.4742C14.1913 15.2069 14.9935 15.4733 15.2283 15.5399C15.4174 15.5932 16.3956 15.8197 17.2109 15.2335C17.6022 14.9538 17.8109 14.5874 17.9283 14.3876C18.1174 14.0546 18.2543 13.6949 18.3196 13.3152L18.3456 13.1554L18.8804 13.2553L19.0696 12.7824C18.9261 12.7624 18.7956 12.7224 18.6848 12.6492C18.6261 12.6092 18.587 12.5759 18.5283 12.5293C18.4826 12.4893 18.4304 12.4427 18.3456 12.3761C18.2804 12.3228 18.2087 12.2695 18.137 12.2162H18.1239L18.0848 12.1763C18.0848 12.1763 17.9348 12.063 17.7456 11.9431C16.5783 11.1971 15.5348 11.1705 15.5217 11.1705C15.2348 11.1705 14.7 11.1572 14.2696 11.3303C14.0739 11.4103 13.9956 11.4169 13.9043 11.4303C13.8848 11.4303 13.8587 11.4303 13.8326 11.4369C13.6239 11.4769 13.4087 11.4835 13.1935 11.4702H13.1804H13.1674C11.4848 10.9773 10.3891 10.591 9.81521 10.2846H9.80217C9.66521 10.2047 9.33913 10.0315 8.96086 10.0848C8.71304 10.1247 8.52391 10.2446 8.4 10.3312C8.09347 10.5377 7.93043 10.7775 7.77391 11.0106C7.18043 11.8965 7.29782 12.1296 7.32391 12.1629C7.33695 12.1829 7.39565 12.2295 7.56521 12.2295C7.62391 11.8832 7.76086 11.4369 8.1 11.0439C8.23695 10.8841 8.43913 10.6443 8.79782 10.5377C8.92173 10.4978 9.03913 10.4844 9.14999 10.4844L9.13695 10.4644Z" fill="#20FF20"/>
<path d="M8.60217 20.3485C8.5826 20.4018 6.77608 19.9155 4.89782 19.2295C4.60434 19.1229 4.35652 19.0296 4.18695 18.963C4.05652 18.983 3.86739 19.1695 3.95869 19.376C3.96521 19.9089 3.14347 19.809 3.01956 21.1278C5.1 25.0643 8.13913 26.9493 8.13913 26.9493C10.0435 28.1682 12.2217 28.9675 12.3196 28.7876C12.3522 28.721 12.1043 28.5079 11.8891 28.348C11.8891 28.328 11.8435 27.9484 10.0304 27.1757C11.6935 27.0225 13.3956 26.8827 15.1304 26.7694C17.6152 26.6029 20.0348 26.483 22.3956 26.4031C22.1478 25.9635 21.8674 25.5106 21.5543 25.051C20.4 23.3591 19.1152 22.0869 17.9609 21.1478C17.9348 21.1211 17.9022 21.1011 17.8761 21.0745C17.9413 20.9946 18.0652 20.8081 18.0848 20.5416C18.0848 20.5283 18.1109 20.2286 18 20.182C17.8956 20.1353 17.7261 20.3418 17.4326 20.6882C16.7413 21.5141 16.6565 21.6007 16.5848 21.6873C16.4348 21.8871 16.2587 25.0043 16.0304 25.0643C15.8478 25.1109 15.7304 23.166 14.387 22.2002C13.8978 21.8471 13.5652 21.8605 12.6196 21.241C12.0717 20.8813 11.6609 20.535 11.387 20.2952L11.1978 20.3884C11.1978 20.3884 11.1717 20.4084 11.1717 20.4284C11.1717 20.4417 11.1783 20.455 11.1848 20.4617C11.2109 20.495 11.4913 20.7947 11.4978 20.7881C11.5043 20.7814 11.1978 20.6082 10.4283 19.8889C9.39782 18.9297 8.92826 18.4768 8.17174 17.6375C7.12174 16.5119 6.63261 15.3862 7.57174 14.1007C9.10434 11.6562 8.98695 11.6029 10.4087 10.2574C10.8326 9.84448 11.7522 9.06517 13.1674 8.67219C13.513 8.57894 14.7196 8.27254 16.2522 8.5856C16.8652 8.71215 19.1283 9.18506 20.2109 11.15C20.4717 11.6229 20.6022 12.0692 20.6674 12.3822C20.8239 12.3955 20.9804 12.4089 21.1435 12.4222C21.2348 12.4288 21.3261 12.4355 21.4109 12.4422C21.5152 12.0359 21.613 11.4098 21.4435 10.7237C21.4435 10.7237 21.4304 10.6704 21.4174 10.6105C21.0326 9.25833 19.2391 8.11934 19.2391 8.11934C17.9087 7.45993 15.4174 6.35425 12.7761 6.02787C11.8956 5.9213 11.0478 5.90132 10.1478 6.261C9.72391 6.42751 9.15 6.73391 8.17174 7.76632C6.87391 9.12512 6.22826 10.3041 5.1 12.4688C4.31087 13.9675 3.95869 14.9066 4.10869 16.019C4.14782 16.332 4.21956 16.5585 4.24565 16.6384C4.42174 17.2046 4.86521 17.7841 4.86521 17.7841C5.52391 18.6433 6.35217 19.2095 6.35217 19.2095C6.93261 19.6091 7.51304 19.8556 7.97608 20.0621C8.40652 20.2486 8.62826 20.3152 8.62174 20.3352L8.60217 20.3485Z" fill="white"/>
<path d="M13.363 25.9702C12.4891 25.8037 11.8174 25.6305 11.3609 25.5039C11.237 25.4706 11.1783 25.4506 11.1065 25.4307C10.037 25.0776 9.82173 24.7046 8.83043 24.5914C7.91739 24.4915 7.43478 24.7313 7.37608 24.5914C7.27173 24.3183 8.94782 22.8063 11.0348 22.7863C13.0891 22.7664 14.4978 24.1918 14.6935 24.3982C15.5348 25.2708 16.4674 26.3498 16.2717 26.5896C16.1478 26.7428 15.6196 26.5097 15.15 26.2633" fill="#040302"/>
<path d="M14.687 29.6669C10.8522 29.6669 7.24565 28.1416 4.5326 25.3708C1.81956 22.5999 0.32608 18.9165 0.32608 15C0.32608 11.0835 1.81956 7.40006 4.5326 4.62919C7.24565 1.85832 10.8522 0.333008 14.687 0.333008C18.5217 0.333008 22.1283 1.85832 24.8413 4.62919C27.5543 7.40006 29.0478 11.0835 29.0478 15C29.0478 18.9165 27.5543 22.5999 24.8413 25.3708C22.1283 28.1416 18.5217 29.6669 14.687 29.6669ZM14.687 1.00574C11.0283 1.00574 7.58478 2.46445 4.99565 5.1021C2.40652 7.74642 0.984776 11.2566 0.984776 15C0.984776 18.7433 2.41304 22.2535 4.99565 24.8978C7.58478 27.5422 11.0217 28.9942 14.687 28.9942C18.3522 28.9942 21.7891 27.5355 24.3783 24.8978C26.9674 22.2535 28.3891 18.7433 28.3891 15C28.3891 11.2566 26.9609 7.74642 24.3783 5.1021C21.7891 2.45779 18.3522 1.00574 14.687 1.00574Z" fill="#080103"/>
<path d="M25.6239 26.603H18.2739C18.2739 26.603 18.0978 26.603 17.9152 26.603C17.8891 26.603 17.55 26.583 17.4783 26.5697C17.2239 26.5097 16.9956 26.0568 17.2239 25.5173C17.2239 25.5106 17.3413 25.1709 17.3413 25.1642L19.1609 20.4817C19.4087 19.9489 19.7217 19.416 20.1326 19.416H29.0217C29.2826 19.5292 29.4652 20.0221 29.237 20.4817C27.4696 24.4449 27.3391 24.7046 27.0065 25.4173C26.7522 25.9635 26.1261 26.6629 25.6239 26.603Z" fill="white"/>
<path d="M25.6826 26.9495C25.6826 26.9495 25.6304 26.9495 25.6044 26.9495H18.2739C18.2739 26.9495 18.0978 26.9495 17.9152 26.9495C17.9022 26.9495 17.5174 26.9362 17.4065 26.9096C17.2044 26.8629 17.0217 26.7097 16.9109 26.4899C16.7544 26.1769 16.7544 25.7772 16.9109 25.3976C16.9174 25.3776 16.9435 25.311 16.9631 25.2444C17.0152 25.0845 17.0283 25.0579 17.0348 25.0445L18.8478 20.3687C18.8478 20.3687 18.8478 20.3554 18.8544 20.3487C19.1478 19.7226 19.5261 19.0898 20.1261 19.0898H29.0152C29.0609 19.0898 29.1065 19.0965 29.1457 19.1165C29.3413 19.2031 29.5044 19.3896 29.5957 19.636C29.7131 19.9557 29.687 20.3221 29.537 20.6485C27.9717 24.1653 27.6848 24.7715 27.4109 25.3576L27.3065 25.5841C27.0326 26.1769 26.3544 26.9695 25.6826 26.9695V26.9495ZM17.5565 26.2302C17.6283 26.2368 17.8696 26.2568 17.9217 26.2568C18.0978 26.2568 18.2609 26.2568 18.2739 26.2568H25.6239C25.6239 26.2568 25.65 26.2568 25.6631 26.2568C25.937 26.2901 26.4652 25.7906 26.7065 25.2644L26.8109 25.0379C27.0848 24.4517 27.3652 23.8523 28.9304 20.3354C28.9304 20.3354 28.9304 20.3287 28.9304 20.3221C29.0348 20.1156 28.9957 19.9358 28.9696 19.8625C28.95 19.8092 28.9304 19.7692 28.9109 19.7493H20.1261C20.0087 19.7493 19.8 19.8958 19.4609 20.6085L17.6478 25.2777C17.6478 25.2777 17.6152 25.3776 17.5891 25.4509C17.55 25.5707 17.5283 25.6351 17.5239 25.644C17.387 25.9704 17.5044 26.1902 17.55 26.2235L17.5565 26.2302Z" fill="black"/>
<path d="M25.2326 26.9492H11.987V27.0891H25.2326V26.9492Z" fill="white"/>
<path d="M25.2326 26.623H11.987C11.8105 26.623 11.6674 26.7692 11.6674 26.9494V27.0893C11.6674 27.2695 11.8105 27.4157 11.987 27.4157H25.2326C25.4091 27.4157 25.5522 27.2695 25.5522 27.0893V26.9494C25.5522 26.7692 25.4091 26.623 25.2326 26.623Z" fill="black"/>
<path d="M2.90216 9.21798L2.32825 8.87828L3.44999 6.88672L4.0239 7.22642L2.90216 9.21798ZM5.11303 9.61762L2.70651 8.19889L3.0652 7.56611L5.47173 8.98485L5.11303 9.61762Z" fill="#20FF20"/>
<path d="M5.84998 8.29935L4.5065 5.62839L5.00867 5.08887L7.68259 6.32777L7.16737 6.88061L4.96302 5.74828L5.13911 5.55512L6.34563 7.75317L5.84346 8.29269L5.84998 8.29935ZM5.94128 7.50672L5.4978 7.08043L6.48259 6.02137L6.92607 6.44766L5.94128 7.50672Z" fill="#20FF20"/>
<path d="M8.15868 6.04093L6.5739 3.70967L7.16085 3.29004L8.74564 5.6213L8.15868 6.04093Z" fill="#20FF20"/>
<path d="M9.3326 5.22206L8.19781 2.63103L8.84999 2.3313L9.98477 4.92233L9.3326 5.22206ZM9.46303 4.07641L9.23477 3.55022L9.65869 3.35705C9.71086 3.33707 9.74999 3.30377 9.7826 3.25714C9.81521 3.21718 9.83477 3.16389 9.84129 3.10395C9.84129 3.044 9.83477 2.97739 9.80216 2.91078C9.76955 2.83752 9.73042 2.79089 9.68477 2.75093C9.63912 2.71762 9.58695 2.69764 9.53477 2.69098C9.4826 2.69098 9.43042 2.69098 9.37825 2.71762L8.95434 2.91078L8.72608 2.38458L9.2739 2.13148C9.4239 2.06487 9.5739 2.03157 9.7239 2.04489C9.8739 2.05821 10.0109 2.10483 10.1413 2.19808C10.2652 2.29133 10.3696 2.42455 10.4478 2.60439C10.5261 2.77757 10.5522 2.94409 10.5391 3.10395C10.5261 3.2638 10.4674 3.40368 10.3761 3.52357C10.2848 3.64347 10.1609 3.74338 10.0109 3.80998L9.46303 4.06309V4.07641Z" fill="#20FF20"/>
<path d="M11.4326 4.30964L10.8391 1.53877L11.5435 1.37891L12.1369 4.14978L11.4391 4.30964H11.4326ZM11.55 2.05831L11.413 1.41221L12.7304 1.11914L12.8674 1.76523L11.55 2.05831ZM11.7652 3.08406L11.6282 2.45129L12.8348 2.1782L12.9717 2.81097L11.7652 3.08406ZM12.0065 4.18308L11.8695 3.53699L13.2065 3.23726L13.3435 3.88335L12.0065 4.18308Z" fill="#20FF20"/>
<path d="M13.9695 3.86314L13.8717 1.02567L14.5891 0.999023L14.6869 3.8365L13.9695 3.86314Z" fill="#20FF20"/>
<path d="M17.2239 4.19606C17.0348 4.1561 16.8587 4.07617 16.7152 3.9696C16.5652 3.86302 16.4413 3.72981 16.3435 3.56995C16.2456 3.41009 16.1804 3.23691 16.1543 3.05041C16.1217 2.85725 16.1282 2.66409 16.1739 2.45761C16.2195 2.25112 16.2913 2.06462 16.4021 1.91143C16.5065 1.75157 16.6369 1.62501 16.7869 1.5251C16.9369 1.42519 17.1 1.35858 17.2826 1.32528C17.4587 1.29198 17.6478 1.29198 17.8369 1.3386C18.0326 1.37857 18.2021 1.45849 18.3456 1.55841C18.4956 1.66498 18.613 1.78487 18.7043 1.93141L18.1239 2.35103C18.0848 2.27111 18.0261 2.2045 17.9543 2.14455C17.8826 2.0846 17.7913 2.04464 17.6869 2.02466C17.5956 2.00468 17.5043 2.00468 17.4195 2.018C17.3348 2.03132 17.2565 2.07128 17.1848 2.11791C17.113 2.17119 17.0543 2.2378 17.0021 2.32439C16.95 2.41098 16.9108 2.51089 16.8913 2.62413C16.8652 2.74402 16.8587 2.85059 16.8717 2.9505C16.8848 3.05041 16.9108 3.137 16.95 3.21693C16.9891 3.29686 17.0478 3.35681 17.1195 3.41009C17.1913 3.46338 17.2695 3.49668 17.3674 3.52333C17.4717 3.54997 17.5695 3.54997 17.6608 3.52999C17.7521 3.51 17.8369 3.4767 17.9087 3.41675L18.2674 4.04286C18.1174 4.13611 17.9608 4.19606 17.7913 4.22936C17.6217 4.26267 17.4326 4.25601 17.2239 4.20938V4.19606Z" fill="#20FF20"/>
<path d="M19.4804 5.04248C19.2978 4.94923 19.1478 4.83599 19.0304 4.68946C18.913 4.54958 18.8217 4.38972 18.7695 4.20988C18.7174 4.03671 18.6978 3.8502 18.7109 3.65704C18.7239 3.46388 18.7826 3.27072 18.8739 3.08422C18.9652 2.89106 19.0826 2.7312 19.2195 2.60464C19.3565 2.47809 19.513 2.37818 19.6826 2.31823C19.8522 2.25829 20.0282 2.23164 20.2109 2.2383C20.3935 2.25163 20.5761 2.29825 20.7587 2.3915C20.9413 2.48475 21.0913 2.59798 21.2087 2.73786C21.3261 2.87774 21.4174 3.03759 21.4695 3.21077C21.5217 3.38395 21.5413 3.57045 21.5282 3.76361C21.5087 3.95678 21.4565 4.14328 21.3652 4.33644C21.2739 4.52294 21.1565 4.6828 21.0195 4.81601C20.8826 4.94923 20.7261 5.04248 20.5565 5.10909C20.3869 5.17569 20.2109 5.20234 20.0282 5.18901C19.8456 5.17569 19.6695 5.12907 19.4869 5.04248H19.4804ZM19.7739 4.40971C19.8913 4.46965 20.0152 4.4963 20.1261 4.48298C20.2435 4.46965 20.3478 4.42303 20.4456 4.3431C20.5435 4.26317 20.6282 4.14994 20.6935 4.01006C20.7456 3.90349 20.7782 3.80358 20.7913 3.70367C20.8043 3.60376 20.8043 3.51051 20.7782 3.42392C20.7587 3.33733 20.7195 3.2574 20.6609 3.19079C20.6022 3.12418 20.5304 3.06424 20.4391 3.01761C20.3217 2.95766 20.2043 2.93102 20.0869 2.94434C19.9695 2.95766 19.8652 3.00429 19.7674 3.08422C19.6695 3.16415 19.5848 3.27738 19.5195 3.41726C19.4674 3.52383 19.4348 3.6304 19.4217 3.72365C19.4087 3.82356 19.4087 3.91681 19.4348 4.0034C19.4543 4.08999 19.4935 4.16992 19.5522 4.23653C19.6109 4.30314 19.6826 4.36308 19.7739 4.40971Z" fill="#20FF20"/>
<path d="M20.9087 5.7616L22.7152 3.60352L23.263 4.08309L21.4565 6.24117L20.9087 5.7616ZM21.2804 6.07465L21.7109 5.56178L22.1609 5.95476C22.2652 6.04135 22.3696 6.10129 22.4804 6.12128C22.5913 6.14792 22.7022 6.1346 22.813 6.08131C22.9239 6.03469 23.0348 5.94144 23.1391 5.82154C23.2435 5.69499 23.3087 5.5751 23.3413 5.4552C23.3674 5.33531 23.3674 5.22208 23.3283 5.12217C23.2891 5.01559 23.2174 4.92234 23.1196 4.82909L22.637 4.40947L23.0674 3.89659L23.55 4.31622C23.7 4.44943 23.8239 4.59597 23.9087 4.76249C23.9935 4.92234 24.0456 5.09552 24.0587 5.27536C24.0717 5.4552 24.0522 5.62838 23.9935 5.80822C23.9348 5.98806 23.837 6.15458 23.7 6.3211C23.563 6.48762 23.413 6.60751 23.25 6.6941C23.087 6.78069 22.9174 6.83398 22.7478 6.84064C22.5717 6.85396 22.4022 6.82732 22.2326 6.76737C22.063 6.70742 21.9 6.60751 21.75 6.48096L21.2935 6.08131L21.2804 6.07465Z" fill="#20FF20"/>
<path d="M22.9174 7.60021L25.1543 5.91504L25.5783 6.50785L23.3413 8.19301L22.9174 7.60021ZM23.263 8.07978L23.7848 7.6868L24.6 8.81246L24.0783 9.20545L23.263 8.07978ZM24.15 7.41371L24.6587 7.02738L25.3956 8.04648L24.887 8.4328L24.15 7.41371ZM24.9783 6.7876L25.5 6.39461L26.3022 7.5003L25.7804 7.89328L24.9783 6.7876Z" fill="#20FF20"/>
<path d="M24.313 9.64467L26.85 8.49902L27.1435 9.17176L24.6065 10.3174L24.313 9.64467ZM25.4478 9.77789L26.0413 9.51146L26.55 10.6837L25.9565 10.9502L25.4478 9.77789ZM26.4913 9.31163L27.0848 9.0452L27.613 10.2708L27.0195 10.5372L26.4913 9.31163Z" fill="#20FF20"/>
<path d="M25.1609 11.6891L27.8739 11.083L28.0239 11.8024L25.3109 12.4085L25.1609 11.6891ZM25.2848 12.2686L25.9174 12.1287L26.2109 13.4942L25.5782 13.6341L25.2848 12.2686ZM26.3543 12.0288L26.9739 11.889L27.2413 13.1212L26.6217 13.2611L26.3543 12.0288ZM27.3652 11.809L27.9978 11.6692L28.2848 13.0146L27.6522 13.1545L27.3652 11.809Z" fill="#20FF20"/>
<path d="M25.5652 15.0734C25.5652 14.8536 25.6043 14.6605 25.6761 14.4939C25.7478 14.3274 25.8587 14.1809 26.0087 14.041L26.4913 14.5073C26.3935 14.6005 26.3217 14.7004 26.2696 14.807C26.2174 14.9136 26.1913 15.0268 26.1913 15.1467C26.1913 15.2466 26.2043 15.3199 26.237 15.3732C26.2696 15.4265 26.3152 15.4531 26.3739 15.4531C26.4326 15.4531 26.4783 15.4331 26.5174 15.3865C26.5565 15.3399 26.5891 15.2866 26.6217 15.2133C26.6543 15.14 26.6804 15.0601 26.713 14.9735C26.7456 14.8869 26.7848 14.8003 26.8304 14.7138C26.8761 14.6272 26.9283 14.5472 26.9935 14.4806C27.0587 14.4074 27.137 14.3541 27.2348 14.3074C27.3326 14.2675 27.4435 14.2408 27.587 14.2475C27.7696 14.2475 27.9196 14.2941 28.05 14.3741C28.1804 14.454 28.2783 14.5739 28.3435 14.7204C28.4087 14.8669 28.4413 15.0401 28.4413 15.2399C28.4413 15.4331 28.4022 15.6196 28.337 15.7861C28.2717 15.9527 28.1739 16.0925 28.05 16.1991L27.5674 15.7328C27.6522 15.6529 27.7109 15.573 27.7565 15.4931C27.7957 15.4131 27.8217 15.3265 27.8217 15.2266C27.8217 15.1534 27.8087 15.0934 27.7826 15.0468C27.7565 15.0002 27.7174 14.9802 27.6652 14.9802C27.613 14.9802 27.5674 15.0002 27.5283 15.0468C27.4956 15.0934 27.463 15.1467 27.4304 15.22C27.3978 15.2932 27.3717 15.3732 27.3391 15.4598C27.3065 15.5463 27.2674 15.6329 27.2283 15.7195C27.1826 15.8061 27.1304 15.886 27.0652 15.9527C27 16.0259 26.9152 16.0792 26.8174 16.1258C26.7196 16.1658 26.5957 16.1924 26.4587 16.1858C26.1783 16.1858 25.9565 16.0859 25.8065 15.8927C25.6565 15.6995 25.5783 15.4331 25.5848 15.0868L25.5652 15.0734Z" fill="#20FF20"/>
<path d="M25.4478 16.9644L28.1674 17.5572L28.0174 18.2766L25.2978 17.6838L25.4478 16.9644ZM27.6783 16.6514L28.3239 16.7912L27.8543 19.0359L27.2087 18.896L27.6783 16.6514Z" fill="#20FF20"/>
<path d="M14.4783 11.5363C14.3152 11.6695 14.237 11.8493 14.2043 11.9492C14.0413 12.4088 13.9761 12.8085 13.9435 13.0816C13.9239 13.2947 13.8913 13.5878 13.9435 13.9608C13.9435 14.0008 13.9891 14.2872 14.0674 14.487C14.3609 15.2663 15.4174 15.4262 15.6978 15.4728C16.0435 15.5327 16.6761 15.6393 17.1848 15.2263C17.3935 15.0532 17.563 14.8134 17.6478 14.6868C17.9022 14.3205 18.0326 13.9808 18.0717 13.8675C18.2152 13.4679 18.437 12.8351 18.2087 12.3889C18.1696 12.3156 18.0913 12.189 17.5956 11.9293C16.7674 11.503 16.1087 11.4164 15.5804 11.3498C15.5609 11.3498 15.2609 11.3098 14.8761 11.3764C14.6674 11.4097 14.5696 11.4564 14.4783 11.5296V11.5363Z" fill="black"/>
<path d="M19.4609 13.6407C19.4478 13.714 19.4413 13.7739 19.4413 13.7939C19.3826 14.833 19.2196 15.3059 19.4543 15.7921C19.6826 16.2717 20.1783 16.5648 20.6283 16.6514C20.7261 16.6713 21.3848 16.7912 21.8543 16.3849C22.0109 16.2451 22.1152 16.0852 22.2522 15.872C22.4804 15.5124 22.5913 15.1927 22.6174 15.0994C22.787 14.5932 22.8261 14.0603 22.8261 14.0603C22.8261 14.0603 22.7674 13.7273 22.7609 13.694C22.663 13.1811 20.25 12.3086 19.5978 13.281C19.487 13.4475 19.4543 13.6474 19.4543 13.6474L19.4609 13.6407Z" fill="black"/>
</g>
<defs>
<clipPath id="clip0_1126_3027">
<rect width="30" height="30" fill="white"/>
</clipPath>
</defs>
</svg>
