<svg width="620" height="620" viewBox="0 0 620 620" fill="none" xmlns="http://www.w3.org/2000/svg">
<path d="M310 620C481.208 620 620 481.208 620 310C620 138.792 481.208 0 310 0C138.792 0 0 138.792 0 310C0 481.208 138.792 620 310 620Z" fill="white"/>
<path d="M310 612.289C476.949 612.289 612.289 476.949 612.289 310C612.289 143.051 476.949 7.71143 310 7.71143C143.051 7.71143 7.71135 143.051 7.71135 310C7.71135 476.949 143.051 612.289 310 612.289Z" fill="#231815"/>
<path d="M85.1801 284.782L29.3761 273.546L31.1719 264.606L43.4447 263.05L87.7538 271.971L85.1801 284.782ZM92.2193 249.788L44.9428 271.098L31.1815 264.606L78.4771 243.229L92.2193 249.788ZM92.2193 249.788L79.8312 250.72L35.7622 241.846L38.3359 229.036L94.1399 240.271L92.2193 249.788Z" fill="#FF6445"/>
<path d="M96.7424 233.549L44.6068 210.703L49.8501 198.738L101.986 221.583L96.7424 233.549ZM59.8662 206.084L48.7649 201.215L59.8662 175.882L70.9675 180.751L59.8662 206.084ZM79.7255 214.775L68.9124 210.04L79.1013 186.782L89.9145 191.516L79.7255 214.784V214.775ZM100.901 224.061L89.7993 219.192L101.045 193.523L112.146 198.392L100.901 224.061Z" fill="#FF6445"/>
<path d="M121.058 183.661L66.2139 161.314L74.2421 151.106L115.891 168.92L112.463 173.28L85.2474 137.105L91.7007 128.903L133.311 146.775L129.835 151.192L102.754 114.844L110.744 104.694L145.277 152.854L138.737 161.17L97.2417 143.289L100.488 139.16L127.636 175.287L121.048 183.661H121.058Z" fill="#FF6445"/>
<path d="M141.733 95.4555L134.848 85.1897L171.993 60.2599L178.878 70.5257L141.733 95.4555ZM179.656 123.67L148.158 76.7389L159.009 69.4597L190.508 116.39L179.656 123.67Z" fill="#FF6445"/>
<path d="M203.52 107.142L201.494 46.7962L213.248 42.1866L252.583 87.9073L239.81 92.9202L208.418 53.8353L212.768 52.1259L216.1 102.216L203.53 107.142H203.52ZM211.299 93.4004L207.14 82.7889L233.77 72.3406L237.928 82.9521L211.299 93.4004Z" fill="#FF6445"/>
<path d="M257.211 88.2339L245.428 32.5451L258.21 29.837L269.993 85.5258L257.211 88.2339Z" fill="#FF6445"/>
<path d="M278.31 83.4899L274.92 26.6679L287.961 25.8901L291.351 82.712L278.31 83.4899ZM287.442 62.603L286.799 51.8667L296.997 51.2617C298.255 51.1848 299.398 50.8391 300.406 50.2149C301.415 49.5907 302.202 48.688 302.769 47.4972C303.326 46.3064 303.566 44.914 303.47 43.3102C303.374 41.6585 302.971 40.2852 302.279 39.2001C301.578 38.1149 300.695 37.3082 299.609 36.7897C298.534 36.2615 297.362 36.0406 296.095 36.1174L285.896 36.7224L285.262 26.0629L297.65 25.3235C301.002 25.1218 304.046 25.6692 306.773 26.9464C309.51 28.2332 311.729 30.1923 313.448 32.8236C315.167 35.4548 316.136 38.7007 316.367 42.542C316.588 46.3352 316.012 49.6387 314.619 52.462C313.227 55.2854 311.248 57.5037 308.694 59.1266C306.13 60.7496 303.182 61.6619 299.83 61.8636L287.442 62.603Z" fill="#FF6445"/>
<path d="M322.897 81.5694L330.541 25.1699L343.486 26.9273L335.842 83.3267L322.897 81.5694ZM333.163 82.9618L334.795 70.9482L362.568 74.7127L360.935 86.7263L333.163 82.9618ZM336.274 60.0486L337.859 48.352L363.029 51.7611L361.444 63.4578L336.274 60.0486ZM339.184 38.5759L340.817 26.5624L368.224 30.2788L366.592 42.2924L339.184 38.5759Z" fill="#FF6445"/>
<path d="M367.321 89.1078L383.205 34.4465L395.747 38.0861L379.863 92.7474L367.321 89.1078Z" fill="#FF6445"/>
<path d="M423.125 113.135C419.678 111.224 416.854 108.794 414.646 105.856C412.437 102.917 410.881 99.6809 409.979 96.1469C409.076 92.613 408.884 88.9446 409.412 85.1321C409.94 81.3292 411.227 77.5744 413.282 73.8772C415.308 70.228 417.776 67.1742 420.696 64.7254C423.615 62.2766 426.803 60.5096 430.27 59.434C433.737 58.3585 437.28 57.9743 440.93 58.2816C444.569 58.5889 448.113 59.7029 451.56 61.6139C455.133 63.6018 458.004 66.0026 460.165 68.8259C462.325 71.6492 463.891 74.7415 464.87 78.093L452.501 82.3376C452.127 80.4169 451.359 78.6404 450.197 77.0174C449.035 75.3945 447.421 74.002 445.337 72.8496C443.551 71.8605 441.688 71.2747 439.768 71.0827C437.837 70.9002 435.984 71.1403 434.198 71.8029C432.412 72.4655 430.721 73.5123 429.118 74.9527C427.514 76.3932 426.112 78.189 424.921 80.3305C423.673 82.5777 422.866 84.7576 422.492 86.8799C422.117 89.0022 422.127 90.99 422.511 92.8627C422.895 94.7257 423.654 96.435 424.796 97.9908C425.939 99.5465 427.428 100.824 429.252 101.842C431.374 103.023 433.439 103.695 435.437 103.849C437.434 104.012 439.393 103.762 441.314 103.119L444.291 115.795C440.882 116.717 437.444 117.024 433.967 116.717C430.491 116.41 426.88 115.219 423.135 113.145L423.125 113.135Z" fill="#FF6445"/>
<path d="M461.673 141.637C458.724 138.948 456.516 135.914 455.046 132.553C453.577 129.182 452.818 125.667 452.77 121.999C452.722 118.33 453.395 114.691 454.787 111.07C456.18 107.45 458.283 104.098 461.096 101.016C463.91 97.9331 467.031 95.542 470.45 93.8518C473.878 92.1616 477.412 91.1533 481.071 90.8268C484.73 90.5003 488.283 90.942 491.74 92.1328C495.197 93.3332 498.395 95.2731 501.343 97.962C504.291 100.651 506.519 103.666 508.027 106.989C509.535 110.321 510.293 113.817 510.303 117.485C510.303 121.154 509.621 124.784 508.229 128.366C506.836 131.948 504.733 135.28 501.919 138.362C499.106 141.445 495.975 143.846 492.537 145.555C489.099 147.274 485.546 148.292 481.897 148.609C478.238 148.936 474.685 148.513 471.237 147.361C467.78 146.199 464.601 144.297 461.692 141.637H461.673ZM470.219 132.053C472.342 133.993 474.666 135.174 477.21 135.606C479.746 136.039 482.291 135.712 484.826 134.627C487.361 133.542 489.771 131.746 492.047 129.259C493.709 127.444 494.976 125.561 495.869 123.612C496.753 121.672 497.223 119.723 497.281 117.783C497.339 115.843 496.983 113.999 496.215 112.242C495.447 110.484 494.266 108.89 492.691 107.45C490.568 105.52 488.254 104.329 485.757 103.897C483.251 103.465 480.725 103.762 478.171 104.799C475.616 105.837 473.216 107.575 470.978 110.033C469.249 111.935 467.924 113.865 467.022 115.824C466.119 117.793 465.639 119.742 465.581 121.682C465.523 123.622 465.888 125.475 466.676 127.242C467.463 129.009 468.654 130.622 470.229 132.063L470.219 132.053Z" fill="#FF6445"/>
<path d="M484.835 162.649L532.093 130.93L539.372 141.772L492.115 173.5L484.835 162.649ZM489.714 169.918L499.98 163.033L506.932 173.395C508.536 175.776 510.457 177.534 512.694 178.667C514.932 179.8 517.39 180.175 520.069 179.781C522.739 179.397 525.524 178.225 528.415 176.295C531.257 174.384 533.322 172.281 534.618 169.976C535.905 167.671 536.472 165.271 536.308 162.774C536.145 160.277 535.262 157.838 533.667 155.446L526.427 144.662L536.692 137.777L543.972 148.619C546.19 151.932 547.688 155.37 548.437 158.942C549.186 162.514 549.215 166.029 548.504 169.486C547.794 172.953 546.382 176.218 544.25 179.282C542.118 182.355 539.305 185.063 535.79 187.425C532.275 189.778 528.683 191.372 525.015 192.188C521.347 193.014 517.774 193.091 514.307 192.438C510.831 191.775 507.595 190.44 504.589 188.414C501.583 186.388 498.981 183.737 496.791 180.463L489.714 169.918Z" fill="#FF6445"/>
<path d="M513.501 207.688L566.482 186.887L571.254 199.045L518.274 219.845L513.501 207.688ZM517.284 217.339L528.568 212.912L538.815 239.004L527.531 243.431L517.284 217.349V217.339ZM538.815 208.888L549.801 204.576L559.087 228.219L548.101 232.531L538.815 208.888ZM558.991 200.966L570.275 196.539L580.387 222.285L569.103 226.712L558.991 200.966Z" fill="#FF6445"/>
<path d="M528.875 249.097L584.852 238.783L587.224 251.632L531.248 261.946L528.885 249.097H528.875ZM551.673 255.435L563.591 253.236L568.239 278.425L556.321 280.624L551.673 255.435ZM574.807 251.171L586.725 248.972L591.565 275.246L579.647 277.445L574.807 251.18V251.171Z" fill="#FF6445"/>
<path d="M535.838 301.251L547.957 301.347L547.726 329.37L535.607 329.273L535.838 301.251ZM535.915 290.88L592.833 291.351L592.727 304.411L535.809 303.94L535.915 290.88ZM558.953 301.434L570.755 301.53L570.553 326.93L558.751 326.834L558.962 301.434H558.953ZM580.627 301.616L592.746 301.712L592.516 329.37L580.397 329.273L580.627 301.616Z" fill="#FF6445"/>
<path d="M530.835 349.536C531.67 345.282 533.111 341.748 535.156 338.934C537.211 336.111 540.006 333.71 543.559 331.722L550.944 341.642C548.61 342.968 546.699 344.533 545.201 346.319C543.703 348.105 542.714 350.266 542.214 352.801C541.792 354.952 541.878 356.691 542.464 358.016C543.05 359.341 544.049 360.148 545.47 360.426C546.833 360.695 548.024 360.465 549.042 359.744C550.051 359.024 551.011 358.035 551.914 356.777C552.816 355.519 553.748 354.088 554.718 352.494C555.688 350.9 556.754 349.344 557.916 347.836C559.077 346.329 560.441 344.994 562.006 343.841C563.562 342.68 565.368 341.854 567.394 341.364C569.43 340.865 571.859 340.903 574.702 341.45C578.217 342.142 581.117 343.505 583.383 345.56C585.649 347.616 587.186 350.16 587.983 353.185C588.78 356.22 588.819 359.572 588.108 363.25C587.388 366.928 586.043 370.193 584.065 373.054C582.087 375.916 579.696 378.086 576.901 379.575L569.516 369.655C571.552 368.464 573.137 367.177 574.279 365.785C575.422 364.392 576.181 362.75 576.555 360.839C576.901 359.072 576.834 357.622 576.344 356.489C575.854 355.356 574.98 354.664 573.722 354.415C572.464 354.165 571.37 354.405 570.438 355.116C569.507 355.826 568.594 356.825 567.682 358.112C566.779 359.399 565.838 360.83 564.878 362.395C563.917 363.97 562.852 365.506 561.69 367.014C560.518 368.522 559.145 369.847 557.56 370.999C555.976 372.152 554.093 372.958 551.933 373.429C549.772 373.899 547.266 373.861 544.433 373.304C538.92 372.228 534.954 369.597 532.563 365.41C530.162 361.223 529.586 355.932 530.835 349.527V349.536Z" fill="#FF6445"/>
<path d="M522.144 384.934L574.615 405.926L569.766 418.055L517.294 397.062L522.144 384.934ZM569.372 386.845L580.848 391.435L564.225 432.969L552.749 428.378L569.372 386.845Z" fill="#FF6445"/>
<mask id="mask0_1249_55320" style="mask-type:luminance" maskUnits="userSpaceOnUse" x="20" y="19" width="580" height="580">
<path d="M310 598.892C469.874 598.892 599.478 469.288 599.478 309.414C599.478 149.54 469.874 19.9362 310 19.9362C150.126 19.9362 20.522 149.54 20.522 309.414C20.522 469.288 150.126 598.892 310 598.892Z" fill="white"/>
</mask>
<g mask="url(#mask0_1249_55320)">
<path d="M78.6308 427.601C76.8734 392.098 83.0482 380.92 84.3447 358.794C85.6411 336.668 71.3132 318.201 71.3132 318.201C77.7569 320.103 87.8882 323.838 87.8882 323.838C80.7051 302.884 87.9555 285.262 87.9555 285.262C87.3697 300.359 103.445 314.725 171.09 350.794C238.735 386.874 243.354 410.795 243.354 410.795C243.354 410.795 365.41 527.502 303.403 702.395C303.403 702.395 90.3275 663.8 78.6404 427.591L78.6308 427.601Z" fill="#D25839"/>
<path d="M308.396 703C325.077 646.197 331.962 625.099 316.175 535.646C307.061 489.848 266.085 421.166 232.234 388.832C180.031 338.982 95.2923 311.94 90.2698 282.333C79.7352 289.651 81.9727 307.225 83.4804 318.691C74.6551 317.855 69.7575 311.863 69.5366 320.496C69.431 320.621 69.3349 320.746 69.2293 320.871C69.3445 320.909 69.4694 320.957 69.5846 320.996C84.7576 342.276 81.5886 370.798 76.4701 394.969C73.2434 415.184 73.9733 433.007 75.02 453.375C91.4606 586.168 156.945 649.463 271.53 694.597C293.982 703.442 304.661 714.831 308.406 702.981L308.396 703ZM301.405 700.129C177.246 653.63 112.396 603.463 82.6737 464.457C81.3293 458.196 80.6186 445.866 80.6186 439.489C80.6186 424.441 79.0437 409.172 81.6846 394.239C84.7384 371.441 91.5086 346.396 79.764 324.683C83.9221 326.969 90.0586 327.19 89.9625 321.082C89.9625 321.072 89.9817 321.063 89.9913 321.053C89.9817 321.053 89.9721 321.053 89.9625 321.044C88.5893 312.698 85.8332 304.305 87.2928 295.739C112.616 320.141 140.888 334.824 170.466 353.531C239.916 388.65 299.696 483.308 312.093 558.665C320.266 603.3 315.349 654.562 301.405 700.138V700.129Z" fill="black"/>
<g style="mix-blend-mode:multiply" opacity="0.5">
<path d="M152.479 550.531C102.485 476.826 104.684 447.863 99.46 368.349C97.5874 380.824 84.9593 362.011 82.4144 380.929C79.5431 402.191 74.9816 420.869 76.4508 442.313C78.9477 478.814 91.499 516.814 109.889 548.044C123.093 570.486 141.983 605.96 161.516 622.823C187.972 645.66 260.15 697.392 302.97 701.867C304.228 702.002 202.473 624.226 152.479 550.512V550.531Z" fill="#DD593A"/>
</g>
<path d="M200.428 390.263C188.702 390.263 174.816 389.178 156.877 368.33C165.914 402.479 137.056 419.764 144.921 432.805C131.343 430.539 119.127 407.357 103.273 403.938C97.7699 402.757 99.2968 422.943 92.2481 430.875C92.1616 421.906 82.1551 417.085 77.949 405.244C78.7652 385.952 83.3651 375.455 84.3351 358.794C85.6315 336.668 71.3036 318.201 71.3036 318.201C77.7473 320.103 87.8786 323.838 87.8786 323.838C80.6955 302.884 87.9459 285.262 87.9459 285.262C87.3601 300.359 107.997 313.678 175.652 349.748C185.149 354.818 186.023 357.257 193.562 362.03C197.451 370.327 191.535 380.968 200.428 390.254V390.263Z" fill="white"/>
<path d="M102.994 378.125C98.058 363.49 100.622 339.904 80.5226 321.207C77.4976 320.16 74.0693 319.008 71.3132 318.192C71.3132 318.192 85.6411 336.659 84.3447 358.784C83.3748 375.446 78.7748 385.942 77.9586 405.235C82.1648 417.076 92.1713 421.887 92.2577 430.866C94.476 428.369 97.1265 412.197 103.858 406.33C113.644 406.358 133.023 428.58 140.033 430.616C137.911 428.34 111.656 403.804 102.994 378.125Z" fill="#E5E5E6"/>
<path d="M204.096 389.121C200.303 384.732 199.343 380.612 199.554 374.975C199.679 371.71 200.14 368.195 198.795 365.103C196.222 359.207 187.905 353.454 182.508 350.199C164.886 339.559 146.131 330.772 128.414 320.237C118.542 314.369 108.199 308.3 99.8538 300.301C95.4459 296.075 91.9504 289.574 92.0944 283.217C92.1616 280.067 86.2173 282.362 84.5751 285.666C79.5527 295.816 79.9464 308.003 82.5201 319.046C79.6391 318.057 76.7389 317.097 73.8196 316.213C72.5039 315.81 65.4552 316.492 67.6255 319.325C78.4579 333.47 81.166 350.276 79.8888 367.6C79.0533 378.912 77.9585 390.206 77.3728 401.537C77.0366 407.943 79.4278 412.312 82.7409 417.719C85.4394 422.127 89.3479 427.456 89.6648 432.777C89.8473 435.859 94.6393 432.921 95.7724 431.49C99.7481 426.486 100.91 420.129 102.178 414.012C102.648 411.736 102.888 408.98 103.935 406.858C104.377 407.04 104.809 407.222 105.251 407.405C106.336 408.673 109.524 409.835 111.013 410.91C121.653 418.65 129.7 432.066 143.231 434.995C144.902 435.36 149.56 436.445 148.119 433.804C143.923 426.083 152.911 413.301 156.1 406.608C160.459 397.456 162.687 388.093 162.274 378.413C172.79 387.382 184.679 392.501 199.698 392.549C200.706 392.549 201.638 392.251 202.377 391.8C203.971 391.214 205.037 390.196 204.096 389.111V389.121ZM160.546 367.187C159.115 365.564 152.201 365.698 152.979 368.887C156.609 383.743 153.363 396.957 146.554 410.276C143.894 415.481 139.937 421.541 139.774 427.562C134.675 424.259 130.286 419.188 126.186 415.299C120.491 409.892 113.759 403.448 105.721 401.922C100.603 400.952 97.4242 403.237 95.8589 408.029C94.5528 412.024 94.0343 416.307 93.0547 420.417C92.6706 419.716 92.2865 419.015 91.8639 418.305C88.282 412.399 84.796 407.587 85.1705 400.433C85.7947 388.439 86.9855 376.483 87.8306 364.498C88.8389 350.228 86.3901 335.996 79.2934 323.665C81.3197 324.376 83.3363 325.087 85.353 325.826C86.7166 326.325 92.6322 325.98 91.7679 323.281C89.3287 315.627 88.0803 307.167 88.7141 298.947C95.8877 308.675 109.668 315.983 117.975 321.044C134.473 331.098 151.557 340.173 168.574 349.306C175.613 353.089 189.259 359.716 191.622 368.358C192.572 371.835 191.564 375.734 191.689 379.248C191.795 382.331 192.63 384.943 193.994 387.392C180.492 385.423 170.12 378.067 160.546 367.187Z" fill="black"/>
<path d="M440.075 534.714C459.781 544.356 481.359 566.242 496.522 593.38C511.686 620.519 546.017 680.894 553.834 690.18C561.651 699.466 573.982 726.154 584.055 740.779C594.129 755.414 599.516 769.243 595.32 780.738C591.114 792.233 586.783 793.395 586.783 793.395L594.1 806.254C594.1 806.254 585.784 815.127 561.363 824.212C536.933 833.287 514.356 832.768 512.752 830.991C511.148 829.215 508.546 816.308 508.546 816.308C508.546 816.308 497.588 817.307 495.408 812.947C493.238 808.597 483.347 807.031 471.333 739.55C459.32 672.078 442.216 616.437 434.62 601.514C429.963 592.353 411.63 556.888 413.551 539.842C414.761 529.106 432.479 530.979 440.094 534.714H440.075Z" fill="#E5E5E6"/>
<path d="M237.813 535.684C218.107 545.326 196.529 567.211 181.366 594.35C166.202 621.489 131.871 681.864 124.054 691.15C116.237 700.436 101.506 733.433 91.4318 748.068C81.3581 762.703 78.4291 766.199 82.6353 777.703C86.8415 789.198 91.1149 794.374 91.1149 794.374L83.7973 807.233C83.7973 807.233 92.1136 816.106 116.534 825.191C140.965 834.266 163.542 833.747 165.146 831.971C166.74 830.194 169.352 817.288 169.352 817.288C169.352 817.288 180.309 818.286 182.489 813.927C184.659 809.576 194.551 808.011 206.564 740.53C218.578 673.058 235.681 617.417 243.277 602.494C247.935 593.332 266.267 557.868 264.347 540.822C263.137 530.086 245.419 531.958 237.803 535.694L237.813 535.684Z" fill="#E5E5E6"/>
<path d="M171.196 806.378C171.196 806.378 158.135 847.249 183.401 859.983C183.401 859.983 185.447 875.454 186.676 879.574C187.905 883.703 250.892 890.089 271.098 891.779C291.312 893.47 343.265 899.452 404.198 891.779C465.139 884.106 484.048 874.859 484.048 874.859L484.451 856.805C484.451 856.805 502.467 853.904 504.772 841.123C507.076 828.341 515.902 819.333 504.772 785.972C493.641 752.61 431.835 555.361 420.6 534.705C409.364 514.048 259.987 505.184 252.65 526.916C245.313 548.648 174.509 786.413 171.186 806.369L171.196 806.378Z" fill="#E5E5E6"/>
<path d="M552.422 677.955C518.014 621.028 482.108 502.054 390.657 535.867C386.096 538.613 390.446 538.652 395.545 537.019C485.508 508.296 511.263 642.26 551.817 690.977C560.201 702.837 600.813 762.242 592.381 778.568C586.744 791.205 586.754 790.255 591.2 802.72C593.985 816.567 516.708 834.583 513.606 824.576C502.928 819.266 507.681 838.731 524.189 835.274C550.454 834.045 578.13 825.719 598.402 808.52C600.909 803.238 596.127 798.043 592.996 793.078C613.499 764.845 567.471 702.847 552.422 677.955Z" fill="black"/>
<path d="M272.384 535.367C196.471 516.382 166.49 623.678 129.528 676.889C92.6418 748.058 62.3438 766.247 85.7467 796.631C83.999 799.887 81.8382 803.075 80.1289 806.35C79.1301 808.261 79.7447 810.613 81.4829 811.881C104.271 828.485 143.529 843.888 169.342 831.289C171.282 828.437 168.44 828.754 165.53 829.877C142.982 830.972 110.504 824.058 89.8281 809.058C87.8594 807.627 87.3985 804.871 88.8197 802.902C90.6155 800.424 92.5746 798.408 94.5624 796.324C73.7716 770.222 87.7634 758.219 134.656 681.528C162.236 636.421 189.058 565.896 233.703 541.168C239.628 538.776 260.861 535.732 268.514 537.701C271.021 538.527 273.758 537.903 272.384 535.377V535.367Z" fill="black"/>
<path d="M316.895 546.862C333.576 530.575 310.394 620.365 304.843 645.218C304.113 648.483 298.841 652.344 297.372 649.338C297.103 648.79 296.978 648.185 297.084 647.532C297.612 643.989 312.468 571.149 315.397 549.839C315.531 548.879 316.204 547.535 316.895 546.853V546.862Z" fill="#E5E5E6"/>
<path d="M319.171 546.67C319.488 546.373 319.872 546.104 320.16 545.787C320.573 545.335 320.88 545.633 320.275 545.633C320.103 545.633 318.787 545.988 319.037 545.912C317.346 546.449 318.662 545.662 318.681 545.95C318.681 545.94 319.008 546.123 319.104 546.315C319.757 547.621 320.083 548.821 320.218 550.291C320.746 555.909 319.843 561.747 319.046 567.288C316.617 584.276 312.737 601.082 308.876 617.791C307.234 624.898 305.544 631.994 303.883 639.091C303.211 641.972 302.951 645.948 300.963 648.233C300.762 648.464 300.186 649.146 299.946 649.203C300.723 649.011 299.773 648.742 299.6 647.792C299.475 647.148 299.6 647.129 299.629 646.668C299.667 646.063 299.859 645.448 299.965 644.853C302.682 630.64 305.573 616.457 308.329 602.244C310.346 591.844 312.343 581.443 314.235 571.024C315.022 566.674 315.8 562.323 316.53 557.964C317.078 554.679 317.001 549.282 319.171 546.651C320.16 545.451 315.407 546.084 314.629 547.026C312.266 549.887 312.334 554.334 311.748 557.896C311.056 562.074 310.317 566.251 309.558 570.419C307.705 580.665 305.746 590.902 303.768 601.13C300.819 616.38 297.583 631.591 294.798 646.87C294.232 650 295.682 651.806 298.976 651.297C303.777 650.557 306.725 647.302 307.762 642.788C309.433 635.471 311.2 628.182 312.9 620.874C317.126 602.782 321.38 584.593 324.03 566.184C324.587 562.314 325.077 558.425 325.269 554.516C325.394 551.942 325.576 549.081 324.847 546.565C323.396 541.561 317.231 544.519 314.629 547.016C313.803 547.803 315.359 547.851 315.81 547.832C316.857 547.803 318.384 547.39 319.161 546.632L319.171 546.67Z" fill="black"/>
<path d="M348.057 554.324C347.721 552.269 349.21 550.339 351.284 550.175C354.578 549.839 356.21 556.629 356.758 563.024C357.248 568.853 363.701 621.181 365.084 642.26C365.305 645.66 361.166 647.82 358.727 645.448C358.237 644.978 357.891 644.392 357.785 643.662C357.267 640.08 351.342 574.788 348.067 554.324H348.057Z" fill="#E5E5E6"/>
<path d="M350.564 553.652C350.353 549.743 352.388 554.218 352.801 555.505C353.55 557.839 353.906 560.307 354.155 562.736C354.309 564.263 354.453 565.79 354.616 567.317C355.193 572.57 355.817 577.823 356.412 583.076C358.141 598.114 359.86 613.143 361.31 628.211C361.617 631.437 361.915 634.654 362.184 637.891C362.299 639.254 362.433 640.628 362.501 642.001C362.529 642.664 362.683 644.354 361.857 644.69C360.945 645.055 360.426 643.47 360.263 642.884C359.533 640.253 359.658 637.084 359.389 634.376C358.131 621.613 356.892 608.841 355.577 596.088C354.117 581.943 352.792 567.72 350.564 553.661C350.237 551.616 345.205 552.835 345.551 555.006C349.997 582.999 351.956 611.453 354.77 639.639C354.914 641.041 354.991 642.471 355.212 643.864C355.721 647.052 358.746 648.502 361.771 647.993C366.006 647.283 367.763 644.171 367.485 640.176C367.245 636.806 366.947 633.435 366.64 630.074C365.055 613.028 363.077 596.011 361.127 579.004C360.503 573.559 359.812 568.105 359.293 562.65C358.909 558.674 358.64 551.462 354.626 549.148C350.497 546.766 345.32 550.617 345.561 555.006C345.666 556.984 350.698 555.87 350.573 553.661L350.564 553.652Z" fill="black"/>
<g style="mix-blend-mode:multiply">
<path d="M417.661 596.415C418.468 598.172 417.508 600.342 415.52 601.255C413.522 602.177 411.246 601.495 410.44 599.737C409.633 597.98 410.593 595.81 412.581 594.897C414.579 593.975 416.855 594.657 417.661 596.415Z" fill="#416279"/>
</g>
<path d="M399.742 217.041C399.742 217.041 411.774 226.385 418.814 217.041C425.853 207.697 461.759 162.255 466.234 150.002C470.709 137.758 474.925 129.643 482.79 131.275C490.655 132.908 500.978 145.114 509.112 172.262C517.256 199.4 521.107 239.253 516.872 258.681C512.637 278.108 504.138 296.354 500.152 302.25C496.167 308.147 493.094 311.066 498.654 322.542C498.654 322.542 481.964 328.313 451.023 287.605C420.081 246.898 399.732 217.041 399.732 217.041H399.742Z" fill="#DD593A"/>
<path d="M441.535 246.081C441.535 246.081 440.238 240.099 449.841 228.642C459.445 217.176 477.537 187.051 479.89 175.248C482.243 163.446 487.764 161.41 492.124 170.773C496.494 180.136 502.227 213.517 502.822 226.952C503.408 240.387 502.131 269.82 496.58 280.125C489.358 293.521 481.887 299.081 482.78 300.099C488.898 307.061 441.074 250.143 441.525 246.091L441.535 246.081Z" fill="#F8C6A1"/>
<path d="M251.161 221.545C251.161 221.545 211.385 188.52 192.371 172.339C173.356 156.157 155.946 142.175 151.346 145.709C150.511 146.352 149.704 147.044 148.936 147.927C141.618 156.301 141.551 167.191 140.917 183.353C140.168 202.464 139.784 197.009 139.707 206.718C139.563 224.983 139.428 240.876 143.971 260.572C148.647 280.874 150.991 291.015 158.472 297.276C163.763 301.693 170.965 305.602 173.001 313.236C173.625 315.551 173.164 318.384 171.215 322.542C171.215 322.542 257.269 245.582 251.152 221.545H251.161Z" fill="#DD593A"/>
<path d="M218.443 249.75C218.443 249.75 226.587 237.938 214.775 226.952C202.973 215.956 170.399 191.535 166.74 186.244C163.071 180.953 156.666 182.576 155.591 189.096C154.525 195.607 153.257 235.095 154.505 246.494C155.744 257.893 163.071 282.641 169.995 288.787C176.919 294.933 185.466 295.739 185.466 295.739L218.443 249.75Z" fill="#F8C6A1"/>
<path d="M467.588 159.72C468.087 159.297 468.577 158.865 469.028 158.395C470.507 156.829 471.516 154.822 473.139 153.411C473.801 152.835 474.56 152.364 475.165 151.721C478.267 148.465 480.84 141.119 486.948 144.096C488.542 144.873 489.493 146.506 490.712 147.783C492.23 149.368 494.227 150.434 495.773 151.999C496.887 153.132 497.742 154.496 498.587 155.85C500.296 157.559 501.497 160.517 502.774 162.563C504.176 164.819 505.482 167.374 506.548 169.813C507.489 171.974 507.758 174.355 508.219 176.66C509.045 180.761 510.505 184.727 512.531 188.385C512.531 186.071 511.983 183.027 511.436 180.78C510.418 176.65 508.968 172.636 508.113 168.468C506.817 162.169 505.636 156.215 502.611 150.482C499.701 144.989 495.994 139.976 492.681 134.733C491.644 133.09 490.981 131.967 489.502 130.651C486.026 127.559 481.378 127.607 477.095 129.316C474.877 130.2 472.927 131.9 472.034 134.118C471.689 134.973 471.506 135.885 471.189 136.749C470.757 137.93 470.094 138.996 469.47 140.091C465.034 147.86 462.7 157.242 456.525 163.926C451.128 169.775 447.124 177.457 442.562 184.045C434.851 195.185 426.976 206.228 418.823 217.051C418.564 217.397 418.305 217.742 418.18 218.136C419.611 217.627 420.965 215.937 422.069 214.909C425.113 212.048 428.052 209.08 430.981 206.113C434.179 202.867 437.213 199.583 439.902 195.905C442.36 192.544 443.859 187.32 447.239 184.813C448.343 183.997 449.524 183.286 450.6 182.432C457.553 176.814 458.916 167.643 465.447 161.554C466.128 160.92 466.868 160.344 467.588 159.739V159.72Z" fill="#040000"/>
<path d="M480.84 135.683C507.95 144.182 519.945 236.805 513.991 259.315C509.458 289.824 488.494 301.981 491.759 317.443C470.997 314.965 424.326 229.727 409.374 224.445C417.719 227.394 424.796 214.871 428.907 209.791C433.142 204.548 437.031 199.016 440.91 193.504C441.938 192.044 442.966 190.575 443.724 188.971C444.339 187.665 444.771 186.263 445.443 184.986C446.567 182.864 448.228 181.529 450.178 180.242C452.031 179.022 452.751 177.812 454.076 175.93C457.025 171.734 459.954 167.527 462.844 163.292C465.255 159.759 469.105 155.629 470.575 151.605C473.446 143.74 476.922 135.703 480.85 135.703M480.84 131.074C474.195 131.074 470.325 138.814 466.234 150.011C461.759 162.255 425.853 207.707 418.814 217.051C415.068 224.753 401.067 219.116 399.742 217.051C399.742 217.051 420.1 246.907 451.032 287.615C477.191 320.631 489.349 323.243 498.664 322.551C493.094 311.076 496.177 308.156 500.162 302.26C504.147 296.364 512.646 278.118 516.881 258.69C522.979 233.002 512.8 138.055 480.85 131.083L480.84 131.074Z" fill="#040000"/>
<path d="M153.603 149.8C180.501 162.198 234.058 210.012 246.85 223.956C253.36 231.052 194.531 320.948 177.073 310.884C132.956 285.435 134.867 189.461 153.603 149.8ZM147.543 149.8C134.636 171.839 138.631 245.092 142.252 262.772C155.447 313.457 180.578 302.519 171.215 322.542C171.215 322.542 257.269 245.582 251.152 221.545C244.66 218.539 170.744 148.004 153.987 145.162C153.987 145.162 149.79 145.949 147.534 149.8H147.543Z" fill="#040000"/>
<path d="M246.609 223.792C246.609 223.792 286.367 202.464 327.583 203.242C372.574 204.087 411.525 217.013 425.814 229.477C426.794 230.332 433.756 236.488 442.553 244.939C442.553 244.939 451.378 253.418 458.628 260.995C510.735 315.483 519.695 379.959 519.695 379.959C522.288 398.628 538.373 473.84 494.179 498.491C446.893 524.861 402.238 532.89 402.238 532.89C401.72 538.315 321.447 555.476 228.901 524.036C171.551 504.551 127.424 483.721 140.898 402.757C154.381 321.802 210.175 241.942 246.6 223.792H246.609Z" fill="#E5E5E6"/>
<path d="M363.432 524.41C348.297 525.975 333.086 523.219 318.124 520.482C301.415 517.429 284.715 514.365 268.005 511.311C262.359 510.274 256.693 509.237 251.229 507.48C231.36 501.094 203.155 480.159 197.816 475.011C192.486 469.864 185.86 460.693 182.46 458.436C180.78 457.322 176.084 455.017 175.152 453.231C174.672 452.319 183.296 445.568 178.744 443.599C175.652 442.812 173.539 441.458 170.447 440.68C169.976 440.565 169.458 440.392 169.256 439.96C169.093 439.585 169.217 439.153 169.381 438.779C171.042 434.918 175.517 432.095 175.267 427.889C175.104 425.219 169.141 423.269 169.179 420.6C169.208 418.65 175.152 417.325 176.093 415.616C178.994 410.353 179.704 402.671 180.424 396.717C181.49 387.757 197.268 358.448 202.156 340.125C207.044 321.802 211.519 313.659 216.705 300.416C221.891 287.173 254.263 261.955 270.541 250.201C278.79 244.247 290.141 241.107 300.147 239.906C305.198 239.301 310.086 239.426 315.09 238.159C320.919 236.68 326.508 234.375 332.385 233.069C354.299 228.181 376.877 237.525 396.054 249.212C400.884 252.15 405.648 255.281 409.662 259.257C413.138 262.704 415.981 266.709 418.814 270.704C425.593 280.269 432.364 289.833 439.143 299.398C448.833 313.083 458.638 326.969 464.333 342.737C469.317 356.537 470.968 371.278 473.888 385.663C476.807 400.049 485.604 420.984 491.404 424.038C497.204 427.091 485.517 430.155 485.335 433.526C485.152 436.896 493.036 444.031 487.591 443.311C483.798 443.417 478.987 444.329 478.219 448.046C477.95 449.361 478.459 450.101 479.294 451.157C483.549 456.516 483.059 457.236 473.494 461.721C468.779 463.929 459.435 477.787 455.776 481.484C451.042 486.276 446.25 491.106 440.536 494.679C435.254 497.982 429.329 500.104 423.461 502.198C402.661 509.631 385.395 522.134 363.422 524.4L363.432 524.41Z" fill="#DD593A"/>
<path d="M491.404 424.038C488.552 422.54 484.979 416.701 481.734 409.46C436.647 454.461 406.752 416.067 365.007 399.972C339.77 390.244 314.754 392.559 297.938 400.222C276.475 409.998 257.788 424.335 240.838 431.019C213.459 441.804 178.523 411.102 176.814 414.204C175.872 415.913 169.227 418.65 169.198 420.6C169.16 423.279 175.123 425.219 175.287 427.889C175.536 432.085 171.061 434.909 169.4 438.779C169.237 439.153 169.102 439.585 169.275 439.96C169.477 440.402 169.995 440.565 170.466 440.68C173.558 441.468 175.671 442.822 178.763 443.599C183.305 445.568 174.691 452.319 175.171 453.231C176.103 455.018 180.799 457.322 182.479 458.436C185.869 460.693 192.496 469.864 197.835 475.011C203.165 480.159 231.379 501.084 251.248 507.48C256.712 509.237 262.378 510.274 268.025 511.311C284.734 514.365 305.198 531.046 321.908 534.1C336.87 536.837 357.094 535.588 373.429 525.899C392.424 514.634 402.69 509.64 423.49 502.208C429.358 500.114 435.273 497.992 440.565 494.688C446.279 491.116 451.071 486.286 455.805 481.494C459.464 477.796 468.808 463.929 473.523 461.73C483.088 457.255 483.577 456.525 479.323 451.167C478.488 450.11 477.979 449.371 478.248 448.055C479.016 444.339 483.827 443.427 487.62 443.321C493.065 444.041 485.181 436.906 485.364 433.535C485.546 430.165 497.243 427.101 491.433 424.047L491.404 424.038Z" fill="#FBDECA"/>
<g style="mix-blend-mode:multiply">
<path d="M474.445 457.389C469.653 459.416 460.146 472.13 456.429 475.52C451.608 479.909 446.74 484.346 440.93 487.62C435.552 490.645 429.54 492.595 423.567 494.515C402.421 501.334 385.884 509.016 363.547 511.1C348.163 512.531 331.674 513.789 316.453 511.282C299.465 508.478 282.477 505.674 265.499 502.87C259.756 501.919 253.994 500.969 248.444 499.355C228.248 493.497 199.564 474.301 194.138 469.576C188.712 464.851 181.98 456.439 178.533 454.374C177.832 453.951 176.612 453.346 175.354 452.665C175.191 452.914 175.114 453.116 175.171 453.222C176.103 455.008 180.799 457.313 182.479 458.427C185.869 460.683 192.496 469.854 197.835 475.002C203.165 480.149 231.379 501.074 251.248 507.47C256.712 509.227 262.378 510.264 268.025 511.302C284.734 514.355 311.805 532.813 328.505 535.867C343.467 538.603 358.986 532.957 373.419 525.898C393.259 516.199 402.68 509.64 423.481 502.207C429.348 500.114 435.264 497.992 440.555 494.688C446.269 491.116 451.061 486.285 455.795 481.493C459.454 477.796 468.798 463.929 473.513 461.73C480.994 458.225 482.905 457.015 481.359 454.086C480.015 454.989 477.787 455.997 474.464 457.399L474.445 457.389Z" fill="#F8C6A1"/>
</g>
<g style="mix-blend-mode:multiply" opacity="0.57">
<path d="M467.588 351.111C453.75 296.556 402.046 256.664 379.498 243.498C356.96 230.332 313.697 233.453 283.995 243.498C254.292 253.543 215.995 296.152 206.516 316.914C197.038 337.676 187.396 374.725 181.798 398.724C178.955 410.91 174.816 416.739 171.436 419.534C186.244 418.343 191.9 404.073 192.793 398.724C203.069 337.014 242.509 275.659 270.281 261.821C270.281 261.821 296.901 241.837 328.313 242.432C359.725 243.028 390.023 257.826 411.169 278.924C432.316 300.022 463.247 344.331 468.683 393.538C469.806 403.727 481.244 419.937 492.739 424.239C492.825 424.191 492.921 424.143 493.017 424.095C481.628 414.31 480.091 400.318 467.607 351.111H467.588Z" fill="#CC3820"/>
</g>
<g style="mix-blend-mode:multiply">
<path d="M181.807 398.724C187.406 374.725 197.057 337.676 206.526 316.914C216.004 296.152 254.292 253.543 284.004 243.498C313.707 233.453 356.96 230.332 379.508 243.498C402.046 256.664 453.75 296.556 467.598 351.111C480.082 400.318 481.618 414.31 493.008 424.095C494.198 423.433 495.408 422.818 496.657 422.29C490.223 415.059 484.941 404.351 484.288 394.806C479.813 329.667 449.016 286.482 424.854 262.359C400.683 238.236 364.152 225.127 328.246 224.445C292.34 223.764 256.702 246.072 256.702 246.072C224.964 261.888 180.597 328.505 173.875 402.2C173.597 405.283 168.968 414.876 165.597 418.89C167.153 419.284 167.633 419.649 169.198 419.649C169.995 419.649 170.725 419.591 171.455 419.534C174.835 416.739 178.974 410.901 181.817 398.724H181.807Z" fill="#A8BAC3"/>
</g>
<path d="M281.824 307.734C278.972 307.513 275.957 308.175 273.873 310.038C271.789 311.911 270.915 315.128 272.269 317.587C272.845 318.643 273.767 319.478 274.728 320.237C278.069 322.868 282.036 324.626 286.03 326.143C288.057 326.911 290.333 327.631 292.34 326.863C294.001 326.229 295.125 324.693 295.739 323.07C299.283 313.774 290.016 308.358 281.834 307.724L281.824 307.734Z" fill="#CC3820"/>
<path d="M260.678 298.697C260.678 298.697 267.093 302.769 268.409 305.823C269.734 308.876 270.339 312.132 276.447 315.8C282.554 319.469 289.958 320.477 291.85 321.793C293.483 322.926 293.137 322.753 293.338 321.485C293.521 320.362 291.754 317.827 289.622 314.485C288.681 313.006 287.577 312.017 286.751 310.346C285.301 307.388 283.447 304.67 281.565 302.26C278.617 298.495 274.737 297.381 274.737 297.381C274.737 297.381 279.145 302.577 280.201 304.651C281.258 306.735 282.084 310.912 284.936 314.014C287.068 316.338 287.442 316.684 287.442 316.684C287.442 316.684 283.265 316.617 280.115 313.764C276.955 310.912 275.429 310.096 273.902 306.13C272.375 302.164 271.971 300.935 267.391 298.601C262.81 296.268 261.485 297.986 258.431 296.258C255.377 294.529 259.218 297.718 260.669 298.697H260.678Z" fill="#FBDECA"/>
<path d="M374.6 307.734C377.453 307.513 380.468 308.175 382.552 310.038C384.636 311.911 385.51 315.128 384.156 317.587C383.579 318.643 382.658 319.478 381.697 320.237C378.355 322.868 374.389 324.626 370.394 326.143C368.368 326.911 366.092 327.631 364.085 326.863C362.424 326.229 361.3 324.693 360.685 323.07C357.142 313.774 366.409 308.358 374.591 307.724L374.6 307.734Z" fill="#CC3820"/>
<path d="M365.065 322.657C364.469 322.83 363.845 322.494 363.691 321.889C363.106 319.613 364.373 313.755 367.196 310.624C370.586 306.869 372.277 306.649 374.687 302.318C377.097 297.987 376.588 296.325 376.588 296.325C376.588 296.325 377.472 300.512 376.636 303.403C375.801 306.293 375.705 308.137 373.256 310.029C370.807 311.921 369.857 312.929 369.223 315.608C368.589 318.288 369.117 318.605 374.13 314.379C377.203 311.796 379.296 313.803 382.149 312.209C387.008 309.501 387.008 308.041 388.429 304.19C389.889 300.263 397.245 295.883 397.533 293.569C397.533 293.569 395.295 299.782 392.626 304.046C389.956 308.31 391.656 310.029 385.673 313.496C383.435 314.792 381.332 316.031 379.585 317.078C376.271 319.046 372.747 320.573 369.05 321.639L365.074 322.657H365.065Z" fill="#FBDECA"/>
<path d="M198.392 389.005C196.606 389.822 209.263 411.726 234.327 414.454C230.082 416.288 195.396 419.697 198.392 389.005Z" fill="#CC3820"/>
<path d="M195.444 403.525C193.072 405.091 202.329 420.417 222.256 419.092C218.117 421.051 192.419 426.131 195.444 403.525Z" fill="#CC3820"/>
<path d="M461.25 389.005C463.036 389.822 450.379 411.726 425.315 414.454C429.56 416.288 464.246 419.697 461.25 389.005Z" fill="#CC3820"/>
<path d="M464.198 403.525C466.57 405.091 457.313 420.417 437.386 419.092C441.525 421.051 467.223 426.131 464.198 403.525Z" fill="#CC3820"/>
<path d="M310.72 454.729C327.804 448.017 341.085 444.886 347.75 450.792C354.405 456.698 346.55 468.318 336.053 468.347C308.271 468.443 310.72 454.72 310.72 454.72V454.729Z" fill="#F8C6A1"/>
<path d="M247.387 348.365C246.033 348.413 274.939 353.253 289.459 378.557C287.308 375.35 283.995 346.963 247.387 348.365Z" fill="#CC3820"/>
<path d="M414.924 348.365C416.278 348.413 387.373 353.253 372.853 378.557C375.004 375.35 378.317 346.963 414.924 348.365Z" fill="#CC3820"/>
<g style="mix-blend-mode:multiply">
<path d="M522.038 378.644C520.578 369.876 516.871 359.101 511.715 347.424C513.126 351.841 514.192 355.99 514.816 359.744C520.636 394.758 528.731 455.373 484.96 486.285C441.189 517.198 339.05 541.168 339.05 541.168C339.05 541.168 291.389 526.119 234.327 514.336C177.265 502.553 139.524 460.818 152.498 382.946C154.89 368.599 158.664 354.29 163.446 340.375C155.197 360.369 144.451 381.524 140.917 402.767C127.434 483.721 165.684 508.546 221.468 523.834C234.778 527.483 246.955 530.979 260.38 534.1C261.485 534.359 262.57 534.657 263.665 534.964C251.853 535.31 240.137 537.125 228.584 541.59C224.445 543.069 222.342 544.25 225.108 546.43C235.114 554.362 280.057 567.125 301.29 571.763C318.96 575.624 328.304 574.308 338.089 573.838C349.411 573.281 363.125 571.504 407.232 557.733C419.889 553.777 436.618 548.351 456.227 541.388C451.551 538.738 444.07 534.676 434.092 533.552C426.045 532.65 417.517 533.149 409.066 534.157C409.23 533.639 409.345 533.13 409.345 532.63C409.345 532.63 445.626 530.009 491.135 497.867C536.644 465.735 528.088 415.03 522.038 378.634V378.644Z" fill="#A8BAC3"/>
</g>
<path d="M274.833 505.002C274.833 505.002 309.942 515.623 336.812 515.278C371.23 514.836 385.154 507.441 391.665 506.222C391.665 506.222 364.584 518.84 339.05 518.639C313.505 518.437 291.485 513.511 274.833 505.002Z" fill="#040000"/>
<path d="M231.945 354.223C220.854 355.538 212.518 361.857 207.073 367.504L207.035 367.523L206.622 367.955C205.153 369.511 203.366 370.721 201.369 371.48C200.399 371.845 199.333 372.171 198.354 372.305C195.444 372.699 195.377 373.583 198.354 377.405C199.708 379.153 202.79 384.665 207.813 387.911C208.59 388.42 210.165 389.053 210.636 388.881C210.636 388.881 206.382 385.078 207.717 380.074C208.389 377.53 209.493 373.304 217.022 367.35C222.16 363.288 227.653 360.58 234.894 359.716C253.072 357.545 272.605 365.756 283.582 387.594L286.78 394.815C288.172 394.815 287.164 390.187 286.338 387.661C278.406 363.25 254.522 351.553 231.955 354.232L231.945 354.223Z" fill="#231815"/>
<path d="M225.367 360.206C225.367 360.206 208.216 407.664 245.793 410.248C285.368 412.975 285.003 382.043 283.543 385.222C283.543 385.222 274.756 361.108 252.093 358.554C229.429 355.999 225.358 360.206 225.358 360.206H225.367Z" fill="#231815"/>
<path d="M226.433 378.49C222.621 380.171 226.414 403.679 241.721 406.166C255.512 408.404 267.794 402.997 274.612 397.178C278.53 393.836 281.027 382.677 277.935 378.768C277.935 378.768 277.973 390.129 262.042 396.467C253.917 399.694 248.53 399.732 242.038 397.888C231.859 394.998 228.181 385.001 226.433 378.49Z" fill="#A4D6F3"/>
<path d="M239.129 368.685C239.964 376.195 226.971 377.347 227.528 369.799C228.104 361.905 238.514 361.147 239.129 368.685Z" fill="white"/>
<path d="M436.714 360.205C436.714 360.205 453.865 407.664 416.288 410.248C376.713 412.975 377.078 382.043 378.538 385.222C378.538 385.222 387.325 361.108 409.988 358.554C432.652 355.999 436.723 360.205 436.723 360.205H436.714Z" fill="#231815"/>
<path d="M432.075 367.264C436.243 367.283 442.908 393.471 429.867 401.864C418.112 409.422 403.938 406.233 395.353 403.621C390.426 402.123 383.685 392.885 384.953 388.074C384.953 388.074 388.89 399.502 406.012 400.376C413.205 400.74 421.378 399.502 427.552 394.815C435.984 388.42 433.065 373.928 432.075 367.273V367.264Z" fill="#A4D6F3"/>
<path d="M395.257 368.618C387.939 366.707 384.943 379.402 392.482 379.94C400.375 380.497 402.623 370.308 395.257 368.618Z" fill="white"/>
<path d="M430.136 354.223C441.16 355.99 449.563 361.857 455.008 367.504L455.046 367.523L455.459 367.955C456.928 369.511 458.715 370.721 460.712 371.48C461.682 371.844 462.748 372.171 463.728 372.305C466.637 372.699 466.705 373.583 463.728 377.405C462.374 379.152 459.291 384.665 454.268 387.911C453.491 388.42 451.916 389.053 451.445 388.88C451.445 388.88 455.699 385.078 454.364 380.074C453.692 377.53 452.588 373.304 445.059 367.35C439.921 363.288 434.428 360.58 427.187 359.716C409.009 357.545 389.476 365.756 378.499 387.594L375.302 394.815C374.716 394.815 374.658 392.232 375.302 389.716C382.35 362.251 407.232 350.554 430.126 354.232L430.136 354.223Z" fill="#231815"/>
<path d="M350.746 401.71C350.746 407.376 337.792 414.838 332.231 414.838C326.671 414.838 313.716 407.376 313.716 401.71C313.716 396.045 322.004 391.454 332.231 391.454C342.459 391.454 350.746 396.045 350.746 401.71Z" fill="#040000"/>
<path d="M228.584 449.361C219.874 444.253 206.535 445.309 202.608 446.615C199.794 447.556 202.896 448.785 205.642 448.305C209.378 447.863 216.58 449.803 222.112 451.042C225.175 451.724 227.566 452.204 228.92 450.379C229.055 450.206 228.824 449.496 228.584 449.361Z" fill="black"/>
<path d="M228.248 457.889C222.928 459.704 207.534 459.704 206.526 465.514C207.544 466.676 209.8 466.052 210.962 465.629C211.51 465.427 211.337 465.61 210.924 465.629C214.352 464.361 222.774 462.556 224.071 462.326C227.566 461.701 235.71 458.513 228.239 457.879L228.248 457.889Z" fill="black"/>
<path d="M435.273 454.269C436.733 453.606 440.488 452.434 447.056 451.609C453.635 450.783 455.997 450.783 459.781 450.898C460.664 450.927 461.125 448.92 460.453 447.95C456.391 442.111 424.374 453.654 435.264 454.269H435.273Z" fill="black"/>
<path d="M435.024 464.515C443.138 464.842 456.996 472.351 456.439 466.407C452.405 465.303 437.108 459.819 433.526 462.969C433.065 463.372 434.207 464.477 435.024 464.506V464.515Z" fill="black"/>
<path d="M292.417 443.772C286.175 444.8 281.325 441.727 280.192 438.145C279.107 434.697 280.537 432.988 280.537 432.988C284.062 442.658 294.961 439.835 306.648 435.955C312.391 434.054 318.854 432.978 323.675 430.904C327.401 429.291 329.542 424.633 332.212 426.064C341.057 430.827 322.119 435.466 306.648 439.23C300.685 440.68 295.855 443.215 292.417 443.772Z" fill="#040000"/>
<path d="M334.536 428.244H329.927C331.108 425.017 326.498 410.219 334.536 413.724V428.244Z" fill="#040000"/>
<path d="M372.123 444.252C382.907 446.087 387.257 442.447 387.286 437.367C387.305 433.756 386.672 433.603 386.672 433.603C383.147 443.273 371.787 441.583 360.1 437.713C358.506 437.185 353.57 435.408 352.023 434.87C347.99 433.468 344.773 432.412 341.287 430.904C337.561 429.291 335.42 424.633 332.75 426.064C328.044 428.599 330.877 430.241 336.764 432.719C340.557 434.313 345.512 436.829 350.881 438.251C352.84 438.769 355.423 439.643 357.363 440.114C363.326 441.564 368.685 443.695 372.123 444.252Z" fill="#040000"/>
<path d="M298.111 455.93L296.229 454.989C289.449 451.599 289.094 443.158 289.075 442.802L289.036 441.823L299.725 439.662L299.043 441.583C297.189 446.826 297.871 453.769 297.881 453.836L298.092 455.92L298.111 455.93ZM291.485 443.686C291.735 445.462 292.599 449.284 295.461 451.733C295.403 449.505 295.49 446.019 296.315 442.706L291.485 443.676V443.686Z" fill="#040000"/>
<path d="M369.415 454.653C369.415 454.586 370.106 447.642 368.253 442.399L367.571 440.479L378.259 442.639L378.221 443.619C378.211 443.974 377.846 452.415 371.067 455.805L369.184 456.746L369.396 454.662L369.415 454.653ZM370.99 443.523C371.816 446.836 371.902 450.322 371.844 452.55C374.716 450.101 375.57 446.279 375.82 444.502L370.99 443.532V443.523Z" fill="#040000"/>
<path d="M291.485 443.686C291.735 445.462 292.599 449.284 295.461 451.733C295.403 449.505 295.49 446.019 296.316 442.706L291.485 443.676V443.686Z" fill="white"/>
<path d="M370.99 443.523C371.816 446.836 371.902 450.322 371.844 452.55C374.716 450.101 375.57 446.279 375.82 444.502L370.99 443.532V443.523Z" fill="white"/>
<path d="M495.485 421.839C478.228 415.03 479.458 369.444 470.594 343.899C448.727 294.203 409.556 241.145 352.465 232.349C327.295 228.93 302.692 233.012 280.269 242.596C243.162 258.45 216.58 290.294 200.332 327.228C187.588 356.201 181.193 382.658 179.224 395.689C178.264 402.066 175.085 412.572 167.931 415.971C155.6 421.128 165.722 421.128 169.448 429.012C168.103 433.891 155.821 439.509 165.184 442.342C167.383 442.802 171.926 445.28 174.086 445.779C167.767 453.001 166.25 453.894 172.924 457.553C174.403 458.369 175.786 459.378 176.986 460.559C201.33 484.615 228.748 504.647 262.695 515.585C291.495 524.862 302.317 531.469 339.059 541.158C339.655 541.043 357.19 535.079 370.999 529.97C384.818 524.862 404.111 510.534 419.371 505.578C437.05 499.797 454.72 492.71 465.667 477.105C469.73 472.428 475.895 464.736 481.445 461.721C486.679 459.954 493.641 461.98 487.956 456.247C478.593 447.796 488.974 446.941 495.485 445.251C498.174 444.55 489.608 436.349 489.378 433.449C496.599 426.189 503.187 425.776 495.485 421.839ZM481.129 455.738C468.231 463.113 459.761 480.802 442.389 488.005C417.728 502.361 399.742 509.343 369.616 526.705C369.616 526.705 345.657 538.316 334.536 535.387C323.416 532.458 288.345 514.941 253.677 506.558C248.348 505.271 243.133 503.504 238.197 501.132C215.207 490.108 198.45 469.374 179.57 453.491C189.211 442.85 185.812 444.531 173.462 438.155C179.224 431.509 182.297 429.032 172.002 421.397C179.637 419.063 184.755 409.816 185.447 402.728C187.003 387.19 191.583 372.056 197.095 357.718C205.758 336.62 213.92 315.215 225.617 295.432C244.285 275.141 266.229 253.14 292.926 244.516C326.863 234.039 368.454 233.53 397.302 256.645C429.252 283.179 456.324 317.683 466.09 358.535C471.093 379.383 473.167 412.629 490.396 425.171C482.713 430.789 481.983 433.17 487.236 440.968C478.862 442.428 474.781 446.058 481.129 455.728V455.738Z" fill="#040000"/>
<path d="M283.543 536.424C259.555 532.544 215.063 520.991 190.757 507.768C161.064 491.615 140.936 465.447 143.98 427.178C153.574 341.431 193.033 245.256 279.5 212.97C302.961 204.817 328.851 205.383 353.301 208.802C361.944 208.715 372.046 215.438 379.748 209.897C381.448 208.293 381.015 206.603 378.691 206.123C328.092 194.071 274.555 199.314 232.954 231.734C175.776 272.336 96.3582 440.411 161.429 496.59C179.166 514.653 219.327 525.217 242.96 530.988C286.482 541.619 283.534 536.424 283.534 536.424H283.543Z" fill="black"/>
<path d="M529.74 437.962C525.601 357.728 503.936 301.559 436.339 237.218C431.067 232.195 394.489 204.73 394.028 217.301C463.401 249.452 507.758 325.586 520.914 397.802C525.889 423.529 523.536 452.386 509.055 476.241C481.935 515.911 422.434 519.705 375.647 539.631C374.38 540.169 369.405 542.109 372.046 543.837C374.447 545.076 385.212 543.693 385.452 540.342C385.423 540.246 385.375 540.179 385.327 540.102C439.278 523.421 530.066 512.06 529.74 437.972V437.962Z" fill="black"/>
</g>
</svg>
