<svg width="30" height="30" viewBox="0 0 30 30" fill="none" xmlns="http://www.w3.org/2000/svg">
<path d="M15 30C23.2843 30 30 23.2843 30 15C30 6.71573 23.2843 0 15 0C6.71573 0 0 6.71573 0 15C0 23.2843 6.71573 30 15 30Z" fill="white"/>
<path d="M15 29.6624C23.098 29.6624 29.6628 23.0977 29.6628 14.9997C29.6628 6.90165 23.098 0.336914 15 0.336914C6.90199 0.336914 0.33725 6.90165 0.33725 14.9997C0.33725 23.0977 6.90199 29.6624 15 29.6624Z" fill="#231815"/>
<path d="M4.09447 13.7758L1.38765 13.2308L1.47522 12.7972L2.07053 12.7217L4.21977 13.1544L4.09494 13.7758H4.09447ZM4.43591 12.0789L2.14273 13.1125L1.47522 12.7976L3.76933 11.7607L4.43591 12.0789ZM4.43591 12.0789L3.83501 12.1241L1.69741 11.6937L1.82225 11.0723L4.52907 11.6173L4.43591 12.0789Z" fill="#A4D6F3"/>
<path d="M4.65577 11.2908L2.12689 10.1827L2.38122 9.60226L4.9101 10.7104L4.65577 11.2908ZM2.86706 9.95814L2.32859 9.72197L2.86706 8.49316L3.40554 8.72933L2.86706 9.95814ZM3.82989 10.3802L3.30539 10.1505L3.79961 9.02232L4.32412 9.25197L3.82989 10.3806V10.3802ZM4.85747 10.8301L4.31899 10.594L4.86445 9.34886L5.40293 9.58502L4.85747 10.8301Z" fill="#A4D6F3"/>
<path d="M5.8352 8.87039L3.17496 7.78645L3.56437 7.2913L5.58506 8.15537L5.41876 8.36685L4.09866 6.61215L4.41168 6.21434L6.43003 7.08122L6.26141 7.29549L4.94783 5.5324L5.33538 5.04004L7.01043 7.37607L6.69322 7.77947L4.68045 6.91213L4.8379 6.71183L6.15474 8.46421L5.8352 8.87039Z" fill="#A4D6F3"/>
<path d="M6.83809 4.59293L6.5041 4.09498L8.30586 2.88574L8.63984 3.38369L6.83809 4.59293ZM8.67757 5.96148L7.14972 3.68507L7.67608 3.33199L9.20394 5.6084L8.67757 5.96148Z" fill="#A4D6F3"/>
<path d="M9.83464 5.15953L9.73636 2.23238L10.3065 2.00879L12.2145 4.22651L11.5949 4.46966L10.0722 2.57382L10.2832 2.4909L10.4449 4.92056L9.83511 5.15953H9.83464ZM10.2119 4.49295L10.0103 3.97823L11.3019 3.47143L11.5036 3.98615L10.2119 4.49295Z" fill="#A4D6F3"/>
<path d="M12.439 4.24274L11.8674 1.54151L12.4874 1.41016L13.059 4.11139L12.439 4.24274Z" fill="#A4D6F3"/>
<path d="M13.4624 4.01233L13.2979 1.25613L13.9305 1.2184L14.0949 3.9746L13.4624 4.01233ZM13.9058 2.99873L13.8746 2.47795L14.3693 2.44861C14.4303 2.44488 14.4858 2.42811 14.5347 2.39783C14.5836 2.36755 14.6218 2.32377 14.6493 2.26601C14.6763 2.20825 14.6879 2.14071 14.6833 2.06292C14.6786 1.9828 14.659 1.91619 14.6255 1.86355C14.5915 1.81091 14.5486 1.77178 14.496 1.74663C14.4438 1.72101 14.387 1.7103 14.3255 1.71402L13.8308 1.74337L13.8001 1.22632L14.401 1.19045C14.5635 1.18067 14.7112 1.20722 14.8435 1.26918C14.9763 1.33159 15.0839 1.42662 15.1672 1.55425C15.2506 1.68188 15.2977 1.83933 15.3088 2.02565C15.3196 2.20965 15.2916 2.36988 15.2241 2.50683C15.1565 2.64378 15.0606 2.75138 14.9367 2.8301C14.8123 2.90883 14.6693 2.95308 14.5067 2.96286L13.9058 2.99873Z" fill="#A4D6F3"/>
<path d="M15.6251 3.91929L15.9959 1.18359L16.6238 1.26884L16.253 4.00454L15.6251 3.91929ZM16.1235 3.98684L16.2027 3.40411L17.5498 3.58671L17.4707 4.16943L16.1235 3.98684ZM16.274 2.87541L16.3509 2.30806L17.5717 2.47342L17.4949 3.04078L16.274 2.87541ZM16.4156 1.83386L16.4948 1.25114L17.8242 1.4314L17.745 2.01413L16.4156 1.83386Z" fill="#A4D6F3"/>
<path d="M17.78 4.28518L18.5504 1.63379L19.1587 1.81033L18.3883 4.46172L17.78 4.28518Z" fill="#A4D6F3"/>
<path d="M20.4868 5.45083C20.3195 5.35813 20.1826 5.24028 20.0755 5.09775C19.9683 4.95521 19.8929 4.79823 19.8491 4.62681C19.8053 4.45539 19.796 4.27745 19.8216 4.09253C19.8472 3.90807 19.9096 3.72594 20.0093 3.5466C20.1076 3.36959 20.2273 3.22146 20.3689 3.10268C20.5105 2.9839 20.6652 2.89819 20.8333 2.84602C21.0015 2.79385 21.1734 2.77522 21.3504 2.79012C21.5269 2.80503 21.6988 2.85906 21.866 2.95176C22.0393 3.04818 22.1786 3.16464 22.2834 3.30158C22.3882 3.43853 22.4641 3.58852 22.5116 3.75109L21.9117 3.95698C21.8935 3.86382 21.8563 3.77764 21.7999 3.69892C21.7435 3.6202 21.6653 3.55266 21.5642 3.49676C21.4775 3.44878 21.3872 3.42037 21.294 3.41105C21.2004 3.4022 21.1105 3.41384 21.0238 3.44598C20.9372 3.47813 20.8552 3.5289 20.7774 3.59877C20.6996 3.66864 20.6316 3.75575 20.5739 3.85962C20.5133 3.96862 20.4742 4.07436 20.456 4.17731C20.4379 4.28025 20.4383 4.37667 20.457 4.46751C20.4756 4.55787 20.5124 4.64079 20.5678 4.71625C20.6233 4.79171 20.6955 4.85366 20.784 4.90304C20.8869 4.96033 20.987 4.99294 21.0839 5.00039C21.1808 5.00831 21.2759 4.9962 21.369 4.96499L21.5134 5.57986C21.3481 5.62458 21.1813 5.63948 21.0127 5.62458C20.844 5.60967 20.6689 5.55191 20.4872 5.45129L20.4868 5.45083Z" fill="#A4D6F3"/>
<path d="M22.3565 6.83294C22.2135 6.70251 22.1064 6.55531 22.0351 6.39228C21.9639 6.22925 21.9271 6.0583 21.9247 5.88036C21.9224 5.70242 21.955 5.52588 22.0225 5.35027C22.0901 5.17465 22.1921 5.01209 22.3286 4.86256C22.4651 4.71304 22.6165 4.59705 22.7823 4.51507C22.9486 4.43309 23.12 4.38418 23.2975 4.36834C23.4749 4.3525 23.6473 4.37393 23.815 4.43169C23.9827 4.48991 24.1378 4.58401 24.2808 4.71443C24.4238 4.84486 24.5319 4.99113 24.605 5.1523C24.6781 5.31347 24.7149 5.48349 24.7154 5.66143C24.7154 5.83937 24.6823 6.01544 24.6148 6.18919C24.5472 6.36294 24.4452 6.52457 24.3087 6.6741C24.1723 6.82362 24.0204 6.94007 23.8536 7.02299C23.6869 7.10637 23.5145 7.15574 23.3375 7.17111C23.1601 7.18695 22.9877 7.16646 22.8205 7.11056C22.6528 7.0542 22.4986 6.96197 22.3575 6.83294H22.3565ZM22.7716 6.36806C22.8745 6.46215 22.9872 6.51945 23.1107 6.54041C23.2336 6.56137 23.3571 6.54553 23.4801 6.4929C23.603 6.44026 23.72 6.35315 23.8303 6.23251C23.9109 6.14447 23.9724 6.05317 24.0157 5.95861C24.0586 5.86452 24.0814 5.76996 24.0842 5.67587C24.087 5.58177 24.0698 5.49234 24.0325 5.40709C23.9952 5.32185 23.938 5.24453 23.8616 5.17465C23.7586 5.08103 23.6464 5.02327 23.5252 5.00231C23.4037 4.98134 23.2812 4.99578 23.1573 5.04609C23.0334 5.0964 22.9169 5.18071 22.8084 5.29996C22.7245 5.39219 22.6602 5.48582 22.6165 5.58084C22.5727 5.67633 22.5494 5.77089 22.5466 5.86498C22.5438 5.95908 22.5615 6.04898 22.5997 6.13469C22.6379 6.2204 22.6956 6.29865 22.772 6.36852L22.7716 6.36806Z" fill="#A4D6F3"/>
<path d="M23.4801 7.85205L25.7723 6.31348L26.1254 6.83938L23.8332 8.37841L23.4801 7.85205ZM23.7172 8.20466L24.2151 7.87068L24.5524 8.37329C24.6302 8.48881 24.7233 8.57405 24.8319 8.62902C24.9404 8.68398 25.0596 8.70215 25.1896 8.68305C25.3191 8.66442 25.4542 8.60759 25.5944 8.51396C25.7323 8.42126 25.8324 8.31925 25.8953 8.20746C25.9577 8.09566 25.9852 7.97921 25.9773 7.8581C25.9694 7.73699 25.9265 7.61867 25.8492 7.50269L25.498 6.97958L25.9959 6.6456L26.349 7.1715C26.4566 7.3322 26.5293 7.49896 26.5656 7.67224C26.6019 7.84552 26.6033 8.01601 26.5689 8.1837C26.5344 8.35186 26.4659 8.51023 26.3625 8.65883C26.2591 8.80789 26.1226 8.93925 25.9521 9.05383C25.7816 9.16796 25.6074 9.24528 25.4295 9.28488C25.2515 9.32494 25.0783 9.32866 24.9101 9.29699C24.7415 9.26485 24.5845 9.2001 24.4387 9.10181C24.2929 9.00353 24.1667 8.87496 24.0605 8.71612L23.7172 8.20466Z" fill="#A4D6F3"/>
<path d="M24.871 10.0363L27.4408 9.02734L27.6724 9.61706L25.1025 10.626L24.871 10.0363ZM25.0545 10.5044L25.6018 10.2897L26.0988 11.5553L25.5515 11.77L25.0545 10.5049V10.5044ZM26.0984 10.0945L26.6313 9.88537L27.0817 11.0322L26.5488 11.2413L26.0984 10.0945ZM27.077 9.71022L27.6244 9.49548L28.1149 10.7443L27.5675 10.9591L27.077 9.71022Z" fill="#A4D6F3"/>
<path d="M25.6167 12.0452L28.3319 11.5449L28.447 12.1682L25.7318 12.6685L25.6172 12.0452H25.6167ZM26.7226 12.3526L27.3006 12.246L27.5261 13.4678L26.948 13.5745L26.7226 12.3526ZM27.8447 12.1458L28.4228 12.0391L28.6575 13.3136L28.0795 13.4203L27.8447 12.1463V12.1458Z" fill="#A4D6F3"/>
<path d="M25.954 14.5749L26.5418 14.5795L26.5307 15.9388L25.9428 15.9341L25.954 14.5749ZM25.9582 14.0723L28.719 14.0951L28.7139 14.7286L25.9531 14.7058L25.9582 14.0723ZM27.0757 14.5842L27.6481 14.5888L27.6384 15.8209L27.0659 15.8163L27.0761 14.5842H27.0757ZM28.127 14.593L28.7148 14.5977L28.7037 15.9392L28.1158 15.9346L28.127 14.593Z" fill="#A4D6F3"/>
<path d="M25.7113 16.9168C25.7518 16.7105 25.8217 16.539 25.9209 16.4026C26.0206 16.2656 26.1561 16.1492 26.3285 16.0527L26.6867 16.5339C26.5735 16.5982 26.4808 16.6741 26.4081 16.7608C26.3355 16.8474 26.2875 16.9522 26.2633 17.0752C26.2428 17.1795 26.247 17.2638 26.2754 17.3281C26.3038 17.3924 26.3522 17.4315 26.4212 17.445C26.4873 17.4581 26.5451 17.4469 26.5945 17.412C26.6434 17.377 26.69 17.3291 26.7337 17.268C26.7775 17.207 26.8227 17.1376 26.8698 17.0603C26.9168 16.983 26.9685 16.9075 27.0249 16.8344C27.0812 16.7612 27.1474 16.6965 27.2233 16.6406C27.2988 16.5842 27.3863 16.5442 27.4846 16.5204C27.5834 16.4962 27.7012 16.498 27.8391 16.5246C28.0096 16.5581 28.1503 16.6243 28.2602 16.724C28.3701 16.8236 28.4447 16.9471 28.4833 17.0938C28.522 17.241 28.5238 17.4036 28.4889 17.582C28.454 17.7604 28.3888 17.9188 28.2928 18.0576C28.1968 18.1964 28.0809 18.3017 27.9453 18.3739L27.5871 17.8927C27.6859 17.8349 27.7627 17.7725 27.8181 17.705C27.8736 17.6374 27.9104 17.5578 27.9285 17.4651C27.9453 17.3794 27.942 17.309 27.9183 17.2541C27.8945 17.1991 27.8521 17.1656 27.7911 17.1534C27.7301 17.1413 27.677 17.153 27.6318 17.1874C27.5866 17.2219 27.5424 17.2704 27.4981 17.3328C27.4543 17.3952 27.4087 17.4646 27.3621 17.5405C27.3155 17.6169 27.2638 17.6915 27.2075 17.7646C27.1506 17.8377 27.084 17.902 27.0072 17.9579C26.9303 18.0138 26.839 18.0529 26.7342 18.0757C26.6294 18.0986 26.5078 18.0967 26.3704 18.0697C26.103 18.0175 25.9107 17.8899 25.7947 17.6868C25.6782 17.4837 25.6503 17.227 25.7108 16.9163L25.7113 16.9168Z" fill="#A4D6F3"/>
<path d="M25.2902 18.6338L27.8354 19.652L27.6001 20.2404L25.055 19.2221L25.2902 18.6338ZM27.581 18.7265L28.1377 18.9491L27.3314 20.9638L26.7747 20.7411L27.581 18.7265Z" fill="#A4D6F3"/>
<mask id="mask0_1126_2897" style="mask-type:luminance" maskUnits="userSpaceOnUse" x="0" y="0" width="30" height="30">
<path d="M15 29.0124C22.7548 29.0124 29.0414 22.7259 29.0414 14.9711C29.0414 7.21622 22.7548 0.929688 15 0.929688C7.24517 0.929688 0.958633 7.21622 0.958633 14.9711C0.958633 22.7259 7.24517 29.0124 15 29.0124Z" fill="white"/>
</mask>
<g mask="url(#mask0_1126_2897)">
<path d="M3.0408 19.2025C2.95416 17.4469 3.25926 16.8944 3.32354 15.8002C3.38736 14.706 2.67886 13.7935 2.67886 13.7935C2.99748 13.8876 3.49822 14.0725 3.49822 14.0725C3.14281 13.0366 3.50148 12.165 3.50148 12.165C3.4726 12.9117 4.26727 13.6216 7.61179 15.4052C10.9563 17.1888 11.1845 18.372 11.1845 18.372C11.1845 18.372 17.2191 24.1419 14.1532 32.7892C14.1532 32.7892 3.6184 30.8808 3.0408 19.2025Z" fill="#D25839"/>
<path d="M14.401 32.8189C15.2259 30.0105 15.5664 28.9671 14.7852 24.5447C14.3348 22.2804 12.309 18.8847 10.6349 17.286C8.05383 14.8214 3.86388 13.4845 3.61607 12.0205C3.09529 12.3824 3.20615 13.2512 3.28022 13.8181C2.84422 13.7766 2.60153 13.4804 2.59082 13.9075C2.58569 13.9136 2.58104 13.9201 2.57591 13.9261C2.58197 13.9285 2.58756 13.9303 2.59361 13.9327C3.34357 14.9849 3.18752 16.3949 2.93365 17.5902C2.77388 18.5894 2.81021 19.4707 2.86192 20.4777C3.67476 27.0429 6.9126 30.1726 12.5778 32.4039C13.6878 32.8413 14.2156 33.4044 14.401 32.8184V32.8189ZM14.0553 32.6773C7.91642 30.3785 4.71025 27.8981 3.24062 21.0255C3.17448 20.7158 3.13908 20.106 3.13908 19.7911C3.13908 19.0472 3.06082 18.2926 3.19218 17.5539C3.3431 16.4271 3.67755 15.1885 3.09715 14.1148C3.30258 14.228 3.60628 14.2387 3.60163 13.9368C3.60163 13.9364 3.60256 13.9359 3.60302 13.9355C3.60256 13.9355 3.60209 13.9355 3.60163 13.935C3.53408 13.5223 3.39713 13.1077 3.4698 12.6838C4.7219 13.8903 6.11933 14.6165 7.58197 15.5411C11.0155 17.2772 13.9715 21.9576 14.5845 25.6832C14.9883 27.8902 14.7457 30.4246 14.0558 32.6778L14.0553 32.6773Z" fill="black"/>
<g style="mix-blend-mode:multiply" opacity="0.5">
<path d="M6.69228 25.2798C4.22069 21.6353 4.32922 20.2039 4.07117 16.2725C3.97847 16.8892 3.35429 15.959 3.22805 16.8948C3.08644 17.9456 2.86053 18.8693 2.93319 19.9295C3.05663 21.7341 3.67756 23.6132 4.58635 25.1573C5.23942 26.2669 6.1729 28.0206 7.13899 28.8544C8.44698 29.9836 12.0155 32.5409 14.1327 32.7626C14.1946 32.7691 9.16386 28.9239 6.69228 25.2794V25.2798Z" fill="#DD593A"/>
</g>
<path d="M9.06278 17.3565C8.48331 17.3565 7.79624 17.3025 6.90934 16.2721C7.35605 17.9602 5.92928 18.8149 6.31823 19.4596C5.647 19.3478 5.04284 18.2015 4.25935 18.0324C3.98732 17.9737 4.06278 18.9719 3.71435 19.3641C3.70969 18.9202 3.21547 18.6826 3.00725 18.0971C3.04778 17.1431 3.27509 16.6242 3.32307 15.8002C3.38689 14.706 2.67839 13.7935 2.67839 13.7935C2.997 13.8876 3.49775 14.0725 3.49775 14.0725C3.14234 13.0366 3.50101 12.165 3.50101 12.165C3.47213 12.9117 4.49272 13.5699 7.83723 15.3535C8.30677 15.6041 8.34962 15.7248 8.72274 15.9609C8.91511 16.3713 8.62259 16.8972 9.06231 17.3565H9.06278Z" fill="white"/>
<path d="M4.24537 16.757C4.00129 16.0336 4.12799 14.8672 3.13442 13.943C2.98489 13.8913 2.81534 13.8345 2.67932 13.7939C2.67932 13.7939 3.38782 14.7069 3.324 15.8007C3.27602 16.6242 3.04871 17.1436 3.00818 18.0976C3.2164 18.6831 3.71109 18.9206 3.71528 19.3646C3.82521 19.2411 3.95611 18.4413 4.28869 18.1511C4.7722 18.153 5.73037 19.2514 6.07694 19.352C5.97213 19.2393 4.67392 18.0268 4.24584 16.7565L4.24537 16.757Z" fill="#E5E5E6"/>
<path d="M9.24398 17.3004C9.05626 17.0833 9.00921 16.8798 9.01946 16.6007C9.02552 16.4391 9.04834 16.2658 8.98173 16.1126C8.85457 15.821 8.44326 15.5368 8.17681 15.3757C7.30575 14.8493 6.37786 14.4152 5.50213 13.8944C5.01397 13.6042 4.50297 13.3042 4.09027 12.9087C3.87227 12.7 3.69945 12.3782 3.70644 12.0642C3.71016 11.9086 3.41577 12.0223 3.33472 12.1853C3.08645 12.687 3.10601 13.2898 3.23318 13.8357C3.09064 13.7868 2.94717 13.7393 2.80277 13.6955C2.73755 13.6754 2.38913 13.709 2.49673 13.8492C3.03195 14.5484 3.1661 15.3794 3.10275 16.236C3.06129 16.7954 3.00726 17.3539 2.97838 17.9143C2.96207 18.2311 3.07992 18.4467 3.24389 18.7146C3.37758 18.9326 3.57089 19.1958 3.58579 19.4589C3.59464 19.6113 3.83174 19.4659 3.8881 19.3956C4.08468 19.1478 4.14244 18.8338 4.20485 18.5315C4.22814 18.4193 4.23979 18.2828 4.29149 18.1775C4.31339 18.1863 4.33482 18.1957 4.35671 18.2045C4.41028 18.2674 4.56819 18.3247 4.64132 18.3778C5.16722 18.7607 5.56548 19.424 6.23439 19.5684C6.31683 19.5861 6.54695 19.6401 6.47614 19.5092C6.26886 19.1273 6.71324 18.4952 6.87068 18.1645C7.08635 17.7122 7.19675 17.2491 7.17579 16.7703C7.69563 17.2137 8.28348 17.4667 9.02598 17.4695C9.07583 17.4695 9.12147 17.4546 9.15827 17.4322C9.237 17.4029 9.28963 17.353 9.24305 17.2994L9.24398 17.3004ZM7.09101 16.2155C7.02021 16.1349 6.6783 16.1419 6.71697 16.2998C6.89677 17.0344 6.73606 17.6879 6.39928 18.3461C6.26746 18.6037 6.07182 18.9032 6.0639 19.2009C5.8119 19.0374 5.59483 18.7868 5.3922 18.5944C5.11085 18.327 4.7778 18.0084 4.38046 17.9329C4.12753 17.885 3.97009 17.9982 3.89276 18.2348C3.82801 18.4323 3.80239 18.6442 3.75442 18.8473C3.73532 18.8124 3.71669 18.7779 3.69526 18.743C3.51825 18.4509 3.3459 18.2129 3.36407 17.8593C3.39481 17.2659 3.45397 16.6753 3.49543 16.0828C3.54527 15.377 3.42416 14.6737 3.0734 14.0639C3.17355 14.0989 3.2737 14.1343 3.37292 14.1706C3.44046 14.1953 3.73299 14.1785 3.69013 14.0448C3.56949 13.6661 3.50754 13.2483 3.53921 12.8416C3.89416 13.3228 4.57564 13.6838 4.98555 13.934C5.80118 14.431 6.64616 14.88 7.48741 15.3314C7.83584 15.5182 8.51033 15.8457 8.62678 16.2733C8.67383 16.4452 8.62352 16.638 8.63005 16.8117C8.63564 16.9645 8.67663 17.0936 8.7437 17.2142C8.0762 17.1173 7.56334 16.7531 7.09008 16.2155H7.09101Z" fill="black"/>
<path d="M20.9111 24.498C21.8851 24.9746 22.9523 26.0571 23.7018 27.3986C24.4513 28.7402 26.1487 31.7256 26.5353 32.1844C26.9219 32.6432 27.5317 33.9628 28.0296 34.6862C28.5276 35.4096 28.7945 36.0934 28.5863 36.6622C28.3785 37.231 28.1638 37.2882 28.1638 37.2882L28.5252 37.9241C28.5252 37.9241 28.1139 38.3629 26.9066 38.8119C25.6987 39.261 24.5822 39.2349 24.503 39.1473C24.4238 39.0597 24.2948 38.4211 24.2948 38.4211C24.2948 38.4211 23.7526 38.4705 23.6454 38.2548C23.5383 38.0396 23.0492 37.9623 22.4548 34.6261C21.8609 31.29 21.015 28.5394 20.6396 27.8011C20.409 27.3483 19.503 25.5946 19.598 24.7519C19.6581 24.2214 20.5338 24.3141 20.9102 24.498H20.9111Z" fill="#E5E5E6"/>
<path d="M10.9107 24.5459C9.93665 25.0224 8.86948 26.1049 8.11999 27.4465C7.3705 28.788 5.67309 31.7734 5.28647 32.2322C4.89985 32.691 4.17132 34.3227 3.67337 35.0461C3.17542 35.7695 3.03055 35.9428 3.2383 36.5111C3.44605 37.0799 3.65753 37.3351 3.65753 37.3351L3.29606 37.971C3.29606 37.971 3.70737 38.4097 4.91475 38.8588C6.1226 39.3078 7.23914 39.2817 7.31833 39.1942C7.39752 39.1066 7.52655 38.468 7.52655 38.468C7.52655 38.468 8.06875 38.5173 8.17589 38.3017C8.28302 38.0865 8.77212 38.0092 9.36649 34.673C9.9604 31.3369 10.8063 28.5863 11.1818 27.848C11.4123 27.3952 12.3183 25.6414 12.2233 24.7988C12.1632 24.2682 11.2875 24.3609 10.9111 24.5449L10.9107 24.5459Z" fill="#E5E5E6"/>
<path d="M7.61738 37.9299C7.61738 37.9299 6.9713 39.9511 8.22106 40.5804C8.22106 40.5804 8.32215 41.3452 8.38317 41.5493C8.44419 41.7533 11.5581 42.0691 12.5573 42.153C13.5564 42.2363 16.1254 42.5321 19.1382 42.153C22.1511 41.7738 23.086 41.3164 23.086 41.3164L23.1055 40.4239C23.1055 40.4239 23.9962 40.2804 24.1103 39.6483C24.2244 39.0162 24.6604 38.5709 24.1103 36.9219C23.5602 35.2725 20.504 25.5203 19.9488 24.4992C19.3935 23.4782 12.0076 23.0394 11.6448 24.114C11.2819 25.1886 7.78134 36.9443 7.61691 37.9309L7.61738 37.9299Z" fill="#E5E5E6"/>
<path d="M26.4659 31.5806C24.7648 28.7662 22.9896 22.8835 18.468 24.5557C18.2425 24.6913 18.4572 24.6931 18.7097 24.613C23.1577 23.1932 24.4308 29.8161 26.4361 32.2253C26.8507 32.8117 28.8588 35.7487 28.4414 36.5559C28.1624 37.1806 28.1633 37.134 28.3827 37.7498C28.5201 38.4345 24.7 39.3252 24.5463 38.8305C24.0185 38.5677 24.2533 39.5301 25.0699 39.3596C26.3685 39.2986 27.7366 38.8873 28.7391 38.0367C28.863 37.7754 28.6268 37.5183 28.4717 37.2733C29.4853 35.8777 27.2098 32.8122 26.4659 31.5811V31.5806Z" fill="black"/>
<path d="M12.6206 24.53C8.86715 23.5909 7.38494 28.896 5.55757 31.5274C3.73392 35.0461 2.23588 35.9456 3.39295 37.4473C3.30631 37.6085 3.19964 37.766 3.11533 37.9276C3.06595 38.0222 3.09623 38.1381 3.1824 38.201C4.30873 39.0218 6.24976 39.7834 7.52608 39.1606C7.62204 39.0199 7.48136 39.0353 7.33743 39.0907C6.22274 39.1448 4.6171 38.8028 3.59465 38.0613C3.49729 37.9905 3.47447 37.8545 3.5448 37.7571C3.63377 37.6346 3.73066 37.5349 3.82895 37.4315C2.80091 36.1412 3.49263 35.5478 5.81143 31.7556C7.17532 29.5253 8.50102 26.0383 10.7085 24.816C11.0015 24.6977 12.051 24.5472 12.4297 24.6446C12.5536 24.6856 12.6891 24.6543 12.6206 24.5295V24.53Z" fill="black"/>
<path d="M14.8211 25.0989C15.6461 24.2936 14.4997 28.7327 14.2249 29.962C14.189 30.1232 13.9282 30.3141 13.8555 30.1656C13.8425 30.1385 13.8364 30.1087 13.8411 30.0761C13.8672 29.901 14.6017 26.2998 14.7466 25.2461C14.7531 25.1986 14.7867 25.132 14.8207 25.0985L14.8211 25.0989Z" fill="#E5E5E6"/>
<path d="M14.9334 25.0899C14.9488 25.075 14.9679 25.062 14.9823 25.0461C15.0028 25.0242 15.0177 25.0387 14.9879 25.0387C14.979 25.0387 14.9143 25.0564 14.9269 25.0522C14.843 25.0787 14.9082 25.0396 14.9096 25.054C14.9096 25.0536 14.9259 25.0629 14.9306 25.0722C14.9627 25.1365 14.9786 25.1961 14.9856 25.2688C15.0116 25.5464 14.9669 25.8352 14.9278 26.1091C14.8076 26.9494 14.6157 27.78 14.4247 28.6063C14.3437 28.9575 14.2598 29.3083 14.1779 29.6595C14.1443 29.802 14.1317 29.9986 14.0339 30.1118C14.0241 30.123 13.9953 30.157 13.9836 30.1598C14.0218 30.1505 13.9752 30.1369 13.9664 30.0899C13.9603 30.0582 13.9664 30.0573 13.9678 30.0345C13.9701 30.0047 13.979 29.9739 13.9845 29.945C14.1192 29.2421 14.2617 28.5411 14.3982 27.8386C14.4979 27.3244 14.5966 26.8101 14.6902 26.2949C14.7294 26.0797 14.768 25.865 14.8039 25.6493C14.8309 25.4868 14.8272 25.2203 14.9343 25.0904C14.9832 25.0312 14.7485 25.0624 14.7098 25.109C14.5934 25.2506 14.5966 25.47 14.5673 25.6461C14.5328 25.8529 14.4965 26.0592 14.4592 26.2651C14.3674 26.7719 14.2705 27.2778 14.1727 27.7832C14.0269 28.5374 13.8667 29.2892 13.7293 30.0447C13.7009 30.1998 13.7726 30.2888 13.9361 30.2636C14.1737 30.2268 14.3195 30.0661 14.3702 29.843C14.4527 29.4816 14.5398 29.121 14.6241 28.7595C14.8328 27.8647 15.0433 26.9657 15.1742 26.0555C15.2017 25.8641 15.2259 25.6717 15.2357 25.4789C15.2422 25.3517 15.2511 25.2101 15.2147 25.0857C15.143 24.8384 14.8384 24.9846 14.7098 25.1081C14.6693 25.1472 14.7461 25.1491 14.7685 25.1486C14.8202 25.1472 14.8957 25.1267 14.9343 25.0894L14.9334 25.0899Z" fill="black"/>
<path d="M13.8946 28.5029C13.6985 28.8444 14.1434 29.3684 14.4471 29.53C14.9432 29.4504 14.1257 28.536 13.8946 28.5029Z" fill="#E5E5E6"/>
<path d="M13.7763 28.4892C13.6473 28.7226 13.7665 28.9974 13.9086 29.1945C13.9869 29.3035 14.0814 29.4013 14.1848 29.4865C14.2286 29.5229 14.2747 29.5564 14.3241 29.5853C14.3623 29.6077 14.3982 29.6221 14.4438 29.6179C14.476 29.6146 14.5072 29.6058 14.5375 29.5946C14.966 29.4381 14.5631 28.9257 14.3847 28.7338C14.2687 28.609 14.115 28.4431 13.9375 28.4138C13.8802 28.4045 13.8015 28.4347 13.7759 28.4892C13.7488 28.5465 13.8001 28.5833 13.8509 28.5913C13.8611 28.5931 13.822 28.5796 13.8429 28.5899C13.8485 28.5927 13.8555 28.5945 13.8611 28.5964C13.8741 28.6015 13.8783 28.6062 13.862 28.5964C13.87 28.601 13.8783 28.6052 13.8863 28.6099C13.9212 28.6304 13.9543 28.6551 13.9859 28.6802C14.0656 28.744 14.1252 28.8041 14.1979 28.887C14.2701 28.969 14.3372 29.0561 14.3926 29.1502C14.4205 29.1973 14.4294 29.2131 14.4485 29.2616C14.4634 29.2997 14.475 29.3393 14.4788 29.3803C14.4769 29.3608 14.4788 29.3789 14.4778 29.3883C14.4769 29.398 14.4755 29.4074 14.4746 29.4171C14.4746 29.4209 14.4727 29.4246 14.4718 29.4278C14.4741 29.4171 14.4806 29.4143 14.4727 29.4227C14.4634 29.433 14.4578 29.4423 14.4727 29.4264C14.4662 29.4334 14.4434 29.4572 14.4713 29.4311C14.4578 29.4437 14.4541 29.4395 14.4741 29.4316C14.4704 29.433 14.4667 29.4358 14.4625 29.4376C14.4466 29.4437 14.4452 29.4381 14.469 29.4358C14.4606 29.4367 14.4163 29.4479 14.4573 29.4404L14.5416 29.4591C14.3637 29.3626 14.2137 29.2089 14.1033 29.0408C14.0036 28.8894 13.9189 28.6839 14.0116 28.5158C14.0414 28.4618 13.985 28.4194 13.9366 28.4138C13.876 28.4063 13.8052 28.4343 13.7749 28.4892H13.7763Z" fill="black"/>
<path d="M13.9179 28.9618C14.0744 28.8933 14.6036 28.5361 14.6865 28.7378C14.5812 29.0671 14.1643 29.259 13.8481 29.3377C13.5648 29.279 13.7544 29.0433 13.9179 28.9618Z" fill="#E5E5E6"/>
<path d="M13.9659 29.0081C14.0609 28.9661 14.1499 28.9112 14.2417 28.8627C14.2663 28.8497 14.2915 28.8366 14.3167 28.8236C14.3222 28.8208 14.3278 28.818 14.3334 28.8152C14.3064 28.8287 14.3348 28.8148 14.3395 28.8124C14.3535 28.8059 14.3679 28.7994 14.3819 28.7929C14.4066 28.7817 14.4317 28.7714 14.4569 28.7621C14.4634 28.7598 14.4704 28.7575 14.4769 28.7547C14.4941 28.7477 14.4452 28.7635 14.4722 28.7565C14.4848 28.7533 14.4979 28.7495 14.5104 28.7458C14.5454 28.736 14.4857 28.7472 14.5197 28.744C14.5524 28.7407 14.4983 28.743 14.5249 28.743C14.53 28.743 14.5356 28.744 14.5402 28.743C14.5211 28.7454 14.5202 28.7421 14.53 28.7426C14.5547 28.743 14.5142 28.7402 14.5407 28.7458C14.5463 28.7467 14.5538 28.7561 14.5398 28.7444C14.5421 28.7463 14.5458 28.7481 14.5477 28.7505C14.55 28.7537 14.5538 28.7565 14.5561 28.7598C14.5607 28.7654 14.5589 28.77 14.5579 28.7607C14.5603 28.7798 14.5402 28.8152 14.5291 28.8357C14.4653 28.9559 14.3549 29.0477 14.2505 29.111C14.2305 29.1231 14.2105 29.1348 14.19 29.1455C14.183 29.1492 14.1764 29.1529 14.1695 29.1562C14.169 29.1562 14.1355 29.1734 14.156 29.1632C14.1178 29.1818 14.0786 29.1986 14.0395 29.214C14.0218 29.2209 14.0041 29.2275 13.9864 29.234C13.9757 29.2377 13.9654 29.2414 13.9547 29.2452C13.9766 29.2377 13.9547 29.2452 13.9449 29.248C13.9077 29.2596 13.8704 29.2699 13.8327 29.2796C13.8634 29.2773 13.8942 29.275 13.9249 29.2731C13.8457 29.2554 13.8075 29.2116 13.8406 29.1376C13.8499 29.1166 13.8858 29.0733 13.9002 29.0602C13.9161 29.0458 13.9324 29.0323 13.9496 29.0197C13.9296 29.0346 13.9603 29.0132 13.964 29.0109C13.9738 29.0048 13.9841 28.9997 13.9939 28.9946C14.0274 28.9773 14.0679 28.9275 14.0171 28.9042C13.9636 28.8795 13.8904 28.9042 13.842 28.9289C13.7572 28.9722 13.6729 29.0388 13.6207 29.1199C13.5779 29.186 13.5537 29.2736 13.6189 29.3351C13.6585 29.3723 13.7186 29.3933 13.7707 29.4021C13.8392 29.4138 13.9198 29.3816 13.9855 29.3607C14.1047 29.3225 14.2202 29.2759 14.3311 29.2172C14.4331 29.1632 14.5323 29.0975 14.6152 29.0165C14.694 28.9401 14.7736 28.8441 14.8044 28.7365C14.8304 28.6457 14.7042 28.6135 14.6385 28.6107C14.5412 28.6065 14.4424 28.6377 14.3525 28.6722C14.2505 28.7113 14.1527 28.7626 14.0567 28.8143C14.0176 28.8357 13.9785 28.8571 13.9389 28.8786C13.9217 28.8879 13.9044 28.8972 13.8872 28.9061C13.8821 28.9089 13.8564 28.9214 13.8779 28.9112C13.8993 28.9009 13.8746 28.9126 13.8695 28.9149C13.8401 28.9279 13.7656 28.968 13.8019 29.0085C13.8355 29.0467 13.9277 29.0244 13.965 29.0076L13.9659 29.0081Z" fill="black"/>
<path d="M16.3616 25.4683C16.3453 25.3667 16.4184 25.2712 16.5209 25.2633C16.6839 25.2465 16.7645 25.5824 16.7915 25.8987C16.8157 26.187 17.1348 28.7741 17.2028 29.8161C17.214 29.9843 17.0095 30.0909 16.8884 29.9736C16.8642 29.9503 16.8474 29.9209 16.8423 29.8851C16.8167 29.7081 16.5237 26.4795 16.3616 25.4683Z" fill="#E5E5E6"/>
<path d="M16.4855 25.435C16.4747 25.2417 16.5754 25.4629 16.5959 25.5267C16.6327 25.6423 16.6504 25.7638 16.6629 25.884C16.6709 25.9595 16.6778 26.0349 16.6858 26.1104C16.7146 26.3703 16.7449 26.6298 16.7747 26.8897C16.86 27.6331 16.9452 28.3766 17.0169 29.1214C17.0323 29.2807 17.0468 29.44 17.0598 29.5998C17.0654 29.6673 17.0719 29.7353 17.0752 29.8029C17.0766 29.8355 17.084 29.9193 17.0435 29.9356C16.9988 29.9538 16.9727 29.8755 16.9648 29.8462C16.9289 29.7162 16.935 29.5592 16.9219 29.4256C16.86 28.7944 16.7985 28.1632 16.7333 27.5325C16.6611 26.8329 16.5954 26.13 16.485 25.435C16.4687 25.3339 16.2199 25.394 16.2372 25.5016C16.457 26.8855 16.5539 28.2922 16.6932 29.6859C16.7002 29.7553 16.7039 29.8262 16.7151 29.8951C16.7403 30.0525 16.8898 30.1243 17.0398 30.0991C17.2489 30.0637 17.336 29.91 17.3221 29.7125C17.3104 29.5457 17.2955 29.3794 17.2801 29.2131C17.2019 28.37 17.1041 27.5292 17.0072 26.688C16.9764 26.4188 16.9424 26.1491 16.9163 25.8793C16.8972 25.6828 16.8837 25.3264 16.6853 25.2118C16.4808 25.094 16.2251 25.2845 16.2372 25.5016C16.2428 25.5994 16.4911 25.5444 16.485 25.435H16.4855Z" fill="black"/>
<path d="M16.4412 28.362C16.3089 28.6881 16.9718 29.1585 17.2657 29.1874C17.4618 29.1674 17.3565 28.8595 17.2354 28.7891C17.0533 28.614 16.8269 28.5106 16.6108 28.3923C16.5619 28.3541 16.499 28.3378 16.4412 28.362Z" fill="#E5E5E6"/>
<path d="M16.3229 28.3482C16.2572 28.5182 16.3453 28.6873 16.4561 28.8163C16.5837 28.9645 16.7486 29.0874 16.9233 29.175C17.0072 29.2169 17.0924 29.2523 17.1851 29.27C17.2946 29.291 17.4301 29.2444 17.48 29.1382C17.5177 29.0581 17.4995 28.9603 17.4637 28.883C17.445 28.8434 17.4241 28.8042 17.3938 28.7716C17.3523 28.7269 17.3193 28.7045 17.2731 28.6654C17.1553 28.5657 17.0207 28.4893 16.8851 28.4167C16.818 28.3808 16.75 28.3459 16.6848 28.3063C16.5912 28.249 16.4869 28.2532 16.3867 28.29C16.3406 28.3067 16.2931 28.3687 16.3275 28.4157C16.3662 28.4679 16.4454 28.4516 16.4957 28.433C16.4924 28.4344 16.4747 28.4386 16.4733 28.44C16.472 28.4418 16.4617 28.4311 16.4757 28.4404C16.4803 28.4437 16.4883 28.4442 16.4938 28.447C16.5134 28.4572 16.5362 28.474 16.5577 28.4856C16.6108 28.5145 16.6648 28.5424 16.7179 28.5713C16.8222 28.6277 16.9256 28.6873 17.0207 28.7586C17.0649 28.7917 17.1036 28.8312 17.1474 28.8643C17.1525 28.8685 17.1581 28.8722 17.1632 28.8764C17.1716 28.8825 17.159 28.8722 17.1586 28.8718C17.1609 28.8746 17.1637 28.8769 17.166 28.8797C17.1777 28.8937 17.1893 28.9076 17.1991 28.923C17.2037 28.93 17.2075 28.937 17.2117 28.944C17.214 28.9477 17.2158 28.9514 17.2177 28.9552C17.2168 28.9538 17.2121 28.9435 17.2163 28.9528C17.2238 28.9696 17.2303 28.9864 17.2359 29.0036C17.2405 29.0194 17.2443 29.0353 17.2466 29.0511C17.2475 29.0576 17.2485 29.0744 17.248 29.0586C17.248 29.0683 17.248 29.0781 17.2471 29.0879C17.2461 29.0949 17.2447 29.1019 17.2438 29.1084C17.2457 29.094 17.2471 29.1 17.2424 29.1103C17.2368 29.1233 17.234 29.1214 17.2438 29.1103C17.241 29.1135 17.2331 29.1205 17.2457 29.1098C17.2638 29.094 17.2312 29.1163 17.2545 29.1037C17.2717 29.0944 17.2596 29.101 17.2564 29.1023C17.2554 29.1023 17.2853 29.0935 17.2713 29.0972C17.2387 29.1051 17.3044 29.0991 17.2997 29.0963C17.2955 29.094 17.2857 29.0944 17.2811 29.0935C17.2662 29.0907 17.2615 29.087 17.2801 29.0935C17.2489 29.0828 17.2168 29.0753 17.186 29.0632C17.1702 29.0572 17.1548 29.0506 17.139 29.0437C17.1311 29.0399 17.1232 29.0362 17.1148 29.0325C17.1134 29.032 17.1003 29.0255 17.1106 29.0306C17.1208 29.0357 17.1041 29.0274 17.1022 29.0264C16.9569 28.951 16.8143 28.8489 16.7118 28.739C16.6811 28.7064 16.6527 28.6719 16.6271 28.6351C16.6154 28.6184 16.6047 28.6016 16.5945 28.5839C16.5921 28.5792 16.5814 28.5592 16.5842 28.5653C16.587 28.5713 16.5777 28.5508 16.5758 28.5466C16.5688 28.5299 16.5628 28.5131 16.5586 28.4959C16.5563 28.4875 16.5544 28.4791 16.553 28.4707C16.5521 28.4656 16.5488 28.4404 16.5497 28.4502C16.5507 28.46 16.5497 28.4381 16.5497 28.4334C16.5497 28.4255 16.5507 28.4171 16.5516 28.4092C16.5525 28.4013 16.5549 28.3934 16.5558 28.3855C16.5558 28.3836 16.5595 28.372 16.5558 28.3836C16.5516 28.3971 16.5591 28.3761 16.5591 28.3752C16.6098 28.2439 16.3616 28.2471 16.3224 28.3482H16.3229Z" fill="black"/>
<path d="M16.5954 28.796C16.6811 28.7057 17.3169 28.0428 17.2671 28.4425C17.1851 28.7494 16.9098 29.0233 16.6364 29.1761C16.3266 29.184 16.4673 28.9381 16.5954 28.796Z" fill="#E5E5E6"/>
<path d="M16.7104 28.7957C16.7184 28.7874 16.7263 28.779 16.7347 28.7706C16.7505 28.7543 16.7202 28.7855 16.7375 28.7678C16.7445 28.7608 16.7514 28.7538 16.7584 28.7464C16.7929 28.7114 16.8278 28.677 16.8632 28.643C16.9452 28.5647 17.03 28.4874 17.1222 28.4212C17.1236 28.4203 17.1371 28.4101 17.1376 28.4105C17.1376 28.4105 17.1157 28.425 17.1348 28.4129C17.1451 28.4063 17.1553 28.3993 17.166 28.3933C17.1749 28.3877 17.1842 28.383 17.1935 28.3779C17.2121 28.3677 17.1767 28.3854 17.1828 28.383C17.1879 28.3812 17.1926 28.3789 17.1977 28.3765C17.2275 28.363 17.1683 28.384 17.1949 28.3775C17.2145 28.3728 17.1679 28.3826 17.1758 28.3812C17.1954 28.3784 17.1455 28.3821 17.1595 28.3821C17.1735 28.3821 17.1306 28.3779 17.1441 28.3807C17.1567 28.383 17.1213 28.3728 17.1325 28.377C17.1348 28.3779 17.1376 28.3793 17.1399 28.3802C17.1273 28.3728 17.132 28.37 17.1334 28.3775C17.1334 28.3789 17.1381 28.383 17.139 28.384C17.139 28.384 17.1353 28.3709 17.1367 28.3807C17.1381 28.3882 17.1418 28.3956 17.1437 28.4035C17.1455 28.4124 17.146 28.4212 17.146 28.4306C17.1464 28.4422 17.1469 28.4226 17.146 28.4352C17.1455 28.4422 17.1451 28.4492 17.1441 28.4562C17.1292 28.5461 17.078 28.6369 17.0286 28.7124C16.9699 28.8023 16.8991 28.8843 16.8194 28.956C16.7333 29.0342 16.6587 29.0878 16.5605 29.1437C16.6024 29.1325 16.6438 29.1214 16.6858 29.1102C16.6764 29.1102 16.6676 29.1102 16.6583 29.1102C16.6541 29.1102 16.6313 29.1074 16.6513 29.1102C16.6452 29.1092 16.6396 29.1088 16.6341 29.1078C16.6317 29.1078 16.6098 29.1023 16.6219 29.106C16.6331 29.1092 16.6136 29.1027 16.6126 29.1023C16.6089 29.1004 16.6047 29.0985 16.601 29.0967C16.5884 29.0911 16.6052 29.1009 16.5996 29.0957C16.5968 29.0934 16.5935 29.0911 16.5912 29.0883C16.5884 29.085 16.5851 29.0818 16.5824 29.0785C16.5749 29.0692 16.5847 29.0841 16.5819 29.0771C16.5791 29.0701 16.5763 29.0631 16.5749 29.0552C16.574 29.0505 16.573 29.0328 16.573 29.037C16.573 29.0454 16.574 29.0301 16.5744 29.0282C16.5754 29.0235 16.5763 29.0184 16.5772 29.0137C16.5814 28.9947 16.5884 28.9765 16.5963 28.9583C16.5987 28.9532 16.601 28.9476 16.6038 28.9425C16.6001 28.9495 16.6028 28.9443 16.6052 28.9406C16.6112 28.9299 16.6173 28.9192 16.6243 28.9089C16.6494 28.8689 16.6792 28.8316 16.7104 28.7962C16.7496 28.7524 16.6769 28.7291 16.6448 28.7296C16.5856 28.7305 16.5213 28.7506 16.4808 28.7957C16.3872 28.9001 16.2125 29.154 16.4347 29.2238C16.5279 29.2532 16.6359 29.2513 16.7221 29.2033C16.7901 29.1656 16.8549 29.1209 16.9168 29.0734C17.0342 28.9835 17.1418 28.8763 17.2284 28.7562C17.2718 28.6956 17.3095 28.6313 17.3407 28.5638C17.3654 28.5107 17.3915 28.4524 17.3938 28.3933C17.3966 28.3234 17.3756 28.268 17.3006 28.2526C17.2075 28.234 17.1055 28.2754 17.0258 28.3206C16.9527 28.3621 16.8851 28.4152 16.8208 28.4692C16.7007 28.5703 16.5889 28.6816 16.4808 28.7953C16.4398 28.8381 16.5153 28.8624 16.5465 28.8619C16.6075 28.861 16.6685 28.8405 16.7104 28.7957Z" fill="black"/>
<g style="mix-blend-mode:multiply">
<path d="M19.803 27.5485C19.843 27.6352 19.7955 27.7423 19.6968 27.7879C19.598 27.8336 19.4857 27.8001 19.4457 27.7129C19.4056 27.6263 19.4531 27.5187 19.5519 27.4735C19.6506 27.4279 19.7629 27.4614 19.803 27.5485Z" fill="#416279"/>
<path d="M20.3102 28.6609C20.1793 28.6609 19.9194 28.6371 19.7149 28.7908C19.5663 28.9021 19.2831 29.2617 19.1955 29.2934C19.1261 29.3186 19.1029 29.2888 19.1266 29.2142C19.1536 29.1299 19.2789 28.8835 19.4825 28.4806C19.5556 28.3301 19.618 28.1806 19.618 28.0809C19.618 27.8946 19.5207 27.8555 19.4406 27.8555C19.3129 27.8555 19.1904 27.9053 19.0116 28.1065C18.8639 28.2728 18.6967 28.488 18.5942 28.5546C18.4964 28.618 18.4135 28.6581 18.2132 28.6618C18.1969 28.6781 18.1875 28.6893 18.1731 28.713C18.3249 28.713 18.5593 28.7 18.7125 28.5854C18.8611 28.4741 19.155 28.1131 19.2375 28.094C19.3199 28.0749 19.3148 28.1555 19.2705 28.2426C19.2263 28.3297 19.0311 28.7466 18.9584 28.8961C18.8853 29.0465 18.8024 29.2324 18.8024 29.3325C18.8024 29.5189 18.8867 29.5501 18.992 29.5501C19.1196 29.5501 19.2538 29.4858 19.4219 29.2753C19.5603 29.1024 19.7312 28.8886 19.8337 28.822C19.9362 28.7554 19.9898 28.7116 20.3116 28.7116C20.3116 28.6935 20.3116 28.679 20.3116 28.6613L20.3102 28.6609Z" fill="#416279"/>
</g>
<path d="M18.917 8.79254C18.917 8.79254 19.5118 9.25462 19.8603 8.79254C20.2082 8.33045 21.9834 6.08385 22.2047 5.4783C22.4259 4.87275 22.6342 4.47169 23.0231 4.55227C23.4121 4.63286 23.9221 5.23655 24.3246 6.57854C24.727 7.92054 24.9176 9.89045 24.7084 10.8514C24.4993 11.8124 24.0786 12.7142 23.8821 13.0058C23.685 13.2974 23.5327 13.4418 23.808 14.0091C23.808 14.0091 22.983 14.2947 21.4533 12.2819C19.9236 10.2692 18.917 8.793 18.917 8.793V8.79254Z" fill="#DD593A"/>
<path d="M20.9838 10.2282C20.9838 10.2282 20.9195 9.93241 21.3946 9.36599C21.8698 8.7991 22.7637 7.3099 22.8801 6.72624C22.9966 6.14258 23.2691 6.04197 23.4852 6.50498C23.7013 6.968 23.985 8.61836 24.0139 9.28261C24.0432 9.94685 23.9799 11.4025 23.7055 11.9112C23.3487 12.5736 22.9789 12.8484 23.0231 12.8987C23.3259 13.2429 20.961 10.429 20.9833 10.2282H20.9838Z" fill="#F8C6A1"/>
<path d="M11.5707 9.01486C11.5707 9.01486 9.60406 7.3822 8.66406 6.58193C7.72405 5.78167 6.86324 5.09088 6.63546 5.26556C6.594 5.29723 6.55441 5.3317 6.51621 5.37502C6.15428 5.78913 6.15101 6.32714 6.11981 7.12647C6.08254 8.07113 6.06391 7.80189 6.05972 8.28167C6.05226 9.18488 6.04621 9.97023 6.27073 10.9447C6.50223 11.9481 6.61776 12.4502 6.98761 12.759C7.24893 12.9775 7.60527 13.1708 7.70635 13.5481C7.7371 13.6627 7.71427 13.8024 7.61831 14.0083C7.61831 14.0083 11.873 10.2036 11.5707 9.01486Z" fill="#DD593A"/>
<path d="M9.95342 10.4096C9.95342 10.4096 10.3559 9.82596 9.77222 9.28236C9.18856 8.73876 7.57826 7.53138 7.39706 7.2696C7.21586 7.00781 6.89864 7.0884 6.846 7.41027C6.79337 7.73214 6.73095 9.68482 6.79244 10.2484C6.85392 10.8121 7.21632 12.0358 7.55823 12.3395C7.9006 12.6436 8.32309 12.6832 8.32309 12.6832L9.95342 10.4092V10.4096Z" fill="#F8C6A1"/>
<path d="M22.2717 5.95783C22.2964 5.93687 22.3207 5.91544 22.343 5.89215C22.4161 5.81436 22.466 5.71561 22.5461 5.64574C22.5787 5.61732 22.616 5.59403 22.6463 5.56236C22.7995 5.40119 22.9267 5.03832 23.229 5.18505C23.3077 5.22325 23.3548 5.3043 23.4153 5.36765C23.4908 5.44637 23.5891 5.49901 23.6654 5.57633C23.7209 5.63223 23.7628 5.69977 23.8043 5.76638C23.8886 5.85069 23.9477 5.99696 24.0111 6.0985C24.0805 6.2103 24.1452 6.33653 24.1974 6.45671C24.244 6.56338 24.2575 6.68123 24.2803 6.79536C24.3208 6.99798 24.3935 7.19455 24.4937 7.37529C24.4937 7.26116 24.4666 7.11024 24.4396 6.99938C24.3893 6.79489 24.3176 6.59645 24.2752 6.39057C24.2114 6.07941 24.1527 5.78455 24.0032 5.50134C23.8592 5.22977 23.6762 4.98196 23.5122 4.72297C23.4605 4.64145 23.4284 4.58649 23.3552 4.52127C23.1833 4.36849 22.9537 4.37035 22.7417 4.45513C22.6318 4.49891 22.5359 4.58276 22.4911 4.69223C22.4739 4.73461 22.4651 4.77933 22.4492 4.82219C22.4278 4.88041 22.3952 4.93351 22.3644 4.98708C22.145 5.37091 22.0295 5.83486 21.7244 6.16558C21.4575 6.45485 21.2595 6.83448 21.0341 7.16008C20.6531 7.71067 20.2636 8.25707 19.8607 8.79228C19.8477 8.80952 19.8351 8.82629 19.829 8.84585C19.8998 8.8207 19.9669 8.73732 20.021 8.68608C20.1714 8.54447 20.3167 8.39821 20.4616 8.25101C20.6195 8.09031 20.7695 7.9282 20.9027 7.74607C21.0243 7.57978 21.0984 7.32172 21.2656 7.19735C21.3201 7.15682 21.3788 7.12189 21.4319 7.0795C21.7757 6.80188 21.8432 6.34864 22.166 6.04727C22.2 6.01559 22.2363 5.98718 22.2717 5.95783Z" fill="#040000"/>
<path d="M22.9271 4.76926C24.2677 5.18942 24.8607 9.7688 24.5663 10.8816C24.3423 12.3899 23.3058 12.9913 23.467 13.7557C22.4404 13.6332 20.1332 9.41897 19.394 9.15765C19.8067 9.30345 20.1565 8.68439 20.3596 8.43285C20.5692 8.1734 20.7611 7.90043 20.953 7.62747C21.0038 7.55527 21.0546 7.48307 21.0918 7.40295C21.1221 7.3382 21.1436 7.26926 21.1771 7.20591C21.2325 7.10111 21.3145 7.03496 21.4114 6.97114C21.5027 6.91059 21.5386 6.85097 21.6038 6.7578C21.7496 6.55052 21.894 6.3423 22.037 6.13315C22.1562 5.95847 22.3467 5.75445 22.4189 5.55555C22.561 5.1666 22.7324 4.76926 22.9267 4.76926M22.9271 4.54102C22.5987 4.54102 22.4073 4.92345 22.2051 5.47729C21.9839 6.08285 20.2087 8.32945 19.8607 8.79153C19.6758 9.17209 18.9836 8.89354 18.9174 8.79153C18.9174 8.79153 19.9241 10.2677 21.4538 12.2804C22.7469 13.9131 23.3482 14.0417 23.8085 14.0077C23.5332 13.4403 23.6855 13.2959 23.8825 13.0043C24.0796 12.7127 24.4997 11.8104 24.7089 10.8499C25.0102 9.57968 24.5072 4.88525 22.9271 4.54102Z" fill="#040000"/>
<path d="M6.74725 5.46695C8.07713 6.07949 10.7248 8.44394 11.3574 9.13334C11.6792 9.48409 8.77026 13.9288 7.90758 13.4309C5.72666 12.1727 5.82075 7.42754 6.74725 5.46648M6.4482 5.46695C5.81004 6.55648 6.00754 10.1781 6.18641 11.0525C6.83855 13.5585 8.08133 13.0177 7.61831 14.0076C7.61831 14.0076 11.873 10.2028 11.5707 9.01409C11.2498 8.8655 7.59549 5.37844 6.76681 5.2373C6.76681 5.2373 6.55953 5.27643 6.44773 5.46695H6.4482Z" fill="#040000"/>
<path d="M11.3462 9.12581C11.3462 9.12581 13.3119 8.07122 15.3498 8.10941C17.5745 8.15133 19.4997 8.79043 20.2064 9.40623C20.2548 9.44861 20.599 9.75279 21.0341 10.1706C21.0341 10.1706 21.4706 10.5898 21.8288 10.9648C24.4052 13.6586 24.8481 16.8466 24.8481 16.8466C24.9762 17.7698 25.7718 21.4884 23.5867 22.707C21.2488 24.0108 19.0414 24.4076 19.0414 24.4076C19.0157 24.6755 15.047 25.5242 10.4709 23.9702C7.63508 23.0069 5.45369 21.977 6.12027 17.9743C6.78684 13.9716 9.54537 10.023 11.3462 9.12581Z" fill="#E5E5E6"/>
<path d="M17.1218 23.9884C16.3737 24.0657 15.6214 23.9297 14.8817 23.7942C14.0558 23.6428 13.2299 23.4919 12.404 23.3405C12.125 23.2892 11.8446 23.238 11.5744 23.1514C10.592 22.8355 9.19741 21.8005 8.93376 21.5462C8.67011 21.2918 8.34265 20.8382 8.17496 20.7268C8.09204 20.6719 7.85961 20.5577 7.81349 20.4692C7.78973 20.424 8.21595 20.0901 7.99143 19.9927C7.83864 19.954 7.7343 19.887 7.58105 19.8483C7.55823 19.8422 7.53214 19.8343 7.52236 19.8124C7.51398 19.7943 7.5205 19.7728 7.52841 19.7542C7.6104 19.5632 7.83166 19.4235 7.81908 19.2162C7.81116 19.0839 7.5163 18.988 7.51817 18.8557C7.51956 18.7592 7.81349 18.6936 7.86007 18.6093C8.00308 18.3493 8.03894 17.9692 8.07388 17.6748C8.12698 17.2319 8.90675 15.7827 9.14803 14.8772C9.38979 13.9717 9.61105 13.5687 9.86724 12.9143C10.1239 12.2593 11.7244 11.0128 12.5289 10.4315C12.9369 10.1371 13.4978 9.98153 13.9925 9.92237C14.2421 9.89256 14.4839 9.89861 14.7312 9.83619C15.0196 9.76306 15.2958 9.6494 15.5865 9.58419C16.6699 9.34243 17.786 9.80452 18.7344 10.3821C18.9729 10.5275 19.2086 10.6821 19.407 10.8787C19.5789 11.0487 19.7196 11.2471 19.8593 11.4446C20.1942 11.9174 20.5292 12.3907 20.8645 12.8635C21.3439 13.5398 21.8283 14.2269 22.1101 15.0062C22.3565 15.6886 22.4385 16.4172 22.5824 17.1284C22.7268 17.8393 23.1619 18.8748 23.4489 19.0257C23.7358 19.1766 23.1577 19.3285 23.1484 19.4952C23.1396 19.662 23.529 20.0146 23.2602 19.9792C23.0729 19.9848 22.8349 20.0295 22.7967 20.213C22.7832 20.2782 22.8088 20.3146 22.8498 20.3667C23.0599 20.6318 23.0361 20.6677 22.5629 20.8889C22.33 20.9979 21.8679 21.6831 21.6867 21.8662C21.4524 22.1028 21.2153 22.3418 20.933 22.5183C20.6717 22.6814 20.3792 22.7866 20.089 22.89C19.0609 23.2576 18.2071 23.8757 17.1208 23.988L17.1218 23.9884Z" fill="#DD593A"/>
<path d="M23.4493 19.0265C23.3082 18.9524 23.1316 18.6636 22.9709 18.3054C20.742 20.5306 19.264 18.6319 17.1996 17.8363C15.9521 17.3556 14.7149 17.4702 13.8835 17.8485C12.8219 18.3315 11.8982 19.0409 11.0606 19.3712C9.70701 19.9045 7.97932 18.3865 7.89501 18.5397C7.84843 18.624 7.52003 18.7596 7.51817 18.856C7.5163 18.9883 7.81116 19.0842 7.81908 19.2165C7.83166 19.4243 7.6104 19.5636 7.52841 19.7545C7.5205 19.7732 7.51398 19.7946 7.52236 19.8128C7.53214 19.8347 7.55823 19.8426 7.58105 19.8486C7.73384 19.8873 7.83818 19.9544 7.99143 19.993C8.21642 20.0904 7.7902 20.4244 7.81349 20.4696C7.85961 20.5581 8.09204 20.6717 8.17496 20.7272C8.34265 20.8385 8.67011 21.2922 8.93376 21.5465C9.19741 21.8008 10.5925 22.8359 11.5744 23.1517C11.8446 23.2388 12.1246 23.29 12.404 23.3408C13.2299 23.4922 14.2421 24.3167 15.068 24.4676C15.8077 24.6032 16.8073 24.5412 17.6151 24.0624C18.5541 23.5052 19.0619 23.2584 20.0899 22.8908C20.3801 22.787 20.6726 22.6822 20.9339 22.5191C21.2162 22.3426 21.4533 22.1036 21.6876 21.867C21.8684 21.6839 22.3304 20.9987 22.5638 20.8897C23.0366 20.6685 23.0608 20.6326 22.8508 20.3676C22.8093 20.3154 22.7841 20.279 22.7977 20.2138C22.8354 20.0303 23.0734 19.9851 23.2611 19.98C23.5304 20.0154 23.1405 19.6628 23.1493 19.496C23.1582 19.3293 23.7363 19.1779 23.4498 19.027L23.4493 19.0265Z" fill="#FBDECA"/>
<g style="mix-blend-mode:multiply">
<path d="M22.6104 20.6752C22.3733 20.7754 21.9038 21.4038 21.7198 21.5715C21.4817 21.7885 21.2404 22.0079 20.9535 22.1696C20.688 22.3191 20.3903 22.4155 20.0955 22.5105C19.0497 22.8478 18.2323 23.2274 17.1278 23.3304C16.3672 23.4012 15.552 23.4636 14.7997 23.3392C13.9598 23.2004 13.12 23.0621 12.2801 22.9232C11.9965 22.8762 11.7114 22.8291 11.4366 22.7495C10.4379 22.4598 9.01947 21.5104 8.75163 21.2771C8.48332 21.0437 8.15027 20.6277 7.97978 20.5257C7.94531 20.5048 7.88476 20.4749 7.8228 20.4414C7.81489 20.454 7.81069 20.4638 7.81349 20.4689C7.8596 20.5574 8.09204 20.6711 8.17496 20.7265C8.34265 20.8378 8.67011 21.2915 8.93376 21.5458C9.19741 21.8002 10.5925 22.8352 11.5744 23.151C11.8446 23.2381 12.1246 23.2894 12.404 23.3401C13.2299 23.4915 14.5687 24.4036 15.3945 24.5545C16.1342 24.6901 16.9014 24.4106 17.6155 24.0617C18.5965 23.5819 19.0623 23.2577 20.0904 22.8902C20.3806 22.7863 20.6731 22.6815 20.9344 22.5185C21.2167 22.3419 21.4538 22.1029 21.6881 21.8663C21.8688 21.6833 22.3309 20.998 22.5643 20.889C22.9341 20.7158 23.0287 20.6557 22.9518 20.5113C22.8852 20.556 22.7753 20.6054 22.6109 20.6752H22.6104Z" fill="#F8C6A1"/>
</g>
<g style="mix-blend-mode:multiply" opacity="0.57">
<path d="M22.2717 15.4206C21.5875 12.7236 19.0311 10.7509 17.9164 10.1001C16.8017 9.44939 14.6632 9.60357 13.1945 10.1001C11.7258 10.5967 9.8323 12.7035 9.36416 13.7297C8.89556 14.7564 8.41857 16.5879 8.14188 17.7743C8.0012 18.3766 7.79671 18.665 7.62949 18.8033C8.36127 18.7446 8.64122 18.0389 8.68501 17.7743C9.19321 14.7233 11.1431 11.6899 12.5158 11.0057C12.5158 11.0057 13.8317 10.0177 15.3852 10.047C16.9382 10.0764 18.4363 10.8077 19.4815 11.8511C20.5268 12.8945 22.0565 15.0848 22.3248 17.5177C22.3803 18.0212 22.9458 18.8229 23.5141 19.0358C23.5187 19.0334 23.5234 19.0311 23.5276 19.0283C22.9644 18.5443 22.8885 17.8526 22.2713 15.4201L22.2717 15.4206Z" fill="#CC3820"/>
</g>
<g style="mix-blend-mode:multiply">
<path d="M8.14188 17.7745C8.41857 16.5881 8.89556 14.7565 9.36416 13.7299C9.83276 12.7033 11.7258 10.5969 13.1945 10.1003C14.6632 9.60376 16.8017 9.44957 17.9164 10.1003C19.0311 10.751 21.587 12.7237 22.2717 15.4208C22.8889 17.8532 22.9649 18.5454 23.528 19.0289C23.5867 18.9963 23.6468 18.9661 23.7083 18.9395C23.3902 18.5822 23.1293 18.0526 23.0967 17.5807C22.8754 14.3601 21.3527 12.2249 20.1579 11.0324C18.9631 9.83992 17.1567 9.19151 15.3815 9.15798C13.6063 9.12444 11.8441 10.227 11.8441 10.227C10.2748 11.0086 8.08132 14.3028 7.7492 17.9459C7.73522 18.0983 7.50651 18.5725 7.33975 18.7714C7.41661 18.7905 7.44037 18.8086 7.51769 18.8086C7.55682 18.8086 7.59315 18.8058 7.62902 18.803C7.79625 18.6647 8.00074 18.3763 8.14141 17.7741L8.14188 17.7745Z" fill="#A8BAC3"/>
</g>
<path d="M13.0874 13.2764C12.9462 13.2657 12.7972 13.2978 12.6942 13.3905C12.5913 13.4832 12.548 13.6421 12.6146 13.7641C12.643 13.8163 12.6887 13.8577 12.7362 13.895C12.9015 14.0249 13.0976 14.1121 13.2951 14.187C13.3953 14.2252 13.5075 14.2606 13.6072 14.2229C13.6892 14.1917 13.7446 14.1158 13.7754 14.0352C13.951 13.5759 13.4922 13.3081 13.0879 13.2769L13.0874 13.2764Z" fill="#CC3820"/>
<path d="M12.0416 12.8298C12.0416 12.8298 12.3589 13.031 12.4241 13.1819C12.4893 13.3329 12.5196 13.494 12.8214 13.6752C13.1233 13.8564 13.4894 13.9063 13.583 13.9715C13.6636 14.0274 13.6468 14.019 13.6566 13.9566C13.6655 13.9012 13.5783 13.7758 13.4731 13.61C13.4265 13.5369 13.3715 13.488 13.3315 13.4055C13.2597 13.2593 13.1684 13.1246 13.0753 13.0059C12.9295 12.8195 12.738 12.765 12.738 12.765C12.738 12.765 12.956 13.0217 13.0082 13.1246C13.0604 13.2276 13.1014 13.4344 13.242 13.5877C13.3473 13.7027 13.3659 13.7195 13.3659 13.7195C13.3659 13.7195 13.1596 13.7162 13.0035 13.5751C12.8475 13.4344 12.7716 13.3939 12.6961 13.1973C12.6206 13.0012 12.6006 12.9407 12.3742 12.8251C12.1478 12.7096 12.0822 12.7949 11.9312 12.7096C11.7803 12.6239 11.9704 12.7818 12.0421 12.8303L12.0416 12.8298Z" fill="#FBDECA"/>
<path d="M17.6742 13.2764C17.8153 13.2657 17.9644 13.2978 18.0673 13.3905C18.1703 13.4832 18.2136 13.6421 18.147 13.7641C18.1186 13.8163 18.0729 13.8577 18.0254 13.895C17.8601 14.0249 17.664 14.1121 17.4665 14.187C17.3663 14.2252 17.254 14.2606 17.1544 14.2229C17.0724 14.1917 17.0169 14.1158 16.9862 14.0352C16.8106 13.5759 17.2694 13.3081 17.6737 13.2769L17.6742 13.2764Z" fill="#CC3820"/>
<path d="M17.2023 14.0141C17.173 14.0225 17.1418 14.0057 17.1343 13.9759C17.1055 13.8632 17.1679 13.5735 17.3076 13.4188C17.4753 13.233 17.5587 13.2223 17.6779 13.008C17.7972 12.7937 17.772 12.7117 17.772 12.7117C17.772 12.7117 17.8158 12.919 17.7744 13.0615C17.7329 13.2045 17.7282 13.2958 17.6076 13.3895C17.4865 13.4831 17.4394 13.5329 17.4082 13.6652C17.377 13.7975 17.4031 13.8134 17.6509 13.6047C17.8028 13.4766 17.9062 13.5763 18.0473 13.4975C18.2872 13.3639 18.2872 13.2912 18.358 13.1011C18.4302 12.9074 18.7935 12.6903 18.808 12.5762C18.808 12.5762 18.6971 12.8831 18.5653 13.0942C18.433 13.3047 18.5173 13.3899 18.2215 13.5614C18.1111 13.6256 18.0073 13.6867 17.9202 13.7384C17.7567 13.8353 17.582 13.9112 17.3989 13.9638L17.2023 14.0141Z" fill="#FBDECA"/>
<path d="M8.96171 17.2939C8.8732 17.334 9.49925 18.417 10.7383 18.5521C10.5287 18.6429 8.81358 18.8116 8.96171 17.2939Z" fill="#CC3820"/>
<path d="M8.81637 18.0127C8.69899 18.09 9.15688 18.8479 10.1416 18.7827C9.93711 18.8796 8.66638 19.1306 8.81637 18.0127Z" fill="#CC3820"/>
<path d="M21.9583 17.2939C22.0468 17.334 21.4207 18.417 20.1817 18.5521C20.3913 18.6429 22.1064 18.8116 21.9583 17.2939Z" fill="#CC3820"/>
<path d="M22.1041 18.0127C22.2214 18.09 21.7635 18.8479 20.7788 18.7827C20.9833 18.8796 22.254 19.1306 22.1041 18.0127Z" fill="#CC3820"/>
<path d="M14.5156 20.5434C15.3605 20.2113 16.0169 20.0566 16.3462 20.3487C16.6755 20.6408 16.287 21.2151 15.7681 21.217C14.3944 21.2216 14.5156 20.5434 14.5156 20.5434Z" fill="#F8C6A1"/>
<path d="M11.3848 15.2847C11.3178 15.287 12.7469 15.5264 13.4647 16.7776C13.3585 16.6188 13.1945 15.2157 11.3848 15.2847Z" fill="#CC3820"/>
<path d="M19.6679 15.2847C19.7349 15.287 18.3058 15.5264 17.588 16.7776C17.6942 16.6188 17.8582 15.2157 19.6679 15.2847Z" fill="#CC3820"/>
<g style="mix-blend-mode:multiply">
<path d="M24.9637 16.7818C24.8915 16.3486 24.7084 15.8157 24.4536 15.2381C24.523 15.4565 24.5761 15.6615 24.6069 15.8469C24.8947 17.5778 25.2949 20.5749 23.1307 22.1032C20.9666 23.6315 15.9162 24.817 15.9162 24.817C15.9162 24.817 13.5597 24.0731 10.7388 23.4904C7.91783 22.9076 6.0518 20.8441 6.69275 16.9942C6.81107 16.2847 6.99786 15.5772 7.23402 14.8896C6.82597 15.8786 6.29495 16.9243 6.12027 17.9747C5.4537 21.9774 7.34488 23.2048 10.1025 23.9608C10.7602 24.1411 11.3625 24.3139 12.0267 24.4686C12.0812 24.4811 12.1353 24.496 12.1888 24.5114C11.6047 24.5286 11.0257 24.6181 10.4546 24.8389C10.2501 24.912 10.1458 24.9702 10.2827 25.0783C10.7774 25.4705 12.9993 26.1017 14.0493 26.3309C14.9231 26.5218 15.3852 26.4571 15.8687 26.4333C16.4282 26.4059 17.1064 26.3183 19.2873 25.6373C19.9134 25.4416 20.7402 25.1733 21.71 24.8291C21.4789 24.6977 21.1091 24.4974 20.6153 24.4415C20.2175 24.3968 19.796 24.4215 19.3781 24.4718C19.3865 24.4462 19.3917 24.421 19.3921 24.3964C19.3921 24.3964 21.186 24.2669 23.4358 22.678C25.6857 21.0891 25.2627 18.5826 24.9637 16.7827V16.7818Z" fill="#A8BAC3"/>
</g>
<path d="M12.7413 23.0293C12.7413 23.0293 14.4774 23.5543 15.8058 23.5375C17.5075 23.5161 18.1959 23.1499 18.5183 23.0899C18.5183 23.0899 17.1795 23.714 15.9167 23.7038C14.6539 23.6935 13.5648 23.4504 12.7418 23.0293H12.7413Z" fill="#040000"/>
<path d="M10.6209 15.5748C10.0727 15.64 9.66042 15.9526 9.39118 16.2316L9.38932 16.2325L9.36929 16.254C9.29662 16.3308 9.20858 16.3909 9.10983 16.4282C9.06185 16.4464 9.00921 16.4627 8.96077 16.4692C8.81684 16.4883 8.81357 16.5321 8.96077 16.7212C9.02785 16.8074 9.18017 17.0803 9.42844 17.2406C9.46711 17.2657 9.5449 17.2974 9.56772 17.2885C9.56772 17.2885 9.35764 17.1004 9.42332 16.853C9.45686 16.7272 9.51136 16.5186 9.88307 16.2242C10.1369 16.0234 10.4085 15.8892 10.7667 15.8469C11.6653 15.7397 12.6309 16.1459 13.174 17.2252L13.3324 17.582C13.4013 17.582 13.351 17.3533 13.3105 17.228C12.9183 16.0211 11.7375 15.4425 10.6214 15.5753L10.6209 15.5748Z" fill="#231815"/>
<path d="M10.2958 15.8703C10.2958 15.8703 9.44801 18.2165 11.3057 18.3446C13.2621 18.4793 13.2444 16.95 13.1722 17.1074C13.1722 17.1074 12.738 15.915 11.6173 15.7887C10.497 15.6625 10.2958 15.8703 10.2958 15.8703Z" fill="#231815"/>
<path d="M10.3484 16.7744C10.1598 16.8573 10.3475 18.02 11.1044 18.143C11.7864 18.2538 12.3933 17.986 12.731 17.6986C12.9248 17.5337 13.0482 16.9817 12.8955 16.7884C12.8955 16.7884 12.8973 17.3502 12.1096 17.6636C11.7081 17.8234 11.4417 17.8248 11.1203 17.7335C10.6172 17.5905 10.4351 17.0963 10.3484 16.7744Z" fill="#A4D6F3"/>
<path d="M10.9763 16.2896C11.0178 16.6613 10.3754 16.7177 10.4029 16.345C10.4318 15.9551 10.946 15.9169 10.9763 16.2896Z" fill="white"/>
<path d="M20.7448 15.8712C20.7448 15.8712 21.5926 18.2175 19.7349 18.3456C17.7785 18.4802 17.7962 16.951 17.8684 17.1084C17.8684 17.1084 18.3026 15.916 19.4233 15.7897C20.5436 15.6635 20.7448 15.8712 20.7448 15.8712Z" fill="#231815"/>
<path d="M20.5161 16.2202C20.722 16.2211 21.0518 17.5161 20.4066 17.9311C19.8258 18.3047 19.1247 18.1472 18.7004 18.0182C18.4568 17.9442 18.1237 17.4872 18.1866 17.2492C18.1866 17.2492 18.3813 17.8142 19.2277 17.857C19.5831 17.8752 19.9874 17.8137 20.293 17.5818C20.7099 17.2655 20.5655 16.5491 20.5166 16.2197L20.5161 16.2202Z" fill="#A4D6F3"/>
<path d="M18.6953 16.287C18.3333 16.1929 18.1852 16.8203 18.5583 16.8464C18.9487 16.8739 19.06 16.3703 18.6953 16.287Z" fill="white"/>
<path d="M20.4197 15.575C20.9647 15.6626 21.3802 15.9528 21.6494 16.2318L21.6513 16.2328L21.6713 16.2542C21.744 16.3311 21.832 16.3911 21.9308 16.4284C21.9787 16.4466 22.0314 16.4629 22.0798 16.4694C22.2238 16.4885 22.227 16.5323 22.0798 16.7214C22.0127 16.8076 21.8604 17.0805 21.6122 17.2408C21.5735 17.2659 21.4957 17.2976 21.4729 17.2888C21.4729 17.2888 21.683 17.1006 21.6173 16.8532C21.5837 16.7275 21.5292 16.5188 21.1575 16.2244C20.9037 16.0236 20.6321 15.8895 20.2739 15.8471C19.3753 15.7399 18.4097 16.1461 17.8666 17.2254L17.7082 17.5822C17.6793 17.5822 17.6761 17.4546 17.7082 17.3298C18.0566 15.9719 19.2868 15.3938 20.4192 15.5755L20.4197 15.575Z" fill="#231815"/>
<path d="M16.4948 17.9233C16.4948 18.2032 15.8543 18.5722 15.5795 18.5722C15.3046 18.5722 14.6641 18.2032 14.6641 17.9233C14.6641 17.6433 15.0741 17.416 15.5795 17.416C16.0849 17.416 16.4948 17.6433 16.4948 17.9233Z" fill="#040000"/>
<path d="M10.4546 20.2789C10.0242 20.0259 9.36416 20.0786 9.16991 20.1433C9.0311 20.1899 9.18435 20.2505 9.3199 20.2267C9.50436 20.2048 9.86071 20.3008 10.1341 20.3622C10.2855 20.3963 10.4038 20.4195 10.4709 20.3296C10.4774 20.3208 10.4663 20.2859 10.4546 20.2793V20.2789Z" fill="black"/>
<path d="M10.4383 20.7002C10.1751 20.7896 9.414 20.7901 9.36462 21.077C9.41493 21.1343 9.52626 21.1041 9.58402 21.0826C9.61104 21.0728 9.60265 21.0817 9.58216 21.0826C9.75171 21.0202 10.1681 20.9308 10.232 20.9196C10.4048 20.8888 10.8072 20.7314 10.4383 20.7002Z" fill="black"/>
<path d="M20.674 20.5218C20.7458 20.4892 20.9316 20.431 21.2567 20.39C21.5819 20.349 21.6988 20.349 21.8856 20.355C21.9289 20.3564 21.9522 20.2572 21.9191 20.2092C21.7184 19.9204 20.1355 20.4915 20.674 20.5218Z" fill="black"/>
<path d="M20.6614 21.0283C21.0625 21.0446 21.7477 21.4158 21.7202 21.1219C21.5209 21.0674 20.7644 20.7963 20.5874 20.9519C20.5645 20.9719 20.6214 21.0264 20.6614 21.0283Z" fill="black"/>
<path d="M13.611 20.0024C13.3026 20.0532 13.0627 19.9013 13.0068 19.7243C12.9528 19.5538 13.024 19.4695 13.024 19.4695C13.1982 19.9479 13.7372 19.8077 14.3148 19.6162C14.5985 19.5221 14.9185 19.4695 15.157 19.3666C15.3414 19.2869 15.4472 19.0568 15.579 19.1276C16.0164 19.3628 15.0801 19.5925 14.3153 19.7783C14.0204 19.8501 13.7814 19.9754 13.6114 20.0029L13.611 20.0024Z" fill="#040000"/>
<path d="M15.6931 19.2344H15.4649C15.5231 19.0746 15.2953 18.3433 15.6931 18.5166V19.2344Z" fill="#040000"/>
<path d="M17.5517 20.0256C18.085 20.116 18.3002 19.9367 18.3016 19.6851C18.3026 19.5063 18.2714 19.4988 18.2714 19.4988C18.0972 19.9772 17.5354 19.8934 16.9578 19.7019C16.8791 19.6758 16.635 19.5882 16.5586 19.5617C16.3592 19.4928 16.1999 19.4401 16.0276 19.3656C15.8431 19.2859 15.7374 19.0558 15.6055 19.1266C15.3731 19.2519 15.5128 19.333 15.804 19.4555C15.9917 19.5342 16.2367 19.6586 16.5018 19.7289C16.5982 19.7545 16.7267 19.7979 16.8222 19.8212C17.1171 19.8929 17.3821 19.9986 17.5517 20.0256Z" fill="#040000"/>
<path d="M13.8923 20.6033L13.7996 20.5567C13.4642 20.389 13.4465 19.9716 13.446 19.9539L13.4442 19.9055L13.9724 19.7988L13.9389 19.8934C13.8471 20.1528 13.8811 20.4957 13.8816 20.4994L13.8923 20.6028V20.6033ZM13.5648 19.9982C13.5774 20.0858 13.6198 20.2749 13.7614 20.396C13.7586 20.2861 13.7628 20.1137 13.8033 19.9497L13.5644 19.9977L13.5648 19.9982Z" fill="#040000"/>
<path d="M17.4175 20.5404C17.4175 20.5372 17.452 20.1939 17.3602 19.9344L17.3267 19.8398L17.8549 19.9465L17.8531 19.995C17.8526 20.0127 17.8349 20.43 17.4995 20.5977L17.4068 20.6443L17.4175 20.5409V20.5404ZM17.4958 19.9903C17.5363 20.1538 17.5405 20.3261 17.5377 20.4365C17.6798 20.3154 17.7222 20.1263 17.7343 20.0387L17.4953 19.9908L17.4958 19.9903Z" fill="#040000"/>
<path d="M13.5648 19.9977C13.5774 20.0852 13.6198 20.2744 13.7614 20.3955C13.7586 20.2855 13.7628 20.1132 13.8033 19.9492L13.5644 19.9972L13.5648 19.9977Z" fill="white"/>
<path d="M17.4958 19.9902C17.5363 20.1537 17.5405 20.3261 17.5377 20.4365C17.6798 20.3154 17.7222 20.1263 17.7343 20.0387L17.4953 19.9907L17.4958 19.9902Z" fill="white"/>
<path d="M23.651 18.9181C22.7976 18.5813 22.8587 16.3272 22.4203 15.0644C21.3397 12.6073 19.4024 9.98429 16.58 9.54923C15.3354 9.38014 14.1191 9.5823 13.0105 10.056C11.1762 10.84 9.86164 12.414 9.05859 14.2404C8.42835 15.6732 8.11253 16.9808 8.01471 17.6254C7.9672 17.9403 7.81022 18.4602 7.4562 18.6283C6.84646 18.8836 7.3472 18.8836 7.53166 19.273C7.46505 19.5143 6.8581 19.7919 7.32065 19.9317C7.42919 19.9545 7.65371 20.077 7.76084 20.1017C7.44875 20.4585 7.37329 20.5027 7.70308 20.6839C7.77621 20.724 7.84422 20.7738 7.90384 20.8325C9.1075 22.0222 10.463 23.0125 12.1413 23.5529C13.5653 24.0117 14.1005 24.3382 15.9167 24.8171C15.946 24.8115 16.8129 24.5166 17.4958 24.2637C18.1787 24.0112 19.1331 23.3027 19.8873 23.0577C20.7611 22.7717 21.6354 22.4214 22.1763 21.65C22.377 21.4185 22.6821 21.0384 22.9565 20.8894C23.215 20.8018 23.5597 20.9024 23.2784 20.6187C22.8153 20.2009 23.3287 20.159 23.6505 20.0751C23.7833 20.0407 23.3599 19.6349 23.3487 19.4915C23.7055 19.1328 24.0311 19.1123 23.651 18.9171V18.9181ZM22.9411 20.594C22.3039 20.9583 21.8847 21.8336 21.0262 22.1894C19.8071 22.8993 18.9174 23.244 17.4278 24.103C17.4273 24.103 16.2432 24.6773 15.6936 24.5325C15.1439 24.3876 13.4097 23.5217 11.696 23.1071C11.4324 23.0433 11.1748 22.9562 10.9307 22.8392C9.7941 22.2942 8.96589 21.269 8.03194 20.4836C8.50847 19.9577 8.34077 20.0407 7.7301 19.7253C8.01517 19.3964 8.16703 19.2739 7.6579 18.8966C8.0352 18.7811 8.2886 18.3237 8.32261 17.9739C8.39947 17.2057 8.62632 16.4572 8.89835 15.7487C9.32689 14.7053 9.73028 13.6474 10.3084 12.6692C11.2316 11.6659 12.316 10.5782 13.6361 10.152C15.3139 9.63401 17.3705 9.60885 18.7968 10.7519C20.3764 12.0637 21.7151 13.7699 22.1981 15.7897C22.4455 16.8205 22.548 18.4639 23.3995 19.0839C23.0194 19.362 22.9835 19.4794 23.2434 19.8646C22.8293 19.9368 22.6276 20.1161 22.9416 20.594H22.9411Z" fill="#040000"/>
<path d="M13.1722 24.5831C11.9862 24.3912 9.78665 23.8201 8.58486 23.1666C7.11663 22.3677 6.12166 21.0742 6.27212 19.1821C6.74631 14.9427 8.69712 10.1877 12.9723 8.59094C14.1322 8.18755 15.4122 8.21597 16.621 8.38506C17.0486 8.38086 17.5475 8.71345 17.929 8.43909C18.0133 8.3599 17.9914 8.27652 17.8768 8.2523C15.3754 7.65653 12.7278 7.91552 10.6712 9.51884C7.84423 11.5265 3.91745 19.8361 7.13526 22.6137C8.01192 23.5071 9.99766 24.0293 11.1664 24.3143C13.318 24.8398 13.1722 24.5827 13.1722 24.5827V24.5831Z" fill="black"/>
<path d="M25.3447 19.715C25.1402 15.7481 24.0688 12.971 20.7271 9.7895C20.4663 9.54123 18.658 8.18339 18.6352 8.80478C22.0649 10.3946 24.2584 14.1588 24.9087 17.7288C25.1546 19.0009 25.0382 20.4277 24.3222 21.6066C22.9812 23.5677 20.0396 23.7559 17.7264 24.7406C17.6635 24.7671 17.418 24.8631 17.548 24.9483C17.6668 25.0098 18.1992 24.9414 18.2108 24.7755C18.2094 24.7709 18.2066 24.7676 18.2048 24.7639C20.8725 23.9389 25.361 23.3776 25.3447 19.7145V19.715Z" fill="black"/>
</g>
</svg>
