<svg width="178" height="49" viewBox="0 0 178 49" fill="none" xmlns="http://www.w3.org/2000/svg">
<path d="M168.09 0H11.15V3.47H168.09V0Z" fill="white"/>
<path d="M11.1501 3.46973H7.68005V6.93973H11.1501V3.46973Z" fill="white"/>
<path d="M172.74 3.46973H168.08V6.93973H172.74V3.46973Z" fill="white"/>
<path d="M7.68997 6.92969H4.21997V10.3997H7.68997V6.92969Z" fill="white"/>
<path d="M177.41 6.92969H172.75V10.3997H177.41V6.92969Z" fill="white"/>
<path d="M4.22 10.4004H0.75V13.8704H4.22V10.4004Z" fill="white"/>
<path d="M177.41 10.4004H172.75V13.8704H177.41V10.4004Z" fill="white"/>
<path d="M4.22 13.8604H0.75V17.3304H4.22V13.8604Z" fill="white"/>
<path d="M177.41 13.8604H172.75V17.3304H177.41V13.8604Z" fill="white"/>
<path d="M4.22 17.3301H0.75V20.8001H4.22V17.3301Z" fill="white"/>
<path d="M177.41 17.3301H172.75V20.8001H177.41V17.3301Z" fill="white"/>
<path d="M4.22 20.79H0.75V24.26H4.22V20.79Z" fill="white"/>
<path d="M177.41 20.79H172.75V24.26H177.41V20.79Z" fill="white"/>
<path d="M4.22 24.2598H0.75V27.7298H4.22V24.2598Z" fill="white"/>
<path d="M177.41 24.2598H172.75V27.7298H177.41V24.2598Z" fill="white"/>
<path d="M7.68997 27.7197H4.21997V31.1897H7.68997V27.7197Z" fill="white"/>
<path d="M177.41 27.7197H172.75V31.1897H177.41V27.7197Z" fill="white"/>
<path d="M11.1501 31.1904H7.68005V34.6604H11.1501V31.1904Z" fill="white"/>
<path d="M172.74 31.1904H168.08V34.6604H172.74V31.1904Z" fill="white"/>
<path d="M82.36 34.6504H11.15V38.1204H82.36V34.6504Z" fill="white"/>
<path d="M168.09 34.6504H92.8199V38.1204H168.09V34.6504Z" fill="white"/>
<path d="M92.76 38.1201H82.36V41.5901H92.76V38.1201Z" fill="white"/>
<path d="M92.7499 41.5801H85.8199V45.0501H92.7499V41.5801Z" fill="white"/>
<path d="M92.76 45.0498H89.29V48.5198H92.76V45.0498Z" fill="white"/>
<path d="M30.4167 13.3333H31.75V16H30.4167V13.3333ZM31.75 18.6667V16H33.0833V20H29.0833V16H30.4167V18.6667H31.75ZM27.75 20H29.0833V24H27.75V20ZM33.0833 20H34.4167V24H33.0833V20ZM39.2167 16H41.8833V17.3333H39.2167V16ZM41.8833 17.3333H43.2167V18.6667H41.8833V17.3333ZM36.55 16H37.8833V17.3333H39.2167V18.6667H37.8833V24H36.55V16ZM50.6833 16V17.3333H46.6833V16H50.6833ZM45.35 17.3333H46.6833V18.6667H50.6833V17.3333H52.0167V20H46.6833V22.6667H45.35V17.3333ZM50.6833 21.3333H52.0167V22.6667H50.6833V21.3333ZM50.6833 22.6667V24H46.6833V22.6667H50.6833ZM62.95 13.3333H64.2833V16H62.95V13.3333ZM68.2833 13.3333H69.6167V16H68.2833V13.3333ZM64.2833 16H65.6167V18.6667H64.2833V16ZM66.95 16H68.2833V18.6667H66.95V16ZM65.6167 18.6667H66.95V24H65.6167V18.6667ZM77.0833 16V17.3333H73.0833V16H77.0833ZM71.75 17.3333H73.0833V22.6667H71.75V17.3333ZM77.0833 17.3333H78.4167V22.6667H77.0833V17.3333ZM77.0833 22.6667V24H73.0833V22.6667H77.0833ZM80.55 16H81.8833V22.6667H80.55V16ZM84.55 24H81.8833V22.6667H84.55V24ZM85.8833 16H87.2167V24H85.8833V22.6667H84.55V21.3333H85.8833V16ZM103.483 14.6667H104.817V18.6667H103.483V14.6667ZM98.15 13.3333H103.483V14.6667H99.4833V18.6667H103.483V21.3333H102.15V20H99.4833V24H98.15V13.3333ZM103.483 21.3333H104.817V24H103.483V21.3333ZM112.283 16V17.3333H108.283V16H112.283ZM106.95 17.3333H108.283V18.6667H112.283V17.3333H113.617V20H108.283V22.6667H106.95V17.3333ZM112.283 21.3333H113.617V22.6667H112.283V21.3333ZM112.283 22.6667V24H108.283V22.6667H112.283ZM121.083 16V17.3333H117.083V16H121.083ZM115.75 20H117.083V22.6667H115.75V20ZM122.417 24H117.083V22.6667H121.083V20H117.083V18.6667H121.083V17.3333H122.417V24ZM124.55 17.3333H125.883V22.6667H124.55V17.3333ZM131.217 24H125.883V22.6667H129.883V17.3333H125.883V16H129.883V13.3333H131.217V24ZM133.35 16H134.683V20H133.35V16ZM138.683 16H140.017V20H138.683V16ZM134.683 20H136.017V22.6667H134.683V20ZM137.35 20H138.683V22.6667H137.35V20ZM136.017 22.6667H137.35V25.3333H136.017V22.6667ZM136.017 26.6667H133.35V25.3333H136.017V26.6667ZM147.483 14.6667H143.483V13.3333H147.483V14.6667ZM142.15 14.6667H143.483V16H142.15V14.6667ZM147.483 14.6667H148.817V17.3333H147.483V14.6667ZM146.15 17.3333H147.483V18.6667H146.15V17.3333ZM144.817 18.6667H146.15V21.3333H144.817V18.6667ZM144.817 22.6667H146.15V24H144.817V22.6667Z" fill="white"/>
</svg>
