<svg width="337" height="182" viewBox="0 0 337 182" fill="none" xmlns="http://www.w3.org/2000/svg">
<path d="M88.42 19.6699H85.24V21.6699H88.42V19.6699Z" fill="#5B2550"/>
<path d="M63.3 13.7695H60.12V15.7695H63.3V13.7695Z" fill="#5B2550"/>
<path d="M69.58 13.7695H66.4V15.7695H69.58V13.7695Z" fill="#5B2550"/>
<path d="M75.86 13.7695H72.68V15.7695H75.86V13.7695Z" fill="#5B2550"/>
<path d="M82.14 13.7695H78.96V15.7695H82.14V13.7695Z" fill="#5B2550"/>
<path d="M88.42 13.7695H85.24V15.7695H88.42V13.7695Z" fill="#5B2550"/>
<path d="M182.75 11.7998H179.57V13.7998H182.75V11.7998Z" fill="#30D93E"/>
<path d="M185.89 11.7998H182.71V13.7998H185.89V11.7998Z" fill="white"/>
<path d="M195.31 11.7998H192.13V13.7998H195.31V11.7998Z" fill="#30D93E"/>
<path d="M198.45 11.7998H195.27V13.7998H198.45V11.7998Z" fill="white"/>
<path d="M207.87 11.7998H204.69V13.7998H207.87V11.7998Z" fill="#30D93E"/>
<path d="M211.01 11.7998H207.83V13.7998H211.01V11.7998Z" fill="white"/>
<path d="M220.43 11.7998H217.25V13.7998H220.43V11.7998Z" fill="#30D93E"/>
<path d="M223.57 11.7998H220.39V13.7998H223.57V11.7998Z" fill="#30D93E"/>
<path d="M226.71 11.7998H223.53V13.7998H226.71V11.7998Z" fill="white"/>
<path d="M229.85 11.7998H226.67V13.7998H229.85V11.7998Z" fill="white"/>
<path d="M47.6 11.7998H44.42V13.7998H47.6V11.7998Z" fill="#30D93E"/>
<path d="M50.74 11.7998H47.56V13.7998H50.74V11.7998Z" fill="#30D93E"/>
<path d="M53.88 11.7998H50.7V13.7998H53.88V11.7998Z" fill="white"/>
<path d="M57.02 11.7998H53.84V13.7998H57.02V11.7998Z" fill="white"/>
<path d="M182.75 9.83008H179.57V11.8301H182.75V9.83008Z" fill="#30D93E"/>
<path d="M185.89 9.83008H182.71V11.8301H185.89V9.83008Z" fill="white"/>
<path d="M195.31 9.83008H192.13V11.8301H195.31V9.83008Z" fill="#30D93E"/>
<path d="M198.45 9.83008H195.27V11.8301H198.45V9.83008Z" fill="white"/>
<path d="M207.87 9.83008H204.69V11.8301H207.87V9.83008Z" fill="#30D93E"/>
<path d="M211.01 9.83008H207.83V11.8301H211.01V9.83008Z" fill="white"/>
<path d="M220.43 9.83008H217.25V11.8301H220.43V9.83008Z" fill="#30D93E"/>
<path d="M223.57 9.83008H220.39V11.8301H223.57V9.83008Z" fill="#30D93E"/>
<path d="M226.71 9.83008H223.53V11.8301H226.71V9.83008Z" fill="white"/>
<path d="M229.85 9.83008H226.67V11.8301H229.85V9.83008Z" fill="white"/>
<path d="M47.6 9.83008H44.42V11.8301H47.6V9.83008Z" fill="#30D93E"/>
<path d="M50.74 9.83008H47.56V11.8301H50.74V9.83008Z" fill="#BAC1C4"/>
<path d="M53.88 9.83008H50.7V11.8301H53.88V9.83008Z" fill="white"/>
<path d="M57.02 9.83008H53.84V11.8301H57.02V9.83008Z" fill="white"/>
<path d="M110.5 7.87012H107.32V9.87012H110.5V7.87012Z" fill="#FFF01F"/>
<path d="M113.64 7.87012H110.46V9.87012H113.64V7.87012Z" fill="#FFF01F"/>
<path d="M116.78 7.87012H113.6V9.87012H116.78V7.87012Z" fill="#FFF01F"/>
<path d="M119.92 7.87012H116.74V9.87012H119.92V7.87012Z" fill="#FFF01F"/>
<path d="M123.06 7.87012H119.88V9.87012H123.06V7.87012Z" fill="#FFF01F"/>
<path d="M126.2 7.87012H123.02V9.87012H126.2V7.87012Z" fill="#FFF01F"/>
<path d="M182.75 7.87012H179.57V9.87012H182.75V7.87012Z" fill="#30D93E"/>
<path d="M185.89 7.87012H182.71V9.87012H185.89V7.87012Z" fill="white"/>
<path d="M195.31 7.87012H192.13V9.87012H195.31V7.87012Z" fill="#30D93E"/>
<path d="M198.45 7.87012H195.27V9.87012H198.45V7.87012Z" fill="white"/>
<path d="M207.87 7.87012H204.69V9.87012H207.87V7.87012Z" fill="#30D93E"/>
<path d="M211.01 7.87012H207.83V9.87012H211.01V7.87012Z" fill="white"/>
<path d="M220.43 7.87012H217.25V9.87012H220.43V7.87012Z" fill="#30D93E"/>
<path d="M223.57 7.87012H220.39V9.87012H223.57V7.87012Z" fill="#30D93E"/>
<path d="M226.71 7.87012H223.53V9.87012H226.71V7.87012Z" fill="white"/>
<path d="M229.85 7.87012H226.67V9.87012H229.85V7.87012Z" fill="white"/>
<path d="M47.6 7.87012H44.42V9.87012H47.6V7.87012Z" fill="#30D93E"/>
<path d="M50.74 7.87012H47.56V9.87012H50.74V7.87012Z" fill="#30D93E"/>
<path d="M53.88 7.87012H50.7V9.87012H53.88V7.87012Z" fill="white"/>
<path d="M57.02 7.87012H53.84V9.87012H57.02V7.87012Z" fill="white"/>
<path d="M110.5 5.90039H107.32V7.90039H110.5V5.90039Z" fill="#FFF01F"/>
<path d="M113.64 5.90039H110.46V7.90039H113.64V5.90039Z" fill="#FFF01F"/>
<path d="M116.78 5.90039H113.6V7.90039H116.78V5.90039Z" fill="#FFF01F"/>
<path d="M119.92 5.90039H116.74V7.90039H119.92V5.90039Z" fill="#FFF01F"/>
<path d="M123.06 5.90039H119.88V7.90039H123.06V5.90039Z" fill="#FFF01F"/>
<path d="M126.2 5.90039H123.02V7.90039H126.2V5.90039Z" fill="#FFF01F"/>
<path d="M182.75 5.90039H179.57V7.90039H182.75V5.90039Z" fill="#30D93E"/>
<path d="M185.89 5.90039H182.71V7.90039H185.89V5.90039Z" fill="white"/>
<path d="M195.31 5.90039H192.13V7.90039H195.31V5.90039Z" fill="#30D93E"/>
<path d="M198.45 5.90039H195.27V7.90039H198.45V5.90039Z" fill="white"/>
<path d="M207.87 5.90039H204.69V7.90039H207.87V5.90039Z" fill="#30D93E"/>
<path d="M211.01 5.90039H207.83V7.90039H211.01V5.90039Z" fill="white"/>
<path d="M220.43 5.90039H217.25V7.90039H220.43V5.90039Z" fill="#30D93E"/>
<path d="M223.57 5.90039H220.39V7.90039H223.57V5.90039Z" fill="#30D93E"/>
<path d="M226.71 5.90039H223.53V7.90039H226.71V5.90039Z" fill="white"/>
<path d="M229.85 5.90039H226.67V7.90039H229.85V5.90039Z" fill="white"/>
<path d="M47.6 5.90039H44.42V7.90039H47.6V5.90039Z" fill="#BAC1C4"/>
<path d="M50.74 5.90039H47.56V7.90039H50.74V5.90039Z" fill="#30D93E"/>
<path d="M53.88 5.90039H50.7V7.90039H53.88V5.90039Z" fill="white"/>
<path d="M57.02 5.90039H53.84V7.90039H57.02V5.90039Z" fill="white"/>
<path d="M94.8 3.92969H91.62V5.92969H94.8V3.92969Z" fill="#3C4054"/>
<path d="M97.94 3.92969H94.76V5.92969H97.94V3.92969Z" fill="#3C4054"/>
<path d="M101.08 3.92969H97.9V5.92969H101.08V3.92969Z" fill="white"/>
<path d="M104.22 3.92969H101.04V5.92969H104.22V3.92969Z" fill="white"/>
<path d="M107.36 3.92969H104.18V5.92969H107.36V3.92969Z" fill="white"/>
<path d="M110.5 3.92969H107.32V5.92969H110.5V3.92969Z" fill="white"/>
<path d="M113.64 3.92969H110.46V5.92969H113.64V3.92969Z" fill="white"/>
<path d="M116.78 3.92969H113.6V5.92969H116.78V3.92969Z" fill="white"/>
<path d="M119.92 3.92969H116.74V5.92969H119.92V3.92969Z" fill="white"/>
<path d="M123.06 3.92969H119.88V5.92969H123.06V3.92969Z" fill="white"/>
<path d="M126.2 3.92969H123.02V5.92969H126.2V3.92969Z" fill="white"/>
<path d="M129.34 3.92969H126.16V5.92969H129.34V3.92969Z" fill="white"/>
<path d="M132.48 3.92969H129.3V5.92969H132.48V3.92969Z" fill="white"/>
<path d="M135.62 3.92969H132.44V5.92969H135.62V3.92969Z" fill="white"/>
<path d="M138.76 3.92969H135.58V5.92969H138.76V3.92969Z" fill="white"/>
<path d="M141.9 3.92969H138.72V5.92969H141.9V3.92969Z" fill="white"/>
<path d="M145.03 3.92969H141.85V5.92969H145.03V3.92969Z" fill="white"/>
<path d="M148.18 3.92969H145V5.92969H148.18V3.92969Z" fill="white"/>
<path d="M151.32 3.92969H148.14V5.92969H151.32V3.92969Z" fill="white"/>
<path d="M333.48 3.92969H330.3V5.92969H333.48V3.92969Z" fill="white"/>
<path d="M336.62 3.92969H333.44V5.92969H336.62V3.92969Z" fill="white"/>
<path d="M154.49 3.92969H151.31V5.92969H154.49V3.92969Z" fill="#85076F"/>
<path d="M157.63 3.92969H154.45V5.92969H157.63V3.92969Z" fill="#850779"/>
<path d="M160.78 3.92969H157.6V5.92969H160.78V3.92969Z" fill="#7B078E"/>
<path d="M163.91 3.92969H160.73V5.92969H163.91V3.92969Z" fill="#640796"/>
<path d="M167.05 3.92969H163.87V5.92969H167.05V3.92969Z" fill="#640796"/>
<path d="M173.33 3.92969H170.15V5.92969H173.33V3.92969Z" fill="#4A13AC"/>
<path d="M176.47 3.92969H173.29V5.92969H176.47V3.92969Z" fill="#4DFF0D"/>
<path d="M179.61 3.92969H176.43V5.92969H179.61V3.92969Z" fill="#4DFF0D"/>
<path d="M182.75 3.92969H179.57V5.92969H182.75V3.92969Z" fill="#4DFF0D"/>
<path d="M185.89 3.92969H182.71V5.92969H185.89V3.92969Z" fill="#4DFF0D"/>
<path d="M189.03 3.92969H185.85V5.92969H189.03V3.92969Z" fill="#4DFF0D"/>
<path d="M192.17 3.92969H188.99V5.92969H192.17V3.92969Z" fill="#4DFF0D"/>
<path d="M195.31 3.92969H192.13V5.92969H195.31V3.92969Z" fill="#F229DC"/>
<path d="M198.45 3.92969H195.27V5.92969H198.45V3.92969Z" fill="#E026CC"/>
<path d="M201.59 3.92969H198.41V5.92969H201.59V3.92969Z" fill="#E61AC1"/>
<path d="M204.73 3.92969H201.55V5.92969H204.73V3.92969Z" fill="#E628B4"/>
<path d="M207.87 3.92969H204.69V5.92969H207.87V3.92969Z" fill="#E637AA"/>
<path d="M211.01 3.92969H207.83V5.92969H211.01V3.92969Z" fill="#F573AF"/>
<path d="M214.15 3.92969H210.97V5.92969H214.15V3.92969Z" fill="#F573AF"/>
<path d="M217.29 3.92969H214.11V5.92969H217.29V3.92969Z" fill="#D24FEF"/>
<path d="M220.43 3.92969H217.25V5.92969H220.43V3.92969Z" fill="#D24FEF"/>
<path d="M223.57 3.92969H220.39V5.92969H223.57V3.92969Z" fill="#EF47EE"/>
<path d="M226.71 3.92969H223.53V5.92969H226.71V3.92969Z" fill="#EF47EE"/>
<path d="M229.85 3.92969H226.67V5.92969H229.85V3.92969Z" fill="#EB39D1"/>
<path d="M232.98 3.92969H229.8V5.92969H232.98V3.92969Z" fill="#EB35C1"/>
<path d="M236.12 3.92969H232.94V5.92969H236.12V3.92969Z" fill="#4AA272"/>
<path d="M239.27 3.92969H236.09V5.92969H239.27V3.92969Z" fill="#4AA272"/>
<path d="M242.4 3.92969H239.22V5.92969H242.4V3.92969Z" fill="#4AA272"/>
<path d="M47.6 3.92969H44.42V5.92969H47.6V3.92969Z" fill="#4AA272"/>
<path d="M44.42 3.92969H41.24V5.92969H44.42V3.92969Z" fill="#4AA272"/>
<path d="M41.25 3.92969H38.07V5.92969H41.25V3.92969Z" fill="#BAC1C4"/>
<path d="M38.07 3.92969H34.89V5.92969H38.07V3.92969Z" fill="#240C20"/>
<path d="M34.89 3.92969H31.71V5.92969H34.89V3.92969Z" fill="#4AA272"/>
<path d="M31.71 3.92969H28.53V5.92969H31.71V3.92969Z" fill="#BAC1C4"/>
<path d="M28.57 7.87012H25.39V9.87012H28.57V7.87012Z" fill="#30D93E"/>
<path d="M31.71 7.87012H28.53V9.87012H31.71V7.87012Z" fill="#30D93E"/>
<path d="M28.57 5.90039H25.39V7.90039H28.57V5.90039Z" fill="#30D93E"/>
<path d="M31.71 5.90039H28.53V7.90039H31.71V5.90039Z" fill="#30D93E"/>
<path d="M28.57 3.92969H25.39V5.92969H28.57V3.92969Z" fill="#4AA272"/>
<path d="M25.39 3.92969H22.21V5.92969H25.39V3.92969Z" fill="#240C20"/>
<path d="M22.21 3.92969H19.03V5.92969H22.21V3.92969Z" fill="#4AA272"/>
<path d="M19.03 3.92969H15.85V5.92969H19.03V3.92969Z" fill="#BAC1C4"/>
<path d="M15.85 3.92969H12.67V5.92969H15.85V3.92969Z" fill="#240C20"/>
<path d="M12.68 3.92969H9.5V5.92969H12.68V3.92969Z" fill="#BAC1C4"/>
<path d="M9.54 7.87012H6.36V9.87012H9.54V7.87012Z" fill="#240C20"/>
<path d="M12.68 7.87012H9.5V9.87012H12.68V7.87012Z" fill="#30D93E"/>
<path d="M9.54 5.90039H6.36V7.90039H9.54V5.90039Z" fill="#BAC1C4"/>
<path d="M12.68 5.90039H9.5V7.90039H12.68V5.90039Z" fill="#240C20"/>
<path d="M25.43 9.87012H22.25V11.8701H25.43V9.87012Z" fill="#240C20"/>
<path d="M19.07 9.87012H15.89V11.8701H19.07V9.87012Z" fill="#BAC1C4"/>
<path d="M12.72 9.87012H9.53999V11.8701H12.72V9.87012Z" fill="#240C20"/>
<path d="M12.72 13.7998H9.53999V15.7998H12.72V13.7998Z" fill="#240C20"/>
<path d="M9.54 3.94043H6.36V5.94043H9.54V3.94043Z" fill="#240C20"/>
<path d="M6.35999 3.94043H3.17999V5.94043H6.35999V3.94043Z" fill="#4AA272"/>
<path d="M3.18 3.94043H0V5.94043H3.18V3.94043Z" fill="#240C20"/>
<path d="M63.3 3.92969H60.12V5.92969H63.3V3.92969Z" fill="#3EA282"/>
<path d="M66.44 3.92969H63.26V5.92969H66.44V3.92969Z" fill="#3EA282"/>
<path d="M69.58 3.92969H66.4V5.92969H69.58V3.92969Z" fill="#3EA282"/>
<path d="M72.72 3.92969H69.54V5.92969H72.72V3.92969Z" fill="#36A28E"/>
<path d="M75.86 3.92969H72.68V5.92969H75.86V3.92969Z" fill="#36A28E"/>
<path d="M79 3.92969H75.82V5.92969H79V3.92969Z" fill="#36A28E"/>
<path d="M82.14 3.92969H78.96V5.92969H82.14V3.92969Z" fill="#30A29E"/>
<path d="M85.28 3.92969H82.1V5.92969H85.28V3.92969Z" fill="#30A29E"/>
<path d="M88.42 3.92969H85.24V5.92969H88.42V3.92969Z" fill="#279AA2"/>
<path d="M91.56 3.92969H88.38V5.92969H91.56V3.92969Z" fill="#279AA2"/>
<path d="M94.8 1.96973H91.62V3.96973H94.8V1.96973Z" fill="#3C4054"/>
<path d="M97.94 1.96973H94.76V3.96973H97.94V1.96973Z" fill="#3C4054"/>
<path d="M101.08 1.96973H97.9V3.96973H101.08V1.96973Z" fill="white"/>
<path d="M104.22 1.96973H101.04V3.96973H104.22V1.96973Z" fill="white"/>
<path d="M107.36 1.96973H104.18V3.96973H107.36V1.96973Z" fill="white"/>
<path d="M110.5 1.96973H107.32V3.96973H110.5V1.96973Z" fill="white"/>
<path d="M113.64 1.96973H110.46V3.96973H113.64V1.96973Z" fill="white"/>
<path d="M116.78 1.96973H113.6V3.96973H116.78V1.96973Z" fill="white"/>
<path d="M119.92 1.96973H116.74V3.96973H119.92V1.96973Z" fill="white"/>
<path d="M123.06 1.96973H119.88V3.96973H123.06V1.96973Z" fill="white"/>
<path d="M126.2 1.96973H123.02V3.96973H126.2V1.96973Z" fill="white"/>
<path d="M129.34 1.96973H126.16V3.96973H129.34V1.96973Z" fill="white"/>
<path d="M132.48 1.96973H129.3V3.96973H132.48V1.96973Z" fill="white"/>
<path d="M135.62 1.96973H132.44V3.96973H135.62V1.96973Z" fill="white"/>
<path d="M138.76 1.96973H135.58V3.96973H138.76V1.96973Z" fill="white"/>
<path d="M141.9 1.96973H138.72V3.96973H141.9V1.96973Z" fill="white"/>
<path d="M145.03 1.96973H141.85V3.96973H145.03V1.96973Z" fill="white"/>
<path d="M148.18 1.96973H145V3.96973H148.18V1.96973Z" fill="white"/>
<path d="M151.32 1.96973H148.14V3.96973H151.32V1.96973Z" fill="white"/>
<path d="M333.48 1.96973H330.3V3.96973H333.48V1.96973Z" fill="white"/>
<path d="M336.62 1.96973H333.44V3.96973H336.62V1.96973Z" fill="white"/>
<path d="M154.49 1.96973H151.31V3.96973H154.49V1.96973Z" fill="#85076F"/>
<path d="M157.63 1.96973H154.45V3.96973H157.63V1.96973Z" fill="#850779"/>
<path d="M160.78 1.96973H157.6V3.96973H160.78V1.96973Z" fill="#7B078E"/>
<path d="M163.91 1.96973H160.73V3.96973H163.91V1.96973Z" fill="#640796"/>
<path d="M167.05 1.96973H163.87V3.96973H167.05V1.96973Z" fill="#640796"/>
<path d="M173.33 1.96973H170.15V3.96973H173.33V1.96973Z" fill="#4A13AC"/>
<path d="M176.47 1.96973H173.29V3.96973H176.47V1.96973Z" fill="#4DFF0D"/>
<path d="M179.61 1.96973H176.43V3.96973H179.61V1.96973Z" fill="#4DFF0D"/>
<path d="M182.75 1.96973H179.57V3.96973H182.75V1.96973Z" fill="#4DFF0D"/>
<path d="M185.89 1.96973H182.71V3.96973H185.89V1.96973Z" fill="#4DFF0D"/>
<path d="M189.03 1.96973H185.85V3.96973H189.03V1.96973Z" fill="#4DFF0D"/>
<path d="M192.17 1.96973H188.99V3.96973H192.17V1.96973Z" fill="#4DFF0D"/>
<path d="M195.31 1.96973H192.13V3.96973H195.31V1.96973Z" fill="#F229DC"/>
<path d="M198.45 1.96973H195.27V3.96973H198.45V1.96973Z" fill="#E026CC"/>
<path d="M201.59 1.96973H198.41V3.96973H201.59V1.96973Z" fill="#E61AC1"/>
<path d="M204.73 1.96973H201.55V3.96973H204.73V1.96973Z" fill="#E628B4"/>
<path d="M207.87 1.96973H204.69V3.96973H207.87V1.96973Z" fill="#E637AA"/>
<path d="M211.01 1.96973H207.83V3.96973H211.01V1.96973Z" fill="#F573AF"/>
<path d="M214.15 1.96973H210.97V3.96973H214.15V1.96973Z" fill="#F573AF"/>
<path d="M217.29 1.96973H214.11V3.96973H217.29V1.96973Z" fill="#D24FEF"/>
<path d="M220.43 1.96973H217.25V3.96973H220.43V1.96973Z" fill="#D24FEF"/>
<path d="M223.57 1.96973H220.39V3.96973H223.57V1.96973Z" fill="#EF47EE"/>
<path d="M226.71 1.96973H223.53V3.96973H226.71V1.96973Z" fill="#EF47EE"/>
<path d="M229.85 1.96973H226.67V3.96973H229.85V1.96973Z" fill="#EB39D1"/>
<path d="M232.98 1.96973H229.8V3.96973H232.98V1.96973Z" fill="#EB35C1"/>
<path d="M236.12 1.96973H232.94V3.96973H236.12V1.96973Z" fill="#4AA272"/>
<path d="M239.27 1.96973H236.09V3.96973H239.27V1.96973Z" fill="#4AA272"/>
<path d="M242.4 1.96973H239.22V3.96973H242.4V1.96973Z" fill="#4AA272"/>
<path d="M47.6 1.96973H44.42V3.96973H47.6V1.96973Z" fill="#4AA272"/>
<path d="M63.3 1.96973H60.12V3.96973H63.3V1.96973Z" fill="#3EA282"/>
<path d="M66.44 1.96973H63.26V3.96973H66.44V1.96973Z" fill="#3EA282"/>
<path d="M69.58 1.96973H66.4V3.96973H69.58V1.96973Z" fill="#3EA282"/>
<path d="M72.72 1.96973H69.54V3.96973H72.72V1.96973Z" fill="#36A28E"/>
<path d="M75.86 1.96973H72.68V3.96973H75.86V1.96973Z" fill="#36A28E"/>
<path d="M79 1.96973H75.82V3.96973H79V1.96973Z" fill="#36A28E"/>
<path d="M82.14 1.96973H78.96V3.96973H82.14V1.96973Z" fill="#30A29E"/>
<path d="M85.28 1.96973H82.1V3.96973H85.28V1.96973Z" fill="#30A29E"/>
<path d="M88.42 1.96973H85.24V3.96973H88.42V1.96973Z" fill="#279AA2"/>
<path d="M91.56 1.96973H88.38V3.96973H91.56V1.96973Z" fill="#279AA2"/>
<path d="M94.8 0H91.62V2H94.8V0Z" fill="#3C4054"/>
<path d="M97.94 0H94.76V2H97.94V0Z" fill="#3C4054"/>
<path d="M101.08 0H97.9V2H101.08V0Z" fill="white"/>
<path d="M104.22 0H101.04V2H104.22V0Z" fill="white"/>
<path d="M107.36 0H104.18V2H107.36V0Z" fill="white"/>
<path d="M110.5 0H107.32V2H110.5V0Z" fill="white"/>
<path d="M113.64 0H110.46V2H113.64V0Z" fill="white"/>
<path d="M116.78 0H113.6V2H116.78V0Z" fill="white"/>
<path d="M119.92 0H116.74V2H119.92V0Z" fill="white"/>
<path d="M123.06 0H119.88V2H123.06V0Z" fill="white"/>
<path d="M126.2 0H123.02V2H126.2V0Z" fill="white"/>
<path d="M129.34 0H126.16V2H129.34V0Z" fill="white"/>
<path d="M132.48 0H129.3V2H132.48V0Z" fill="white"/>
<path d="M135.62 0H132.44V2H135.62V0Z" fill="white"/>
<path d="M138.76 0H135.58V2H138.76V0Z" fill="white"/>
<path d="M141.9 0H138.72V2H141.9V0Z" fill="white"/>
<path d="M145.03 0H141.85V2H145.03V0Z" fill="white"/>
<path d="M148.18 0H145V2H148.18V0Z" fill="white"/>
<path d="M151.32 0H148.14V2H151.32V0Z" fill="white"/>
<path d="M333.48 0H330.3V2H333.48V0Z" fill="white"/>
<path d="M336.62 0H333.44V2H336.62V0Z" fill="white"/>
<path d="M154.49 0H151.31V2H154.49V0Z" fill="#85076F"/>
<path d="M157.63 0H154.45V2H157.63V0Z" fill="#850779"/>
<path d="M160.78 0H157.6V2H160.78V0Z" fill="#7B078E"/>
<path d="M163.91 0H160.73V2H163.91V0Z" fill="#640796"/>
<path d="M167.05 0H163.87V2H167.05V0Z" fill="#640796"/>
<path d="M173.33 0H170.15V2H173.33V0Z" fill="#4A13AC"/>
<path d="M176.47 0H173.29V2H176.47V0Z" fill="#4DFF0D"/>
<path d="M179.61 0H176.43V2H179.61V0Z" fill="#4DFF0D"/>
<path d="M182.75 0H179.57V2H182.75V0Z" fill="#4DFF0D"/>
<path d="M185.89 0H182.71V2H185.89V0Z" fill="#4DFF0D"/>
<path d="M189.03 0H185.85V2H189.03V0Z" fill="#4DFF0D"/>
<path d="M192.17 0H188.99V2H192.17V0Z" fill="#4DFF0D"/>
<path d="M195.31 0H192.13V2H195.31V0Z" fill="#F229DC"/>
<path d="M198.45 0H195.27V2H198.45V0Z" fill="#E026CC"/>
<path d="M201.59 0H198.41V2H201.59V0Z" fill="#E61AC1"/>
<path d="M204.73 0H201.55V2H204.73V0Z" fill="#E628B4"/>
<path d="M207.87 0H204.69V2H207.87V0Z" fill="#E637AA"/>
<path d="M211.01 0H207.83V2H211.01V0Z" fill="#F573AF"/>
<path d="M214.15 0H210.97V2H214.15V0Z" fill="#F573AF"/>
<path d="M217.29 0H214.11V2H217.29V0Z" fill="#D24FEF"/>
<path d="M220.43 0H217.25V2H220.43V0Z" fill="#D24FEF"/>
<path d="M223.57 0H220.39V2H223.57V0Z" fill="#EF47EE"/>
<path d="M226.71 0H223.53V2H226.71V0Z" fill="#EF47EE"/>
<path d="M229.85 0H226.67V2H229.85V0Z" fill="#EB39D1"/>
<path d="M232.98 0H229.8V2H232.98V0Z" fill="#EB35C1"/>
<path d="M236.12 0H232.94V2H236.12V0Z" fill="#4AA272"/>
<path d="M239.27 0H236.09V2H239.27V0Z" fill="#4AA272"/>
<path d="M242.4 0H239.22V2H242.4V0Z" fill="#4AA272"/>
<path d="M47.6 0H44.42V2H47.6V0Z" fill="#4AA272"/>
<path d="M63.3 0H60.12V2H63.3V0Z" fill="#3EA282"/>
<path d="M66.44 0H63.26V2H66.44V0Z" fill="#3EA282"/>
<path d="M69.58 0H66.4V2H69.58V0Z" fill="#3EA282"/>
<path d="M72.72 0H69.54V2H72.72V0Z" fill="#36A28E"/>
<path d="M75.86 0H72.68V2H75.86V0Z" fill="#36A28E"/>
<path d="M79 0H75.82V2H79V0Z" fill="#36A28E"/>
<path d="M82.14 0H78.96V2H82.14V0Z" fill="#30A29E"/>
<path d="M85.28 0H82.1V2H85.28V0Z" fill="#30A29E"/>
<path d="M88.42 0H85.24V2H88.42V0Z" fill="#279AA2"/>
<path d="M91.56 0H88.38V2H91.56V0Z" fill="#279AA2"/>
<path d="M226.71 23.6396H223.53V25.6396H226.71V23.6396Z" fill="#240C20"/>
<path d="M229.85 23.6396H226.67V25.6396H229.85V23.6396Z" fill="#240C20"/>
<path d="M232.98 23.6396H229.8V25.6396H232.98V23.6396Z" fill="#240C20"/>
<path d="M236.12 23.6396H232.94V25.6396H236.12V23.6396Z" fill="#240C20"/>
<path d="M239.27 23.6396H236.09V25.6396H239.27V23.6396Z" fill="#240C20"/>
<path d="M242.4 23.6396H239.22V25.6396H242.4V23.6396Z" fill="#240C20"/>
<path d="M85.28 23.6396H82.1V25.6396H85.28V23.6396Z" fill="#3D1838"/>
<path d="M88.42 23.6396H85.24V25.6396H88.42V23.6396Z" fill="#3D1838"/>
<path d="M91.56 23.6396H88.38V25.6396H91.56V23.6396Z" fill="#3D1838"/>
<path d="M47.6 21.6699H44.42V23.6699H47.6V21.6699Z" fill="#240C20"/>
<path d="M50.74 21.6699H47.56V23.6699H50.74V21.6699Z" fill="#240C20"/>
<path d="M53.88 21.6699H50.7V23.6699H53.88V21.6699Z" fill="#240C20"/>
<path d="M57.02 21.6699H53.84V23.6699H57.02V21.6699Z" fill="#240C20"/>
<path d="M311.56 13.7695H308.38V15.7695H311.56V13.7695Z" fill="#5B2550"/>
<path d="M317.84 13.7695H314.66V15.7695H317.84V13.7695Z" fill="#5B2550"/>
<path d="M324.11 13.7695H320.93V15.7695H324.11V13.7695Z" fill="#5B2550"/>
<path d="M330.39 13.7695H327.21V15.7695H330.39V13.7695Z" fill="#5B2550"/>
<path d="M295.86 11.7998H292.68V13.7998H295.86V11.7998Z" fill="#30D93E"/>
<path d="M299 11.7998H295.82V13.7998H299V11.7998Z" fill="#30D93E"/>
<path d="M302.14 11.7998H298.96V13.7998H302.14V11.7998Z" fill="white"/>
<path d="M305.28 11.7998H302.1V13.7998H305.28V11.7998Z" fill="white"/>
<path d="M295.86 9.83008H292.68V11.8301H295.86V9.83008Z" fill="#30D93E"/>
<path d="M299 9.83008H295.82V11.8301H299V9.83008Z" fill="#30D93E"/>
<path d="M302.14 9.83008H298.96V11.8301H302.14V9.83008Z" fill="white"/>
<path d="M305.28 9.83008H302.1V11.8301H305.28V9.83008Z" fill="white"/>
<path d="M295.86 7.87012H292.68V9.87012H295.86V7.87012Z" fill="#30D93E"/>
<path d="M299 7.87012H295.82V9.87012H299V7.87012Z" fill="#30D93E"/>
<path d="M302.14 7.87012H298.96V9.87012H302.14V7.87012Z" fill="white"/>
<path d="M305.28 7.87012H302.1V9.87012H305.28V7.87012Z" fill="white"/>
<path d="M295.86 5.90039H292.68V7.90039H295.86V5.90039Z" fill="#30D93E"/>
<path d="M299 5.90039H295.82V7.90039H299V5.90039Z" fill="#30D93E"/>
<path d="M302.14 5.90039H298.96V7.90039H302.14V5.90039Z" fill="white"/>
<path d="M305.28 5.90039H302.1V7.90039H305.28V5.90039Z" fill="white"/>
<path d="M295.86 3.92969H292.68V5.92969H295.86V3.92969Z" fill="#4AA272"/>
<path d="M311.56 3.92969H308.38V5.92969H311.56V3.92969Z" fill="#3EA282"/>
<path d="M314.7 3.92969H311.52V5.92969H314.7V3.92969Z" fill="#3EA282"/>
<path d="M317.84 3.92969H314.66V5.92969H317.84V3.92969Z" fill="#3EA282"/>
<path d="M320.98 3.92969H317.8V5.92969H320.98V3.92969Z" fill="#36A28E"/>
<path d="M324.11 3.92969H320.93V5.92969H324.11V3.92969Z" fill="#36A28E"/>
<path d="M327.25 3.92969H324.07V5.92969H327.25V3.92969Z" fill="#36A28E"/>
<path d="M330.39 3.92969H327.21V5.92969H330.39V3.92969Z" fill="#30A29E"/>
<path d="M295.86 1.96973H292.68V3.96973H295.86V1.96973Z" fill="#4AA272"/>
<path d="M311.56 1.96973H308.38V3.96973H311.56V1.96973Z" fill="#3EA282"/>
<path d="M314.7 1.96973H311.52V3.96973H314.7V1.96973Z" fill="#3EA282"/>
<path d="M317.84 1.96973H314.66V3.96973H317.84V1.96973Z" fill="#3EA282"/>
<path d="M320.98 1.96973H317.8V3.96973H320.98V1.96973Z" fill="#36A28E"/>
<path d="M324.11 1.96973H320.93V3.96973H324.11V1.96973Z" fill="#36A28E"/>
<path d="M327.25 1.96973H324.07V3.96973H327.25V1.96973Z" fill="#36A28E"/>
<path d="M330.39 1.96973H327.21V3.96973H330.39V1.96973Z" fill="#30A29E"/>
<path d="M295.86 0H292.68V2H295.86V0Z" fill="#4AA272"/>
<path d="M311.56 0H308.38V2H311.56V0Z" fill="#3EA282"/>
<path d="M314.7 0H311.52V2H314.7V0Z" fill="#3EA282"/>
<path d="M317.84 0H314.66V2H317.84V0Z" fill="#3EA282"/>
<path d="M320.98 0H317.8V2H320.98V0Z" fill="#36A28E"/>
<path d="M324.11 0H320.93V2H324.11V0Z" fill="#36A28E"/>
<path d="M327.25 0H324.07V2H327.25V0Z" fill="#36A28E"/>
<path d="M330.39 0H327.21V2H330.39V0Z" fill="#30A29E"/>
<path d="M295.86 21.6699H292.68V23.6699H295.86V21.6699Z" fill="#240C20"/>
<path d="M299 21.6699H295.82V23.6699H299V21.6699Z" fill="#240C20"/>
<path d="M302.14 21.6699H298.96V23.6699H302.14V21.6699Z" fill="#240C20"/>
<path d="M305.28 21.6699H302.1V23.6699H305.28V21.6699Z" fill="#240C20"/>
<path d="M267.24 164.76H260.82V166.49H267.24V164.76Z" fill="#5E637D"/>
<path d="M273.58 164.76H267.16V166.49H273.58V164.76Z" fill="#4E536E"/>
<path d="M279.92 164.76H273.5V166.49H279.92V164.76Z" fill="#454961"/>
<path d="M286.26 164.76H279.84V166.49H286.26V164.76Z" fill="#454961"/>
<path d="M174.64 164.76H171.08V166.49H174.64V164.76Z" fill="white"/>
<path d="M178.15 164.76H174.6V166.49H178.15V164.76Z" fill="white"/>
<path d="M185.18 164.76H181.62V166.49H185.18V164.76Z" fill="white"/>
<path d="M192.19 164.76H188.64V166.49H192.19V164.76Z" fill="white"/>
<path d="M195.7 164.76H192.15V166.49H195.7V164.76Z" fill="#46E8BB"/>
<path d="M199.23 164.76H195.67V166.49H199.23V164.76Z" fill="#040F39"/>
<path d="M202.74 164.76H199.18V166.49H202.74V164.76Z" fill="#041042"/>
<path d="M206.25 164.76H202.69V166.49H206.25V164.76Z" fill="#041042"/>
<path d="M209.76 164.76H206.2V166.49H209.76V164.76Z" fill="#041B4C"/>
<path d="M213.27 164.76H209.72V166.49H213.27V164.76Z" fill="#042C52"/>
<path d="M216.79 164.76H213.23V166.49H216.79V164.76Z" fill="#042C52"/>
<path d="M220.3 164.76H216.74V166.49H220.3V164.76Z" fill="#074E54"/>
<path d="M223.8 164.76H220.25V166.49H223.8V164.76Z" fill="#EC289C"/>
<path d="M230.83 164.76H227.27V166.49H230.83V164.76Z" fill="#EC289C"/>
<path d="M234.34 164.76H230.79V166.49H234.34V164.76Z" fill="#EC289C"/>
<path d="M237.86 164.76H234.3V166.49H237.86V164.76Z" fill="#EC289C"/>
<path d="M267.24 163.061H260.82V164.791H267.24V163.061Z" fill="#5E637D"/>
<path d="M273.58 163.061H267.16V164.791H273.58V163.061Z" fill="#4E536E"/>
<path d="M279.92 163.061H273.5V164.791H279.92V163.061Z" fill="#454961"/>
<path d="M286.26 163.061H279.84V164.791H286.26V163.061Z" fill="#454961"/>
<path d="M174.64 163.061H171.08V164.791H174.64V163.061Z" fill="white"/>
<path d="M178.15 163.061H174.6V164.791H178.15V163.061Z" fill="white"/>
<path d="M185.18 163.061H181.62V164.791H185.18V163.061Z" fill="white"/>
<path d="M192.19 163.061H188.64V164.791H192.19V163.061Z" fill="white"/>
<path d="M195.7 163.061H192.15V164.791H195.7V163.061Z" fill="#46E8BB"/>
<path d="M199.23 163.061H195.67V164.791H199.23V163.061Z" fill="#040F39"/>
<path d="M202.74 163.061H199.18V164.791H202.74V163.061Z" fill="#041042"/>
<path d="M206.25 163.061H202.69V164.791H206.25V163.061Z" fill="#041042"/>
<path d="M209.76 163.061H206.2V164.791H209.76V163.061Z" fill="#041B4C"/>
<path d="M213.27 163.061H209.72V164.791H213.27V163.061Z" fill="#042C52"/>
<path d="M216.79 163.061H213.23V164.791H216.79V163.061Z" fill="#042C52"/>
<path d="M220.3 163.061H216.74V164.791H220.3V163.061Z" fill="#074E54"/>
<path d="M223.8 163.061H220.25V164.791H223.8V163.061Z" fill="#EC289C"/>
<path d="M230.83 163.061H227.27V164.791H230.83V163.061Z" fill="#EC289C"/>
<path d="M234.34 163.061H230.79V164.791H234.34V163.061Z" fill="#EC289C"/>
<path d="M237.86 163.061H234.3V164.791H237.86V163.061Z" fill="#EC289C"/>
<path d="M267.24 161.37H260.82V163.1H267.24V161.37Z" fill="#5E637D"/>
<path d="M273.58 161.37H267.16V163.1H273.58V161.37Z" fill="#4E536E"/>
<path d="M279.92 161.37H273.5V163.1H279.92V161.37Z" fill="#454961"/>
<path d="M286.26 161.37H279.84V163.1H286.26V161.37Z" fill="#454961"/>
<path d="M174.64 161.37H171.08V163.1H174.64V161.37Z" fill="white"/>
<path d="M178.15 161.37H174.6V163.1H178.15V161.37Z" fill="white"/>
<path d="M185.18 161.37H181.62V163.1H185.18V161.37Z" fill="white"/>
<path d="M192.19 161.37H188.64V163.1H192.19V161.37Z" fill="white"/>
<path d="M195.7 161.37H192.15V163.1H195.7V161.37Z" fill="#46E8BB"/>
<path d="M199.23 161.37H195.67V163.1H199.23V161.37Z" fill="#040F39"/>
<path d="M202.74 161.37H199.18V163.1H202.74V161.37Z" fill="#041042"/>
<path d="M206.25 161.37H202.69V163.1H206.25V161.37Z" fill="#041042"/>
<path d="M209.76 161.37H206.2V163.1H209.76V161.37Z" fill="#041B4C"/>
<path d="M213.27 161.37H209.72V163.1H213.27V161.37Z" fill="#042C52"/>
<path d="M216.79 161.37H213.23V163.1H216.79V161.37Z" fill="#042C52"/>
<path d="M220.3 161.37H216.74V163.1H220.3V161.37Z" fill="#074E54"/>
<path d="M223.8 161.37H220.25V163.1H223.8V161.37Z" fill="#EC289C"/>
<path d="M230.83 161.37H227.27V163.1H230.83V161.37Z" fill="#EC289C"/>
<path d="M234.34 161.37H230.79V163.1H234.34V161.37Z" fill="#EC289C"/>
<path d="M237.86 161.37H234.3V163.1H237.86V161.37Z" fill="#EC289C"/>
<path d="M150.12 173.25H146.56V174.98H150.12V173.25Z" fill="#5B2550"/>
<path d="M157.15 173.25H153.59V174.98H157.15V173.25Z" fill="#5B2550"/>
<path d="M164.17 173.25H160.61V174.98H164.17V173.25Z" fill="#5B2550"/>
<path d="M171.19 173.25H167.63V174.98H171.19V173.25Z" fill="#5B2550"/>
<path d="M132.56 171.55H129V173.28H132.56V171.55Z" fill="#30D93E"/>
<path d="M136.07 171.55H132.51V173.28H136.07V171.55Z" fill="#30D93E"/>
<path d="M139.58 171.55H136.02V173.28H139.58V171.55Z" fill="white"/>
<path d="M143.1 171.55H139.54V173.28H143.1V171.55Z" fill="white"/>
<path d="M132.56 169.851H129V171.581H132.56V169.851Z" fill="#30D93E"/>
<path d="M136.07 169.851H132.51V171.581H136.07V169.851Z" fill="#30D93E"/>
<path d="M139.58 169.851H136.02V171.581H139.58V169.851Z" fill="white"/>
<path d="M143.1 169.851H139.54V171.581H143.1V169.851Z" fill="white"/>
<path d="M132.56 168.16H129V169.88H132.56V168.16Z" fill="#30D93E"/>
<path d="M136.07 168.16H132.51V169.88H136.07V168.16Z" fill="#30D93E"/>
<path d="M139.58 168.16H136.02V169.88H139.58V168.16Z" fill="white"/>
<path d="M143.1 168.16H139.54V169.88H143.1V168.16Z" fill="white"/>
<path d="M132.56 166.46H129V168.19H132.56V166.46Z" fill="#30D93E"/>
<path d="M136.07 166.46H132.51V168.19H136.07V166.46Z" fill="#30D93E"/>
<path d="M139.58 166.46H136.02V168.19H139.58V166.46Z" fill="white"/>
<path d="M143.1 166.46H139.54V168.19H143.1V166.46Z" fill="white"/>
<path d="M132.56 164.76H129V166.49H132.56V164.76Z" fill="#4AA272"/>
<path d="M150.12 164.76H146.56V166.49H150.12V164.76Z" fill="#3EA282"/>
<path d="M153.63 164.76H150.07V166.49H153.63V164.76Z" fill="#3EA282"/>
<path d="M157.15 164.76H153.59V166.49H157.15V164.76Z" fill="#3EA282"/>
<path d="M164.17 164.76H160.61V166.49H164.17V164.76Z" fill="#36A28E"/>
<path d="M167.68 164.76H164.12V166.49H167.68V164.76Z" fill="#36A28E"/>
<path d="M171.19 164.76H167.63V166.49H171.19V164.76Z" fill="#30A29E"/>
<path d="M132.56 163.061H129V164.791H132.56V163.061Z" fill="#4AA272"/>
<path d="M150.12 163.061H146.56V164.791H150.12V163.061Z" fill="#3EA282"/>
<path d="M153.63 163.061H150.07V164.791H153.63V163.061Z" fill="#3EA282"/>
<path d="M157.15 163.061H153.59V164.791H157.15V163.061Z" fill="#3EA282"/>
<path d="M164.17 163.061H160.61V164.791H164.17V163.061Z" fill="#36A28E"/>
<path d="M167.68 163.061H164.12V164.791H167.68V163.061Z" fill="#36A28E"/>
<path d="M171.19 163.061H167.63V164.791H171.19V163.061Z" fill="#30A29E"/>
<path d="M132.56 161.37H129V163.1H132.56V161.37Z" fill="#4AA272"/>
<path d="M150.12 161.37H146.56V163.1H150.12V161.37Z" fill="#3EA282"/>
<path d="M153.63 161.37H150.07V163.1H153.63V161.37Z" fill="#3EA282"/>
<path d="M157.15 161.37H153.59V163.1H157.15V161.37Z" fill="#3EA282"/>
<path d="M164.17 161.37H160.61V163.1H164.17V161.37Z" fill="#36A28E"/>
<path d="M167.68 161.37H164.12V163.1H167.68V161.37Z" fill="#36A28E"/>
<path d="M171.19 161.37H167.63V163.1H171.19V161.37Z" fill="#30A29E"/>
<path d="M132.56 180.061H129V181.791H132.56V180.061Z" fill="#240C20"/>
<path d="M136.07 180.061H132.51V181.791H136.07V180.061Z" fill="#240C20"/>
<path d="M139.58 180.061H136.02V181.791H139.58V180.061Z" fill="#240C20"/>
<path d="M143.1 180.061H139.54V181.791H143.1V180.061Z" fill="#240C20"/>
</svg>
