<svg width="431" height="101" viewBox="0 0 431 101" fill="none" xmlns="http://www.w3.org/2000/svg">
<path d="M430.23 86.8291H427.05V88.8291H430.23V86.8291Z" fill="white"/>
<path d="M420.81 86.8291H417.63V88.8291H420.81V86.8291Z" fill="#30D93E"/>
<path d="M417.67 86.8291H414.49V88.8291H417.67V86.8291Z" fill="#30D93E"/>
<path d="M414.53 86.8291H411.35V88.8291H414.53V86.8291Z" fill="white"/>
<path d="M411.39 86.8291H408.21V88.8291H411.39V86.8291Z" fill="white"/>
<path d="M430.23 84.8594H427.05V86.8594H430.23V84.8594Z" fill="white"/>
<path d="M420.81 84.8594H417.63V86.8594H420.81V84.8594Z" fill="#30D93E"/>
<path d="M417.67 84.8594H414.49V86.8594H417.67V84.8594Z" fill="#30D93E"/>
<path d="M414.53 84.8594H411.35V86.8594H414.53V84.8594Z" fill="white"/>
<path d="M411.39 84.8594H408.21V86.8594H411.39V84.8594Z" fill="white"/>
<path d="M430.23 82.8896H427.05V84.8896H430.23V82.8896Z" fill="white"/>
<path d="M420.81 82.8896H417.63V84.8896H420.81V82.8896Z" fill="#30D93E"/>
<path d="M417.67 82.8896H414.49V84.8896H417.67V82.8896Z" fill="#30D93E"/>
<path d="M414.53 82.8896H411.35V84.8896H414.53V82.8896Z" fill="white"/>
<path d="M411.39 82.8896H408.21V84.8896H411.39V82.8896Z" fill="white"/>
<path d="M430.23 80.9199H427.05V82.9199H430.23V80.9199Z" fill="white"/>
<path d="M420.81 80.9199H417.63V82.9199H420.81V80.9199Z" fill="#30D93E"/>
<path d="M417.67 80.9199H414.49V82.9199H417.67V80.9199Z" fill="#30D93E"/>
<path d="M414.53 80.9199H411.35V82.9199H414.53V80.9199Z" fill="white"/>
<path d="M411.39 80.9199H408.21V82.9199H411.39V80.9199Z" fill="white"/>
<path d="M430.23 78.96H427.05V80.96H430.23V78.96Z" fill="#F573AF"/>
<path d="M427.09 78.96H423.91V80.96H427.09V78.96Z" fill="#F573AF"/>
<path d="M423.95 78.96H420.77V80.96H423.95V78.96Z" fill="#D24FEF"/>
<path d="M420.81 78.96H417.63V80.96H420.81V78.96Z" fill="#D24FEF"/>
<path d="M417.67 78.96H414.49V80.96H417.67V78.96Z" fill="#EF47EE"/>
<path d="M414.53 78.96H411.35V80.96H414.53V78.96Z" fill="#EF47EE"/>
<path d="M411.39 78.96H408.21V80.96H411.39V78.96Z" fill="#EB39D1"/>
<path d="M408.25 78.96H405.07V80.96H408.25V78.96Z" fill="#EB35C1"/>
<path d="M405.11 78.96H401.93V80.96H405.11V78.96Z" fill="#4AA272"/>
<path d="M401.98 78.96H398.8V80.96H401.98V78.96Z" fill="#4AA272"/>
<path d="M398.83 78.96H395.65V80.96H398.83V78.96Z" fill="#4AA272"/>
<path d="M430.23 76.9893H427.05V78.9893H430.23V76.9893Z" fill="#F573AF"/>
<path d="M427.09 76.9893H423.91V78.9893H427.09V76.9893Z" fill="#F573AF"/>
<path d="M423.95 76.9893H420.77V78.9893H423.95V76.9893Z" fill="#D24FEF"/>
<path d="M420.81 76.9893H417.63V78.9893H420.81V76.9893Z" fill="#D24FEF"/>
<path d="M417.67 76.9893H414.49V78.9893H417.67V76.9893Z" fill="#EF47EE"/>
<path d="M414.53 76.9893H411.35V78.9893H414.53V76.9893Z" fill="#EF47EE"/>
<path d="M411.39 76.9893H408.21V78.9893H411.39V76.9893Z" fill="#EB39D1"/>
<path d="M408.25 76.9893H405.07V78.9893H408.25V76.9893Z" fill="#EB35C1"/>
<path d="M405.11 76.9893H401.93V78.9893H405.11V76.9893Z" fill="#4AA272"/>
<path d="M401.98 76.9893H398.8V78.9893H401.98V76.9893Z" fill="#4AA272"/>
<path d="M398.83 76.9893H395.65V78.9893H398.83V76.9893Z" fill="#4AA272"/>
<path d="M430.23 75.0195H427.05V77.0195H430.23V75.0195Z" fill="#F573AF"/>
<path d="M427.09 75.0195H423.91V77.0195H427.09V75.0195Z" fill="#F573AF"/>
<path d="M423.95 75.0195H420.77V77.0195H423.95V75.0195Z" fill="#D24FEF"/>
<path d="M420.81 75.0195H417.63V77.0195H420.81V75.0195Z" fill="#D24FEF"/>
<path d="M417.67 75.0195H414.49V77.0195H417.67V75.0195Z" fill="#EF47EE"/>
<path d="M414.53 75.0195H411.35V77.0195H414.53V75.0195Z" fill="#EF47EE"/>
<path d="M411.39 75.0195H408.21V77.0195H411.39V75.0195Z" fill="#EB39D1"/>
<path d="M408.25 75.0195H405.07V77.0195H408.25V75.0195Z" fill="#EB35C1"/>
<path d="M405.11 75.0195H401.93V77.0195H405.11V75.0195Z" fill="#4AA272"/>
<path d="M401.98 75.0195H398.8V77.0195H401.98V75.0195Z" fill="#4AA272"/>
<path d="M398.83 75.0195H395.65V77.0195H398.83V75.0195Z" fill="#4AA272"/>
<path d="M414.53 98.6592H411.35V100.659H414.53V98.6592Z" fill="#240C20"/>
<path d="M411.39 98.6592H408.21V100.659H411.39V98.6592Z" fill="#240C20"/>
<path d="M408.25 98.6592H405.07V100.659H408.25V98.6592Z" fill="#240C20"/>
<path d="M405.11 98.6592H401.93V100.659H405.11V98.6592Z" fill="#240C20"/>
<path d="M401.98 98.6592H398.8V100.659H401.98V98.6592Z" fill="#240C20"/>
<path d="M398.83 98.6592H395.65V100.659H398.83V98.6592Z" fill="#240C20"/>
<path d="M323.48 64.46H320.3V66.46H323.48V64.46Z" fill="#FFF01F"/>
<path d="M304.65 72.4199H301.47V74.4199H304.65V72.4199Z" fill="#BFBFBF"/>
<path d="M307.79 72.4199H304.61V74.4199H307.79V72.4199Z" fill="#170213"/>
<path d="M310.93 72.4199H307.75V74.4199H310.93V72.4199Z" fill="white"/>
<path d="M314.07 72.4199H310.89V74.4199H314.07V72.4199Z" fill="white"/>
<path d="M260.59 76.3604H257.41V78.3604H260.59V76.3604Z" fill="#27A514"/>
<path d="M263.73 76.3604H260.55V78.3604H263.73V76.3604Z" fill="#27A514"/>
<path d="M266.87 76.3604H263.69V78.3604H266.87V76.3604Z" fill="#1B9708"/>
<path d="M270.01 76.3604H266.83V78.3604H270.01V76.3604Z" fill="#EC289C"/>
<path d="M273.15 76.3604H269.97V78.3604H273.15V76.3604Z" fill="#EC289C"/>
<path d="M276.29 76.3604H273.11V78.3604H276.29V76.3604Z" fill="#1B002B"/>
<path d="M279.43 76.3604H276.25V78.3604H279.43V76.3604Z" fill="#110019"/>
<path d="M282.57 76.3604H279.39V78.3604H282.57V76.3604Z" fill="#0F281A"/>
<path d="M285.71 76.3604H282.53V78.3604H285.71V76.3604Z" fill="#EC289C"/>
<path d="M288.85 76.3604H285.67V78.3604H288.85V76.3604Z" fill="#EC289C"/>
<path d="M291.99 76.3604H288.81V78.3604H291.99V76.3604Z" fill="#EC289C"/>
<path d="M295.13 76.3604H291.95V78.3604H295.13V76.3604Z" fill="#0D2417"/>
<path d="M298.27 76.3604H295.09V78.3604H298.27V76.3604Z" fill="#07140D"/>
<path d="M301.4 76.3604H298.22V78.3604H301.4V76.3604Z" fill="#070C12"/>
<path d="M260.59 78.3301H257.41V80.3301H260.59V78.3301Z" fill="#27A514"/>
<path d="M263.73 78.3301H260.55V80.3301H263.73V78.3301Z" fill="#27A514"/>
<path d="M266.87 78.3301H263.69V80.3301H266.87V78.3301Z" fill="#1B9708"/>
<path d="M270.01 78.3301H266.83V80.3301H270.01V78.3301Z" fill="#EC289C"/>
<path d="M273.15 78.3301H269.97V80.3301H273.15V78.3301Z" fill="#EC289C"/>
<path d="M276.29 78.3301H273.11V80.3301H276.29V78.3301Z" fill="#1B002B"/>
<path d="M279.43 78.3301H276.25V80.3301H279.43V78.3301Z" fill="#110019"/>
<path d="M282.57 78.3301H279.39V80.3301H282.57V78.3301Z" fill="#0F281A"/>
<path d="M285.71 78.3301H282.53V80.3301H285.71V78.3301Z" fill="#EC289C"/>
<path d="M288.85 78.3301H285.67V80.3301H288.85V78.3301Z" fill="#EC289C"/>
<path d="M291.99 78.3301H288.81V80.3301H291.99V78.3301Z" fill="#EC289C"/>
<path d="M295.13 78.3301H291.95V80.3301H295.13V78.3301Z" fill="#0D2417"/>
<path d="M298.27 78.3301H295.09V80.3301H298.27V78.3301Z" fill="#07140D"/>
<path d="M301.4 78.3301H298.22V80.3301H301.4V78.3301Z" fill="#070C12"/>
<path d="M260.59 80.29H257.41V82.29H260.59V80.29Z" fill="#27A514"/>
<path d="M263.73 80.29H260.55V82.29H263.73V80.29Z" fill="#27A514"/>
<path d="M266.87 80.29H263.69V82.29H266.87V80.29Z" fill="#1B9708"/>
<path d="M270.01 80.29H266.83V82.29H270.01V80.29Z" fill="#EC289C"/>
<path d="M273.15 80.29H269.97V82.29H273.15V80.29Z" fill="#EC289C"/>
<path d="M276.29 80.29H273.11V82.29H276.29V80.29Z" fill="#1B002B"/>
<path d="M279.43 80.29H276.25V82.29H279.43V80.29Z" fill="#110019"/>
<path d="M282.57 80.29H279.39V82.29H282.57V80.29Z" fill="#0F281A"/>
<path d="M285.71 80.29H282.53V82.29H285.71V80.29Z" fill="#EC289C"/>
<path d="M288.85 80.29H285.67V82.29H288.85V80.29Z" fill="#EC289C"/>
<path d="M291.99 80.29H288.81V82.29H291.99V80.29Z" fill="#EC289C"/>
<path d="M295.13 80.29H291.95V82.29H295.13V80.29Z" fill="#0D2417"/>
<path d="M298.27 80.29H295.09V82.29H298.27V80.29Z" fill="#07140D"/>
<path d="M301.4 80.29H298.22V82.29H301.4V80.29Z" fill="#070C12"/>
<path d="M5.29999 3.92969H0.570007V5.92969H5.29999V3.92969Z" fill="white"/>
<path d="M9.95996 3.92969H5.22998V5.92969H9.95996V3.92969Z" fill="white"/>
<path d="M14.63 3.92969H9.90002V5.92969H14.63V3.92969Z" fill="white"/>
<path d="M19.29 3.92969H14.57V5.92969H19.29V3.92969Z" fill="white"/>
<path d="M23.96 3.92969H19.24V5.92969H23.96V3.92969Z" fill="#46E8BB"/>
<path d="M28.64 3.92969H23.91V5.92969H28.64V3.92969Z" fill="#040F39"/>
<path d="M33.31 3.92969H28.58V5.92969H33.31V3.92969Z" fill="#041042"/>
<path d="M37.97 3.92969H33.24V5.92969H37.97V3.92969Z" fill="#041042"/>
<path d="M42.64 3.92969H37.91V5.92969H42.64V3.92969Z" fill="#041B4C"/>
<path d="M47.3 3.92969H42.58V5.92969H47.3V3.92969Z" fill="#042C52"/>
<path d="M51.98 3.92969H47.25V5.92969H51.98V3.92969Z" fill="#042C52"/>
<path d="M56.65 3.92969H51.92V5.92969H56.65V3.92969Z" fill="#074E54"/>
<path d="M61.3 3.92969H56.58V5.92969H61.3V3.92969Z" fill="#EC289C"/>
<path d="M65.98 3.92969H61.25V5.92969H65.98V3.92969Z" fill="#EC289C"/>
<path d="M70.65 3.92969H65.92V5.92969H70.65V3.92969Z" fill="#EC289C"/>
<path d="M75.31 3.92969H70.59V5.92969H75.31V3.92969Z" fill="#EC289C"/>
<path d="M79.99 3.92969H75.26V5.92969H79.99V3.92969Z" fill="#EC289C"/>
<path d="M5.29999 1.96973H0.570007V3.96973H5.29999V1.96973Z" fill="white"/>
<path d="M9.95996 1.96973H5.22998V3.96973H9.95996V1.96973Z" fill="white"/>
<path d="M14.63 1.96973H9.90002V3.96973H14.63V1.96973Z" fill="white"/>
<path d="M19.29 1.96973H14.57V3.96973H19.29V1.96973Z" fill="white"/>
<path d="M23.96 1.96973H19.24V3.96973H23.96V1.96973Z" fill="#46E8BB"/>
<path d="M28.64 1.96973H23.91V3.96973H28.64V1.96973Z" fill="#040F39"/>
<path d="M33.31 1.96973H28.58V3.96973H33.31V1.96973Z" fill="#041042"/>
<path d="M37.97 1.96973H33.24V3.96973H37.97V1.96973Z" fill="#041042"/>
<path d="M42.64 1.96973H37.91V3.96973H42.64V1.96973Z" fill="#041B4C"/>
<path d="M47.3 1.96973H42.58V3.96973H47.3V1.96973Z" fill="#042C52"/>
<path d="M51.98 1.96973H47.25V3.96973H51.98V1.96973Z" fill="#042C52"/>
<path d="M56.65 1.96973H51.92V3.96973H56.65V1.96973Z" fill="#074E54"/>
<path d="M61.3 1.96973H56.58V3.96973H61.3V1.96973Z" fill="#EC289C"/>
<path d="M65.98 1.96973H61.25V3.96973H65.98V1.96973Z" fill="#EC289C"/>
<path d="M70.65 1.96973H65.92V3.96973H70.65V1.96973Z" fill="#EC289C"/>
<path d="M75.31 1.96973H70.59V3.96973H75.31V1.96973Z" fill="#EC289C"/>
<path d="M79.99 1.96973H75.26V3.96973H79.99V1.96973Z" fill="#EC289C"/>
<path d="M5.29999 0H0.570007V2H5.29999V0Z" fill="white"/>
<path d="M9.95996 0H5.22998V2H9.95996V0Z" fill="white"/>
<path d="M14.63 0H9.90002V2H14.63V0Z" fill="white"/>
<path d="M19.29 0H14.57V2H19.29V0Z" fill="white"/>
<path d="M23.96 0H19.24V2H23.96V0Z" fill="#46E8BB"/>
<path d="M28.64 0H23.91V2H28.64V0Z" fill="#040F39"/>
<path d="M33.31 0H28.58V2H33.31V0Z" fill="#041042"/>
<path d="M37.97 0H33.24V2H37.97V0Z" fill="#041042"/>
<path d="M42.64 0H37.91V2H42.64V0Z" fill="#041B4C"/>
<path d="M47.3 0H42.58V2H47.3V0Z" fill="#042C52"/>
<path d="M51.98 0H47.25V2H51.98V0Z" fill="#042C52"/>
<path d="M56.65 0H51.92V2H56.65V0Z" fill="#074E54"/>
<path d="M61.3 0H56.58V2H61.3V0Z" fill="#EC289C"/>
<path d="M65.98 0H61.25V2H65.98V0Z" fill="#EC289C"/>
<path d="M70.65 0H65.92V2H70.65V0Z" fill="#EC289C"/>
<path d="M75.31 0H70.59V2H75.31V0Z" fill="#EC289C"/>
<path d="M79.99 0H75.26V2H79.99V0Z" fill="#EC289C"/>
</svg>
