<svg width="296" height="451" viewBox="0 0 296 451" fill="none" xmlns="http://www.w3.org/2000/svg">
<g clip-path="url(#clip0_688_158952)">
<path d="M132.61 433.97H129.05V435.7H132.61V433.97Z" fill="white"/>
<path d="M136.11 433.97H132.56V435.7H136.11V433.97Z" fill="white"/>
<path d="M143.14 433.97H139.58V435.7H143.14V433.97Z" fill="white"/>
<path d="M150.16 433.97H146.61V435.7H150.16V433.97Z" fill="white"/>
<path d="M153.67 433.97H150.12V435.7H153.67V433.97Z" fill="#46E8BB"/>
<path d="M157.19 433.97H153.63V435.7H157.19V433.97Z" fill="#040F39"/>
<path d="M160.7 433.97H157.14V435.7H160.7V433.97Z" fill="#041042"/>
<path d="M164.22 433.97H160.66V435.7H164.22V433.97Z" fill="#041042"/>
<path d="M167.73 433.97H164.17V435.7H167.73V433.97Z" fill="#041B4C"/>
<path d="M171.23 433.97H167.68V435.7H171.23V433.97Z" fill="#042C52"/>
<path d="M174.75 433.97H171.19V435.7H174.75V433.97Z" fill="#042C52"/>
<path d="M178.26 433.97H174.7V435.7H178.26V433.97Z" fill="#074E54"/>
<path d="M181.77 433.97H178.22V435.7H181.77V433.97Z" fill="#EC289C"/>
<path d="M188.8 433.97H185.24V435.7H188.8V433.97Z" fill="#EC289C"/>
<path d="M192.3 433.97H188.75V435.7H192.3V433.97Z" fill="#EC289C"/>
<path d="M195.82 433.97H192.26V435.7H195.82V433.97Z" fill="#EC289C"/>
<path d="M132.61 432.28H129.05V434.01H132.61V432.28Z" fill="white"/>
<path d="M136.11 432.28H132.56V434.01H136.11V432.28Z" fill="white"/>
<path d="M143.14 432.28H139.58V434.01H143.14V432.28Z" fill="white"/>
<path d="M150.16 432.28H146.61V434.01H150.16V432.28Z" fill="white"/>
<path d="M153.67 432.28H150.12V434.01H153.67V432.28Z" fill="#46E8BB"/>
<path d="M157.19 432.28H153.63V434.01H157.19V432.28Z" fill="#040F39"/>
<path d="M160.7 432.28H157.14V434.01H160.7V432.28Z" fill="#041042"/>
<path d="M164.22 432.28H160.66V434.01H164.22V432.28Z" fill="#041042"/>
<path d="M167.73 432.28H164.17V434.01H167.73V432.28Z" fill="#041B4C"/>
<path d="M171.23 432.28H167.68V434.01H171.23V432.28Z" fill="#042C52"/>
<path d="M174.75 432.28H171.19V434.01H174.75V432.28Z" fill="#042C52"/>
<path d="M178.26 432.28H174.7V434.01H178.26V432.28Z" fill="#074E54"/>
<path d="M181.77 432.28H178.22V434.01H181.77V432.28Z" fill="#EC289C"/>
<path d="M188.8 432.28H185.24V434.01H188.8V432.28Z" fill="#EC289C"/>
<path d="M192.3 432.28H188.75V434.01H192.3V432.28Z" fill="#EC289C"/>
<path d="M195.82 432.28H192.26V434.01H195.82V432.28Z" fill="#EC289C"/>
<path d="M132.61 430.58H129.05V432.31H132.61V430.58Z" fill="white"/>
<path d="M136.11 430.58H132.56V432.31H136.11V430.58Z" fill="white"/>
<path d="M143.14 430.58H139.58V432.31H143.14V430.58Z" fill="white"/>
<path d="M150.16 430.58H146.61V432.31H150.16V430.58Z" fill="white"/>
<path d="M153.67 430.58H150.12V432.31H153.67V430.58Z" fill="#46E8BB"/>
<path d="M157.19 430.58H153.63V432.31H157.19V430.58Z" fill="#040F39"/>
<path d="M160.7 430.58H157.14V432.31H160.7V430.58Z" fill="#041042"/>
<path d="M164.22 430.58H160.66V432.31H164.22V430.58Z" fill="#041042"/>
<path d="M167.73 430.58H164.17V432.31H167.73V430.58Z" fill="#041B4C"/>
<path d="M171.23 430.58H167.68V432.31H171.23V430.58Z" fill="#042C52"/>
<path d="M174.75 430.58H171.19V432.31H174.75V430.58Z" fill="#042C52"/>
<path d="M178.26 430.58H174.7V432.31H178.26V430.58Z" fill="#074E54"/>
<path d="M181.77 430.58H178.22V432.31H181.77V430.58Z" fill="#EC289C"/>
<path d="M188.8 430.58H185.24V432.31H188.8V430.58Z" fill="#EC289C"/>
<path d="M192.3 430.58H188.75V432.31H192.3V430.58Z" fill="#EC289C"/>
<path d="M195.82 430.58H192.26V432.31H195.82V430.58Z" fill="#EC289C"/>
<path d="M108.08 442.46H104.52V444.19H108.08V442.46Z" fill="#5B2550"/>
<path d="M115.11 442.46H111.55V444.19H115.11V442.46Z" fill="#5B2550"/>
<path d="M122.13 442.46H118.57V444.19H122.13V442.46Z" fill="#5B2550"/>
<path d="M129.16 442.46H125.6V444.19H129.16V442.46Z" fill="#5B2550"/>
<path d="M90.53 440.76H86.97V442.49H90.53V440.76Z" fill="#30D93E"/>
<path d="M94.04 440.76H90.48V442.49H94.04V440.76Z" fill="#30D93E"/>
<path d="M97.55 440.76H93.99V442.49H97.55V440.76Z" fill="white"/>
<path d="M101.06 440.76H97.5V442.49H101.06V440.76Z" fill="white"/>
<path d="M90.53 439.061H86.97V440.791H90.53V439.061Z" fill="#30D93E"/>
<path d="M94.04 439.061H90.48V440.791H94.04V439.061Z" fill="#30D93E"/>
<path d="M97.55 439.061H93.99V440.791H97.55V439.061Z" fill="white"/>
<path d="M101.06 439.061H97.5V440.791H101.06V439.061Z" fill="white"/>
<path d="M90.53 437.37H86.97V439.09H90.53V437.37Z" fill="#30D93E"/>
<path d="M94.04 437.37H90.48V439.09H94.04V437.37Z" fill="#30D93E"/>
<path d="M97.55 437.37H93.99V439.09H97.55V437.37Z" fill="white"/>
<path d="M101.06 437.37H97.5V439.09H101.06V437.37Z" fill="white"/>
<path d="M90.53 435.67H86.97V437.4H90.53V435.67Z" fill="#30D93E"/>
<path d="M94.04 435.67H90.48V437.4H94.04V435.67Z" fill="#30D93E"/>
<path d="M97.55 435.67H93.99V437.4H97.55V435.67Z" fill="white"/>
<path d="M101.06 435.67H97.5V437.4H101.06V435.67Z" fill="white"/>
<path d="M90.53 433.97H86.97V435.7H90.53V433.97Z" fill="#4AA272"/>
<path d="M108.08 433.97H104.52V435.7H108.08V433.97Z" fill="#3EA282"/>
<path d="M111.6 433.97H108.04V435.7H111.6V433.97Z" fill="#3EA282"/>
<path d="M115.11 433.97H111.55V435.7H115.11V433.97Z" fill="#3EA282"/>
<path d="M122.13 433.97H118.57V435.7H122.13V433.97Z" fill="#36A28E"/>
<path d="M125.64 433.97H122.08V435.7H125.64V433.97Z" fill="#36A28E"/>
<path d="M129.16 433.97H125.6V435.7H129.16V433.97Z" fill="#30A29E"/>
<path d="M90.53 432.28H86.97V434.01H90.53V432.28Z" fill="#4AA272"/>
<path d="M108.08 432.28H104.52V434.01H108.08V432.28Z" fill="#3EA282"/>
<path d="M111.6 432.28H108.04V434.01H111.6V432.28Z" fill="#3EA282"/>
<path d="M115.11 432.28H111.55V434.01H115.11V432.28Z" fill="#3EA282"/>
<path d="M122.13 432.28H118.57V434.01H122.13V432.28Z" fill="#36A28E"/>
<path d="M125.64 432.28H122.08V434.01H125.64V432.28Z" fill="#36A28E"/>
<path d="M129.16 432.28H125.6V434.01H129.16V432.28Z" fill="#30A29E"/>
<path d="M90.53 430.58H86.97V432.31H90.53V430.58Z" fill="#4AA272"/>
<path d="M108.08 430.58H104.52V432.31H108.08V430.58Z" fill="#3EA282"/>
<path d="M111.6 430.58H108.04V432.31H111.6V430.58Z" fill="#3EA282"/>
<path d="M115.11 430.58H111.55V432.31H115.11V430.58Z" fill="#3EA282"/>
<path d="M122.13 430.58H118.57V432.31H122.13V430.58Z" fill="#36A28E"/>
<path d="M125.64 430.58H122.08V432.31H125.64V430.58Z" fill="#36A28E"/>
<path d="M129.16 430.58H125.6V432.31H129.16V430.58Z" fill="#30A29E"/>
<path d="M90.53 449.28H86.97V451.01H90.53V449.28Z" fill="#240C20"/>
<path d="M94.04 449.28H90.48V451.01H94.04V449.28Z" fill="#240C20"/>
<path d="M97.55 449.28H93.99V451.01H97.55V449.28Z" fill="#240C20"/>
<path d="M101.06 449.28H97.5V451.01H101.06V449.28Z" fill="#240C20"/>
<path d="M295.62 186.23H293.43V187.61H295.62V186.23Z" fill="white"/>
<path d="M289.14 186.23H286.95V187.61H289.14V186.23Z" fill="#30D93E"/>
<path d="M286.98 186.23H284.79V187.61H286.98V186.23Z" fill="#30D93E"/>
<path d="M284.82 186.23H282.63V187.61H284.82V186.23Z" fill="white"/>
<path d="M282.66 186.23H280.47V187.61H282.66V186.23Z" fill="white"/>
<path d="M295.62 184.88H293.43V186.26H295.62V184.88Z" fill="white"/>
<path d="M289.14 184.88H286.95V186.26H289.14V184.88Z" fill="#30D93E"/>
<path d="M286.98 184.88H284.79V186.26H286.98V184.88Z" fill="#30D93E"/>
<path d="M284.82 184.88H282.63V186.26H284.82V184.88Z" fill="white"/>
<path d="M282.66 184.88H280.47V186.26H282.66V184.88Z" fill="white"/>
<path d="M295.62 183.521H293.43V184.9H295.62V183.521Z" fill="white"/>
<path d="M289.14 183.521H286.95V184.9H289.14V183.521Z" fill="#30D93E"/>
<path d="M286.98 183.521H284.79V184.9H286.98V183.521Z" fill="#30D93E"/>
<path d="M284.82 183.521H282.63V184.9H284.82V183.521Z" fill="white"/>
<path d="M282.66 183.521H280.47V184.9H282.66V183.521Z" fill="white"/>
<path d="M295.62 182.17H293.43V183.55H295.62V182.17Z" fill="white"/>
<path d="M289.14 182.17H286.95V183.55H289.14V182.17Z" fill="#30D93E"/>
<path d="M286.98 182.17H284.79V183.55H286.98V182.17Z" fill="#30D93E"/>
<path d="M284.82 182.17H282.63V183.55H284.82V182.17Z" fill="white"/>
<path d="M282.66 182.17H280.47V183.55H282.66V182.17Z" fill="white"/>
<path d="M295.62 180.82H293.43V182.2H295.62V180.82Z" fill="#F573AF"/>
<path d="M293.46 180.82H291.27V182.2H293.46V180.82Z" fill="#F573AF"/>
<path d="M291.3 180.82H289.11V182.2H291.3V180.82Z" fill="#D24FEF"/>
<path d="M289.14 180.82H286.95V182.2H289.14V180.82Z" fill="#D24FEF"/>
<path d="M286.98 180.82H284.79V182.2H286.98V180.82Z" fill="#EF47EE"/>
<path d="M284.82 180.82H282.63V182.2H284.82V180.82Z" fill="#EF47EE"/>
<path d="M282.66 180.82H280.47V182.2H282.66V180.82Z" fill="#EB39D1"/>
<path d="M280.5 180.82H278.31V182.2H280.5V180.82Z" fill="#EB35C1"/>
<path d="M278.34 180.82H276.15V182.2H278.34V180.82Z" fill="#4AA272"/>
<path d="M276.18 180.82H273.99V182.2H276.18V180.82Z" fill="#4AA272"/>
<path d="M274.02 180.82H271.83V182.2H274.02V180.82Z" fill="#4AA272"/>
<path d="M295.62 179.46H293.43V180.84H295.62V179.46Z" fill="#F573AF"/>
<path d="M293.46 179.46H291.27V180.84H293.46V179.46Z" fill="#F573AF"/>
<path d="M291.3 179.46H289.11V180.84H291.3V179.46Z" fill="#D24FEF"/>
<path d="M289.14 179.46H286.95V180.84H289.14V179.46Z" fill="#D24FEF"/>
<path d="M286.98 179.46H284.79V180.84H286.98V179.46Z" fill="#EF47EE"/>
<path d="M284.82 179.46H282.63V180.84H284.82V179.46Z" fill="#EF47EE"/>
<path d="M282.66 179.46H280.47V180.84H282.66V179.46Z" fill="#EB39D1"/>
<path d="M280.5 179.46H278.31V180.84H280.5V179.46Z" fill="#EB35C1"/>
<path d="M278.34 179.46H276.15V180.84H278.34V179.46Z" fill="#4AA272"/>
<path d="M276.18 179.46H273.99V180.84H276.18V179.46Z" fill="#4AA272"/>
<path d="M274.02 179.46H271.83V180.84H274.02V179.46Z" fill="#4AA272"/>
<path d="M295.62 178.11H293.43V179.49H295.62V178.11Z" fill="#F573AF"/>
<path d="M293.46 178.11H291.27V179.49H293.46V178.11Z" fill="#F573AF"/>
<path d="M291.3 178.11H289.11V179.49H291.3V178.11Z" fill="#D24FEF"/>
<path d="M289.14 178.11H286.95V179.49H289.14V178.11Z" fill="#D24FEF"/>
<path d="M286.98 178.11H284.79V179.49H286.98V178.11Z" fill="#EF47EE"/>
<path d="M284.82 178.11H282.63V179.49H284.82V178.11Z" fill="#EF47EE"/>
<path d="M282.66 178.11H280.47V179.49H282.66V178.11Z" fill="#EB39D1"/>
<path d="M280.5 178.11H278.31V179.49H280.5V178.11Z" fill="#EB35C1"/>
<path d="M278.34 178.11H276.15V179.49H278.34V178.11Z" fill="#4AA272"/>
<path d="M276.18 178.11H273.99V179.49H276.18V178.11Z" fill="#4AA272"/>
<path d="M274.02 178.11H271.83V179.49H274.02V178.11Z" fill="#4AA272"/>
<path d="M284.82 194.37H282.63V195.75H284.82V194.37Z" fill="#240C20"/>
<path d="M282.66 194.37H280.47V195.75H282.66V194.37Z" fill="#240C20"/>
<path d="M280.5 194.37H278.31V195.75H280.5V194.37Z" fill="#240C20"/>
<path d="M278.34 194.37H276.15V195.75H278.34V194.37Z" fill="#240C20"/>
<path d="M276.18 194.37H273.99V195.75H276.18V194.37Z" fill="#240C20"/>
<path d="M274.02 194.37H271.83V195.75H274.02V194.37Z" fill="#240C20"/>
<path d="M222.18 193.141H219.99V194.521H222.18V193.141Z" fill="#FFF01F"/>
<path d="M209.22 198.621H207.03V200.001H209.22V198.621Z" fill="#BFBFBF"/>
<path d="M211.38 198.621H209.19V200.001H211.38V198.621Z" fill="#170213"/>
<path d="M213.54 198.621H211.35V200.001H213.54V198.621Z" fill="white"/>
<path d="M215.7 198.621H213.51V200.001H215.7V198.621Z" fill="white"/>
<path d="M178.91 201.331H176.72V202.711H178.91V201.331Z" fill="#27A514"/>
<path d="M181.06 201.331H178.87V202.711H181.06V201.331Z" fill="#27A514"/>
<path d="M183.23 201.331H181.04V202.711H183.23V201.331Z" fill="#1B9708"/>
<path d="M185.38 201.331H183.19V202.711H185.38V201.331Z" fill="#EC289C"/>
<path d="M187.54 201.331H185.35V202.711H187.54V201.331Z" fill="#EC289C"/>
<path d="M189.7 201.331H187.51V202.711H189.7V201.331Z" fill="#1B002B"/>
<path d="M191.87 201.331H189.68V202.711H191.87V201.331Z" fill="#110019"/>
<path d="M194.02 201.331H191.83V202.711H194.02V201.331Z" fill="#0F281A"/>
<path d="M196.19 201.331H194V202.711H196.19V201.331Z" fill="#EC289C"/>
<path d="M198.35 201.331H196.16V202.711H198.35V201.331Z" fill="#EC289C"/>
<path d="M200.51 201.331H198.32V202.711H200.51V201.331Z" fill="#EC289C"/>
<path d="M202.67 201.331H200.48V202.711H202.67V201.331Z" fill="#0D2417"/>
<path d="M204.83 201.331H202.64V202.711H204.83V201.331Z" fill="#07140D"/>
<path d="M206.99 201.331H204.8V202.711H206.99V201.331Z" fill="#070C12"/>
<path d="M178.91 202.681H176.72V204.061H178.91V202.681Z" fill="#27A514"/>
<path d="M181.06 202.681H178.87V204.061H181.06V202.681Z" fill="#27A514"/>
<path d="M183.23 202.681H181.04V204.061H183.23V202.681Z" fill="#1B9708"/>
<path d="M185.38 202.681H183.19V204.061H185.38V202.681Z" fill="#EC289C"/>
<path d="M187.54 202.681H185.35V204.061H187.54V202.681Z" fill="#EC289C"/>
<path d="M189.7 202.681H187.51V204.061H189.7V202.681Z" fill="#1B002B"/>
<path d="M191.87 202.681H189.68V204.061H191.87V202.681Z" fill="#110019"/>
<path d="M194.02 202.681H191.83V204.061H194.02V202.681Z" fill="#0F281A"/>
<path d="M196.19 202.681H194V204.061H196.19V202.681Z" fill="#EC289C"/>
<path d="M198.35 202.681H196.16V204.061H198.35V202.681Z" fill="#EC289C"/>
<path d="M200.51 202.681H198.32V204.061H200.51V202.681Z" fill="#EC289C"/>
<path d="M202.67 202.681H200.48V204.061H202.67V202.681Z" fill="#0D2417"/>
<path d="M204.83 202.681H202.64V204.061H204.83V202.681Z" fill="#07140D"/>
<path d="M206.99 202.681H204.8V204.061H206.99V202.681Z" fill="#070C12"/>
<path d="M178.91 204.03H176.72V205.41H178.91V204.03Z" fill="#27A514"/>
<path d="M181.06 204.03H178.87V205.41H181.06V204.03Z" fill="#27A514"/>
<path d="M183.23 204.03H181.04V205.41H183.23V204.03Z" fill="#1B9708"/>
<path d="M185.38 204.03H183.19V205.41H185.38V204.03Z" fill="#EC289C"/>
<path d="M187.54 204.03H185.35V205.41H187.54V204.03Z" fill="#EC289C"/>
<path d="M189.7 204.03H187.51V205.41H189.7V204.03Z" fill="#1B002B"/>
<path d="M191.87 204.03H189.68V205.41H191.87V204.03Z" fill="#110019"/>
<path d="M194.02 204.03H191.83V205.41H194.02V204.03Z" fill="#0F281A"/>
<path d="M196.19 204.03H194V205.41H196.19V204.03Z" fill="#EC289C"/>
<path d="M198.35 204.03H196.16V205.41H198.35V204.03Z" fill="#EC289C"/>
<path d="M200.51 204.03H198.32V205.41H200.51V204.03Z" fill="#EC289C"/>
<path d="M202.67 204.03H200.48V205.41H202.67V204.03Z" fill="#0D2417"/>
<path d="M204.83 204.03H202.64V205.41H204.83V204.03Z" fill="#07140D"/>
<path d="M206.99 204.03H204.8V205.41H206.99V204.03Z" fill="#070C12"/>
<path d="M3.25 141.07H0V142.45H3.25V141.07Z" fill="white"/>
<path d="M6.45996 141.07H3.20996V142.45H6.45996V141.07Z" fill="white"/>
<path d="M9.66992 141.07H6.41992V142.45H9.66992V141.07Z" fill="white"/>
<path d="M12.8899 141.07H9.63989V142.45H12.8899V141.07Z" fill="white"/>
<path d="M16.1001 141.07H12.8501V142.45H16.1001V141.07Z" fill="#46E8BB"/>
<path d="M19.3101 141.07H16.0601V142.45H19.3101V141.07Z" fill="#040F39"/>
<path d="M22.52 141.07H19.27V142.45H22.52V141.07Z" fill="#041042"/>
<path d="M25.73 141.07H22.48V142.45H25.73V141.07Z" fill="#041042"/>
<path d="M28.95 141.07H25.7V142.45H28.95V141.07Z" fill="#041B4C"/>
<path d="M32.1599 141.07H28.9099V142.45H32.1599V141.07Z" fill="#042C52"/>
<path d="M35.3701 141.07H32.1201V142.45H35.3701V141.07Z" fill="#042C52"/>
<path d="M38.5801 141.07H35.3301V142.45H38.5801V141.07Z" fill="#074E54"/>
<path d="M41.79 141.07H38.54V142.45H41.79V141.07Z" fill="#EC289C"/>
<path d="M45 141.07H41.75V142.45H45V141.07Z" fill="#EC289C"/>
<path d="M48.22 141.07H44.97V142.45H48.22V141.07Z" fill="#EC289C"/>
<path d="M51.4299 141.07H48.1799V142.45H51.4299V141.07Z" fill="#EC289C"/>
<path d="M54.6399 141.07H51.3899V142.45H54.6399V141.07Z" fill="#EC289C"/>
<path d="M3.25 139.721H0V141.101H3.25V139.721Z" fill="white"/>
<path d="M6.45996 139.721H3.20996V141.101H6.45996V139.721Z" fill="white"/>
<path d="M9.66992 139.721H6.41992V141.101H9.66992V139.721Z" fill="white"/>
<path d="M12.8899 139.721H9.63989V141.101H12.8899V139.721Z" fill="white"/>
<path d="M16.1001 139.721H12.8501V141.101H16.1001V139.721Z" fill="#46E8BB"/>
<path d="M19.3101 139.721H16.0601V141.101H19.3101V139.721Z" fill="#040F39"/>
<path d="M22.52 139.721H19.27V141.101H22.52V139.721Z" fill="#041042"/>
<path d="M25.73 139.721H22.48V141.101H25.73V139.721Z" fill="#041042"/>
<path d="M28.95 139.721H25.7V141.101H28.95V139.721Z" fill="#041B4C"/>
<path d="M32.1599 139.721H28.9099V141.101H32.1599V139.721Z" fill="#042C52"/>
<path d="M35.3701 139.721H32.1201V141.101H35.3701V139.721Z" fill="#042C52"/>
<path d="M38.5801 139.721H35.3301V141.101H38.5801V139.721Z" fill="#074E54"/>
<path d="M41.79 139.721H38.54V141.101H41.79V139.721Z" fill="#EC289C"/>
<path d="M45 139.721H41.75V141.101H45V139.721Z" fill="#EC289C"/>
<path d="M48.22 139.721H44.97V141.101H48.22V139.721Z" fill="#EC289C"/>
<path d="M51.4299 139.721H48.1799V141.101H51.4299V139.721Z" fill="#EC289C"/>
<path d="M54.6399 139.721H51.3899V141.101H54.6399V139.721Z" fill="#EC289C"/>
<path d="M3.25 138.36H0V139.74H3.25V138.36Z" fill="white"/>
<path d="M6.45996 138.36H3.20996V139.74H6.45996V138.36Z" fill="white"/>
<path d="M9.66992 138.36H6.41992V139.74H9.66992V138.36Z" fill="white"/>
<path d="M12.8899 138.36H9.63989V139.74H12.8899V138.36Z" fill="white"/>
<path d="M16.1001 138.36H12.8501V139.74H16.1001V138.36Z" fill="#46E8BB"/>
<path d="M19.3101 138.36H16.0601V139.74H19.3101V138.36Z" fill="#040F39"/>
<path d="M22.52 138.36H19.27V139.74H22.52V138.36Z" fill="#041042"/>
<path d="M25.73 138.36H22.48V139.74H25.73V138.36Z" fill="#041042"/>
<path d="M28.95 138.36H25.7V139.74H28.95V138.36Z" fill="#041B4C"/>
<path d="M32.1599 138.36H28.9099V139.74H32.1599V138.36Z" fill="#042C52"/>
<path d="M35.3701 138.36H32.1201V139.74H35.3701V138.36Z" fill="#042C52"/>
<path d="M38.5801 138.36H35.3301V139.74H38.5801V138.36Z" fill="#074E54"/>
<path d="M41.79 138.36H38.54V139.74H41.79V138.36Z" fill="#EC289C"/>
<path d="M45 138.36H41.75V139.74H45V138.36Z" fill="#EC289C"/>
<path d="M48.22 138.36H44.97V139.74H48.22V138.36Z" fill="#EC289C"/>
<path d="M51.4299 138.36H48.1799V139.74H51.4299V138.36Z" fill="#EC289C"/>
<path d="M54.6399 138.36H51.3899V139.74H54.6399V138.36Z" fill="#EC289C"/>
<path d="M235.83 3.92969H232.27V5.92969H235.83V3.92969Z" fill="white"/>
<path d="M239.33 3.92969H235.78V5.92969H239.33V3.92969Z" fill="white"/>
<path d="M246.36 3.92969H242.8V5.92969H246.36V3.92969Z" fill="white"/>
<path d="M253.38 3.92969H249.83V5.92969H253.38V3.92969Z" fill="white"/>
<path d="M256.89 3.92969H253.34V5.92969H256.89V3.92969Z" fill="#46E8BB"/>
<path d="M260.41 3.92969H256.85V5.92969H260.41V3.92969Z" fill="#040F39"/>
<path d="M263.92 3.92969H260.36V5.92969H263.92V3.92969Z" fill="#041042"/>
<path d="M267.43 3.92969H263.87V5.92969H267.43V3.92969Z" fill="#041042"/>
<path d="M270.94 3.92969H267.38V5.92969H270.94V3.92969Z" fill="#041B4C"/>
<path d="M274.45 3.92969H270.9V5.92969H274.45V3.92969Z" fill="#042C52"/>
<path d="M277.97 3.92969H274.41V5.92969H277.97V3.92969Z" fill="#042C52"/>
<path d="M281.48 3.92969H277.92V5.92969H281.48V3.92969Z" fill="#074E54"/>
<path d="M284.98 3.92969H281.43V5.92969H284.98V3.92969Z" fill="#EC289C"/>
<path d="M235.83 1.96973H232.27V3.96973H235.83V1.96973Z" fill="white"/>
<path d="M239.33 1.96973H235.78V3.96973H239.33V1.96973Z" fill="white"/>
<path d="M246.36 1.96973H242.8V3.96973H246.36V1.96973Z" fill="white"/>
<path d="M253.38 1.96973H249.83V3.96973H253.38V1.96973Z" fill="white"/>
<path d="M256.89 1.96973H253.34V3.96973H256.89V1.96973Z" fill="#46E8BB"/>
<path d="M260.41 1.96973H256.85V3.96973H260.41V1.96973Z" fill="#040F39"/>
<path d="M263.92 1.96973H260.36V3.96973H263.92V1.96973Z" fill="#041042"/>
<path d="M267.43 1.96973H263.87V3.96973H267.43V1.96973Z" fill="#041042"/>
<path d="M270.94 1.96973H267.38V3.96973H270.94V1.96973Z" fill="#041B4C"/>
<path d="M274.45 1.96973H270.9V3.96973H274.45V1.96973Z" fill="#042C52"/>
<path d="M277.97 1.96973H274.41V3.96973H277.97V1.96973Z" fill="#042C52"/>
<path d="M281.48 1.96973H277.92V3.96973H281.48V1.96973Z" fill="#074E54"/>
<path d="M284.98 1.96973H281.43V3.96973H284.98V1.96973Z" fill="#EC289C"/>
<path d="M235.83 0H232.27V2H235.83V0Z" fill="white"/>
<path d="M239.33 0H235.78V2H239.33V0Z" fill="white"/>
<path d="M246.36 0H242.8V2H246.36V0Z" fill="white"/>
<path d="M253.38 0H249.83V2H253.38V0Z" fill="white"/>
<path d="M256.89 0H253.34V2H256.89V0Z" fill="#46E8BB"/>
<path d="M260.41 0H256.85V2H260.41V0Z" fill="#040F39"/>
<path d="M263.92 0H260.36V2H263.92V0Z" fill="#041042"/>
<path d="M267.43 0H263.87V2H267.43V0Z" fill="#041042"/>
<path d="M270.94 0H267.38V2H270.94V0Z" fill="#041B4C"/>
<path d="M274.45 0H270.9V2H274.45V0Z" fill="#042C52"/>
<path d="M277.97 0H274.41V2H277.97V0Z" fill="#042C52"/>
<path d="M281.48 0H277.92V2H281.48V0Z" fill="#074E54"/>
<path d="M284.98 0H281.43V2H284.98V0Z" fill="#EC289C"/>
</g>
<defs>
<clipPath id="clip0_688_158952">
<rect width="295.62" height="451" fill="white"/>
</clipPath>
</defs>
</svg>
