<svg width="438" height="361" viewBox="0 0 438 361" fill="none" xmlns="http://www.w3.org/2000/svg">
<mask id="mask0_688_159676" style="mask-type:luminance" maskUnits="userSpaceOnUse" x="0" y="0" width="439" height="361">
<path d="M438.08 0H0V360.42H438.08V0Z" fill="white"/>
</mask>
<g mask="url(#mask0_688_159676)">
<path d="M234.32 312.09L242.81 318.82L227.43 312.09H234.31M235.31 309.23H221.8V312.74L247.49 323.98V318.88L235.32 309.23H235.31Z" fill="white"/>
<path d="M208.91 148.781C208.19 148.201 207.67 147.901 207.57 147.851L207.06 147.561L206.05 149.431L206.55 149.711C206.55 149.711 207.01 149.971 207.59 150.441L208.04 150.801L209.37 149.141L208.92 148.781H208.91Z" fill="white"/>
<path d="M214.2 157.68L214.09 157.11L212 157.51L212.11 158.08C212.29 159.02 212.38 160 212.38 161V161.69L214.51 161.71V160.99C214.51 159.84 214.41 158.72 214.2 157.66V157.68Z" fill="white"/>
<path d="M212.1 164.211C211.93 165.191 211.68 166.221 211.37 167.261L211.2 167.821L213.24 168.441L213.41 167.881C213.76 166.761 214.02 165.641 214.21 164.571L214.31 164.001L212.21 163.641L212.11 164.211H212.1Z" fill="white"/>
<path d="M211.44 155.73L213.39 154.87L213.15 154.34C212.68 153.27 212.07 152.25 211.36 151.32L211.01 150.86L209.32 152.15L209.67 152.61C210.28 153.41 210.8 154.28 211.21 155.2L211.45 155.73H211.44Z" fill="white"/>
<path d="M210.27 170.24C210.11 170.62 209.93 171.01 209.75 171.4L209.7 171.52V172.17L211.38 172.96L211.63 172.43C211.85 171.97 212.05 171.51 212.24 171.06L212.47 170.52L210.5 169.69L210.27 170.23V170.24Z" fill="white"/>
<path d="M200.12 148.781C200.84 148.201 201.36 147.901 201.46 147.851L201.97 147.561L202.98 149.431L202.48 149.711C202.48 149.711 202.02 149.971 201.44 150.441L200.99 150.801L199.66 149.141L200.11 148.781H200.12Z" fill="white"/>
<path d="M194.83 157.68L194.94 157.11L197.03 157.51L196.92 158.08C196.74 159.02 196.65 160 196.65 161V161.69L194.52 161.71V160.99C194.52 159.84 194.62 158.72 194.83 157.66V157.68Z" fill="white"/>
<path d="M196.93 164.211C197.1 165.191 197.35 166.221 197.66 167.261L197.83 167.821L195.79 168.441L195.62 167.881C195.27 166.761 195.01 165.641 194.82 164.571L194.72 164.001L196.82 163.641L196.92 164.211H196.93Z" fill="white"/>
<path d="M197.58 155.73L195.63 154.87L195.87 154.34C196.34 153.27 196.95 152.25 197.66 151.32L198.01 150.86L199.7 152.15L199.35 152.61C198.74 153.41 198.22 154.28 197.81 155.2L197.57 155.73H197.58Z" fill="white"/>
<path d="M198.76 170.24C198.92 170.62 199.1 171.01 199.28 171.4L199.33 171.52V172.17L197.65 172.96L197.4 172.43C197.18 171.97 196.98 171.51 196.79 171.06L196.56 170.52L198.53 169.69L198.76 170.23V170.24Z" fill="white"/>
<path d="M208.48 188.391H200.55L202.18 179.801H206.85L208.48 188.391Z" fill="white"/>
<path d="M213.05 181.63H195.97V177.58C188.07 174.75 182.83 168.16 182.83 160.93C182.83 150.94 192.56 142.82 204.51 142.82C216.46 142.82 226.19 150.95 226.19 160.93C226.19 168.17 220.95 174.75 213.05 177.58V181.63ZM198.64 178.97H210.39V175.64L211.33 175.35C218.63 173.07 223.53 167.27 223.53 160.93C223.53 152.41 215 145.48 204.52 145.48C194.04 145.48 185.51 152.41 185.51 160.93C185.51 167.27 190.41 173.07 197.71 175.35L198.65 175.64V178.97H198.64Z" fill="white"/>
<path d="M333.09 101.47C332.64 101.11 332.32 100.93 332.26 100.89L331.94 100.71L331.31 101.87L331.62 102.04C331.62 102.04 331.9 102.2 332.26 102.49L332.54 102.72L333.37 101.69L333.09 101.46V101.47Z" fill="white"/>
<path d="M336.38 106.99L336.31 106.64L335.01 106.89L335.08 107.24C335.19 107.82 335.25 108.43 335.25 109.06V109.49L336.57 109.51V109.06C336.57 108.35 336.51 107.65 336.38 106.99Z" fill="white"/>
<path d="M335.07 111.05C334.97 111.66 334.81 112.3 334.61 112.94L334.5 113.29L335.77 113.68L335.88 113.33C336.09 112.63 336.26 111.94 336.38 111.27L336.44 110.91L335.14 110.69L335.08 111.05H335.07Z" fill="white"/>
<path d="M334.66 105.78L335.87 105.24L335.72 104.91C335.42 104.24 335.05 103.61 334.61 103.03L334.39 102.74L333.34 103.54L333.56 103.83C333.94 104.33 334.26 104.87 334.51 105.44L334.66 105.77V105.78Z" fill="white"/>
<path d="M333.93 114.8C333.83 115.04 333.72 115.28 333.61 115.52L333.58 115.59V116L334.62 116.49L334.77 116.16C334.9 115.87 335.03 115.59 335.15 115.31L335.29 114.98L334.07 114.46L333.93 114.79V114.8Z" fill="white"/>
<path d="M327.63 101.47C328.08 101.11 328.4 100.93 328.46 100.89L328.78 100.71L329.41 101.87L329.1 102.04C329.1 102.04 328.82 102.2 328.46 102.49L328.18 102.72L327.35 101.69L327.63 101.46V101.47Z" fill="white"/>
<path d="M324.34 106.99L324.41 106.64L325.71 106.89L325.64 107.24C325.53 107.82 325.47 108.43 325.47 109.06V109.49L324.15 109.51V109.06C324.15 108.35 324.21 107.65 324.34 106.99Z" fill="white"/>
<path d="M325.64 111.05C325.74 111.66 325.9 112.3 326.1 112.94L326.21 113.29L324.94 113.68L324.83 113.33C324.62 112.63 324.45 111.94 324.33 111.27L324.27 110.91L325.57 110.69L325.63 111.05H325.64Z" fill="white"/>
<path d="M326.05 105.78L324.84 105.24L324.99 104.91C325.29 104.24 325.66 103.61 326.1 103.03L326.32 102.74L327.37 103.54L327.15 103.83C326.77 104.33 326.45 104.87 326.2 105.44L326.05 105.77V105.78Z" fill="white"/>
<path d="M326.78 114.8C326.88 115.04 326.99 115.28 327.1 115.52L327.13 115.59V116L326.09 116.49L325.94 116.16C325.81 115.87 325.68 115.59 325.56 115.31L325.42 114.98L326.64 114.46L326.78 114.79V114.8Z" fill="white"/>
<path d="M332.99 126.45H327.72L328.81 120.74H331.91L332.99 126.45Z" fill="white"/>
<path d="M336.17 122.38H324.55V119.71C319.63 117.82 316.39 113.62 316.39 109.01C316.39 102.53 322.66 97.25 330.36 97.25C338.06 97.25 344.33 102.52 344.33 109.01C344.33 113.62 341.09 117.81 336.17 119.71V122.38ZM327.21 119.72H333.5V117.79L334.44 117.5C338.76 116.15 341.67 112.74 341.67 109.02C341.67 104.01 336.6 99.93 330.36 99.93C324.12 99.93 319.05 104.01 319.05 109.02C319.05 112.74 321.95 116.15 326.28 117.5L327.22 117.79V119.72H327.21Z" fill="white"/>
<path d="M81.66 186.06C81.21 185.7 80.89 185.52 80.83 185.48L80.51 185.3L79.88 186.46L80.19 186.63C80.19 186.63 80.47 186.79 80.83 187.08L81.11 187.31L81.94 186.28L81.66 186.05V186.06Z" fill="white"/>
<path d="M84.95 191.59L84.88 191.24L83.58 191.49L83.65 191.84C83.76 192.42 83.82 193.03 83.82 193.66V194.09L85.14 194.11V193.66C85.14 192.95 85.08 192.25 84.95 191.59Z" fill="white"/>
<path d="M83.6401 195.64C83.5401 196.25 83.3801 196.89 83.1801 197.53L83.0701 197.88L84.3401 198.27L84.4501 197.92C84.6601 197.22 84.8301 196.53 84.9501 195.86L85.0101 195.5L83.7101 195.28L83.6501 195.64H83.6401Z" fill="white"/>
<path d="M83.23 190.37L84.44 189.83L84.29 189.5C83.99 188.83 83.62 188.2 83.18 187.62L82.96 187.33L81.91 188.13L82.13 188.42C82.51 188.92 82.83 189.46 83.08 190.03L83.23 190.36V190.37Z" fill="white"/>
<path d="M82.5 199.39C82.4 199.63 82.29 199.87 82.18 200.11L82.15 200.18V200.59L83.19 201.08L83.34 200.75C83.47 200.46 83.6 200.18 83.72 199.9L83.86 199.57L82.64 199.05L82.5 199.38V199.39Z" fill="white"/>
<path d="M76.1999 186.06C76.6499 185.7 76.9699 185.52 77.0299 185.48L77.3499 185.3L77.9799 186.46L77.6699 186.63C77.6699 186.63 77.3899 186.79 77.0299 187.08L76.7499 187.31L75.9199 186.28L76.1999 186.05V186.06Z" fill="white"/>
<path d="M72.91 191.59L72.98 191.24L74.28 191.49L74.21 191.84C74.1 192.42 74.04 193.03 74.04 193.66V194.09L72.72 194.11V193.66C72.72 192.95 72.78 192.25 72.91 191.59Z" fill="white"/>
<path d="M74.21 195.64C74.31 196.25 74.47 196.89 74.67 197.53L74.78 197.88L73.51 198.27L73.4 197.92C73.19 197.22 73.02 196.53 72.9 195.86L72.84 195.5L74.14 195.28L74.2 195.64H74.21Z" fill="white"/>
<path d="M74.6199 190.37L73.4099 189.83L73.5599 189.5C73.8599 188.83 74.2299 188.2 74.6699 187.62L74.8899 187.33L75.9399 188.13L75.7199 188.42C75.3399 188.92 75.0199 189.46 74.7699 190.03L74.6199 190.36V190.37Z" fill="white"/>
<path d="M75.35 199.39C75.45 199.63 75.56 199.87 75.67 200.11L75.7 200.18V200.59L74.66 201.08L74.51 200.75C74.38 200.46 74.25 200.18 74.13 199.9L73.99 199.57L75.21 199.05L75.35 199.38V199.39Z" fill="white"/>
<path d="M81.4299 210.75H76.4199L77.4499 205.33H80.3999L81.4299 210.75Z" fill="white"/>
<path d="M84.83 207.07H73.02V204.37C68.1 202.45 64.86 198.23 64.86 193.61C64.86 187.07 71.17 181.76 78.93 181.76C86.69 181.76 93 187.08 93 193.61C93 198.24 89.76 202.45 84.84 204.37V207.07H84.83ZM75.88 204.21H81.98V202.3L82.98 201.99C87.26 200.65 90.14 197.28 90.14 193.6C90.14 188.64 85.11 184.6 78.93 184.6C72.75 184.6 67.72 188.64 67.72 193.6C67.72 197.28 70.6 200.65 74.88 201.99L75.88 202.3V204.21Z" fill="white"/>
<path d="M155.43 106.85C154.9 106.42 154.51 106.2 154.43 106.16L154.05 105.95L153.3 107.34L153.67 107.55C153.67 107.55 154.01 107.74 154.44 108.09L154.78 108.36L155.77 107.13L155.43 106.86V106.85Z" fill="white"/>
<path d="M159.36 113.441L159.28 113.021L157.73 113.321L157.81 113.741C157.94 114.431 158.01 115.161 158.01 115.911V116.431L159.59 116.451V115.921C159.59 115.071 159.52 114.241 159.36 113.451V113.441Z" fill="white"/>
<path d="M157.8 118.29C157.67 119.02 157.49 119.78 157.26 120.55L157.13 120.96L158.64 121.42L158.77 121.01C159.03 120.18 159.22 119.35 159.36 118.55L159.43 118.13L157.87 117.86L157.8 118.28V118.29Z" fill="white"/>
<path d="M157.31 112.001L158.76 111.361L158.59 110.971C158.24 110.171 157.79 109.421 157.26 108.731L157 108.391L155.74 109.351L156 109.691C156.45 110.281 156.84 110.931 157.14 111.611L157.31 112.001Z" fill="white"/>
<path d="M156.44 122.77C156.32 123.05 156.19 123.34 156.06 123.63L156.02 123.72V124.21L157.27 124.79L157.45 124.4C157.61 124.06 157.76 123.72 157.9 123.39L158.07 122.99L156.61 122.37L156.44 122.77Z" fill="white"/>
<path d="M148.91 106.85C149.44 106.42 149.83 106.2 149.91 106.16L150.29 105.95L151.04 107.34L150.67 107.55C150.67 107.55 150.33 107.74 149.9 108.09L149.56 108.36L148.57 107.13L148.91 106.86V106.85Z" fill="white"/>
<path d="M144.98 113.441L145.06 113.021L146.61 113.321L146.53 113.741C146.4 114.431 146.33 115.161 146.33 115.911V116.431L144.75 116.451V115.921C144.75 115.071 144.82 114.241 144.98 113.451V113.441Z" fill="white"/>
<path d="M146.54 118.29C146.67 119.02 146.85 119.78 147.08 120.55L147.21 120.96L145.7 121.42L145.57 121.01C145.31 120.18 145.12 119.35 144.98 118.55L144.91 118.13L146.47 117.86L146.54 118.28V118.29Z" fill="white"/>
<path d="M147.03 112.001L145.58 111.361L145.75 110.971C146.1 110.171 146.55 109.421 147.08 108.731L147.34 108.391L148.6 109.351L148.34 109.691C147.89 110.281 147.5 110.931 147.2 111.611L147.03 112.001Z" fill="white"/>
<path d="M147.9 122.77C148.02 123.05 148.15 123.34 148.28 123.63L148.32 123.72V124.21L147.07 124.79L146.89 124.4C146.73 124.06 146.58 123.72 146.44 123.39L146.27 122.99L147.73 122.37L147.9 122.77Z" fill="white"/>
<path d="M155.13 136.28H149.2L150.42 129.86H153.91L155.13 136.28Z" fill="white"/>
<path d="M158.85 131.56H145.49V128.45C139.62 126.26 135.74 121.3 135.74 115.85C135.74 108.25 143.11 102.07 152.17 102.07C161.23 102.07 168.6 108.25 168.6 115.85C168.6 121.29 164.72 126.25 158.85 128.45V131.56ZM148.15 128.9H156.18V126.52L157.12 126.23C162.39 124.58 165.93 120.41 165.93 115.86C165.93 109.73 159.76 104.74 152.17 104.74C144.58 104.74 138.41 109.73 138.41 115.86C138.41 120.42 141.95 124.58 147.22 126.23L148.16 126.52V128.9H148.15Z" fill="white"/>
<path d="M271.07 240.921H263.85V238.471C263.85 236.941 262.61 235.711 261.09 235.711H250.56V234.651C250.56 233.121 249.32 231.891 247.8 231.891H218.36C217.98 232.761 217.91 233.851 217.43 234.651H247.8V238.481H261.09V243.701H271.07V240.941V240.921Z" fill="white"/>
<path d="M199.26 250.39H192.26V235.27C192.26 233.75 191.02 232.51 189.5 232.51H181.27C179.74 232.51 178.51 233.75 178.51 235.27V249.54H175.61C174.08 249.54 172.85 250.78 172.85 252.3V252.58H169.76V207.64C169.76 206.11 168.52 204.88 167 204.88H157.82V198.12C157.82 196.6 156.58 195.36 155.06 195.36H122.98C121.45 195.36 120.22 196.6 120.22 198.12V204.16H116.57C115.04 204.16 113.81 205.4 113.81 206.92V234.61H112.42C110.89 234.61 109.66 235.85 109.66 237.37V259.65C110.72 260.03 111.64 258.97 112.42 259.65V237.37H116.57V206.92H122.98V198.11H155.06V207.64H167.01V255.34H175.63V252.29H181.29V235.25H189.52V253.13H199.28V256H202.04V253.13C202.04 251.6 200.8 250.37 199.28 250.37L199.26 250.39Z" fill="white"/>
<path d="M29.4 295.521V237.321H64.2V283.711H73.36V268.471H82.36V265.711H73.36C71.83 265.711 70.6 266.951 70.6 268.471V280.861H66.96V237.321C66.96 235.791 65.72 234.561 64.2 234.561H29.4C27.87 234.561 26.64 235.801 26.64 237.321V295.521H29.4Z" fill="white"/>
<path d="M144.7 219.07H139.52V223.38H144.7V219.07Z" fill="white"/>
<path d="M144.7 211.29H139.52V215.59H144.7V211.29Z" fill="white"/>
<path d="M155.47 219.07H150.29V223.38H155.47V219.07Z" fill="white"/>
<path d="M133.93 211.29H128.75V215.59H133.93V211.29Z" fill="white"/>
<path d="M144.7 243.311H139.52V247.621H144.7V243.311Z" fill="white"/>
<path d="M144.7 252.53H139.52V256.84H144.7V252.53Z" fill="white"/>
<path d="M144.7 234.88H139.52V239.19H144.7V234.88Z" fill="white"/>
<path d="M155.47 243.311H150.29V247.621H155.47V243.311Z" fill="white"/>
<path d="M155.47 234.88H150.29V239.19H155.47V234.88Z" fill="white"/>
<path d="M155.47 227.091H150.29V231.401H155.47V227.091Z" fill="white"/>
<path d="M133.93 243.311H128.75V247.621H133.93V243.311Z" fill="white"/>
<path d="M133.93 261.29H128.75V265.6H133.93V261.29Z" fill="white"/>
<path d="M133.93 234.88H128.75V239.19H133.93V234.88Z" fill="white"/>
<path d="M133.93 227.091H128.75V231.401H133.93V227.091Z" fill="white"/>
<path d="M44.29 269.511H39.26V273.451H44.29V269.511Z" fill="white"/>
<path d="M44.29 252.551H39.26V256.501H44.29V252.551Z" fill="white"/>
<path d="M44.29 243.82H39.26V247.77H44.29V243.82Z" fill="white"/>
<path d="M52.7 269.58H47.67V273.53H52.7V269.58Z" fill="white"/>
<path d="M52.7 261.351H47.67V265.311H52.7V261.351Z" fill="white"/>
<path d="M52.7 252.62H47.67V256.57H52.7V252.62Z" fill="white"/>
<path d="M242.94 259.96H239V263.78H242.94V259.96Z" fill="white"/>
<path d="M242.94 253.07H239V256.88H242.94V253.07Z" fill="white"/>
<path d="M242.94 246.181H239V250.001H242.94V246.181Z" fill="white"/>
<path d="M250.25 266.851H246.31V270.661H250.25V266.851Z" fill="white"/>
<path d="M250.25 259.96H246.31V263.78H250.25V259.96Z" fill="white"/>
<path d="M250.25 246.181H246.31V250.001H250.25V246.181Z" fill="white"/>
<path d="M221.24 266.851H217.3V270.661H221.24V266.851Z" fill="white"/>
<path d="M221.24 259.96H217.3V263.78H221.24V259.96Z" fill="white"/>
<path d="M221.24 253.07H217.3V256.88H221.24V253.07Z" fill="white"/>
<path d="M228.56 266.851H224.62V270.661H228.56V266.851Z" fill="white"/>
<path d="M228.56 246.181H224.62V250.001H228.56V246.181Z" fill="white"/>
<path d="M182.61 306.83H176.81V319.96H182.61V306.83Z" fill="white"/>
<path d="M168.82 310.94H163.02V324.07H168.82V310.94Z" fill="white"/>
<path d="M240.98 332.06H236.91V338.04H240.98V332.06Z" fill="white"/>
<path d="M232.62 332.06H228.55V338.04H232.62V332.06Z" fill="white"/>
<path d="M155.03 315.04H149.23V328.17H155.03V315.04Z" fill="white"/>
<path d="M194.3 290.16C194.05 290.16 193.8 290.1 193.58 289.97C193.14 289.71 192.87 289.24 192.87 288.74V273.89C192.87 273.36 193.16 272.88 193.63 272.63L199.94 269.28C200.34 269.07 200.82 269.06 201.23 269.25L207.24 272.13C207.74 272.37 208.05 272.87 208.05 273.42V288.28C208.05 288.78 207.79 289.24 207.36 289.5C206.93 289.76 206.4 289.78 205.96 289.55L200.64 286.79L195.01 289.99C194.79 290.11 194.55 290.18 194.3 290.18V290.16ZM195.73 274.74V286.28L199.9 283.91C200.32 283.67 200.83 283.66 201.26 283.88L205.18 285.91V274.3L200.63 272.12L195.72 274.73L195.73 274.74Z" fill="white"/>
<path d="M202.46 239.02V225.09H201.58V218.04H199.92V225.09H199.05V239.02H198.4V270.7H203.1V239.02H202.46Z" fill="white"/>
<path d="M200.66 251.53C200.35 251.53 200.04 251.43 199.77 251.22C199.15 250.73 199.05 249.83 199.54 249.21C205.88 241.2 215.05 232.77 219.69 228.68H213.45C211.35 228.68 204.89 231.58 201.31 233.4C200.61 233.76 199.75 233.48 199.39 232.78C199.03 232.08 199.31 231.22 200.01 230.86C201.02 230.34 209.98 225.83 213.45 225.83H223.53C224.13 225.83 224.67 226.21 224.87 226.77C225.07 227.33 224.9 227.97 224.44 228.35C224.3 228.47 210.34 240.14 201.77 250.98C201.49 251.34 201.07 251.52 200.65 251.52L200.66 251.53Z" fill="white"/>
<path d="M200.75 285.98C199.52 285.98 198.52 285.18 198.52 284.19V271.43C198.52 270.44 199.52 269.64 200.75 269.64C201.98 269.64 202.98 270.44 202.98 271.43V284.19C202.98 285.18 201.98 285.98 200.75 285.98Z" fill="white"/>
<path d="M271.08 344.8L245.93 344.69C245.14 344.69 244.51 344.05 244.51 343.26V327.66L224.48 318.55V335.78C224.48 336.57 223.84 337.21 223.05 337.21H218.29C217.5 337.21 216.86 336.57 216.86 335.78V304.95C216.86 304.5 217.07 304.08 217.42 303.81C217.78 303.54 218.24 303.45 218.67 303.57L223.43 304.89H232.54V298.79H228.81C228.23 298.79 227.7 298.43 227.48 297.89L225.16 292.06H220.35C219.75 292.06 219.21 291.68 219 291.11L217.06 285.63L213.56 285.51V297.45C213.56 297.94 213.31 298.4 212.89 298.66C212.47 298.92 211.95 298.95 211.51 298.74L200.98 293.68L189.44 299.74C189 299.97 188.46 299.96 188.04 299.7C187.61 299.44 187.35 298.98 187.35 298.48V281.17L182.26 279.58L165.08 286.67C164.9 286.75 164.71 286.79 164.51 286.79H152.45V290.24C152.45 290.83 152.09 291.36 151.54 291.57L142.87 294.91C142.43 295.08 141.94 295.02 141.55 294.75C141.16 294.48 140.93 294.04 140.93 293.57V290.34L136.57 293.27V350.9C136.57 351.69 135.93 352.33 135.14 352.33C134.35 352.33 133.71 351.69 133.71 350.9V292.51C133.71 292.03 133.95 291.59 134.34 291.32L141.56 286.48C142 286.19 142.56 286.16 143.03 286.41C143.49 286.66 143.79 287.14 143.79 287.67V291.5L149.6 289.26V285.37C149.6 284.58 150.24 283.94 151.03 283.94H164.22L181.61 276.76C181.93 276.62 182.28 276.6 182.61 276.71L189.21 278.77C189.81 278.96 190.21 279.51 190.21 280.13V296.13L200.29 290.83C200.69 290.62 201.16 290.61 201.57 290.81L210.7 295.2V284.05C210.7 283.66 210.86 283.29 211.14 283.02C211.42 282.75 211.81 282.61 212.18 282.62L218.13 282.83C218.72 282.85 219.23 283.23 219.43 283.78L221.36 289.23H226.13C226.71 289.23 227.24 289.59 227.46 290.13L229.78 295.96H233.97C234.76 295.96 235.4 296.6 235.4 297.39V306.34C235.4 307.13 234.76 307.77 233.97 307.77H223.24C223.11 307.77 222.98 307.75 222.86 307.72L219.72 306.85V334.38H221.62V316.36C221.62 315.87 221.87 315.42 222.28 315.16C222.69 314.9 223.2 314.86 223.64 315.06L246.53 325.47C247.04 325.7 247.37 326.21 247.37 326.77V341.87L269.66 341.97V199.7C269.66 198.91 270.3 198.27 271.09 198.27H308.85C309.64 198.27 310.28 198.91 310.28 199.7V325.13H314.43V195.63C314.43 194.84 315.07 194.2 315.86 194.2H362.91C363.7 194.2 364.34 194.84 364.34 195.63V325.13H368.49V199.7C368.49 198.91 369.13 198.27 369.92 198.27H407.68C408.47 198.27 409.11 198.91 409.11 199.7V351.02C409.11 351.81 408.47 352.45 407.68 352.45C406.89 352.45 406.25 351.81 406.25 351.02V201.13H371.35V326.56C371.35 327.35 370.71 327.99 369.92 327.99H362.91C362.12 327.99 361.48 327.35 361.48 326.56V197.06H317.29V326.56C317.29 327.35 316.65 327.99 315.86 327.99H308.85C308.06 327.99 307.42 327.35 307.42 326.56V201.13H272.52V343.4C272.52 343.78 272.37 344.14 272.1 344.41C271.83 344.68 271.47 344.83 271.09 344.83L271.08 344.8Z" fill="white"/>
<path d="M270.95 200.33C270.5 200.33 270.07 200.12 269.8 199.74L240.41 159.46C240.09 159.03 240.05 158.45 240.29 157.97C240.53 157.49 241.03 157.19 241.56 157.19H280.51C281 157.19 281.45 157.44 281.71 157.85C281.97 158.26 282.01 158.77 281.81 159.22L276.96 169.84C276.73 170.35 276.22 170.68 275.66 170.68H269.59V185.72H270.95C271.74 185.72 272.38 186.36 272.38 187.15V198.91C272.38 199.53 271.98 200.08 271.39 200.27C271.24 200.32 271.1 200.34 270.95 200.34V200.33ZM244.37 160.06L269.53 194.53V188.58H268.17C267.38 188.58 266.74 187.94 266.74 187.15V169.25C266.74 168.46 267.38 167.82 268.17 167.82H274.75L278.29 160.06H244.37Z" fill="white"/>
<path d="M306.6 183.771H273.32C272.53 183.771 271.89 183.131 271.89 182.341V174.321C271.89 173.531 272.53 172.891 273.32 172.891H306.6C307.39 172.891 308.03 173.531 308.03 174.321V182.341C308.03 183.131 307.39 183.771 306.6 183.771ZM274.74 180.911H305.17V175.751H274.74V180.911Z" fill="white"/>
<path d="M302.97 196.391H276.94C276.15 196.391 275.51 195.751 275.51 194.961V187.151C275.51 186.361 276.15 185.721 276.94 185.721H302.97C303.76 185.721 304.4 186.361 304.4 187.151V194.961C304.4 195.751 303.76 196.391 302.97 196.391ZM278.37 193.541H301.55V188.581H278.37V193.541Z" fill="white"/>
<path d="M282.24 281.511H277.86V290.461H282.24V281.511Z" fill="white"/>
<path d="M282.24 267.37H277.86V276.32H282.24V267.37Z" fill="white"/>
<path d="M282.24 253.23H277.86V262.18H282.24V253.23Z" fill="white"/>
<path d="M282.24 239.101H277.86V248.051H282.24V239.101Z" fill="white"/>
<path d="M282.24 224.96H277.86V233.91H282.24V224.96Z" fill="white"/>
<path d="M282.24 210.82H277.86V219.77H282.24V210.82Z" fill="white"/>
<path d="M288.34 281.511H283.96V290.461H288.34V281.511Z" fill="white"/>
<path d="M288.34 267.37H283.96V276.32H288.34V267.37Z" fill="white"/>
<path d="M288.34 253.23H283.96V262.18H288.34V253.23Z" fill="white"/>
<path d="M288.34 239.101H283.96V248.051H288.34V239.101Z" fill="white"/>
<path d="M288.34 224.96H283.96V233.91H288.34V224.96Z" fill="white"/>
<path d="M288.34 210.82H283.96V219.77H288.34V210.82Z" fill="white"/>
<path d="M295.76 281.511H291.38V290.461H295.76V281.511Z" fill="white"/>
<path d="M295.76 267.37H291.38V276.32H295.76V267.37Z" fill="white"/>
<path d="M295.76 253.23H291.38V262.18H295.76V253.23Z" fill="white"/>
<path d="M295.76 239.101H291.38V248.051H295.76V239.101Z" fill="white"/>
<path d="M295.76 224.96H291.38V233.91H295.76V224.96Z" fill="white"/>
<path d="M295.76 210.82H291.38V219.77H295.76V210.82Z" fill="white"/>
<path d="M302.05 281.511H297.67V290.461H302.05V281.511Z" fill="white"/>
<path d="M302.05 267.37H297.67V276.32H302.05V267.37Z" fill="white"/>
<path d="M302.05 253.23H297.67V262.18H302.05V253.23Z" fill="white"/>
<path d="M302.05 239.101H297.67V248.051H302.05V239.101Z" fill="white"/>
<path d="M302.05 224.96H297.67V233.91H302.05V224.96Z" fill="white"/>
<path d="M302.05 210.82H297.67V219.77H302.05V210.82Z" fill="white"/>
<path d="M354.01 314.601H324.73V318.771H354.01V314.601Z" fill="white"/>
<path d="M354.01 305.261H324.73V309.431H354.01V305.261Z" fill="white"/>
<path d="M354.01 295.911H324.73V300.081H354.01V295.911Z" fill="white"/>
<path d="M354.01 286.561H324.73V290.731H354.01V286.561Z" fill="white"/>
<path d="M354.01 277.211H324.73V281.381H354.01V277.211Z" fill="white"/>
<path d="M354.01 267.861H324.73V272.031H354.01V267.861Z" fill="white"/>
<path d="M354.01 258.511H336.08V262.681H354.01V258.511Z" fill="white"/>
<path d="M354.01 249.171H336.08V253.341H354.01V249.171Z" fill="white"/>
<path d="M333.07 249.171H324.73V262.691H333.07V249.171Z" fill="white"/>
<path d="M354.01 239.821H324.73V243.991H354.01V239.821Z" fill="white"/>
<path d="M354.01 230.471H324.73V234.641H354.01V230.471Z" fill="white"/>
<path d="M354.01 221.121H324.73V225.291H354.01V221.121Z" fill="white"/>
<path d="M354.01 211.771H324.73V215.941H354.01V211.771Z" fill="white"/>
<path d="M354.01 202.421H324.73V206.591H354.01V202.421Z" fill="white"/>
<path d="M405.42 183.771H372.14C371.35 183.771 370.71 183.131 370.71 182.341V174.321C370.71 173.531 371.35 172.891 372.14 172.891H405.42C406.21 172.891 406.85 173.531 406.85 174.321V182.341C406.85 183.131 406.21 183.771 405.42 183.771ZM373.57 180.911H404V175.751H373.57V180.911Z" fill="white"/>
<path d="M401.8 196.391H375.77C374.98 196.391 374.34 195.751 374.34 194.961V187.151C374.34 186.361 374.98 185.721 375.77 185.721H401.8C402.59 185.721 403.23 186.361 403.23 187.151V194.961C403.23 195.751 402.59 196.391 401.8 196.391ZM377.19 193.541H400.37V188.581H377.19V193.541Z" fill="white"/>
<path d="M381.07 281.511H376.69V290.461H381.07V281.511Z" fill="white"/>
<path d="M381.07 267.37H376.69V276.32H381.07V267.37Z" fill="white"/>
<path d="M381.07 253.23H376.69V262.18H381.07V253.23Z" fill="white"/>
<path d="M381.07 239.101H376.69V248.051H381.07V239.101Z" fill="white"/>
<path d="M381.07 224.96H376.69V233.91H381.07V224.96Z" fill="white"/>
<path d="M381.07 210.82H376.69V219.77H381.07V210.82Z" fill="white"/>
<path d="M387.16 281.511H382.78V290.461H387.16V281.511Z" fill="white"/>
<path d="M387.16 267.37H382.78V276.32H387.16V267.37Z" fill="white"/>
<path d="M387.16 253.23H382.78V262.18H387.16V253.23Z" fill="white"/>
<path d="M387.16 239.101H382.78V248.051H387.16V239.101Z" fill="white"/>
<path d="M387.16 224.96H382.78V233.91H387.16V224.96Z" fill="white"/>
<path d="M387.16 210.82H382.78V219.77H387.16V210.82Z" fill="white"/>
<path d="M394.59 281.511H390.21V290.461H394.59V281.511Z" fill="white"/>
<path d="M394.59 267.37H390.21V276.32H394.59V267.37Z" fill="white"/>
<path d="M394.59 253.23H390.21V262.18H394.59V253.23Z" fill="white"/>
<path d="M394.59 239.101H390.21V248.051H394.59V239.101Z" fill="white"/>
<path d="M394.59 224.96H390.21V233.91H394.59V224.96Z" fill="white"/>
<path d="M394.59 210.82H390.21V219.77H394.59V210.82Z" fill="white"/>
<path d="M400.87 281.511H396.49V290.461H400.87V281.511Z" fill="white"/>
<path d="M400.87 267.37H396.49V276.32H400.87V267.37Z" fill="white"/>
<path d="M400.87 253.23H396.49V262.18H400.87V253.23Z" fill="white"/>
<path d="M400.87 239.101H396.49V248.051H400.87V239.101Z" fill="white"/>
<path d="M400.87 224.96H396.49V233.91H400.87V224.96Z" fill="white"/>
<path d="M400.87 210.82H396.49V219.77H400.87V210.82Z" fill="white"/>
<path d="M30.0899 352.4C29.7299 352.4 29.3699 352.26 29.0899 351.99C28.5299 351.44 28.5099 350.56 29.0499 350C29.2299 349.81 30.9099 348.14 34.8199 347.57C38.2899 347.06 45.0199 345.84 45.0899 345.83C45.1199 345.83 45.1599 345.82 45.1899 345.82C47.1999 345.61 48.9799 344.35 50.8599 343.02C51.8599 342.31 52.8999 341.58 54.0199 340.98C55.6599 340.1 57.3999 339.53 59.0899 338.99C60.7799 338.44 62.3799 337.93 63.8299 337.12C64.7099 336.63 65.3699 336.12 65.8399 335.55C66.3399 334.96 66.7099 334.21 67.1099 333.42L67.3299 332.98C68.6799 330.35 70.4799 328.14 72.2199 326.01C73.5899 324.33 74.8899 322.75 75.9599 320.98C79.0899 315.86 83.6899 311.8 87.3499 308.83L88.1299 308.21C89.2799 307.29 90.3699 306.43 91.2699 305.41C95.9999 300.05 98.4199 295.61 96.8299 288.77C96.4699 287.21 95.9499 285.68 95.2799 284.21C94.5199 282.52 94.0499 280.82 93.5999 279.18C93.5999 279.17 93.5999 279.16 93.5999 279.15C93.5099 279.13 93.3799 279.12 93.2799 279.1C93.0099 279.06 92.7099 279.02 92.3999 278.94L92.0599 278.86C91.1599 278.65 89.9199 278.37 89.0899 277.37C88.6899 276.89 88.4099 276.32 88.1699 275.8C88.0699 275.59 87.9699 275.38 87.8699 275.19C87.7199 274.93 87.4699 274.63 87.0799 274.26C86.5999 273.8 85.9399 273.42 85.0599 273.11L84.8699 273.04C84.3899 272.87 83.7899 272.67 83.2499 272.25C81.9499 271.23 81.7299 269.62 81.5699 268.44C81.4299 267.47 81.2199 266.9 80.9299 266.74C80.8199 266.68 80.6999 266.65 80.5899 266.61C80.3699 266.53 80.1499 266.45 79.9399 266.34C78.2599 265.5 77.7299 263.59 77.4499 262.57C77.1099 261.34 76.7599 260.07 76.6899 258.7C76.5899 256.8 77.0699 254.99 77.5399 253.48C78.0799 251.77 78.9099 250.44 79.8599 249L82.3799 245.19C82.5199 244.98 82.6599 244.77 82.8099 244.57C83.0799 244.18 83.3399 243.8 83.5499 243.43C84.2399 242.21 85.3699 241.68 86.5099 242.06C87.2199 242.3 87.5499 242.86 87.7099 243.14L87.7399 243.19C87.9199 243.32 88.0399 243.41 88.1599 243.51C88.5999 243.92 88.8099 244.43 88.9299 244.73L90.1299 247.73C90.1299 247.73 90.1899 247.7 90.2199 247.69C90.7299 247.47 91.1899 247.57 91.3699 247.6L92.4999 247.83C92.9299 247.92 93.4699 248.03 93.9999 248.32C95.2999 249.03 95.7999 250.29 96.2099 251.31C96.3099 251.56 96.4099 251.82 96.5199 252.05C96.5699 252.16 96.6799 252.3 96.7899 252.46C96.9399 252.66 97.0699 252.85 97.1999 252.97C97.3599 253.13 97.6399 253.24 97.9999 253.38C98.2499 253.48 98.4999 253.58 98.7399 253.7C99.2799 253.97 99.9099 254.09 100.48 254.03C100.77 254 101.07 253.92 101.39 253.83C101.96 253.68 102.62 253.51 103.38 253.53C104.33 253.55 105.18 253.83 105.83 254.32C106.51 254.83 106.9 255.52 107.22 256.07L107.36 256.31C107.66 256.81 108.01 257.3 108.38 257.82C108.41 257.87 108.44 257.91 108.47 257.95C108.5 257.95 108.52 257.97 108.55 257.98C108.86 258.08 109.24 258.13 109.64 258.19C110.3 258.29 111.06 258.39 111.79 258.74C111.95 258.82 112.12 258.88 112.29 258.95C113.06 259.26 114.11 259.69 114.74 260.81C114.84 260.98 114.92 261.17 114.99 261.35C115.02 261.43 115.05 261.51 115.1 261.59C115.16 261.7 115.25 261.8 115.32 261.89C115.48 262.09 115.63 262.28 115.75 262.5C116.24 263.33 116.32 264.22 116.36 264.99C116.39 265.58 116.4 266.21 116.29 266.87C116.25 267.14 116.18 267.41 116.11 267.68C116.06 267.88 116.01 268.09 115.98 268.3C115.81 269.42 116.56 271.08 117.59 271.84C117.67 271.9 117.75 271.95 117.83 272.01C118.13 272.21 118.49 272.46 118.82 272.84C119.47 273.61 119.62 274.54 119.69 275.34C119.74 275.92 119.75 276.54 119.56 277.19C119.34 277.93 118.9 278.48 118.55 278.93C118.37 279.16 118.19 279.38 118.09 279.58C117.87 279.99 117.8 280.57 117.87 281.4C117.89 281.67 117.93 281.95 117.96 282.22C118.04 282.86 118.12 283.52 118.09 284.23C118.07 284.93 117.93 285.52 117.68 286.03C117.32 286.78 116.51 287.8 115.43 288.22C115.15 288.33 114.85 288.41 114.55 288.49C114.22 288.58 113.87 288.67 113.68 288.79C113.51 288.89 113.24 289.27 113.04 289.55C112.89 289.76 112.74 289.96 112.59 290.14C112.51 290.24 112.42 290.33 112.36 290.44C112.3 290.55 112.26 290.68 112.22 290.8C112.14 291.05 112.1 291.21 112.05 291.37C112.01 291.52 111.97 291.68 111.92 291.83C111.82 292.16 111.67 292.44 111.56 292.66C111.51 292.76 111.44 292.85 111.41 292.96L111.35 293.15C111.26 293.44 111.15 293.78 111.13 294.01C111.13 294.14 111.13 294.21 111.15 294.29C111.17 294.47 111.19 294.65 111.19 294.83V299.91C111.21 302.86 111.22 305.52 111.27 308.17C111.28 308.87 111.3 309.57 111.33 310.26C111.39 311.52 111.783 312.493 112.51 313.18C113.07 313.7 113.83 314.42 114.87 315.56C118.34 319.34 120.57 322.59 122.45 328.88C124.32 335.12 129.33 346.1 134.86 348.97C135.56 349.33 135.83 350.2 135.47 350.9C135.11 351.6 134.24 351.87 133.54 351.51C126.44 347.81 121.15 334.51 119.71 329.7C117.99 323.94 115.94 320.96 112.76 317.49C111.79 316.43 111.07 315.76 110.55 315.27C108.9 313.73 108.6 313.22 108.47 310.4C108.44 309.68 108.42 308.95 108.41 308.23C108.36 305.55 108.35 302.88 108.33 299.92V294.85C108.33 294.78 108.31 294.7 108.3 294.62C108.27 294.38 108.25 294.15 108.26 293.92C108.26 293.83 108.27 293.76 108.28 293.68C108.33 293.19 108.49 292.7 108.61 292.3L108.66 292.13C108.76 291.8 108.91 291.53 109.02 291.31C109.08 291.2 109.15 291.07 109.16 291.02C109.2 290.9 109.23 290.78 109.26 290.66C109.32 290.42 109.38 290.19 109.46 289.95C109.57 289.64 109.67 289.35 109.84 289.04C110.01 288.74 110.21 288.49 110.36 288.32C110.47 288.19 110.57 288.04 110.69 287.88C111.05 287.38 111.5 286.75 112.17 286.34C112.71 286.01 113.28 285.86 113.77 285.72C113.98 285.66 114.19 285.61 114.38 285.54C114.57 285.47 114.92 285.12 115.09 284.77C115.16 284.63 115.2 284.41 115.21 284.12C115.23 283.63 115.16 283.11 115.1 282.55C115.06 282.24 115.02 281.93 115 281.62C114.93 280.74 114.9 279.42 115.55 278.22C115.77 277.8 116.05 277.46 116.29 277.15C116.53 276.85 116.75 276.57 116.81 276.35C116.87 276.16 116.85 275.85 116.83 275.56C116.82 275.38 116.77 274.84 116.63 274.67C116.57 274.59 116.39 274.48 116.23 274.37C116.11 274.29 116 274.21 115.88 274.13C113.99 272.73 112.81 270.03 113.14 267.86C113.18 267.57 113.25 267.28 113.32 267C113.37 266.8 113.42 266.61 113.45 266.41C113.51 266.03 113.51 265.62 113.49 265.12C113.47 264.7 113.44 264.23 113.28 263.97C113.22 263.87 113.14 263.78 113.06 263.68C112.91 263.5 112.73 263.27 112.57 262.98C112.47 262.81 112.4 262.63 112.32 262.45C112.29 262.37 112.25 262.28 112.21 262.21C112.08 261.98 111.74 261.83 111.19 261.61C110.97 261.52 110.75 261.43 110.54 261.33C110.2 261.17 109.71 261.1 109.2 261.02C108.73 260.95 108.2 260.87 107.66 260.71C107.39 260.62 107.07 260.51 106.76 260.29C106.4 260.03 106.17 259.71 106.02 259.5C105.62 258.95 105.22 258.38 104.86 257.77L104.7 257.5C104.48 257.12 104.28 256.77 104.06 256.6C103.89 256.47 103.61 256.39 103.27 256.39C102.9 256.39 102.51 256.48 102.07 256.6C101.68 256.7 101.25 256.81 100.76 256.87C99.6399 257 98.4499 256.78 97.4199 256.26C97.2499 256.18 97.0799 256.11 96.9099 256.04C96.3799 255.83 95.7299 255.57 95.1499 255C94.8699 254.72 94.6499 254.42 94.4599 254.16C94.2899 253.92 94.0799 253.65 93.9199 253.31C93.7799 253.02 93.6499 252.7 93.5199 252.38C93.2499 251.7 92.9899 251.05 92.5999 250.84C92.4399 250.75 92.1599 250.7 91.8899 250.64L91.1799 250.49C90.6299 250.82 89.9499 250.85 89.1399 250.58C88.9599 250.52 88.6699 250.42 88.3799 250.21C87.8499 249.82 87.6399 249.29 87.5299 249L86.2499 245.8C86.2199 245.73 86.1999 245.66 86.1699 245.6C86.0299 245.5 85.8899 245.41 85.7599 245.28C85.5599 245.6 85.3499 245.91 85.1399 246.21C85.0099 246.4 84.8799 246.59 84.7499 246.78L82.2299 250.59C81.3699 251.89 80.6799 252.99 80.2599 254.35C79.8599 255.62 79.4599 257.12 79.5299 258.57C79.5799 259.63 79.8799 260.69 80.1899 261.82C80.3599 262.42 80.6699 263.53 81.2099 263.8C81.3099 263.85 81.4199 263.89 81.5299 263.93C81.7499 264.01 82.0299 264.1 82.3099 264.26C83.7999 265.09 84.1999 266.73 84.3899 268.06C84.4999 268.84 84.6199 269.71 85.0099 270.02C85.1699 270.15 85.4699 270.25 85.7899 270.36L86.0099 270.44C87.2899 270.89 88.2899 271.48 89.0699 272.24C89.6599 272.81 90.0599 273.31 90.3499 273.81C90.4899 274.05 90.6199 274.32 90.7499 274.6C90.9199 274.96 91.1199 275.37 91.2899 275.57C91.5099 275.83 92.1799 275.98 92.7199 276.11L93.0999 276.2C93.2999 276.25 93.4899 276.27 93.6699 276.3C94.4399 276.4 95.8599 276.59 96.3699 278.45C96.8099 280.06 97.2299 281.58 97.8999 283.06C98.6399 284.7 99.2199 286.41 99.6299 288.15C101.5 296.15 98.6399 301.42 93.4299 307.33C92.3599 308.54 91.1199 309.52 89.9299 310.48L89.1699 311.09C85.6899 313.91 81.3199 317.76 78.4199 322.51C77.2399 324.44 75.8199 326.18 74.4499 327.86C72.7299 329.97 71.0999 331.96 69.8899 334.32L69.6799 334.74C69.2299 335.64 68.7599 336.57 68.0499 337.42C67.3499 338.26 66.4299 338.99 65.2399 339.65C63.5499 340.59 61.7399 341.17 59.9899 341.74C58.3499 342.27 56.8099 342.77 55.3999 343.53C54.4299 344.05 53.5099 344.7 52.5299 345.39C50.4399 346.86 48.2899 348.38 45.5699 348.68C44.9499 348.79 38.6199 349.93 35.2599 350.43C32.3499 350.86 31.1399 352.01 31.1299 352.02C30.8499 352.29 30.4799 352.43 30.1199 352.43L30.0899 352.4Z" fill="white"/>
<path d="M271.69 291.65H256.46C254.93 291.65 253.7 292.89 253.7 294.41V342.95H256.46V294.41H271.69V291.65Z" fill="white"/>
<path d="M408.84 247.4H448.76V251.23H462.05V256.45H468.78V281.43H481.11V241.07L515.32 241.18V265.16H520.23V280.33H527.62V301.66H530.38V280.33C530.38 278.8 529.14 277.57 527.62 277.57H522.99V265.16C522.99 263.63 521.75 262.4 520.23 262.4H518.09V241.19C518.09 239.67 516.86 238.43 515.33 238.43L481.12 238.32C480.39 238.32 479.69 238.61 479.17 239.13C478.65 239.65 478.36 240.35 478.36 241.09V278.68H471.56V256.47C471.56 254.94 470.32 253.71 468.8 253.71H464.83V251.26C464.83 249.73 463.59 248.5 462.07 248.5H451.54V247.44C451.54 245.91 450.3 244.68 448.78 244.68H408.86V247.44L408.84 247.4Z" fill="white"/>
<path d="M266.04 319.979H261.01V323.929H266.04V319.979Z" fill="white"/>
<path d="M266.04 311.75H261.01V315.7H266.04V311.75Z" fill="white"/>
<path d="M266.04 303.02H261.01V306.97H266.04V303.02Z" fill="white"/>
<path d="M52.96 343.83V298.23C52.96 296.7 51.72 295.47 50.2 295.47H12.1C10.57 295.47 9.33997 296.71 9.33997 298.23V352.05C9.33997 352.81 9.95997 353.43 10.72 353.43C11.48 353.43 12.1 352.81 12.1 352.05V298.23H50.19V343.83H52.95H52.96Z" fill="white"/>
<path d="M421.67 283.93H418.5V287.81H421.67V283.93Z" fill="white"/>
<path d="M421.67 276.92H418.5V280.8H421.67V276.92Z" fill="white"/>
<path d="M421.67 269.9H418.5V273.78H421.67V269.9Z" fill="white"/>
<path d="M421.67 262.89H418.5V266.77H421.67V262.89Z" fill="white"/>
<path d="M421.67 255.88H418.5V259.76H421.67V255.88Z" fill="white"/>
<path d="M428.68 283.93H425.51V287.81H428.68V283.93Z" fill="white"/>
<path d="M428.68 276.92H425.51V280.8H428.68V276.92Z" fill="white"/>
<path d="M428.68 269.9H425.51V273.78H428.68V269.9Z" fill="white"/>
<path d="M428.68 262.89H425.51V266.77H428.68V262.89Z" fill="white"/>
<path d="M428.68 255.88H425.51V259.76H428.68V255.88Z" fill="white"/>
<path d="M38.19 310.24H32.76V315.47H38.19V310.24Z" fill="white"/>
<path d="M29.54 310.24H24.1V315.47H29.54V310.24Z" fill="white"/>
<path d="M38.19 318.82H32.76V324.04H38.19V318.82Z" fill="white"/>
<path d="M29.54 318.82H24.1V324.04H29.54V318.82Z" fill="white"/>
<path d="M78.53 292.13H75.46V303.8H78.53V292.13Z" fill="white"/>
<path d="M71.91 292.13H68.84V303.8H71.91V292.13Z" fill="white"/>
<path d="M65.28 292.13H62.21V303.8H65.28V292.13Z" fill="white"/>
<path d="M553.18 337.68V337.65H551.97C527.71 310.73 499.25 285.45 471.64 297.44C469.67 296.18 467.88 295.27 466.36 294.8C461.6 293.34 457.61 293.74 453.74 295.02C443.98 298.26 436.73 306.57 431.39 315.79C431.31 315.67 431.25 315.56 431.17 315.44C428.65 311.52 424.99 306.64 421.79 303.22C419.31 300.56 415.95 297.76 412.07 298.02C410.25 298.14 408.52 299 406.88 300.33C406.9 301.42 406.9 302.51 406.88 303.6H407.26C411.15 307.72 412.81 310.85 414.94 315.19C415.3 315.92 415.83 317.13 416.43 318.61C412.77 319.02 410.4 319.44 407.31 319.81C407.31 320.3 407.33 320.79 407.34 321.28C410.79 321.02 413.43 320.74 417.16 320.47C418.18 323.1 419.31 326.25 420.23 329.27H419.74V334.98H424.5V333.19H437.92V334.98H442.68V329.27H442.49C444.91 325.27 447.44 321.61 450.06 318.33C454.3 318.1 458.21 317.9 461.58 317.77C470.16 317.44 480.64 317.34 490.74 317.34C496.59 324.86 502.14 333.88 507.29 343.36V352.4H519.57V344.42H543.52V352.4H555.8V337.66H553.16L553.18 337.68ZM513.29 306.62H483.1C481.38 305.03 479.7 303.55 478.08 302.21H506C508.42 303.44 510.86 304.91 513.3 306.62H513.29ZM503.99 301.24H476.89C476.1 300.61 475.32 300.01 474.57 299.45C483.92 296.14 493.83 296.61 503.99 301.24ZM469.01 298.69C467.93 299.26 466.85 299.89 465.77 300.57H448.8C455.65 296.32 462.42 296.06 469.01 298.69ZM447.36 301.53H464.33C462.89 302.52 461.45 303.62 460.02 304.84H443.32C444.67 303.57 446.02 302.48 447.36 301.53ZM442.33 305.79H458.94C457.76 306.85 456.58 307.98 455.41 309.2H439.22C440.26 307.96 441.3 306.82 442.34 305.79H442.33ZM407.61 301.74C411.32 298.9 415.03 300 418.4 302.65H408.46C408.18 302.34 407.9 302.03 407.61 301.74ZM409.29 303.61H419.52C420.3 304.31 421.05 305.08 421.78 305.9H411.09C410.49 305.09 409.89 304.33 409.29 303.61ZM411.77 306.85H422.6C425.09 309.82 427.23 313.12 428.79 315.38C429.18 315.94 429.51 316.56 429.84 317.17C425.79 317.59 421.99 318 418.45 318.4C416.43 314.23 414.14 310.23 411.77 306.85ZM422.99 329.28C421.97 326.37 420.75 323.33 419.36 320.32C422.64 320.09 425.98 319.86 429.3 319.63C427.45 323.23 425.87 326.87 424.52 330.34V329.28H422.99ZM426.1 330.57C427.89 326.82 429.69 323.43 431.48 320.37C433.2 323.93 434.89 327.98 435.74 330.57H426.1ZM440.77 329.28H439.08C437.31 325.63 435.74 322.76 433.64 319.34C438.5 319.02 443.27 318.72 447.73 318.47C445.39 321.7 443.08 325.3 440.78 329.28H440.77ZM450.24 315.14C444.33 315.7 438.82 316.24 433.68 316.77C434.09 316.13 434.5 315.51 434.91 314.91L450.49 314.81C450.4 314.92 450.32 315.03 450.23 315.14H450.24ZM435.58 313.95C436.53 312.6 437.48 311.33 438.43 310.15H454.49C453.41 311.31 452.34 312.55 451.27 313.85L435.58 313.95ZM459.72 314.27C457.42 314.48 455.19 314.68 452.99 314.89C459.05 308.09 465.55 303.17 472.38 300.29C477.22 302.95 481.95 307.08 486.52 312.23C479.13 312.67 470.28 313.32 459.72 314.27ZM488.76 312.1C487.2 310.53 485.66 309.01 484.14 307.58H514.64C516.4 308.87 518.16 310.29 519.93 311.84C516.04 311.45 507.23 311.07 488.76 312.1ZM510.56 337.65C505.67 330.97 499.78 323.85 493.78 317.36C507.85 317.39 520.71 317.62 526.07 317.73C533.37 325.24 537.08 329.91 541.27 337.65H510.56Z" fill="white"/>
<path d="M84.4699 138.329H82.6199C82.6199 134.709 79.6699 131.759 76.0599 131.759V129.909C80.6999 129.909 84.4799 133.689 84.4799 138.329H84.4699Z" fill="white"/>
<path d="M84.47 138.329H82.62C82.62 133.689 86.4 129.909 91.03 129.909V131.759C87.41 131.759 84.47 134.709 84.47 138.329Z" fill="white"/>
<path d="M201.58 46.4793H199.73C199.73 42.8593 196.78 39.9093 193.17 39.9093C190.74 39.9093 188.52 41.2393 187.38 43.3893L185.75 42.5193C187.22 39.7693 190.06 38.0693 193.18 38.0693C197.82 38.0693 201.6 41.8493 201.6 46.4893L201.58 46.4793Z" fill="white"/>
<path d="M201.58 46.4796H199.73C199.73 41.8396 203.51 38.0596 208.15 38.0596C211.26 38.0596 214.11 39.7696 215.58 42.5096L213.95 43.3796C212.81 41.2396 210.59 39.8996 208.16 39.8996C204.54 39.8996 201.59 42.8496 201.59 46.4696L201.58 46.4796Z" fill="white"/>
</g>
</svg>
