<svg width="368" height="151" viewBox="0 0 368 151" fill="none" xmlns="http://www.w3.org/2000/svg">
<path d="M65.136 21.472L57.216 38.104L59.664 57.688H65.064L62.544 64.312H48.648L47.784 58.048L45.264 62.872H37.272L40.44 56.248H35.328L33.168 49.984V55.528L30.432 64.312H17.688L21 53.872V8.944H41.736L40.872 1.24H52.752L53.688 8.944H55.56L54.912 2.464H61.248L62.04 8.944H63.696V15.64H54.48L55.704 24.496L57 21.472H65.136ZM19.272 56.968L0.264003 64.456V57.256L4.08 55.816V21.616H0.624003V14.92H4.08V1.24H16.176V14.92H19.128V21.616H16.176V51.064L19.272 49.696V56.968ZM46.056 44.44L42.528 15.64H33.168V24.712H42.744V51.496L46.056 44.44ZM35.472 49.408V31.624H33.168V49.408H35.472ZM139.872 15.064H114.672V22.48H137.28V59.56H120.576L116.472 52.576H124.392V29.608H114.672V64.528H100.56V29.608H91.056V59.56H77.88V22.48H100.56V15.064H75.36V8.08H100.272L98.256 1.24H113.016L115.032 8.08H139.872V15.064ZM214.824 27.16H167.808V21.616H185.304V18.808H170.76V13.336H185.304V10.528H169.248V4.984H174.864L173.28 0.951996H186.456L188.4 4.984H194.592L196.176 0.951996H209.208L207.984 4.984H214.248V10.528H197.904V13.336H212.808V18.808H197.904V21.616H214.824V27.16ZM214.248 37.528H206.472L205.104 29.392H213.24L214.248 37.528ZM216.408 57.904L213.672 64.456H197.328L196.752 61.144L195.384 62.152H186.744V64.456H171.048L168.672 58.192H174.864V54.736L167.808 55.312V49.192L174.864 48.544V45.016H167.952V39.184H174.864V36.088H168.888V30.904H179.832L180.336 28.888H191.064L189.408 36.088H186.744V39.184H193.224L191.568 28.888H203.16L204.816 39.184H215.544V45.016H205.824L206.04 46.672H214.68L207.048 52.864L207.912 57.904H216.408ZM169.536 0.951996L164.136 25.792H166.008V64.456H153.624V29.536H150.744L157.08 0.951996H169.536ZM195.384 52.648L194.16 45.016H186.744V47.464L191.64 47.032V53.296L186.744 53.728V59.632L195.384 52.648ZM291.936 64.528H274.44L253.344 42.352L247.728 47.176V57.832H265.656L261.84 64.528H233.616V51.28H225.696L243.624 36.088H226.776V29.248H251.688V24.352H230.088V17.872H251.688V13.192H227.568V6.496H251.688V1.168H265.872V6.496H289.848V13.192H265.872V17.872H287.4V24.352H265.872V29.248H290.712V36.088H260.76L256.584 39.616H268.032L271.776 43.504L275.88 38.248H289.992L279.696 51.784L291.936 64.528ZM367.392 64.672H356.448L353.928 59.56L351.984 64.672H341.616L347.88 47.608L342.84 37.744V55.744L339.312 64.672H326.496L328.152 60.496H324.192L322.752 20.392H327.576L329.016 58.264L330.312 55.168V3.76H351.696L352.632 1.024H367.104L364.008 10.96H342.84V21.472H365.592V27.592L358.464 46.96L367.392 64.672ZM328.584 17.008H321.528V64.672H309.216V17.008H302.376V9.88H309.216V1.024H321.528V9.88H328.584V17.008ZM307.992 20.392L306.696 60.568H301.8L303.24 20.392H307.992ZM354.72 28.672H342.84V31.768H350.76L352.344 35.008L354.72 28.672ZM102.792 150.672H87.312L69.672 120.648L53.256 150.672H37.488L60.744 108.264H38.352V100.776H62.472V86.88H76.656V100.776H101.208V108.264H76.656L74.28 112.44H80.832L102.792 150.672ZM176.952 135.696H114.6V129H138.792V125.472H116.472V118.992H138.792V115.68H116.688V87.816H174.432V115.68H152.184V118.992H174.504V125.472H152.184V129H176.952V135.696ZM177.456 150.456H164.856L161.544 137.64H174.072L177.456 150.456ZM161.4 150.456H148.944L145.632 137.64H158.088L161.4 150.456ZM145.776 150.456H133.32L130.008 137.64H142.464L145.776 150.456ZM129.504 137.64L126.336 150.456H113.592L116.76 137.64H129.504ZM161.832 109.344V94.224H152.184V109.344H161.832ZM138.792 109.344V94.224H129.288V109.344H138.792ZM160.968 96.744L158.952 106.824H153.192L155.064 96.744H160.968ZM137.928 106.824H132.096L130.152 96.744H135.984L137.928 106.824ZM254.928 130.872H249.096V150.6H193.08V130.872H187.536L209.712 119.64L201.072 115.32H189.12L199.344 104.664H189.768V92.136H214.536L212.448 87.096H227.208L229.296 92.136H252.336V104.664H249.24V110.568L231.96 119.496L254.928 130.872ZM238.44 102.864V98.76H203.52V100.344H218.712L216.48 102.864H238.44ZM229.224 109.632H210.072L206.904 113.016H219.144L220.872 113.952L229.224 109.632ZM229.944 129.792L220.872 125.256L212.016 129.792H229.944ZM235.272 144.048V136.272H206.76V144.048H235.272ZM329.52 116.832H316.848L311.232 87.024H323.832L329.52 116.832ZM329.664 150.456H317.28L315.984 143.976L312.024 150.456H292.584V146.568H287.76L286.176 106.392H291.432L291.648 112.296L297.48 87.024H310.44L304.392 114.168H315.336L306.408 143.256H315.84L312.528 125.76H324.84L329.664 150.456ZM292.872 102.792H284.808V150.456H272.496V102.792H264.504V95.664H272.496V87.024H284.808V95.664H292.872V102.792ZM270.84 106.392L269.472 146.496H264.504L265.8 106.392H270.84ZM301.224 116.832H291.864L292.944 143.184L301.224 116.832Z" fill="white"/>
</svg>
