<svg width="255" height="118" viewBox="0 0 255 118" fill="none" xmlns="http://www.w3.org/2000/svg">
<path d="M119.56 20.1504H116.38V22.1504H119.56V20.1504Z" fill="#5B2550"/>
<path d="M125.84 20.1504H122.66V22.1504H125.84V20.1504Z" fill="#5B2550"/>
<path d="M132.12 20.1504H128.94V22.1504H132.12V20.1504Z" fill="#5B2550"/>
<path d="M138.4 20.1504H135.22V22.1504H138.4V20.1504Z" fill="#5B2550"/>
<path d="M144.67 20.1504H141.49V22.1504H144.67V20.1504Z" fill="#5B2550"/>
<path d="M150.95 20.1504H147.77V22.1504H150.95V20.1504Z" fill="#5B2550"/>
<path d="M154.09 20.1504H150.91V22.1504H154.09V20.1504Z" fill="#5B2550"/>
<path d="M157.23 20.1504H154.05V22.1504H157.23V20.1504Z" fill="#5B2550"/>
<path d="M160.37 20.1504H157.19V22.1504H160.37V20.1504Z" fill="#5B2550"/>
<path d="M119.56 14.25H116.38V16.25H119.56V14.25Z" fill="#5B2550"/>
<path d="M125.84 14.25H122.66V16.25H125.84V14.25Z" fill="#5B2550"/>
<path d="M132.12 14.25H128.94V16.25H132.12V14.25Z" fill="#5B2550"/>
<path d="M138.4 14.25H135.22V16.25H138.4V14.25Z" fill="#5B2550"/>
<path d="M144.67 14.25H141.49V16.25H144.67V14.25Z" fill="#5B2550"/>
<path d="M150.95 14.25H147.77V16.25H150.95V14.25Z" fill="#5B2550"/>
<path d="M157.23 14.25H154.05V16.25H157.23V14.25Z" fill="#5B2550"/>
<path d="M245.39 4.4209H242.21V6.4209H245.39V4.4209Z" fill="#5E637D"/>
<path d="M248.53 4.4209H245.35V6.4209H248.53V4.4209Z" fill="#4E536E"/>
<path d="M251.67 4.4209H248.49V6.4209H251.67V4.4209Z" fill="#454961"/>
<path d="M254.8 4.4209H251.62V6.4209H254.8V4.4209Z" fill="#454961"/>
<path d="M163.61 4.4209H160.43V6.4209H163.61V4.4209Z" fill="white"/>
<path d="M166.75 4.4209H163.57V6.4209H166.75V4.4209Z" fill="white"/>
<path d="M169.89 4.4209H166.71V6.4209H169.89V4.4209Z" fill="white"/>
<path d="M173.03 4.4209H169.85V6.4209H173.03V4.4209Z" fill="white"/>
<path d="M176.17 4.4209H172.99V6.4209H176.17V4.4209Z" fill="white"/>
<path d="M179.31 4.4209H176.13V6.4209H179.31V4.4209Z" fill="white"/>
<path d="M182.45 4.4209H179.27V6.4209H182.45V4.4209Z" fill="white"/>
<path d="M185.59 4.4209H182.41V6.4209H185.59V4.4209Z" fill="white"/>
<path d="M188.73 4.4209H185.55V6.4209H188.73V4.4209Z" fill="white"/>
<path d="M191.87 4.4209H188.69V6.4209H191.87V4.4209Z" fill="white"/>
<path d="M195.01 4.4209H191.83V6.4209H195.01V4.4209Z" fill="white"/>
<path d="M198.15 4.4209H194.97V6.4209H198.15V4.4209Z" fill="white"/>
<path d="M201.29 4.4209H198.11V6.4209H201.29V4.4209Z" fill="white"/>
<path d="M3.29999 4.4209H0.119995V6.4209H3.29999V4.4209Z" fill="white"/>
<path d="M6.44 4.4209H3.26001V6.4209H6.44V4.4209Z" fill="white"/>
<path d="M9.57001 4.4209H6.39001V6.4209H9.57001V4.4209Z" fill="white"/>
<path d="M12.72 4.4209H9.54004V6.4209H12.72V4.4209Z" fill="white"/>
<path d="M15.8499 4.4209H12.6699V6.4209H15.8499V4.4209Z" fill="#46E8BB"/>
<path d="M18.9901 4.4209H15.8101V6.4209H18.9901V4.4209Z" fill="#040F39"/>
<path d="M22.1299 4.4209H18.95V6.4209H22.1299V4.4209Z" fill="#041042"/>
<path d="M25.2701 4.4209H22.0901V6.4209H25.2701V4.4209Z" fill="#041042"/>
<path d="M28.41 4.4209H25.23V6.4209H28.41V4.4209Z" fill="#041B4C"/>
<path d="M31.55 4.4209H28.37V6.4209H31.55V4.4209Z" fill="#042C52"/>
<path d="M34.69 4.4209H31.51V6.4209H34.69V4.4209Z" fill="#042C52"/>
<path d="M37.83 4.4209H34.65V6.4209H37.83V4.4209Z" fill="#074E54"/>
<path d="M40.97 4.4209H37.79V6.4209H40.97V4.4209Z" fill="#EC289C"/>
<path d="M44.1099 4.4209H40.9299V6.4209H44.1099V4.4209Z" fill="#EC289C"/>
<path d="M47.2501 4.4209H44.0701V6.4209H47.2501V4.4209Z" fill="#EC289C"/>
<path d="M50.39 4.4209H47.21V6.4209H50.39V4.4209Z" fill="#EC289C"/>
<path d="M53.53 4.4209H50.35V6.4209H53.53V4.4209Z" fill="#EC289C"/>
<path d="M119.56 4.4209H116.38V6.4209H119.56V4.4209Z" fill="#1E9CA2"/>
<path d="M122.7 4.4209H119.52V6.4209H122.7V4.4209Z" fill="#179AA2"/>
<path d="M125.84 4.4209H122.66V6.4209H125.84V4.4209Z" fill="#179AA2"/>
<path d="M128.97 4.4209H125.79V6.4209H128.97V4.4209Z" fill="#10949D"/>
<path d="M132.12 4.4209H128.94V6.4209H132.12V4.4209Z" fill="#10949D"/>
<path d="M135.25 4.4209H132.07V6.4209H135.25V4.4209Z" fill="#10949D"/>
<path d="M138.4 4.4209H135.22V6.4209H138.4V4.4209Z" fill="#0A939C"/>
<path d="M141.54 4.4209H138.36V6.4209H141.54V4.4209Z" fill="#0A939C"/>
<path d="M144.67 4.4209H141.49V6.4209H144.67V4.4209Z" fill="#038F9C"/>
<path d="M147.81 4.4209H144.63V6.4209H147.81V4.4209Z" fill="#038F9C"/>
<path d="M150.95 4.4209H147.77V6.4209H150.95V4.4209Z" fill="#038F9C"/>
<path d="M154.09 4.4209H150.91V6.4209H154.09V4.4209Z" fill="#038F9C"/>
<path d="M157.23 4.4209H154.05V6.4209H157.23V4.4209Z" fill="#038F9C"/>
<path d="M160.37 4.4209H157.19V6.4209H160.37V4.4209Z" fill="#038F9C"/>
<path d="M245.39 2.4502H242.21V4.4502H245.39V2.4502Z" fill="#5E637D"/>
<path d="M248.53 2.4502H245.35V4.4502H248.53V2.4502Z" fill="#4E536E"/>
<path d="M251.67 2.4502H248.49V4.4502H251.67V2.4502Z" fill="#454961"/>
<path d="M254.8 2.4502H251.62V4.4502H254.8V2.4502Z" fill="#454961"/>
<path d="M163.61 2.4502H160.43V4.4502H163.61V2.4502Z" fill="white"/>
<path d="M166.75 2.4502H163.57V4.4502H166.75V2.4502Z" fill="white"/>
<path d="M169.89 2.4502H166.71V4.4502H169.89V2.4502Z" fill="white"/>
<path d="M173.03 2.4502H169.85V4.4502H173.03V2.4502Z" fill="white"/>
<path d="M176.17 2.4502H172.99V4.4502H176.17V2.4502Z" fill="white"/>
<path d="M179.31 2.4502H176.13V4.4502H179.31V2.4502Z" fill="white"/>
<path d="M182.45 2.4502H179.27V4.4502H182.45V2.4502Z" fill="white"/>
<path d="M185.59 2.4502H182.41V4.4502H185.59V2.4502Z" fill="white"/>
<path d="M188.73 2.4502H185.55V4.4502H188.73V2.4502Z" fill="white"/>
<path d="M191.87 2.4502H188.69V4.4502H191.87V2.4502Z" fill="white"/>
<path d="M195.01 2.4502H191.83V4.4502H195.01V2.4502Z" fill="white"/>
<path d="M198.15 2.4502H194.97V4.4502H198.15V2.4502Z" fill="white"/>
<path d="M201.29 2.4502H198.11V4.4502H201.29V2.4502Z" fill="white"/>
<path d="M3.29999 2.4502H0.119995V4.4502H3.29999V2.4502Z" fill="white"/>
<path d="M6.44 2.4502H3.26001V4.4502H6.44V2.4502Z" fill="white"/>
<path d="M9.57001 2.4502H6.39001V4.4502H9.57001V2.4502Z" fill="white"/>
<path d="M12.72 2.4502H9.54004V4.4502H12.72V2.4502Z" fill="white"/>
<path d="M15.8499 2.4502H12.6699V4.4502H15.8499V2.4502Z" fill="#46E8BB"/>
<path d="M18.9901 2.4502H15.8101V4.4502H18.9901V2.4502Z" fill="#040F39"/>
<path d="M22.1299 2.4502H18.95V4.4502H22.1299V2.4502Z" fill="#041042"/>
<path d="M25.2701 2.4502H22.0901V4.4502H25.2701V2.4502Z" fill="#041042"/>
<path d="M28.41 2.4502H25.23V4.4502H28.41V2.4502Z" fill="#041B4C"/>
<path d="M31.55 2.4502H28.37V4.4502H31.55V2.4502Z" fill="#042C52"/>
<path d="M34.69 2.4502H31.51V4.4502H34.69V2.4502Z" fill="#042C52"/>
<path d="M37.83 2.4502H34.65V4.4502H37.83V2.4502Z" fill="#074E54"/>
<path d="M40.97 2.4502H37.79V4.4502H40.97V2.4502Z" fill="#EC289C"/>
<path d="M44.1099 2.4502H40.9299V4.4502H44.1099V2.4502Z" fill="#EC289C"/>
<path d="M47.2501 2.4502H44.0701V4.4502H47.2501V2.4502Z" fill="#EC289C"/>
<path d="M50.39 2.4502H47.21V4.4502H50.39V2.4502Z" fill="#EC289C"/>
<path d="M53.53 2.4502H50.35V4.4502H53.53V2.4502Z" fill="#EC289C"/>
<path d="M119.56 2.4502H116.38V4.4502H119.56V2.4502Z" fill="#1E9CA2"/>
<path d="M122.7 2.4502H119.52V4.4502H122.7V2.4502Z" fill="#179AA2"/>
<path d="M125.84 2.4502H122.66V4.4502H125.84V2.4502Z" fill="#179AA2"/>
<path d="M128.97 2.4502H125.79V4.4502H128.97V2.4502Z" fill="#10949D"/>
<path d="M132.12 2.4502H128.94V4.4502H132.12V2.4502Z" fill="#10949D"/>
<path d="M135.25 2.4502H132.07V4.4502H135.25V2.4502Z" fill="#10949D"/>
<path d="M138.4 2.4502H135.22V4.4502H138.4V2.4502Z" fill="#0A939C"/>
<path d="M141.54 2.4502H138.36V4.4502H141.54V2.4502Z" fill="#0A939C"/>
<path d="M144.67 2.4502H141.49V4.4502H144.67V2.4502Z" fill="#038F9C"/>
<path d="M147.81 2.4502H144.63V4.4502H147.81V2.4502Z" fill="#038F9C"/>
<path d="M150.95 2.4502H147.77V4.4502H150.95V2.4502Z" fill="#038F9C"/>
<path d="M154.09 2.4502H150.91V4.4502H154.09V2.4502Z" fill="#038F9C"/>
<path d="M157.23 2.4502H154.05V4.4502H157.23V2.4502Z" fill="#038F9C"/>
<path d="M160.37 2.4502H157.19V4.4502H160.37V2.4502Z" fill="#038F9C"/>
<path d="M245.39 0.480469H242.21V2.48047H245.39V0.480469Z" fill="#5E637D"/>
<path d="M248.53 0.480469H245.35V2.48047H248.53V0.480469Z" fill="#4E536E"/>
<path d="M251.67 0.480469H248.49V2.48047H251.67V0.480469Z" fill="#454961"/>
<path d="M254.8 0.480469H251.62V2.48047H254.8V0.480469Z" fill="#454961"/>
<path d="M163.61 0.480469H160.43V2.48047H163.61V0.480469Z" fill="white"/>
<path d="M166.75 0.480469H163.57V2.48047H166.75V0.480469Z" fill="white"/>
<path d="M169.89 0.480469H166.71V2.48047H169.89V0.480469Z" fill="white"/>
<path d="M173.03 0.480469H169.85V2.48047H173.03V0.480469Z" fill="white"/>
<path d="M176.17 0.480469H172.99V2.48047H176.17V0.480469Z" fill="white"/>
<path d="M179.31 0.480469H176.13V2.48047H179.31V0.480469Z" fill="white"/>
<path d="M182.45 0.480469H179.27V2.48047H182.45V0.480469Z" fill="white"/>
<path d="M185.59 0.480469H182.41V2.48047H185.59V0.480469Z" fill="white"/>
<path d="M188.73 0.480469H185.55V2.48047H188.73V0.480469Z" fill="white"/>
<path d="M191.87 0.480469H188.69V2.48047H191.87V0.480469Z" fill="white"/>
<path d="M195.01 0.480469H191.83V2.48047H195.01V0.480469Z" fill="white"/>
<path d="M198.15 0.480469H194.97V2.48047H198.15V0.480469Z" fill="white"/>
<path d="M201.29 0.480469H198.11V2.48047H201.29V0.480469Z" fill="white"/>
<path d="M3.29999 0.480469H0.119995V2.48047H3.29999V0.480469Z" fill="white"/>
<path d="M6.44 0.480469H3.26001V2.48047H6.44V0.480469Z" fill="white"/>
<path d="M9.57001 0.480469H6.39001V2.48047H9.57001V0.480469Z" fill="white"/>
<path d="M12.72 0.480469H9.54004V2.48047H12.72V0.480469Z" fill="white"/>
<path d="M15.8499 0.480469H12.6699V2.48047H15.8499V0.480469Z" fill="#46E8BB"/>
<path d="M18.9901 0.480469H15.8101V2.48047H18.9901V0.480469Z" fill="#040F39"/>
<path d="M22.1299 0.480469H18.95V2.48047H22.1299V0.480469Z" fill="#041042"/>
<path d="M25.2701 0.480469H22.0901V2.48047H25.2701V0.480469Z" fill="#041042"/>
<path d="M28.41 0.480469H25.23V2.48047H28.41V0.480469Z" fill="#041B4C"/>
<path d="M31.55 0.480469H28.37V2.48047H31.55V0.480469Z" fill="#042C52"/>
<path d="M34.69 0.480469H31.51V2.48047H34.69V0.480469Z" fill="#042C52"/>
<path d="M37.83 0.480469H34.65V2.48047H37.83V0.480469Z" fill="#074E54"/>
<path d="M40.97 0.480469H37.79V2.48047H40.97V0.480469Z" fill="#EC289C"/>
<path d="M44.1099 0.480469H40.9299V2.48047H44.1099V0.480469Z" fill="#EC289C"/>
<path d="M47.2501 0.480469H44.0701V2.48047H47.2501V0.480469Z" fill="#EC289C"/>
<path d="M50.39 0.480469H47.21V2.48047H50.39V0.480469Z" fill="#EC289C"/>
<path d="M53.53 0.480469H50.35V2.48047H53.53V0.480469Z" fill="#EC289C"/>
<path d="M119.56 0.480469H116.38V2.48047H119.56V0.480469Z" fill="#1E9CA2"/>
<path d="M122.7 0.480469H119.52V2.48047H122.7V0.480469Z" fill="#179AA2"/>
<path d="M125.84 0.480469H122.66V2.48047H125.84V0.480469Z" fill="#179AA2"/>
<path d="M128.97 0.480469H125.79V2.48047H128.97V0.480469Z" fill="#10949D"/>
<path d="M132.12 0.480469H128.94V2.48047H132.12V0.480469Z" fill="#10949D"/>
<path d="M135.25 0.480469H132.07V2.48047H135.25V0.480469Z" fill="#10949D"/>
<path d="M138.4 0.480469H135.22V2.48047H138.4V0.480469Z" fill="#0A939C"/>
<path d="M141.54 0.480469H138.36V2.48047H141.54V0.480469Z" fill="#0A939C"/>
<path d="M144.67 0.480469H141.49V2.48047H144.67V0.480469Z" fill="#038F9C"/>
<path d="M147.81 0.480469H144.63V2.48047H147.81V0.480469Z" fill="#038F9C"/>
<path d="M150.95 0.480469H147.77V2.48047H150.95V0.480469Z" fill="#038F9C"/>
<path d="M154.09 0.480469H150.91V2.48047H154.09V0.480469Z" fill="#038F9C"/>
<path d="M157.23 0.480469H154.05V2.48047H157.23V0.480469Z" fill="#038F9C"/>
<path d="M160.37 0.480469H157.19V2.48047H160.37V0.480469Z" fill="#038F9C"/>
<path d="M119.56 24.1201H116.38V26.1201H119.56V24.1201Z" fill="#3D1838"/>
<path d="M122.7 24.1201H119.52V26.1201H122.7V24.1201Z" fill="#3D1838"/>
<path d="M125.84 24.1201H122.66V26.1201H125.84V24.1201Z" fill="#3D1838"/>
<path d="M128.97 24.1201H125.79V26.1201H128.97V24.1201Z" fill="#3D1838"/>
<path d="M132.12 24.1201H128.94V26.1201H132.12V24.1201Z" fill="#3D1838"/>
<path d="M141.54 24.1201H138.36V26.1201H141.54V24.1201Z" fill="#3D1838"/>
<path d="M144.67 24.1201H141.49V26.1201H144.67V24.1201Z" fill="#3D1838"/>
<path d="M147.81 24.1201H144.63V26.1201H147.81V24.1201Z" fill="#3D1838"/>
<path d="M157.23 24.1201H154.05V26.1201H157.23V24.1201Z" fill="#3D1838"/>
<path d="M160.37 24.1201H157.19V26.1201H160.37V24.1201Z" fill="#3D1838"/>
<path d="M135.25 22.1504H132.07V24.1504H135.25V22.1504Z" fill="#3D1838"/>
<path d="M138.4 22.1504H135.22V24.1504H138.4V22.1504Z" fill="#3D1838"/>
<path d="M150.95 22.1504H147.77V24.1504H150.95V22.1504Z" fill="#3D1838"/>
<path d="M154.09 22.1504H150.91V24.1504H154.09V22.1504Z" fill="#3D1838"/>
<path d="M199.87 115.341H196.31V117.341H199.87V115.341Z" fill="white"/>
<path d="M203.37 115.341H199.82V117.341H203.37V115.341Z" fill="white"/>
<path d="M210.4 115.341H206.84V117.341H210.4V115.341Z" fill="white"/>
<path d="M217.42 115.341H213.87V117.341H217.42V115.341Z" fill="white"/>
<path d="M220.93 115.341H217.38V117.341H220.93V115.341Z" fill="#46E8BB"/>
<path d="M224.45 115.341H220.89V117.341H224.45V115.341Z" fill="#040F39"/>
<path d="M227.96 115.341H224.4V117.341H227.96V115.341Z" fill="#041042"/>
<path d="M231.47 115.341H227.91V117.341H231.47V115.341Z" fill="#041042"/>
<path d="M234.98 115.341H231.42V117.341H234.98V115.341Z" fill="#041B4C"/>
<path d="M238.49 115.341H234.94V117.341H238.49V115.341Z" fill="#042C52"/>
<path d="M242.01 115.341H238.45V117.341H242.01V115.341Z" fill="#042C52"/>
<path d="M245.52 115.341H241.96V117.341H245.52V115.341Z" fill="#074E54"/>
<path d="M249.02 115.341H245.47V117.341H249.02V115.341Z" fill="#EC289C"/>
<path d="M199.87 113.37H196.31V115.37H199.87V113.37Z" fill="white"/>
<path d="M203.37 113.37H199.82V115.37H203.37V113.37Z" fill="white"/>
<path d="M210.4 113.37H206.84V115.37H210.4V113.37Z" fill="white"/>
<path d="M217.42 113.37H213.87V115.37H217.42V113.37Z" fill="white"/>
<path d="M220.93 113.37H217.38V115.37H220.93V113.37Z" fill="#46E8BB"/>
<path d="M224.45 113.37H220.89V115.37H224.45V113.37Z" fill="#040F39"/>
<path d="M227.96 113.37H224.4V115.37H227.96V113.37Z" fill="#041042"/>
<path d="M231.47 113.37H227.91V115.37H231.47V113.37Z" fill="#041042"/>
<path d="M234.98 113.37H231.42V115.37H234.98V113.37Z" fill="#041B4C"/>
<path d="M238.49 113.37H234.94V115.37H238.49V113.37Z" fill="#042C52"/>
<path d="M242.01 113.37H238.45V115.37H242.01V113.37Z" fill="#042C52"/>
<path d="M245.52 113.37H241.96V115.37H245.52V113.37Z" fill="#074E54"/>
<path d="M249.02 113.37H245.47V115.37H249.02V113.37Z" fill="#EC289C"/>
<path d="M199.87 111.4H196.31V113.4H199.87V111.4Z" fill="white"/>
<path d="M203.37 111.4H199.82V113.4H203.37V111.4Z" fill="white"/>
<path d="M210.4 111.4H206.84V113.4H210.4V111.4Z" fill="white"/>
<path d="M217.42 111.4H213.87V113.4H217.42V111.4Z" fill="white"/>
<path d="M220.93 111.4H217.38V113.4H220.93V111.4Z" fill="#46E8BB"/>
<path d="M224.45 111.4H220.89V113.4H224.45V111.4Z" fill="#040F39"/>
<path d="M227.96 111.4H224.4V113.4H227.96V111.4Z" fill="#041042"/>
<path d="M231.47 111.4H227.91V113.4H231.47V111.4Z" fill="#041042"/>
<path d="M234.98 111.4H231.42V113.4H234.98V111.4Z" fill="#041B4C"/>
<path d="M238.49 111.4H234.94V113.4H238.49V111.4Z" fill="#042C52"/>
<path d="M242.01 111.4H238.45V113.4H242.01V111.4Z" fill="#042C52"/>
<path d="M245.52 111.4H241.96V113.4H245.52V111.4Z" fill="#074E54"/>
<path d="M249.02 111.4H245.47V113.4H249.02V111.4Z" fill="#EC289C"/>
</svg>
