<svg width="1148" height="7" viewBox="0 0 1148 7" fill="none" xmlns="http://www.w3.org/2000/svg">
<g clip-path="url(#clip0_49_37)">
<path d="M135.87 0H0V6.4H135.87V0Z" fill="white"/>
<path d="M222.42 0H149.4V6.4H222.42V0Z" fill="white"/>
<path d="M249.48 0H235.95V6.4H249.48V0Z" fill="white"/>
<path d="M311.5 0H269.91V6.4H311.5V0Z" fill="white"/>
<path d="M337.56 0H319.03V6.4H337.56V0Z" fill="white"/>
<path d="M382.52 0H363.99V6.4H382.52V0Z" fill="white"/>
<path d="M896.23 0H882.7V6.4H896.23V0Z" fill="white"/>
<path d="M1078.74 0H1069.21V6.4H1078.74V0Z" fill="white"/>
<path d="M1059.51 0H1049.98V6.4H1059.51V0Z" fill="white"/>
<path d="M962.35 0H952.82V6.4H962.35V0Z" fill="white"/>
<path d="M431.64 0H418.11V6.4H431.64V0Z" fill="white"/>
<path d="M497.87 0H477.76V6.4H497.87V0Z" fill="white"/>
<path d="M579.35 0H549.85V6.4H579.35V0Z" fill="white"/>
<path d="M631.39 0H608.84V6.4H631.39V0Z" fill="white"/>
<path d="M853.47 0H840.59V6.4H853.47V0Z" fill="white"/>
<path d="M785.08 0H761.19V6.4H785.08V0Z" fill="white"/>
<path d="M1147.32 0H1128.43V6.4H1147.32V0Z" fill="white"/>
</g>
<defs>
<clipPath id="clip0_49_37">
<rect width="1147.32" height="6.4" fill="white"/>
</clipPath>
</defs>
</svg>
