<svg width="139" height="24" viewBox="0 0 139 24" fill="none" xmlns="http://www.w3.org/2000/svg">
<path d="M22.8822 3.96191H17.2687V5.95801H22.8822V3.96191Z" fill="#5E637D"/>
<path d="M17.337 3.96191H11.7235V5.95801H17.337V3.96191Z" fill="#4E536E"/>
<path d="M11.7921 3.96191H6.17859V5.95801H11.7921V3.96191Z" fill="#454961"/>
<path d="M6.24702 3.96191H0.633545V5.95801H6.24702V3.96191Z" fill="#454961"/>
<path d="M101.334 3.96191H98.224V5.95801H101.334V3.96191Z" fill="white"/>
<path d="M98.2729 3.96191H95.163V5.95801H98.2729V3.96191Z" fill="white"/>
<path d="M92.1215 3.96191H89.0116V5.95801H92.1215V3.96191Z" fill="white"/>
<path d="M85.9897 3.96191H82.8798V5.95801H85.9897V3.96191Z" fill="white"/>
<path d="M82.919 3.96191H79.8091V5.95801H82.919V3.96191Z" fill="#46E8BB"/>
<path d="M79.8482 3.96191H76.7383V5.95801H79.8482V3.96191Z" fill="#040F39"/>
<path d="M76.7774 3.96191H73.6675V5.95801H76.7774V3.96191Z" fill="#041042"/>
<path d="M73.7066 3.96191H70.5967V5.95801H73.7066V3.96191Z" fill="#041042"/>
<path d="M70.6358 3.96191H67.5259V5.95801H70.6358V3.96191Z" fill="#041B4C"/>
<path d="M67.565 3.96191H64.4551V5.95801H67.565V3.96191Z" fill="#042C52"/>
<path d="M64.4942 3.96191H61.3843V5.95801H64.4942V3.96191Z" fill="#042C52"/>
<path d="M61.4234 3.96191H58.3135V5.95801H61.4234V3.96191Z" fill="#074E54"/>
<path d="M58.3527 3.96191H55.2428V5.95801H58.3527V3.96191Z" fill="#EC289C"/>
<path d="M52.2111 3.96191H49.1012V5.95801H52.2111V3.96191Z" fill="#EC289C"/>
<path d="M49.1403 3.96191H46.0304V5.95801H49.1403V3.96191Z" fill="#EC289C"/>
<path d="M46.0695 3.96191H42.9596V5.95801H46.0695V3.96191Z" fill="#EC289C"/>
<path d="M22.8822 1.99609H17.2687V3.99219H22.8822V1.99609Z" fill="#5E637D"/>
<path d="M17.337 1.99609H11.7235V3.99219H17.337V1.99609Z" fill="#4E536E"/>
<path d="M11.7921 1.99609H6.17859V3.99219H11.7921V1.99609Z" fill="#454961"/>
<path d="M6.24702 1.99609H0.633545V3.99219H6.24702V1.99609Z" fill="#454961"/>
<path d="M101.334 1.99609H98.224V3.99219H101.334V1.99609Z" fill="white"/>
<path d="M98.2729 1.99609H95.163V3.99219H98.2729V1.99609Z" fill="white"/>
<path d="M92.1215 1.99609H89.0116V3.99219H92.1215V1.99609Z" fill="white"/>
<path d="M85.9897 1.99609H82.8798V3.99219H85.9897V1.99609Z" fill="white"/>
<path d="M82.919 1.99609H79.8091V3.99219H82.919V1.99609Z" fill="#46E8BB"/>
<path d="M79.8482 1.99609H76.7383V3.99219H79.8482V1.99609Z" fill="#040F39"/>
<path d="M76.7774 1.99609H73.6675V3.99219H76.7774V1.99609Z" fill="#041042"/>
<path d="M73.7066 1.99609H70.5967V3.99219H73.7066V1.99609Z" fill="#041042"/>
<path d="M70.6358 1.99609H67.5259V3.99219H70.6358V1.99609Z" fill="#041B4C"/>
<path d="M67.565 1.99609H64.4551V3.99219H67.565V1.99609Z" fill="#042C52"/>
<path d="M64.4942 1.99609H61.3843V3.99219H64.4942V1.99609Z" fill="#042C52"/>
<path d="M61.4234 1.99609H58.3135V3.99219H61.4234V1.99609Z" fill="#074E54"/>
<path d="M58.3527 1.99609H55.2428V3.99219H58.3527V1.99609Z" fill="#EC289C"/>
<path d="M52.2111 1.99609H49.1012V3.99219H52.2111V1.99609Z" fill="#EC289C"/>
<path d="M49.1403 1.99609H46.0304V3.99219H49.1403V1.99609Z" fill="#EC289C"/>
<path d="M46.0695 1.99609H42.9596V3.99219H46.0695V1.99609Z" fill="#EC289C"/>
<path d="M22.8822 0.0400391H17.2687V2.03613H22.8822V0.0400391Z" fill="#5E637D"/>
<path d="M17.337 0.0400391H11.7235V2.03613H17.337V0.0400391Z" fill="#4E536E"/>
<path d="M11.7921 0.0400391H6.17859V2.03613H11.7921V0.0400391Z" fill="#454961"/>
<path d="M6.24702 0.0400391H0.633545V2.03613H6.24702V0.0400391Z" fill="#454961"/>
<path d="M101.334 0.0400391H98.224V2.03613H101.334V0.0400391Z" fill="white"/>
<path d="M98.2729 0.0400391H95.163V2.03613H98.2729V0.0400391Z" fill="white"/>
<path d="M92.1215 0.0400391H89.0116V2.03613H92.1215V0.0400391Z" fill="white"/>
<path d="M85.9897 0.0400391H82.8798V2.03613H85.9897V0.0400391Z" fill="white"/>
<path d="M82.919 0.0400391H79.8091V2.03613H82.919V0.0400391Z" fill="#46E8BB"/>
<path d="M79.8482 0.0400391H76.7383V2.03613H79.8482V0.0400391Z" fill="#040F39"/>
<path d="M76.7774 0.0400391H73.6675V2.03613H76.7774V0.0400391Z" fill="#041042"/>
<path d="M73.7066 0.0400391H70.5967V2.03613H73.7066V0.0400391Z" fill="#041042"/>
<path d="M70.6358 0.0400391H67.5259V2.03613H70.6358V0.0400391Z" fill="#041B4C"/>
<path d="M67.565 0.0400391H64.4551V2.03613H67.565V0.0400391Z" fill="#042C52"/>
<path d="M64.4942 0.0400391H61.3843V2.03613H64.4942V0.0400391Z" fill="#042C52"/>
<path d="M61.4234 0.0400391H58.3135V2.03613H61.4234V0.0400391Z" fill="#074E54"/>
<path d="M58.3527 0.0400391H55.2428V2.03613H58.3527V0.0400391Z" fill="#EC289C"/>
<path d="M52.2111 0.0400391H49.1012V2.03613H52.2111V0.0400391Z" fill="#EC289C"/>
<path d="M49.1403 0.0400391H46.0304V2.03613H49.1403V0.0400391Z" fill="#EC289C"/>
<path d="M46.0695 0.0400391H42.9596V2.03613H46.0695V0.0400391Z" fill="#EC289C"/>
<path d="M122.781 13.7725H119.671V15.7686H122.781V13.7725Z" fill="#5B2550"/>
<path d="M116.639 13.7725H113.529V15.7686H116.639V13.7725Z" fill="#5B2550"/>
<path d="M110.497 13.7725H107.387V15.7686H110.497V13.7725Z" fill="#5B2550"/>
<path d="M104.356 13.7725H101.246V15.7686H104.356V13.7725Z" fill="#5B2550"/>
<path d="M138.134 11.8164H135.025V13.8125H138.134V11.8164Z" fill="#30D93E"/>
<path d="M135.064 11.8164H131.954V13.8125H135.064V11.8164Z" fill="#30D93E"/>
<path d="M131.993 11.8164H128.883V13.8125H131.993V11.8164Z" fill="white"/>
<path d="M128.922 11.8164H125.812V13.8125H128.922V11.8164Z" fill="white"/>
<path d="M138.134 9.85059H135.025V11.8467H138.134V9.85059Z" fill="#30D93E"/>
<path d="M135.064 9.85059H131.954V11.8467H135.064V9.85059Z" fill="#30D93E"/>
<path d="M131.993 9.85059H128.883V11.8467H131.993V9.85059Z" fill="white"/>
<path d="M128.922 9.85059H125.812V11.8467H128.922V9.85059Z" fill="white"/>
<path d="M138.134 7.88477H135.025V9.88086H138.134V7.88477Z" fill="#30D93E"/>
<path d="M135.064 7.88477H131.954V9.88086H135.064V7.88477Z" fill="#30D93E"/>
<path d="M131.993 7.88477H128.883V9.88086H131.993V7.88477Z" fill="white"/>
<path d="M128.922 7.88477H125.812V9.88086H128.922V7.88477Z" fill="white"/>
<path d="M138.134 5.92871H135.025V7.9248H138.134V5.92871Z" fill="#30D93E"/>
<path d="M135.064 5.92871H131.954V7.9248H135.064V5.92871Z" fill="#30D93E"/>
<path d="M131.993 5.92871H128.883V7.9248H131.993V5.92871Z" fill="white"/>
<path d="M128.922 5.92871H125.812V7.9248H128.922V5.92871Z" fill="white"/>
<path d="M138.134 3.96191H135.025V5.95801H138.134V3.96191Z" fill="#4AA272"/>
<path d="M122.781 3.96191H119.671V5.95801H122.781V3.96191Z" fill="#3EA282"/>
<path d="M119.71 3.96191H116.6V5.95801H119.71V3.96191Z" fill="#3EA282"/>
<path d="M116.639 3.96191H113.529V5.95801H116.639V3.96191Z" fill="#3EA282"/>
<path d="M110.497 3.96191H107.387V5.95801H110.497V3.96191Z" fill="#36A28E"/>
<path d="M107.427 3.96191H104.317V5.95801H107.427V3.96191Z" fill="#36A28E"/>
<path d="M104.356 3.96191H101.246V5.95801H104.356V3.96191Z" fill="#30A29E"/>
<path d="M138.134 1.99609H135.025V3.99219H138.134V1.99609Z" fill="#4AA272"/>
<path d="M122.781 1.99609H119.671V3.99219H122.781V1.99609Z" fill="#3EA282"/>
<path d="M119.71 1.99609H116.6V3.99219H119.71V1.99609Z" fill="#3EA282"/>
<path d="M116.639 1.99609H113.529V3.99219H116.639V1.99609Z" fill="#3EA282"/>
<path d="M110.497 1.99609H107.387V3.99219H110.497V1.99609Z" fill="#36A28E"/>
<path d="M107.427 1.99609H104.317V3.99219H107.427V1.99609Z" fill="#36A28E"/>
<path d="M104.356 1.99609H101.246V3.99219H104.356V1.99609Z" fill="#30A29E"/>
<path d="M138.134 0.0400391H135.025V2.03613H138.134V0.0400391Z" fill="#4AA272"/>
<path d="M122.781 0.0400391H119.671V2.03613H122.781V0.0400391Z" fill="#3EA282"/>
<path d="M119.71 0.0400391H116.6V2.03613H119.71V0.0400391Z" fill="#3EA282"/>
<path d="M116.639 0.0400391H113.529V2.03613H116.639V0.0400391Z" fill="#3EA282"/>
<path d="M110.497 0.0400391H107.387V2.03613H110.497V0.0400391Z" fill="#36A28E"/>
<path d="M107.427 0.0400391H104.317V2.03613H107.427V0.0400391Z" fill="#36A28E"/>
<path d="M104.356 0.0400391H101.246V2.03613H104.356V0.0400391Z" fill="#30A29E"/>
<path d="M138.134 21.6582H135.025V23.6543H138.134V21.6582Z" fill="#240C20"/>
<path d="M135.064 21.6582H131.954V23.6543H135.064V21.6582Z" fill="#240C20"/>
<path d="M131.993 21.6582H128.883V23.6543H131.993V21.6582Z" fill="#240C20"/>
<path d="M128.922 21.6582H125.812V23.6543H128.922V21.6582Z" fill="#240C20"/>
</svg>
