<svg width="119" height="40" viewBox="0 0 119 40" fill="none" xmlns="http://www.w3.org/2000/svg">
<path d="M22.6223 4.80762H17.0088V6.80371H22.6223V4.80762Z" fill="#5E637D"/>
<path d="M17.0771 4.80762H11.4636V6.80371H17.0771V4.80762Z" fill="#4E536E"/>
<path d="M11.5322 4.80762H5.9187V6.80371H11.5322V4.80762Z" fill="#454961"/>
<path d="M5.98716 4.80762H0.373657V6.80371H5.98716V4.80762Z" fill="#454961"/>
<path d="M82.2093 19.7881H79.0994V21.7842H82.2093V19.7881Z" fill="white"/>
<path d="M79.1385 19.7881H76.0286V21.7842H79.1385V19.7881Z" fill="white"/>
<path d="M91.8616 4.80762H88.7517V6.80371H91.8616V4.80762Z" fill="white"/>
<path d="M85.7299 4.80762H82.62V6.80371H85.7299V4.80762Z" fill="white"/>
<path d="M82.6589 4.80762H79.5491V6.80371H82.6589V4.80762Z" fill="#46E8BB"/>
<path d="M79.5786 4.80762H76.4686V6.80371H79.5786V4.80762Z" fill="#040F39"/>
<path d="M76.5175 4.80762H73.4076V6.80371H76.5175V4.80762Z" fill="#041042"/>
<path d="M73.4467 4.80762H70.3368V6.80371H73.4467V4.80762Z" fill="#041042"/>
<path d="M70.3759 4.80762H67.266V6.80371H70.3759V4.80762Z" fill="#041B4C"/>
<path d="M67.3051 4.80762H64.1952V6.80371H67.3051V4.80762Z" fill="#042C52"/>
<path d="M64.2343 4.80762H61.1244V6.80371H64.2343V4.80762Z" fill="#042C52"/>
<path d="M61.1635 4.80762H58.0536V6.80371H61.1635V4.80762Z" fill="#074E54"/>
<path d="M58.0927 4.80762H54.9828V6.80371H58.0927V4.80762Z" fill="#EC289C"/>
<path d="M51.9512 4.80762H48.8413V6.80371H51.9512V4.80762Z" fill="#EC289C"/>
<path d="M48.8804 4.80762H45.7705V6.80371H48.8804V4.80762Z" fill="#EC289C"/>
<path d="M45.8096 4.80762H42.6997V6.80371H45.8096V4.80762Z" fill="#EC289C"/>
<path d="M22.6223 2.84082H17.0088V4.83691H22.6223V2.84082Z" fill="#5E637D"/>
<path d="M17.0771 2.84082H11.4636V4.83691H17.0771V2.84082Z" fill="#4E536E"/>
<path d="M11.5322 2.84082H5.9187V4.83691H11.5322V2.84082Z" fill="#454961"/>
<path d="M5.98716 2.84082H0.373657V4.83691H5.98716V2.84082Z" fill="#454961"/>
<path d="M82.2093 17.832H79.0994V19.8281H82.2093V17.832Z" fill="white"/>
<path d="M79.1385 17.832H76.0286V19.8281H79.1385V17.832Z" fill="white"/>
<path d="M91.8616 2.84082H88.7517V4.83691H91.8616V2.84082Z" fill="white"/>
<path d="M85.7299 2.84082H82.62V4.83691H85.7299V2.84082Z" fill="white"/>
<path d="M82.6589 2.84082H79.5491V4.83691H82.6589V2.84082Z" fill="#46E8BB"/>
<path d="M79.5786 2.84082H76.4686V4.83691H79.5786V2.84082Z" fill="#040F39"/>
<path d="M76.5175 2.84082H73.4076V4.83691H76.5175V2.84082Z" fill="#041042"/>
<path d="M73.4467 2.84082H70.3368V4.83691H73.4467V2.84082Z" fill="#041042"/>
<path d="M70.3759 2.84082H67.266V4.83691H70.3759V2.84082Z" fill="#041B4C"/>
<path d="M67.3051 2.84082H64.1952V4.83691H67.3051V2.84082Z" fill="#042C52"/>
<path d="M64.2343 2.84082H61.1244V4.83691H64.2343V2.84082Z" fill="#042C52"/>
<path d="M61.1635 2.84082H58.0536V4.83691H61.1635V2.84082Z" fill="#074E54"/>
<path d="M58.0927 2.84082H54.9828V4.83691H58.0927V2.84082Z" fill="#EC289C"/>
<path d="M51.9512 2.84082H48.8413V4.83691H51.9512V2.84082Z" fill="#EC289C"/>
<path d="M48.8804 2.84082H45.7705V4.83691H48.8804V2.84082Z" fill="#EC289C"/>
<path d="M45.8096 2.84082H42.6997V4.83691H45.8096V2.84082Z" fill="#EC289C"/>
<path d="M22.6223 0.875H17.0088V2.87109H22.6223V0.875Z" fill="#5E637D"/>
<path d="M17.0771 0.875H11.4636V2.87109H17.0771V0.875Z" fill="#4E536E"/>
<path d="M11.5322 0.875H5.9187V2.87109H11.5322V0.875Z" fill="#454961"/>
<path d="M5.98716 0.875H0.373657V2.87109H5.98716V0.875Z" fill="#454961"/>
<path d="M82.2093 15.8652H79.0994V17.8613H82.2093V15.8652Z" fill="white"/>
<path d="M79.1385 15.8652H76.0286V17.8613H79.1385V15.8652Z" fill="white"/>
<path d="M91.8616 0.875H88.7517V2.87109H91.8616V0.875Z" fill="white"/>
<path d="M85.7299 0.875H82.62V2.87109H85.7299V0.875Z" fill="white"/>
<path d="M82.6589 0.875H79.5491V2.87109H82.6589V0.875Z" fill="#46E8BB"/>
<path d="M79.5786 0.875H76.4686V2.87109H79.5786V0.875Z" fill="#040F39"/>
<path d="M76.5175 0.875H73.4076V2.87109H76.5175V0.875Z" fill="#041042"/>
<path d="M73.4467 0.875H70.3368V2.87109H73.4467V0.875Z" fill="#041042"/>
<path d="M70.3759 0.875H67.266V2.87109H70.3759V0.875Z" fill="#041B4C"/>
<path d="M67.3051 0.875H64.1952V2.87109H67.3051V0.875Z" fill="#042C52"/>
<path d="M64.2343 0.875H61.1244V2.87109H64.2343V0.875Z" fill="#042C52"/>
<path d="M61.1635 0.875H58.0536V2.87109H61.1635V0.875Z" fill="#074E54"/>
<path d="M58.0927 0.875H54.9828V2.87109H58.0927V0.875Z" fill="#EC289C"/>
<path d="M51.9512 0.875H48.8413V2.87109H51.9512V0.875Z" fill="#EC289C"/>
<path d="M48.8804 0.875H45.7705V2.87109H48.8804V0.875Z" fill="#EC289C"/>
<path d="M45.8096 0.875H42.6997V2.87109H45.8096V0.875Z" fill="#EC289C"/>
<path d="M103.646 29.6084H100.536V31.6045H103.646V29.6084Z" fill="#5B2550"/>
<path d="M97.5045 29.6084H94.3945V31.6045H97.5045V29.6084Z" fill="#5B2550"/>
<path d="M91.3628 29.6084H88.2529V31.6045H91.3628V29.6084Z" fill="#5B2550"/>
<path d="M85.2311 29.6084H82.1212V31.6045H85.2311V29.6084Z" fill="#5B2550"/>
<path d="M119 27.6426H115.89V29.6387H119V27.6426Z" fill="#30D93E"/>
<path d="M115.929 27.6426H112.819V29.6387H115.929V27.6426Z" fill="#30D93E"/>
<path d="M112.858 27.6426H109.749V29.6387H112.858V27.6426Z" fill="white"/>
<path d="M109.788 27.6426H106.678V29.6387H109.788V27.6426Z" fill="white"/>
<path d="M119 25.6758H115.89V27.6719H119V25.6758Z" fill="#30D93E"/>
<path d="M115.929 25.6758H112.819V27.6719H115.929V25.6758Z" fill="#30D93E"/>
<path d="M112.858 25.6758H109.749V27.6719H112.858V25.6758Z" fill="white"/>
<path d="M109.788 25.6758H106.678V27.6719H109.788V25.6758Z" fill="white"/>
<path d="M119 23.7197H115.89V25.7158H119V23.7197Z" fill="#30D93E"/>
<path d="M115.929 23.7197H112.819V25.7158H115.929V23.7197Z" fill="#30D93E"/>
<path d="M112.858 23.7197H109.749V25.7158H112.858V23.7197Z" fill="white"/>
<path d="M109.788 23.7197H106.678V25.7158H109.788V23.7197Z" fill="white"/>
<path d="M119 21.7539H115.89V23.75H119V21.7539Z" fill="#30D93E"/>
<path d="M115.929 21.7539H112.819V23.75H115.929V21.7539Z" fill="#30D93E"/>
<path d="M112.858 21.7539H109.749V23.75H112.858V21.7539Z" fill="white"/>
<path d="M109.788 21.7539H106.678V23.75H109.788V21.7539Z" fill="white"/>
<path d="M119 19.7881H115.89V21.7842H119V19.7881Z" fill="#4AA272"/>
<path d="M103.646 19.7881H100.536V21.7842H103.646V19.7881Z" fill="#3EA282"/>
<path d="M100.575 19.7881H97.4653V21.7842H100.575V19.7881Z" fill="#3EA282"/>
<path d="M97.5045 19.7881H94.3945V21.7842H97.5045V19.7881Z" fill="#3EA282"/>
<path d="M91.3628 19.7881H88.2529V21.7842H91.3628V19.7881Z" fill="#36A28E"/>
<path d="M88.292 19.7881H85.1821V21.7842H88.292V19.7881Z" fill="#36A28E"/>
<path d="M85.2311 19.7881H82.1212V21.7842H85.2311V19.7881Z" fill="#30A29E"/>
<path d="M119 17.832H115.89V19.8281H119V17.832Z" fill="#4AA272"/>
<path d="M103.646 17.832H100.536V19.8281H103.646V17.832Z" fill="#3EA282"/>
<path d="M100.575 17.832H97.4653V19.8281H100.575V17.832Z" fill="#3EA282"/>
<path d="M97.5045 17.832H94.3945V19.8281H97.5045V17.832Z" fill="#3EA282"/>
<path d="M91.3628 17.832H88.2529V19.8281H91.3628V17.832Z" fill="#36A28E"/>
<path d="M88.292 17.832H85.1821V19.8281H88.292V17.832Z" fill="#36A28E"/>
<path d="M85.2311 17.832H82.1212V19.8281H85.2311V17.832Z" fill="#30A29E"/>
<path d="M119 15.8652H115.89V17.8613H119V15.8652Z" fill="#4AA272"/>
<path d="M103.646 15.8652H100.536V17.8613H103.646V15.8652Z" fill="#3EA282"/>
<path d="M100.575 15.8652H97.4653V17.8613H100.575V15.8652Z" fill="#3EA282"/>
<path d="M97.5045 15.8652H94.3945V17.8613H97.5045V15.8652Z" fill="#3EA282"/>
<path d="M91.3628 15.8652H88.2529V17.8613H91.3628V15.8652Z" fill="#36A28E"/>
<path d="M88.292 15.8652H85.1821V17.8613H88.292V15.8652Z" fill="#36A28E"/>
<path d="M85.2311 15.8652H82.1212V17.8613H85.2311V15.8652Z" fill="#30A29E"/>
<path d="M119 37.4941H115.89V39.4902H119V37.4941Z" fill="#240C20"/>
<path d="M115.929 37.4941H112.819V39.4902H115.929V37.4941Z" fill="#240C20"/>
<path d="M112.858 37.4941H109.749V39.4902H112.858V37.4941Z" fill="#240C20"/>
<path d="M109.788 37.4941H106.678V39.4902H109.788V37.4941Z" fill="#240C20"/>
</svg>
