<svg width="43" height="30" viewBox="0 0 43 30" fill="none" xmlns="http://www.w3.org/2000/svg">
<path d="M42.2036 13.8066H38.4164V16.146H42.2036V13.8066Z" fill="white"/>
<path d="M30.9729 13.8066H27.1857V16.146H30.9729V13.8066Z" fill="#30D93E"/>
<path d="M27.2324 13.8066H23.4453V16.146H27.2324V13.8066Z" fill="#30D93E"/>
<path d="M23.492 13.8066H19.7048V16.146H23.492V13.8066Z" fill="white"/>
<path d="M19.7422 13.8066H15.955V16.146H19.7422V13.8066Z" fill="white"/>
<path d="M42.2036 11.5049H38.4164V13.8442H42.2036V11.5049Z" fill="white"/>
<path d="M30.9729 11.5049H27.1857V13.8442H30.9729V11.5049Z" fill="#30D93E"/>
<path d="M27.2324 11.5049H23.4453V13.8442H27.2324V11.5049Z" fill="#30D93E"/>
<path d="M23.492 11.5049H19.7048V13.8442H23.492V11.5049Z" fill="white"/>
<path d="M19.7422 11.5049H15.955V13.8442H19.7422V11.5049Z" fill="white"/>
<path d="M42.2036 9.21191H38.4164V11.5513H42.2036V9.21191Z" fill="white"/>
<path d="M30.9729 9.21191H27.1857V11.5513H30.9729V9.21191Z" fill="#30D93E"/>
<path d="M27.2324 9.21191H23.4453V11.5513H27.2324V9.21191Z" fill="#30D93E"/>
<path d="M23.492 9.21191H19.7048V11.5513H23.492V9.21191Z" fill="white"/>
<path d="M19.7422 9.21191H15.955V11.5513H19.7422V9.21191Z" fill="white"/>
<path d="M42.2036 6.9082H38.4164V9.24753H42.2036V6.9082Z" fill="white"/>
<path d="M30.9729 6.9082H27.1857V9.24753H30.9729V6.9082Z" fill="#30D93E"/>
<path d="M27.2324 6.9082H23.4453V9.24753H27.2324V6.9082Z" fill="#30D93E"/>
<path d="M23.492 6.9082H19.7048V9.24753H23.492V6.9082Z" fill="white"/>
<path d="M19.7422 6.9082H15.955V9.24753H19.7422V6.9082Z" fill="white"/>
<path d="M42.2036 4.60449H38.4164V6.94384H42.2036V4.60449Z" fill="#F573AF"/>
<path d="M38.4631 4.60449H34.6759V6.94384H38.4631V4.60449Z" fill="#F573AF"/>
<path d="M34.7133 4.60449H30.9261V6.94384H34.7133V4.60449Z" fill="#D24FEF"/>
<path d="M30.9729 4.60449H27.1857V6.94384H30.9729V4.60449Z" fill="#D24FEF"/>
<path d="M27.2324 4.60449H23.4453V6.94384H27.2324V4.60449Z" fill="#EF47EE"/>
<path d="M23.492 4.60449H19.7048V6.94384H23.492V4.60449Z" fill="#EF47EE"/>
<path d="M19.7422 4.60449H15.955V6.94384H19.7422V4.60449Z" fill="#EB39D1"/>
<path d="M16.0017 4.60449H12.2145V6.94384H16.0017V4.60449Z" fill="#EB35C1"/>
<path d="M12.2613 4.60449H8.47412V6.94384H12.2613V4.60449Z" fill="#4AA272"/>
<path d="M8.52089 4.60449H4.7337V6.94384H8.52089V4.60449Z" fill="#4AA272"/>
<path d="M4.77113 4.60449H0.983887V6.94384H4.77113V4.60449Z" fill="#4AA272"/>
<path d="M42.2036 2.30371H38.4164V4.64306H42.2036V2.30371Z" fill="#F573AF"/>
<path d="M38.4631 2.30371H34.6759V4.64306H38.4631V2.30371Z" fill="#F573AF"/>
<path d="M34.7133 2.30371H30.9261V4.64306H34.7133V2.30371Z" fill="#D24FEF"/>
<path d="M30.9729 2.30371H27.1857V4.64306H30.9729V2.30371Z" fill="#D24FEF"/>
<path d="M27.2324 2.30371H23.4453V4.64306H27.2324V2.30371Z" fill="#EF47EE"/>
<path d="M23.492 2.30371H19.7048V4.64306H23.492V2.30371Z" fill="#EF47EE"/>
<path d="M19.7422 2.30371H15.955V4.64306H19.7422V2.30371Z" fill="#EB39D1"/>
<path d="M16.0017 2.30371H12.2145V4.64306H16.0017V2.30371Z" fill="#EB35C1"/>
<path d="M12.2613 2.30371H8.47412V4.64306H12.2613V2.30371Z" fill="#4AA272"/>
<path d="M8.52089 2.30371H4.7337V4.64306H8.52089V2.30371Z" fill="#4AA272"/>
<path d="M4.77113 2.30371H0.983887V4.64306H4.77113V2.30371Z" fill="#4AA272"/>
<path d="M42.2036 0.00976562H38.4164V2.34911H42.2036V0.00976562Z" fill="#F573AF"/>
<path d="M38.4631 0.00976562H34.6759V2.34911H38.4631V0.00976562Z" fill="#F573AF"/>
<path d="M34.7133 0.00976562H30.9261V2.34911H34.7133V0.00976562Z" fill="#D24FEF"/>
<path d="M30.9729 0.00976562H27.1857V2.34911H30.9729V0.00976562Z" fill="#D24FEF"/>
<path d="M27.2324 0.00976562H23.4453V2.34911H27.2324V0.00976562Z" fill="#EF47EE"/>
<path d="M23.492 0.00976562H19.7048V2.34911H23.492V0.00976562Z" fill="#EF47EE"/>
<path d="M19.7422 0.00976562H15.955V2.34911H19.7422V0.00976562Z" fill="#EB39D1"/>
<path d="M16.0017 0.00976562H12.2145V2.34911H16.0017V0.00976562Z" fill="#EB35C1"/>
<path d="M12.2613 0.00976562H8.47412V2.34911H12.2613V0.00976562Z" fill="#4AA272"/>
<path d="M8.52089 0.00976562H4.7337V2.34911H8.52089V0.00976562Z" fill="#4AA272"/>
<path d="M4.77119 0.00976562H0.983948V2.34911H4.77119V0.00976562Z" fill="#4AA272"/>
<path d="M23.492 27.6504H19.7048V29.9897H23.492V27.6504Z" fill="#240C20"/>
<path d="M19.7422 27.6504H15.955V29.9897H19.7422V27.6504Z" fill="#240C20"/>
<path d="M16.0017 27.6504H12.2145V29.9897H16.0017V27.6504Z" fill="#240C20"/>
<path d="M12.2613 27.6504H8.47412V29.9897H12.2613V27.6504Z" fill="#240C20"/>
<path d="M8.52089 27.6504H4.7337V29.9897H8.52089V27.6504Z" fill="#240C20"/>
<path d="M4.77113 27.6504H0.983887V29.9897H4.77113V27.6504Z" fill="#240C20"/>
</svg>
