<svg width="133" height="22" viewBox="0 0 133 22" fill="none" xmlns="http://www.w3.org/2000/svg">
<path d="M116.419 3.89062H111.052V5.7254H116.419V3.89062Z" fill="#5E637D"/>
<path d="M121.712 3.89062H116.345V5.7254H121.712V3.89062Z" fill="#4E536E"/>
<path d="M127.014 3.89062H121.647V5.7254H127.014V3.89062Z" fill="#454961"/>
<path d="M132.316 3.89062H126.949V5.7254H132.316V3.89062Z" fill="#454961"/>
<path d="M39.0017 3.89062H36.028V5.7254H39.0017V3.89062Z" fill="white"/>
<path d="M41.9379 3.89062H38.9642V5.7254H41.9379V3.89062Z" fill="white"/>
<path d="M47.8104 3.89062H44.8367V5.7254H47.8104V3.89062Z" fill="white"/>
<path d="M53.6829 3.89062H50.7092V5.7254H53.6829V3.89062Z" fill="white"/>
<path d="M56.6192 3.89062H53.6455V5.7254H56.6192V3.89062Z" fill="#46E8BB"/>
<path d="M59.5554 3.89062H56.5817V5.7254H59.5554V3.89062Z" fill="#040F39"/>
<path d="M62.4917 3.89062H59.518V5.7254H62.4917V3.89062Z" fill="#041042"/>
<path d="M65.4186 3.89062H62.4449V5.7254H65.4186V3.89062Z" fill="#041042"/>
<path d="M68.3547 3.89062H65.3811V5.7254H68.3547V3.89062Z" fill="#041B4C"/>
<path d="M71.3004 3.89062H68.3267V5.7254H71.3004V3.89062Z" fill="#042C52"/>
<path d="M74.2273 3.89062H71.2537V5.7254H74.2273V3.89062Z" fill="#042C52"/>
<path d="M77.1635 3.89062H74.1899V5.7254H77.1635V3.89062Z" fill="#074E54"/>
<path d="M80.0998 3.89062H77.1261V5.7254H80.0998V3.89062Z" fill="#EC289C"/>
<path d="M85.9722 3.89062H82.9986V5.7254H85.9722V3.89062Z" fill="#EC289C"/>
<path d="M88.9085 3.89062H85.9349V5.7254H88.9085V3.89062Z" fill="#EC289C"/>
<path d="M91.8448 3.89062H88.8711V5.7254H91.8448V3.89062Z" fill="#EC289C"/>
<path d="M116.419 2.08398H111.052V3.91876H116.419V2.08398Z" fill="#5E637D"/>
<path d="M121.712 2.08398H116.345V3.91876H121.712V2.08398Z" fill="#4E536E"/>
<path d="M127.014 2.08398H121.647V3.91876H127.014V2.08398Z" fill="#454961"/>
<path d="M132.316 2.08398H126.949V3.91876H132.316V2.08398Z" fill="#454961"/>
<path d="M39.0017 2.08398H36.028V3.91876H39.0017V2.08398Z" fill="white"/>
<path d="M41.9379 2.08398H38.9642V3.91876H41.9379V2.08398Z" fill="white"/>
<path d="M47.8104 2.08398H44.8367V3.91876H47.8104V2.08398Z" fill="white"/>
<path d="M53.6829 2.08398H50.7092V3.91876H53.6829V2.08398Z" fill="white"/>
<path d="M56.6192 2.08398H53.6455V3.91876H56.6192V2.08398Z" fill="#46E8BB"/>
<path d="M59.5554 2.08398H56.5817V3.91876H59.5554V2.08398Z" fill="#040F39"/>
<path d="M62.4917 2.08398H59.518V3.91876H62.4917V2.08398Z" fill="#041042"/>
<path d="M65.4186 2.08398H62.4449V3.91876H65.4186V2.08398Z" fill="#041042"/>
<path d="M68.3547 2.08398H65.3811V3.91876H68.3547V2.08398Z" fill="#041B4C"/>
<path d="M71.3004 2.08398H68.3267V3.91876H71.3004V2.08398Z" fill="#042C52"/>
<path d="M74.2273 2.08398H71.2537V3.91876H74.2273V2.08398Z" fill="#042C52"/>
<path d="M77.1635 2.08398H74.1899V3.91876H77.1635V2.08398Z" fill="#074E54"/>
<path d="M80.0998 2.08398H77.1261V3.91876H80.0998V2.08398Z" fill="#EC289C"/>
<path d="M85.9722 2.08398H82.9986V3.91876H85.9722V2.08398Z" fill="#EC289C"/>
<path d="M88.9085 2.08398H85.9349V3.91876H88.9085V2.08398Z" fill="#EC289C"/>
<path d="M91.8448 2.08398H88.8711V3.91876H91.8448V2.08398Z" fill="#EC289C"/>
<path d="M116.419 0.285156H111.052V2.11993H116.419V0.285156Z" fill="#5E637D"/>
<path d="M121.712 0.285156H116.345V2.11993H121.712V0.285156Z" fill="#4E536E"/>
<path d="M127.014 0.285156H121.647V2.11993H127.014V0.285156Z" fill="#454961"/>
<path d="M132.316 0.285156H126.949V2.11993H132.316V0.285156Z" fill="#454961"/>
<path d="M39.0017 0.285156H36.028V2.11993H39.0017V0.285156Z" fill="white"/>
<path d="M41.9379 0.285156H38.9642V2.11993H41.9379V0.285156Z" fill="white"/>
<path d="M47.8104 0.285156H44.8367V2.11993H47.8104V0.285156Z" fill="white"/>
<path d="M53.6829 0.285156H50.7092V2.11993H53.6829V0.285156Z" fill="white"/>
<path d="M56.6192 0.285156H53.6455V2.11993H56.6192V0.285156Z" fill="#46E8BB"/>
<path d="M59.5554 0.285156H56.5817V2.11993H59.5554V0.285156Z" fill="#040F39"/>
<path d="M62.4917 0.285156H59.518V2.11993H62.4917V0.285156Z" fill="#041042"/>
<path d="M65.4186 0.285156H62.4449V2.11993H65.4186V0.285156Z" fill="#041042"/>
<path d="M68.3547 0.285156H65.3811V2.11993H68.3547V0.285156Z" fill="#041B4C"/>
<path d="M71.3004 0.285156H68.3267V2.11993H71.3004V0.285156Z" fill="#042C52"/>
<path d="M74.2273 0.285156H71.2537V2.11993H74.2273V0.285156Z" fill="#042C52"/>
<path d="M77.1635 0.285156H74.1899V2.11993H77.1635V0.285156Z" fill="#074E54"/>
<path d="M80.0998 0.285156H77.1261V2.11993H80.0998V0.285156Z" fill="#EC289C"/>
<path d="M85.9722 0.285156H82.9986V2.11993H85.9722V0.285156Z" fill="#EC289C"/>
<path d="M88.9085 0.285156H85.9349V2.11993H88.9085V0.285156Z" fill="#EC289C"/>
<path d="M91.8448 0.285156H88.8711V2.11993H91.8448V0.285156Z" fill="#EC289C"/>
<path d="M18.4947 12.9092H15.521V14.744H18.4947V12.9092Z" fill="#5B2550"/>
<path d="M24.3765 12.9092H21.4028V14.744H24.3765V12.9092Z" fill="#5B2550"/>
<path d="M30.2397 12.9092H27.2661V14.744H30.2397V12.9092Z" fill="#5B2550"/>
<path d="M36.1121 12.9092H33.1385V14.744H36.1121V12.9092Z" fill="#5B2550"/>
<path d="M3.82277 11.1094H0.849121V12.9442H3.82277V11.1094Z" fill="#30D93E"/>
<path d="M6.7497 11.1094H3.776V12.9442H6.7497V11.1094Z" fill="#30D93E"/>
<path d="M9.69533 11.1094H6.72168V12.9442H9.69533V11.1094Z" fill="white"/>
<path d="M12.6222 11.1094H9.64856V12.9442H12.6222V11.1094Z" fill="white"/>
<path d="M3.82277 9.30371H0.849121V11.1385H3.82277V9.30371Z" fill="#30D93E"/>
<path d="M6.7497 9.30371H3.776V11.1385H6.7497V9.30371Z" fill="#30D93E"/>
<path d="M9.69533 9.30371H6.72168V11.1385H9.69533V9.30371Z" fill="white"/>
<path d="M12.6222 9.30371H9.64856V11.1385H12.6222V9.30371Z" fill="white"/>
<path d="M3.82277 7.49512H0.849121V9.32989H3.82277V7.49512Z" fill="#30D93E"/>
<path d="M6.7497 7.49512H3.776V9.32989H6.7497V7.49512Z" fill="#30D93E"/>
<path d="M9.69533 7.49512H6.72168V9.32989H9.69533V7.49512Z" fill="white"/>
<path d="M12.6222 7.49512H9.64856V9.32989H12.6222V7.49512Z" fill="white"/>
<path d="M3.82277 5.69824H0.849121V7.53302H3.82277V5.69824Z" fill="#30D93E"/>
<path d="M6.7497 5.69824H3.776V7.53302H6.7497V5.69824Z" fill="#30D93E"/>
<path d="M9.69533 5.69824H6.72168V7.53302H9.69533V5.69824Z" fill="white"/>
<path d="M12.6222 5.69824H9.64856V7.53302H12.6222V5.69824Z" fill="white"/>
<path d="M3.82277 3.89062H0.849121V5.7254H3.82277V3.89062Z" fill="#4AA272"/>
<path d="M18.4947 3.89062H15.521V5.7254H18.4947V3.89062Z" fill="#3EA282"/>
<path d="M21.4309 3.89062H18.4573V5.7254H21.4309V3.89062Z" fill="#3EA282"/>
<path d="M24.3765 3.89062H21.4028V5.7254H24.3765V3.89062Z" fill="#3EA282"/>
<path d="M30.2397 3.89062H27.2661V5.7254H30.2397V3.89062Z" fill="#36A28E"/>
<path d="M33.1759 3.89062H30.2023V5.7254H33.1759V3.89062Z" fill="#36A28E"/>
<path d="M36.1121 3.89062H33.1385V5.7254H36.1121V3.89062Z" fill="#30A29E"/>
<path d="M3.82277 2.08398H0.849121V3.91876H3.82277V2.08398Z" fill="#4AA272"/>
<path d="M18.4947 2.08398H15.521V3.91876H18.4947V2.08398Z" fill="#3EA282"/>
<path d="M21.4309 2.08398H18.4573V3.91876H21.4309V2.08398Z" fill="#3EA282"/>
<path d="M24.3765 2.08398H21.4028V3.91876H24.3765V2.08398Z" fill="#3EA282"/>
<path d="M30.2397 2.08398H27.2661V3.91876H30.2397V2.08398Z" fill="#36A28E"/>
<path d="M33.1759 2.08398H30.2023V3.91876H33.1759V2.08398Z" fill="#36A28E"/>
<path d="M36.1121 2.08398H33.1385V3.91876H36.1121V2.08398Z" fill="#30A29E"/>
<path d="M3.82277 0.285156H0.849121V2.11993H3.82277V0.285156Z" fill="#4AA272"/>
<path d="M18.4947 0.285156H15.521V2.11993H18.4947V0.285156Z" fill="#3EA282"/>
<path d="M21.4309 0.285156H18.4573V2.11993H21.4309V0.285156Z" fill="#3EA282"/>
<path d="M24.3765 0.285156H21.4028V2.11993H24.3765V0.285156Z" fill="#3EA282"/>
<path d="M30.2397 0.285156H27.2661V2.11993H30.2397V0.285156Z" fill="#36A28E"/>
<path d="M33.1759 0.285156H30.2023V2.11993H33.1759V0.285156Z" fill="#36A28E"/>
<path d="M36.1121 0.285156H33.1385V2.11993H36.1121V0.285156Z" fill="#30A29E"/>
<path d="M3.82277 20.165H0.849121V21.9998H3.82277V20.165Z" fill="#240C20"/>
<path d="M6.7497 20.165H3.776V21.9998H6.7497V20.165Z" fill="#240C20"/>
<path d="M9.69533 20.165H6.72168V21.9998H9.69533V20.165Z" fill="#240C20"/>
<path d="M12.6222 20.165H9.64856V21.9998H12.6222V20.165Z" fill="#240C20"/>
</svg>
