<svg width="640" height="626" viewBox="0 0 640 626" fill="none" xmlns="http://www.w3.org/2000/svg">
<g clip-path="url(#clip0_120_9793)">
<path d="M314.23 623.99C485.03 623.99 623.49 485.53 623.49 314.73C623.49 143.93 485.03 5.46997 314.23 5.46997C143.431 5.46997 4.97021 143.93 4.97021 314.73C4.97021 485.53 143.431 623.99 314.23 623.99Z" fill="#080103"/>
<path d="M234.27 399.96C239.19 406.41 244.61 413.51 253.23 421.13C260.1 427.21 265.9 430.8 273.41 435.46C280.38 439.79 287.64 443.75 295.41 447.37C310.17 454.25 317.72 457.67 325.69 456.67C328.87 456.27 337.36 455.2 343.12 448.87C347.47 444.09 347.85 439.01 355.38 431.08C356.55 429.85 357.7 428.51 359.63 427.09C371.38 418.42 381.68 419.98 381.68 419.98L381.61 419.96C381.47 419.93 373.04 407.32 373.04 407.32C391.86 369.68 396.2 345.39 405.95 344.77C410.19 344.5 410.98 349.26 415.58 348.9C424.8 348.18 430.12 328.43 433.01 317.72C437.03 302.8 442.81 281.37 432.14 266.89C428.09 261.4 424.13 260.23 422.92 259.94C412.84 257.46 403.48 268.24 402.74 269.11C385.13 251.31 367.36 242.79 356.42 238.61C345.62 234.49 300.71 219.08 262.41 241.59C252.98 247.13 236.89 256.58 233.98 274.61C230.83 294.07 245.3 309.66 247.74 312.22C245.7 311.76 230.67 308.66 218.39 318.64C209.34 326 206.05 336.98 206.19 345.24C206.36 355.67 212.01 365.2 222.06 381.93C223.4 384.17 227.69 391.32 234.29 399.97L234.27 399.96Z" fill="white"/>
<path d="M395.62 277.36C399.29 278.05 402.96 278.74 406.63 279.42C405.36 286.5 403.94 296.96 403.95 309.76C403.95 318.73 404 323.3 405.78 327.49C411.96 342.02 430.24 346.57 438.88 348.73C447.72 350.94 456.95 353.24 466.76 349C474.82 345.53 478.88 339.55 484.92 330.66C492.93 318.87 495.19 308.86 497.21 298.52C497.84 295.27 498.42 291.28 497.3 286.78C497.3 286.78 496.26 282.77 493.59 279.04C487.21 270.13 467.83 261.43 447.07 259.62C443.13 259.28 428.27 257.98 419.39 260.92C418.64 261.17 416.52 261.91 413.58 262.09C408.75 262.38 404.69 260.97 401.95 259.68C399.84 265.57 397.73 271.46 395.63 277.35L395.62 277.36Z" fill="#20FF20" stroke="#20FF20" stroke-width="6.83" stroke-miterlimit="10"/>
<path d="M427.29 378.48C441.18 380.61 448.13 381.65 453.99 383.44C471 388.64 476.79 395.34 479.57 392.93C483.03 389.93 478.34 374.75 467.88 364.04C453.77 349.6 443.93 358.38 421.31 343.4C410.51 336.25 399.94 325.77 386.92 322.99C384.73 322.52 379.88 321.49 373.85 322.53C369.25 323.32 367 324.8 361.24 327.12C358.91 328.06 351.86 330.9 345.42 332.16C331.13 334.97 319.05 330.21 316.36 329.08C313.76 327.99 307.92 325.51 302.19 320.16C296.22 314.59 296.57 311.7 289.88 306.39C288.25 305.1 284.48 303.35 277.44 299.01C272.34 295.87 270.05 294.34 267.72 295.25C263.51 296.89 263.02 305.49 262.9 307.63C262.33 318.56 266.61 328.26 274.82 341.11C288.89 363.11 306 381 306 381.01C306 381.01 322.83 398.2 345.76 409.39C354.58 413.69 361.6 415.79 363.8 416.42C378.08 420.53 389.44 420.53 400.01 420.45C401.48 420.44 428.56 420.16 428.9 416.32C429.02 414.96 425.66 414.32 417.44 409.9C409.51 405.64 404.36 402.79 401.39 398.44C400.14 396.61 395.75 389.32 400.88 374.63C396.11 373.66 391.34 372.69 386.57 371.72C385.98 379.86 387.65 385.79 389 389.28C390.98 394.41 393.88 398.41 398.17 404.41C400.38 407.5 402.37 409.99 403.81 411.72C400.33 411.28 395.73 410.59 390.37 409.45C387.58 408.86 379.81 407.18 372.03 404.41C368.16 403.03 360.6 400.06 347.27 391.57C338.56 386.03 323.99 376.64 307.83 360.39C300.12 352.63 292.28 344.64 284.9 331.96C278.61 321.14 273.8 308.88 275.44 307.9C277.21 306.85 284.27 320.03 300.49 334.71C313.1 346.12 326.15 351.84 331.67 354.43C340.78 358.71 348.63 361.24 355.98 363.6C364.86 366.46 371.68 368.14 377.86 369.66C383.49 371.04 393.17 373.41 405.97 375.53C415.3 377.07 415.11 376.64 427.29 378.51V378.48Z" fill="#FFBD1A"/>
<path d="M386.56 371.7C385.97 379.84 387.64 385.77 388.99 389.26C390.97 394.39 393.87 398.39 398.16 404.39C400.37 407.48 402.36 409.97 403.8 411.7C400.32 411.26 395.72 410.57 390.36 409.43C387.57 408.84 379.8 407.16 372.02 404.39C368.15 403.01 360.59 400.04 347.26 391.55C338.55 386.01 323.98 376.62 307.82 360.37C300.11 352.61 292.27 344.62 284.89 331.94C278.6 321.12 273.79 308.86 275.43 307.88C277.2 306.83 284.26 320.01 300.48 334.69C313.09 346.1 326.14 351.82 331.66 354.41C340.77 358.69 348.62 361.22 355.97 363.58C363.01 365.85 369.17 367.76 377.85 369.64C381.86 370.51 386.56 371.71 386.56 371.71V371.7Z" fill="black"/>
<path d="M413.57 262.11C407.79 262.52 404.19 261.11 401.94 259.7C399.99 258.47 399.05 257.24 394.93 253.98C392.64 252.17 390.68 250.78 389.38 249.88C389.22 249.76 386.46 247.71 381.5 244.59C354.89 227.86 331.33 227.63 331.33 227.63C325.04 227.55 312.72 227.4 302.76 231.21C297.17 233.35 296.56 232.9 293.89 233.35C288.37 234.29 283.75 234.19 280.74 233.96C241.38 222.68 219.62 214.79 208.28 208.89C205.24 207.31 197.19 202.87 187.49 204.3C181.19 205.23 176.5 208.32 173.73 210.11C166.59 214.73 162.8 220.15 159.19 225.41C155.16 231.29 144.28 247.68 149.57 254.14C150.52 255.3 153.06 257.43 160.53 256.56C161.24 250.58 163.5 239.75 171.75 230.32C174.82 226.81 178.68 222.51 185.34 220.51C193.22 218.15 200.4 220.71 203.99 222.04C216.45 226.66 246.27 237.99 286 254.22C285.55 258.75 285.15 265.25 285.54 273.02C286.13 284.6 286.61 294.12 291.16 303.09C300.27 321.03 320.54 326.69 323.93 327.6C326.58 328.31 350.25 334.42 370.04 320.52C379.11 314.15 383.98 305.96 386.66 301.46C392.27 292.03 394.57 283.18 395.6 277.38C399.27 278.07 402.94 278.76 406.61 279.44C408.92 273.67 411.24 267.89 413.55 262.12L413.57 262.11Z" fill="#20FF20" stroke="#20FF20" stroke-width="6.83" stroke-miterlimit="10"/>
<path d="M180.31 427.09C179.93 428.28 140.57 417.83 99.5501 403.24C93.0901 400.94 87.7301 398.95 84.0101 397.54C81.1801 397.92 77.0301 401.88 79.0901 406.34C79.2801 417.65 61.3601 415.57 58.5801 443.69C103.95 527.75 170.19 567.91 170.19 567.91C211.69 593.86 259.17 610.94 261.26 607.09C262.04 605.66 256.59 601.18 251.9 597.65C251.85 597.22 250.87 589.13 211.35 572.69C247.64 569.4 284.66 566.48 322.41 563.98C376.53 560.39 429.32 557.84 480.7 556.18C475.31 546.77 469.24 537.09 462.41 527.28C437.24 491.13 409.21 463.99 384.13 443.97C383.51 443.46 382.88 442.96 382.26 442.45C383.66 440.76 386.33 436.75 386.85 431.14C386.88 430.8 387.41 424.5 385.02 423.5C382.72 422.54 378.99 426.96 372.71 434.31C357.71 451.87 355.77 453.81 354.31 455.68C354.31 455.68 354.31 455.69 354.29 455.7C351.03 460.01 347.19 526.5 342.22 527.75C338.23 528.76 335.68 487.19 306.4 466.58C295.73 459.07 288.55 459.3 267.93 446.12C256.02 438.51 246.98 431.12 241.14 426L237 428.04C236.78 428.21 236.45 428.51 236.44 428.91C236.44 429.24 236.64 429.49 236.75 429.61C237.36 430.3 243.36 436.73 243.53 436.51C243.69 436.3 236.96 432.68 220.24 417.38C197.84 396.87 187.55 387.27 171.02 369.38C148.21 345.34 137.46 321.38 157.92 293.96C191.27 241.86 188.83 240.73 219.69 211.99C228.94 203.22 249.03 186.52 279.78 178.11C287.3 176.05 313.64 169.52 346.94 176.29C360.26 179 409.6 189.05 433.21 231.04C438.9 241.16 441.68 250.62 443.15 257.4C446.57 257.7 450.01 257.97 453.49 258.24C455.45 258.39 457.4 258.53 459.34 258.66C461.64 249.94 463.74 236.7 460.11 221.94C460.11 221.94 459.81 220.75 459.47 219.58C451.07 190.73 412.04 166.46 412.04 166.46C383.09 152.42 328.8 128.84 271.16 121.89C251.93 119.57 233.51 119.24 213.84 126.93C204.63 130.53 192.1 137.09 170.73 159.03C142.51 188.01 128.41 213.22 103.75 259.3C86.6001 291.35 78.9501 311.26 82.1201 335.07C83.0001 341.71 84.5301 346.64 85.0301 348.25C88.8201 360.29 98.5801 372.72 98.5801 372.72C112.94 391.03 130.93 403.09 130.93 403.09C143.55 411.55 156.16 416.93 166.29 421.24C175.72 425.26 180.49 426.69 180.37 427.07L180.31 427.09Z" fill="white"/>
<path d="M284.02 546.95C264.95 543.44 250.37 539.77 240.33 536.96C237.65 536.21 236.3 535.85 234.8 535.37C211.5 527.82 206.86 519.84 185.27 517.48C165.44 515.32 154.81 520.46 153.63 517.48C151.3 511.6 187.84 479.39 233.43 478.96C278.19 478.54 308.94 508.99 313.23 513.35C331.5 532 351.9 554.97 347.62 560.13C344.91 563.4 333.35 558.37 323.23 553.14" fill="#040302"/>
<path d="M312.92 618.66C481.776 618.66 618.66 481.776 618.66 312.92C618.66 144.064 481.776 7.17999 312.92 7.17999C144.065 7.17999 7.18018 144.064 7.18018 312.92C7.18018 481.776 144.065 618.66 312.92 618.66Z" stroke="#080103" stroke-width="14.36" stroke-miterlimit="10"/>
<path d="M551.24 560.47H391.14C390.9 560.47 387.27 560.46 383.37 560.45C382.82 560.45 375.36 560.07 373.81 559.73C368.23 558.51 363.27 548.76 368.23 537.28C368.3 537.12 370.78 529.92 370.86 529.76L410.45 429.88C415.92 418.51 422.65 407.14 431.6 407.14H625.26C630.94 409.52 634.87 420.09 629.96 429.88C591.51 514.41 588.57 520.05 581.37 535.19C575.84 546.82 562.25 561.72 551.23 560.48L551.24 560.47Z" fill="white" stroke="black" stroke-width="14.61" stroke-linecap="round" stroke-linejoin="round"/>
<path d="M542.74 567.92H254.17V570.85H542.74V567.92Z" fill="white" stroke="black" stroke-width="14" stroke-linecap="round" stroke-linejoin="round"/>
<path d="M56.1401 189.58L43.6201 182.37L68.1001 139.89L80.6201 147.1L56.1401 189.58ZM104.37 198.15L51.9301 167.94L59.7401 154.39L112.18 184.6L104.37 198.15Z" fill="#20FF20"/>
<path d="M120.35 170.01L91.02 112.99L102 101.42L160.33 127.86L149.13 139.66L101.11 115.56L104.98 111.47L131.31 158.43L120.33 170L120.35 170.01ZM122.42 153L112.8 143.88L134.22 121.3L143.84 130.42L122.42 153Z" fill="#20FF20"/>
<path d="M170.7 121.84L136.23 72.1L149.08 63.19L183.55 112.93L170.7 121.84Z" fill="#20FF20"/>
<path d="M196.29 104.38L171.55 49.15L185.82 42.76L210.56 97.99L196.29 104.38ZM199.16 79.8L194.16 68.63L203.37 64.51C204.46 64.02 205.37 63.32 206.07 62.41C206.78 61.5 207.19 60.42 207.31 59.15C207.43 57.89 207.15 56.5 206.48 55C205.81 53.5 204.96 52.37 203.94 51.62C202.92 50.87 201.83 50.45 200.68 50.38C199.53 50.3 198.41 50.51 197.32 51L188.11 55.12L183.11 43.95L195.1 38.58C198.38 37.11 201.66 36.49 204.94 36.73C208.22 36.97 211.23 38.08 213.97 40.05C216.71 42.02 218.93 44.89 220.62 48.67C222.29 52.39 222.95 55.95 222.61 59.33C222.27 62.71 221.1 65.71 219.09 68.31C217.09 70.91 214.44 72.95 211.16 74.42L199.17 79.79L199.16 79.8Z" fill="#20FF20"/>
<path d="M242.09 84.83L229.13 25.71L244.41 22.36L257.37 81.48L242.09 84.83ZM244.52 36.78L241.5 23L270.22 16.7L273.24 30.48L244.52 36.78ZM249.33 58.7L246.38 45.25L272.73 39.47L275.68 52.92L249.33 58.7ZM254.46 82.12L251.44 68.34L280.62 61.94L283.64 75.72L254.46 82.12Z" fill="#20FF20"/>
<path d="M297.24 75.32L295.17 14.84L310.8 14.31L312.87 74.79L297.24 75.32Z" fill="#20FF20"/>
<path d="M368.27 82.4C364.09 81.49 360.38 79.88 357.12 77.57C353.86 75.26 351.18 72.43 349.09 69.07C346.99 65.71 345.6 62 344.92 57.94C344.23 53.88 344.37 49.66 345.32 45.28C346.29 40.85 347.93 36.95 350.24 33.56C352.55 30.18 355.34 27.42 358.61 25.29C361.88 23.16 365.46 21.72 369.35 20.98C373.25 20.24 377.29 20.32 381.46 21.23C385.69 22.15 389.4 23.72 392.6 25.92C395.8 28.13 398.42 30.79 400.46 33.9L387.87 42.81C386.96 41.1 385.72 39.64 384.14 38.43C382.56 37.22 380.6 36.35 378.26 35.84C376.22 35.4 374.27 35.35 372.41 35.69C370.54 36.04 368.85 36.77 367.33 37.89C365.81 39.01 364.48 40.47 363.37 42.29C362.25 44.11 361.43 46.23 360.9 48.67C360.36 51.16 360.21 53.47 360.47 55.58C360.73 57.7 361.32 59.58 362.24 61.23C363.16 62.88 364.39 64.27 365.94 65.39C367.48 66.51 369.27 67.29 371.31 67.74C373.6 68.24 375.74 68.3 377.71 67.92C379.69 67.54 381.5 66.75 383.15 65.54L390.96 78.9C387.7 80.86 384.24 82.18 380.57 82.85C376.9 83.53 372.8 83.37 368.27 82.38V82.4Z" fill="#20FF20"/>
<path d="M417.37 100.42C413.44 98.49 410.18 95.99 407.58 92.95C404.98 89.9 403.08 86.5 401.88 82.75C400.68 79 400.25 75.06 400.59 70.94C400.93 66.82 402.1 62.75 404.07 58.73C406.07 54.66 408.58 51.25 411.59 48.51C414.6 45.76 417.95 43.71 421.63 42.37C425.31 41.03 429.15 40.47 433.13 40.69C437.12 40.92 441.07 42 445 43.93C448.93 45.86 452.2 48.34 454.81 51.36C457.42 54.38 459.31 57.76 460.5 61.5C461.68 65.24 462.09 69.15 461.73 73.24C461.37 77.33 460.19 81.41 458.19 85.47C456.21 89.49 453.71 92.88 450.69 95.66C447.67 98.43 444.31 100.51 440.61 101.88C436.91 103.25 433.08 103.83 429.12 103.61C425.16 103.4 421.24 102.33 417.35 100.42H417.37ZM423.84 86.93C426.46 88.22 429.03 88.73 431.55 88.45C434.07 88.17 436.39 87.17 438.52 85.44C440.65 83.71 442.45 81.35 443.93 78.35C445.03 76.11 445.73 73.95 446.04 71.86C446.34 69.77 446.25 67.8 445.77 65.95C445.29 64.1 444.43 62.45 443.2 60.99C441.97 59.53 440.38 58.32 438.41 57.35C435.79 56.06 433.23 55.54 430.72 55.79C428.21 56.04 425.9 57.02 423.79 58.72C421.67 60.42 419.87 62.78 418.4 65.78C417.27 68.07 416.55 70.27 416.23 72.39C415.91 74.51 416 76.49 416.48 78.34C416.96 80.19 417.82 81.84 419.05 83.3C420.28 84.76 421.87 85.97 423.84 86.94V86.93Z" fill="#20FF20"/>
<path d="M448.58 115.76L487.91 69.76L499.8 79.92L460.47 125.92L448.58 115.76ZM456.54 122.57L465.93 111.59L475.8 120.02C478.02 121.92 480.32 123.12 482.7 123.62C485.08 124.13 487.48 123.85 489.9 122.78C492.32 121.72 494.67 119.85 496.95 117.18C499.23 114.51 500.68 111.91 501.3 109.38C501.92 106.85 501.8 104.46 500.95 102.21C500.1 99.96 498.57 97.88 496.35 95.98L485.89 87.04L495.28 76.06L505.74 85C509.07 87.85 511.67 91 513.54 94.47C515.41 97.94 516.51 101.56 516.84 105.35C517.17 109.14 516.69 112.92 515.41 116.71C514.13 120.5 511.99 124.13 509.01 127.62C506.03 131.11 502.76 133.78 499.22 135.64C495.68 137.5 492.01 138.55 488.22 138.82C484.43 139.08 480.68 138.57 476.99 137.27C473.3 135.98 469.8 133.92 466.52 131.11L456.53 122.57H456.54Z" fill="#20FF20"/>
<path d="M492.31 155.1L541 119.16L550.29 131.74L501.6 167.68L492.31 155.1ZM499.83 165.29L511.18 156.91L528.92 180.95L517.57 189.33L499.83 165.3V165.29ZM519.12 151.06L530.2 142.88L546.22 164.59L535.14 172.77L519.12 151.06ZM537.17 137.73L548.52 129.35L565.98 153.01L554.63 161.39L537.17 137.73Z" fill="#20FF20"/>
<path d="M522.65 198.7L577.99 174.22L584.32 188.52L528.98 213L522.65 198.7ZM547.45 201.59L560.35 195.88L571.42 220.91L558.52 226.62L547.45 201.59ZM570.22 191.51L583.12 185.8L594.67 211.9L581.77 217.61L570.22 191.51Z" fill="#20FF20"/>
<path d="M541.12 242.35L600.25 229.43L603.59 244.71L544.46 257.63L541.12 242.35ZM543.82 254.73L557.61 251.72L563.99 280.9L550.2 283.91L543.82 254.73ZM567.24 249.61L580.69 246.67L586.45 273.03L573 275.97L567.24 249.61ZM589.16 244.82L602.95 241.81L609.22 270.54L595.44 273.55L589.16 244.82Z" fill="#20FF20"/>
<path d="M549.96 314.49C550.01 309.75 550.8 305.62 552.34 302.12C553.88 298.62 556.3 295.4 559.62 292.46L570.14 302.34C568.02 304.35 566.4 306.47 565.27 308.7C564.14 310.93 563.57 313.32 563.54 315.88C563.52 318.02 563.86 319.64 564.55 320.74C565.25 321.84 566.22 322.4 567.47 322.41C568.72 322.42 569.76 321.96 570.59 321.03C571.42 320.1 572.17 318.87 572.84 317.34C573.51 315.81 574.19 314.12 574.89 312.28C575.59 310.44 576.43 308.61 577.41 306.79C578.39 304.97 579.58 303.31 580.99 301.78C582.39 300.26 584.13 299.04 586.21 298.12C588.29 297.2 590.83 296.76 593.83 296.79C597.74 296.83 601.1 297.73 603.92 299.47C606.73 301.22 608.88 303.67 610.35 306.81C611.82 309.95 612.53 313.64 612.49 317.86C612.45 322.03 611.69 325.89 610.2 329.45C608.72 333.01 606.63 335.94 603.95 338.26L593.43 328.3C595.26 326.6 596.62 324.89 597.52 323.18C598.42 321.47 598.87 319.6 598.9 317.56C598.92 315.94 598.65 314.65 598.09 313.68C597.53 312.71 596.69 312.22 595.55 312.21C594.36 312.2 593.38 312.66 592.6 313.59C591.83 314.52 591.12 315.75 590.48 317.28C589.84 318.81 589.17 320.5 588.47 322.34C587.77 324.18 586.94 326.01 585.99 327.83C585.04 329.64 583.83 331.31 582.37 332.84C580.91 334.36 579.1 335.58 576.93 336.5C574.77 337.42 572.16 337.86 569.1 337.83C562.92 337.77 558.17 335.7 554.84 331.62C551.51 327.55 549.88 321.83 549.96 314.48V314.49Z" fill="#20FF20"/>
<path d="M547.44 354.86L606.63 367.46L603.37 382.76L544.18 370.16L547.44 354.86ZM595.97 348.16L610.1 351.17L599.89 399.13L585.76 396.12L595.97 348.16Z" fill="#20FF20"/>
<path d="M308.41 239C304.82 241.79 303.16 245.69 302.43 247.8C298.85 257.62 297.41 266.08 296.78 271.97C296.29 276.56 295.67 282.81 296.79 290.75C296.92 291.66 297.8 297.74 299.45 302.04C305.84 318.68 328.92 322.11 334.92 323.11C342.46 324.37 356.25 326.68 367.33 317.89C371.9 314.26 375.55 309.11 377.46 306.4C383.03 298.54 385.79 291.38 386.7 288.89C389.83 280.3 394.71 266.89 389.74 257.3C388.95 255.77 387.2 252.99 376.32 247.54C358.23 238.48 343.94 236.57 332.35 235.13C331.86 235.07 325.35 234.31 317.05 235.75C312.55 236.53 310.35 237.47 308.39 238.99L308.41 239Z" fill="black"/>
<path d="M416.92 283.94C416.59 285.54 416.52 286.78 416.49 287.22C415.15 309.44 411.66 319.42 416.72 329.87C421.64 340.03 432.55 346.33 442.37 348.13C444.49 348.52 458.87 351.1 469.11 342.46C472.57 339.54 474.79 336.09 477.72 331.52C482.68 323.8 485.07 317 485.74 315C489.39 304.18 490.31 292.78 490.31 292.78C490.31 292.78 489.08 285.62 488.94 284.92C486.76 274.04 434.28 255.31 420.05 276.09C417.61 279.65 416.92 283.93 416.92 283.93V283.94Z" fill="black"/>
</g>
<defs>
<clipPath id="clip0_120_9793">
<rect width="639.5" height="625.84" fill="white"/>
</clipPath>
</defs>
</svg>
