<svg width="40" height="40" viewBox="0 0 40 40" fill="none" xmlns="http://www.w3.org/2000/svg">
<path d="M21.7218 5H18.9954V5.68607H21.7218V5Z" fill="black"/>
<path d="M21.7306 5.68614H18.3181V6.37221H21.7306V5.68614Z" fill="black"/>
<path d="M23.771 6.36465H17.6321V7.05072H23.771V6.36465Z" fill="black"/>
<path d="M20.3676 7.04889H16.9551V7.73496H20.3676V7.04889Z" fill="black"/>
<path d="M25.8204 7.04889H21.7307V7.73496H25.8204V7.04889Z" fill="black"/>
<path d="M19.6815 7.72549H16.269V8.41156H19.6815V7.72549Z" fill="black"/>
<path d="M22.4167 7.72549H20.3674V8.41156H22.4167V7.72549Z" fill="black"/>
<path d="M27.1836 7.72549H23.094V8.41156H27.1836V7.72549Z" fill="black"/>
<path d="M17.6411 8.4126H15.5918V9.09867H17.6411V8.4126Z" fill="black"/>
<path d="M19.0042 8.4126H18.3181V9.09867H19.0042V8.4126Z" fill="black"/>
<path d="M20.3675 8.4126H19.6814V9.09867H20.3675V8.4126Z" fill="black"/>
<path d="M23.094 8.4126H22.408V9.09867H23.094V8.4126Z" fill="black"/>
<path d="M24.4571 8.4126H23.771V9.09867H24.4571V8.4126Z" fill="black"/>
<path d="M27.8607 8.4126H25.1343V9.09867H27.8607V8.4126Z" fill="black"/>
<path d="M17.6322 9.09015H14.9058V9.77622H17.6322V9.09015Z" fill="black"/>
<path d="M19.0042 9.09015H18.3181V9.77622H19.0042V9.09015Z" fill="black"/>
<path d="M22.4078 9.09015H19.6814V9.77622H22.4078V9.09015Z" fill="black"/>
<path d="M23.7801 9.09015H23.094V9.77622H23.7801V9.09015Z" fill="black"/>
<path d="M25.1431 9.09015H24.457V9.77622H25.1431V9.09015Z" fill="black"/>
<path d="M29.91 9.09015H25.8203V9.77622H29.91V9.09015Z" fill="black"/>
<path d="M16.9549 9.77629H14.2285V10.4624H16.9549V9.77629Z" fill="black"/>
<path d="M18.3181 9.77629H17.6321V10.4624H18.3181V9.77629Z" fill="black"/>
<path d="M19.6814 9.77629H18.9954V10.4624H19.6814V9.77629Z" fill="black"/>
<path d="M21.7305 9.77629H21.0444V10.4624H21.7305V9.77629Z" fill="black"/>
<path d="M23.094 9.77629H22.408V10.4624H23.094V9.77629Z" fill="black"/>
<path d="M24.4571 9.77629H23.771V10.4624H24.4571V9.77629Z" fill="black"/>
<path d="M31.2732 9.77629H25.1343V10.4624H31.2732V9.77629Z" fill="black"/>
<path d="M16.2689 10.4529H13.5425V11.139H16.2689V10.4529Z" fill="black"/>
<path d="M17.6411 10.4529H16.9551V11.139H17.6411V10.4529Z" fill="black"/>
<path d="M21.7306 10.4529H18.3181V11.139H21.7306V10.4529Z" fill="black"/>
<path d="M23.094 10.4529H22.408V11.139H23.094V10.4529Z" fill="black"/>
<path d="M25.8203 10.4529H23.771V11.139H25.8203V10.4529Z" fill="black"/>
<path d="M28.5467 10.4529H27.8606V11.139H28.5467V10.4529Z" fill="black"/>
<path d="M31.9506 10.4529H29.2241V11.139H31.9506V10.4529Z" fill="black"/>
<path d="M15.5919 11.139H12.8655V11.8251H15.5919V11.139Z" fill="black"/>
<path d="M16.9551 11.139H16.269V11.8251H16.9551V11.139Z" fill="black"/>
<path d="M18.3181 11.139H17.6321V11.8251H18.3181V11.139Z" fill="black"/>
<path d="M20.3675 11.139H19.6814V11.8251H20.3675V11.139Z" fill="black"/>
<path d="M24.4572 11.139H23.094V11.8251H24.4572V11.139Z" fill="black"/>
<path d="M27.8696 11.139H25.8203V11.8251H27.8696V11.139Z" fill="black"/>
<path d="M29.2327 11.139H28.5466V11.8251H29.2327V11.139Z" fill="black"/>
<path d="M30.596 11.139H29.9099V11.8251H30.596V11.139Z" fill="black"/>
<path d="M33.3225 11.139H31.2732V11.8251H33.3225V11.139Z" fill="black"/>
<path d="M14.9056 11.8176H12.1792V12.5036H14.9056V11.8176Z" fill="black"/>
<path d="M16.2779 11.8176H15.5918V12.5036H16.2779V11.8176Z" fill="black"/>
<path d="M19.0044 11.8176H16.9551V12.5036H19.0044V11.8176Z" fill="black"/>
<path d="M21.0535 11.8176H20.3674V12.5036H21.0535V11.8176Z" fill="black"/>
<path d="M25.8204 11.8176H21.7307V12.5036H25.8204V11.8176Z" fill="black"/>
<path d="M27.1836 11.8176H26.4976V12.5036H27.1836V11.8176Z" fill="black"/>
<path d="M28.5467 11.8176H27.8606V12.5036H28.5467V11.8176Z" fill="black"/>
<path d="M29.9102 11.8176H29.2241V12.5036H29.9102V11.8176Z" fill="black"/>
<path d="M34.6768 11.8176H30.5872V12.5036H34.6768V11.8176Z" fill="black"/>
<path d="M14.2286 12.5018H11.5022V13.1879H14.2286V12.5018Z" fill="black"/>
<path d="M15.5918 12.5018H14.9058V13.1879H15.5918V12.5018Z" fill="black"/>
<path d="M18.9955 12.5018H16.269V13.1879H18.9955V12.5018Z" fill="black"/>
<path d="M21.7307 12.5018H19.6814V13.1879H21.7307V12.5018Z" fill="black"/>
<path d="M23.094 12.5018H22.408V13.1879H23.094V12.5018Z" fill="black"/>
<path d="M25.1431 12.5018H24.457V13.1879H25.1431V12.5018Z" fill="black"/>
<path d="M26.5064 12.5018H25.8203V13.1879H26.5064V12.5018Z" fill="black"/>
<path d="M29.2329 12.5018H27.1836V13.1879H29.2329V12.5018Z" fill="black"/>
<path d="M31.2731 12.5018H29.9099V13.1879H31.2731V12.5018Z" fill="black"/>
<path d="M32.6363 12.5018H31.9502V13.1879H32.6363V12.5018Z" fill="black"/>
<path d="M35.363 12.5018H33.3137V13.1879H35.363V12.5018Z" fill="black"/>
<path d="M14.2287 13.1784H10.8162V13.8645H14.2287V13.1784Z" fill="black"/>
<path d="M16.269 13.1784H14.9058V13.8645H16.269V13.1784Z" fill="black"/>
<path d="M19.0044 13.1784H16.9551V13.8645H19.0044V13.1784Z" fill="black"/>
<path d="M21.0446 13.1784H19.6814V13.8645H21.0446V13.1784Z" fill="black"/>
<path d="M25.8204 13.1784H23.094V13.8645H25.8204V13.1784Z" fill="black"/>
<path d="M27.8697 13.1784H27.1836V13.8645H27.8697V13.1784Z" fill="black"/>
<path d="M30.5873 13.1784H29.2241V13.8645H30.5873V13.1784Z" fill="black"/>
<path d="M31.9593 13.1784H31.2732V13.8645H31.9593V13.1784Z" fill="black"/>
<path d="M35.3629 13.1784H32.6365V13.8645H35.3629V13.1784Z" fill="black"/>
<path d="M12.8653 13.8665H10.1389V14.5525H12.8653V13.8665Z" fill="black"/>
<path d="M14.9057 13.8665H13.5425V14.5525H14.9057V13.8665Z" fill="black"/>
<path d="M16.955 13.8665H15.5918V14.5525H16.955V13.8665Z" fill="black"/>
<path d="M20.3674 13.8665H18.3181V14.5525H20.3674V13.8665Z" fill="black"/>
<path d="M21.7305 13.8665H21.0444V14.5525H21.7305V13.8665Z" fill="black"/>
<path d="M23.094 13.8665H22.408V14.5525H23.094V13.8665Z" fill="black"/>
<path d="M25.1431 13.8665H24.457V14.5525H25.1431V13.8665Z" fill="black"/>
<path d="M27.8696 13.8665H25.8203V14.5525H27.8696V13.8665Z" fill="black"/>
<path d="M29.2327 13.8665H28.5466V14.5525H29.2327V13.8665Z" fill="black"/>
<path d="M31.2732 13.8665H30.5872V14.5525H31.2732V13.8665Z" fill="black"/>
<path d="M32.6363 13.8665H31.9502V14.5525H32.6363V13.8665Z" fill="black"/>
<path d="M34.6769 13.8665H33.3137V14.5525H34.6769V13.8665Z" fill="black"/>
<path d="M12.8654 14.543H9.45288V15.2291H12.8654V14.543Z" fill="black"/>
<path d="M14.9146 14.543H14.2285V15.2291H14.9146V14.543Z" fill="black"/>
<path d="M18.9955 14.543H16.269V15.2291H18.9955V14.543Z" fill="black"/>
<path d="M20.3675 14.543H19.6814V15.2291H20.3675V14.543Z" fill="black"/>
<path d="M23.7709 14.543H21.0444V15.2291H23.7709V14.543Z" fill="black"/>
<path d="M25.1431 14.543H24.457V15.2291H25.1431V14.543Z" fill="black"/>
<path d="M27.1836 14.543H26.4976V15.2291H27.1836V14.543Z" fill="black"/>
<path d="M34.6767 14.543H27.8606V15.2291H34.6767V14.543Z" fill="black"/>
<path d="M12.1881 15.2282H8.77563V15.9143H12.1881V15.2282Z" fill="black"/>
<path d="M14.2287 15.2282H12.8655V15.9143H14.2287V15.2282Z" fill="black"/>
<path d="M16.269 15.2282H14.9058V15.9143H16.269V15.2282Z" fill="black"/>
<path d="M17.6411 15.2282H16.9551V15.9143H17.6411V15.2282Z" fill="black"/>
<path d="M21.0445 15.2282H18.3181V15.9143H21.0445V15.2282Z" fill="black"/>
<path d="M27.8608 15.2282H22.408V15.9143H27.8608V15.2282Z" fill="black"/>
<path d="M33.9998 15.2282H29.2241V15.9143H33.9998V15.2282Z" fill="black"/>
<path d="M11.5021 15.9058H8.0896V16.5919H11.5021V15.9058Z" fill="black"/>
<path d="M13.5424 15.9058H12.1792V16.5919H13.5424V15.9058Z" fill="black"/>
<path d="M15.5917 15.9058H14.2285V16.5919H15.5917V15.9058Z" fill="black"/>
<path d="M16.9551 15.9058H16.269V16.5919H16.9551V15.9058Z" fill="black"/>
<path d="M18.9953 15.9058H17.6321V16.5919H18.9953V15.9058Z" fill="black"/>
<path d="M20.3675 15.9058H19.6814V16.5919H20.3675V15.9058Z" fill="black"/>
<path d="M23.0937 15.9058H21.0444V16.5919H23.0937V15.9058Z" fill="black"/>
<path d="M25.1431 15.9058H24.457V16.5919H25.1431V15.9058Z" fill="black"/>
<path d="M27.1836 15.9058H26.4976V16.5919H27.1836V15.9058Z" fill="black"/>
<path d="M29.2238 15.9058H27.8606V16.5919H29.2238V15.9058Z" fill="black"/>
<path d="M32.6363 15.9058H29.9099V16.5919H32.6363V15.9058Z" fill="black"/>
<path d="M34.6769 15.9058H33.3137V16.5919H34.6769V15.9058Z" fill="black"/>
<path d="M10.1388 16.5919H7.41235V17.278H10.1388V16.5919Z" fill="black"/>
<path d="M12.1794 16.5919H10.8162V17.278H12.1794V16.5919Z" fill="black"/>
<path d="M14.2285 16.5919H13.5425V17.278H14.2285V16.5919Z" fill="black"/>
<path d="M15.5918 16.5919H14.9058V17.278H15.5918V16.5919Z" fill="black"/>
<path d="M17.6323 16.5919H16.269V17.278H17.6323V16.5919Z" fill="black"/>
<path d="M19.0042 16.5919H18.3181V17.278H19.0042V16.5919Z" fill="black"/>
<path d="M21.0535 16.5919H20.3674V17.278H21.0535V16.5919Z" fill="black"/>
<path d="M22.4168 16.5919H21.7307V17.278H22.4168V16.5919Z" fill="black"/>
<path d="M25.1342 16.5919H23.771V17.278H25.1342V16.5919Z" fill="black"/>
<path d="M26.5064 16.5919H25.8203V17.278H26.5064V16.5919Z" fill="black"/>
<path d="M27.8697 16.5919H27.1836V17.278H27.8697V16.5919Z" fill="black"/>
<path d="M29.2327 16.5919H28.5466V17.278H29.2327V16.5919Z" fill="black"/>
<path d="M31.2731 16.5919H29.9099V17.278H31.2731V16.5919Z" fill="black"/>
<path d="M33.9997 16.5919H32.6365V17.278H33.9997V16.5919Z" fill="black"/>
<path d="M10.8162 17.2685H6.72656V17.9546H10.8162V17.2685Z" fill="black"/>
<path d="M13.5515 17.2685H11.5022V17.9546H13.5515V17.2685Z" fill="black"/>
<path d="M14.9146 17.2685H14.2285V17.9546H14.9146V17.2685Z" fill="black"/>
<path d="M16.2779 17.2685H15.5918V17.9546H16.2779V17.2685Z" fill="black"/>
<path d="M18.3183 17.2685H16.9551V17.9546H18.3183V17.2685Z" fill="black"/>
<path d="M23.085 17.2685H18.9954V17.9546H23.085V17.2685Z" fill="black"/>
<path d="M25.8203 17.2685H23.771V17.9546H25.8203V17.2685Z" fill="black"/>
<path d="M27.1836 17.2685H26.4976V17.9546H27.1836V17.2685Z" fill="black"/>
<path d="M31.2731 17.2685H27.8606V17.9546H31.2731V17.2685Z" fill="black"/>
<path d="M34.6769 17.2685H33.3137V17.9546H34.6769V17.2685Z" fill="black"/>
<path d="M10.1392 17.9547H6.04956V18.6408H10.1392V17.9547Z" fill="black"/>
<path d="M11.5022 17.9547H10.8162V18.6408H11.5022V17.9547Z" fill="black"/>
<path d="M12.8653 17.9547H12.1792V18.6408H12.8653V17.9547Z" fill="black"/>
<path d="M14.2285 17.9547H13.5425V18.6408H14.2285V17.9547Z" fill="black"/>
<path d="M15.5918 17.9547H14.9058V18.6408H15.5918V17.9547Z" fill="black"/>
<path d="M17.6323 17.9547H16.269V18.6408H17.6323V17.9547Z" fill="black"/>
<path d="M19.0042 17.9547H18.3181V18.6408H19.0042V17.9547Z" fill="black"/>
<path d="M21.0535 17.9547H20.3674V18.6408H21.0535V17.9547Z" fill="black"/>
<path d="M24.4571 17.9547H21.7307V18.6408H24.4571V17.9547Z" fill="black"/>
<path d="M27.8696 17.9547H25.8203V18.6408H27.8696V17.9547Z" fill="black"/>
<path d="M30.5959 17.9547H28.5466V18.6408H30.5959V17.9547Z" fill="black"/>
<path d="M32.6363 17.9547H31.9502V18.6408H32.6363V17.9547Z" fill="black"/>
<path d="M33.9998 17.9547H33.3137V18.6408H33.9998V17.9547Z" fill="black"/>
<path d="M9.45292 18.6322H5.36328V19.3183H9.45292V18.6322Z" fill="black"/>
<path d="M12.8654 18.6322H10.8162V19.3183H12.8654V18.6322Z" fill="black"/>
<path d="M20.3586 18.6322H13.5425V19.3183H20.3586V18.6322Z" fill="black"/>
<path d="M22.4076 18.6322H21.0444V19.3183H22.4076V18.6322Z" fill="black"/>
<path d="M23.7801 18.6322H23.094V19.3183H23.7801V18.6322Z" fill="black"/>
<path d="M29.2327 18.6322H24.457V19.3183H29.2327V18.6322Z" fill="black"/>
<path d="M34.6769 18.6322H33.3137V19.3183H34.6769V18.6322Z" fill="black"/>
<path d="M8.77568 19.3194H4.68604V20.0054H8.77568V19.3194Z" fill="black"/>
<path d="M10.8161 19.3194H9.45288V20.0054H10.8161V19.3194Z" fill="black"/>
<path d="M12.1883 19.3194H11.5022V20.0054H12.1883V19.3194Z" fill="black"/>
<path d="M13.5515 19.3194H12.8655V20.0054H13.5515V19.3194Z" fill="black"/>
<path d="M15.5917 19.3194H14.2285V20.0054H15.5917V19.3194Z" fill="black"/>
<path d="M16.9551 19.3194H16.269V20.0054H16.9551V19.3194Z" fill="black"/>
<path d="M19.6814 19.3194H17.6321V20.0054H19.6814V19.3194Z" fill="black"/>
<path d="M21.7306 19.3194H20.3674V20.0054H21.7306V19.3194Z" fill="black"/>
<path d="M23.094 19.3194H22.408V20.0054H23.094V19.3194Z" fill="black"/>
<path d="M24.4571 19.3194H23.771V20.0054H24.4571V19.3194Z" fill="black"/>
<path d="M25.8203 19.3194H25.1343V20.0054H25.8203V19.3194Z" fill="black"/>
<path d="M29.224 19.3194H26.4976V20.0054H29.224V19.3194Z" fill="black"/>
<path d="M30.596 19.3194H29.9099V20.0054H30.596V19.3194Z" fill="black"/>
<path d="M31.9593 19.3194H31.2732V20.0054H31.9593V19.3194Z" fill="black"/>
<path d="M33.9997 19.3194H32.6365V20.0054H33.9997V19.3194Z" fill="black"/>
<path d="M8.77571 19.9959H4V20.682H8.77571V19.9959Z" fill="black"/>
<path d="M10.1389 19.9959H9.45288V20.682H10.1389V19.9959Z" fill="black"/>
<path d="M12.8654 19.9959H10.8162V20.682H12.8654V19.9959Z" fill="black"/>
<path d="M14.2285 19.9959H13.5425V20.682H14.2285V19.9959Z" fill="black"/>
<path d="M20.3586 19.9959H14.9058V20.682H20.3586V19.9959Z" fill="black"/>
<path d="M22.4076 19.9959H21.0444V20.682H22.4076V19.9959Z" fill="black"/>
<path d="M25.1433 19.9959H23.094V20.682H25.1433V19.9959Z" fill="black"/>
<path d="M28.5467 19.9959H25.8203V20.682H28.5467V19.9959Z" fill="black"/>
<path d="M34.6769 19.9959H33.3137V20.682H34.6769V19.9959Z" fill="black"/>
<path d="M7.41249 20.6811H4V21.3672H7.41249V20.6811Z" fill="black"/>
<path d="M11.5021 20.6811H8.0896V21.3672H11.5021V20.6811Z" fill="black"/>
<path d="M14.2287 20.6811H12.8655V21.3672H14.2287V20.6811Z" fill="black"/>
<path d="M15.5918 20.6811H14.9058V21.3672H15.5918V20.6811Z" fill="black"/>
<path d="M18.3183 20.6811H16.269V21.3672H18.3183V20.6811Z" fill="black"/>
<path d="M19.6814 20.6811H18.9954V21.3672H19.6814V20.6811Z" fill="black"/>
<path d="M21.0535 20.6811H20.3674V21.3672H21.0535V20.6811Z" fill="black"/>
<path d="M24.4572 20.6811H22.408V21.3672H24.4572V20.6811Z" fill="black"/>
<path d="M27.8607 20.6811H25.1343V21.3672H27.8607V20.6811Z" fill="black"/>
<path d="M29.9102 20.6811H29.2241V21.3672H29.9102V20.6811Z" fill="black"/>
<path d="M32.6363 20.6811H31.9502V21.3672H32.6363V20.6811Z" fill="black"/>
<path d="M35.363 20.6811H33.3137V21.3672H35.363V20.6811Z" fill="black"/>
<path d="M6.04928 21.3682H4V22.0543H6.04928V21.3682Z" fill="black"/>
<path d="M9.4617 21.3682H8.77563V22.0543H9.4617V21.3682Z" fill="black"/>
<path d="M13.5514 21.3682H10.1389V22.0543H13.5514V21.3682Z" fill="black"/>
<path d="M14.9146 21.3682H14.2285V22.0543H14.9146V21.3682Z" fill="black"/>
<path d="M19.0043 21.3682H15.5918V22.0543H19.0043V21.3682Z" fill="black"/>
<path d="M20.3675 21.3682H19.6814V22.0543H20.3675V21.3682Z" fill="black"/>
<path d="M23.0937 21.3682H21.0444V22.0543H23.0937V21.3682Z" fill="black"/>
<path d="M27.1835 21.3682H24.457V22.0543H27.1835V21.3682Z" fill="black"/>
<path d="M31.2732 21.3682H30.5872V22.0543H31.2732V21.3682Z" fill="black"/>
<path d="M35.3629 21.3682H32.6365V22.0543H35.3629V21.3682Z" fill="black"/>
<path d="M6.04928 22.0448H4V22.7309H6.04928V22.0448Z" fill="black"/>
<path d="M8.77566 22.0448H8.0896V22.7309H8.77566V22.0448Z" fill="black"/>
<path d="M12.1793 22.0448H9.45288V22.7309H12.1793V22.0448Z" fill="black"/>
<path d="M14.2287 22.0448H12.8655V22.7309H14.2287V22.0448Z" fill="black"/>
<path d="M16.269 22.0448H14.9058V22.7309H16.269V22.0448Z" fill="black"/>
<path d="M21.0447 22.0448H16.9551V22.7309H21.0447V22.0448Z" fill="black"/>
<path d="M22.4168 22.0448H21.7307V22.7309H22.4168V22.0448Z" fill="black"/>
<path d="M26.5065 22.0448H23.094V22.7309H26.5065V22.0448Z" fill="black"/>
<path d="M29.2327 22.0448H28.5466V22.7309H29.2327V22.0448Z" fill="black"/>
<path d="M34.6857 22.0448H31.2732V22.7309H34.6857V22.0448Z" fill="black"/>
<path d="M6.72643 22.731H4V23.4171H6.72643V22.731Z" fill="black"/>
<path d="M14.9147 22.731H11.5022V23.4171H14.9147V22.731Z" fill="black"/>
<path d="M16.955 22.731H15.5918V23.4171H16.955V22.731Z" fill="black"/>
<path d="M18.3181 22.731H17.6321V23.4171H18.3181V22.731Z" fill="black"/>
<path d="M20.3586 22.731H18.9954V23.4171H20.3586V22.731Z" fill="black"/>
<path d="M21.7305 22.731H21.0444V23.4171H21.7305V22.731Z" fill="black"/>
<path d="M23.094 22.731H22.408V23.4171H23.094V22.731Z" fill="black"/>
<path d="M25.8203 22.731H23.771V23.4171H25.8203V22.731Z" fill="black"/>
<path d="M27.8697 22.731H27.1836V23.4171H27.8697V22.731Z" fill="black"/>
<path d="M30.596 22.731H29.9099V23.4171H30.596V22.731Z" fill="black"/>
<path d="M33.9996 22.731H31.2732V23.4171H33.9996V22.731Z" fill="black"/>
<path d="M6.04928 23.4085H4V24.0946H6.04928V23.4085Z" fill="black"/>
<path d="M12.8653 23.4085H12.1792V24.0946H12.8653V23.4085Z" fill="black"/>
<path d="M16.2778 23.4085H14.2285V24.0946H16.2778V23.4085Z" fill="black"/>
<path d="M17.6411 23.4085H16.9551V24.0946H17.6411V23.4085Z" fill="black"/>
<path d="M19.0042 23.4085H18.3181V24.0946H19.0042V23.4085Z" fill="black"/>
<path d="M21.0446 23.4085H19.6814V24.0946H21.0446V23.4085Z" fill="black"/>
<path d="M22.4168 23.4085H21.7307V24.0946H22.4168V23.4085Z" fill="black"/>
<path d="M25.1433 23.4085H23.094V24.0946H25.1433V23.4085Z" fill="black"/>
<path d="M29.2327 23.4085H28.5466V24.0946H29.2327V23.4085Z" fill="black"/>
<path d="M33.3136 23.4085H30.5872V24.0946H33.3136V23.4085Z" fill="black"/>
<path d="M6.72643 24.0937H4V24.7798H6.72643V24.0937Z" fill="black"/>
<path d="M18.9953 24.0937H13.5425V24.7798H18.9953V24.0937Z" fill="black"/>
<path d="M20.3675 24.0937H19.6814V24.7798H20.3675V24.0937Z" fill="black"/>
<path d="M21.7305 24.0937H21.0444V24.7798H21.7305V24.0937Z" fill="black"/>
<path d="M24.4572 24.0937H22.408V24.7798H24.4572V24.0937Z" fill="black"/>
<path d="M27.1836 24.0937H26.4976V24.7798H27.1836V24.0937Z" fill="black"/>
<path d="M32.6366 24.0937H29.2241V24.7798H32.6366V24.0937Z" fill="black"/>
<path d="M6.04928 24.7713H4V25.4574H6.04928V24.7713Z" fill="black"/>
<path d="M17.6411 24.7713H15.5918V25.4574H17.6411V24.7713Z" fill="black"/>
<path d="M19.6813 24.7713H18.3181V25.4574H19.6813V24.7713Z" fill="black"/>
<path d="M21.0535 24.7713H20.3674V25.4574H21.0535V24.7713Z" fill="black"/>
<path d="M23.0939 24.7713H21.7307V25.4574H23.0939V24.7713Z" fill="black"/>
<path d="M26.5064 24.7713H25.8203V25.4574H26.5064V24.7713Z" fill="black"/>
<path d="M28.5467 24.7713H27.8606V25.4574H28.5467V24.7713Z" fill="black"/>
<path d="M31.9506 24.7713H29.2241V25.4574H31.9506V24.7713Z" fill="black"/>
<path d="M8.08964 25.4574H4V26.1435H8.08964V25.4574Z" fill="black"/>
<path d="M23.094 25.4574H16.9551V26.1435H23.094V25.4574Z" fill="black"/>
<path d="M24.4571 25.4574H23.771V26.1435H24.4571V25.4574Z" fill="black"/>
<path d="M31.2731 25.4574H28.5466V26.1435H31.2731V25.4574Z" fill="black"/>
<path d="M8.77568 26.134H4.68604V26.8201H8.77568V26.134Z" fill="black"/>
<path d="M19.0042 26.134H18.3181V26.8201H19.0042V26.134Z" fill="black"/>
<path d="M22.4078 26.134H19.6814V26.8201H22.4078V26.134Z" fill="black"/>
<path d="M25.8203 26.134H25.1343V26.8201H25.8203V26.134Z" fill="black"/>
<path d="M30.5961 26.134H27.1836V26.8201H30.5961V26.134Z" fill="black"/>
<path d="M10.139 26.8211H5.36328V27.5072H10.139V26.8211Z" fill="black"/>
<path d="M21.7307 26.8211H19.6814V27.5072H21.7307V26.8211Z" fill="black"/>
<path d="M24.4571 26.8211H23.771V27.5072H24.4571V26.8211Z" fill="black"/>
<path d="M29.91 26.8211H26.4976V27.5072H29.91V26.8211Z" fill="black"/>
<path d="M11.5023 27.4977H6.72656V28.1838H11.5023V27.4977Z" fill="black"/>
<path d="M21.7305 27.4977H21.0444V28.1838H21.7305V27.4977Z" fill="black"/>
<path d="M23.7801 27.4977H23.094V28.1838H23.7801V27.4977Z" fill="black"/>
<path d="M29.224 27.4977H26.4976V28.1838H29.224V27.4977Z" fill="black"/>
<path d="M12.8652 28.1829H7.41235V28.869H12.8652V28.1829Z" fill="black"/>
<path d="M22.4078 28.1829H19.6814V28.869H22.4078V28.1829Z" fill="black"/>
<path d="M28.5468 28.1829H25.1343V28.869H28.5468V28.1829Z" fill="black"/>
<path d="M13.5513 28.8605H8.77563V29.5466H13.5513V28.8605Z" fill="black"/>
<path d="M15.5917 28.8605H14.2285V29.5466H15.5917V28.8605Z" fill="black"/>
<path d="M21.7305 28.8605H21.0444V29.5466H21.7305V28.8605Z" fill="black"/>
<path d="M28.5467 28.8605H24.457V29.5466H28.5467V28.8605Z" fill="black"/>
<path d="M15.5919 29.5466H10.8162V30.2327H15.5919V29.5466Z" fill="black"/>
<path d="M16.9551 29.5466H16.269V30.2327H16.9551V29.5466Z" fill="black"/>
<path d="M21.7307 29.5466H19.6814V30.2327H21.7307V29.5466Z" fill="black"/>
<path d="M23.7801 29.5466H23.094V30.2327H23.7801V29.5466Z" fill="black"/>
<path d="M27.1835 29.5466H24.457V30.2327H27.1835V29.5466Z" fill="black"/>
<path d="M16.9551 30.2242H12.8655V30.9103H16.9551V30.2242Z" fill="black"/>
<path d="M21.7305 30.2242H21.0444V30.9103H21.7305V30.2242Z" fill="black"/>
<path d="M23.094 30.2242H22.408V30.9103H23.094V30.2242Z" fill="black"/>
<path d="M26.4974 30.2242H23.771V30.9103H26.4974V30.2242Z" fill="black"/>
<path d="M19.0042 30.9103H14.2285V31.5964H19.0042V30.9103Z" fill="black"/>
<path d="M21.7307 30.9103H19.6814V31.5964H21.7307V30.9103Z" fill="black"/>
<path d="M25.8204 30.9103H22.408V31.5964H25.8204V30.9103Z" fill="black"/>
<path d="M18.9954 31.5879H14.9058V32.274H18.9954V31.5879Z" fill="black"/>
<path d="M25.1343 31.5879H19.6814V32.274H25.1343V31.5879Z" fill="black"/>
<path d="M24.4572 32.2731H16.9551V32.9592H24.4572V32.2731Z" fill="black"/>
<path d="M23.771 32.9516H18.3181V33.6377H23.771V32.9516Z" fill="black"/>
<path d="M23.085 33.6358H18.9954V34.3219H23.085V33.6358Z" fill="black"/>
<path d="M22.4076 34.3143H21.0444V35.0004H22.4076V34.3143Z" fill="black"/>
<path d="M21.7306 7.04889H20.3674V7.73496H21.7306V7.04889Z" fill="white"/>
<path d="M20.3675 7.72549H19.6814V8.41156H20.3675V7.72549Z" fill="white"/>
<path d="M23.094 7.72549H22.408V8.41156H23.094V7.72549Z" fill="white"/>
<path d="M18.3181 8.4126H17.6321V9.09867H18.3181V8.4126Z" fill="white"/>
<path d="M19.6814 8.4126H18.9954V9.09867H19.6814V8.4126Z" fill="white"/>
<path d="M22.4167 8.4126H20.3674V9.09867H22.4167V8.4126Z" fill="white"/>
<path d="M23.7801 8.4126H23.094V9.09867H23.7801V8.4126Z" fill="white"/>
<path d="M25.1431 8.4126H24.457V9.09867H25.1431V8.4126Z" fill="white"/>
<path d="M18.3181 9.09015H17.6321V9.77622H18.3181V9.09015Z" fill="white"/>
<path d="M19.6814 9.09015H18.9954V9.77622H19.6814V9.09015Z" fill="white"/>
<path d="M23.094 9.09015H22.408V9.77622H23.094V9.09015Z" fill="white"/>
<path d="M24.4571 9.09015H23.771V9.77622H24.4571V9.09015Z" fill="white"/>
<path d="M25.8203 9.09015H25.1343V9.77622H25.8203V9.09015Z" fill="white"/>
<path d="M17.6411 9.77629H16.9551V10.4624H17.6411V9.77629Z" fill="white"/>
<path d="M19.0042 9.77629H18.3181V10.4624H19.0042V9.77629Z" fill="white"/>
<path d="M21.0446 9.77629H19.6814V10.4624H21.0446V9.77629Z" fill="white"/>
<path d="M22.4168 9.77629H21.7307V10.4624H22.4168V9.77629Z" fill="white"/>
<path d="M23.7801 9.77629H23.094V10.4624H23.7801V9.77629Z" fill="white"/>
<path d="M25.1431 9.77629H24.457V10.4624H25.1431V9.77629Z" fill="white"/>
<path d="M16.9551 10.4529H16.269V11.139H16.9551V10.4529Z" fill="white"/>
<path d="M18.3181 10.4529H17.6321V11.139H18.3181V10.4529Z" fill="white"/>
<path d="M22.4168 10.4529H21.7307V11.139H22.4168V10.4529Z" fill="white"/>
<path d="M23.7801 10.4529H23.094V11.139H23.7801V10.4529Z" fill="white"/>
<path d="M27.8696 10.4529H25.8203V11.139H27.8696V10.4529Z" fill="white"/>
<path d="M29.2327 10.4529H28.5466V11.139H29.2327V10.4529Z" fill="white"/>
<path d="M16.2779 11.139H15.5918V11.8251H16.2779V11.139Z" fill="white"/>
<path d="M17.6411 11.139H16.9551V11.8251H17.6411V11.139Z" fill="white"/>
<path d="M19.6813 11.139H18.3181V11.8251H19.6813V11.139Z" fill="white"/>
<path d="M23.0939 11.139H20.3674V11.8251H23.0939V11.139Z" fill="white"/>
<path d="M25.8202 11.139H24.457V11.8251H25.8202V11.139Z" fill="white"/>
<path d="M28.5467 11.139H27.8606V11.8251H28.5467V11.139Z" fill="white"/>
<path d="M29.9102 11.139H29.2241V11.8251H29.9102V11.139Z" fill="white"/>
<path d="M31.2732 11.139H30.5872V11.8251H31.2732V11.139Z" fill="white"/>
<path d="M15.5918 11.8176H14.9058V12.5036H15.5918V11.8176Z" fill="white"/>
<path d="M16.9551 11.8176H16.269V12.5036H16.9551V11.8176Z" fill="white"/>
<path d="M20.3586 11.8176H18.9954V12.5036H20.3586V11.8176Z" fill="white"/>
<path d="M21.7305 11.8176H21.0444V12.5036H21.7305V11.8176Z" fill="white"/>
<path d="M26.5064 11.8176H25.8203V12.5036H26.5064V11.8176Z" fill="white"/>
<path d="M27.8697 11.8176H27.1836V12.5036H27.8697V11.8176Z" fill="white"/>
<path d="M29.2327 11.8176H28.5466V12.5036H29.2327V11.8176Z" fill="white"/>
<path d="M30.596 11.8176H29.9099V12.5036H30.596V11.8176Z" fill="white"/>
<path d="M14.9146 12.5018H14.2285V13.1879H14.9146V12.5018Z" fill="white"/>
<path d="M16.2779 12.5018H15.5918V13.1879H16.2779V12.5018Z" fill="white"/>
<path d="M19.6814 12.5018H18.9954V13.1879H19.6814V12.5018Z" fill="white"/>
<path d="M22.4168 12.5018H21.7307V13.1879H22.4168V12.5018Z" fill="white"/>
<path d="M24.4572 12.5018H23.094V13.1879H24.4572V12.5018Z" fill="white"/>
<path d="M25.8203 12.5018H25.1343V13.1879H25.8203V12.5018Z" fill="white"/>
<path d="M27.1836 12.5018H26.4976V13.1879H27.1836V12.5018Z" fill="white"/>
<path d="M29.9102 12.5018H29.2241V13.1879H29.9102V12.5018Z" fill="white"/>
<path d="M31.9593 12.5018H31.2732V13.1879H31.9593V12.5018Z" fill="white"/>
<path d="M33.3225 12.5018H32.6365V13.1879H33.3225V12.5018Z" fill="white"/>
<path d="M14.9146 13.1784H14.2285V13.8645H14.9146V13.1784Z" fill="white"/>
<path d="M16.9551 13.1784H16.269V13.8645H16.9551V13.1784Z" fill="white"/>
<path d="M19.6814 13.1784H18.9954V13.8645H19.6814V13.1784Z" fill="white"/>
<path d="M23.0937 13.1784H21.0444V13.8645H23.0937V13.1784Z" fill="white"/>
<path d="M27.1835 13.1784H25.8203V13.8645H27.1835V13.1784Z" fill="white"/>
<path d="M29.2238 13.1784H27.8606V13.8645H29.2238V13.1784Z" fill="white"/>
<path d="M31.2732 13.1784H30.5872V13.8645H31.2732V13.1784Z" fill="white"/>
<path d="M32.6363 13.1784H31.9502V13.8645H32.6363V13.1784Z" fill="white"/>
<path d="M13.5515 13.8665H12.8655V14.5525H13.5515V13.8665Z" fill="white"/>
<path d="M15.5918 13.8665H14.9058V14.5525H15.5918V13.8665Z" fill="white"/>
<path d="M18.3183 13.8665H16.9551V14.5525H18.3183V13.8665Z" fill="white"/>
<path d="M21.0535 13.8665H20.3674V14.5525H21.0535V13.8665Z" fill="white"/>
<path d="M22.4168 13.8665H21.7307V14.5525H22.4168V13.8665Z" fill="white"/>
<path d="M24.4572 13.8665H23.094V14.5525H24.4572V13.8665Z" fill="white"/>
<path d="M25.8203 13.8665H25.1343V14.5525H25.8203V13.8665Z" fill="white"/>
<path d="M28.5467 13.8665H27.8606V14.5525H28.5467V13.8665Z" fill="white"/>
<path d="M30.5873 13.8665H29.2241V14.5525H30.5873V13.8665Z" fill="white"/>
<path d="M31.9593 13.8665H31.2732V14.5525H31.9593V13.8665Z" fill="white"/>
<path d="M33.3225 13.8665H32.6365V14.5525H33.3225V13.8665Z" fill="white"/>
<path d="M14.2287 14.543H12.8655V15.2291H14.2287V14.543Z" fill="white"/>
<path d="M16.269 14.543H14.9058V15.2291H16.269V14.543Z" fill="white"/>
<path d="M19.6814 14.543H18.9954V15.2291H19.6814V14.543Z" fill="white"/>
<path d="M21.0535 14.543H20.3674V15.2291H21.0535V14.543Z" fill="white"/>
<path d="M24.4571 14.543H23.771V15.2291H24.4571V14.543Z" fill="white"/>
<path d="M26.4975 14.543H25.1343V15.2291H26.4975V14.543Z" fill="white"/>
<path d="M27.8697 14.543H27.1836V15.2291H27.8697V14.543Z" fill="white"/>
<path d="M12.8653 15.2282H12.1792V15.9143H12.8653V15.2282Z" fill="white"/>
<path d="M14.9146 15.2282H14.2285V15.9143H14.9146V15.2282Z" fill="white"/>
<path d="M16.9551 15.2282H16.269V15.9143H16.9551V15.2282Z" fill="white"/>
<path d="M18.3181 15.2282H17.6321V15.9143H18.3181V15.2282Z" fill="white"/>
<path d="M22.4076 15.2282H21.0444V15.9143H22.4076V15.2282Z" fill="white"/>
<path d="M29.2238 15.2282H27.8606V15.9143H29.2238V15.2282Z" fill="white"/>
<path d="M12.1883 15.9058H11.5022V16.5919H12.1883V15.9058Z" fill="white"/>
<path d="M14.2285 15.9058H13.5425V16.5919H14.2285V15.9058Z" fill="white"/>
<path d="M16.2779 15.9058H15.5918V16.5919H16.2779V15.9058Z" fill="white"/>
<path d="M17.6411 15.9058H16.9551V16.5919H17.6411V15.9058Z" fill="white"/>
<path d="M19.6814 15.9058H18.9954V16.5919H19.6814V15.9058Z" fill="white"/>
<path d="M21.0535 15.9058H20.3674V16.5919H21.0535V15.9058Z" fill="white"/>
<path d="M24.4572 15.9058H23.094V16.5919H24.4572V15.9058Z" fill="white"/>
<path d="M26.4975 15.9058H25.1343V16.5919H26.4975V15.9058Z" fill="white"/>
<path d="M27.8697 15.9058H27.1836V16.5919H27.8697V15.9058Z" fill="white"/>
<path d="M29.9102 15.9058H29.2241V16.5919H29.9102V15.9058Z" fill="white"/>
<path d="M33.3225 15.9058H32.6365V16.5919H33.3225V15.9058Z" fill="white"/>
<path d="M10.825 16.5919H10.1389V17.278H10.825V16.5919Z" fill="white"/>
<path d="M13.5424 16.5919H12.1792V17.278H13.5424V16.5919Z" fill="white"/>
<path d="M14.9146 16.5919H14.2285V17.278H14.9146V16.5919Z" fill="white"/>
<path d="M16.2779 16.5919H15.5918V17.278H16.2779V16.5919Z" fill="white"/>
<path d="M18.3181 16.5919H17.6321V17.278H18.3181V16.5919Z" fill="white"/>
<path d="M20.3586 16.5919H18.9954V17.278H20.3586V16.5919Z" fill="white"/>
<path d="M21.7305 16.5919H21.0444V17.278H21.7305V16.5919Z" fill="white"/>
<path d="M23.7712 16.5919H22.408V17.278H23.7712V16.5919Z" fill="white"/>
<path d="M25.8203 16.5919H25.1343V17.278H25.8203V16.5919Z" fill="white"/>
<path d="M27.1836 16.5919H26.4976V17.278H27.1836V16.5919Z" fill="white"/>
<path d="M28.5467 16.5919H27.8606V17.278H28.5467V16.5919Z" fill="white"/>
<path d="M29.9102 16.5919H29.2241V17.278H29.9102V16.5919Z" fill="white"/>
<path d="M32.6364 16.5919H31.2732V17.278H32.6364V16.5919Z" fill="white"/>
<path d="M11.5022 17.2685H10.8162V17.9546H11.5022V17.2685Z" fill="white"/>
<path d="M14.2285 17.2685H13.5425V17.9546H14.2285V17.2685Z" fill="white"/>
<path d="M15.5918 17.2685H14.9058V17.9546H15.5918V17.2685Z" fill="white"/>
<path d="M16.9551 17.2685H16.269V17.9546H16.9551V17.2685Z" fill="white"/>
<path d="M19.0042 17.2685H18.3181V17.9546H19.0042V17.2685Z" fill="white"/>
<path d="M23.7801 17.2685H23.094V17.9546H23.7801V17.2685Z" fill="white"/>
<path d="M26.5064 17.2685H25.8203V17.9546H26.5064V17.2685Z" fill="white"/>
<path d="M27.8697 17.2685H27.1836V17.9546H27.8697V17.2685Z" fill="white"/>
<path d="M33.3225 17.2685H31.2732V17.9546H33.3225V17.2685Z" fill="white"/>
<path d="M10.825 17.9547H10.1389V18.6408H10.825V17.9547Z" fill="white"/>
<path d="M12.1883 17.9547H11.5022V18.6408H12.1883V17.9547Z" fill="white"/>
<path d="M13.5515 17.9547H12.8655V18.6408H13.5515V17.9547Z" fill="white"/>
<path d="M14.9146 17.9547H14.2285V18.6408H14.9146V17.9547Z" fill="white"/>
<path d="M16.2779 17.9547H15.5918V18.6408H16.2779V17.9547Z" fill="white"/>
<path d="M18.3181 17.9547H17.6321V18.6408H18.3181V17.9547Z" fill="white"/>
<path d="M20.3586 17.9547H18.9954V18.6408H20.3586V17.9547Z" fill="white"/>
<path d="M21.7305 17.9547H21.0444V18.6408H21.7305V17.9547Z" fill="white"/>
<path d="M25.8202 17.9547H24.457V18.6408H25.8202V17.9547Z" fill="white"/>
<path d="M28.5467 17.9547H27.8606V18.6408H28.5467V17.9547Z" fill="white"/>
<path d="M31.9504 17.9547H30.5872V18.6408H31.9504V17.9547Z" fill="white"/>
<path d="M33.3225 17.9547H32.6365V18.6408H33.3225V17.9547Z" fill="white"/>
<path d="M10.8161 18.6322H9.45288V19.3183H10.8161V18.6322Z" fill="white"/>
<path d="M13.5515 18.6322H12.8655V19.3183H13.5515V18.6322Z" fill="white"/>
<path d="M21.0535 18.6322H20.3674V19.3183H21.0535V18.6322Z" fill="white"/>
<path d="M23.094 18.6322H22.408V19.3183H23.094V18.6322Z" fill="white"/>
<path d="M24.4571 18.6322H23.771V19.3183H24.4571V18.6322Z" fill="white"/>
<path d="M33.3138 18.6322H29.2241V19.3183H33.3138V18.6322Z" fill="white"/>
<path d="M9.4617 19.3194H8.77563V20.0054H9.4617V19.3194Z" fill="white"/>
<path d="M11.5022 19.3194H10.8162V20.0054H11.5022V19.3194Z" fill="white"/>
<path d="M12.8653 19.3194H12.1792V20.0054H12.8653V19.3194Z" fill="white"/>
<path d="M14.2285 19.3194H13.5425V20.0054H14.2285V19.3194Z" fill="white"/>
<path d="M16.2779 19.3194H15.5918V20.0054H16.2779V19.3194Z" fill="white"/>
<path d="M17.6411 19.3194H16.9551V20.0054H17.6411V19.3194Z" fill="white"/>
<path d="M20.3675 19.3194H19.6814V20.0054H20.3675V19.3194Z" fill="white"/>
<path d="M22.4168 19.3194H21.7307V20.0054H22.4168V19.3194Z" fill="white"/>
<path d="M23.7801 19.3194H23.094V20.0054H23.7801V19.3194Z" fill="white"/>
<path d="M25.1431 19.3194H24.457V20.0054H25.1431V19.3194Z" fill="white"/>
<path d="M26.5064 19.3194H25.8203V20.0054H26.5064V19.3194Z" fill="white"/>
<path d="M29.9102 19.3194H29.2241V20.0054H29.9102V19.3194Z" fill="white"/>
<path d="M31.2732 19.3194H30.5872V20.0054H31.2732V19.3194Z" fill="white"/>
<path d="M32.6363 19.3194H31.9502V20.0054H32.6363V19.3194Z" fill="white"/>
<path d="M9.4617 19.9959H8.77563V20.682H9.4617V19.9959Z" fill="white"/>
<path d="M10.825 19.9959H10.1389V20.682H10.825V19.9959Z" fill="white"/>
<path d="M13.5515 19.9959H12.8655V20.682H13.5515V19.9959Z" fill="white"/>
<path d="M14.9146 19.9959H14.2285V20.682H14.9146V19.9959Z" fill="white"/>
<path d="M21.0535 19.9959H20.3674V20.682H21.0535V19.9959Z" fill="white"/>
<path d="M23.094 19.9959H22.408V20.682H23.094V19.9959Z" fill="white"/>
<path d="M25.8203 19.9959H25.1343V20.682H25.8203V19.9959Z" fill="white"/>
<path d="M33.3223 19.9959H28.5466V20.682H33.3223V19.9959Z" fill="white"/>
<path d="M8.09842 20.6811H7.41235V21.3672H8.09842V20.6811Z" fill="white"/>
<path d="M12.8654 20.6811H11.5022V21.3672H12.8654V20.6811Z" fill="white"/>
<path d="M14.9146 20.6811H14.2285V21.3672H14.9146V20.6811Z" fill="white"/>
<path d="M16.2779 20.6811H15.5918V21.3672H16.2779V20.6811Z" fill="white"/>
<path d="M19.0042 20.6811H18.3181V21.3672H19.0042V20.6811Z" fill="white"/>
<path d="M20.3675 20.6811H19.6814V21.3672H20.3675V20.6811Z" fill="white"/>
<path d="M22.4076 20.6811H21.0444V21.3672H22.4076V20.6811Z" fill="white"/>
<path d="M25.1431 20.6811H24.457V21.3672H25.1431V20.6811Z" fill="white"/>
<path d="M29.2238 20.6811H27.8606V21.3672H29.2238V20.6811Z" fill="white"/>
<path d="M31.9592 20.6811H29.9099V21.3672H31.9592V20.6811Z" fill="white"/>
<path d="M33.3225 20.6811H32.6365V21.3672H33.3225V20.6811Z" fill="white"/>
<path d="M8.77599 21.3682H6.04956V22.0543H8.77599V21.3682Z" fill="white"/>
<path d="M10.1389 21.3682H9.45288V22.0543H10.1389V21.3682Z" fill="white"/>
<path d="M14.2285 21.3682H13.5425V22.0543H14.2285V21.3682Z" fill="white"/>
<path d="M15.5918 21.3682H14.9058V22.0543H15.5918V21.3682Z" fill="white"/>
<path d="M19.6814 21.3682H18.9954V22.0543H19.6814V21.3682Z" fill="white"/>
<path d="M21.0535 21.3682H20.3674V22.0543H21.0535V21.3682Z" fill="white"/>
<path d="M24.4572 21.3682H23.094V22.0543H24.4572V21.3682Z" fill="white"/>
<path d="M30.5961 21.3682H27.1836V22.0543H30.5961V21.3682Z" fill="white"/>
<path d="M32.6364 21.3682H31.2732V22.0543H32.6364V21.3682Z" fill="white"/>
<path d="M8.09884 22.0448H6.04956V22.7309H8.09884V22.0448Z" fill="white"/>
<path d="M9.4617 22.0448H8.77563V22.7309H9.4617V22.0448Z" fill="white"/>
<path d="M12.8653 22.0448H12.1792V22.7309H12.8653V22.0448Z" fill="white"/>
<path d="M14.9146 22.0448H14.2285V22.7309H14.9146V22.0448Z" fill="white"/>
<path d="M16.9551 22.0448H16.269V22.7309H16.9551V22.0448Z" fill="white"/>
<path d="M21.7305 22.0448H21.0444V22.7309H21.7305V22.0448Z" fill="white"/>
<path d="M23.094 22.0448H22.408V22.7309H23.094V22.0448Z" fill="white"/>
<path d="M28.5468 22.0448H26.4976V22.7309H28.5468V22.0448Z" fill="white"/>
<path d="M31.2734 22.0448H29.2241V22.7309H31.2734V22.0448Z" fill="white"/>
<path d="M11.5023 22.731H6.72656V23.4171H11.5023V22.731Z" fill="white"/>
<path d="M15.5918 22.731H14.9058V23.4171H15.5918V22.731Z" fill="white"/>
<path d="M17.6411 22.731H16.9551V23.4171H17.6411V22.731Z" fill="white"/>
<path d="M19.0042 22.731H18.3181V23.4171H19.0042V22.731Z" fill="white"/>
<path d="M21.0535 22.731H20.3674V23.4171H21.0535V22.731Z" fill="white"/>
<path d="M22.4168 22.731H21.7307V23.4171H22.4168V22.731Z" fill="white"/>
<path d="M23.7801 22.731H23.094V23.4171H23.7801V22.731Z" fill="white"/>
<path d="M27.1835 22.731H25.8203V23.4171H27.1835V22.731Z" fill="white"/>
<path d="M29.9099 22.731H27.8606V23.4171H29.9099V22.731Z" fill="white"/>
<path d="M31.2732 22.731H30.5872V23.4171H31.2732V22.731Z" fill="white"/>
<path d="M12.1885 23.4085H6.04956V24.0946H12.1885V23.4085Z" fill="white"/>
<path d="M14.2287 23.4085H12.8655V24.0946H14.2287V23.4085Z" fill="white"/>
<path d="M16.9551 23.4085H16.269V24.0946H16.9551V23.4085Z" fill="white"/>
<path d="M18.3181 23.4085H17.6321V24.0946H18.3181V23.4085Z" fill="white"/>
<path d="M19.6814 23.4085H18.9954V24.0946H19.6814V23.4085Z" fill="white"/>
<path d="M21.7305 23.4085H21.0444V24.0946H21.7305V23.4085Z" fill="white"/>
<path d="M23.094 23.4085H22.408V24.0946H23.094V23.4085Z" fill="white"/>
<path d="M28.5468 23.4085H25.1343V24.0946H28.5468V23.4085Z" fill="white"/>
<path d="M30.5873 23.4085H29.2241V24.0946H30.5873V23.4085Z" fill="white"/>
<path d="M13.5426 24.0937H6.72656V24.7798H13.5426V24.0937Z" fill="white"/>
<path d="M19.6814 24.0937H18.9954V24.7798H19.6814V24.0937Z" fill="white"/>
<path d="M21.0535 24.0937H20.3674V24.7798H21.0535V24.0937Z" fill="white"/>
<path d="M22.4168 24.0937H21.7307V24.7798H22.4168V24.0937Z" fill="white"/>
<path d="M26.5063 24.0937H24.457V24.7798H26.5063V24.0937Z" fill="white"/>
<path d="M29.2329 24.0937H27.1836V24.7798H29.2329V24.0937Z" fill="white"/>
<path d="M15.5921 24.7713H6.04956V25.4574H15.5921V24.7713Z" fill="white"/>
<path d="M18.3181 24.7713H17.6321V25.4574H18.3181V24.7713Z" fill="white"/>
<path d="M20.3675 24.7713H19.6814V25.4574H20.3675V24.7713Z" fill="white"/>
<path d="M21.7305 24.7713H21.0444V25.4574H21.7305V24.7713Z" fill="white"/>
<path d="M25.8204 24.7713H23.094V25.4574H25.8204V24.7713Z" fill="white"/>
<path d="M27.8608 24.7713H26.4976V25.4574H27.8608V24.7713Z" fill="white"/>
<path d="M29.2327 24.7713H28.5466V25.4574H29.2327V24.7713Z" fill="white"/>
<path d="M16.9549 25.4574H8.0896V26.1435H16.9549V25.4574Z" fill="white"/>
<path d="M23.7801 25.4574H23.094V26.1435H23.7801V25.4574Z" fill="white"/>
<path d="M28.5467 25.4574H24.457V26.1435H28.5467V25.4574Z" fill="white"/>
<path d="M18.3181 26.134H8.77563V26.8201H18.3181V26.134Z" fill="white"/>
<path d="M19.6814 26.134H18.9954V26.8201H19.6814V26.134Z" fill="white"/>
<path d="M25.1344 26.134H22.408V26.8201H25.1344V26.134Z" fill="white"/>
<path d="M27.1835 26.134H25.8203V26.8201H27.1835V26.134Z" fill="white"/>
<path d="M19.6814 26.8211H10.1389V27.5072H19.6814V26.8211Z" fill="white"/>
<path d="M23.78 26.8211H21.7307V27.5072H23.78V26.8211Z" fill="white"/>
<path d="M26.5063 26.8211H24.457V27.5072H26.5063V26.8211Z" fill="white"/>
<path d="M21.0447 27.4977H11.5022V28.1838H21.0447V27.4977Z" fill="white"/>
<path d="M23.0939 27.4977H21.7307V28.1838H23.0939V27.4977Z" fill="white"/>
<path d="M26.4974 27.4977H23.771V28.1838H26.4974V27.4977Z" fill="white"/>
<path d="M19.6816 28.1829H12.8655V28.869H19.6816V28.1829Z" fill="white"/>
<path d="M25.1344 28.1829H22.408V28.869H25.1344V28.1829Z" fill="white"/>
<path d="M14.2285 28.8605H13.5425V29.5466H14.2285V28.8605Z" fill="white"/>
<path d="M21.0447 28.8605H15.5918V29.5466H21.0447V28.8605Z" fill="white"/>
<path d="M24.4571 28.8605H21.7307V29.5466H24.4571V28.8605Z" fill="white"/>
<path d="M16.2779 29.5466H15.5918V30.2327H16.2779V29.5466Z" fill="white"/>
<path d="M19.6815 29.5466H16.9551V30.2327H19.6815V29.5466Z" fill="white"/>
<path d="M23.0939 29.5466H21.7307V30.2327H23.0939V29.5466Z" fill="white"/>
<path d="M24.4571 29.5466H23.771V30.2327H24.4571V29.5466Z" fill="white"/>
<path d="M21.0447 30.2242H16.9551V30.9103H21.0447V30.2242Z" fill="white"/>
<path d="M22.4168 30.2242H21.7307V30.9103H22.4168V30.2242Z" fill="white"/>
<path d="M23.7801 30.2242H23.094V30.9103H23.7801V30.2242Z" fill="white"/>
<path d="M19.6814 30.9103H18.9954V31.5964H19.6814V30.9103Z" fill="white"/>
<path d="M22.4168 30.9103H21.7307V31.5964H22.4168V30.9103Z" fill="white"/>
<path d="M19.6814 31.5879H18.9954V32.274H19.6814V31.5879Z" fill="white"/>
</svg>
