<svg width="40" height="40" viewBox="0 0 40 40" fill="none" xmlns="http://www.w3.org/2000/svg">
<path d="M22.5647 6H7.68921V6.74187H22.5647V6Z" fill="black"/>
<path d="M8.43101 6.74187H6.94727V7.48374H8.43101V6.74187Z" fill="black"/>
<path d="M24.0579 6.74187H21.8228V7.48374H24.0579V6.74187Z" fill="black"/>
<path d="M8.43101 7.48375H6.94727V8.22562H8.43101V7.48375Z" fill="black"/>
<path d="M22.5646 7.48375H21.8228V8.22562H22.5646V7.48375Z" fill="black"/>
<path d="M24.7901 7.48375H23.3064V8.22562H24.7901V7.48375Z" fill="black"/>
<path d="M8.43101 8.23514H6.94727V8.97701H8.43101V8.23514Z" fill="black"/>
<path d="M23.3065 8.23514H21.8228V8.97701H23.3065V8.23514Z" fill="black"/>
<path d="M25.5321 8.23514H24.0483V8.97701H25.5321V8.23514Z" fill="black"/>
<path d="M8.43101 8.97701H6.94727V9.71888H8.43101V8.97701Z" fill="black"/>
<path d="M22.5646 8.97701H21.8228V9.71888H22.5646V8.97701Z" fill="black"/>
<path d="M26.274 8.97701H24.7903V9.71888H26.274V8.97701Z" fill="black"/>
<path d="M8.43101 9.71887H6.94727V10.4607H8.43101V9.71887Z" fill="black"/>
<path d="M22.5646 9.71887H21.8228V10.4607H22.5646V9.71887Z" fill="black"/>
<path d="M27.016 9.71887H25.5322V10.4607H27.016V9.71887Z" fill="black"/>
<path d="M8.43101 10.4608H6.94727V11.2026H8.43101V10.4608Z" fill="black"/>
<path d="M22.5646 10.4608H21.8228V11.2026H22.5646V10.4608Z" fill="black"/>
<path d="M24.0483 10.4608H23.3064V11.2026H24.0483V10.4608Z" fill="black"/>
<path d="M27.7673 10.4608H24.7903V11.2026H27.7673V10.4608Z" fill="black"/>
<path d="M8.43101 11.2026H6.94727V11.9445H8.43101V11.2026Z" fill="black"/>
<path d="M28.5186 11.2026H21.8228V11.9445H28.5186V11.2026Z" fill="black"/>
<path d="M8.43101 11.9445H6.94727V12.6864H8.43101V11.9445Z" fill="black"/>
<path d="M28.5091 11.9445H27.0254V12.6864H28.5091V11.9445Z" fill="black"/>
<path d="M8.43101 12.6959H6.94727V13.4378H8.43101V12.6959Z" fill="black"/>
<path d="M28.5091 12.6959H27.0254V13.4378H28.5091V12.6959Z" fill="black"/>
<path d="M8.43101 13.4378H6.94727V14.1796H8.43101V13.4378Z" fill="black"/>
<path d="M28.5091 13.4378H27.0254V14.1796H28.5091V13.4378Z" fill="black"/>
<path d="M8.43101 14.1796H6.94727V14.9215H8.43101V14.1796Z" fill="black"/>
<path d="M11.4081 14.1796H10.6663V14.9215H11.4081V14.1796Z" fill="black"/>
<path d="M18.0944 14.1796H17.3525V14.9215H18.0944V14.1796Z" fill="black"/>
<path d="M21.0715 14.1796H20.3296V14.9215H21.0715V14.1796Z" fill="black"/>
<path d="M24.0483 14.1796H23.3064V14.9215H24.0483V14.1796Z" fill="black"/>
<path d="M28.5091 14.1796H27.0254V14.9215H28.5091V14.1796Z" fill="black"/>
<path d="M8.43101 14.9215H6.94727V15.6634H8.43101V14.9215Z" fill="black"/>
<path d="M14.3849 14.9215H13.6431V15.6634H14.3849V14.9215Z" fill="black"/>
<path d="M23.3066 14.9215H22.5647V15.6634H23.3066V14.9215Z" fill="black"/>
<path d="M28.5091 14.9215H27.0254V15.6634H28.5091V14.9215Z" fill="black"/>
<path d="M8.43101 15.6634H6.94727V16.4052H8.43101V15.6634Z" fill="black"/>
<path d="M15.8688 15.6634H15.127V16.4052H15.8688V15.6634Z" fill="black"/>
<path d="M21.0715 15.6634H20.3296V16.4052H21.0715V15.6634Z" fill="black"/>
<path d="M28.5091 15.6634H27.0254V16.4052H28.5091V15.6634Z" fill="black"/>
<path d="M8.43101 16.4052H6.94727V17.1471H8.43101V16.4052Z" fill="black"/>
<path d="M12.1498 16.4052H11.408V17.1471H12.1498V16.4052Z" fill="black"/>
<path d="M16.6105 16.4052H15.8687V17.1471H16.6105V16.4052Z" fill="black"/>
<path d="M18.0944 16.4052H17.3525V17.1471H18.0944V16.4052Z" fill="black"/>
<path d="M23.3066 16.4052H22.5647V17.1471H23.3066V16.4052Z" fill="black"/>
<path d="M28.5091 16.4052H27.0254V17.1471H28.5091V16.4052Z" fill="black"/>
<path d="M8.43101 17.1566H6.94727V17.8985H8.43101V17.1566Z" fill="black"/>
<path d="M20.3295 17.1566H19.5876V17.8985H20.3295V17.1566Z" fill="black"/>
<path d="M24.0483 17.1566H23.3064V17.8985H24.0483V17.1566Z" fill="black"/>
<path d="M28.5091 17.1566H27.0254V17.8985H28.5091V17.1566Z" fill="black"/>
<path d="M8.43101 17.8985H6.94727V18.6404H8.43101V17.8985Z" fill="black"/>
<path d="M12.8918 17.8985H12.1499V18.6404H12.8918V17.8985Z" fill="black"/>
<path d="M15.1269 17.8985H14.385V18.6404H15.1269V17.8985Z" fill="black"/>
<path d="M22.5646 17.8985H21.8228V18.6404H22.5646V17.8985Z" fill="black"/>
<path d="M28.5091 17.8985H27.0254V18.6404H28.5091V17.8985Z" fill="black"/>
<path d="M8.43101 18.6404H6.94727V19.3823H8.43101V18.6404Z" fill="black"/>
<path d="M12.15 18.6404H10.6663V19.3823H12.15V18.6404Z" fill="black"/>
<path d="M13.6337 18.6404H12.8918V19.3823H13.6337V18.6404Z" fill="black"/>
<path d="M16.6105 18.6404H15.8687V19.3823H16.6105V18.6404Z" fill="black"/>
<path d="M19.5876 18.6404H18.8457V19.3823H19.5876V18.6404Z" fill="black"/>
<path d="M21.8132 18.6404H21.0713V19.3823H21.8132V18.6404Z" fill="black"/>
<path d="M23.3066 18.6404H22.5647V19.3823H23.3066V18.6404Z" fill="black"/>
<path d="M28.5091 18.6404H27.0254V19.3823H28.5091V18.6404Z" fill="black"/>
<path d="M8.43101 19.3822H6.94727V20.1241H8.43101V19.3822Z" fill="black"/>
<path d="M12.8918 19.3822H12.1499V20.1241H12.8918V19.3822Z" fill="black"/>
<path d="M19.5876 19.3822H18.8457V20.1241H19.5876V19.3822Z" fill="black"/>
<path d="M22.5646 19.3822H21.8228V20.1241H22.5646V19.3822Z" fill="black"/>
<path d="M24.7902 19.3822H24.0483V20.1241H24.7902V19.3822Z" fill="black"/>
<path d="M28.5091 19.3822H27.0254V20.1241H28.5091V19.3822Z" fill="black"/>
<path d="M8.43101 20.1241H6.94727V20.866H8.43101V20.1241Z" fill="black"/>
<path d="M12.8918 20.1241H12.1499V20.866H12.8918V20.1241Z" fill="black"/>
<path d="M14.3849 20.1241H13.6431V20.866H14.3849V20.1241Z" fill="black"/>
<path d="M17.3525 20.1241H16.6106V20.866H17.3525V20.1241Z" fill="black"/>
<path d="M18.8459 20.1241H18.104V20.866H18.8459V20.1241Z" fill="black"/>
<path d="M22.5646 20.1241H21.8228V20.866H22.5646V20.1241Z" fill="black"/>
<path d="M28.5091 20.1241H27.0254V20.866H28.5091V20.1241Z" fill="black"/>
<path d="M8.43101 20.8755H6.94727V21.6174H8.43101V20.8755Z" fill="black"/>
<path d="M11.4081 20.8755H10.6663V21.6174H11.4081V20.8755Z" fill="black"/>
<path d="M13.6337 20.8755H12.8918V21.6174H13.6337V20.8755Z" fill="black"/>
<path d="M15.1269 20.8755H14.385V21.6174H15.1269V20.8755Z" fill="black"/>
<path d="M18.0944 20.8755H17.3525V21.6174H18.0944V20.8755Z" fill="black"/>
<path d="M21.0715 20.8755H20.3296V21.6174H21.0715V20.8755Z" fill="black"/>
<path d="M23.3066 20.8755H22.5647V21.6174H23.3066V20.8755Z" fill="black"/>
<path d="M24.7902 20.8755H24.0483V21.6174H24.7902V20.8755Z" fill="black"/>
<path d="M28.5091 20.8755H27.0254V21.6174H28.5091V20.8755Z" fill="black"/>
<path d="M8.43101 21.6174H6.94727V22.3593H8.43101V21.6174Z" fill="black"/>
<path d="M11.4081 21.6174H10.6663V22.3593H11.4081V21.6174Z" fill="black"/>
<path d="M12.8918 21.6174H12.1499V22.3593H12.8918V21.6174Z" fill="black"/>
<path d="M17.3524 21.6174H15.8687V22.3593H17.3524V21.6174Z" fill="black"/>
<path d="M18.8459 21.6174H18.104V22.3593H18.8459V21.6174Z" fill="black"/>
<path d="M21.0715 21.6174H20.3296V22.3593H21.0715V21.6174Z" fill="black"/>
<path d="M22.5646 21.6174H21.8228V22.3593H22.5646V21.6174Z" fill="black"/>
<path d="M28.5091 21.6174H27.0254V22.3593H28.5091V21.6174Z" fill="black"/>
<path d="M8.43101 22.3593H6.94727V23.1011H8.43101V22.3593Z" fill="black"/>
<path d="M13.6337 22.3593H12.8918V23.1011H13.6337V22.3593Z" fill="black"/>
<path d="M20.3295 22.3593H19.5876V23.1011H20.3295V22.3593Z" fill="black"/>
<path d="M23.3066 22.3593H22.5647V23.1011H23.3066V22.3593Z" fill="black"/>
<path d="M28.5091 22.3593H27.0254V23.1011H28.5091V22.3593Z" fill="black"/>
<path d="M8.43101 23.1011H6.94727V23.843H8.43101V23.1011Z" fill="black"/>
<path d="M12.8917 23.1011H11.408V23.843H12.8917V23.1011Z" fill="black"/>
<path d="M15.1269 23.1011H14.385V23.843H15.1269V23.1011Z" fill="black"/>
<path d="M16.6105 23.1011H15.8687V23.843H16.6105V23.1011Z" fill="black"/>
<path d="M19.5876 23.1011H18.8457V23.843H19.5876V23.1011Z" fill="black"/>
<path d="M22.555 23.1011H21.0713V23.843H22.555V23.1011Z" fill="black"/>
<path d="M24.7902 23.1011H24.0483V23.843H24.7902V23.1011Z" fill="black"/>
<path d="M28.5091 23.1011H27.0254V23.843H28.5091V23.1011Z" fill="black"/>
<path d="M8.43101 23.843H6.94727V24.5849H8.43101V23.843Z" fill="black"/>
<path d="M11.4081 23.843H10.6663V24.5849H11.4081V23.843Z" fill="black"/>
<path d="M18.0944 23.843H17.3525V24.5849H18.0944V23.843Z" fill="black"/>
<path d="M21.0715 23.843H20.3296V24.5849H21.0715V23.843Z" fill="black"/>
<path d="M23.3066 23.843H22.5647V24.5849H23.3066V23.843Z" fill="black"/>
<path d="M28.5091 23.843H27.0254V24.5849H28.5091V23.843Z" fill="black"/>
<path d="M8.43101 24.5849H6.94727V25.3267H8.43101V24.5849Z" fill="black"/>
<path d="M16.6105 24.5849H15.8687V25.3267H16.6105V24.5849Z" fill="black"/>
<path d="M22.5646 24.5849H21.8228V25.3267H22.5646V24.5849Z" fill="black"/>
<path d="M28.5091 24.5849H27.0254V25.3267H28.5091V24.5849Z" fill="black"/>
<path d="M8.43101 25.3363H6.94727V26.0781H8.43101V25.3363Z" fill="black"/>
<path d="M11.4081 25.3363H10.6663V26.0781H11.4081V25.3363Z" fill="black"/>
<path d="M14.3849 25.3363H13.6431V26.0781H14.3849V25.3363Z" fill="black"/>
<path d="M18.8459 25.3363H18.104V26.0781H18.8459V25.3363Z" fill="black"/>
<path d="M21.0715 25.3363H20.3296V26.0781H21.0715V25.3363Z" fill="black"/>
<path d="M23.3066 25.3363H22.5647V26.0781H23.3066V25.3363Z" fill="black"/>
<path d="M24.7902 25.3363H24.0483V26.0781H24.7902V25.3363Z" fill="black"/>
<path d="M28.5091 25.3363H27.0254V26.0781H28.5091V25.3363Z" fill="black"/>
<path d="M8.43101 26.0781H6.94727V26.82H8.43101V26.0781Z" fill="black"/>
<path d="M12.1498 26.0781H11.408V26.82H12.1498V26.0781Z" fill="black"/>
<path d="M13.6337 26.0781H12.8918V26.82H13.6337V26.0781Z" fill="black"/>
<path d="M17.3525 26.0781H16.6106V26.82H17.3525V26.0781Z" fill="black"/>
<path d="M28.5091 26.0781H27.0254V26.82H28.5091V26.0781Z" fill="black"/>
<path d="M8.43101 26.82H6.94727V27.5619H8.43101V26.82Z" fill="black"/>
<path d="M14.3849 26.82H13.6431V27.5619H14.3849V26.82Z" fill="black"/>
<path d="M15.8688 26.82H15.127V27.5619H15.8688V26.82Z" fill="black"/>
<path d="M19.5876 26.82H18.8457V27.5619H19.5876V26.82Z" fill="black"/>
<path d="M21.8132 26.82H21.0713V27.5619H21.8132V26.82Z" fill="black"/>
<path d="M28.5091 26.82H27.0254V27.5619H28.5091V26.82Z" fill="black"/>
<path d="M8.43101 27.5619H6.94727V28.3037H8.43101V27.5619Z" fill="black"/>
<path d="M11.4081 27.5619H10.6663V28.3037H11.4081V27.5619Z" fill="black"/>
<path d="M24.0483 27.5619H23.3064V28.3037H24.0483V27.5619Z" fill="black"/>
<path d="M28.5091 27.5619H27.0254V28.3037H28.5091V27.5619Z" fill="black"/>
<path d="M8.43101 28.3037H6.94727V29.0456H8.43101V28.3037Z" fill="black"/>
<path d="M28.5091 28.3037H27.0254V29.0456H28.5091V28.3037Z" fill="black"/>
<path d="M8.43101 29.0456H6.94727V29.7875H8.43101V29.0456Z" fill="black"/>
<path d="M28.5091 29.0456H27.0254V29.7875H28.5091V29.0456Z" fill="black"/>
<path d="M8.43101 29.797H6.94727V30.5389H8.43101V29.797Z" fill="black"/>
<path d="M28.5091 29.797H27.0254V30.5389H28.5091V29.797Z" fill="black"/>
<path d="M8.43101 30.5389H6.94727V31.2808H8.43101V30.5389Z" fill="black"/>
<path d="M28.5091 30.5389H27.0254V31.2808H28.5091V30.5389Z" fill="black"/>
<path d="M8.43101 31.2807H6.94727V32.0226H8.43101V31.2807Z" fill="black"/>
<path d="M28.5091 31.2807H27.0254V32.0226H28.5091V31.2807Z" fill="black"/>
<path d="M8.43101 32.0226H6.94727V32.7645H8.43101V32.0226Z" fill="black"/>
<path d="M28.5091 32.0226H27.0254V32.7645H28.5091V32.0226Z" fill="black"/>
<path d="M8.43101 32.7645H6.94727V33.5064H8.43101V32.7645Z" fill="black"/>
<path d="M28.5091 32.7645H27.0254V33.5064H28.5091V32.7645Z" fill="black"/>
<path d="M28.5091 33.5159H6.94727V34.2578H28.5091V33.5159Z" fill="black"/>
<path d="M28.5091 34.2578H6.94727V34.9996H28.5091V34.2578Z" fill="black"/>
<path d="M21.8132 6.74187H8.43091V7.48374H21.8132V6.74187Z" fill="white"/>
<path d="M21.8132 7.48375H8.43091V8.22562H21.8132V7.48375Z" fill="white"/>
<path d="M23.3066 7.48375H22.5647V8.22562H23.3066V7.48375Z" fill="white"/>
<path d="M21.8132 8.23514H8.43091V8.97701H21.8132V8.23514Z" fill="white"/>
<path d="M24.0483 8.23514H23.3064V8.97701H24.0483V8.23514Z" fill="white"/>
<path d="M21.8132 8.97701H8.43091V9.71888H21.8132V8.97701Z" fill="white"/>
<path d="M24.7998 8.97701H22.5647V9.71888H24.7998V8.97701Z" fill="white"/>
<path d="M21.8132 9.71887H8.43091V10.4607H21.8132V9.71887Z" fill="white"/>
<path d="M25.5417 9.71887H22.5647V10.4607H25.5417V9.71887Z" fill="white"/>
<path d="M21.8132 10.4608H8.43091V11.2026H21.8132V10.4608Z" fill="white"/>
<path d="M23.3066 10.4608H22.5647V11.2026H23.3066V10.4608Z" fill="white"/>
<path d="M24.7902 10.4608H24.0483V11.2026H24.7902V10.4608Z" fill="white"/>
<path d="M21.8132 11.2026H8.43091V11.9445H21.8132V11.2026Z" fill="white"/>
<path d="M27.0158 11.9445H8.43091V12.6864H27.0158V11.9445Z" fill="white"/>
<path d="M27.0158 12.6959H8.43091V13.4378H27.0158V12.6959Z" fill="white"/>
<path d="M27.0158 13.4378H8.43091V14.1796H27.0158V13.4378Z" fill="white"/>
<path d="M10.666 14.1796H8.43091V14.9215H10.666V14.1796Z" fill="white"/>
<path d="M17.3525 14.1796H11.408V14.9215H17.3525V14.1796Z" fill="white"/>
<path d="M20.3391 14.1796H18.104V14.9215H20.3391V14.1796Z" fill="white"/>
<path d="M23.3064 14.1796H21.0713V14.9215H23.3064V14.1796Z" fill="white"/>
<path d="M27.0253 14.1796H24.0483V14.9215H27.0253V14.1796Z" fill="white"/>
<path d="M13.6335 14.9215H8.43091V15.6634H13.6335V14.9215Z" fill="white"/>
<path d="M22.5646 14.9215H14.385V15.6634H22.5646V14.9215Z" fill="white"/>
<path d="M27.0253 14.9215H23.3064V15.6634H27.0253V14.9215Z" fill="white"/>
<path d="M15.1268 15.6634H8.43091V16.4052H15.1268V15.6634Z" fill="white"/>
<path d="M20.3294 15.6634H15.8687V16.4052H20.3294V15.6634Z" fill="white"/>
<path d="M27.0158 15.6634H21.0713V16.4052H27.0158V15.6634Z" fill="white"/>
<path d="M11.4079 16.4052H8.43091V17.1471H11.4079V16.4052Z" fill="white"/>
<path d="M15.8688 16.4052H12.1499V17.1471H15.8688V16.4052Z" fill="white"/>
<path d="M17.3525 16.4052H16.6106V17.1471H17.3525V16.4052Z" fill="white"/>
<path d="M22.5648 16.4052H18.104V17.1471H22.5648V16.4052Z" fill="white"/>
<path d="M27.0253 16.4052H23.3064V17.1471H27.0253V16.4052Z" fill="white"/>
<path d="M19.5875 17.1566H8.43091V17.8985H19.5875V17.1566Z" fill="white"/>
<path d="M23.3066 17.1566H20.3296V17.8985H23.3066V17.1566Z" fill="white"/>
<path d="M27.0253 17.1566H24.0483V17.8985H27.0253V17.1566Z" fill="white"/>
<path d="M12.1498 17.8985H8.43091V18.6404H12.1498V17.8985Z" fill="white"/>
<path d="M14.3756 17.8985H12.8918V18.6404H14.3756V17.8985Z" fill="white"/>
<path d="M21.8228 17.8985H15.127V18.6404H21.8228V17.8985Z" fill="white"/>
<path d="M27.0254 17.8985H22.5647V18.6404H27.0254V17.8985Z" fill="white"/>
<path d="M10.666 18.6404H8.43091V19.3823H10.666V18.6404Z" fill="white"/>
<path d="M12.8918 18.6404H12.1499V19.3823H12.8918V18.6404Z" fill="white"/>
<path d="M15.8782 18.6404H13.6431V19.3823H15.8782V18.6404Z" fill="white"/>
<path d="M18.8457 18.6404H16.6106V19.3823H18.8457V18.6404Z" fill="white"/>
<path d="M21.0714 18.6404H19.5876V19.3823H21.0714V18.6404Z" fill="white"/>
<path d="M22.5646 18.6404H21.8228V19.3823H22.5646V18.6404Z" fill="white"/>
<path d="M27.0253 18.6404H23.3064V19.3823H27.0253V18.6404Z" fill="white"/>
<path d="M12.1498 19.3822H8.43091V20.1241H12.1498V19.3822Z" fill="white"/>
<path d="M18.8363 19.3822H12.8918V20.1241H18.8363V19.3822Z" fill="white"/>
<path d="M21.8228 19.3822H19.5876V20.1241H21.8228V19.3822Z" fill="white"/>
<path d="M24.0484 19.3822H22.5647V20.1241H24.0484V19.3822Z" fill="white"/>
<path d="M27.0254 19.3822H24.7903V20.1241H27.0254V19.3822Z" fill="white"/>
<path d="M12.1498 20.1241H8.43091V20.866H12.1498V20.1241Z" fill="white"/>
<path d="M13.6337 20.1241H12.8918V20.866H13.6337V20.1241Z" fill="white"/>
<path d="M16.6201 20.1241H14.385V20.866H16.6201V20.1241Z" fill="white"/>
<path d="M18.0944 20.1241H17.3525V20.866H18.0944V20.1241Z" fill="white"/>
<path d="M21.8227 20.1241H18.8457V20.866H21.8227V20.1241Z" fill="white"/>
<path d="M27.0254 20.1241H22.5647V20.866H27.0254V20.1241Z" fill="white"/>
<path d="M10.666 20.8755H8.43091V21.6174H10.666V20.8755Z" fill="white"/>
<path d="M12.8917 20.8755H11.408V21.6174H12.8917V20.8755Z" fill="white"/>
<path d="M14.3849 20.8755H13.6431V21.6174H14.3849V20.8755Z" fill="white"/>
<path d="M17.3621 20.8755H15.127V21.6174H17.3621V20.8755Z" fill="white"/>
<path d="M20.3391 20.8755H18.104V21.6174H20.3391V20.8755Z" fill="white"/>
<path d="M22.555 20.8755H21.0713V21.6174H22.555V20.8755Z" fill="white"/>
<path d="M24.0483 20.8755H23.3064V21.6174H24.0483V20.8755Z" fill="white"/>
<path d="M27.0254 20.8755H24.7903V21.6174H27.0254V20.8755Z" fill="white"/>
<path d="M10.666 21.6174H8.43091V22.3593H10.666V21.6174Z" fill="white"/>
<path d="M12.1498 21.6174H11.408V22.3593H12.1498V21.6174Z" fill="white"/>
<path d="M15.8688 21.6174H12.8918V22.3593H15.8688V21.6174Z" fill="white"/>
<path d="M18.0944 21.6174H17.3525V22.3593H18.0944V21.6174Z" fill="white"/>
<path d="M20.3294 21.6174H18.8457V22.3593H20.3294V21.6174Z" fill="white"/>
<path d="M21.8132 21.6174H21.0713V22.3593H21.8132V21.6174Z" fill="white"/>
<path d="M27.0254 21.6174H22.5647V22.3593H27.0254V21.6174Z" fill="white"/>
<path d="M12.8917 22.3593H8.43091V23.1011H12.8917V22.3593Z" fill="white"/>
<path d="M19.5876 22.3593H13.6431V23.1011H19.5876V22.3593Z" fill="white"/>
<path d="M22.5647 22.3593H20.3296V23.1011H22.5647V22.3593Z" fill="white"/>
<path d="M27.0253 22.3593H23.3064V23.1011H27.0253V22.3593Z" fill="white"/>
<path d="M11.4079 23.1011H8.43091V23.843H11.4079V23.1011Z" fill="white"/>
<path d="M14.3756 23.1011H12.8918V23.843H14.3756V23.1011Z" fill="white"/>
<path d="M15.8688 23.1011H15.127V23.843H15.8688V23.1011Z" fill="white"/>
<path d="M18.8457 23.1011H16.6106V23.843H18.8457V23.1011Z" fill="white"/>
<path d="M21.0714 23.1011H19.5876V23.843H21.0714V23.1011Z" fill="white"/>
<path d="M24.0484 23.1011H22.5647V23.843H24.0484V23.1011Z" fill="white"/>
<path d="M27.0254 23.1011H24.7903V23.843H27.0254V23.1011Z" fill="white"/>
<path d="M10.666 23.843H8.43091V24.5849H10.666V23.843Z" fill="white"/>
<path d="M15.1268 23.843H11.408V24.5849H15.1268V23.843Z" fill="white"/>
<path d="M20.3391 23.843H18.104V24.5849H20.3391V23.843Z" fill="white"/>
<path d="M22.555 23.843H21.0713V24.5849H22.555V23.843Z" fill="white"/>
<path d="M27.0253 23.843H23.3064V24.5849H27.0253V23.843Z" fill="white"/>
<path d="M15.8687 24.5849H8.43091V25.3267H15.8687V24.5849Z" fill="white"/>
<path d="M21.8132 24.5849H16.6106V25.3267H21.8132V24.5849Z" fill="white"/>
<path d="M27.0254 24.5849H22.5647V25.3267H27.0254V24.5849Z" fill="white"/>
<path d="M10.666 25.3363H8.43091V26.0781H10.666V25.3363Z" fill="white"/>
<path d="M13.6431 25.3363H11.408V26.0781H13.6431V25.3363Z" fill="white"/>
<path d="M18.1039 25.3363H14.385V26.0781H18.1039V25.3363Z" fill="white"/>
<path d="M20.3294 25.3363H18.8457V26.0781H20.3294V25.3363Z" fill="white"/>
<path d="M22.555 25.3363H21.0713V26.0781H22.555V25.3363Z" fill="white"/>
<path d="M24.0483 25.3363H23.3064V26.0781H24.0483V25.3363Z" fill="white"/>
<path d="M27.0254 25.3363H24.7903V26.0781H27.0254V25.3363Z" fill="white"/>
<path d="M11.4079 26.0781H8.43091V26.82H11.4079V26.0781Z" fill="white"/>
<path d="M12.8918 26.0781H12.1499V26.82H12.8918V26.0781Z" fill="white"/>
<path d="M16.6201 26.0781H13.6431V26.82H16.6201V26.0781Z" fill="white"/>
<path d="M27.0159 26.0781H17.3525V26.82H27.0159V26.0781Z" fill="white"/>
<path d="M13.6335 26.82H8.43091V27.5619H13.6335V26.82Z" fill="white"/>
<path d="M15.1269 26.82H14.385V27.5619H15.1269V26.82Z" fill="white"/>
<path d="M18.8457 26.82H15.8687V27.5619H18.8457V26.82Z" fill="white"/>
<path d="M21.0714 26.82H19.5876V27.5619H21.0714V26.82Z" fill="white"/>
<path d="M27.0254 26.82H21.8228V27.5619H27.0254V26.82Z" fill="white"/>
<path d="M10.666 27.5619H8.43091V28.3037H10.666V27.5619Z" fill="white"/>
<path d="M23.3065 27.5619H11.408V28.3037H23.3065V27.5619Z" fill="white"/>
<path d="M27.0253 27.5619H24.0483V28.3037H27.0253V27.5619Z" fill="white"/>
<path d="M27.0158 28.3037H8.43091V29.0456H27.0158V28.3037Z" fill="white"/>
<path d="M27.0158 29.0456H8.43091V29.7875H27.0158V29.0456Z" fill="white"/>
<path d="M27.0158 29.797H8.43091V30.5389H27.0158V29.797Z" fill="white"/>
<path d="M27.0158 30.5389H8.43091V31.2808H27.0158V30.5389Z" fill="white"/>
<path d="M27.0158 31.2807H8.43091V32.0226H27.0158V31.2807Z" fill="white"/>
<path d="M27.0158 32.0226H8.43091V32.7645H27.0158V32.0226Z" fill="white"/>
<path d="M27.0158 32.7645H8.43091V33.5064H27.0158V32.7645Z" fill="white"/>
<path d="M24.2481 14.9409H21.1665V16.4817H24.2481V14.9409Z" fill="black"/>
<path d="M22.7073 16.4817H21.1665V18.0225H22.7073V16.4817Z" fill="black"/>
<path d="M25.7984 16.4817H24.2576V18.0225H25.7984V16.4817Z" fill="black"/>
<path d="M22.7073 18.0225H21.1665V19.5633H22.7073V18.0225Z" fill="black"/>
<path d="M27.3392 18.0225H25.7983V19.5633H27.3392V18.0225Z" fill="black"/>
<path d="M22.7073 19.5728H21.1665V21.1137H22.7073V19.5728Z" fill="black"/>
<path d="M28.8802 19.5728H27.3394V21.1137H28.8802V19.5728Z" fill="black"/>
<path d="M22.7073 21.1136H21.1665V22.6545H22.7073V21.1136Z" fill="black"/>
<path d="M30.4209 21.1136H28.8801V22.6545H30.4209V21.1136Z" fill="black"/>
<path d="M22.7073 22.6545H21.1665V24.1953H22.7073V22.6545Z" fill="black"/>
<path d="M31.9617 22.6545H30.4209V24.1953H31.9617V22.6545Z" fill="black"/>
<path d="M22.7073 24.1953H21.1665V25.7361H22.7073V24.1953Z" fill="black"/>
<path d="M33.512 24.1953H31.9712V25.7361H33.512V24.1953Z" fill="black"/>
<path d="M22.7073 25.7456H21.1665V27.2864H22.7073V25.7456Z" fill="black"/>
<path d="M35.0529 25.7456H28.8801V27.2864H35.0529V25.7456Z" fill="black"/>
<path d="M22.7073 27.2864H21.1665V28.8272H22.7073V27.2864Z" fill="black"/>
<path d="M25.7984 27.2864H24.2576V28.8272H25.7984V27.2864Z" fill="black"/>
<path d="M31.9618 27.2864H28.8801V28.8272H31.9618V27.2864Z" fill="black"/>
<path d="M22.7073 28.8272H21.1665V30.368H22.7073V28.8272Z" fill="black"/>
<path d="M27.3392 28.8272H24.2576V30.368H27.3392V28.8272Z" fill="black"/>
<path d="M31.9617 28.8272H30.4209V30.368H31.9617V28.8272Z" fill="black"/>
<path d="M24.2481 30.368H21.1665V31.9089H24.2481V30.368Z" fill="black"/>
<path d="M27.3392 30.368H25.7983V31.9089H27.3392V30.368Z" fill="black"/>
<path d="M33.5025 30.368H30.4209V31.9089H33.5025V30.368Z" fill="black"/>
<path d="M28.8802 31.9089H27.3394V33.4497H28.8802V31.9089Z" fill="black"/>
<path d="M33.512 31.9089H31.9712V33.4497H33.512V31.9089Z" fill="black"/>
<path d="M31.9713 33.4592H27.3394V35H31.9713V33.4592Z" fill="black"/>
<path d="M24.2481 16.4817H22.7073V18.0225H24.2481V16.4817Z" fill="white"/>
<path d="M25.7889 18.0225H22.7073V19.5633H25.7889V18.0225Z" fill="white"/>
<path d="M27.3392 19.5728H22.7073V21.1137H27.3392V19.5728Z" fill="white"/>
<path d="M28.88 21.1136H22.7073V22.6545H28.88V21.1136Z" fill="white"/>
<path d="M30.4209 22.6545H22.7073V24.1953H30.4209V22.6545Z" fill="white"/>
<path d="M31.9617 24.1953H22.7073V25.7361H31.9617V24.1953Z" fill="white"/>
<path d="M28.88 25.7456H22.7073V27.2864H28.88V25.7456Z" fill="white"/>
<path d="M24.2481 27.2864H22.7073V28.8272H24.2481V27.2864Z" fill="white"/>
<path d="M28.88 27.2864H25.7983V28.8272H28.88V27.2864Z" fill="white"/>
<path d="M24.2481 28.8272H22.7073V30.368H24.2481V28.8272Z" fill="white"/>
<path d="M30.421 28.8272H27.3394V30.368H30.421V28.8272Z" fill="white"/>
<path d="M30.421 30.368H27.3394V31.9089H30.421V30.368Z" fill="white"/>
<path d="M31.9618 31.9089H28.8801V33.4497H31.9618V31.9089Z" fill="white"/>
</svg>
