<svg width="40" height="40" viewBox="0 0 40 40" fill="none" xmlns="http://www.w3.org/2000/svg">
<path d="M30.2667 6H11.6001V6.61924H30.2667V6Z" fill="black"/>
<path d="M31.505 6H30.8857V6.61924H31.505V6Z" fill="black"/>
<path d="M12.2281 6.61961H10.9807V7.23885H12.2281V6.61961Z" fill="black"/>
<path d="M31.514 6.61961H30.2666V7.23885H31.514V6.61961Z" fill="black"/>
<path d="M11.6 7.24713H10.3525V7.86637H11.6V7.24713Z" fill="black"/>
<path d="M14.0858 7.24713H13.4666V7.86637H14.0858V7.24713Z" fill="black"/>
<path d="M15.9525 7.24713H15.3333V7.86637H15.9525V7.24713Z" fill="black"/>
<path d="M17.8192 7.24713H17.2V7.86637H17.8192V7.24713Z" fill="black"/>
<path d="M19.6859 7.24713H19.0667V7.86637H19.6859V7.24713Z" fill="black"/>
<path d="M21.5526 7.24713H20.9333V7.86637H21.5526V7.24713Z" fill="black"/>
<path d="M23.4193 7.24713H22.8V7.86637H23.4193V7.24713Z" fill="black"/>
<path d="M25.286 7.24713H24.6667V7.86637H25.286V7.24713Z" fill="black"/>
<path d="M27.1524 7.24713H26.5332V7.86637H27.1524V7.24713Z" fill="black"/>
<path d="M31.5141 7.24713H29.6475V7.86637H31.5141V7.24713Z" fill="black"/>
<path d="M11.6 7.86674H10.3525V8.48598H11.6V7.86674Z" fill="black"/>
<path d="M29.6473 7.86674H28.3999V8.48598H29.6473V7.86674Z" fill="black"/>
<path d="M31.514 7.86674H30.2666V8.48598H31.514V7.86674Z" fill="black"/>
<path d="M10.9807 8.48549H9.11401V9.10472H10.9807V8.48549Z" fill="black"/>
<path d="M28.4 8.48549H27.7808V9.10472H28.4V8.48549Z" fill="black"/>
<path d="M29.6385 8.48549H29.0193V9.10472H29.6385V8.48549Z" fill="black"/>
<path d="M31.514 8.48549H30.2666V9.10472H31.514V8.48549Z" fill="black"/>
<path d="M9.73327 9.11388H8.48584V9.73311H9.73327V9.11388Z" fill="black"/>
<path d="M29.0191 9.11388H28.3999V9.73311H29.0191V9.11388Z" fill="black"/>
<path d="M31.5141 9.11388H29.6475V9.73311H31.5141V9.11388Z" fill="black"/>
<path d="M9.73327 9.73351H8.48584V10.3527H9.73327V9.73351Z" fill="black"/>
<path d="M10.9718 9.73351H10.3525V10.3527H10.9718V9.73351Z" fill="black"/>
<path d="M12.8475 9.73351H11.6001V10.3527H12.8475V9.73351Z" fill="black"/>
<path d="M14.714 9.73351H13.4666V10.3527H14.714V9.73351Z" fill="black"/>
<path d="M16.5807 9.73351H15.3333V10.3527H16.5807V9.73351Z" fill="black"/>
<path d="M18.4474 9.73351H17.2V10.3527H18.4474V9.73351Z" fill="black"/>
<path d="M20.3141 9.73351H19.0667V10.3527H20.3141V9.73351Z" fill="black"/>
<path d="M22.1808 9.73351H20.9333V10.3527H22.1808V9.73351Z" fill="black"/>
<path d="M24.0475 9.73351H22.8V10.3527H24.0475V9.73351Z" fill="black"/>
<path d="M25.9142 9.73351H24.6667V10.3527H25.9142V9.73351Z" fill="black"/>
<path d="M28.4 9.73351H27.7808V10.3527H28.4V9.73351Z" fill="black"/>
<path d="M29.6385 9.73351H29.0193V10.3527H29.6385V9.73351Z" fill="black"/>
<path d="M31.514 9.73351H30.2666V10.3527H31.514V9.73351Z" fill="black"/>
<path d="M9.10507 10.3522H8.48584V10.9715H9.10507V10.3522Z" fill="black"/>
<path d="M11.5999 10.3522H10.9807V10.9715H11.5999V10.3522Z" fill="black"/>
<path d="M13.4667 10.3522H12.2192V10.9715H13.4667V10.3522Z" fill="black"/>
<path d="M15.3334 10.3522H14.0859V10.9715H15.3334V10.3522Z" fill="black"/>
<path d="M17.2001 10.3522H15.9526V10.9715H17.2001V10.3522Z" fill="black"/>
<path d="M19.0668 10.3522H17.8193V10.9715H19.0668V10.3522Z" fill="black"/>
<path d="M20.9332 10.3522H19.6858V10.9715H20.9332V10.3522Z" fill="black"/>
<path d="M22.7999 10.3522H21.5525V10.9715H22.7999V10.3522Z" fill="black"/>
<path d="M24.6666 10.3522H23.4192V10.9715H24.6666V10.3522Z" fill="black"/>
<path d="M27.7718 10.3522H27.1526V10.9715H27.7718V10.3522Z" fill="black"/>
<path d="M29.0191 10.3522H28.3999V10.9715H29.0191V10.3522Z" fill="black"/>
<path d="M31.5141 10.3522H29.6475V10.9715H31.5141V10.3522Z" fill="black"/>
<path d="M9.10507 10.9806H8.48584V11.5999H9.10507V10.9806Z" fill="black"/>
<path d="M25.914 10.9806H10.9807V11.5999H25.914V10.9806Z" fill="black"/>
<path d="M28.4 10.9806H27.7808V11.5999H28.4V10.9806Z" fill="black"/>
<path d="M29.6385 10.9806H29.0193V11.5999H29.6385V10.9806Z" fill="black"/>
<path d="M31.514 10.9806H30.2666V11.5999H31.514V10.9806Z" fill="black"/>
<path d="M9.10507 11.6003H8.48584V12.2195H9.10507V11.6003Z" fill="black"/>
<path d="M25.914 11.6003H10.9807V12.2195H25.914V11.6003Z" fill="black"/>
<path d="M28.4 11.6003H27.7808V12.2195H28.4V11.6003Z" fill="black"/>
<path d="M29.6385 11.6003H29.0193V12.2195H29.6385V11.6003Z" fill="black"/>
<path d="M31.514 11.6003H30.2666V12.2195H31.514V11.6003Z" fill="black"/>
<path d="M9.10507 12.219H8.48584V12.8382H9.10507V12.219Z" fill="black"/>
<path d="M12.8474 12.219H10.9807V12.8382H12.8474V12.219Z" fill="black"/>
<path d="M25.914 12.219H13.4666V12.8382H25.914V12.219Z" fill="black"/>
<path d="M29.0191 12.219H28.3999V12.8382H29.0191V12.219Z" fill="black"/>
<path d="M31.5141 12.219H29.6475V12.8382H31.5141V12.219Z" fill="black"/>
<path d="M9.10507 12.8474H8.48584V13.4666H9.10507V12.8474Z" fill="black"/>
<path d="M12.8474 12.8474H10.9807V13.4666H12.8474V12.8474Z" fill="black"/>
<path d="M25.914 12.8474H13.4666V13.4666H25.914V12.8474Z" fill="black"/>
<path d="M28.4 12.8474H27.1526V13.4666H28.4V12.8474Z" fill="black"/>
<path d="M29.6385 12.8474H29.0193V13.4666H29.6385V12.8474Z" fill="black"/>
<path d="M31.514 12.8474H30.2666V13.4666H31.514V12.8474Z" fill="black"/>
<path d="M9.10507 13.467H8.48584V14.0862H9.10507V13.467Z" fill="black"/>
<path d="M12.8474 13.467H10.9807V14.0862H12.8474V13.467Z" fill="black"/>
<path d="M25.9051 13.467H14.0859V14.0862H25.9051V13.467Z" fill="black"/>
<path d="M29.0191 13.467H28.3999V14.0862H29.0191V13.467Z" fill="black"/>
<path d="M31.5141 13.467H29.6475V14.0862H31.5141V13.467Z" fill="black"/>
<path d="M9.10507 14.0858H8.48584V14.705H9.10507V14.0858Z" fill="black"/>
<path d="M12.8474 14.0858H10.9807V14.705H12.8474V14.0858Z" fill="black"/>
<path d="M15.3332 14.0858H13.4666V14.705H15.3332V14.0858Z" fill="black"/>
<path d="M25.905 14.0858H19.6858V14.705H25.905V14.0858Z" fill="black"/>
<path d="M28.4 14.0858H27.7808V14.705H28.4V14.0858Z" fill="black"/>
<path d="M29.6385 14.0858H29.0193V14.705H29.6385V14.0858Z" fill="black"/>
<path d="M31.514 14.0858H30.2666V14.705H31.514V14.0858Z" fill="black"/>
<path d="M9.10507 14.7141H8.48584V15.3334H9.10507V14.7141Z" fill="black"/>
<path d="M14.714 14.7141H10.9807V15.3334H14.714V14.7141Z" fill="black"/>
<path d="M25.905 14.7141H19.6858V15.3334H25.905V14.7141Z" fill="black"/>
<path d="M28.4 14.7141H27.7808V15.3334H28.4V14.7141Z" fill="black"/>
<path d="M29.6385 14.7141H29.0193V15.3334H29.6385V14.7141Z" fill="black"/>
<path d="M31.514 14.7141H30.2666V15.3334H31.514V14.7141Z" fill="black"/>
<path d="M9.10507 15.3338H8.48584V15.953H9.10507V15.3338Z" fill="black"/>
<path d="M14.714 15.3338H10.9807V15.953H14.714V15.3338Z" fill="black"/>
<path d="M25.914 15.3338H17.2V15.953H25.914V15.3338Z" fill="black"/>
<path d="M28.4 15.3338H27.7808V15.953H28.4V15.3338Z" fill="black"/>
<path d="M29.6385 15.3338H29.0193V15.953H29.6385V15.3338Z" fill="black"/>
<path d="M31.514 15.3338H30.2666V15.953H31.514V15.3338Z" fill="black"/>
<path d="M9.10507 15.9525H8.48584V16.5717H9.10507V15.9525Z" fill="black"/>
<path d="M15.3333 15.9525H10.9807V16.5717H15.3333V15.9525Z" fill="black"/>
<path d="M17.8192 15.9525H17.2V16.5717H17.8192V15.9525Z" fill="black"/>
<path d="M25.9141 15.9525H22.8V16.5717H25.9141V15.9525Z" fill="black"/>
<path d="M28.4 15.9525H27.7808V16.5717H28.4V15.9525Z" fill="black"/>
<path d="M29.6385 15.9525H29.0193V16.5717H29.6385V15.9525Z" fill="black"/>
<path d="M31.514 15.9525H30.2666V16.5717H31.514V15.9525Z" fill="black"/>
<path d="M9.10507 16.5809H8.48584V17.2001H9.10507V16.5809Z" fill="black"/>
<path d="M15.3333 16.5809H10.9807V17.2001H15.3333V16.5809Z" fill="black"/>
<path d="M25.914 16.5809H22.1807V17.2001H25.914V16.5809Z" fill="black"/>
<path d="M29.0191 16.5809H28.3999V17.2001H29.0191V16.5809Z" fill="black"/>
<path d="M31.5141 16.5809H29.6475V17.2001H31.5141V16.5809Z" fill="black"/>
<path d="M9.10507 17.2005H8.48584V17.8197H9.10507V17.2005Z" fill="black"/>
<path d="M17.8281 17.2005H10.9807V17.8197H17.8281V17.2005Z" fill="black"/>
<path d="M25.9141 17.2005H22.8V17.8197H25.9141V17.2005Z" fill="black"/>
<path d="M28.4 17.2005H27.7808V17.8197H28.4V17.2005Z" fill="black"/>
<path d="M29.6385 17.2005H29.0193V17.8197H29.6385V17.2005Z" fill="black"/>
<path d="M31.514 17.2005H30.2666V17.8197H31.514V17.2005Z" fill="black"/>
<path d="M9.10507 17.8192H8.48584V18.4385H9.10507V17.8192Z" fill="black"/>
<path d="M17.1999 17.8192H10.9807V18.4385H17.1999V17.8192Z" fill="black"/>
<path d="M25.914 17.8192H22.1807V18.4385H25.914V17.8192Z" fill="black"/>
<path d="M27.7718 17.8192H27.1526V18.4385H27.7718V17.8192Z" fill="black"/>
<path d="M29.0191 17.8192H28.3999V18.4385H29.0191V17.8192Z" fill="black"/>
<path d="M31.5141 17.8192H29.6475V18.4385H31.5141V17.8192Z" fill="black"/>
<path d="M9.10507 18.4476H8.48584V19.0669H9.10507V18.4476Z" fill="black"/>
<path d="M18.4474 18.4476H10.9807V19.0669H18.4474V18.4476Z" fill="black"/>
<path d="M19.6859 18.4476H19.0667V19.0669H19.6859V18.4476Z" fill="black"/>
<path d="M20.9332 18.4476H20.314V19.0669H20.9332V18.4476Z" fill="black"/>
<path d="M25.914 18.4476H22.1807V19.0669H25.914V18.4476Z" fill="black"/>
<path d="M28.4 18.4476H27.7808V19.0669H28.4V18.4476Z" fill="black"/>
<path d="M29.6385 18.4476H29.0193V19.0669H29.6385V18.4476Z" fill="black"/>
<path d="M31.514 18.4476H30.2666V19.0669H31.514V18.4476Z" fill="black"/>
<path d="M9.10507 19.0664H8.48584V19.6856H9.10507V19.0664Z" fill="black"/>
<path d="M25.914 19.0664H10.9807V19.6856H25.914V19.0664Z" fill="black"/>
<path d="M28.4 19.0664H27.7808V19.6856H28.4V19.0664Z" fill="black"/>
<path d="M29.6385 19.0664H29.0193V19.6856H29.6385V19.0664Z" fill="black"/>
<path d="M31.514 19.0664H30.2666V19.6856H31.514V19.0664Z" fill="black"/>
<path d="M9.10507 19.686H8.48584V20.3052H9.10507V19.686Z" fill="black"/>
<path d="M25.914 19.686H10.9807V20.3052H25.914V19.686Z" fill="black"/>
<path d="M29.0191 19.686H28.3999V20.3052H29.0191V19.686Z" fill="black"/>
<path d="M31.5141 19.686H29.6475V20.3052H31.5141V19.686Z" fill="black"/>
<path d="M9.10507 20.3144H8.48584V20.9336H9.10507V20.3144Z" fill="black"/>
<path d="M25.914 20.3144H10.9807V20.9336H25.914V20.3144Z" fill="black"/>
<path d="M28.4 20.3144H27.1526V20.9336H28.4V20.3144Z" fill="black"/>
<path d="M29.6385 20.3144H29.0193V20.9336H29.6385V20.3144Z" fill="black"/>
<path d="M31.514 20.3144H30.2666V20.9336H31.514V20.3144Z" fill="black"/>
<path d="M9.10507 20.9331H8.48584V21.5524H9.10507V20.9331Z" fill="black"/>
<path d="M12.2193 20.9331H11.6001V21.5524H12.2193V20.9331Z" fill="black"/>
<path d="M13.4666 20.9331H12.8474V21.5524H13.4666V20.9331Z" fill="black"/>
<path d="M14.7052 20.9331H14.0859V21.5524H14.7052V20.9331Z" fill="black"/>
<path d="M15.9525 20.9331H15.3333V21.5524H15.9525V20.9331Z" fill="black"/>
<path d="M17.2 20.9331H16.5808V21.5524H17.2V20.9331Z" fill="black"/>
<path d="M18.4386 20.9331H17.8193V21.5524H18.4386V20.9331Z" fill="black"/>
<path d="M19.6859 20.9331H19.0667V21.5524H19.6859V20.9331Z" fill="black"/>
<path d="M20.9332 20.9331H20.314V21.5524H20.9332V20.9331Z" fill="black"/>
<path d="M22.1717 20.9331H21.5525V21.5524H22.1717V20.9331Z" fill="black"/>
<path d="M23.4193 20.9331H22.8V21.5524H23.4193V20.9331Z" fill="black"/>
<path d="M24.6666 20.9331H24.0474V21.5524H24.6666V20.9331Z" fill="black"/>
<path d="M25.9051 20.9331H25.2859V21.5524H25.9051V20.9331Z" fill="black"/>
<path d="M29.0191 20.9331H28.3999V21.5524H29.0191V20.9331Z" fill="black"/>
<path d="M31.5141 20.9331H29.6475V21.5524H31.5141V20.9331Z" fill="black"/>
<path d="M9.10507 21.5527H8.48584V22.172H9.10507V21.5527Z" fill="black"/>
<path d="M10.9718 21.5527H10.3525V22.172H10.9718V21.5527Z" fill="black"/>
<path d="M28.4 21.5527H27.7808V22.172H28.4V21.5527Z" fill="black"/>
<path d="M29.6385 21.5527H29.0193V22.172H29.6385V21.5527Z" fill="black"/>
<path d="M31.514 21.5527H30.2666V22.172H31.514V21.5527Z" fill="black"/>
<path d="M9.10507 22.1811H8.48584V22.8004H9.10507V22.1811Z" fill="black"/>
<path d="M28.4 22.1811H27.7808V22.8004H28.4V22.1811Z" fill="black"/>
<path d="M31.5052 22.1811H29.0193V22.8004H31.5052V22.1811Z" fill="black"/>
<path d="M9.10507 22.7999H8.48584V23.4191H9.10507V22.7999Z" fill="black"/>
<path d="M10.9718 22.7999H10.3525V23.4191H10.9718V22.7999Z" fill="black"/>
<path d="M12.2193 22.7999H11.6001V23.4191H12.2193V22.7999Z" fill="black"/>
<path d="M13.4666 22.7999H12.8474V23.4191H13.4666V22.7999Z" fill="black"/>
<path d="M14.7052 22.7999H14.0859V23.4191H14.7052V22.7999Z" fill="black"/>
<path d="M15.9525 22.7999H15.3333V23.4191H15.9525V22.7999Z" fill="black"/>
<path d="M17.2 22.7999H16.5808V23.4191H17.2V22.7999Z" fill="black"/>
<path d="M18.4386 22.7999H17.8193V23.4191H18.4386V22.7999Z" fill="black"/>
<path d="M19.6859 22.7999H19.0667V23.4191H19.6859V22.7999Z" fill="black"/>
<path d="M20.9332 22.7999H20.314V23.4191H20.9332V22.7999Z" fill="black"/>
<path d="M22.1717 22.7999H21.5525V23.4191H22.1717V22.7999Z" fill="black"/>
<path d="M23.4193 22.7999H22.8V23.4191H23.4193V22.7999Z" fill="black"/>
<path d="M24.6666 22.7999H24.0474V23.4191H24.6666V22.7999Z" fill="black"/>
<path d="M25.9051 22.7999H25.2859V23.4191H25.9051V22.7999Z" fill="black"/>
<path d="M27.1524 22.7999H26.5332V23.4191H27.1524V22.7999Z" fill="black"/>
<path d="M34 22.7999H27.7808V23.4191H34V22.7999Z" fill="black"/>
<path d="M10.3525 23.4195H8.48584V24.0387H10.3525V23.4195Z" fill="black"/>
<path d="M11.5999 23.4195H10.9807V24.0387H11.5999V23.4195Z" fill="black"/>
<path d="M14.0859 23.4195H12.2192V24.0387H14.0859V23.4195Z" fill="black"/>
<path d="M16.5808 23.4195H14.7141V24.0387H16.5808V23.4195Z" fill="black"/>
<path d="M19.0666 23.4195H17.2V24.0387H19.0666V23.4195Z" fill="black"/>
<path d="M30.8858 23.4195H19.6858V24.0387H30.8858V23.4195Z" fill="black"/>
<path d="M34.0001 23.4195H32.7527V24.0387H34.0001V23.4195Z" fill="black"/>
<path d="M28.3999 24.0479H8.48584V24.6671H28.3999V24.0479Z" fill="black"/>
<path d="M30.2667 24.0479H29.0193V24.6671H30.2667V24.0479Z" fill="black"/>
<path d="M34.0001 24.0479H31.5142V24.6671H34.0001V24.0479Z" fill="black"/>
<path d="M29.6475 24.6666H7.24756V25.2859H29.6475V24.6666Z" fill="black"/>
<path d="M32.1332 24.6666H30.8857V25.2859H32.1332V24.6666Z" fill="black"/>
<path d="M34.0001 24.6666H32.7527V25.2859H34.0001V24.6666Z" fill="black"/>
<path d="M7.86657 25.2863H6.61914V25.9055H7.86657V25.2863Z" fill="black"/>
<path d="M10.3526 25.2863H9.7334V25.9055H10.3526V25.2863Z" fill="black"/>
<path d="M14.0858 25.2863H13.4666V25.9055H14.0858V25.2863Z" fill="black"/>
<path d="M16.5719 25.2863H15.9526V25.9055H16.5719V25.2863Z" fill="black"/>
<path d="M19.0667 25.2863H18.4475V25.9055H19.0667V25.2863Z" fill="black"/>
<path d="M21.5526 25.2863H20.9333V25.9055H21.5526V25.2863Z" fill="black"/>
<path d="M24.0384 25.2863H23.4192V25.9055H24.0384V25.2863Z" fill="black"/>
<path d="M26.5333 25.2863H25.9141V25.9055H26.5333V25.2863Z" fill="black"/>
<path d="M30.8858 25.2863H30.2666V25.9055H30.8858V25.2863Z" fill="black"/>
<path d="M34 25.2863H32.1333V25.9055H34V25.2863Z" fill="black"/>
<path d="M7.24743 25.9146H6V26.5339H7.24743V25.9146Z" fill="black"/>
<path d="M30.2667 25.9146H29.6475V26.5339H30.2667V25.9146Z" fill="black"/>
<path d="M31.505 25.9146H30.8857V26.5339H31.505V25.9146Z" fill="black"/>
<path d="M34.0001 25.9146H32.7527V26.5339H34.0001V25.9146Z" fill="black"/>
<path d="M6.61923 26.5334H6V27.1526H6.61923V26.5334Z" fill="black"/>
<path d="M30.8858 26.5334H30.2666V27.1526H30.8858V26.5334Z" fill="black"/>
<path d="M34.0001 26.5334H31.5142V27.1526H34.0001V26.5334Z" fill="black"/>
<path d="M6.61923 27.153H6V27.7722H6.61923V27.153Z" fill="black"/>
<path d="M9.10507 27.153H8.48584V27.7722H9.10507V27.153Z" fill="black"/>
<path d="M10.3526 27.153H9.7334V27.7722H10.3526V27.153Z" fill="black"/>
<path d="M12.2193 27.153H11.6001V27.7722H12.2193V27.153Z" fill="black"/>
<path d="M13.4666 27.153H12.8474V27.7722H13.4666V27.153Z" fill="black"/>
<path d="M15.3333 27.153H14.7141V27.7722H15.3333V27.153Z" fill="black"/>
<path d="M17.2 27.153H16.5808V27.7722H17.2V27.153Z" fill="black"/>
<path d="M19.0667 27.153H18.4475V27.7722H19.0667V27.153Z" fill="black"/>
<path d="M20.305 27.153H19.6858V27.7722H20.305V27.153Z" fill="black"/>
<path d="M21.5526 27.153H20.9333V27.7722H21.5526V27.153Z" fill="black"/>
<path d="M22.7999 27.153H22.1807V27.7722H22.7999V27.153Z" fill="black"/>
<path d="M24.0384 27.153H23.4192V27.7722H24.0384V27.153Z" fill="black"/>
<path d="M25.286 27.153H24.6667V27.7722H25.286V27.153Z" fill="black"/>
<path d="M26.5333 27.153H25.9141V27.7722H26.5333V27.153Z" fill="black"/>
<path d="M27.7718 27.153H27.1526V27.7722H27.7718V27.153Z" fill="black"/>
<path d="M29.0191 27.153H28.3999V27.7722H29.0191V27.153Z" fill="black"/>
<path d="M30.2667 27.153H29.6475V27.7722H30.2667V27.153Z" fill="black"/>
<path d="M31.505 27.153H30.8857V27.7722H31.505V27.153Z" fill="black"/>
<path d="M34.0001 27.153H32.7527V27.7722H34.0001V27.153Z" fill="black"/>
<path d="M6.61923 27.7805H6V28.3998H6.61923V27.7805Z" fill="black"/>
<path d="M11.5999 27.7805H10.9807V28.3998H11.5999V27.7805Z" fill="black"/>
<path d="M14.7052 27.7805H14.0859V28.3998H14.7052V27.7805Z" fill="black"/>
<path d="M18.4386 27.7805H17.8193V28.3998H18.4386V27.7805Z" fill="black"/>
<path d="M19.6859 27.7805H19.0667V28.3998H19.6859V27.7805Z" fill="black"/>
<path d="M20.9332 27.7805H20.314V28.3998H20.9332V27.7805Z" fill="black"/>
<path d="M22.1717 27.7805H21.5525V28.3998H22.1717V27.7805Z" fill="black"/>
<path d="M23.4193 27.7805H22.8V28.3998H23.4193V27.7805Z" fill="black"/>
<path d="M24.6666 27.7805H24.0474V28.3998H24.6666V27.7805Z" fill="black"/>
<path d="M25.9051 27.7805H25.2859V28.3998H25.9051V27.7805Z" fill="black"/>
<path d="M27.1524 27.7805H26.5332V28.3998H27.1524V27.7805Z" fill="black"/>
<path d="M30.2667 27.7805H29.6475V28.3998H30.2667V27.7805Z" fill="black"/>
<path d="M31.505 27.7805H30.8857V28.3998H31.505V27.7805Z" fill="black"/>
<path d="M34 27.7805H32.1333V28.3998H34V27.7805Z" fill="black"/>
<path d="M6.61923 28.4001H6V29.0194H6.61923V28.4001Z" fill="black"/>
<path d="M8.48593 28.4001H7.8667V29.0194H8.48593V28.4001Z" fill="black"/>
<path d="M10.9807 28.4001H9.11401V29.0194H10.9807V28.4001Z" fill="black"/>
<path d="M13.4666 28.4001H12.8474V29.0194H13.4666V28.4001Z" fill="black"/>
<path d="M15.9525 28.4001H15.3333V29.0194H15.9525V28.4001Z" fill="black"/>
<path d="M27.7807 28.4001H19.0667V29.0194H27.7807V28.4001Z" fill="black"/>
<path d="M29.6385 28.4001H29.0193V29.0194H29.6385V28.4001Z" fill="black"/>
<path d="M30.8858 28.4001H30.2666V29.0194H30.8858V28.4001Z" fill="black"/>
<path d="M32.1334 28.4001H31.5142V29.0194H32.1334V28.4001Z" fill="black"/>
<path d="M34.0001 28.4001H32.7527V29.0194H34.0001V28.4001Z" fill="black"/>
<path d="M6.61923 29.0198H6V29.639H6.61923V29.0198Z" fill="black"/>
<path d="M10.9808 29.0198H9.7334V29.639H10.9808V29.0198Z" fill="black"/>
<path d="M12.2193 29.0198H11.6001V29.639H12.2193V29.0198Z" fill="black"/>
<path d="M16.5719 29.0198H15.9526V29.639H16.5719V29.0198Z" fill="black"/>
<path d="M17.8192 29.0198H17.2V29.639H17.8192V29.0198Z" fill="black"/>
<path d="M19.6859 29.0198H19.0667V29.639H19.6859V29.0198Z" fill="black"/>
<path d="M20.9332 29.0198H20.314V29.639H20.9332V29.0198Z" fill="black"/>
<path d="M22.1717 29.0198H21.5525V29.639H22.1717V29.0198Z" fill="black"/>
<path d="M23.4193 29.0198H22.8V29.639H23.4193V29.0198Z" fill="black"/>
<path d="M24.6666 29.0198H24.0474V29.639H24.6666V29.0198Z" fill="black"/>
<path d="M25.9051 29.0198H25.2859V29.639H25.9051V29.0198Z" fill="black"/>
<path d="M27.1524 29.0198H26.5332V29.639H27.1524V29.0198Z" fill="black"/>
<path d="M28.4 29.0198H27.7808V29.639H28.4V29.0198Z" fill="black"/>
<path d="M30.8858 29.0198H30.2666V29.639H30.8858V29.0198Z" fill="black"/>
<path d="M32.1334 29.0198H31.5142V29.639H32.1334V29.0198Z" fill="black"/>
<path d="M34.0001 29.0198H32.7527V29.639H34.0001V29.0198Z" fill="black"/>
<path d="M6.61923 29.6473H6V30.2665H6.61923V29.6473Z" fill="black"/>
<path d="M10.9807 29.6473H9.11401V30.2665H10.9807V29.6473Z" fill="black"/>
<path d="M14.0858 29.6473H13.4666V30.2665H14.0858V29.6473Z" fill="black"/>
<path d="M15.3333 29.6473H14.7141V30.2665H15.3333V29.6473Z" fill="black"/>
<path d="M25.286 29.6473H24.6667V30.2665H25.286V29.6473Z" fill="black"/>
<path d="M30.2667 29.6473H29.6475V30.2665H30.2667V29.6473Z" fill="black"/>
<path d="M31.505 29.6473H30.8857V30.2665H31.505V29.6473Z" fill="black"/>
<path d="M33.3807 29.6473H32.1333V30.2665H33.3807V29.6473Z" fill="black"/>
<path d="M6.61923 30.2669H6V30.8861H6.61923V30.2669Z" fill="black"/>
<path d="M8.48593 30.2669H7.8667V30.8861H8.48593V30.2669Z" fill="black"/>
<path d="M12.8385 30.2669H12.2192V30.8861H12.8385V30.2669Z" fill="black"/>
<path d="M17.2 30.2669H16.5808V30.8861H17.2V30.2669Z" fill="black"/>
<path d="M18.4386 30.2669H17.8193V30.8861H18.4386V30.2669Z" fill="black"/>
<path d="M19.6859 30.2669H19.0667V30.8861H19.6859V30.2669Z" fill="black"/>
<path d="M21.5526 30.2669H20.9333V30.8861H21.5526V30.2669Z" fill="black"/>
<path d="M23.4193 30.2669H22.8V30.8861H23.4193V30.2669Z" fill="black"/>
<path d="M27.1524 30.2669H26.5332V30.8861H27.1524V30.2669Z" fill="black"/>
<path d="M29.0191 30.2669H28.3999V30.8861H29.0191V30.2669Z" fill="black"/>
<path d="M30.2667 30.2669H29.6475V30.8861H30.2667V30.2669Z" fill="black"/>
<path d="M31.505 30.2669H30.8857V30.8861H31.505V30.2669Z" fill="black"/>
<path d="M32.7525 30.2669H32.1333V30.8861H32.7525V30.2669Z" fill="black"/>
<path d="M6.61923 30.8865H6V31.5057H6.61923V30.8865Z" fill="black"/>
<path d="M11.5999 30.8865H10.9807V31.5057H11.5999V30.8865Z" fill="black"/>
<path d="M14.7052 30.8865H14.0859V31.5057H14.7052V30.8865Z" fill="black"/>
<path d="M24.6666 30.8865H24.0474V31.5057H24.6666V30.8865Z" fill="black"/>
<path d="M30.2667 30.8865H29.6475V31.5057H30.2667V30.8865Z" fill="black"/>
<path d="M32.7524 30.8865H30.8857V31.5057H32.7524V30.8865Z" fill="black"/>
<path d="M6.61923 31.514H6V32.1332H6.61923V31.514Z" fill="black"/>
<path d="M9.10507 31.514H8.48584V32.1332H9.10507V31.514Z" fill="black"/>
<path d="M10.3526 31.514H9.7334V32.1332H10.3526V31.514Z" fill="black"/>
<path d="M13.4666 31.514H12.8474V32.1332H13.4666V31.514Z" fill="black"/>
<path d="M15.9525 31.514H15.3333V32.1332H15.9525V31.514Z" fill="black"/>
<path d="M17.2 31.514H16.5808V32.1332H17.2V31.514Z" fill="black"/>
<path d="M18.4386 31.514H17.8193V32.1332H18.4386V31.514Z" fill="black"/>
<path d="M19.6859 31.514H19.0667V32.1332H19.6859V31.514Z" fill="black"/>
<path d="M20.9332 31.514H20.314V32.1332H20.9332V31.514Z" fill="black"/>
<path d="M22.1717 31.514H21.5525V32.1332H22.1717V31.514Z" fill="black"/>
<path d="M23.4193 31.514H22.8V32.1332H23.4193V31.514Z" fill="black"/>
<path d="M25.9051 31.514H25.2859V32.1332H25.9051V31.514Z" fill="black"/>
<path d="M27.1524 31.514H26.5332V32.1332H27.1524V31.514Z" fill="black"/>
<path d="M28.4 31.514H27.7808V32.1332H28.4V31.514Z" fill="black"/>
<path d="M29.6385 31.514H29.0193V32.1332H29.6385V31.514Z" fill="black"/>
<path d="M32.1333 31.514H30.2666V32.1332H32.1333V31.514Z" fill="black"/>
<path d="M6.61923 32.1336H6V32.7529H6.61923V32.1336Z" fill="black"/>
<path d="M9.11422 32.1336H7.24756V32.7529H9.11422V32.1336Z" fill="black"/>
<path d="M10.3526 32.1336H9.7334V32.7529H10.3526V32.1336Z" fill="black"/>
<path d="M13.4666 32.1336H10.9807V32.7529H13.4666V32.1336Z" fill="black"/>
<path d="M15.9526 32.1336H14.0859V32.7529H15.9526V32.1336Z" fill="black"/>
<path d="M17.2 32.1336H16.5808V32.7529H17.2V32.1336Z" fill="black"/>
<path d="M18.4386 32.1336H17.8193V32.7529H18.4386V32.1336Z" fill="black"/>
<path d="M19.6859 32.1336H19.0667V32.7529H19.6859V32.1336Z" fill="black"/>
<path d="M20.9332 32.1336H20.314V32.7529H20.9332V32.1336Z" fill="black"/>
<path d="M22.1717 32.1336H21.5525V32.7529H22.1717V32.1336Z" fill="black"/>
<path d="M23.4193 32.1336H22.8V32.7529H23.4193V32.1336Z" fill="black"/>
<path d="M25.914 32.1336H24.0474V32.7529H25.914V32.1336Z" fill="black"/>
<path d="M27.1524 32.1336H26.5332V32.7529H27.1524V32.1336Z" fill="black"/>
<path d="M28.4 32.1336H27.7808V32.7529H28.4V32.1336Z" fill="black"/>
<path d="M29.6385 32.1336H29.0193V32.7529H29.6385V32.1336Z" fill="black"/>
<path d="M31.514 32.1336H30.2666V32.7529H31.514V32.1336Z" fill="black"/>
<path d="M30.8858 32.7524H6V33.3716H30.8858V32.7524Z" fill="black"/>
<path d="M30.8858 33.3808H6V34H30.8858V33.3808Z" fill="black"/>
<path d="M29.6384 6.61961H12.2192V7.23885H29.6384V6.61961Z" fill="white"/>
<path d="M13.4668 7.24713H11.6001V7.86637H13.4668V7.24713Z" fill="white"/>
<path d="M15.3334 7.24713H14.0859V7.86637H15.3334V7.24713Z" fill="white"/>
<path d="M17.2001 7.24713H15.9526V7.86637H17.2001V7.24713Z" fill="white"/>
<path d="M19.0668 7.24713H17.8193V7.86637H19.0668V7.24713Z" fill="white"/>
<path d="M20.9332 7.24713H19.6858V7.86637H20.9332V7.24713Z" fill="white"/>
<path d="M22.7999 7.24713H21.5525V7.86637H22.7999V7.24713Z" fill="white"/>
<path d="M24.6666 7.24713H23.4192V7.86637H24.6666V7.24713Z" fill="white"/>
<path d="M26.5333 7.24713H25.2859V7.86637H26.5333V7.24713Z" fill="white"/>
<path d="M29.6385 7.24713H27.1526V7.86637H29.6385V7.24713Z" fill="white"/>
<path d="M28.4001 7.86674H11.6001V8.48598H28.4001V7.86674Z" fill="white"/>
<path d="M30.2667 7.86674H29.6475V8.48598H30.2667V7.86674Z" fill="white"/>
<path d="M27.7807 8.48549H10.9807V9.10472H27.7807V8.48549Z" fill="white"/>
<path d="M29.0191 8.48549H28.3999V9.10472H29.0191V8.48549Z" fill="white"/>
<path d="M30.2667 8.48549H29.6475V9.10472H30.2667V8.48549Z" fill="white"/>
<path d="M28.4 9.11388H9.7334V9.73311H28.4V9.11388Z" fill="white"/>
<path d="M29.6385 9.11388H29.0193V9.73311H29.6385V9.11388Z" fill="white"/>
<path d="M10.3526 9.73351H9.7334V10.3527H10.3526V9.73351Z" fill="white"/>
<path d="M11.5999 9.73351H10.9807V10.3527H11.5999V9.73351Z" fill="white"/>
<path d="M13.4666 9.73351H12.8474V10.3527H13.4666V9.73351Z" fill="white"/>
<path d="M15.3333 9.73351H14.7141V10.3527H15.3333V9.73351Z" fill="white"/>
<path d="M17.2 9.73351H16.5808V10.3527H17.2V9.73351Z" fill="white"/>
<path d="M19.0667 9.73351H18.4475V10.3527H19.0667V9.73351Z" fill="white"/>
<path d="M20.9332 9.73351H20.314V10.3527H20.9332V9.73351Z" fill="white"/>
<path d="M22.7999 9.73351H22.1807V10.3527H22.7999V9.73351Z" fill="white"/>
<path d="M24.6666 9.73351H24.0474V10.3527H24.6666V9.73351Z" fill="white"/>
<path d="M27.7807 9.73351H25.9141V10.3527H27.7807V9.73351Z" fill="white"/>
<path d="M29.0191 9.73351H28.3999V10.3527H29.0191V9.73351Z" fill="white"/>
<path d="M30.2667 9.73351H29.6475V10.3527H30.2667V9.73351Z" fill="white"/>
<path d="M10.9807 10.3522H9.11401V10.9715H10.9807V10.3522Z" fill="white"/>
<path d="M12.2193 10.3522H11.6001V10.9715H12.2193V10.3522Z" fill="white"/>
<path d="M14.0858 10.3522H13.4666V10.9715H14.0858V10.3522Z" fill="white"/>
<path d="M15.9525 10.3522H15.3333V10.9715H15.9525V10.3522Z" fill="white"/>
<path d="M17.8192 10.3522H17.2V10.9715H17.8192V10.3522Z" fill="white"/>
<path d="M19.6859 10.3522H19.0667V10.9715H19.6859V10.3522Z" fill="white"/>
<path d="M21.5526 10.3522H20.9333V10.9715H21.5526V10.3522Z" fill="white"/>
<path d="M23.4193 10.3522H22.8V10.9715H23.4193V10.3522Z" fill="white"/>
<path d="M27.1526 10.3522H24.6667V10.9715H27.1526V10.3522Z" fill="white"/>
<path d="M28.4 10.3522H27.7808V10.9715H28.4V10.3522Z" fill="white"/>
<path d="M29.6385 10.3522H29.0193V10.9715H29.6385V10.3522Z" fill="white"/>
<path d="M10.9807 10.9806H9.11401V11.5999H10.9807V10.9806Z" fill="white"/>
<path d="M27.7807 10.9806H25.9141V11.5999H27.7807V10.9806Z" fill="white"/>
<path d="M29.0191 10.9806H28.3999V11.5999H29.0191V10.9806Z" fill="white"/>
<path d="M30.2667 10.9806H29.6475V11.5999H30.2667V10.9806Z" fill="white"/>
<path d="M10.9807 11.6003H9.11401V12.2195H10.9807V11.6003Z" fill="white"/>
<path d="M27.7807 11.6003H25.9141V12.2195H27.7807V11.6003Z" fill="white"/>
<path d="M29.0191 11.6003H28.3999V12.2195H29.0191V11.6003Z" fill="white"/>
<path d="M30.2667 11.6003H29.6475V12.2195H30.2667V11.6003Z" fill="white"/>
<path d="M10.9807 12.219H9.11401V12.8382H10.9807V12.219Z" fill="white"/>
<path d="M13.4666 12.219H12.8474V12.8382H13.4666V12.219Z" fill="white"/>
<path d="M28.4 12.219H25.9141V12.8382H28.4V12.219Z" fill="white"/>
<path d="M29.6385 12.219H29.0193V12.8382H29.6385V12.219Z" fill="white"/>
<path d="M10.9807 12.8474H9.11401V13.4666H10.9807V12.8474Z" fill="white"/>
<path d="M13.4666 12.8474H12.8474V13.4666H13.4666V12.8474Z" fill="white"/>
<path d="M27.1615 12.8474H25.9141V13.4666H27.1615V12.8474Z" fill="white"/>
<path d="M29.0191 12.8474H28.3999V13.4666H29.0191V12.8474Z" fill="white"/>
<path d="M30.2667 12.8474H29.6475V13.4666H30.2667V12.8474Z" fill="white"/>
<path d="M10.9807 13.467H9.11401V14.0862H10.9807V13.467Z" fill="white"/>
<path d="M14.0948 13.467H12.8474V14.0862H14.0948V13.467Z" fill="white"/>
<path d="M28.4 13.467H25.9141V14.0862H28.4V13.467Z" fill="white"/>
<path d="M29.6385 13.467H29.0193V14.0862H29.6385V13.467Z" fill="white"/>
<path d="M10.9807 14.0858H9.11401V14.705H10.9807V14.0858Z" fill="white"/>
<path d="M13.4666 14.0858H12.8474V14.705H13.4666V14.0858Z" fill="white"/>
<path d="M19.6858 14.0858H15.3333V14.705H19.6858V14.0858Z" fill="white"/>
<path d="M27.7807 14.0858H25.9141V14.705H27.7807V14.0858Z" fill="white"/>
<path d="M29.0191 14.0858H28.3999V14.705H29.0191V14.0858Z" fill="white"/>
<path d="M30.2667 14.0858H29.6475V14.705H30.2667V14.0858Z" fill="white"/>
<path d="M10.9807 14.7141H9.11401V15.3334H10.9807V14.7141Z" fill="white"/>
<path d="M19.6949 14.7141H14.7141V15.3334H19.6949V14.7141Z" fill="white"/>
<path d="M27.7807 14.7141H25.9141V15.3334H27.7807V14.7141Z" fill="white"/>
<path d="M29.0191 14.7141H28.3999V15.3334H29.0191V14.7141Z" fill="white"/>
<path d="M30.2667 14.7141H29.6475V15.3334H30.2667V14.7141Z" fill="white"/>
<path d="M10.9807 15.3338H9.11401V15.953H10.9807V15.3338Z" fill="white"/>
<path d="M17.2 15.3338H14.7141V15.953H17.2V15.3338Z" fill="white"/>
<path d="M27.7807 15.3338H25.9141V15.953H27.7807V15.3338Z" fill="white"/>
<path d="M29.0191 15.3338H28.3999V15.953H29.0191V15.3338Z" fill="white"/>
<path d="M30.2667 15.3338H29.6475V15.953H30.2667V15.3338Z" fill="white"/>
<path d="M10.9807 15.9525H9.11401V16.5717H10.9807V15.9525Z" fill="white"/>
<path d="M17.1999 15.9525H15.3333V16.5717H17.1999V15.9525Z" fill="white"/>
<path d="M22.8001 15.9525H17.8193V16.5717H22.8001V15.9525Z" fill="white"/>
<path d="M27.7807 15.9525H25.9141V16.5717H27.7807V15.9525Z" fill="white"/>
<path d="M29.0191 15.9525H28.3999V16.5717H29.0191V15.9525Z" fill="white"/>
<path d="M30.2667 15.9525H29.6475V16.5717H30.2667V15.9525Z" fill="white"/>
<path d="M10.9807 16.5809H9.11401V17.2001H10.9807V16.5809Z" fill="white"/>
<path d="M22.1807 16.5809H15.3333V17.2001H22.1807V16.5809Z" fill="white"/>
<path d="M28.4 16.5809H25.9141V17.2001H28.4V16.5809Z" fill="white"/>
<path d="M29.6385 16.5809H29.0193V17.2001H29.6385V16.5809Z" fill="white"/>
<path d="M10.9807 17.2005H9.11401V17.8197H10.9807V17.2005Z" fill="white"/>
<path d="M22.8001 17.2005H17.8193V17.8197H22.8001V17.2005Z" fill="white"/>
<path d="M27.7807 17.2005H25.9141V17.8197H27.7807V17.2005Z" fill="white"/>
<path d="M29.0191 17.2005H28.3999V17.8197H29.0191V17.2005Z" fill="white"/>
<path d="M30.2667 17.2005H29.6475V17.8197H30.2667V17.2005Z" fill="white"/>
<path d="M10.9807 17.8192H9.11401V18.4385H10.9807V17.8192Z" fill="white"/>
<path d="M22.1807 17.8192H17.2V18.4385H22.1807V17.8192Z" fill="white"/>
<path d="M27.1615 17.8192H25.9141V18.4385H27.1615V17.8192Z" fill="white"/>
<path d="M28.4 17.8192H27.7808V18.4385H28.4V17.8192Z" fill="white"/>
<path d="M29.6385 17.8192H29.0193V18.4385H29.6385V17.8192Z" fill="white"/>
<path d="M10.9807 18.4476H9.11401V19.0669H10.9807V18.4476Z" fill="white"/>
<path d="M19.0667 18.4476H18.4475V19.0669H19.0667V18.4476Z" fill="white"/>
<path d="M20.305 18.4476H19.6858V19.0669H20.305V18.4476Z" fill="white"/>
<path d="M22.1808 18.4476H20.9333V19.0669H22.1808V18.4476Z" fill="white"/>
<path d="M27.7807 18.4476H25.9141V19.0669H27.7807V18.4476Z" fill="white"/>
<path d="M29.0191 18.4476H28.3999V19.0669H29.0191V18.4476Z" fill="white"/>
<path d="M30.2667 18.4476H29.6475V19.0669H30.2667V18.4476Z" fill="white"/>
<path d="M10.9807 19.0664H9.11401V19.6856H10.9807V19.0664Z" fill="white"/>
<path d="M27.7807 19.0664H25.9141V19.6856H27.7807V19.0664Z" fill="white"/>
<path d="M29.0191 19.0664H28.3999V19.6856H29.0191V19.0664Z" fill="white"/>
<path d="M30.2667 19.0664H29.6475V19.6856H30.2667V19.0664Z" fill="white"/>
<path d="M10.9807 19.686H9.11401V20.3052H10.9807V19.686Z" fill="white"/>
<path d="M28.4 19.686H25.9141V20.3052H28.4V19.686Z" fill="white"/>
<path d="M29.6385 19.686H29.0193V20.3052H29.6385V19.686Z" fill="white"/>
<path d="M10.9807 20.3144H9.11401V20.9336H10.9807V20.3144Z" fill="white"/>
<path d="M27.1615 20.3144H25.9141V20.9336H27.1615V20.3144Z" fill="white"/>
<path d="M29.0191 20.3144H28.3999V20.9336H29.0191V20.3144Z" fill="white"/>
<path d="M30.2667 20.3144H29.6475V20.9336H30.2667V20.3144Z" fill="white"/>
<path d="M11.5999 20.9331H9.11401V21.5524H11.5999V20.9331Z" fill="white"/>
<path d="M12.8385 20.9331H12.2192V21.5524H12.8385V20.9331Z" fill="white"/>
<path d="M14.0858 20.9331H13.4666V21.5524H14.0858V20.9331Z" fill="white"/>
<path d="M15.3333 20.9331H14.7141V21.5524H15.3333V20.9331Z" fill="white"/>
<path d="M16.5719 20.9331H15.9526V21.5524H16.5719V20.9331Z" fill="white"/>
<path d="M17.8192 20.9331H17.2V21.5524H17.8192V20.9331Z" fill="white"/>
<path d="M19.0667 20.9331H18.4475V21.5524H19.0667V20.9331Z" fill="white"/>
<path d="M20.305 20.9331H19.6858V21.5524H20.305V20.9331Z" fill="white"/>
<path d="M21.5526 20.9331H20.9333V21.5524H21.5526V20.9331Z" fill="white"/>
<path d="M22.7999 20.9331H22.1807V21.5524H22.7999V20.9331Z" fill="white"/>
<path d="M24.0384 20.9331H23.4192V21.5524H24.0384V20.9331Z" fill="white"/>
<path d="M25.286 20.9331H24.6667V21.5524H25.286V20.9331Z" fill="white"/>
<path d="M28.4 20.9331H25.9141V21.5524H28.4V20.9331Z" fill="white"/>
<path d="M29.6385 20.9331H29.0193V21.5524H29.6385V20.9331Z" fill="white"/>
<path d="M10.3614 21.5527H9.11401V22.172H10.3614V21.5527Z" fill="white"/>
<path d="M27.7807 21.5527H10.9807V22.172H27.7807V21.5527Z" fill="white"/>
<path d="M29.0191 21.5527H28.3999V22.172H29.0191V21.5527Z" fill="white"/>
<path d="M30.2667 21.5527H29.6475V22.172H30.2667V21.5527Z" fill="white"/>
<path d="M27.7806 22.1811H9.11401V22.8004H27.7806V22.1811Z" fill="white"/>
<path d="M29.0191 22.1811H28.3999V22.8004H29.0191V22.1811Z" fill="white"/>
<path d="M10.3614 22.7999H9.11401V23.4191H10.3614V22.7999Z" fill="white"/>
<path d="M11.5999 22.7999H10.9807V23.4191H11.5999V22.7999Z" fill="white"/>
<path d="M12.8385 22.7999H12.2192V23.4191H12.8385V22.7999Z" fill="white"/>
<path d="M14.0858 22.7999H13.4666V23.4191H14.0858V22.7999Z" fill="white"/>
<path d="M15.3333 22.7999H14.7141V23.4191H15.3333V22.7999Z" fill="white"/>
<path d="M16.5719 22.7999H15.9526V23.4191H16.5719V22.7999Z" fill="white"/>
<path d="M17.8192 22.7999H17.2V23.4191H17.8192V22.7999Z" fill="white"/>
<path d="M19.0667 22.7999H18.4475V23.4191H19.0667V22.7999Z" fill="white"/>
<path d="M20.305 22.7999H19.6858V23.4191H20.305V22.7999Z" fill="white"/>
<path d="M21.5526 22.7999H20.9333V23.4191H21.5526V22.7999Z" fill="white"/>
<path d="M22.7999 22.7999H22.1807V23.4191H22.7999V22.7999Z" fill="white"/>
<path d="M24.0384 22.7999H23.4192V23.4191H24.0384V22.7999Z" fill="white"/>
<path d="M25.286 22.7999H24.6667V23.4191H25.286V22.7999Z" fill="white"/>
<path d="M26.5333 22.7999H25.9141V23.4191H26.5333V22.7999Z" fill="white"/>
<path d="M27.7718 22.7999H27.1526V23.4191H27.7718V22.7999Z" fill="white"/>
<path d="M10.9718 23.4195H10.3525V24.0387H10.9718V23.4195Z" fill="white"/>
<path d="M12.2193 23.4195H11.6001V24.0387H12.2193V23.4195Z" fill="white"/>
<path d="M14.7052 23.4195H14.0859V24.0387H14.7052V23.4195Z" fill="white"/>
<path d="M17.2 23.4195H16.5808V24.0387H17.2V23.4195Z" fill="white"/>
<path d="M19.6859 23.4195H19.0667V24.0387H19.6859V23.4195Z" fill="white"/>
<path d="M32.7524 23.4195H30.8857V24.0387H32.7524V23.4195Z" fill="white"/>
<path d="M29.0191 24.0479H28.3999V24.6671H29.0191V24.0479Z" fill="white"/>
<path d="M31.514 24.0479H30.2666V24.6671H31.514V24.0479Z" fill="white"/>
<path d="M30.8949 24.6666H29.6475V25.2859H30.8949V24.6666Z" fill="white"/>
<path d="M32.7525 24.6666H32.1333V25.2859H32.7525V24.6666Z" fill="white"/>
<path d="M9.73336 25.2863H7.8667V25.9055H9.73336V25.2863Z" fill="white"/>
<path d="M13.4666 25.2863H10.3525V25.9055H13.4666V25.2863Z" fill="white"/>
<path d="M15.9526 25.2863H14.0859V25.9055H15.9526V25.2863Z" fill="white"/>
<path d="M18.4475 25.2863H16.5808V25.9055H18.4475V25.2863Z" fill="white"/>
<path d="M20.9333 25.2863H19.0667V25.9055H20.9333V25.2863Z" fill="white"/>
<path d="M23.4192 25.2863H21.5525V25.9055H23.4192V25.2863Z" fill="white"/>
<path d="M25.914 25.2863H24.0474V25.9055H25.914V25.2863Z" fill="white"/>
<path d="M30.2665 25.2863H26.5332V25.9055H30.2665V25.2863Z" fill="white"/>
<path d="M32.1332 25.2863H30.8857V25.9055H32.1332V25.2863Z" fill="white"/>
<path d="M29.6475 25.9146H7.24756V26.5339H29.6475V25.9146Z" fill="white"/>
<path d="M30.8858 25.9146H30.2666V26.5339H30.8858V25.9146Z" fill="white"/>
<path d="M32.7616 25.9146H31.5142V26.5339H32.7616V25.9146Z" fill="white"/>
<path d="M30.2665 26.5334H6.61914V27.1526H30.2665V26.5334Z" fill="white"/>
<path d="M31.505 26.5334H30.8857V27.1526H31.505V26.5334Z" fill="white"/>
<path d="M8.4858 27.153H6.61914V27.7722H8.4858V27.153Z" fill="white"/>
<path d="M9.73324 27.153H9.11401V27.7722H9.73324V27.153Z" fill="white"/>
<path d="M11.6 27.153H10.3525V27.7722H11.6V27.153Z" fill="white"/>
<path d="M12.8385 27.153H12.2192V27.7722H12.8385V27.153Z" fill="white"/>
<path d="M14.714 27.153H13.4666V27.7722H14.714V27.153Z" fill="white"/>
<path d="M16.5807 27.153H15.3333V27.7722H16.5807V27.153Z" fill="white"/>
<path d="M18.4474 27.153H17.2V27.7722H18.4474V27.153Z" fill="white"/>
<path d="M19.6859 27.153H19.0667V27.7722H19.6859V27.153Z" fill="white"/>
<path d="M20.9332 27.153H20.314V27.7722H20.9332V27.153Z" fill="white"/>
<path d="M22.1717 27.153H21.5525V27.7722H22.1717V27.153Z" fill="white"/>
<path d="M23.4193 27.153H22.8V27.7722H23.4193V27.153Z" fill="white"/>
<path d="M24.6666 27.153H24.0474V27.7722H24.6666V27.153Z" fill="white"/>
<path d="M25.9051 27.153H25.2859V27.7722H25.9051V27.153Z" fill="white"/>
<path d="M27.1524 27.153H26.5332V27.7722H27.1524V27.153Z" fill="white"/>
<path d="M28.4 27.153H27.7808V27.7722H28.4V27.153Z" fill="white"/>
<path d="M29.6385 27.153H29.0193V27.7722H29.6385V27.153Z" fill="white"/>
<path d="M30.8858 27.153H30.2666V27.7722H30.8858V27.153Z" fill="white"/>
<path d="M32.7616 27.153H31.5142V27.7722H32.7616V27.153Z" fill="white"/>
<path d="M10.9717 27.7805H6.61914V28.3998H10.9717V27.7805Z" fill="white"/>
<path d="M14.086 27.7805H11.6001V28.3998H14.086V27.7805Z" fill="white"/>
<path d="M17.8282 27.7805H14.7141V28.3998H17.8282V27.7805Z" fill="white"/>
<path d="M19.0667 27.7805H18.4475V28.3998H19.0667V27.7805Z" fill="white"/>
<path d="M20.305 27.7805H19.6858V28.3998H20.305V27.7805Z" fill="white"/>
<path d="M21.5526 27.7805H20.9333V28.3998H21.5526V27.7805Z" fill="white"/>
<path d="M22.7999 27.7805H22.1807V28.3998H22.7999V27.7805Z" fill="white"/>
<path d="M24.0384 27.7805H23.4192V28.3998H24.0384V27.7805Z" fill="white"/>
<path d="M25.286 27.7805H24.6667V28.3998H25.286V27.7805Z" fill="white"/>
<path d="M26.5333 27.7805H25.9141V28.3998H26.5333V27.7805Z" fill="white"/>
<path d="M29.6385 27.7805H27.1526V28.3998H29.6385V27.7805Z" fill="white"/>
<path d="M30.8858 27.7805H30.2666V28.3998H30.8858V27.7805Z" fill="white"/>
<path d="M32.1334 27.7805H31.5142V28.3998H32.1334V27.7805Z" fill="white"/>
<path d="M7.86657 28.4001H6.61914V29.0194H7.86657V28.4001Z" fill="white"/>
<path d="M9.10507 28.4001H8.48584V29.0194H9.10507V28.4001Z" fill="white"/>
<path d="M12.8474 28.4001H10.9807V29.0194H12.8474V28.4001Z" fill="white"/>
<path d="M15.3332 28.4001H13.4666V29.0194H15.3332V28.4001Z" fill="white"/>
<path d="M19.0667 28.4001H15.9526V29.0194H19.0667V28.4001Z" fill="white"/>
<path d="M29.0282 28.4001H27.7808V29.0194H29.0282V28.4001Z" fill="white"/>
<path d="M30.2667 28.4001H29.6475V29.0194H30.2667V28.4001Z" fill="white"/>
<path d="M31.505 28.4001H30.8857V29.0194H31.505V28.4001Z" fill="white"/>
<path d="M32.7525 28.4001H32.1333V29.0194H32.7525V28.4001Z" fill="white"/>
<path d="M9.73324 29.0198H6.61914V29.639H9.73324V29.0198Z" fill="white"/>
<path d="M11.5999 29.0198H10.9807V29.639H11.5999V29.0198Z" fill="white"/>
<path d="M15.9526 29.0198H12.2192V29.639H15.9526V29.0198Z" fill="white"/>
<path d="M17.2 29.0198H16.5808V29.639H17.2V29.0198Z" fill="white"/>
<path d="M19.0668 29.0198H17.8193V29.639H19.0668V29.0198Z" fill="white"/>
<path d="M20.305 29.0198H19.6858V29.639H20.305V29.0198Z" fill="white"/>
<path d="M21.5526 29.0198H20.9333V29.639H21.5526V29.0198Z" fill="white"/>
<path d="M22.7999 29.0198H22.1807V29.639H22.7999V29.0198Z" fill="white"/>
<path d="M24.0384 29.0198H23.4192V29.639H24.0384V29.0198Z" fill="white"/>
<path d="M25.286 29.0198H24.6667V29.639H25.286V29.0198Z" fill="white"/>
<path d="M26.5333 29.0198H25.9141V29.639H26.5333V29.0198Z" fill="white"/>
<path d="M27.7718 29.0198H27.1526V29.639H27.7718V29.0198Z" fill="white"/>
<path d="M30.2666 29.0198H28.3999V29.639H30.2666V29.0198Z" fill="white"/>
<path d="M31.505 29.0198H30.8857V29.639H31.505V29.0198Z" fill="white"/>
<path d="M32.7525 29.0198H32.1333V29.639H32.7525V29.0198Z" fill="white"/>
<path d="M9.10503 29.6473H6.61914V30.2665H9.10503V29.6473Z" fill="white"/>
<path d="M13.4666 29.6473H10.9807V30.2665H13.4666V29.6473Z" fill="white"/>
<path d="M14.7052 29.6473H14.0859V30.2665H14.7052V29.6473Z" fill="white"/>
<path d="M24.6666 29.6473H15.3333V30.2665H24.6666V29.6473Z" fill="white"/>
<path d="M29.6384 29.6473H25.2859V30.2665H29.6384V29.6473Z" fill="white"/>
<path d="M30.8858 29.6473H30.2666V30.2665H30.8858V29.6473Z" fill="white"/>
<path d="M32.1334 29.6473H31.5142V30.2665H32.1334V29.6473Z" fill="white"/>
<path d="M7.86657 30.2669H6.61914V30.8861H7.86657V30.2669Z" fill="white"/>
<path d="M12.2192 30.2669H8.48584V30.8861H12.2192V30.2669Z" fill="white"/>
<path d="M16.5807 30.2669H12.8474V30.8861H16.5807V30.2669Z" fill="white"/>
<path d="M17.8192 30.2669H17.2V30.8861H17.8192V30.2669Z" fill="white"/>
<path d="M19.0667 30.2669H18.4475V30.8861H19.0667V30.2669Z" fill="white"/>
<path d="M20.9332 30.2669H19.6858V30.8861H20.9332V30.2669Z" fill="white"/>
<path d="M22.7999 30.2669H21.5525V30.8861H22.7999V30.2669Z" fill="white"/>
<path d="M26.5333 30.2669H23.4192V30.8861H26.5333V30.2669Z" fill="white"/>
<path d="M28.4 30.2669H27.1526V30.8861H28.4V30.2669Z" fill="white"/>
<path d="M29.6385 30.2669H29.0193V30.8861H29.6385V30.2669Z" fill="white"/>
<path d="M30.8858 30.2669H30.2666V30.8861H30.8858V30.2669Z" fill="white"/>
<path d="M32.1334 30.2669H31.5142V30.8861H32.1334V30.2669Z" fill="white"/>
<path d="M10.9717 30.8865H6.61914V31.5057H10.9717V30.8865Z" fill="white"/>
<path d="M14.086 30.8865H11.6001V31.5057H14.086V30.8865Z" fill="white"/>
<path d="M24.0474 30.8865H14.7141V31.5057H24.0474V30.8865Z" fill="white"/>
<path d="M29.6475 30.8865H24.6667V31.5057H29.6475V30.8865Z" fill="white"/>
<path d="M30.8858 30.8865H30.2666V31.5057H30.8858V30.8865Z" fill="white"/>
<path d="M8.4858 31.514H6.61914V32.1332H8.4858V31.514Z" fill="white"/>
<path d="M9.73324 31.514H9.11401V32.1332H9.73324V31.514Z" fill="white"/>
<path d="M12.8384 31.514H10.3525V32.1332H12.8384V31.514Z" fill="white"/>
<path d="M15.3332 31.514H13.4666V32.1332H15.3332V31.514Z" fill="white"/>
<path d="M16.5719 31.514H15.9526V32.1332H16.5719V31.514Z" fill="white"/>
<path d="M17.8192 31.514H17.2V32.1332H17.8192V31.514Z" fill="white"/>
<path d="M19.0667 31.514H18.4475V32.1332H19.0667V31.514Z" fill="white"/>
<path d="M20.305 31.514H19.6858V32.1332H20.305V31.514Z" fill="white"/>
<path d="M21.5526 31.514H20.9333V32.1332H21.5526V31.514Z" fill="white"/>
<path d="M22.7999 31.514H22.1807V32.1332H22.7999V31.514Z" fill="white"/>
<path d="M25.2859 31.514H23.4192V32.1332H25.2859V31.514Z" fill="white"/>
<path d="M26.5333 31.514H25.9141V32.1332H26.5333V31.514Z" fill="white"/>
<path d="M27.7718 31.514H27.1526V32.1332H27.7718V31.514Z" fill="white"/>
<path d="M29.0191 31.514H28.3999V32.1332H29.0191V31.514Z" fill="white"/>
<path d="M30.2667 31.514H29.6475V32.1332H30.2667V31.514Z" fill="white"/>
<path d="M7.23837 32.1336H6.61914V32.7529H7.23837V32.1336Z" fill="white"/>
<path d="M9.73324 32.1336H9.11401V32.7529H9.73324V32.1336Z" fill="white"/>
<path d="M10.9718 32.1336H10.3525V32.7529H10.9718V32.1336Z" fill="white"/>
<path d="M14.0858 32.1336H13.4666V32.7529H14.0858V32.1336Z" fill="white"/>
<path d="M16.5719 32.1336H15.9526V32.7529H16.5719V32.1336Z" fill="white"/>
<path d="M17.8192 32.1336H17.2V32.7529H17.8192V32.1336Z" fill="white"/>
<path d="M19.0667 32.1336H18.4475V32.7529H19.0667V32.1336Z" fill="white"/>
<path d="M20.305 32.1336H19.6858V32.7529H20.305V32.1336Z" fill="white"/>
<path d="M21.5526 32.1336H20.9333V32.7529H21.5526V32.1336Z" fill="white"/>
<path d="M22.7999 32.1336H22.1807V32.7529H22.7999V32.1336Z" fill="white"/>
<path d="M24.0384 32.1336H23.4192V32.7529H24.0384V32.1336Z" fill="white"/>
<path d="M26.5333 32.1336H25.9141V32.7529H26.5333V32.1336Z" fill="white"/>
<path d="M27.7718 32.1336H27.1526V32.7529H27.7718V32.1336Z" fill="white"/>
<path d="M29.0191 32.1336H28.3999V32.7529H29.0191V32.1336Z" fill="white"/>
<path d="M30.2667 32.1336H29.6475V32.7529H30.2667V32.1336Z" fill="white"/>
</svg>
