<svg width="40" height="40" viewBox="0 0 40 40" fill="none" xmlns="http://www.w3.org/2000/svg">
<path d="M15.4248 6H13.469V6.67039H15.4248V6Z" fill="black"/>
<path d="M18.0266 6H16.0708V6.67039H18.0266V6Z" fill="black"/>
<path d="M20.6284 6H18.6726V6.67039H20.6284V6Z" fill="black"/>
<path d="M23.8849 6H21.2832V6.67039H23.8849V6Z" fill="black"/>
<path d="M26.4956 6H24.5398V6.67039H26.4956V6Z" fill="black"/>
<path d="M29.0974 6H27.1416V6.67039H29.0974V6Z" fill="black"/>
<path d="M13.4691 6.67082H12.8142V7.34121H13.4691V6.67082Z" fill="black"/>
<path d="M16.0708 6.67082H14.115V7.34121H16.0708V6.67082Z" fill="black"/>
<path d="M18.6814 6.67082H16.7256V7.34121H18.6814V6.67082Z" fill="black"/>
<path d="M21.2832 6.67082H19.3274V7.34121H21.2832V6.67082Z" fill="black"/>
<path d="M24.5398 6.67082H22.584V7.34121H24.5398V6.67082Z" fill="black"/>
<path d="M27.1416 6.67082H25.1858V7.34121H27.1416V6.67082Z" fill="black"/>
<path d="M30.3984 6.67082H27.7966V7.34121H30.3984V6.67082Z" fill="black"/>
<path d="M31.0441 7.33177H12.1592V8.00216H31.0441V7.33177Z" fill="black"/>
<path d="M12.814 8.00169H11.5132V8.67208H12.814V8.00169Z" fill="black"/>
<path d="M14.1239 8.00169H13.469V8.67208H14.1239V8.00169Z" fill="black"/>
<path d="M17.3717 8.00169H16.0708V8.67208H17.3717V8.00169Z" fill="black"/>
<path d="M19.9735 8.00169H18.6726V8.67208H19.9735V8.00169Z" fill="black"/>
<path d="M22.5841 8.00169H21.9292V8.67208H22.5841V8.00169Z" fill="black"/>
<path d="M25.1859 8.00169H23.885V8.67208H25.1859V8.00169Z" fill="black"/>
<path d="M28.4425 8.00169H27.1416V8.67208H28.4425V8.00169Z" fill="black"/>
<path d="M31.6991 8.00169H29.0974V8.67208H31.6991V8.00169Z" fill="black"/>
<path d="M12.814 8.66354H11.5132V9.33393H12.814V8.66354Z" fill="black"/>
<path d="M22.5841 8.66354H21.9292V9.33393H22.5841V8.66354Z" fill="black"/>
<path d="M29.7432 8.66354H28.4424V9.33393H29.7432V8.66354Z" fill="black"/>
<path d="M33 8.66354H31.0442V9.33393H33V8.66354Z" fill="black"/>
<path d="M12.1593 9.33347H10.8584V10.0039H12.1593V9.33347Z" fill="black"/>
<path d="M15.4249 9.33347H14.77V10.0039H15.4249V9.33347Z" fill="black"/>
<path d="M16.7257 9.33347H16.0708V10.0039H16.7257V9.33347Z" fill="black"/>
<path d="M20.6283 9.33347H19.9734V10.0039H20.6283V9.33347Z" fill="black"/>
<path d="M25.8407 9.33347H25.1858V10.0039H25.8407V9.33347Z" fill="black"/>
<path d="M29.7524 9.33347H27.7966V10.0039H29.7524V9.33347Z" fill="black"/>
<path d="M31.0531 9.33347H30.3982V10.0039H31.0531V9.33347Z" fill="black"/>
<path d="M32.9998 9.33347H31.699V10.0039H32.9998V9.33347Z" fill="black"/>
<path d="M11.5133 10.0043H10.2124V10.6747H11.5133V10.0043Z" fill="black"/>
<path d="M14.1239 10.0043H13.469V10.6747H14.1239V10.0043Z" fill="black"/>
<path d="M18.0265 10.0043H17.3716V10.6747H18.0265V10.0043Z" fill="black"/>
<path d="M23.8849 10.0043H23.23V10.6747H23.8849V10.0043Z" fill="black"/>
<path d="M27.1415 10.0043H26.4866V10.6747H27.1415V10.0043Z" fill="black"/>
<path d="M29.7432 10.0043H28.4424V10.6747H29.7432V10.0043Z" fill="black"/>
<path d="M33 10.0043H31.0442V10.6747H33V10.0043Z" fill="black"/>
<path d="M11.5133 10.6652H10.2124V11.3356H11.5133V10.6652Z" fill="black"/>
<path d="M21.9381 10.6652H21.2832V11.3356H21.9381V10.6652Z" fill="black"/>
<path d="M29.0975 10.6652H27.7966V11.3356H29.0975V10.6652Z" fill="black"/>
<path d="M30.3981 10.6652H29.7432V11.3356H30.3981V10.6652Z" fill="black"/>
<path d="M33 10.6652H31.0442V11.3356H33V10.6652Z" fill="black"/>
<path d="M11.5132 11.3352H9.55737V12.0055H11.5132V11.3352Z" fill="black"/>
<path d="M21.2742 11.3352H14.115V12.0055H21.2742V11.3352Z" fill="black"/>
<path d="M23.2301 11.3352H21.9292V12.0055H23.2301V11.3352Z" fill="black"/>
<path d="M25.1947 11.3352H24.5398V12.0055H25.1947V11.3352Z" fill="black"/>
<path d="M29.0974 11.3352H27.1416V12.0055H29.0974V11.3352Z" fill="black"/>
<path d="M32.9998 11.3352H31.699V12.0055H32.9998V11.3352Z" fill="black"/>
<path d="M10.8582 11.997H9.55737V12.6674H10.8582V11.997Z" fill="black"/>
<path d="M12.8141 11.997H12.1592V12.6674H12.8141V11.997Z" fill="black"/>
<path d="M23.23 11.997H14.115V12.6674H23.23V11.997Z" fill="black"/>
<path d="M27.1415 11.997H26.4866V12.6674H27.1415V11.997Z" fill="black"/>
<path d="M28.4515 11.997H27.7966V12.6674H28.4515V11.997Z" fill="black"/>
<path d="M32.9999 11.997H30.3982V12.6674H32.9999V11.997Z" fill="black"/>
<path d="M10.8582 12.6669H9.55737V13.3373H10.8582V12.6669Z" fill="black"/>
<path d="M24.5399 12.6669H23.885V13.3373H24.5399V12.6669Z" fill="black"/>
<path d="M26.4957 12.6669H25.8408V13.3373H26.4957V12.6669Z" fill="black"/>
<path d="M28.4425 12.6669H27.1416V13.3373H28.4425V12.6669Z" fill="black"/>
<path d="M29.7523 12.6669H29.0974V13.3373H29.7523V12.6669Z" fill="black"/>
<path d="M33 12.6669H31.0442V13.3373H33V12.6669Z" fill="black"/>
<path d="M10.2125 13.3288H8.91162V13.9992H10.2125V13.3288Z" fill="black"/>
<path d="M22.584 13.3288H13.469V13.9992H22.584V13.3288Z" fill="black"/>
<path d="M28.4424 13.3288H26.4866V13.9992H28.4424V13.3288Z" fill="black"/>
<path d="M32.9998 13.3288H31.699V13.9992H32.9998V13.3288Z" fill="black"/>
<path d="M10.2125 13.9987H8.91162V14.6691H10.2125V13.9987Z" fill="black"/>
<path d="M12.1681 13.9987H11.5132V14.6691H12.1681V13.9987Z" fill="black"/>
<path d="M14.1239 13.9987H13.469V14.6691H14.1239V13.9987Z" fill="black"/>
<path d="M16.7258 13.9987H14.77V14.6691H16.7258V13.9987Z" fill="black"/>
<path d="M19.3274 13.9987H17.3716V14.6691H19.3274V13.9987Z" fill="black"/>
<path d="M22.5751 13.9987H19.9734V14.6691H22.5751V13.9987Z" fill="black"/>
<path d="M28.4424 13.9987H26.4866V14.6691H28.4424V13.9987Z" fill="black"/>
<path d="M30.3981 13.9987H29.7432V14.6691H30.3981V13.9987Z" fill="black"/>
<path d="M33 13.9987H31.0442V14.6691H33V13.9987Z" fill="black"/>
<path d="M9.55745 14.6695H8.25659V15.3399H9.55745V14.6695Z" fill="black"/>
<path d="M23.8849 14.6695H23.23V15.3399H23.8849V14.6695Z" fill="black"/>
<path d="M27.1416 14.6695H25.1858V15.3399H27.1416V14.6695Z" fill="black"/>
<path d="M29.7432 14.6695H28.4424V15.3399H29.7432V14.6695Z" fill="black"/>
<path d="M33 14.6695H31.0442V15.3399H33V14.6695Z" fill="black"/>
<path d="M8.90267 15.3305H7.60181V16.0009H8.90267V15.3305Z" fill="black"/>
<path d="M12.8141 15.3305H12.1592V16.0009H12.8141V15.3305Z" fill="black"/>
<path d="M19.9823 15.3305H19.3274V16.0009H19.9823V15.3305Z" fill="black"/>
<path d="M27.1416 15.3305H25.1858V16.0009H27.1416V15.3305Z" fill="black"/>
<path d="M31.0531 15.3305H30.3982V16.0009H31.0531V15.3305Z" fill="black"/>
<path d="M32.9998 15.3305H31.699V16.0009H32.9998V15.3305Z" fill="black"/>
<path d="M8.90267 16.0004H7.60181V16.6708H8.90267V16.0004Z" fill="black"/>
<path d="M11.5133 16.0004H10.8584V16.6708H11.5133V16.0004Z" fill="black"/>
<path d="M22.5841 16.0004H12.8142V16.6708H22.5841V16.0004Z" fill="black"/>
<path d="M25.1947 16.0004H24.5398V16.6708H25.1947V16.0004Z" fill="black"/>
<path d="M26.4957 16.0004H25.8408V16.6708H26.4957V16.0004Z" fill="black"/>
<path d="M27.7965 16.0004H27.1416V16.6708H27.7965V16.0004Z" fill="black"/>
<path d="M33 16.0004H31.0442V16.6708H33V16.0004Z" fill="black"/>
<path d="M8.90267 16.6623H7.60181V17.3327H8.90267V16.6623Z" fill="black"/>
<path d="M21.9292 16.6623H12.8142V17.3327H21.9292V16.6623Z" fill="black"/>
<path d="M26.4956 16.6623H24.5398V17.3327H26.4956V16.6623Z" fill="black"/>
<path d="M31.0531 16.6623H30.3982V17.3327H31.0531V16.6623Z" fill="black"/>
<path d="M32.9998 16.6623H31.699V17.3327H32.9998V16.6623Z" fill="black"/>
<path d="M8.25667 17.3322H6.95581V18.0026H8.25667V17.3322Z" fill="black"/>
<path d="M10.2123 17.3322H9.55737V18.0026H10.2123V17.3322Z" fill="black"/>
<path d="M18.0265 17.3322H17.3716V18.0026H18.0265V17.3322Z" fill="black"/>
<path d="M19.9823 17.3322H19.3274V18.0026H19.9823V17.3322Z" fill="black"/>
<path d="M21.2833 17.3322H20.6284V18.0026H21.2833V17.3322Z" fill="black"/>
<path d="M23.2389 17.3322H22.584V18.0026H23.2389V17.3322Z" fill="black"/>
<path d="M26.4956 17.3322H24.5398V18.0026H26.4956V17.3322Z" fill="black"/>
<path d="M29.0974 17.3322H27.1416V18.0026H29.0974V17.3322Z" fill="black"/>
<path d="M33 17.3322H31.0442V18.0026H33V17.3322Z" fill="black"/>
<path d="M7.61073 18.003H6.95581V18.6734H7.61073V18.003Z" fill="black"/>
<path d="M11.5133 18.003H10.8584V18.6734H11.5133V18.003Z" fill="black"/>
<path d="M14.7699 18.003H14.115V18.6734H14.7699V18.003Z" fill="black"/>
<path d="M21.9381 18.003H21.2832V18.6734H21.9381V18.003Z" fill="black"/>
<path d="M25.1859 18.003H23.885V18.6734H25.1859V18.003Z" fill="black"/>
<path d="M30.3981 18.003H29.7432V18.6734H30.3981V18.003Z" fill="black"/>
<path d="M33 18.003H31.0442V18.6734H33V18.003Z" fill="black"/>
<path d="M8.25656 18.664H6.30078V19.3343H8.25656V18.664Z" fill="black"/>
<path d="M9.56654 18.664H8.91162V19.3343H9.56654V18.664Z" fill="black"/>
<path d="M13.4691 18.664H12.8142V19.3343H13.4691V18.664Z" fill="black"/>
<path d="M16.7257 18.664H16.0708V19.3343H16.7257V18.664Z" fill="black"/>
<path d="M18.6815 18.664H18.0266V19.3343H18.6815V18.664Z" fill="black"/>
<path d="M20.6283 18.664H19.9734V19.3343H20.6283V18.664Z" fill="black"/>
<path d="M25.8408 18.664H23.885V19.3343H25.8408V18.664Z" fill="black"/>
<path d="M27.1415 18.664H26.4866V19.3343H27.1415V18.664Z" fill="black"/>
<path d="M32.9998 18.664H31.699V19.3343H32.9998V18.664Z" fill="black"/>
<path d="M6.95565 19.3339H5.65479V20.0043H6.95565V19.3339Z" fill="black"/>
<path d="M12.1681 19.3339H11.5132V20.0043H12.1681V19.3339Z" fill="black"/>
<path d="M18.0265 19.3339H17.3716V20.0043H18.0265V19.3339Z" fill="black"/>
<path d="M25.1858 19.3339H23.23V20.0043H25.1858V19.3339Z" fill="black"/>
<path d="M33 19.3339H31.0442V20.0043H33V19.3339Z" fill="black"/>
<path d="M6.95565 19.9957H5.65479V20.6661H6.95565V19.9957Z" fill="black"/>
<path d="M14.7699 19.9957H14.115V20.6661H14.7699V19.9957Z" fill="black"/>
<path d="M23.885 19.9957H21.9292V20.6661H23.885V19.9957Z" fill="black"/>
<path d="M25.8407 19.9957H24.5398V20.6661H25.8407V19.9957Z" fill="black"/>
<path d="M27.7874 19.9957H26.4866V20.6661H27.7874V19.9957Z" fill="black"/>
<path d="M29.0973 19.9957H28.4424V20.6661H29.0973V19.9957Z" fill="black"/>
<path d="M32.9999 19.9957H30.3982V20.6661H32.9999V19.9957Z" fill="black"/>
<path d="M6.3097 20.6656H5.65479V21.336H6.3097V20.6656Z" fill="black"/>
<path d="M7.61073 20.6656H6.95581V21.336H7.61073V20.6656Z" fill="black"/>
<path d="M9.56654 20.6656H8.91162V21.336H9.56654V20.6656Z" fill="black"/>
<path d="M10.8673 20.6656H10.2124V21.336H10.8673V20.6656Z" fill="black"/>
<path d="M13.4691 20.6656H12.8142V21.336H13.4691V20.6656Z" fill="black"/>
<path d="M16.7257 20.6656H16.0708V21.336H16.7257V20.6656Z" fill="black"/>
<path d="M19.3275 20.6656H18.6726V21.336H19.3275V20.6656Z" fill="black"/>
<path d="M20.6283 20.6656H19.9734V21.336H20.6283V20.6656Z" fill="black"/>
<path d="M24.5308 20.6656H23.23V21.336H24.5308V20.6656Z" fill="black"/>
<path d="M26.4957 20.6656H25.8408V21.336H26.4957V20.6656Z" fill="black"/>
<path d="M29.7523 20.6656H29.0974V21.336H29.7523V20.6656Z" fill="black"/>
<path d="M32.9998 20.6656H31.699V21.336H32.9998V20.6656Z" fill="black"/>
<path d="M6.30086 21.3275H5V21.9979H6.30086V21.3275Z" fill="black"/>
<path d="M18.0265 21.3275H17.3716V21.9979H18.0265V21.3275Z" fill="black"/>
<path d="M24.5398 21.3275H22.584V21.9979H24.5398V21.3275Z" fill="black"/>
<path d="M33 21.3275H31.0442V21.9979H33V21.3275Z" fill="black"/>
<path d="M6.30086 21.9974H5V22.6678H6.30086V21.9974Z" fill="black"/>
<path d="M15.4249 21.9974H14.77V22.6678H15.4249V21.9974Z" fill="black"/>
<path d="M23.2301 21.9974H21.9292V22.6678H23.2301V21.9974Z" fill="black"/>
<path d="M25.8407 21.9974H25.1858V22.6678H25.8407V21.9974Z" fill="black"/>
<path d="M33 21.9974H31.0442V22.6678H33V21.9974Z" fill="black"/>
<path d="M6.30086 22.6682H5V23.3386H6.30086V22.6682Z" fill="black"/>
<path d="M8.25667 22.6682H6.95581V23.3386H8.25667V22.6682Z" fill="black"/>
<path d="M10.2125 22.6682H8.91162V23.3386H10.2125V22.6682Z" fill="black"/>
<path d="M13.4601 22.6682H10.8584V23.3386H13.4601V22.6682Z" fill="black"/>
<path d="M14.7699 22.6682H14.115V23.3386H14.7699V22.6682Z" fill="black"/>
<path d="M17.3717 22.6682H16.0708V23.3386H17.3717V22.6682Z" fill="black"/>
<path d="M19.3275 22.6682H18.0266V23.3386H19.3275V22.6682Z" fill="black"/>
<path d="M21.2743 22.6682H19.9734V23.3386H21.2743V22.6682Z" fill="black"/>
<path d="M23.885 22.6682H21.9292V23.3386H23.885V22.6682Z" fill="black"/>
<path d="M25.1947 22.6682H24.5398V23.3386H25.1947V22.6682Z" fill="black"/>
<path d="M27.1417 22.6682H25.8408V23.3386H27.1417V22.6682Z" fill="black"/>
<path d="M28.4515 22.6682H27.7966V23.3386H28.4515V22.6682Z" fill="black"/>
<path d="M29.7523 22.6682H29.0974V23.3386H29.7523V22.6682Z" fill="black"/>
<path d="M31.0531 22.6682H30.3982V23.3386H31.0531V22.6682Z" fill="black"/>
<path d="M32.9998 22.6682H31.699V23.3386H32.9998V22.6682Z" fill="black"/>
<path d="M6.95578 23.3292H5V23.9996H6.95578V23.3292Z" fill="black"/>
<path d="M8.90267 23.3292H7.60181V23.9996H8.90267V23.3292Z" fill="black"/>
<path d="M10.8582 23.3292H9.55737V23.9996H10.8582V23.3292Z" fill="black"/>
<path d="M12.1681 23.3292H11.5132V23.9996H12.1681V23.3292Z" fill="black"/>
<path d="M16.0709 23.3292H12.8142V23.9996H16.0709V23.3292Z" fill="black"/>
<path d="M18.0264 23.3292H16.7256V23.9996H18.0264V23.3292Z" fill="black"/>
<path d="M19.9735 23.3292H18.6726V23.9996H19.9735V23.3292Z" fill="black"/>
<path d="M21.9293 23.3292H20.6284V23.9996H21.9293V23.3292Z" fill="black"/>
<path d="M23.2389 23.3292H22.584V23.9996H23.2389V23.3292Z" fill="black"/>
<path d="M24.5399 23.3292H23.885V23.9996H24.5399V23.3292Z" fill="black"/>
<path d="M25.8407 23.3292H25.1858V23.9996H25.8407V23.3292Z" fill="black"/>
<path d="M27.7965 23.3292H27.1416V23.9996H27.7965V23.3292Z" fill="black"/>
<path d="M33 23.3292H31.0442V23.9996H33V23.3292Z" fill="black"/>
<path d="M22.5839 23.9991H5.65479V24.6695H22.5839V23.9991Z" fill="black"/>
<path d="M33 23.9991H31.0442V24.6695H33V23.9991Z" fill="black"/>
<path d="M13.46 24.661H12.1592V25.3314H13.46V24.661Z" fill="black"/>
<path d="M23.8849 24.661H23.23V25.3314H23.8849V24.661Z" fill="black"/>
<path d="M31.0531 24.661H30.3982V25.3314H31.0531V24.661Z" fill="black"/>
<path d="M32.9998 24.661H31.699V25.3314H32.9998V24.661Z" fill="black"/>
<path d="M13.46 25.3309H12.1592V26.0013H13.46V25.3309Z" fill="black"/>
<path d="M14.7699 25.3309H14.115V26.0013H14.7699V25.3309Z" fill="black"/>
<path d="M16.0707 25.3309H15.4158V26.0013H16.0707V25.3309Z" fill="black"/>
<path d="M17.3805 25.3309H16.7256V26.0013H17.3805V25.3309Z" fill="black"/>
<path d="M18.6815 25.3309H18.0266V26.0013H18.6815V25.3309Z" fill="black"/>
<path d="M19.9823 25.3309H19.3274V26.0013H19.9823V25.3309Z" fill="black"/>
<path d="M21.2833 25.3309H20.6284V26.0013H21.2833V25.3309Z" fill="black"/>
<path d="M22.5841 25.3309H21.9292V26.0013H22.5841V25.3309Z" fill="black"/>
<path d="M24.5399 25.3309H23.885V26.0013H24.5399V25.3309Z" fill="black"/>
<path d="M25.8407 25.3309H25.1858V26.0013H25.8407V25.3309Z" fill="black"/>
<path d="M33 25.3309H31.0442V26.0013H33V25.3309Z" fill="black"/>
<path d="M14.115 26.0017H12.1592V26.6721H14.115V26.0017Z" fill="black"/>
<path d="M15.4249 26.0017H14.77V26.6721H15.4249V26.0017Z" fill="black"/>
<path d="M16.7257 26.0017H16.0708V26.6721H16.7257V26.0017Z" fill="black"/>
<path d="M18.0265 26.0017H17.3716V26.6721H18.0265V26.0017Z" fill="black"/>
<path d="M19.3275 26.0017H18.6726V26.6721H19.3275V26.0017Z" fill="black"/>
<path d="M20.6283 26.0017H19.9734V26.6721H20.6283V26.0017Z" fill="black"/>
<path d="M21.9381 26.0017H21.2832V26.6721H21.9381V26.0017Z" fill="black"/>
<path d="M23.2389 26.0017H22.584V26.6721H23.2389V26.0017Z" fill="black"/>
<path d="M24.5399 26.0017H23.885V26.6721H24.5399V26.0017Z" fill="black"/>
<path d="M25.8407 26.0017H25.1858V26.6721H25.8407V26.0017Z" fill="black"/>
<path d="M29.7432 26.0017H26.4866V26.6721H29.7432V26.0017Z" fill="black"/>
<path d="M31.0531 26.0017H30.3982V26.6721H31.0531V26.0017Z" fill="black"/>
<path d="M32.9998 26.0017H31.699V26.6721H32.9998V26.0017Z" fill="black"/>
<path d="M13.46 26.6627H12.1592V27.3331H13.46V26.6627Z" fill="black"/>
<path d="M33 26.6627H31.0442V27.3331H33V26.6627Z" fill="black"/>
<path d="M13.46 27.3335H12.1592V28.0039H13.46V27.3335Z" fill="black"/>
<path d="M16.0707 27.3335H15.4158V28.0039H16.0707V27.3335Z" fill="black"/>
<path d="M18.0265 27.3335H17.3716V28.0039H18.0265V27.3335Z" fill="black"/>
<path d="M19.9823 27.3335H19.3274V28.0039H19.9823V27.3335Z" fill="black"/>
<path d="M21.9381 27.3335H21.2832V28.0039H21.9381V27.3335Z" fill="black"/>
<path d="M23.8849 27.3335H23.23V28.0039H23.8849V27.3335Z" fill="black"/>
<path d="M31.0531 27.3335H30.3982V28.0039H31.0531V27.3335Z" fill="black"/>
<path d="M32.9998 27.3335H31.699V28.0039H32.9998V27.3335Z" fill="black"/>
<path d="M13.46 27.9944H12.1592V28.6648H13.46V27.9944Z" fill="black"/>
<path d="M14.7699 27.9944H14.115V28.6648H14.7699V27.9944Z" fill="black"/>
<path d="M17.3805 27.9944H16.7256V28.6648H17.3805V27.9944Z" fill="black"/>
<path d="M19.3275 27.9944H18.6726V28.6648H19.3275V27.9944Z" fill="black"/>
<path d="M21.2833 27.9944H20.6284V28.6648H21.2833V27.9944Z" fill="black"/>
<path d="M23.2389 27.9944H22.584V28.6648H23.2389V27.9944Z" fill="black"/>
<path d="M25.1947 27.9944H24.5398V28.6648H25.1947V27.9944Z" fill="black"/>
<path d="M33 27.9944H31.0442V28.6648H33V27.9944Z" fill="black"/>
<path d="M14.115 28.6644H12.1592V29.3348H14.115V28.6644Z" fill="black"/>
<path d="M16.0709 28.6644H14.77V29.3348H16.0709V28.6644Z" fill="black"/>
<path d="M17.3805 28.6644H16.7256V29.3348H17.3805V28.6644Z" fill="black"/>
<path d="M18.6815 28.6644H18.0266V29.3348H18.6815V28.6644Z" fill="black"/>
<path d="M19.9823 28.6644H19.3274V29.3348H19.9823V28.6644Z" fill="black"/>
<path d="M21.2833 28.6644H20.6284V29.3348H21.2833V28.6644Z" fill="black"/>
<path d="M22.5841 28.6644H21.9292V29.3348H22.5841V28.6644Z" fill="black"/>
<path d="M23.8849 28.6644H23.23V29.3348H23.8849V28.6644Z" fill="black"/>
<path d="M25.1947 28.6644H24.5398V29.3348H25.1947V28.6644Z" fill="black"/>
<path d="M27.1417 28.6644H25.8408V29.3348H27.1417V28.6644Z" fill="black"/>
<path d="M29.0975 28.6644H27.7966V29.3348H29.0975V28.6644Z" fill="black"/>
<path d="M30.3981 28.6644H29.7432V29.3348H30.3981V28.6644Z" fill="black"/>
<path d="M33 28.6644H31.0442V29.3348H33V28.6644Z" fill="black"/>
<path d="M13.46 29.3352H12.1592V30.0056H13.46V29.3352Z" fill="black"/>
<path d="M32.9998 29.3352H31.699V30.0056H32.9998V29.3352Z" fill="black"/>
<path d="M13.46 29.9961H12.1592V30.6665H13.46V29.9961Z" fill="black"/>
<path d="M33 29.9961H31.0442V30.6665H33V29.9961Z" fill="black"/>
<path d="M13.46 30.667H12.1592V31.3374H13.46V30.667Z" fill="black"/>
<path d="M30.3981 30.667H29.7432V31.3374H30.3981V30.667Z" fill="black"/>
<path d="M33 30.667H31.0442V31.3374H33V30.667Z" fill="black"/>
<path d="M14.1151 31.3279H12.8142V31.9983H14.1151V31.3279Z" fill="black"/>
<path d="M31.0531 31.3279H30.3982V31.9983H31.0531V31.3279Z" fill="black"/>
<path d="M32.9998 31.3279H31.699V31.9983H32.9998V31.3279Z" fill="black"/>
<path d="M30.3983 31.9978H12.8142V32.6682H30.3983V31.9978Z" fill="black"/>
<path d="M33 31.9978H31.0442V32.6682H33V31.9978Z" fill="black"/>
<path d="M18.0266 32.6597H12.8142V33.3301H18.0266V32.6597Z" fill="black"/>
<path d="M19.9735 32.6597H18.6726V33.3301H19.9735V32.6597Z" fill="black"/>
<path d="M21.9293 32.6597H20.6284V33.3301H21.9293V32.6597Z" fill="black"/>
<path d="M23.2389 32.6597H22.584V33.3301H23.2389V32.6597Z" fill="black"/>
<path d="M25.8408 32.6597H23.885V33.3301H25.8408V32.6597Z" fill="black"/>
<path d="M28.4424 32.6597H26.4866V33.3301H28.4424V32.6597Z" fill="black"/>
<path d="M31.6991 32.6597H29.0974V33.3301H31.6991V32.6597Z" fill="black"/>
<path d="M31.0531 33.3296H13.469V34H31.0531V33.3296Z" fill="black"/>
<path d="M22.5841 6.67082H21.9292V7.34121H22.5841V6.67082Z" fill="white"/>
<path d="M13.4691 8.00169H12.8142V8.67208H13.4691V8.00169Z" fill="white"/>
<path d="M16.0708 8.00169H14.115V8.67208H16.0708V8.00169Z" fill="white"/>
<path d="M18.6724 8.00169H17.3716V8.67208H18.6724V8.00169Z" fill="white"/>
<path d="M21.9292 8.00169H19.9734V8.67208H21.9292V8.00169Z" fill="white"/>
<path d="M23.8848 8.00169H22.584V8.67208H23.8848V8.00169Z" fill="white"/>
<path d="M27.1416 8.00169H25.1858V8.67208H27.1416V8.00169Z" fill="white"/>
<path d="M29.0973 8.00169H28.4424V8.67208H29.0973V8.00169Z" fill="white"/>
<path d="M21.9292 8.66354H12.8142V9.33393H21.9292V8.66354Z" fill="white"/>
<path d="M28.4424 8.66354H22.584V9.33393H28.4424V8.66354Z" fill="white"/>
<path d="M31.044 8.66354H29.7432V9.33393H31.044V8.66354Z" fill="white"/>
<path d="M14.7609 9.33347H12.1592V10.0039H14.7609V9.33347Z" fill="white"/>
<path d="M16.0707 9.33347H15.4158V10.0039H16.0707V9.33347Z" fill="white"/>
<path d="M19.9822 9.33347H16.7256V10.0039H19.9822V9.33347Z" fill="white"/>
<path d="M25.1859 9.33347H20.6284V10.0039H25.1859V9.33347Z" fill="white"/>
<path d="M27.7966 9.33347H25.8408V10.0039H27.7966V9.33347Z" fill="white"/>
<path d="M30.3981 9.33347H29.7432V10.0039H30.3981V9.33347Z" fill="white"/>
<path d="M31.6991 9.33347H31.0442V10.0039H31.6991V9.33347Z" fill="white"/>
<path d="M13.469 10.0043H11.5132V10.6747H13.469V10.0043Z" fill="white"/>
<path d="M17.3716 10.0043H14.115V10.6747H17.3716V10.0043Z" fill="white"/>
<path d="M23.239 10.0043H18.0266V10.6747H23.239V10.0043Z" fill="white"/>
<path d="M26.4867 10.0043H23.885V10.6747H26.4867V10.0043Z" fill="white"/>
<path d="M28.4425 10.0043H27.1416V10.6747H28.4425V10.0043Z" fill="white"/>
<path d="M31.044 10.0043H29.7432V10.6747H31.044V10.0043Z" fill="white"/>
<path d="M21.2831 10.6652H11.5132V11.3356H21.2831V10.6652Z" fill="white"/>
<path d="M27.7876 10.6652H21.9292V11.3356H27.7876V10.6652Z" fill="white"/>
<path d="M29.7523 10.6652H29.0974V11.3356H29.7523V10.6652Z" fill="white"/>
<path d="M31.0531 10.6652H30.3982V11.3356H31.0531V10.6652Z" fill="white"/>
<path d="M14.1149 11.3352H11.5132V12.0055H14.1149V11.3352Z" fill="white"/>
<path d="M21.9381 11.3352H21.2832V12.0055H21.9381V11.3352Z" fill="white"/>
<path d="M24.5308 11.3352H23.23V12.0055H24.5308V11.3352Z" fill="white"/>
<path d="M27.1416 11.3352H25.1858V12.0055H27.1416V11.3352Z" fill="white"/>
<path d="M31.6991 11.3352H29.0974V12.0055H31.6991V11.3352Z" fill="white"/>
<path d="M12.1593 11.997H10.8584V12.6674H12.1593V11.997Z" fill="white"/>
<path d="M14.1151 11.997H12.8142V12.6674H14.1151V11.997Z" fill="white"/>
<path d="M26.4866 11.997H23.23V12.6674H26.4866V11.997Z" fill="white"/>
<path d="M27.7965 11.997H27.1416V12.6674H27.7965V11.997Z" fill="white"/>
<path d="M30.3982 11.997H28.4424V12.6674H30.3982V11.997Z" fill="white"/>
<path d="M23.885 12.6669H10.8584V13.3373H23.885V12.6669Z" fill="white"/>
<path d="M25.8407 12.6669H24.5398V13.3373H25.8407V12.6669Z" fill="white"/>
<path d="M27.1415 12.6669H26.4866V13.3373H27.1415V12.6669Z" fill="white"/>
<path d="M29.0973 12.6669H28.4424V13.3373H29.0973V12.6669Z" fill="white"/>
<path d="M31.044 12.6669H29.7432V13.3373H31.044V12.6669Z" fill="white"/>
<path d="M13.469 13.3288H10.2124V13.9992H13.469V13.3288Z" fill="white"/>
<path d="M26.4955 13.3288H22.584V13.9992H26.4955V13.3288Z" fill="white"/>
<path d="M31.699 13.3288H28.4424V13.9992H31.699V13.3288Z" fill="white"/>
<path d="M11.5133 13.9987H10.2124V14.6691H11.5133V13.9987Z" fill="white"/>
<path d="M13.46 13.9987H12.1592V14.6691H13.46V13.9987Z" fill="white"/>
<path d="M14.7699 13.9987H14.115V14.6691H14.7699V13.9987Z" fill="white"/>
<path d="M17.3805 13.9987H16.7256V14.6691H17.3805V13.9987Z" fill="white"/>
<path d="M19.9823 13.9987H19.3274V14.6691H19.9823V13.9987Z" fill="white"/>
<path d="M26.4955 13.9987H22.584V14.6691H26.4955V13.9987Z" fill="white"/>
<path d="M29.7432 13.9987H28.4424V14.6691H29.7432V13.9987Z" fill="white"/>
<path d="M31.0531 13.9987H30.3982V14.6691H31.0531V13.9987Z" fill="white"/>
<path d="M23.2299 14.6695H9.55737V15.3399H23.2299V14.6695Z" fill="white"/>
<path d="M25.1859 14.6695H23.885V15.3399H25.1859V14.6695Z" fill="white"/>
<path d="M28.4425 14.6695H27.1416V15.3399H28.4425V14.6695Z" fill="white"/>
<path d="M31.044 14.6695H29.7432V15.3399H31.044V14.6695Z" fill="white"/>
<path d="M12.1683 15.3305H8.91162V16.0009H12.1683V15.3305Z" fill="white"/>
<path d="M19.3275 15.3305H12.8142V16.0009H19.3275V15.3305Z" fill="white"/>
<path d="M25.1858 15.3305H19.9734V16.0009H25.1858V15.3305Z" fill="white"/>
<path d="M30.3982 15.3305H27.1416V16.0009H30.3982V15.3305Z" fill="white"/>
<path d="M31.6991 15.3305H31.0442V16.0009H31.6991V15.3305Z" fill="white"/>
<path d="M10.8674 16.0004H8.91162V16.6708H10.8674V16.0004Z" fill="white"/>
<path d="M12.814 16.0004H11.5132V16.6708H12.814V16.0004Z" fill="white"/>
<path d="M24.5398 16.0004H22.584V16.6708H24.5398V16.0004Z" fill="white"/>
<path d="M25.8407 16.0004H25.1858V16.6708H25.8407V16.0004Z" fill="white"/>
<path d="M27.1415 16.0004H26.4866V16.6708H27.1415V16.0004Z" fill="white"/>
<path d="M31.0533 16.0004H27.7966V16.6708H31.0533V16.0004Z" fill="white"/>
<path d="M12.8232 16.6623H8.91162V17.3327H12.8232V16.6623Z" fill="white"/>
<path d="M24.5309 16.6623H21.9292V17.3327H24.5309V16.6623Z" fill="white"/>
<path d="M30.3981 16.6623H26.4866V17.3327H30.3981V16.6623Z" fill="white"/>
<path d="M31.6991 16.6623H31.0442V17.3327H31.6991V16.6623Z" fill="white"/>
<path d="M9.55745 17.3322H8.25659V18.0026H9.55745V17.3322Z" fill="white"/>
<path d="M17.3716 17.3322H10.2124V18.0026H17.3716V17.3322Z" fill="white"/>
<path d="M19.3275 17.3322H18.0266V18.0026H19.3275V17.3322Z" fill="white"/>
<path d="M20.6283 17.3322H19.9734V18.0026H20.6283V17.3322Z" fill="white"/>
<path d="M22.5841 17.3322H21.2832V18.0026H22.5841V17.3322Z" fill="white"/>
<path d="M24.5308 17.3322H23.23V18.0026H24.5308V17.3322Z" fill="white"/>
<path d="M27.1415 17.3322H26.4866V18.0026H27.1415V17.3322Z" fill="white"/>
<path d="M31.0532 17.3322H29.0974V18.0026H31.0532V17.3322Z" fill="white"/>
<path d="M10.8584 18.003H7.60181V18.6734H10.8584V18.003Z" fill="white"/>
<path d="M14.1149 18.003H11.5132V18.6734H14.1149V18.003Z" fill="white"/>
<path d="M21.2833 18.003H14.77V18.6734H21.2833V18.003Z" fill="white"/>
<path d="M23.885 18.003H21.9292V18.6734H23.885V18.003Z" fill="white"/>
<path d="M29.7433 18.003H25.1858V18.6734H29.7433V18.003Z" fill="white"/>
<path d="M31.0531 18.003H30.3982V18.6734H31.0531V18.003Z" fill="white"/>
<path d="M8.91151 18.664H8.25659V19.3343H8.91151V18.664Z" fill="white"/>
<path d="M12.814 18.664H9.55737V19.3343H12.814V18.664Z" fill="white"/>
<path d="M16.0707 18.664H13.469V19.3343H16.0707V18.664Z" fill="white"/>
<path d="M18.0264 18.664H16.7256V19.3343H18.0264V18.664Z" fill="white"/>
<path d="M19.9735 18.664H18.6726V19.3343H19.9735V18.664Z" fill="white"/>
<path d="M23.8851 18.664H20.6284V19.3343H23.8851V18.664Z" fill="white"/>
<path d="M26.4957 18.664H25.8408V19.3343H26.4957V18.664Z" fill="white"/>
<path d="M31.6991 18.664H27.1416V19.3343H31.6991V18.664Z" fill="white"/>
<path d="M11.5133 19.3339H6.95581V20.0043H11.5133V19.3339Z" fill="white"/>
<path d="M17.3716 19.3339H12.1592V20.0043H17.3716V19.3339Z" fill="white"/>
<path d="M23.239 19.3339H18.0266V20.0043H23.239V19.3339Z" fill="white"/>
<path d="M31.0442 19.3339H25.1858V20.0043H31.0442V19.3339Z" fill="white"/>
<path d="M14.115 19.9957H6.95581V20.6661H14.115V19.9957Z" fill="white"/>
<path d="M21.9293 19.9957H14.77V20.6661H21.9293V19.9957Z" fill="white"/>
<path d="M24.5399 19.9957H23.885V20.6661H24.5399V19.9957Z" fill="white"/>
<path d="M26.4957 19.9957H25.8408V20.6661H26.4957V19.9957Z" fill="white"/>
<path d="M28.4515 19.9957H27.7966V20.6661H28.4515V19.9957Z" fill="white"/>
<path d="M30.3983 19.9957H29.0974V20.6661H30.3983V19.9957Z" fill="white"/>
<path d="M6.9557 20.6656H6.30078V21.336H6.9557V20.6656Z" fill="white"/>
<path d="M8.90267 20.6656H7.60181V21.336H8.90267V20.6656Z" fill="white"/>
<path d="M10.2123 20.6656H9.55737V21.336H10.2123V20.6656Z" fill="white"/>
<path d="M12.8142 20.6656H10.8584V21.336H12.8142V20.6656Z" fill="white"/>
<path d="M16.0707 20.6656H13.469V21.336H16.0707V20.6656Z" fill="white"/>
<path d="M18.6814 20.6656H16.7256V21.336H18.6814V20.6656Z" fill="white"/>
<path d="M19.9823 20.6656H19.3274V21.336H19.9823V20.6656Z" fill="white"/>
<path d="M23.2301 20.6656H20.6284V21.336H23.2301V20.6656Z" fill="white"/>
<path d="M25.8407 20.6656H24.5398V21.336H25.8407V20.6656Z" fill="white"/>
<path d="M29.0883 20.6656H26.4866V21.336H29.0883V20.6656Z" fill="white"/>
<path d="M31.6989 20.6656H29.7432V21.336H31.6989V20.6656Z" fill="white"/>
<path d="M17.3716 21.3275H6.30078V21.9979H17.3716V21.3275Z" fill="white"/>
<path d="M22.5841 21.3275H18.0266V21.9979H22.5841V21.3275Z" fill="white"/>
<path d="M31.0531 21.3275H24.5398V21.9979H31.0531V21.3275Z" fill="white"/>
<path d="M14.7698 21.9974H6.30078V22.6678H14.7698V21.9974Z" fill="white"/>
<path d="M21.9291 21.9974H15.4158V22.6678H21.9291V21.9974Z" fill="white"/>
<path d="M25.1858 21.9974H23.23V22.6678H25.1858V21.9974Z" fill="white"/>
<path d="M31.0532 21.9974H25.8408V22.6678H31.0532V21.9974Z" fill="white"/>
<path d="M6.9557 22.6682H6.30078V23.3386H6.9557V22.6682Z" fill="white"/>
<path d="M8.91151 22.6682H8.25659V23.3386H8.91151V22.6682Z" fill="white"/>
<path d="M10.8673 22.6682H10.2124V23.3386H10.8673V22.6682Z" fill="white"/>
<path d="M14.1239 22.6682H13.469V23.3386H14.1239V22.6682Z" fill="white"/>
<path d="M16.0709 22.6682H14.77V23.3386H16.0709V22.6682Z" fill="white"/>
<path d="M18.0265 22.6682H17.3716V23.3386H18.0265V22.6682Z" fill="white"/>
<path d="M19.9823 22.6682H19.3274V23.3386H19.9823V22.6682Z" fill="white"/>
<path d="M21.9381 22.6682H21.2832V23.3386H21.9381V22.6682Z" fill="white"/>
<path d="M24.5399 22.6682H23.885V23.3386H24.5399V22.6682Z" fill="white"/>
<path d="M25.8407 22.6682H25.1858V23.3386H25.8407V22.6682Z" fill="white"/>
<path d="M27.7965 22.6682H27.1416V23.3386H27.7965V22.6682Z" fill="white"/>
<path d="M29.0973 22.6682H28.4424V23.3386H29.0973V22.6682Z" fill="white"/>
<path d="M30.3981 22.6682H29.7432V23.3386H30.3981V22.6682Z" fill="white"/>
<path d="M31.6991 22.6682H31.0442V23.3386H31.6991V22.6682Z" fill="white"/>
<path d="M7.61073 23.3292H6.95581V23.9996H7.61073V23.3292Z" fill="white"/>
<path d="M9.56654 23.3292H8.91162V23.9996H9.56654V23.3292Z" fill="white"/>
<path d="M11.5133 23.3292H10.8584V23.9996H11.5133V23.3292Z" fill="white"/>
<path d="M12.8141 23.3292H12.1592V23.9996H12.8141V23.3292Z" fill="white"/>
<path d="M16.7257 23.3292H16.0708V23.9996H16.7257V23.3292Z" fill="white"/>
<path d="M18.6815 23.3292H18.0266V23.9996H18.6815V23.3292Z" fill="white"/>
<path d="M20.6283 23.3292H19.9734V23.9996H20.6283V23.3292Z" fill="white"/>
<path d="M22.5841 23.3292H21.9292V23.9996H22.5841V23.3292Z" fill="white"/>
<path d="M23.8849 23.3292H23.23V23.9996H23.8849V23.3292Z" fill="white"/>
<path d="M25.1947 23.3292H24.5398V23.9996H25.1947V23.3292Z" fill="white"/>
<path d="M27.1417 23.3292H25.8408V23.9996H27.1417V23.3292Z" fill="white"/>
<path d="M31.0533 23.3292H27.7966V23.9996H31.0533V23.3292Z" fill="white"/>
<path d="M31.0531 23.9991H22.584V24.6695H31.0531V23.9991Z" fill="white"/>
<path d="M23.2389 24.661H13.469V25.3314H23.2389V24.661Z" fill="white"/>
<path d="M30.3983 24.661H23.885V25.3314H30.3983V24.661Z" fill="white"/>
<path d="M31.6991 24.661H31.0442V25.3314H31.6991V24.661Z" fill="white"/>
<path d="M14.1239 25.3309H13.469V26.0013H14.1239V25.3309Z" fill="white"/>
<path d="M15.4249 25.3309H14.77V26.0013H15.4249V25.3309Z" fill="white"/>
<path d="M16.7257 25.3309H16.0708V26.0013H16.7257V25.3309Z" fill="white"/>
<path d="M18.0265 25.3309H17.3716V26.0013H18.0265V25.3309Z" fill="white"/>
<path d="M19.3275 25.3309H18.6726V26.0013H19.3275V25.3309Z" fill="white"/>
<path d="M20.6283 25.3309H19.9734V26.0013H20.6283V25.3309Z" fill="white"/>
<path d="M21.9381 25.3309H21.2832V26.0013H21.9381V25.3309Z" fill="white"/>
<path d="M23.8848 25.3309H22.584V26.0013H23.8848V25.3309Z" fill="white"/>
<path d="M25.1947 25.3309H24.5398V26.0013H25.1947V25.3309Z" fill="white"/>
<path d="M31.0532 25.3309H25.8408V26.0013H31.0532V25.3309Z" fill="white"/>
<path d="M14.7699 26.0017H14.115V26.6721H14.7699V26.0017Z" fill="white"/>
<path d="M16.0707 26.0017H15.4158V26.6721H16.0707V26.0017Z" fill="white"/>
<path d="M17.3805 26.0017H16.7256V26.6721H17.3805V26.0017Z" fill="white"/>
<path d="M18.6815 26.0017H18.0266V26.6721H18.6815V26.0017Z" fill="white"/>
<path d="M19.9823 26.0017H19.3274V26.6721H19.9823V26.0017Z" fill="white"/>
<path d="M21.2833 26.0017H20.6284V26.6721H21.2833V26.0017Z" fill="white"/>
<path d="M22.5841 26.0017H21.9292V26.6721H22.5841V26.0017Z" fill="white"/>
<path d="M23.8849 26.0017H23.23V26.6721H23.8849V26.0017Z" fill="white"/>
<path d="M25.1947 26.0017H24.5398V26.6721H25.1947V26.0017Z" fill="white"/>
<path d="M26.4957 26.0017H25.8408V26.6721H26.4957V26.0017Z" fill="white"/>
<path d="M30.3981 26.0017H29.7432V26.6721H30.3981V26.0017Z" fill="white"/>
<path d="M31.6991 26.0017H31.0442V26.6721H31.6991V26.0017Z" fill="white"/>
<path d="M31.0531 26.6627H13.469V27.3331H31.0531V26.6627Z" fill="white"/>
<path d="M15.4248 27.3335H13.469V28.0039H15.4248V27.3335Z" fill="white"/>
<path d="M17.3717 27.3335H16.0708V28.0039H17.3717V27.3335Z" fill="white"/>
<path d="M19.3275 27.3335H18.0266V28.0039H19.3275V27.3335Z" fill="white"/>
<path d="M21.2743 27.3335H19.9734V28.0039H21.2743V27.3335Z" fill="white"/>
<path d="M23.2301 27.3335H21.9292V28.0039H23.2301V27.3335Z" fill="white"/>
<path d="M30.3983 27.3335H23.885V28.0039H30.3983V27.3335Z" fill="white"/>
<path d="M31.6991 27.3335H31.0442V28.0039H31.6991V27.3335Z" fill="white"/>
<path d="M14.1239 27.9944H13.469V28.6648H14.1239V27.9944Z" fill="white"/>
<path d="M16.7258 27.9944H14.77V28.6648H16.7258V27.9944Z" fill="white"/>
<path d="M18.6724 27.9944H17.3716V28.6648H18.6724V27.9944Z" fill="white"/>
<path d="M20.6283 27.9944H19.3274V28.6648H20.6283V27.9944Z" fill="white"/>
<path d="M22.5841 27.9944H21.2832V28.6648H22.5841V27.9944Z" fill="white"/>
<path d="M24.5308 27.9944H23.23V28.6648H24.5308V27.9944Z" fill="white"/>
<path d="M31.0442 27.9944H25.1858V28.6648H31.0442V27.9944Z" fill="white"/>
<path d="M14.7699 28.6644H14.115V29.3348H14.7699V28.6644Z" fill="white"/>
<path d="M16.7257 28.6644H16.0708V29.3348H16.7257V28.6644Z" fill="white"/>
<path d="M18.0265 28.6644H17.3716V29.3348H18.0265V28.6644Z" fill="white"/>
<path d="M19.3275 28.6644H18.6726V29.3348H19.3275V28.6644Z" fill="white"/>
<path d="M20.6283 28.6644H19.9734V29.3348H20.6283V28.6644Z" fill="white"/>
<path d="M21.9381 28.6644H21.2832V29.3348H21.9381V28.6644Z" fill="white"/>
<path d="M23.2389 28.6644H22.584V29.3348H23.2389V28.6644Z" fill="white"/>
<path d="M24.5399 28.6644H23.885V29.3348H24.5399V28.6644Z" fill="white"/>
<path d="M25.8407 28.6644H25.1858V29.3348H25.8407V28.6644Z" fill="white"/>
<path d="M27.7965 28.6644H27.1416V29.3348H27.7965V28.6644Z" fill="white"/>
<path d="M29.7523 28.6644H29.0974V29.3348H29.7523V28.6644Z" fill="white"/>
<path d="M31.0531 28.6644H30.3982V29.3348H31.0531V28.6644Z" fill="white"/>
<path d="M31.699 29.3352H13.469V30.0056H31.699V29.3352Z" fill="white"/>
<path d="M31.0531 29.9961H13.469V30.6665H31.0531V29.9961Z" fill="white"/>
<path d="M29.7522 30.667H13.469V31.3374H29.7522V30.667Z" fill="white"/>
<path d="M31.0531 30.667H30.3982V31.3374H31.0531V30.667Z" fill="white"/>
<path d="M30.3982 31.3279H14.115V31.9983H30.3982V31.3279Z" fill="white"/>
<path d="M31.6991 31.3279H31.0442V31.9983H31.6991V31.3279Z" fill="white"/>
<path d="M31.0531 31.9978H30.3982V32.6682H31.0531V31.9978Z" fill="white"/>
<path d="M18.6815 32.6597H18.0266V33.3301H18.6815V32.6597Z" fill="white"/>
<path d="M20.6283 32.6597H19.9734V33.3301H20.6283V32.6597Z" fill="white"/>
<path d="M22.5841 32.6597H21.9292V33.3301H22.5841V32.6597Z" fill="white"/>
<path d="M23.8849 32.6597H23.23V33.3301H23.8849V32.6597Z" fill="white"/>
<path d="M26.4957 32.6597H25.8408V33.3301H26.4957V32.6597Z" fill="white"/>
<path d="M29.0973 32.6597H28.4424V33.3301H29.0973V32.6597Z" fill="white"/>
</svg>
