<svg width="40" height="40" viewBox="0 0 40 40" fill="none" xmlns="http://www.w3.org/2000/svg">
<path d="M20.6781 34.236C20.3917 34.236 20.1053 34.2294 19.8188 34.2098C17.5208 34.0525 14.4285 33.5609 12.6447 32.6565C12.4885 32.5779 12.4559 32.473 12.4559 32.4009C12.4559 32.3682 12.4559 32.3419 12.4689 32.3157C10.1774 31.6866 8.67358 30.9853 7.88586 30.1792C4.83915 27.5315 6.31693 21.6004 8.53035 17.2815C8.46525 17.2028 8.3676 17.1176 8.25693 17.0193C7.80123 16.6065 7.03304 15.9249 6.53176 13.985C6.36901 13.3493 6.2974 12.4973 6.2974 11.37C6.25834 10.3083 6.2323 7.68683 6.76613 6.37609C6.80519 6.25812 6.85727 6.15982 6.90935 6.07462C7.02002 5.90422 7.12418 5.80592 7.20881 5.74693C7.2674 5.70106 7.34552 5.67484 7.43666 5.67484C7.44968 5.67484 7.45619 5.67484 7.46921 5.67484C7.48874 5.67484 7.50176 5.67484 7.51478 5.67484C7.55384 5.67484 7.58639 5.6945 7.61895 5.70761C7.71009 5.74038 7.74915 5.75349 7.79472 5.77315L7.87284 5.81247C7.977 5.8649 8.0421 5.90422 8.11371 5.94354C9.22042 6.59892 11.219 8.36187 12.6773 9.65295L12.9572 9.89544L14.0704 10.8261C15.6784 9.92165 17.5142 9.46289 19.5324 9.46289C20.6326 9.46289 21.7718 9.60052 22.9176 9.87578C23.0478 9.90199 23.1455 9.98064 23.178 10.0921C23.191 10.1314 23.191 10.1772 23.178 10.2166C23.4449 10.2887 23.7118 10.3739 23.9722 10.4656C24.0308 10.4394 24.0959 10.4263 24.174 10.4263C24.4475 10.4263 24.8967 10.6163 25.4956 11.003C26.1466 10.8654 26.6088 10.6753 26.8432 10.4656C27.4551 9.90199 28.1061 9.26628 28.8418 8.52571C28.9655 8.40119 29.0891 8.26356 29.2128 8.13249C29.4732 7.85068 29.7402 7.55576 30.0461 7.31983C30.3456 7.097 30.5539 6.78242 30.7818 6.44818C30.912 6.25812 31.0422 6.06151 31.1854 5.89111C31.2505 5.81247 31.2961 5.76004 31.3286 5.70761L31.3612 5.64207C31.3807 5.60275 31.4002 5.56998 31.4198 5.53721C31.5239 5.36682 31.7127 5.2423 31.9275 5.20297C32.0122 5.18331 32.1033 5.17676 32.1879 5.17676C32.4874 5.17676 32.7413 5.28817 32.9106 5.511C33.0017 5.62896 33.0408 5.72727 33.0863 5.83868C33.1449 5.98942 33.2035 6.12049 33.2556 6.24501C33.3663 6.50716 33.4834 6.78242 33.5746 7.06423C33.7113 7.50333 33.7243 7.92277 33.7308 8.36842C33.8285 9.16142 33.861 10.0789 33.8155 11.0358L33.8024 11.3045C33.7438 12.3138 33.6136 13.2641 33.4314 13.985L33.3988 14.116C33.3272 14.3716 33.2686 14.5551 33.2035 14.6993C32.6827 15.9511 31.8885 17.1111 31.5109 17.4978C31.5109 17.4978 31.3742 17.6354 31.3351 17.6747C32.5851 20.0406 33.2165 22.6228 33.3923 26.0307C33.4053 29.4452 30.7362 30.9198 28.3014 31.798C28.3079 31.8111 28.3144 31.8242 28.321 31.8373C28.347 31.9028 28.373 32.0077 28.321 32.1453C27.9434 32.7352 26.5307 33.2332 25.0594 33.6855C25.0334 33.692 22.9502 34.2556 20.6846 34.2556L20.6781 34.236Z" fill="white"/>
<path d="M32.188 5.32769C32.4158 5.32769 32.6307 5.40633 32.7804 5.59639C32.865 5.70125 32.8976 5.78645 32.9431 5.91097C33.0994 6.31074 33.2882 6.69086 33.4184 7.10375C33.5486 7.52974 33.5616 7.94262 33.5681 8.38827C33.6723 9.2206 33.6918 10.1381 33.6527 11.0163C33.6527 11.0687 33.6527 11.1146 33.6462 11.1671C33.6462 11.2064 33.6462 11.2457 33.6462 11.285C33.5942 12.255 33.464 13.2053 33.2752 13.9327C33.2621 13.9786 33.2556 14.0179 33.2426 14.0638C33.2426 14.0769 33.2361 14.09 33.2296 14.1097C33.171 14.3128 33.1124 14.4832 33.0538 14.6274C32.533 15.8923 31.7323 17.0261 31.3938 17.3734C31.2961 17.4717 31.2115 17.5569 31.1399 17.6421C32.494 20.1653 33.0668 22.8196 33.2296 26.0243C33.2426 29.2684 30.7427 30.7692 27.9629 31.7261C28.1062 31.7785 28.2364 31.8834 28.1582 32.0669C27.8002 32.6305 26.0946 33.1745 25.0009 33.5152C25.0009 33.5152 22.9437 34.0789 20.6717 34.0789C20.3917 34.0789 20.1053 34.0723 19.8189 34.0527C17.2344 33.8757 14.3178 33.3317 12.7034 32.5191C12.5276 32.4339 12.6057 32.3356 12.7945 32.2438C11.18 31.8178 9.03167 31.1362 7.99657 30.0745C5.09959 27.5579 6.38208 21.7841 8.71268 17.2751C8.4002 16.7836 7.33255 16.469 6.68154 13.9524C6.68154 13.9524 6.68154 13.9524 6.68154 13.9458C6.50577 13.2708 6.45369 12.3664 6.45369 11.3833C6.3951 9.63348 6.47322 7.52974 6.90939 6.44837C6.94845 6.33696 6.99402 6.24521 7.03959 6.17312C7.11772 6.0486 7.20235 5.9634 7.29349 5.89786C7.32604 5.87165 7.37161 5.85854 7.41718 5.85854C7.4302 5.85854 7.44322 5.85854 7.45624 5.85854H7.46926C7.50181 5.85854 7.54738 5.88475 7.58644 5.89786C7.6255 5.91097 7.66456 5.91752 7.71013 5.94374C7.74268 5.95684 7.78174 5.98306 7.81429 5.99617C7.87939 6.02893 7.93798 6.0617 8.00959 6.10103C9.1749 6.79572 11.3948 8.77494 12.8205 10.0398C13.3869 10.5117 13.8426 10.8918 14.0249 11.0491C15.7045 10.0791 17.5859 9.65314 19.5064 9.65314C20.6196 9.65314 21.7458 9.79733 22.8525 10.0595C23.0088 10.0922 23.0413 10.2102 22.9242 10.3216C22.9111 10.3282 22.8981 10.3347 22.8851 10.3413C23.2562 10.433 23.6142 10.5444 23.9723 10.669C24.0113 10.6296 24.0764 10.61 24.1481 10.61C24.4345 10.61 24.9423 10.8721 25.4436 11.1933C25.9578 11.0884 26.6089 10.8984 26.9278 10.6034C27.6114 9.96772 28.2754 9.3189 28.9329 8.65698C29.3236 8.26375 29.6881 7.79844 30.1178 7.4642C30.6125 7.08408 30.886 6.48114 31.2831 6.00927C31.3352 5.94374 31.3938 5.8782 31.4393 5.80611C31.4719 5.75368 31.4979 5.69469 31.5305 5.63571C31.6151 5.49808 31.7713 5.40633 31.9276 5.37356C32.0057 5.36045 32.0838 5.34735 32.1554 5.34735M32.188 5C32.0903 5 31.9927 5.01311 31.895 5.03277C31.6346 5.0852 31.4133 5.23593 31.2831 5.4391C31.257 5.47842 31.2375 5.51774 31.218 5.55707C31.2115 5.57673 31.1985 5.59639 31.1854 5.61605C31.1594 5.66193 31.1203 5.70125 31.0878 5.74712L31.0617 5.77989C30.912 5.9634 30.7753 6.16001 30.6451 6.35007C30.4303 6.6712 30.2219 6.97922 29.9485 7.18239C29.6295 7.42488 29.3561 7.71979 29.0957 8.01471C28.972 8.14579 28.8548 8.28342 28.7246 8.40794C27.9955 9.14195 27.338 9.77766 26.7325 10.3413C26.5372 10.5248 26.1076 10.6952 25.5282 10.8263C24.6233 10.2626 24.2848 10.2626 24.1741 10.2626C24.096 10.2626 24.0309 10.2757 23.9723 10.2954C23.764 10.2233 23.5556 10.1578 23.3408 10.0988C23.3408 10.0857 23.3408 10.066 23.3278 10.0529C23.2822 9.88252 23.139 9.76456 22.9437 9.71868C21.7979 9.44342 20.6456 9.3058 19.5324 9.3058C17.5273 9.3058 15.6915 9.75145 14.09 10.6362L13.0614 9.77111L12.788 9.52862C11.3297 8.23754 9.32463 6.46803 8.2049 5.80611C8.13329 5.76023 8.06818 5.72746 7.99657 5.69469L7.951 5.67503C7.951 5.67503 7.89241 5.64226 7.85986 5.62916C7.80778 5.60294 7.76221 5.58984 7.71664 5.57673L7.67107 5.56362C7.63201 5.55051 7.58644 5.53085 7.53436 5.5243C7.51483 5.5243 7.4953 5.5243 7.48228 5.5243C7.46926 5.5243 7.45624 5.5243 7.44322 5.5243C7.43671 5.5243 7.4302 5.5243 7.42369 5.5243C7.3 5.5243 7.18933 5.55707 7.09818 5.62916C7.00704 5.70125 6.88986 5.80611 6.77268 5.9765C6.76617 5.98961 6.75966 5.99617 6.75315 6.00927C6.75315 6.00927 6.75315 6.01583 6.74664 6.02238C6.69456 6.11413 6.64248 6.21899 6.59691 6.34351C6.0761 7.65426 6.10214 10.3085 6.13469 11.3833C6.13469 12.5106 6.20631 13.3822 6.36906 14.0179C6.88335 16.0103 7.67107 16.7181 8.14631 17.1375C8.21792 17.203 8.27651 17.2555 8.32859 17.3079C6.12167 21.6727 4.68295 27.6169 7.78825 30.3105C8.56295 31.11 10.0407 31.8113 12.2867 32.4339C12.2932 32.5387 12.3453 32.6895 12.5601 32.8009C14.3699 33.7184 17.4883 34.2165 19.7993 34.3738C20.0793 34.3934 20.3722 34.4 20.6717 34.4C22.9632 34.4 25.0009 33.8495 25.0855 33.8298C26.8302 33.2924 28.0606 32.814 28.4317 32.2438C28.4447 32.2242 28.4512 32.2111 28.4577 32.1914C28.5098 32.0669 28.5098 31.962 28.4968 31.8768C33.0278 30.1794 33.5551 27.7349 33.5486 26.0243C33.3728 22.6295 32.7478 20.0539 31.5305 17.6946C31.5435 17.6815 31.55 17.6749 31.563 17.6618L31.6216 17.6028C32.0057 17.203 32.826 16.0234 33.3533 14.7519C33.4119 14.6078 33.477 14.4243 33.5421 14.2014L33.5551 14.1556L33.5876 14.031C33.7764 13.2905 33.9131 12.3271 33.9717 11.3112V11.1933L33.9783 11.1605V11.0425C34.0238 10.0857 33.9978 9.16817 33.9001 8.37517C33.8871 7.92296 33.8806 7.47731 33.7374 7.01855C33.6462 6.73018 33.5291 6.44837 33.4119 6.17967C33.3598 6.05515 33.3012 5.93063 33.2556 5.79955C33.197 5.65537 33.1515 5.54396 33.0473 5.40633C32.852 5.15074 32.546 5.01311 32.201 5.01311L32.188 5Z" fill="white"/>
<path d="M24.7077 11.2983C24.7077 11.2983 26.3677 11.1279 26.9602 10.584C27.5526 10.04 30.5277 7.39885 30.9769 6.62551C31.4261 5.85217 31.8102 5.35409 32.3245 5.55725C32.8387 5.76042 33.3791 6.72382 33.5939 8.66372C33.8087 10.6036 33.5809 13.3562 33.0536 14.6211C32.5328 15.8859 31.732 17.0197 31.3935 17.3671C31.055 17.7144 30.8076 17.8783 31.042 18.7237C31.042 18.7237 29.8441 18.9072 28.2622 15.768C26.6802 12.6222 24.7077 11.2983 24.7077 11.2983Z" fill="#D15739"/>
<path d="M27.4226 13.3689C27.4226 13.3689 26.9148 12.8905 28.5098 11.7632C29.3496 11.1668 31.2896 9.27281 31.5891 8.49947C31.895 7.72613 32.2921 7.66059 32.4679 8.34873C32.6437 9.03687 32.6242 11.37 32.5005 12.2941C32.3768 13.2116 32.1815 14.8762 31.4263 15.82C30.7753 16.6392 30.2024 16.921 30.248 17.0062C30.5735 17.5567 27.338 13.6441 27.4226 13.3689Z" fill="#F1C19E"/>
<path d="M30.9444 7.29359C30.9835 7.27392 31.0226 7.24771 31.0551 7.22149C31.1723 7.1363 31.2634 7.01178 31.3936 6.93313C31.4457 6.90036 31.5043 6.8807 31.5499 6.84138C31.7973 6.65787 32.0642 6.19256 32.4352 6.46782C32.5329 6.53991 32.5785 6.66443 32.6436 6.76273C32.7282 6.88725 32.8454 6.98556 32.93 7.11008C32.9886 7.20183 33.0342 7.30669 33.0732 7.405C33.1644 7.54263 33.2099 7.7589 33.275 7.90964C33.3401 8.08003 33.3987 8.27009 33.4378 8.44704C33.4768 8.60433 33.4638 8.76817 33.4638 8.93202C33.4638 9.22038 33.5159 9.50874 33.6136 9.77745C33.6396 9.62016 33.6396 9.41044 33.6331 9.2466C33.6136 8.95168 33.568 8.66331 33.5615 8.3684C33.555 7.92274 33.5485 7.5033 33.4117 7.07731C33.2815 6.67098 33.0928 6.28431 32.9365 5.88454C32.8844 5.76001 32.8584 5.67482 32.7738 5.56996C32.5785 5.31436 32.266 5.26193 31.9535 5.32747C31.7907 5.36024 31.641 5.45199 31.5564 5.58962C31.5238 5.64205 31.4978 5.70103 31.4652 5.76001C31.4197 5.83211 31.3611 5.89764 31.309 5.96318C30.9119 6.43505 30.645 7.04454 30.1437 7.41811C29.7075 7.74579 29.343 8.21766 28.9589 8.61088C28.3013 9.27281 27.6373 9.92163 26.9538 10.5573C26.9342 10.577 26.9082 10.5967 26.8952 10.6229C26.9993 10.6032 27.11 10.5115 27.1946 10.4525C27.4355 10.2952 27.6699 10.1313 27.9042 9.9675C28.1581 9.784 28.4055 9.6005 28.6334 9.38422C28.8417 9.18761 29.0044 8.85337 29.2648 8.7223C29.3495 8.68298 29.4406 8.65021 29.5187 8.60433C30.0591 8.30941 30.2609 7.70647 30.7752 7.37223C30.8273 7.33946 30.8858 7.30669 30.9444 7.27392V7.29359Z" fill="#060001"/>
<path d="M32.1357 5.8322C33.8608 6.74317 33.5288 13.1724 32.8518 14.6273C32.1682 16.6393 30.6123 17.2029 30.6383 18.2974C29.2712 17.8714 26.205 12.4646 25.261 11.9206C25.7883 12.2221 27.3833 10.5116 27.7218 10.2166C28.0734 9.91517 28.3989 9.58748 28.7309 9.2598C28.8155 9.1746 28.9067 9.0894 28.9783 8.98454C29.0369 8.9059 29.0824 8.81414 29.141 8.7355C29.2452 8.60442 29.3689 8.53233 29.5186 8.47335C29.6553 8.41437 29.7204 8.34228 29.8311 8.23086C30.0785 7.98182 30.3324 7.73278 30.5798 7.48374C30.7881 7.27402 31.094 7.04464 31.2438 6.78904C31.5367 6.29096 31.8687 5.78632 32.1291 5.83875M32.1942 5.51762C31.7451 5.43242 31.3935 5.91084 30.9769 6.61865C30.5277 7.39199 27.5461 10.0331 26.9602 10.5771C26.6151 11.0555 24.7728 11.4487 24.7077 11.2915C24.7077 11.2915 26.6802 12.6153 28.2622 15.7611C29.6163 18.3236 30.404 18.6513 31.042 18.7168C30.8076 17.8714 31.0485 17.7075 31.3935 17.3602C31.732 17.0129 32.5328 15.8791 33.0536 14.6142C33.7827 12.9495 34.2579 6.38271 32.1942 5.51107V5.51762Z" fill="#060001"/>
<path d="M14.1485 11.1016C14.1485 11.1016 11.4273 8.82743 10.1253 7.70675C8.81674 6.59261 7.6254 5.62922 7.31291 5.87171C7.00043 6.11419 6.74654 6.47465 6.59681 8.46698C6.44708 10.4593 6.34943 12.6351 6.68795 13.9459C7.59285 17.439 9.31151 16.6853 8.67352 18.0682C8.67352 18.0682 14.5651 12.7597 14.1485 11.1016Z" fill="#D15739"/>
<path d="M11.9089 13.0478C11.9089 13.0478 12.4688 12.2352 11.655 11.475C10.8478 10.7147 8.61484 9.03041 8.36746 8.66996C8.12008 8.3095 7.67739 8.41436 7.60578 8.86657C7.53417 9.31878 7.44303 12.0386 7.53417 12.825C7.62531 13.6115 8.12008 15.3154 8.59531 15.7414C9.07055 16.1674 9.65645 16.2198 9.65645 16.2198L11.9154 13.0478H11.9089Z" fill="#F1C19E"/>
<path d="M7.46915 6.15316C9.3115 7.00515 12.9767 10.3017 13.8555 11.2651C14.2982 11.7566 10.275 17.9499 9.07714 17.2552C6.04996 15.5053 6.18016 8.88607 7.46915 6.15316ZM7.05251 6.15316C6.16714 7.67363 6.44056 12.72 6.68795 13.9455C7.59284 17.4387 9.3115 16.685 8.67352 18.0678C8.67352 18.0678 14.5651 12.7593 14.1485 11.1012C13.7058 10.8915 8.64097 6.02864 7.49519 5.83203C7.49519 5.83203 7.20875 5.88446 7.05251 6.15316Z" fill="#060001"/>
<path d="M13.836 11.2588C13.836 11.2588 16.5572 9.79074 19.3826 9.84317C22.208 9.8956 25.4304 10.7214 27.3314 12.6285C29.2323 14.5356 32.1228 19.5165 32.5394 22.0265C32.9561 24.5366 34.1214 28.3247 30.7947 30.199C27.4681 32.0734 24.4995 32.5715 24.4995 32.5715C24.4669 32.945 18.9659 34.1313 12.6251 31.962C8.69956 30.6185 5.67238 29.1832 6.59681 23.5994C7.52124 18.0157 11.3426 12.5105 13.836 11.2588Z" fill="#E4E4E4"/>
<path d="M6.54484 9.4034C6.55135 9.33787 6.56437 9.27888 6.57739 9.21335C6.59692 9.10849 6.62947 9.01018 6.63598 8.90532C6.63598 8.87255 6.63598 8.83978 6.63598 8.80702C6.63598 8.76114 6.65551 8.70871 6.66853 8.66283L6.7792 8.26961C6.79873 8.21063 6.81175 8.15164 6.82477 8.09266C6.83779 8.04678 6.85732 8.00746 6.85732 7.96159C6.87685 7.72565 6.94846 7.75842 7.03309 7.5487C7.1047 7.35864 7.13726 7.25378 7.27397 7.08994C7.51484 6.81468 8.16585 7.06373 8.40672 7.28C8.46531 7.33243 8.5239 7.39797 8.58249 7.44384C8.77779 7.60113 9.05121 7.64045 9.26605 7.76497C9.46786 7.88294 9.61108 8.073 9.76732 8.24995C10.197 8.72837 10.7373 9.08227 11.2711 9.43617C11.486 9.58036 11.7008 9.71798 11.9222 9.83595C12.0393 9.89493 12.1565 9.95392 12.2607 10.0195C12.3779 10.0915 12.6513 10.1767 12.7554 10.2685C12.9182 10.4127 12.9052 10.5634 13.0679 10.7076C13.3739 10.9829 13.6278 11.1926 14.0379 11.2909C14.0835 11.0746 13.9338 11.1008 13.784 10.9829C13.5692 10.7993 13.3544 10.6224 13.1395 10.4389C12.5471 9.94736 11.9612 9.44928 11.3753 8.9512C10.9456 8.59074 10.5225 8.23029 10.0993 7.86983C8.79732 6.7557 7.60598 5.7923 7.28699 6.03479C6.9745 6.27728 6.72061 6.63773 6.57088 8.63007C6.55786 8.77425 6.57088 8.76769 6.55786 8.90532C6.55135 8.96431 6.5188 9.10193 6.5188 9.2199C6.5188 9.24612 6.5188 9.37719 6.5188 9.38374L6.54484 9.4034Z" fill="#060001"/>
<path d="M8.71248 17.9688C8.71248 17.9688 8.68644 18.0339 8.67342 18.0664C8.67342 18.0664 8.69946 18.0404 8.74503 18.0013C8.73201 17.9948 8.7255 17.9818 8.71248 17.9753V17.9688Z" fill="#060001"/>
<path d="M21.8367 31.9813C20.8016 32.0861 19.76 31.8961 18.7314 31.7126C17.5857 31.5028 16.4464 31.2931 15.3006 31.0768C14.9165 31.0048 14.5259 30.9327 14.1549 30.8147C12.7943 30.3756 10.8608 28.9338 10.4962 28.5733C10.1316 28.2129 9.67594 27.5837 9.44809 27.433C9.33091 27.3543 9.01192 27.197 8.94682 27.0725C8.91427 27.007 9.50668 26.5417 9.1942 26.4106C8.97937 26.3582 8.83615 26.2599 8.62782 26.2074C8.59527 26.2009 8.56272 26.1878 8.54319 26.155C8.53017 26.1288 8.54319 26.1026 8.5497 26.0764C8.66037 25.8077 8.97286 25.6176 8.95333 25.3227C8.94031 25.1392 8.53668 25.0015 8.53668 24.818C8.53668 24.6804 8.94682 24.5952 9.01192 24.4772C9.20722 24.1168 9.2593 23.5859 9.31138 23.1731C9.38299 22.557 10.4637 20.5319 10.8022 19.2736C11.1342 18.0087 11.4467 17.4517 11.7982 16.5341C12.1563 15.6232 14.3697 13.8799 15.4829 13.0738C16.0493 12.6609 16.824 12.4446 17.5076 12.366C17.8526 12.3266 18.1911 12.3332 18.5296 12.248C18.9267 12.1431 19.3108 11.9858 19.7145 11.8941C21.2183 11.5599 22.7612 12.2021 24.0762 13.0082C24.4082 13.2114 24.7337 13.4277 25.0072 13.7029C25.248 13.9389 25.4368 14.2141 25.6321 14.4894C26.0943 15.1513 26.5631 15.8067 27.0253 16.4686C27.6893 17.4123 28.3598 18.3692 28.7504 19.4571C29.089 20.4074 29.2061 21.4232 29.408 22.4194C29.6098 23.409 30.2087 24.8574 30.6058 25.0671C31.0029 25.2768 30.2022 25.4865 30.1892 25.7225C30.1761 25.9584 30.7165 26.4499 30.3454 26.3975C30.085 26.404 29.753 26.4696 29.7009 26.7252C29.6814 26.8169 29.7204 26.8694 29.7725 26.9414C30.0655 27.3085 30.0329 27.3609 29.3754 27.6689C29.0499 27.8196 28.4119 28.7765 28.1645 29.0321C27.839 29.3598 27.5135 29.694 27.1229 29.9431C26.7584 30.1724 26.3547 30.3166 25.9511 30.4608C24.5254 30.972 23.3471 31.8371 21.8367 31.9944V31.9813Z" fill="#D15739"/>
<path d="M30.6647 24.9489C30.4694 24.8375 30.1634 24.0052 29.9421 23.4743C26.8563 26.784 24.8056 23.9593 21.9477 22.7797C20.2225 22.0653 18.5039 22.2357 17.3516 22.7993C15.8803 23.5202 14.6043 24.5754 13.439 25.0669C11.5641 25.8599 9.12286 23.9855 9.00568 24.2149C8.94058 24.3394 8.48487 24.5426 8.48487 24.6868C8.48487 24.8834 8.88849 25.0276 8.90151 25.2242C8.92104 25.5322 8.61507 25.7419 8.49789 26.0237C8.48487 26.05 8.47836 26.0827 8.49138 26.1089C8.5044 26.1417 8.54346 26.1548 8.57601 26.1614C8.79084 26.2204 8.93407 26.3187 9.14239 26.3776C9.45487 26.5218 8.86245 27.0199 8.895 27.0854C8.96011 27.2165 9.2791 27.3869 9.39628 27.4656C9.63064 27.6294 10.1319 27.9178 10.4965 28.2979C10.861 28.678 12.4495 30.2181 13.8101 30.6834C14.1812 30.8145 14.8908 31.0963 15.2814 31.175C16.4272 31.3978 18.0937 32.3874 19.233 32.6168C20.2551 32.82 21.4008 32.7544 22.5206 32.0401C23.8226 31.2143 24.5257 30.8473 25.9514 30.2968C26.355 30.1395 26.7586 29.9887 27.1232 29.7463C27.5138 29.4841 28.0867 29.222 28.4122 28.8681C28.6661 28.5928 29.1218 27.885 29.4473 27.7212C30.1048 27.3935 30.1374 27.341 29.8444 26.9413C29.7858 26.8626 29.7533 26.8102 29.7728 26.7119C29.8249 26.4366 30.1569 26.3711 30.4173 26.3645C30.7884 26.417 30.248 25.8927 30.261 25.6436C30.2741 25.3946 31.0748 25.1718 30.6777 24.9424L30.6647 24.9489Z" fill="#F8DBC8"/>
<g style="mix-blend-mode:multiply">
<path d="M29.4406 27.3609C29.1151 27.4985 28.4641 28.3767 28.2037 28.6127C27.8716 28.9141 27.5396 29.2221 27.1425 29.445C26.7714 29.6547 26.3613 29.7858 25.9512 29.9234C24.5059 30.3953 23.3732 30.9261 21.8433 31.0637C20.7887 31.162 19.6624 31.2472 18.6208 31.0769C17.4555 30.8802 16.2967 30.6902 15.1314 30.4936C14.7408 30.428 14.3437 30.3625 13.9661 30.2511C12.5795 29.8447 10.62 28.5209 10.2489 28.1998C9.87782 27.8721 9.4156 27.2954 9.18124 27.1512C9.13567 27.125 9.05104 27.0791 8.96641 27.0332C8.95339 27.0529 8.94688 27.066 8.95339 27.0725C9.01849 27.197 9.33748 27.3543 9.45467 27.433C9.68903 27.5903 10.1382 28.2194 10.5028 28.5733C10.8673 28.9272 12.8008 30.369 14.1614 30.8147C14.5325 30.9327 14.9231 31.0048 15.3137 31.0769C16.4595 31.2866 18.3149 32.558 19.4541 32.7677C20.4762 32.9578 21.5439 32.5645 22.5334 32.0796C23.894 31.4111 24.5385 30.9589 25.9642 30.4477C26.3678 30.3035 26.7714 30.1593 27.136 29.9299C27.5266 29.6809 27.8586 29.3532 28.1776 29.019C28.4315 28.7634 29.0695 27.8065 29.3885 27.6558C29.9028 27.4133 30.033 27.3281 29.9223 27.1315C29.8312 27.197 29.6749 27.2626 29.4471 27.3609H29.4406Z" fill="#F8DBC8"/>
</g>
<path d="M13.6604 19.6866C12.9248 19.6801 12.3259 20.0405 11.9222 20.3748L11.8897 20.401C11.779 20.4927 11.6553 20.5583 11.5186 20.5976C11.4535 20.6172 11.3819 20.6238 11.3168 20.6303C11.1215 20.6303 11.1085 20.6893 11.2712 20.9777C11.3428 21.1088 11.6423 21.3447 11.8571 21.2398C12.0134 21.1678 12.072 21.0826 12.5993 20.709C12.9573 20.4534 13.2503 20.3289 13.732 20.3354C14.7867 20.3485 15.6785 20.6566 16.4793 21.8231C16.6941 22.1377 17.0261 22.5375 16.9936 22.3605C16.7006 20.6238 15.1642 19.7063 13.6734 19.6932L13.6604 19.6866Z" fill="#221714"/>
<path d="M26.2832 19.5288C27.0384 19.6533 27.6113 20.0531 27.9888 20.4463L28.0149 20.4791C28.1125 20.584 28.2362 20.6692 28.3729 20.7216C28.438 20.7478 28.5097 20.7675 28.5813 20.7806C28.7831 20.8068 28.7831 20.8658 28.5813 21.1345C28.4901 21.2524 28.2753 21.6326 27.9368 21.8619C27.8847 21.8947 27.774 21.9406 27.7415 21.9275C27.7415 21.9275 28.0344 21.6653 27.9433 21.318C27.8977 21.141 27.8196 20.8527 27.3053 20.4398C26.9537 20.158 26.5762 19.9745 26.0814 19.9155C24.838 19.7647 23.4969 20.3349 22.7482 21.8357L22.5269 22.3338C22.4878 22.3338 22.4813 22.1569 22.5269 21.9799C23.0086 20.0859 24.7143 19.2798 26.2832 19.5354V19.5288Z" fill="#221714"/>
<path d="M26.7325 19.942C26.7325 19.942 27.9043 23.2123 25.3329 23.3893C22.6247 23.5793 22.6507 21.4428 22.7484 21.6656C22.7484 21.6656 23.3473 20.001 24.9032 19.824C26.4591 19.6471 26.7325 19.9355 26.7325 19.9355V19.942Z" fill="#221714"/>
<path d="M26.4134 20.4275C26.6999 20.4275 27.1556 22.2363 26.2637 22.813C25.4564 23.3373 24.4864 23.1145 23.9005 22.9375C23.562 22.8327 23.0998 22.197 23.1909 21.8627C23.1909 21.8627 23.4578 22.6492 24.6362 22.7081C25.1309 22.7344 25.6908 22.6492 26.1139 22.3215C26.6933 21.8824 26.4915 20.8797 26.4264 20.4209L26.4134 20.4275Z" fill="#A1CFEA"/>
<path d="M23.894 20.5251C23.3928 20.394 23.1845 21.2661 23.7053 21.3054C24.2261 21.3448 24.4018 20.6432 23.894 20.5251Z" fill="white"/>
<path d="M20.9712 23.2394C20.9712 23.6328 20.0858 24.1442 19.7017 24.1442C19.3177 24.1442 18.4323 23.6328 18.4323 23.2394C18.4323 22.846 18.9987 22.5312 19.7017 22.5312C20.4048 22.5312 20.9712 22.846 20.9712 23.2394Z" fill="#060001"/>
<path d="M30.8793 24.9095C29.6944 24.4377 29.7791 21.2984 29.1736 19.5355C27.6763 16.1079 24.9942 12.4509 21.0816 11.848C19.3565 11.612 17.6704 11.8938 16.134 12.5558C13.595 13.6502 11.7722 15.8457 10.659 18.3886C9.78666 20.3875 9.35048 22.2094 9.21377 23.1073C9.14867 23.5464 8.92733 24.2738 8.43908 24.5032C7.59277 24.8571 8.28934 24.8571 8.54324 25.4011C8.4521 25.7353 7.6123 26.122 8.25028 26.3186C8.40002 26.3514 8.7125 26.5218 8.86223 26.5545C8.43257 27.0526 8.3284 27.1116 8.78411 27.3672C8.88827 27.4262 8.97941 27.4917 9.06404 27.5769C10.7306 29.235 12.612 30.6178 14.9361 31.3715C16.9087 32.0138 17.6508 32.466 20.1637 33.1345C20.2028 33.1279 21.4071 32.715 22.3511 32.3611C23.295 32.0072 24.6166 31.0176 25.6647 30.6768C26.8756 30.277 28.0865 29.7921 28.8351 28.7107C29.115 28.3896 29.5382 27.8587 29.9158 27.649C30.2738 27.5245 30.7491 27.6687 30.365 27.2689C29.7205 26.6856 30.4366 26.6266 30.8793 26.5086C31.0616 26.4628 30.4757 25.8926 30.4626 25.696C30.9574 25.1979 31.4066 25.1651 30.8793 24.8964V24.9095ZM29.8963 27.2492C29.0109 27.7604 28.4315 28.9794 27.2467 29.4709C25.5606 30.4605 24.3236 30.939 22.2599 32.1383C22.2599 32.1383 20.6194 32.9378 19.8577 32.7347C19.0961 32.5315 16.6938 31.3256 14.3177 30.7489C13.9531 30.6572 13.595 30.5392 13.2565 30.3753C11.6811 29.6151 10.5353 28.1864 9.23981 27.0919C9.89733 26.3579 9.66948 26.4759 8.82317 26.0368C9.22028 25.578 9.42861 25.4076 8.72552 24.8833C9.24632 24.7195 9.59787 24.0838 9.64344 23.5988C9.7476 22.5305 10.0666 21.4819 10.4442 20.4923C11.0366 19.0374 11.5965 17.5628 12.3972 16.1996C13.6732 14.8037 15.177 13.2832 17.0063 12.6868C19.3304 11.9659 22.1818 11.9266 24.1544 13.5257C26.3418 15.3542 28.1971 17.7332 28.8677 20.5513C29.2127 21.9866 29.3494 24.2804 30.5342 25.1455C30.0069 25.5321 29.9548 25.696 30.3194 26.2334C29.7465 26.3317 29.4666 26.5873 29.9028 27.2492H29.8963Z" fill="#060001"/>
<path d="M16.3684 32.8134C14.7278 32.5447 11.6811 31.7517 10.0145 30.8407C7.98341 29.7266 6.60327 27.9243 6.8116 25.2831C7.46911 19.3717 10.1708 12.7393 16.095 10.511C17.7029 9.94743 19.4737 9.98675 21.1468 10.2227C21.7392 10.2227 22.4292 10.6814 22.9566 10.3013C23.0737 10.1899 23.0412 10.0719 22.885 10.0392C19.4216 9.20686 15.7499 9.56731 12.905 11.8021C8.98596 14.6006 3.55005 26.1876 8.00945 30.0608C9.22683 31.306 11.9741 32.0335 13.5951 32.4333C16.5767 33.1673 16.3749 32.8068 16.3749 32.8068L16.3684 32.8134Z" fill="black"/>
<path d="M33.2295 26.0239C32.9431 20.4926 31.4653 16.6193 26.8301 12.1824C26.4721 11.8351 23.9657 9.94106 23.9331 10.8062C28.6855 13.0213 31.7192 18.2708 32.6241 23.2517C32.9626 25.0277 32.8063 27.0135 31.8103 28.6585C29.9549 31.3914 25.8796 31.6535 22.6767 33.0298C22.5921 33.0692 22.247 33.2002 22.4293 33.3182C22.5921 33.4034 23.3342 33.3051 23.3472 33.0757C23.3472 33.0757 23.3472 33.0626 23.3407 33.0626C27.0384 31.9091 33.2555 31.1293 33.2295 26.0239Z" fill="black"/>
<path d="M12.664 26.3122C12.0651 25.9581 11.1537 26.0303 10.8868 26.1221C10.6915 26.1876 10.9063 26.2729 11.0951 26.2401C11.349 26.2073 11.8438 26.345 12.2214 26.4302C12.4297 26.4761 12.5924 26.5089 12.6901 26.3843C12.6966 26.3712 12.6836 26.3253 12.664 26.3122Z" fill="black"/>
<path d="M12.6448 26.9021C12.2803 27.0266 11.2257 27.0266 11.1606 27.4266C11.2322 27.5053 11.3819 27.466 11.4665 27.4332C11.4926 27.4332 11.5056 27.4201 11.4665 27.4332C11.7009 27.3479 12.2803 27.2234 12.3649 27.2037C12.6058 27.1578 13.1591 26.9414 12.6514 26.8955L12.6448 26.9021Z" fill="black"/>
<path d="M26.7584 26.6467C26.856 26.6008 27.1164 26.5221 27.5656 26.4631C28.0148 26.4041 28.1776 26.4041 28.438 26.4172C28.4966 26.4172 28.5291 26.2795 28.4836 26.2139C28.2036 25.814 26.0097 26.6073 26.7584 26.6467Z" fill="black"/>
<path d="M26.7387 27.3541C27.292 27.3737 28.2425 27.8917 28.2034 27.4852C27.93 27.4065 26.8819 27.0328 26.6345 27.2492C26.602 27.2754 26.6801 27.3541 26.7387 27.3541Z" fill="black"/>
<g style="mix-blend-mode:multiply" opacity="0.57">
<path d="M28.9718 20.0347C28.0213 16.2729 24.4799 13.5203 22.937 12.6159C21.3941 11.7115 18.432 11.9212 16.3944 12.6159C14.3632 13.3106 11.7397 16.2467 11.0886 17.6754C10.4376 19.1041 9.78012 21.66 9.39603 23.3181C9.20073 24.157 8.92079 24.5633 8.68643 24.7534C9.702 24.6682 10.0861 23.6851 10.1512 23.3181C10.8543 19.0648 13.556 14.8311 15.4569 13.8808C15.4569 13.8808 17.2797 12.5045 19.4346 12.5438C21.5829 12.5831 23.6596 13.6055 25.1113 15.0604C26.5566 16.5154 28.6789 19.5694 29.0499 22.9642C29.128 23.6655 29.9093 24.7862 30.697 25.0811C30.697 25.0811 30.71 25.0745 30.7165 25.068C29.9353 24.3929 29.8311 23.4295 28.9783 20.0347H28.9718Z" fill="#D15739"/>
</g>
<g style="mix-blend-mode:multiply">
<path d="M9.39617 23.3177C9.78026 21.6662 10.4378 19.1102 11.0888 17.6749C11.7398 16.2462 14.3634 13.3036 16.3945 12.6155C18.4256 11.9208 21.3942 11.7111 22.9371 12.6155C24.48 13.5199 28.0215 16.2724 28.9719 20.0343C29.8248 23.4291 29.9354 24.3925 30.7101 25.0675C30.7948 25.0217 30.8729 24.9823 30.9575 24.943C30.5148 24.4449 30.1568 23.7044 30.1112 23.049C29.8052 18.5597 27.696 15.5777 26.0424 13.9197C24.3889 12.255 21.8825 11.3506 19.4282 11.3047C16.9739 11.2588 14.5261 12.7924 14.5261 12.7924C12.3517 13.8803 9.31154 18.4745 8.85584 23.5536C8.8363 23.7633 8.51731 24.4253 8.28946 24.7071C8.39362 24.7333 8.42617 24.7595 8.53684 24.7595C8.58892 24.7595 8.641 24.7595 8.69308 24.753C8.92745 24.5629 9.20738 24.1566 9.40268 23.3177H9.39617Z" fill="#A5B6BF"/>
</g>
<g style="mix-blend-mode:multiply" opacity="0.5">
<path d="M16.6874 17.7792C16.4986 17.7267 16.2838 17.7333 16.121 17.8382C15.9583 17.9431 15.8606 18.1464 15.9192 18.33C15.9453 18.4086 15.9973 18.4742 16.0494 18.5398C16.2382 18.7627 16.4856 18.9332 16.7395 19.084C16.8632 19.1627 17.0129 19.2414 17.1561 19.2151C17.2733 19.1955 17.371 19.1037 17.4296 18.9988C17.7876 18.4152 17.2277 17.93 16.6874 17.7792Z" fill="#D15739"/>
</g>
<path d="M15.3788 16.8949C15.3788 16.8949 15.7563 17.2489 15.8084 17.4784C15.8605 17.7079 15.8605 17.9309 16.2251 18.2587C16.5896 18.5866 17.0779 18.7439 17.1886 18.8619C17.2862 18.9603 17.2667 18.9406 17.2927 18.8619C17.3188 18.7898 17.2341 18.5931 17.13 18.3374C17.0844 18.2259 17.0258 18.1472 16.9868 18.0227C16.9282 17.8063 16.837 17.5965 16.7394 17.4063C16.5896 17.1112 16.3423 16.9867 16.3423 16.9867C16.3423 16.9867 16.5766 17.3932 16.6157 17.5506C16.6547 17.7079 16.6612 17.9964 16.8175 18.2456C16.9347 18.4292 16.9542 18.4554 16.9542 18.4554C16.9542 18.4554 16.6743 18.3964 16.4985 18.1669C16.3227 17.9374 16.2316 17.8587 16.173 17.5702C16.1144 17.2817 16.1079 17.1965 15.828 16.9801C15.548 16.7637 15.4374 16.8621 15.2551 16.7047C15.0728 16.5474 15.2876 16.8162 15.3723 16.9014L15.3788 16.8949Z" fill="#F8DBC8"/>
<g style="mix-blend-mode:multiply" opacity="0.5">
<path d="M22.605 17.0451C22.8003 17.032 23.0087 17.0779 23.1519 17.2025C23.2951 17.3271 23.3537 17.5566 23.2625 17.7205C23.2235 17.7926 23.1584 17.8516 23.0933 17.9041C22.8654 18.0877 22.592 18.2057 22.3186 18.3106C22.1819 18.3631 22.0256 18.4155 21.8889 18.3631C21.7783 18.3172 21.7001 18.2123 21.6546 18.1008C21.4137 17.4582 22.0452 17.0845 22.605 17.0451Z" fill="#D15739"/>
</g>
<path d="M21.9473 18.0757C21.9082 18.0889 21.8626 18.0626 21.8561 18.0233C21.8171 17.8659 21.9017 17.4594 22.097 17.243C22.3314 16.9807 22.442 16.9676 22.6113 16.6726C22.7806 16.3775 22.7415 16.2595 22.7415 16.2595C22.7415 16.2595 22.8001 16.548 22.7415 16.7447C22.6829 16.9414 22.6764 17.0725 22.5071 17.2037C22.3379 17.3348 22.2728 17.4004 22.2337 17.5905C22.1947 17.7807 22.2272 17.8004 22.5722 17.5053C22.7806 17.3283 22.9238 17.466 23.1191 17.3545C23.4511 17.1709 23.4511 17.066 23.5488 16.8037C23.6464 16.5349 24.1542 16.2333 24.1737 16.0693C24.1737 16.0693 24.0175 16.4955 23.8352 16.7906C23.6529 17.0857 23.7701 17.2037 23.36 17.4397C23.2037 17.5315 23.0605 17.6168 22.9433 17.6889C22.7155 17.8266 22.4746 17.9315 22.2207 18.0036L21.9473 18.0757Z" fill="#F8DBC8"/>
<g style="mix-blend-mode:multiply" opacity="0.8">
<path d="M10.8217 22.3604C10.698 22.4194 11.5638 23.9275 13.2825 24.1176C12.9895 24.2422 10.6134 24.4782 10.8217 22.3604Z" fill="#D15739"/>
</g>
<g style="mix-blend-mode:multiply" opacity="0.8">
<path d="M10.62 23.3633C10.4572 23.4682 11.0887 24.5304 12.4558 24.4386C12.1759 24.5763 10.4116 24.9238 10.62 23.3633Z" fill="#D15739"/>
</g>
<g style="mix-blend-mode:multiply" opacity="0.8">
<path d="M28.2753 22.2559C28.399 22.3149 27.5332 23.823 25.8145 24.0131C26.1075 24.1377 28.4836 24.3737 28.2753 22.2559Z" fill="#D15739"/>
</g>
<g style="mix-blend-mode:multiply" opacity="0.8">
<path d="M28.4772 23.2578C28.64 23.3627 28.0085 24.4249 26.6414 24.3331C26.9213 24.4708 28.6855 24.8184 28.4772 23.2578Z" fill="#D15739"/>
</g>
<path d="M15.7825 30.4277C15.7825 30.4277 18.1847 31.1621 20.027 31.1359C22.3837 31.1031 23.3406 30.5982 23.7833 30.513C23.7833 30.513 21.928 31.385 20.1767 31.3719C18.4255 31.3588 16.9217 31.0179 15.7759 30.4343L15.7825 30.4277Z" fill="#060001"/>
<g style="mix-blend-mode:multiply">
<path d="M18.8942 29.2939C19.7535 29.0841 20.4371 29.1824 20.9123 29.2611C21.3485 29.3332 20.6975 29.7266 20.1702 29.7266C18.7705 29.7266 18.8942 29.2939 18.8942 29.2939Z" fill="#F8DBC8"/>
</g>
<g style="mix-blend-mode:multiply" opacity="0.5">
<path d="M14.6042 19.4112C14.513 19.4046 16.427 19.9945 17.1821 21.8623C17.065 21.6263 17.0975 19.6537 14.6042 19.4112Z" fill="#D15739"/>
</g>
<g style="mix-blend-mode:multiply" opacity="0.5">
<path d="M25.2418 19.1233C25.3329 19.1233 23.3539 19.4577 22.3578 21.2083C22.5076 20.9854 22.7289 19.0315 25.2418 19.1233Z" fill="#D15739"/>
</g>
<g style="mix-blend-mode:multiply">
<path d="M12.7097 32.5053C12.4948 32.3939 12.6641 32.2759 12.9505 32.171C13.7448 31.863 14.194 32.7281 15.0077 32.7084C14.9361 32.6888 14.858 32.6691 14.7799 32.6495C13.862 32.4332 13.0287 32.1907 12.1173 31.9417C8.29585 30.8865 5.6788 29.176 6.60323 23.5922C6.8441 22.1307 7.57974 20.6693 8.14611 19.293C7.82061 20.2498 7.56021 21.2394 7.39746 22.229C6.51209 27.5965 9.09658 30.4736 13.0026 31.2863C16.9087 32.0989 20.1767 33.1344 20.1767 33.1344C20.1767 33.1344 27.175 31.4829 30.1697 29.3529C33.1643 27.223 32.6109 23.0417 32.2138 20.6299C32.1683 20.3743 32.0966 20.086 31.999 19.7779C32.3505 20.5841 32.6044 21.3246 32.7086 21.9276C33.1252 24.4376 33.7111 27.9308 30.5928 30.1459C29.7205 30.762 28.4966 30.952 27.7154 31.6664C27.8456 31.6664 28.2948 31.745 28.1711 32.0596C27.813 32.6232 26.1074 33.1672 25.0137 33.508C25.0137 33.508 22.4162 34.2158 19.8317 34.0388C17.2472 33.8619 14.3307 33.3179 12.7162 32.5053H12.7097Z" fill="#A5B6BF"/>
</g>
<path d="M16.8368 25.9977C16.8498 26.0829 16.8889 26.1615 16.9214 26.2467C17.0451 26.5547 17.0517 26.889 17.0842 27.2166C17.1168 27.5443 17.1819 27.8851 17.3837 28.1407C17.6636 28.5012 18.1193 28.606 18.549 28.6716C19.9031 28.8878 21.9667 29.0386 22.5266 27.4395C22.6178 27.2035 22.9172 25.3685 22.3183 25.8666C22.2337 26.1353 22.2792 26.4236 22.2792 26.7055C22.2792 27.2363 22.136 27.7344 21.6738 28.0424C21.3874 28.2325 21.0358 28.3373 20.6973 28.3832C20.1114 28.4553 19.5059 28.4291 18.92 28.3308C18.6401 28.298 18.3537 28.2652 18.0933 28.1538C17.8524 28.049 17.592 27.8524 17.5139 27.5837C17.4618 27.4133 17.4618 27.2101 17.4423 27.0331C17.4423 26.6727 17.3511 26.2401 17.2144 25.9125C17.1753 25.8273 17.1168 25.729 17.0256 25.7158C16.9149 25.7027 16.8368 25.8207 16.8303 25.9321C16.8303 25.9518 16.8303 25.978 16.8303 25.9977H16.8368Z" fill="#070102"/>
<g style="mix-blend-mode:multiply" opacity="0.8">
<path d="M17.0063 25.8992C17.0063 25.8992 17.2732 26.5874 17.2863 27.1313C17.2993 27.6753 17.2602 28.252 18.6273 28.4814C19.9945 28.7108 22.9761 28.6321 22.5073 25.9648C22.5073 25.9648 20.5022 25.5126 19.6169 24.9424C19.376 25.1324 17.0063 25.8927 17.0063 25.8927" fill="#E6927D"/>
</g>
<g style="mix-blend-mode:multiply" opacity="0.8">
<path d="M17.3447 27.6951C17.4424 28.0359 17.7288 28.3373 18.6272 28.4881C19.9943 28.7174 22.8522 28.9272 22.39 26.2598C22.39 26.2598 22.2338 25.9321 21.6283 25.7617C20.5412 25.9649 19.174 26.4826 18.1715 27.02C17.846 27.1904 17.5791 27.4329 17.3447 27.6951Z" fill="#E17C7B"/>
</g>
<path d="M17.0972 25.9064C16.7001 25.9654 16.4007 25.7687 16.3291 25.5392C16.2574 25.3097 16.3551 25.2114 16.3551 25.2114C16.5699 25.8277 17.26 25.6573 18.0021 25.4212C18.3667 25.3032 18.7768 25.2442 19.0828 25.113C19.3172 25.0147 19.4604 24.7196 19.6231 24.8114C20.1765 25.1196 18.9786 25.4015 18.0021 25.6245C17.6246 25.7097 17.3186 25.8671 17.0972 25.8999V25.9064Z" fill="#070102"/>
<path d="M19.7665 24.9495H19.4736C19.5517 24.7397 19.2718 23.7955 19.7795 24.0249L19.7665 24.9495Z" fill="#070102"/>
<path d="M22.1297 25.9983C22.8067 26.1229 23.0867 25.8934 23.0932 25.5721C23.0932 25.3426 23.0606 25.3295 23.0606 25.3295C22.8328 25.9393 22.1167 25.8213 21.381 25.5656C21.2834 25.5328 20.9709 25.4148 20.8732 25.3754C20.6193 25.2836 20.4175 25.2115 20.1962 25.1131C19.9618 25.0082 19.8316 24.7066 19.6624 24.7984C19.3629 24.9558 19.5387 25.0607 19.9097 25.2246C20.1506 25.3295 20.4566 25.4934 20.7951 25.5852C20.9188 25.618 21.0816 25.677 21.2053 25.7098C21.5828 25.8082 21.9148 25.9459 22.1297 25.9852V25.9983Z" fill="#070102"/>
<path d="M17.4489 26.6798L17.3317 26.6208C16.9085 26.3979 16.889 25.8602 16.889 25.8405V25.7815L17.566 25.6504L17.5205 25.7684C17.3968 26.1028 17.4358 26.5421 17.4358 26.5487L17.4489 26.6798ZM17.0387 25.8996C17.0517 26.011 17.1038 26.2536 17.2861 26.4175C17.2861 26.2733 17.2926 26.0569 17.3447 25.8471L17.0387 25.9061V25.8996Z" fill="#070102"/>
<path d="M21.9475 26.6597C21.9475 26.6597 21.9996 26.2139 21.8824 25.8795L21.8433 25.7549L22.5139 25.8991V25.9581C22.5139 25.9581 22.4813 26.5155 22.0516 26.7253L21.9345 26.7843L21.9475 26.6532V26.6597ZM22.0582 25.9516C22.1102 26.1614 22.1102 26.3843 22.1037 26.5286C22.286 26.3778 22.3446 26.1352 22.3641 26.0237L22.0582 25.9581V25.9516Z" fill="#070102"/>
<path d="M17.0388 25.8991C17.0518 26.0106 17.1039 26.2532 17.2862 26.4171C17.2862 26.2729 17.2927 26.0565 17.3448 25.8467L17.0388 25.9057V25.8991Z" fill="white"/>
<path d="M22.0581 25.9521C22.1102 26.162 22.1102 26.3849 22.1037 26.5292C22.286 26.3783 22.3445 26.1357 22.3641 26.0243L22.0581 25.9587V25.9521Z" fill="white"/>
</svg>
