<svg width="40" height="40" viewBox="0 0 40 40" fill="none" xmlns="http://www.w3.org/2000/svg">
<g clip-path="url(#clip0_872_1240)">
<path d="M34.6022 24.6159C34.5109 24.3694 34.3478 24.1829 34.1522 24.0963C34.113 24.0763 34.0674 24.0697 34.0217 24.0697H33.4869C33.8522 22.7642 34.0478 21.3921 34.0478 19.9933C34.0478 16.0768 32.5543 12.3934 29.8413 9.62253C27.1283 6.85832 23.5217 5.33301 19.6869 5.33301C15.8522 5.33301 12.2456 6.85832 9.5326 9.62919C6.81956 12.4001 5.32608 16.0835 5.32608 20C5.32608 23.9165 6.81956 27.5999 9.5326 30.3708C12.2456 33.1416 15.8522 34.6669 19.6869 34.6669C22.4326 34.6669 25.0609 33.881 27.3304 32.4156H30.2326C30.4087 32.4156 30.5522 32.2691 30.5522 32.0892V31.9494C30.5522 31.9494 30.5522 31.9494 30.5522 31.9427H30.6043C30.6043 31.9427 30.6565 31.9427 30.6826 31.9427C31.3609 31.9427 32.0326 31.1501 32.3065 30.5573L32.4109 30.3308C32.6848 29.7446 32.9717 29.1385 34.5369 25.6216C34.6935 25.3019 34.713 24.9356 34.5956 24.6092L34.6022 24.6159Z" fill="black"/>
<path d="M19.687 35C15.7674 35 12.0761 33.4414 9.30435 30.6039C6.52609 27.7731 5 24.0031 5 20C5 15.9969 6.52609 12.2269 9.30435 9.39609C12.0761 6.55861 15.7609 5 19.687 5C23.613 5 27.2978 6.55861 30.0696 9.39609C32.8413 12.2269 34.3739 15.9969 34.3739 20C34.3739 21.2655 34.2174 22.5178 33.9109 23.7433H34.0217C34.113 23.7433 34.1978 23.7633 34.2761 23.7966C34.5565 23.9165 34.7848 24.1763 34.9087 24.5093C35.0587 24.9156 35.0261 25.3819 34.837 25.7815C33.2717 29.2984 32.9913 29.8979 32.7174 30.484L32.613 30.7105C32.3391 31.3033 31.6609 32.1559 30.8652 32.2691C30.787 32.5488 30.5391 32.7487 30.2391 32.7487H27.4283C25.113 34.2207 22.4391 35 19.6935 35H19.687ZM19.687 5.66607C15.937 5.66607 12.4152 7.15808 9.76087 9.86234C7.11304 12.5733 5.65217 16.1701 5.65217 20C5.65217 23.8299 7.11304 27.4267 9.76087 30.1377C12.4087 32.8419 15.937 34.3339 19.687 34.3339C22.3413 34.3339 24.9239 33.5746 27.1544 32.1359L27.2326 32.0826H30.2326V31.6097H30.637C31.1457 31.6097 31.7457 30.9969 32.013 30.4174L32.1174 30.1909C32.3913 29.6115 32.6717 29.012 34.237 25.4885C34.3543 25.242 34.3739 24.9689 34.2891 24.7358C34.2304 24.5759 34.1326 24.456 34.0217 24.4094H33.05L33.1674 23.9831C33.5326 22.6909 33.7152 21.3521 33.7152 20C33.7152 16.1701 32.2543 12.5733 29.6065 9.86234C26.9587 7.15808 23.4304 5.66607 19.6804 5.66607H19.687Z" fill="white"/>
<path d="M19.7456 34.5803C27.5833 34.5803 33.9369 28.0913 33.9369 20.0866C33.9369 12.0819 27.5833 5.59277 19.7456 5.59277C11.908 5.59277 5.55434 12.0819 5.55434 20.0866C5.55434 28.0913 11.908 34.5803 19.7456 34.5803Z" fill="#080103"/>
<path d="M16.0804 24.0763C16.3087 24.376 16.5565 24.709 16.9478 25.0687C17.2609 25.3551 17.5283 25.5216 17.8739 25.7414C18.1935 25.9479 18.5261 26.1278 18.8848 26.3009C19.563 26.6207 19.9087 26.7805 20.2739 26.7339C20.4174 26.7139 20.8087 26.6673 21.0761 26.3676C21.2783 26.1411 21.2913 25.908 21.6369 25.535C21.6891 25.475 21.7413 25.4151 21.8326 25.3485C22.3739 24.9422 22.8435 25.0154 22.8435 25.0154L22.4522 24.4226C23.313 22.6575 23.5152 21.5185 23.9652 21.4919C24.1609 21.4786 24.1935 21.705 24.4087 21.6851C24.8326 21.6517 25.0739 20.7259 25.2109 20.2263C25.3935 19.527 25.6609 18.5212 25.1717 17.8418C24.9891 17.582 24.8065 17.5287 24.7478 17.5154C24.2848 17.4022 23.8543 17.9017 23.8217 17.9484C23.013 17.1158 22.1978 16.7161 21.6956 16.5163C21.2 16.3232 19.1391 15.6038 17.3783 16.6562C16.9478 16.916 16.2043 17.3622 16.0739 18.2015C15.9304 19.114 16.5956 19.8467 16.7065 19.9666C16.6152 19.9466 15.9239 19.8001 15.3565 20.2663C14.9391 20.6127 14.7891 21.1255 14.7956 21.5119C14.8022 21.9981 15.063 22.4444 15.5261 23.2303C15.5848 23.3369 15.7869 23.67 16.0869 24.0763H16.0804Z" fill="white"/>
<path d="M23.4826 18.3349C23.6522 18.3682 23.8217 18.4015 23.9848 18.4348C23.9261 18.7678 23.8609 19.2541 23.8609 19.8602C23.8609 20.2798 23.8609 20.493 23.9456 20.6928C24.2326 21.3722 25.0674 21.5853 25.4652 21.6852C25.8696 21.7918 26.2935 21.8984 26.7435 21.6986C27.1152 21.5387 27.2978 21.2523 27.5783 20.8393C27.9435 20.2865 28.0478 19.8202 28.1391 19.334C28.1652 19.1808 28.1913 18.9943 28.1391 18.7811C28.1391 18.7811 28.0935 18.5946 27.9696 18.4215C27.6761 18.0018 26.7891 17.5955 25.837 17.5089C25.6543 17.4956 24.9761 17.429 24.5652 17.5689C24.5326 17.5822 24.4348 17.6155 24.2978 17.6222C24.0761 17.6355 23.887 17.5689 23.763 17.5089C23.6652 17.782 23.5674 18.0618 23.4696 18.3349H23.4826Z" fill="#20FF20"/>
<path d="M26.2087 21.9651C25.9348 21.9651 25.6739 21.8985 25.4326 21.8385C25.0087 21.732 24.1217 21.5055 23.8087 20.7528C23.7109 20.5197 23.7109 20.2733 23.7109 19.8603C23.7109 19.4273 23.7435 18.9944 23.8087 18.5681L23.2739 18.4682L23.6848 17.2959L23.8413 17.3692C23.9978 17.4424 24.1478 17.4757 24.2978 17.4691C24.4087 17.4624 24.487 17.4358 24.5196 17.4225C24.813 17.3225 25.2565 17.3026 25.85 17.3492C26.8152 17.4358 27.7609 17.8487 28.1 18.3283C28.237 18.5281 28.2957 18.7346 28.2957 18.7413C28.3543 18.9811 28.3283 19.1876 28.2957 19.3607C28.1978 19.8803 28.0804 20.3598 27.7087 20.926C27.4217 21.3523 27.2196 21.6587 26.8087 21.8452C26.6 21.9384 26.4043 21.9717 26.2087 21.9717V21.9651ZM23.6913 18.2084L24.1674 18.3017L24.1413 18.4549C24.063 18.9078 24.0174 19.3807 24.0239 19.847C24.0239 20.2599 24.0239 20.4531 24.0956 20.613C24.35 21.2191 25.1326 21.4189 25.5109 21.5188C25.9087 21.6187 26.287 21.7186 26.6913 21.5388C27.0174 21.3923 27.187 21.1458 27.4543 20.7395C27.8 20.2266 27.8978 19.8003 27.9956 19.2941C28.0217 19.1476 28.0413 18.9877 27.9956 18.8145C27.9956 18.8145 27.95 18.6547 27.8522 18.5082C27.6109 18.1618 26.7826 17.7488 25.8304 17.6622C25.1456 17.6023 24.7935 17.6622 24.6239 17.7155C24.5848 17.7288 24.4739 17.7688 24.3239 17.7755C24.1739 17.7821 24.0239 17.7622 23.8739 17.7155L23.6978 18.2084H23.6913Z" fill="#20FF20"/>
<path d="M24.9369 23.0705C25.5761 23.1704 25.8956 23.217 26.163 23.3036C26.9456 23.5501 27.2065 23.8631 27.3369 23.7499C27.4935 23.61 27.2782 22.8973 26.8022 22.3977C26.1565 21.7183 25.7065 22.1313 24.663 21.4319C24.1674 21.0989 23.6848 20.606 23.0848 20.4728C22.9869 20.4528 22.7587 20.3995 22.4848 20.4528C22.2761 20.4928 22.1717 20.5594 21.9043 20.666C21.8 20.7126 21.4739 20.8458 21.1804 20.8991C20.5217 21.0323 19.9674 20.8058 19.8435 20.7525C19.7261 20.6993 19.4587 20.586 19.1913 20.3329C18.9174 20.0731 18.9304 19.9333 18.6239 19.6868C18.5522 19.6269 18.3761 19.5469 18.05 19.3405C17.8152 19.1939 17.7109 19.1207 17.6065 19.1673C17.4109 19.2472 17.3913 19.6469 17.3848 19.7468C17.3587 20.2596 17.5543 20.7126 17.9326 21.3187C18.5782 22.3511 19.3609 23.1904 19.3609 23.1904C19.3609 23.1904 20.1304 23.9963 21.1869 24.5225C21.5913 24.7223 21.9109 24.8223 22.0152 24.8489C22.6674 25.0421 23.1891 25.0421 23.6782 25.0354C23.7435 25.0354 24.9891 25.0221 25.0022 24.8422C25.0022 24.7756 24.8522 24.749 24.4739 24.5425C24.1087 24.3427 23.8739 24.2095 23.7369 24.003C23.6782 23.9164 23.4761 23.5767 23.7109 22.884L23.0522 22.7441C23.0261 23.1238 23.1043 23.4035 23.163 23.57C23.2543 23.8098 23.3848 23.9963 23.5869 24.2761C23.6913 24.4226 23.7826 24.5358 23.8478 24.6158C23.6913 24.5958 23.4761 24.5625 23.2283 24.5092C23.0978 24.4826 22.7456 24.4026 22.3869 24.2761C22.2109 24.2095 21.8652 24.0696 21.2522 23.6766C20.8543 23.4168 20.1826 22.9772 19.4391 22.2179C19.0869 21.8516 18.7283 21.4786 18.3891 20.8858C18.1022 20.3795 17.8804 19.8067 17.9522 19.7601C18.0304 19.7135 18.3565 20.3263 19.1 21.019C19.6804 21.5518 20.2804 21.8249 20.5282 21.9448C20.9456 22.1446 21.3043 22.2645 21.6435 22.3778C22.0543 22.511 22.3674 22.5909 22.6478 22.6642C22.9087 22.7308 23.3522 22.8374 23.9391 22.9373C24.3696 23.0105 24.3565 22.9906 24.9174 23.0771L24.9369 23.0705Z" fill="#FFBD1A"/>
<path d="M23.0652 22.758C23.0391 23.1377 23.1174 23.4174 23.1761 23.5839C23.2674 23.8237 23.3978 24.0102 23.6 24.29C23.7043 24.4365 23.7957 24.5497 23.8609 24.6297C23.7043 24.6097 23.4891 24.5764 23.2413 24.5231C23.1109 24.4965 22.7587 24.4165 22.4 24.29C22.2239 24.2234 21.8783 24.0835 21.2652 23.6905C20.8674 23.4307 20.1957 22.9911 19.4522 22.2318C19.1 21.8655 18.7413 21.4925 18.4022 20.8996C18.1152 20.3934 17.8935 19.8206 17.9652 19.774C18.0435 19.7274 18.3696 20.3401 19.113 21.0329C19.6935 21.5657 20.2935 21.8388 20.5413 21.9587C20.9587 22.1585 21.3174 22.2784 21.6565 22.3917C21.9826 22.4982 22.263 22.5848 22.6609 22.6781C22.8435 22.718 23.0587 22.778 23.0587 22.778L23.0652 22.758Z" fill="black"/>
<path d="M24.3043 17.6157C24.037 17.6357 23.8739 17.5691 23.7696 17.5025C23.6783 17.4426 23.6391 17.3893 23.45 17.2361C23.3457 17.1495 23.2543 17.0829 23.1957 17.0429C23.1891 17.0429 23.0587 16.943 22.837 16.7965C21.6174 16.0105 20.5348 16.0038 20.5348 16.0038C20.2478 16.0038 19.6804 15.9905 19.2239 16.1704C18.9696 16.2703 18.937 16.2503 18.8196 16.2703C18.5652 16.3169 18.3565 16.3102 18.213 16.2969C16.4065 15.7707 15.4087 15.3977 14.887 15.1246C14.75 15.0514 14.3783 14.8449 13.9348 14.9115C13.6478 14.9581 13.4326 15.098 13.3022 15.1846C12.9761 15.3977 12.8 15.6575 12.637 15.9039C12.4543 16.177 11.9522 16.9497 12.1935 17.2494C12.2391 17.3027 12.3565 17.4026 12.6957 17.3626C12.7283 17.0829 12.8326 16.5767 13.2109 16.1304C13.3543 15.9639 13.5304 15.7641 13.837 15.6708C14.1957 15.5576 14.5283 15.6775 14.6913 15.7441C15.2652 15.9572 16.6348 16.4901 18.4543 17.2494C18.4348 17.4625 18.4152 17.7689 18.4348 18.1286C18.4609 18.6748 18.487 19.1144 18.6957 19.5407C19.113 20.38 20.0457 20.6464 20.2022 20.6863C20.3261 20.7197 21.4087 21.0061 22.3152 20.3533C22.7326 20.0536 22.9543 19.6739 23.0783 19.4608C23.3326 19.0212 23.4435 18.6015 23.4891 18.3351C23.6587 18.3684 23.8283 18.4017 23.9913 18.435C24.0957 18.1619 24.2065 17.8955 24.3109 17.6224L24.3043 17.6157Z" fill="#20FF20"/>
<path d="M20.913 20.9396C20.5348 20.9396 20.2478 20.873 20.15 20.8463C19.8826 20.7731 18.9696 20.4667 18.5456 19.6141C18.3239 19.1612 18.2978 18.6882 18.2717 18.1421C18.2587 17.8823 18.2652 17.6159 18.2848 17.3561C16.7261 16.71 15.3826 16.1771 14.6326 15.8974C14.4891 15.8441 14.1956 15.7309 13.8761 15.8308C13.6087 15.9107 13.4522 16.0972 13.3283 16.2438C13.0022 16.6301 12.8848 17.0763 12.8522 17.3894L12.8391 17.516L12.7152 17.5293C12.4087 17.5626 12.1935 17.5093 12.0761 17.3561C11.8543 17.0763 11.9913 16.5901 12.5065 15.8175C12.663 15.5843 12.8587 15.2979 13.2174 15.0581C13.3543 14.9649 13.5891 14.8117 13.9022 14.7651C14.3848 14.6918 14.7826 14.9049 14.9391 14.9915H14.9522C15.5065 15.2979 16.5826 15.6709 18.2326 16.1572C18.4152 16.1705 18.6043 16.1572 18.7804 16.1305C18.813 16.1305 18.8456 16.1239 18.8717 16.1172C18.937 16.1105 18.9891 16.1039 19.1587 16.0373C19.6413 15.8508 20.2217 15.8574 20.5283 15.8574C20.5739 15.8574 21.6696 15.8774 22.9152 16.6767C23.137 16.8166 23.2609 16.9098 23.287 16.9298C23.3717 16.9898 23.463 17.0564 23.5478 17.1296C23.6391 17.2029 23.6978 17.2562 23.7435 17.2962C23.7891 17.3361 23.8217 17.3628 23.8609 17.3894C23.9717 17.4627 24.1217 17.4893 24.2978 17.476L24.5456 17.456L24.0891 18.6283L23.6065 18.5351C23.5283 18.8947 23.3913 19.2411 23.2087 19.5608C23.0848 19.7806 22.8435 20.1869 22.4 20.5C21.8978 20.8597 21.35 20.9529 20.913 20.9529V20.9396ZM14.137 15.4644C14.4043 15.4644 14.6261 15.551 14.737 15.591C15.5065 15.8841 16.9022 16.4303 18.5065 17.103L18.6174 17.1496L18.6043 17.2695C18.5783 17.5559 18.5717 17.8423 18.5848 18.1287C18.6109 18.6616 18.6304 19.0812 18.8261 19.4742C19.1913 20.2069 19.9935 20.4733 20.2283 20.5399C20.4174 20.5932 21.3956 20.8197 22.2109 20.2335C22.6022 19.9538 22.8109 19.5874 22.9283 19.3876C23.1174 19.0546 23.2543 18.6949 23.3196 18.3152L23.3456 18.1554L23.8804 18.2553L24.0696 17.7824C23.9261 17.7624 23.7956 17.7224 23.6848 17.6492C23.6261 17.6092 23.587 17.5759 23.5283 17.5293C23.4826 17.4893 23.4304 17.4427 23.3456 17.3761C23.2804 17.3228 23.2087 17.2695 23.137 17.2162H23.1239L23.0848 17.1763C23.0848 17.1763 22.9348 17.063 22.7456 16.9431C21.5783 16.1971 20.5348 16.1705 20.5217 16.1705C20.2348 16.1705 19.7 16.1572 19.2696 16.3303C19.0739 16.4103 18.9956 16.4169 18.9043 16.4303C18.8848 16.4303 18.8587 16.4303 18.8326 16.4369C18.6239 16.4769 18.4087 16.4835 18.1935 16.4702H18.1804H18.1674C16.4848 15.9773 15.3891 15.591 14.8152 15.2846H14.8022C14.6652 15.2047 14.3391 15.0315 13.9609 15.0848C13.713 15.1247 13.5239 15.2446 13.4 15.3312C13.0935 15.5377 12.9304 15.7775 12.7739 16.0106C12.1804 16.8965 12.2978 17.1296 12.3239 17.1629C12.337 17.1829 12.3956 17.2295 12.5652 17.2295C12.6239 16.8832 12.7609 16.4369 13.1 16.0439C13.237 15.8841 13.4391 15.6443 13.7978 15.5377C13.9217 15.4978 14.0391 15.4844 14.15 15.4844L14.137 15.4644Z" fill="#20FF20"/>
<path d="M13.6022 25.3485C13.5826 25.4018 11.7761 24.9155 9.89782 24.2295C9.60434 24.1229 9.35652 24.0296 9.18695 23.963C9.05652 23.983 8.86739 24.1695 8.95869 24.376C8.96521 24.9089 8.14347 24.809 8.01956 26.1278C10.1 30.0643 13.1391 31.9493 13.1391 31.9493C15.0435 33.1682 17.2217 33.9675 17.3196 33.7876C17.3522 33.721 17.1043 33.5079 16.8891 33.348C16.8891 33.328 16.8435 32.9484 15.0304 32.1757C16.6935 32.0225 18.3956 31.8827 20.1304 31.7694C22.6152 31.6029 25.0348 31.483 27.3956 31.4031C27.1478 30.9635 26.8674 30.5106 26.5543 30.051C25.4 28.3591 24.1152 27.0869 22.9609 26.1478C22.9348 26.1211 22.9022 26.1011 22.8761 26.0745C22.9413 25.9946 23.0652 25.8081 23.0848 25.5416C23.0848 25.5283 23.1109 25.2286 23 25.182C22.8956 25.1353 22.7261 25.3418 22.4326 25.6882C21.7413 26.5141 21.6565 26.6007 21.5848 26.6873C21.4348 26.8871 21.2587 30.0043 21.0304 30.0643C20.8478 30.1109 20.7304 28.166 19.387 27.2002C18.8978 26.8471 18.5652 26.8605 17.6196 26.241C17.0717 25.8813 16.6609 25.535 16.387 25.2952L16.1978 25.3884C16.1978 25.3884 16.1717 25.4084 16.1717 25.4284C16.1717 25.4417 16.1783 25.455 16.1848 25.4617C16.2109 25.495 16.4913 25.7947 16.4978 25.7881C16.5043 25.7814 16.1978 25.6082 15.4283 24.8889C14.3978 23.9297 13.9283 23.4768 13.1717 22.6375C12.1217 21.5119 11.6326 20.3862 12.5717 19.1007C14.1043 16.6562 13.987 16.6029 15.4087 15.2574C15.8326 14.8445 16.7522 14.0652 18.1674 13.6722C18.513 13.5789 19.7196 13.2725 21.2522 13.5856C21.8652 13.7122 24.1283 14.1851 25.2109 16.15C25.4717 16.6229 25.6022 17.0692 25.6674 17.3822C25.8239 17.3955 25.9804 17.4089 26.1435 17.4222C26.2348 17.4288 26.3261 17.4355 26.4109 17.4422C26.5152 17.0359 26.613 16.4098 26.4435 15.7237C26.4435 15.7237 26.4304 15.6704 26.4174 15.6105C26.0326 14.2583 24.2391 13.1193 24.2391 13.1193C22.9087 12.4599 20.4174 11.3542 17.7761 11.0279C16.8956 10.9213 16.0478 10.9013 15.1478 11.261C14.7239 11.4275 14.15 11.7339 13.1717 12.7663C11.8739 14.1251 11.2283 15.3041 10.1 17.4688C9.31087 18.9675 8.95869 19.9066 9.10869 21.019C9.14782 21.332 9.21956 21.5585 9.24565 21.6384C9.42174 22.2046 9.86521 22.7841 9.86521 22.7841C10.5239 23.6433 11.3522 24.2095 11.3522 24.2095C11.9326 24.6091 12.513 24.8556 12.9761 25.0621C13.4065 25.2486 13.6283 25.3152 13.6217 25.3352L13.6022 25.3485Z" fill="white"/>
<path d="M18.363 30.9702C17.4891 30.8037 16.8174 30.6305 16.3609 30.5039C16.237 30.4706 16.1783 30.4506 16.1065 30.4307C15.037 30.0776 14.8217 29.7046 13.8304 29.5914C12.9174 29.4915 12.4348 29.7313 12.3761 29.5914C12.2717 29.3183 13.9478 27.8063 16.0348 27.7863C18.0891 27.7664 19.4978 29.1918 19.6935 29.3982C20.5348 30.2708 21.4674 31.3498 21.2717 31.5896C21.1478 31.7428 20.6196 31.5097 20.15 31.2633" fill="#040302"/>
<path d="M19.687 34.6669C15.8522 34.6669 12.2456 33.1416 9.5326 30.3708C6.81956 27.5999 5.32608 23.9165 5.32608 20C5.32608 16.0835 6.81956 12.4001 9.5326 9.62919C12.2456 6.85832 15.8522 5.33301 19.687 5.33301C23.5217 5.33301 27.1283 6.85832 29.8413 9.62919C32.5543 12.4001 34.0478 16.0835 34.0478 20C34.0478 23.9165 32.5543 27.5999 29.8413 30.3708C27.1283 33.1416 23.5217 34.6669 19.687 34.6669ZM19.687 6.00574C16.0283 6.00574 12.5848 7.46445 9.99565 10.1021C7.40652 12.7464 5.98478 16.2566 5.98478 20C5.98478 23.7433 7.41304 27.2535 9.99565 29.8978C12.5848 32.5422 16.0217 33.9942 19.687 33.9942C23.3522 33.9942 26.7891 32.5355 29.3783 29.8978C31.9674 27.2535 33.3891 23.7433 33.3891 20C33.3891 16.2566 31.9609 12.7464 29.3783 10.1021C26.7891 7.45779 23.3522 6.00574 19.687 6.00574Z" fill="#080103"/>
<path d="M30.6239 31.603H23.2739C23.2739 31.603 23.0978 31.603 22.9152 31.603C22.8891 31.603 22.55 31.583 22.4783 31.5697C22.2239 31.5097 21.9956 31.0568 22.2239 30.5173C22.2239 30.5106 22.3413 30.1709 22.3413 30.1642L24.1609 25.4817C24.4087 24.9489 24.7217 24.416 25.1326 24.416H34.0217C34.2826 24.5292 34.4652 25.0221 34.237 25.4817C32.4696 29.4449 32.3391 29.7046 32.0065 30.4173C31.7522 30.9635 31.1261 31.6629 30.6239 31.603Z" fill="white"/>
<path d="M30.6826 31.9495C30.6826 31.9495 30.6304 31.9495 30.6043 31.9495H23.2739C23.2739 31.9495 23.0978 31.9495 22.9152 31.9495C22.9022 31.9495 22.5174 31.9362 22.4065 31.9096C22.2043 31.8629 22.0217 31.7097 21.9109 31.4899C21.7543 31.1769 21.7543 30.7772 21.9109 30.3976C21.9174 30.3776 21.9435 30.311 21.963 30.2444C22.0152 30.0845 22.0283 30.0579 22.0348 30.0445L23.8478 25.3687C23.8478 25.3687 23.8478 25.3554 23.8543 25.3487C24.1478 24.7226 24.5261 24.0898 25.1261 24.0898H34.0152C34.0609 24.0898 34.1065 24.0965 34.1456 24.1165C34.3413 24.2031 34.5043 24.3896 34.5956 24.636C34.713 24.9557 34.687 25.3221 34.537 25.6485C32.9717 29.1653 32.6848 29.7715 32.4109 30.3576L32.3065 30.5841C32.0326 31.1769 31.3543 31.9695 30.6826 31.9695V31.9495ZM22.5565 31.2302C22.6283 31.2368 22.8696 31.2568 22.9217 31.2568C23.0978 31.2568 23.2609 31.2568 23.2739 31.2568H30.6239C30.6239 31.2568 30.65 31.2568 30.663 31.2568C30.9369 31.2901 31.4652 30.7906 31.7065 30.2644L31.8109 30.0379C32.0848 29.4517 32.3652 28.8523 33.9304 25.3354C33.9304 25.3354 33.9304 25.3287 33.9304 25.3221C34.0348 25.1156 33.9956 24.9358 33.9696 24.8625C33.95 24.8092 33.9304 24.7692 33.9109 24.7493H25.1261C25.0087 24.7493 24.8 24.8958 24.4609 25.6085L22.6478 30.2777C22.6478 30.2777 22.6152 30.3776 22.5891 30.4509C22.55 30.5707 22.5283 30.6351 22.5239 30.644C22.387 30.9704 22.5043 31.1902 22.55 31.2235L22.5565 31.2302Z" fill="black"/>
<path d="M30.2326 31.9492H16.987V32.0891H30.2326V31.9492Z" fill="white"/>
<path d="M30.2326 31.623H16.987C16.8105 31.623 16.6674 31.7692 16.6674 31.9494V32.0893C16.6674 32.2695 16.8105 32.4157 16.987 32.4157H30.2326C30.4091 32.4157 30.5522 32.2695 30.5522 32.0893V31.9494C30.5522 31.7692 30.4091 31.623 30.2326 31.623Z" fill="black"/>
<path d="M7.90216 14.218L7.32825 13.8783L8.44999 11.8867L9.0239 12.2264L7.90216 14.218ZM10.113 14.6176L7.70651 13.1989L8.0652 12.5661L10.4717 13.9849L10.113 14.6176Z" fill="#20FF20"/>
<path d="M10.85 13.2993L9.5065 10.6284L10.0087 10.0889L12.6826 11.3278L12.1674 11.8806L9.96302 10.7483L10.1391 10.5551L11.3456 12.7532L10.8435 13.2927L10.85 13.2993ZM10.9413 12.5067L10.4978 12.0804L11.4826 11.0214L11.9261 11.4477L10.9413 12.5067Z" fill="#20FF20"/>
<path d="M13.1587 11.0409L11.5739 8.70967L12.1609 8.29004L13.7456 10.6213L13.1587 11.0409Z" fill="#20FF20"/>
<path d="M14.3326 10.2221L13.1978 7.63103L13.85 7.3313L14.9848 9.92233L14.3326 10.2221ZM14.463 9.07641L14.2348 8.55022L14.6587 8.35705C14.7109 8.33707 14.75 8.30377 14.7826 8.25714C14.8152 8.21718 14.8348 8.16389 14.8413 8.10395C14.8413 8.044 14.8348 7.97739 14.8022 7.91078C14.7696 7.83752 14.7304 7.79089 14.6848 7.75093C14.6391 7.71762 14.5869 7.69764 14.5348 7.69098C14.4826 7.69098 14.4304 7.69098 14.3783 7.71762L13.9543 7.91078L13.7261 7.38458L14.2739 7.13148C14.4239 7.06487 14.5739 7.03157 14.7239 7.04489C14.8739 7.05821 15.0109 7.10483 15.1413 7.19808C15.2652 7.29133 15.3696 7.42455 15.4478 7.60439C15.5261 7.77757 15.5522 7.94409 15.5391 8.10395C15.5261 8.2638 15.4674 8.40368 15.3761 8.52357C15.2848 8.64347 15.1609 8.74338 15.0109 8.80998L14.463 9.06309V9.07641Z" fill="#20FF20"/>
<path d="M16.4326 9.30964L15.8391 6.53877L16.5435 6.37891L17.1369 9.14978L16.4391 9.30964H16.4326ZM16.55 7.05831L16.413 6.41221L17.7304 6.11914L17.8674 6.76523L16.55 7.05831ZM16.7652 8.08406L16.6282 7.45129L17.8348 7.1782L17.9717 7.81097L16.7652 8.08406ZM17.0065 9.18308L16.8695 8.53699L18.2065 8.23726L18.3435 8.88335L17.0065 9.18308Z" fill="#20FF20"/>
<path d="M18.9695 8.86314L18.8717 6.02567L19.5891 5.99902L19.6869 8.8365L18.9695 8.86314Z" fill="#20FF20"/>
<path d="M22.2239 9.19606C22.0348 9.1561 21.8587 9.07617 21.7152 8.9696C21.5652 8.86302 21.4413 8.72981 21.3435 8.56995C21.2456 8.41009 21.1804 8.23691 21.1543 8.05041C21.1217 7.85725 21.1282 7.66409 21.1739 7.45761C21.2196 7.25112 21.2913 7.06462 21.4022 6.91143C21.5065 6.75157 21.6369 6.62501 21.7869 6.5251C21.9369 6.42519 22.1 6.35858 22.2826 6.32528C22.4587 6.29198 22.6478 6.29198 22.8369 6.3386C23.0326 6.37857 23.2022 6.45849 23.3456 6.55841C23.4956 6.66498 23.613 6.78487 23.7043 6.93141L23.1239 7.35103C23.0848 7.27111 23.0261 7.2045 22.9543 7.14455C22.8826 7.0846 22.7913 7.04464 22.6869 7.02466C22.5956 7.00468 22.5043 7.00468 22.4196 7.018C22.3348 7.03132 22.2565 7.07128 22.1848 7.11791C22.113 7.17119 22.0543 7.2378 22.0022 7.32439C21.95 7.41098 21.9109 7.51089 21.8913 7.62413C21.8652 7.74402 21.8587 7.85059 21.8717 7.9505C21.8848 8.05041 21.9109 8.137 21.95 8.21693C21.9891 8.29686 22.0478 8.35681 22.1196 8.41009C22.1913 8.46338 22.2696 8.49668 22.3674 8.52333C22.4717 8.54997 22.5696 8.54997 22.6609 8.52999C22.7522 8.51 22.8369 8.4767 22.9087 8.41675L23.2674 9.04286C23.1174 9.13611 22.9609 9.19606 22.7913 9.22936C22.6217 9.26267 22.4326 9.25601 22.2239 9.20938V9.19606Z" fill="#20FF20"/>
<path d="M24.4804 10.0425C24.2978 9.94923 24.1478 9.83599 24.0304 9.68946C23.913 9.54958 23.8217 9.38972 23.7695 9.20988C23.7174 9.03671 23.6978 8.8502 23.7109 8.65704C23.7239 8.46388 23.7826 8.27072 23.8739 8.08422C23.9652 7.89106 24.0826 7.7312 24.2195 7.60464C24.3565 7.47809 24.513 7.37818 24.6826 7.31823C24.8522 7.25829 25.0282 7.23164 25.2109 7.2383C25.3935 7.25163 25.5761 7.29825 25.7587 7.3915C25.9413 7.48475 26.0913 7.59798 26.2087 7.73786C26.3261 7.87774 26.4174 8.03759 26.4695 8.21077C26.5217 8.38395 26.5413 8.57045 26.5282 8.76361C26.5087 8.95678 26.4565 9.14328 26.3652 9.33644C26.2739 9.52294 26.1565 9.6828 26.0195 9.81601C25.8826 9.94923 25.7261 10.0425 25.5565 10.1091C25.3869 10.1757 25.2109 10.2023 25.0282 10.189C24.8456 10.1757 24.6695 10.1291 24.4869 10.0425H24.4804ZM24.7739 9.40971C24.8913 9.46965 25.0152 9.4963 25.1261 9.48298C25.2435 9.46965 25.3478 9.42303 25.4456 9.3431C25.5435 9.26317 25.6282 9.14994 25.6935 9.01006C25.7456 8.90349 25.7782 8.80358 25.7913 8.70367C25.8043 8.60376 25.8043 8.51051 25.7782 8.42392C25.7587 8.33733 25.7195 8.2574 25.6609 8.19079C25.6022 8.12418 25.5304 8.06424 25.4391 8.01761C25.3217 7.95766 25.2043 7.93102 25.0869 7.94434C24.9695 7.95766 24.8652 8.00429 24.7674 8.08422C24.6695 8.16415 24.5848 8.27738 24.5195 8.41726C24.4674 8.52383 24.4348 8.6304 24.4217 8.72365C24.4087 8.82356 24.4087 8.91681 24.4348 9.0034C24.4543 9.08999 24.4935 9.16992 24.5522 9.23653C24.6109 9.30314 24.6826 9.36308 24.7739 9.40971Z" fill="#20FF20"/>
<path d="M25.9087 10.7616L27.7152 8.60352L28.263 9.08309L26.4565 11.2412L25.9087 10.7616ZM26.2804 11.0747L26.7109 10.5618L27.1609 10.9548C27.2652 11.0413 27.3696 11.1013 27.4804 11.1213C27.5913 11.1479 27.7022 11.1346 27.813 11.0813C27.9239 11.0347 28.0348 10.9414 28.1391 10.8215C28.2435 10.695 28.3087 10.5751 28.3413 10.4552C28.3674 10.3353 28.3674 10.2221 28.3283 10.1222C28.2891 10.0156 28.2174 9.92234 28.1196 9.82909L27.637 9.40947L28.0674 8.89659L28.55 9.31622C28.7 9.44943 28.8239 9.59597 28.9087 9.76249C28.9935 9.92234 29.0456 10.0955 29.0587 10.2754C29.0717 10.4552 29.0522 10.6284 28.9935 10.8082C28.9348 10.9881 28.837 11.1546 28.7 11.3211C28.563 11.4876 28.413 11.6075 28.25 11.6941C28.087 11.7807 27.9174 11.834 27.7478 11.8406C27.5717 11.854 27.4022 11.8273 27.2326 11.7674C27.063 11.7074 26.9 11.6075 26.75 11.481L26.2935 11.0813L26.2804 11.0747Z" fill="#20FF20"/>
<path d="M27.9174 12.6002L30.1543 10.915L30.5782 11.5078L28.3413 13.193L27.9174 12.6002ZM28.263 13.0798L28.7848 12.6868L29.6 13.8125L29.0782 14.2054L28.263 13.0798ZM29.15 12.4137L29.6587 12.0274L30.3956 13.0465L29.8869 13.4328L29.15 12.4137ZM29.9782 11.7876L30.5 11.3946L31.3022 12.5003L30.7804 12.8933L29.9782 11.7876Z" fill="#20FF20"/>
<path d="M29.313 14.6447L31.85 13.499L32.1435 14.1718L29.6065 15.3174L29.313 14.6447ZM30.4478 14.7779L31.0413 14.5115L31.55 15.6837L30.9565 15.9502L30.4478 14.7779ZM31.4913 14.3116L32.0848 14.0452L32.613 15.2708L32.0196 15.5372L31.4913 14.3116Z" fill="#20FF20"/>
<path d="M30.1609 16.6891L32.8739 16.083L33.0239 16.8024L30.3109 17.4085L30.1609 16.6891ZM30.2848 17.2686L30.9174 17.1287L31.2109 18.4942L30.5782 18.6341L30.2848 17.2686ZM31.3543 17.0288L31.9739 16.889L32.2413 18.1212L31.6217 18.2611L31.3543 17.0288ZM32.3652 16.809L32.9978 16.6692L33.2848 18.0146L32.6522 18.1545L32.3652 16.809Z" fill="#20FF20"/>
<path d="M30.5652 20.0734C30.5652 19.8536 30.6043 19.6605 30.6761 19.4939C30.7478 19.3274 30.8587 19.1809 31.0087 19.041L31.4913 19.5073C31.3935 19.6005 31.3217 19.7004 31.2695 19.807C31.2174 19.9136 31.1913 20.0268 31.1913 20.1467C31.1913 20.2466 31.2043 20.3199 31.2369 20.3732C31.2695 20.4265 31.3152 20.4531 31.3739 20.4531C31.4326 20.4531 31.4782 20.4331 31.5174 20.3865C31.5565 20.3399 31.5891 20.2866 31.6217 20.2133C31.6543 20.14 31.6804 20.0601 31.713 19.9735C31.7456 19.8869 31.7848 19.8003 31.8304 19.7138C31.8761 19.6272 31.9282 19.5472 31.9935 19.4806C32.0587 19.4074 32.1369 19.3541 32.2348 19.3074C32.3326 19.2675 32.4435 19.2408 32.5869 19.2475C32.7695 19.2475 32.9195 19.2941 33.05 19.3741C33.1804 19.454 33.2782 19.5739 33.3435 19.7204C33.4087 19.8669 33.4413 20.0401 33.4413 20.2399C33.4413 20.4331 33.4022 20.6196 33.3369 20.7861C33.2717 20.9527 33.1739 21.0925 33.05 21.1991L32.5674 20.7328C32.6522 20.6529 32.7109 20.573 32.7565 20.4931C32.7956 20.4131 32.8217 20.3265 32.8217 20.2266C32.8217 20.1534 32.8087 20.0934 32.7826 20.0468C32.7565 20.0002 32.7174 19.9802 32.6652 19.9802C32.613 19.9802 32.5674 20.0002 32.5282 20.0468C32.4956 20.0934 32.463 20.1467 32.4304 20.22C32.3978 20.2932 32.3717 20.3732 32.3391 20.4598C32.3065 20.5463 32.2674 20.6329 32.2282 20.7195C32.1826 20.8061 32.1304 20.886 32.0652 20.9527C32 21.0259 31.9152 21.0792 31.8174 21.1258C31.7195 21.1658 31.5956 21.1924 31.4587 21.1858C31.1782 21.1858 30.9565 21.0859 30.8065 20.8927C30.6565 20.6995 30.5782 20.4331 30.5848 20.0868L30.5652 20.0734Z" fill="#20FF20"/>
<path d="M30.4478 21.9644L33.1674 22.5572L33.0174 23.2766L30.2978 22.6838L30.4478 21.9644ZM32.6782 21.6514L33.3239 21.7912L32.8543 24.0359L32.2087 23.896L32.6782 21.6514Z" fill="#20FF20"/>
<path d="M19.4783 16.5363C19.3152 16.6695 19.237 16.8493 19.2043 16.9492C19.0413 17.4088 18.9761 17.8085 18.9435 18.0816C18.9239 18.2947 18.8913 18.5878 18.9435 18.9608C18.9435 19.0008 18.9891 19.2872 19.0674 19.487C19.3609 20.2663 20.4174 20.4262 20.6978 20.4728C21.0435 20.5327 21.6761 20.6393 22.1848 20.2263C22.3935 20.0532 22.563 19.8134 22.6478 19.6868C22.9022 19.3205 23.0326 18.9808 23.0717 18.8675C23.2152 18.4679 23.437 17.8351 23.2087 17.3889C23.1696 17.3156 23.0913 17.189 22.5956 16.9293C21.7674 16.503 21.1087 16.4164 20.5804 16.3498C20.5609 16.3498 20.2609 16.3098 19.8761 16.3764C19.6674 16.4097 19.5696 16.4564 19.4783 16.5296V16.5363Z" fill="black"/>
<path d="M24.4609 18.6407C24.4478 18.714 24.4413 18.7739 24.4413 18.7939C24.3826 19.833 24.2196 20.3059 24.4543 20.7921C24.6826 21.2717 25.1782 21.5648 25.6282 21.6514C25.7261 21.6713 26.3848 21.7912 26.8543 21.3849C27.0109 21.2451 27.1152 21.0852 27.2522 20.872C27.4804 20.5124 27.5913 20.1927 27.6174 20.0994C27.7869 19.5932 27.8261 19.0603 27.8261 19.0603C27.8261 19.0603 27.7674 18.7273 27.7609 18.694C27.663 18.1811 25.25 17.3086 24.5978 18.281C24.4869 18.4475 24.4543 18.6474 24.4543 18.6474L24.4609 18.6407Z" fill="black"/>
</g>
<defs>
<clipPath id="clip0_872_1240">
<rect width="30" height="30" fill="white" transform="translate(5 5)"/>
</clipPath>
</defs>
</svg>
